<svg width="135" height="17" fill="none" xmlns="http://www.w3.org/2000/svg">
    <path d="M80.146 15.712c.897.61 2.235.694 4.014.252v-1.212c-1.383.381-2.414.385-3.09.011-.677-.373-1.015-1.178-1.015-2.413V5.01h4.15v-1.12h-4.15V.296h-1.232v3.591h-2.737v1.12h2.737l-.023 7.365c0 1.617.449 2.73 1.346 3.34zm9.625.48c.852 0 1.585-.137 2.201-.411.616-.274 1.13-.595 1.54-.96a5.3 5.3 0 0 0 .969-1.11c.236-.373.4-.66.49-.857v3.156h1.21V7.593c0-.61-.141-1.155-.423-1.635a3.877 3.877 0 0 0-1.14-1.224 5.555 5.555 0 0 0-1.688-.777 7.546 7.546 0 0 0-2.064-.275c-.639 0-1.255.073-1.848.218a5.225 5.225 0 0 0-1.573.651c-.457.29-.83.652-1.118 1.087-.289.434-.464.949-.525 1.544l1.232-.023c.076-.458.243-.839.502-1.144.258-.305.562-.549.912-.732.35-.183.738-.312 1.163-.389a7.234 7.234 0 0 1 1.278-.114 6.36 6.36 0 0 1 1.55.183c.487.122.92.305 1.3.549.38.244.681.553.902.926.22.374.33.812.33 1.315v1.052l-4.105.023c-1.05 0-1.931.115-2.646.343-.715.229-1.281.526-1.7.892a3.103 3.103 0 0 0-.889 1.247 3.7 3.7 0 0 0-.24 1.43c.031.563.164 1.059.4 1.486.236.427.551.785.947 1.075.395.29.851.51 1.368.663a5.858 5.858 0 0 0 1.665.229zm.069-1.12c-.411 0-.799-.05-1.164-.149a3.203 3.203 0 0 1-.98-.446 2.63 2.63 0 0 1-.719-.732c-.19-.29-.3-.617-.33-.983-.031-.32.014-.652.136-.995.122-.343.346-.655.673-.938.327-.282.783-.518 1.368-.709.586-.19 1.32-.285 2.202-.285h3.945c0 .716-.136 1.395-.41 2.035a5.273 5.273 0 0 1-2.76 2.79 4.815 4.815 0 0 1-1.962.412zm9.716.938V0h-1.254v16.01h1.254zm8.074.183c.593 0 1.171-.084 1.734-.252a6.434 6.434 0 0 0 1.562-.698 6.763 6.763 0 0 0 1.312-1.063c.395-.412.714-.87.957-1.372l-1.208-.206a4.95 4.95 0 0 1-1.825 1.761 5.024 5.024 0 0 1-2.532.663 4.971 4.971 0 0 1-1.847-.343 4.797 4.797 0 0 1-1.528-.96 4.861 4.861 0 0 1-1.072-1.476 5.095 5.095 0 0 1-.479-1.886h10.993c.031-.153.042-.324.034-.515a5.677 5.677 0 0 0-.057-.606 6.64 6.64 0 0 0-.638-2.161 6.183 6.183 0 0 0-1.3-1.773 6.003 6.003 0 0 0-1.848-1.19 5.84 5.84 0 0 0-2.258-.434 5.94 5.94 0 0 0-2.418.492 6.364 6.364 0 0 0-1.961 1.338 6.192 6.192 0 0 0-1.802 4.414c0 .87.16 1.681.479 2.436a6.416 6.416 0 0 0 1.312 1.99 6.09 6.09 0 0 0 1.961 1.349 6.016 6.016 0 0 0 2.429.492zm4.813-6.862h-9.739a5.13 5.13 0 0 1 .49-1.76 4.797 4.797 0 0 1 2.566-2.39 4.834 4.834 0 0 1 1.847-.355c.654 0 1.262.118 1.825.354a4.875 4.875 0 0 1 1.483.96c.425.405.771.881 1.037 1.43a5.13 5.13 0 0 1 .491 1.761zm3.946 6.679V9.835c0-.732.11-1.407.33-2.025a4.637 4.637 0 0 1 .924-1.578 4.263 4.263 0 0 1 1.391-1.017 4.113 4.113 0 0 1 1.734-.366c.532 0 1.045.091 1.539.274.495.183.932.458 1.312.823.38.366.68.82.901 1.361.22.542.331 1.178.331 1.91v6.793h1.254V8.76c0-.808-.141-1.525-.422-2.15a4.74 4.74 0 0 0-1.14-1.59 4.992 4.992 0 0 0-1.654-.995 5.585 5.585 0 0 0-1.939-.343c-.562 0-1.083.076-1.562.229a5.12 5.12 0 0 0-1.3.617 4.914 4.914 0 0 0-1.699 1.922V3.888h-1.255V16.01h1.255zm14.552-.298c.897.61 2.235.694 4.014.252v-1.212c-1.384.381-2.414.385-3.091.011-.676-.373-1.015-1.178-1.015-2.413V5.01H135v-1.12h-4.151V.296h-1.231v3.591h-2.737v1.12h2.737l-.023 7.365c0 1.617.448 2.73 1.346 3.34z" fill="#000"/>
    <path d="M5.773 3.695c1.198 0 2.26.296 3.186.889v-.625h3.88v11.646H8.96v-.648c-.926.592-1.988.888-3.186.888-1.038 0-2-.268-2.886-.804a5.86 5.86 0 0 1-2.108-2.197C.259 11.915 0 10.89 0 9.77c0-1.136.26-2.169.779-3.097a5.769 5.769 0 0 1 2.107-2.185 5.537 5.537 0 0 1 2.887-.793zm.562 3.435a2.61 2.61 0 0 0-2.607 2.613 2.61 2.61 0 0 0 2.607 2.614A2.61 2.61 0 0 0 8.94 9.742 2.61 2.61 0 0 0 6.335 7.13zM20 15.87c1.055 0 2.02-.213 2.899-.637a5.423 5.423 0 0 0 2.12-1.777c.535-.76.842-1.637.922-2.63h-3.665a2.003 2.003 0 0 1-.766 1.274c-.416.32-.919.48-1.51.48-.814 0-1.46-.264-1.94-.793-.479-.528-.718-1.2-.718-2.017 0-.816.24-1.484.718-2.005.48-.52 1.126-.78 1.94-.78.591 0 1.094.16 1.51.48.415.32.67.745.766 1.273h3.665c-.08-.993-.387-1.87-.922-2.63a5.423 5.423 0 0 0-2.12-1.776c-.878-.425-1.845-.637-2.899-.637-1.213 0-2.3.26-3.257.78a5.802 5.802 0 0 0-2.264 2.174c-.55.928-.826 1.969-.826 3.121 0 1.169.275 2.217.826 3.146a5.801 5.801 0 0 0 2.264 2.173c.958.52 2.044.78 3.258.78zm12.908 0c1.054 0 2.02-.213 2.898-.637a5.422 5.422 0 0 0 2.12-1.777c.535-.76.843-1.637.922-2.63h-3.665a2.003 2.003 0 0 1-.766 1.274c-.415.32-.918.48-1.51.48-.814 0-1.46-.264-1.94-.793-.479-.528-.718-1.2-.718-2.017 0-.816.24-1.484.718-2.005.48-.52 1.126-.78 1.94-.78.592 0 1.095.16 1.51.48.415.32.67.745.766 1.273h3.665c-.08-.993-.387-1.87-.922-2.63a5.422 5.422 0 0 0-2.12-1.776c-.878-.425-1.844-.637-2.898-.637-1.214 0-2.3.26-3.258.78a5.802 5.802 0 0 0-2.264 2.174c-.55.928-.826 1.969-.826 3.121 0 1.169.275 2.217.826 3.146a5.801 5.801 0 0 0 2.264 2.173c.958.52 2.044.78 3.258.78zm12.907 0c1.437 0 2.67-.353 3.7-1.057 1.008-.69 1.653-1.615 1.935-2.779 0-.005.007-.03.026-.162.019-.131.015-.257.02-.278h-3.72c-.005.006-.035.1-.07.199a1.37 1.37 0 0 1-.095.199c-.173.254-.404.45-.694.588a2.43 2.43 0 0 1-1.054.216c-.703 0-1.274-.172-1.713-.516a2.57 2.57 0 0 1-.898-1.357h8.244c.061-.534.092-.998.092-1.393 0-1.152-.26-2.169-.779-3.05a5.428 5.428 0 0 0-2.132-2.052c-.902-.489-1.912-.733-3.03-.733-1.213 0-2.291.26-3.234.78a5.453 5.453 0 0 0-2.18 2.162c-.51.92-.766 1.965-.766 3.133 0 1.169.264 2.217.79 3.146a5.533 5.533 0 0 0 2.24 2.173c.966.52 2.072.78 3.318.78zm-2.611-7.228c.154-.663.457-1.182.91-1.557.452-.374 1.02-.562 1.703-.562.666 0 1.213.183 1.64.55.427.366.7.889.82 1.569h-5.073zm14.698 7.323c1.597 0 2.902-.336 3.916-1.008 1.015-.673 1.522-1.649 1.522-2.93 0-1.904-1.206-3.081-3.618-3.53l-2.18-.36c-.798-.144-1.197-.448-1.197-.912 0-.24.124-.44.371-.6.248-.16.611-.24 1.09-.24.56 0 1.018.108 1.378.324.359.216.555.54.586.972h3.45c-.08-1.408-.647-2.433-1.7-3.073-1.055-.64-2.3-.96-3.738-.96-1.565 0-2.818.343-3.76 1.032-.943.688-1.414 1.64-1.414 2.857 0 .993.303 1.781.91 2.365.607.585 1.438.965 2.492 1.14l2.347.41c.367.063.647.167.839.311.191.144.287.312.287.505 0 .256-.148.456-.443.6-.296.144-.699.216-1.21.216-.623 0-1.13-.12-1.521-.36s-.627-.608-.707-1.105l-3.45-.024c.113 1.473.692 2.57 1.738 3.29 1.046.72 2.383 1.08 4.012 1.08zm11.776 0c1.597 0 2.902-.336 3.916-1.008 1.014-.673 1.521-1.649 1.521-2.93 0-1.904-1.205-3.081-3.617-3.53l-2.18-.36c-.798-.144-1.197-.448-1.197-.912 0-.24.123-.44.37-.6.249-.16.612-.24 1.09-.24.56 0 1.019.108 1.378.324.36.216.555.54.587.972h3.45c-.08-1.408-.647-2.433-1.701-3.073-1.054-.64-2.3-.96-3.737-.96-1.565 0-2.819.343-3.76 1.032-.943.688-1.414 1.64-1.414 2.857 0 .993.303 1.781.91 2.365.607.585 1.437.965 2.491 1.14l2.348.41c.367.063.647.167.838.311.192.144.288.312.288.505 0 .256-.148.456-.444.6-.295.144-.698.216-1.21.216-.622 0-1.129-.12-1.52-.36s-.627-.608-.707-1.105l-3.45-.024c.112 1.473.691 2.57 1.737 3.29 1.046.72 2.384 1.08 4.013 1.08z" fill="#1F1F1F"/>
    <path d="M13.016.37H.62v1.865h12.397V.37z" fill="#99C2DE"/>
</svg>
