<svg width="197" height="17" fill="none" xmlns="http://www.w3.org/2000/svg">
    <path d="M86.205 16.948c.894 0 1.664-.144 2.31-.431.647-.287 1.185-.623 1.616-1.006.43-.383.77-.77 1.017-1.16.248-.392.42-.69.515-.898v3.303h1.269V7.947c0-.638-.148-1.209-.443-1.711a4.062 4.062 0 0 0-1.197-1.281 5.837 5.837 0 0 0-1.771-.814 7.939 7.939 0 0 0-2.167-.287c-.67 0-1.316.076-1.939.227a5.49 5.49 0 0 0-1.651.683c-.48.303-.87.682-1.173 1.137-.303.454-.487.993-.55 1.615l1.292-.024c.08-.478.255-.877.526-1.196.272-.32.59-.575.958-.766a4.23 4.23 0 0 1 1.22-.407c.448-.08.894-.12 1.341-.12.575 0 1.117.064 1.628.191.51.128.965.32 1.364.575.4.255.715.578.946.97.231.39.347.85.347 1.376v1.1l-4.309.025c-1.1 0-2.026.12-2.776.359-.75.24-1.345.55-1.784.933-.439.383-.75.818-.933 1.305a3.862 3.862 0 0 0-.252 1.496c.032.59.172 1.11.42 1.556.247.447.578.822.993 1.125.414.303.893.535 1.436.694.543.16 1.125.24 1.747.24zm.072-1.173c-.43 0-.838-.052-1.22-.156a3.362 3.362 0 0 1-1.03-.467 2.755 2.755 0 0 1-.754-.766 2.168 2.168 0 0 1-.347-1.029 2.405 2.405 0 0 1 .144-1.041c.127-.36.363-.687.706-.982.343-.295.822-.542 1.436-.742.614-.2 1.384-.299 2.31-.299h4.141c0 .75-.144 1.46-.43 2.13a5.516 5.516 0 0 1-2.897 2.92c-.655.288-1.34.432-2.059.432zm14.841 1.173a6.292 6.292 0 0 0 4.967-2.418 6.645 6.645 0 0 0 .946-1.628l-1.293-.215a5.34 5.34 0 0 1-1.831 2.178c-.806.559-1.736.838-2.789.838a5.061 5.061 0 0 1-2.022-.407 5.283 5.283 0 0 1-1.664-1.125 5.213 5.213 0 0 1-1.125-1.688 5.356 5.356 0 0 1-.407-2.094 5.416 5.416 0 0 1 1.508-3.758 5.129 5.129 0 0 1 3.71-1.556c1.053 0 1.983.279 2.789.838a5.305 5.305 0 0 1 1.831 2.202l1.293-.24a6.64 6.64 0 0 0-.934-1.615 6.292 6.292 0 0 0-4.979-2.406c-.909 0-1.755.171-2.537.515a6.675 6.675 0 0 0-2.059 1.4 6.47 6.47 0 0 0-1.89 4.62c0 .878.163 1.715.49 2.513a6.513 6.513 0 0 0 1.364 2.095 6.555 6.555 0 0 0 2.059 1.424c.79.351 1.648.527 2.573.527zm13.525 0a6.286 6.286 0 0 0 3.614-1.137c.511-.36.962-.786 1.353-1.281a6.61 6.61 0 0 0 .945-1.628l-1.292-.215a5.347 5.347 0 0 1-1.831 2.178c-.806.559-1.736.838-2.789.838a5.062 5.062 0 0 1-2.023-.407 5.237 5.237 0 0 1-2.789-2.813 5.362 5.362 0 0 1-.407-2.094 5.3 5.3 0 0 1 .407-2.07 5.43 5.43 0 0 1 1.102-1.688 5.12 5.12 0 0 1 1.651-1.137 5.083 5.083 0 0 1 2.059-.42c1.053 0 1.983.28 2.789.839a5.313 5.313 0 0 1 1.831 2.202l1.292-.24a6.604 6.604 0 0 0-.933-1.615 6.32 6.32 0 0 0-3.028-2.107c-.615-.2-1.265-.3-1.951-.3-.91 0-1.756.172-2.538.516a6.68 6.68 0 0 0-2.058 1.4 6.461 6.461 0 0 0-1.891 4.62c0 .877.163 1.715.491 2.513a6.5 6.5 0 0 0 1.364 2.095 6.553 6.553 0 0 0 2.059 1.424 6.258 6.258 0 0 0 2.573.527zm13.524 0c.623 0 1.229-.088 1.82-.264a6.746 6.746 0 0 0 1.639-.73 7.07 7.07 0 0 0 1.377-1.113c.415-.43.75-.91 1.005-1.436l-1.269-.215a5.177 5.177 0 0 1-1.915 1.843 5.28 5.28 0 0 1-2.657.694c-.686 0-1.332-.12-1.939-.36a5.043 5.043 0 0 1-1.603-1.005 5.093 5.093 0 0 1-1.125-1.544 5.328 5.328 0 0 1-.503-1.974h11.538c.032-.16.044-.34.036-.539-.008-.2-.028-.41-.06-.634a6.936 6.936 0 0 0-.67-2.262 6.47 6.47 0 0 0-1.365-1.856 6.304 6.304 0 0 0-1.939-1.244 6.146 6.146 0 0 0-2.37-.455c-.909 0-1.755.171-2.537.515a6.684 6.684 0 0 0-2.059 1.4 6.475 6.475 0 0 0-1.891 4.62c0 .91.168 1.76.503 2.55.335.789.794 1.483 1.376 2.082a6.404 6.404 0 0 0 2.059 1.412 6.33 6.33 0 0 0 2.549.515zm5.051-7.182h-10.221a5.362 5.362 0 0 1 .515-1.843 5.009 5.009 0 0 1 1.101-1.496 5.19 5.19 0 0 1 3.53-1.376c.687 0 1.325.123 1.915.37a5.1 5.1 0 0 1 1.556 1.006c.447.423.81.922 1.09 1.496.279.575.45 1.19.514 1.843zm4.548 6.99V0h-1.316v16.756h1.316zm8.474.192a6.35 6.35 0 0 0 1.819-.264 6.753 6.753 0 0 0 1.64-.73 7.034 7.034 0 0 0 1.376-1.113c.415-.43.75-.91 1.006-1.436l-1.269-.215a5.184 5.184 0 0 1-1.915 1.843 5.283 5.283 0 0 1-2.657.694c-.686 0-1.332-.12-1.939-.36a5.06 5.06 0 0 1-1.604-1.005 5.127 5.127 0 0 1-1.125-1.544 5.327 5.327 0 0 1-.502-1.974h11.537c.032-.16.044-.34.036-.539-.008-.2-.028-.41-.06-.634a6.912 6.912 0 0 0-.67-2.262 6.316 6.316 0 0 0-3.303-3.1 6.146 6.146 0 0 0-2.37-.455c-.91 0-1.755.171-2.537.515a6.684 6.684 0 0 0-2.059 1.4 6.475 6.475 0 0 0-1.891 4.62c0 .91.168 1.76.503 2.55.335.789.794 1.483 1.376 2.082a6.404 6.404 0 0 0 2.059 1.412c.79.343 1.639.515 2.549.515zm5.051-7.182H141.07a5.361 5.361 0 0 1 .514-1.843 5.043 5.043 0 0 1 1.101-1.496 5.201 5.201 0 0 1 3.531-1.376c.686 0 1.325.123 1.915.37a5.113 5.113 0 0 1 1.556 1.006c.447.423.81.922 1.089 1.496.279.575.451 1.19.515 1.843zm4.141 6.99v-6.343c0-.942.14-1.76.419-2.454.279-.694.666-1.26 1.161-1.7a3.876 3.876 0 0 1 1.747-.885c.671-.152 1.397-.14 2.179.036V4.02c-1.373-.223-2.534-.067-3.483.467-.95.535-1.624 1.353-2.023 2.454V4.069h-1.317v12.687h1.317zm11.059.192c.894 0 1.664-.144 2.31-.431.646-.287 1.185-.623 1.616-1.006.431-.383.77-.77 1.017-1.16.247-.392.419-.69.515-.898v3.303h1.268V7.947c0-.638-.147-1.209-.442-1.711a4.08 4.08 0 0 0-1.197-1.281 5.835 5.835 0 0 0-1.772-.814 7.936 7.936 0 0 0-2.166-.287c-.67 0-1.317.076-1.939.227a5.5 5.5 0 0 0-1.652.683 3.896 3.896 0 0 0-1.172 1.137c-.304.454-.487.993-.551 1.615l1.293-.024c.079-.478.255-.877.526-1.196.271-.32.591-.575.958-.766a4.232 4.232 0 0 1 1.22-.407c.447-.08.894-.12 1.341-.12.574 0 1.117.064 1.628.191.51.128.965.32 1.364.575.399.255.714.578.946.97.231.39.347.85.347 1.376v1.1l-4.309.025c-1.101 0-2.027.12-2.777.359-.75.24-1.344.55-1.783.933-.439.383-.75.818-.934 1.305a3.869 3.869 0 0 0-.251 1.496c.032.59.172 1.11.419 1.556.247.447.578.822.993 1.125.415.303.894.535 1.437.694.542.16 1.125.24 1.747.24zm.072-1.173c-.431 0-.838-.052-1.221-.156a3.358 3.358 0 0 1-1.029-.467 2.751 2.751 0 0 1-.754-.766 2.164 2.164 0 0 1-.347-1.029 2.414 2.414 0 0 1 .143-1.041c.128-.36.363-.687.706-.982.344-.295.822-.542 1.437-.742.614-.2 1.384-.299 2.31-.299h4.141a5.508 5.508 0 0 1-3.328 5.05c-.654.288-1.34.432-2.058.432zm11.873.67c.941.638 2.346.726 4.213.263V15.44c-1.452.399-2.534.402-3.244.011-.71-.39-1.065-1.232-1.065-2.525V5.242h4.357V4.07h-4.357V.311h-1.293V4.07h-2.872v1.173h2.872l-.024 7.708c0 1.692.471 2.857 1.413 3.495zm11.49.503c.622 0 1.228-.088 1.819-.264a6.77 6.77 0 0 0 1.64-.73 7.093 7.093 0 0 0 1.376-1.113c.415-.43.75-.91 1.005-1.436l-1.268-.215a5.184 5.184 0 0 1-1.915 1.843c-.814.462-1.7.694-2.657.694a5.23 5.23 0 0 1-1.939-.36 5.048 5.048 0 0 1-1.604-1.005 5.093 5.093 0 0 1-1.125-1.544 5.347 5.347 0 0 1-.503-1.974h11.538c.032-.16.044-.34.036-.539-.008-.2-.028-.41-.06-.634a6.936 6.936 0 0 0-.67-2.262 6.451 6.451 0 0 0-1.365-1.856 6.292 6.292 0 0 0-1.939-1.244 6.144 6.144 0 0 0-2.369-.455c-.91 0-1.756.171-2.538.515a6.668 6.668 0 0 0-2.058 1.4 6.462 6.462 0 0 0-1.891 4.62c0 .91.167 1.76.502 2.55.335.789.794 1.483 1.377 2.082a6.389 6.389 0 0 0 4.608 1.927zm5.05-7.182h-10.221a5.384 5.384 0 0 1 .515-1.843 5.009 5.009 0 0 1 1.101-1.496 5.19 5.19 0 0 1 3.531-1.376c.686 0 1.324.123 1.915.37.59.248 1.109.583 1.556 1.006.446.423.81.922 1.089 1.496.279.575.451 1.19.514 1.843z" fill="#000"/>
    <path d="M6.059 4.043c1.257 0 2.371.31 3.343.93V4.32h4.073v12.189H9.402v-.679c-.972.62-2.086.93-3.343.93-1.09 0-2.1-.28-3.03-.842a6.14 6.14 0 0 1-2.212-2.3C.272 12.647 0 11.574 0 10.402c0-1.19.272-2.27.817-3.242a6.045 6.045 0 0 1 2.212-2.287c.93-.553 1.94-.83 3.03-.83zm.589 3.596a2.735 2.735 0 1 0 0 5.47 2.735 2.735 0 0 0 0-5.47zm14.342 9.146c1.106 0 2.12-.222 3.042-.666a5.688 5.688 0 0 0 2.225-1.86c.561-.796.884-1.713.968-2.752h-3.846c-.101.553-.37.997-.805 1.332-.436.335-.964.503-1.584.503-.854 0-1.533-.276-2.036-.83-.503-.552-.754-1.256-.754-2.11 0-.855.251-1.554.754-2.099.503-.544 1.181-.817 2.036-.817.62 0 1.148.168 1.584.503.436.335.704.78.805 1.332h3.846c-.084-1.039-.407-1.956-.968-2.752a5.687 5.687 0 0 0-2.225-1.86c-.922-.444-1.936-.666-3.042-.666-1.273 0-2.413.273-3.419.817a6.081 6.081 0 0 0-2.375 2.275c-.579.971-.868 2.06-.868 3.267 0 1.223.29 2.32.868 3.292a6.08 6.08 0 0 0 2.375 2.274c1.006.545 2.145.817 3.42.817zm13.546 0c1.106 0 2.12-.222 3.042-.666a5.687 5.687 0 0 0 2.225-1.86c.562-.796.884-1.713.968-2.752h-3.846c-.101.553-.37.997-.805 1.332-.436.335-.964.503-1.584.503-.855 0-1.533-.276-2.036-.83-.503-.552-.754-1.256-.754-2.11 0-.855.251-1.554.754-2.099.503-.544 1.181-.817 2.036-.817.62 0 1.148.168 1.584.503.436.335.704.78.805 1.332h3.846c-.084-1.039-.407-1.956-.968-2.752a5.687 5.687 0 0 0-2.225-1.86c-.922-.444-1.936-.666-3.042-.666-1.273 0-2.413.273-3.419.817a6.081 6.081 0 0 0-2.376 2.275c-.578.971-.867 2.06-.867 3.267 0 1.223.29 2.32.867 3.292a6.08 6.08 0 0 0 2.376 2.274c1.006.545 2.146.817 3.42.817zm13.546 0c1.508 0 2.803-.369 3.884-1.106 1.058-.72 1.734-1.69 2.03-2.908.001-.005.008-.031.027-.17.02-.137.016-.269.021-.29H50.14c-.005.006-.036.105-.073.207-.037.1-.095.202-.1.208a1.793 1.793 0 0 1-.728.616c-.319.15-.688.226-1.107.226-.737 0-1.336-.18-1.797-.54a2.69 2.69 0 0 1-.943-1.42h8.652c.065-.559.097-1.044.097-1.458 0-1.206-.273-2.27-.817-3.191a5.69 5.69 0 0 0-2.238-2.15c-.947-.51-2.007-.766-3.18-.766-1.274 0-2.405.273-3.394.817a5.716 5.716 0 0 0-2.287 2.262c-.537.963-.805 2.057-.805 3.28 0 1.223.277 2.32.83 3.292a5.8 5.8 0 0 0 2.35 2.274c1.014.545 2.175.817 3.482.817zm-2.74-7.565c.161-.693.48-1.236.954-1.628.475-.393 1.071-.589 1.788-.589.7 0 1.273.192 1.721.575.448.383.735.93.86 1.642h-5.323zm15.425 7.665c1.676 0 3.046-.351 4.11-1.055 1.065-.704 1.597-1.726 1.597-3.066 0-1.994-1.265-3.225-3.796-3.694l-2.288-.377c-.838-.151-1.257-.47-1.257-.955 0-.252.13-.461.39-.629.26-.167.641-.25 1.144-.25.587 0 1.068.112 1.445.338.377.227.583.566.616 1.018h3.62c-.083-1.474-.678-2.546-1.784-3.217-1.107-.67-2.414-1.005-3.922-1.005-1.643 0-2.958.36-3.947 1.08-.99.721-1.483 1.718-1.483 2.991 0 1.04.318 1.864.955 2.476.637.611 1.508 1.01 2.614 1.194l2.464.427c.386.067.679.176.88.327.201.15.302.326.302.527 0 .268-.155.478-.465.629-.31.15-.734.226-1.27.226-.654 0-1.186-.126-1.596-.377-.411-.252-.658-.637-.742-1.156l-3.62-.025c.117 1.541.725 2.689 1.822 3.443 1.098.754 2.502 1.13 4.211 1.13zm12.359 0c1.676 0 3.046-.351 4.11-1.055 1.064-.704 1.597-1.726 1.597-3.066 0-1.994-1.266-3.225-3.796-3.694l-2.288-.377c-.838-.151-1.257-.47-1.257-.955 0-.252.13-.461.39-.629.26-.167.64-.25 1.143-.25.587 0 1.069.112 1.446.338.377.227.582.566.616 1.018h3.62c-.084-1.474-.679-2.546-1.785-3.217-1.106-.67-2.413-1.005-3.922-1.005-1.642 0-2.958.36-3.947 1.08-.989.721-1.483 1.718-1.483 2.991 0 1.04.318 1.864.955 2.476.637.611 1.509 1.01 2.615 1.194l2.463.427c.386.067.68.176.88.327.201.15.302.326.302.527 0 .268-.155.478-.465.629-.31.15-.733.226-1.27.226-.653 0-1.185-.126-1.596-.377-.41-.252-.658-.637-.742-1.156l-3.62-.025c.118 1.541.725 2.689 1.823 3.443 1.098.754 2.501 1.13 4.21 1.13z" fill="#1F1F1F"/>
    <path d="M13.661.563H.651v1.952h13.01V.563z" fill="#FCC55C"/>
</svg>
