<svg width="162" height="16" fill="none" xmlns="http://www.w3.org/2000/svg">
    <path d="M5.838 3.354c1.212 0 2.286.299 3.222.896v-.63h3.925v11.746H9.06v-.654c-.936.597-2.01.896-3.222.896-1.05 0-2.022-.27-2.919-.811A5.917 5.917 0 0 1 .787 12.58C.262 11.644 0 10.61 0 9.48c0-1.146.262-2.188.787-3.124A5.825 5.825 0 0 1 2.92 4.153c.897-.533 1.87-.8 2.92-.8zm.568 3.464a2.636 2.636 0 1 0 0 5.272 2.636 2.636 0 0 0 0-5.272zm13.82 8.814c1.067 0 2.044-.214 2.932-.642a5.48 5.48 0 0 0 2.144-1.792c.541-.767.852-1.65.933-2.652h-3.707c-.096.533-.355.961-.775 1.284-.42.323-.928.484-1.526.484-.824 0-1.478-.266-1.962-.799-.485-.533-.727-1.21-.727-2.034 0-.824.242-1.498.727-2.022.484-.525 1.138-.787 1.962-.787.598 0 1.106.161 1.526.484.42.323.678.75.775 1.284h3.707c-.08-1.001-.392-1.885-.933-2.652a5.48 5.48 0 0 0-2.144-1.792c-.888-.428-1.865-.642-2.931-.642-1.227 0-2.326.262-3.295.787a5.859 5.859 0 0 0-2.289 2.192c-.557.936-.836 1.985-.836 3.148 0 1.178.279 2.236.836 3.172a5.859 5.859 0 0 0 2.29 2.192c.968.525 2.067.787 3.294.787zm13.054 0c1.066 0 2.043-.214 2.932-.642a5.48 5.48 0 0 0 2.143-1.792c.542-.767.853-1.65.933-2.652h-3.706c-.097.533-.356.961-.776 1.284-.42.323-.928.484-1.526.484-.823 0-1.478-.266-1.962-.799-.485-.533-.727-1.21-.727-2.034 0-.824.242-1.498.727-2.022.484-.525 1.139-.787 1.962-.787.598 0 1.107.161 1.526.484.42.323.679.75.776 1.284h3.706c-.08-1.001-.391-1.885-.932-2.652a5.48 5.48 0 0 0-2.144-1.792c-.889-.428-1.866-.642-2.932-.642-1.227 0-2.325.262-3.294.787a5.86 5.86 0 0 0-2.29 2.192c-.557.936-.836 1.985-.836 3.148 0 1.178.28 2.236.836 3.172a5.86 5.86 0 0 0 2.29 2.192c.969.525 2.067.787 3.294.787zm13.054 0c1.453 0 2.7-.355 3.742-1.066 1.02-.694 1.671-1.629 1.956-2.802.002-.005.008-.03.027-.163s.015-.26.02-.281h-3.763c-.004.006-.034.102-.07.2a1.368 1.368 0 0 1-.096.201c-.175.257-.409.454-.702.593a2.465 2.465 0 0 1-1.066.218c-.71 0-1.288-.173-1.732-.52a2.592 2.592 0 0 1-.908-1.369h8.337a12.43 12.43 0 0 0 .093-1.404c0-1.163-.262-2.188-.787-3.076a5.483 5.483 0 0 0-2.156-2.07c-.913-.493-1.934-.74-3.065-.74-1.227 0-2.318.263-3.27.788a5.508 5.508 0 0 0-2.205 2.18c-.517.928-.775 1.981-.775 3.16 0 1.178.266 2.236.8 3.172a5.589 5.589 0 0 0 2.264 2.192c.977.525 2.096.787 3.356.787zm-2.641-7.29c.156-.668.462-1.19.92-1.569.458-.378 1.032-.567 1.723-.567.674 0 1.226.184 1.658.554.432.37.708.897.83 1.583h-5.131zm14.864 7.387c1.616 0 2.936-.34 3.961-1.017 1.026-.678 1.539-1.663 1.539-2.955 0-1.921-1.22-3.108-3.658-3.56l-2.205-.363c-.807-.145-1.211-.452-1.211-.92 0-.242.125-.444.375-.606.25-.161.618-.242 1.103-.242.565 0 1.03.11 1.393.327.363.218.56.545.593.98h3.489c-.081-1.42-.654-2.453-1.72-3.099-1.066-.646-2.326-.969-3.78-.969-1.582 0-2.85.348-3.803 1.042-.953.694-1.43 1.655-1.43 2.882 0 1 .307 1.796.921 2.385.614.59 1.454.973 2.52 1.15l2.374.412c.371.065.654.17.848.315.194.145.29.315.29.508 0 .259-.149.46-.448.606-.298.145-.706.218-1.223.218-.63 0-1.143-.121-1.538-.363-.396-.243-.634-.614-.715-1.114l-3.489-.025c.113 1.486.699 2.592 1.757 3.318 1.058.727 2.41 1.09 4.057 1.09zm11.91 0c1.615 0 2.935-.34 3.96-1.017 1.026-.678 1.539-1.663 1.539-2.955 0-1.921-1.22-3.108-3.658-3.56l-2.205-.363c-.807-.145-1.211-.452-1.211-.92 0-.242.125-.444.375-.606.25-.161.618-.242 1.103-.242.565 0 1.03.11 1.393.327.363.218.56.545.593.98h3.489c-.081-1.42-.654-2.453-1.72-3.099-1.066-.646-2.326-.969-3.78-.969-1.582 0-2.85.348-3.803 1.042-.953.694-1.43 1.655-1.43 2.882 0 1 .308 1.796.921 2.385.614.59 1.454.973 2.52 1.15l2.374.412c.371.065.654.17.848.315.194.145.29.315.29.508 0 .259-.149.46-.448.606-.299.145-.706.218-1.223.218-.63 0-1.143-.121-1.538-.363-.396-.243-.634-.614-.715-1.114l-3.489-.025c.114 1.486.699 2.592 1.757 3.318 1.058.727 2.41 1.09 4.058 1.09z" fill="#1F1F1F"/>
    <path d="M13.164 0H.627v1.88h12.537V0z" fill="#142744"/>
    <path d="M79.343 15.774v-6c0-.71.108-1.366.322-1.966.215-.6.515-1.11.9-1.533a4.155 4.155 0 0 1 1.356-.989 4.013 4.013 0 0 1 1.688-.355c.519 0 1.019.089 1.5.266.481.178.907.445 1.278.8.37.356.662.797.877 1.322.215.526.322 1.145.322 1.856v6.599h1.222V8.73c0-.785-.137-1.481-.41-2.088a4.611 4.611 0 0 0-1.112-1.545 4.869 4.869 0 0 0-1.61-.966 5.454 5.454 0 0 0-1.89-.333c-.547 0-1.055.074-1.521.222a4.991 4.991 0 0 0-1.267.6 4.77 4.77 0 0 0-.977.855 4.93 4.93 0 0 0-.678 1.011V3.998h-1.222v11.776h1.222zm17.317.177c.577 0 1.14-.081 1.688-.244a6.272 6.272 0 0 0 1.522-.678 6.563 6.563 0 0 0 1.278-1.033c.385-.4.696-.844.933-1.333l-1.178-.2a4.806 4.806 0 0 1-1.777 1.71 4.905 4.905 0 0 1-2.466.645 4.856 4.856 0 0 1-1.8-.333 4.688 4.688 0 0 1-1.489-.933c-.43-.4-.777-.878-1.044-1.433a4.959 4.959 0 0 1-.467-1.833h10.71c.029-.149.041-.315.033-.5a5.874 5.874 0 0 0-.055-.59 6.455 6.455 0 0 0-.622-2.099 6.008 6.008 0 0 0-1.267-1.722 5.85 5.85 0 0 0-1.8-1.155 5.704 5.704 0 0 0-2.2-.422c-.844 0-1.629.159-2.355.477a6.196 6.196 0 0 0-1.91 1.3 6.006 6.006 0 0 0-1.756 4.288c0 .845.156 1.633.467 2.367a6.234 6.234 0 0 0 1.278 1.933 5.935 5.935 0 0 0 4.277 1.788zm4.688-6.665H91.86a4.99 4.99 0 0 1 .478-1.711c.26-.533.6-.996 1.022-1.389a4.82 4.82 0 0 1 3.278-1.277c.636 0 1.229.114 1.777.344.548.23 1.03.54 1.444.933.415.393.752.856 1.011 1.389.259.533.419 1.103.478 1.71zm6.051 6.199c.874.592 2.178.674 3.911.244v-1.177c-1.348.37-2.351.374-3.011.01-.659-.362-.988-1.144-.988-2.343V5.086h4.043V3.998h-4.043V.509h-1.2v3.489h-2.666v1.088h2.666l-.022 7.155c0 1.57.437 2.651 1.31 3.244zm10.54.289 2.911-11.199 2.888 11.199h2.022l3.489-11.776h-1.267l-3.222 11.176-2.888-11.176h-2.044l-2.911 11.176-3.221-11.176h-1.267l3.488 11.776h2.022zm18.05.177c.844 0 1.629-.159 2.355-.477a6.099 6.099 0 0 0 3.666-5.61c0-.83-.155-1.611-.466-2.345a6.093 6.093 0 0 0-1.278-1.922 6.165 6.165 0 0 0-1.911-1.31 5.759 5.759 0 0 0-2.366-.49c-.844 0-1.633.16-2.366.478a6.034 6.034 0 0 0-1.911 1.3 6.06 6.06 0 0 0-1.278 1.933 6.02 6.02 0 0 0-.466 2.355c0 .845.155 1.633.466 2.367a6.228 6.228 0 0 0 1.278 1.933 5.943 5.943 0 0 0 1.911 1.31 5.873 5.873 0 0 0 2.366.478zm0-1.155a4.696 4.696 0 0 1-1.877-.378 4.848 4.848 0 0 1-2.589-2.61 4.968 4.968 0 0 1-.378-1.945c0-.681.126-1.322.378-1.922.252-.6.596-1.122 1.033-1.566a4.928 4.928 0 0 1 1.533-1.055 4.64 4.64 0 0 1 1.9-.39c.667 0 1.296.13 1.889.39.592.259 1.107.61 1.544 1.055.437.444.781.967 1.033 1.566.252.6.378 1.241.378 1.922 0 .682-.126 1.322-.378 1.922a4.932 4.932 0 0 1-1.033 1.567 4.927 4.927 0 0 1-1.533 1.055 4.638 4.638 0 0 1-1.9.389zm9.073.978V9.886c0-.874.13-1.633.389-2.278.26-.644.619-1.17 1.078-1.577.459-.408 1-.682 1.622-.822.622-.141 1.296-.13 2.022.033V3.953c-1.274-.207-2.352-.063-3.233.433-.881.497-1.507 1.256-1.878 2.278V3.998h-1.222v11.776h1.222zm8.052 0V13.04l2.777-2.889 4.577 5.622h1.489l-5.31-6.444 5.043-5.332h-1.488l-7.088 7.51V.22h-1.222v15.554h1.222z" fill="#000"/>
</svg>
