<svg width="124" height="16" fill="none" xmlns="http://www.w3.org/2000/svg">
    <path d="M5.797 3.337c1.202 0 2.269.297 3.199.891v-.626h3.896v11.686H8.996v-.65c-.93.594-1.997.891-3.2.891a5.5 5.5 0 0 1-2.898-.807 5.881 5.881 0 0 1-2.116-2.205C.26 11.586 0 10.557 0 9.433c0-1.14.26-2.177.782-3.108a5.79 5.79 0 0 1 2.116-2.193 5.563 5.563 0 0 1 2.899-.795zm.564 3.447a2.62 2.62 0 0 0-2.618 2.622 2.62 2.62 0 0 0 2.618 2.622 2.62 2.62 0 0 0 2.617-2.622 2.62 2.62 0 0 0-2.617-2.622zm13.722 8.77c1.058 0 2.028-.214 2.91-.64a5.444 5.444 0 0 0 2.129-1.782c.537-.763.846-1.643.926-2.639h-3.68a2.01 2.01 0 0 1-.77 1.277c-.417.322-.922.482-1.515.482-.818 0-1.467-.265-1.948-.795-.482-.53-.722-1.205-.722-2.024 0-.82.24-1.49.722-2.012.48-.522 1.13-.783 1.948-.783.593 0 1.098.16 1.515.482.417.321.674.747.77 1.277h3.68c-.08-.996-.389-1.875-.926-2.639a5.444 5.444 0 0 0-2.129-1.783c-.882-.425-1.852-.638-2.91-.638-1.219 0-2.31.26-3.271.783a5.824 5.824 0 0 0-2.273 2.18c-.554.932-.83 1.976-.83 3.133 0 1.173.276 2.225.83 3.156a5.824 5.824 0 0 0 2.273 2.181c.962.522 2.052.783 3.27.783zm12.96 0c1.059 0 2.029-.214 2.91-.64a5.445 5.445 0 0 0 2.13-1.782c.537-.763.845-1.643.925-2.639h-3.68a2.01 2.01 0 0 1-.77 1.277c-.416.322-.921.482-1.515.482-.818 0-1.467-.265-1.948-.795-.481-.53-.722-1.205-.722-2.024 0-.82.24-1.49.722-2.012.481-.522 1.13-.783 1.948-.783.594 0 1.099.16 1.516.482.416.321.673.747.77 1.277h3.68c-.08-.996-.39-1.875-.927-2.639a5.444 5.444 0 0 0-2.128-1.783c-.882-.425-1.852-.638-2.91-.638-1.22 0-2.31.26-3.272.783a5.824 5.824 0 0 0-2.273 2.18c-.553.932-.83 1.976-.83 3.133 0 1.173.277 2.225.83 3.156a5.824 5.824 0 0 0 2.273 2.181c.962.522 2.053.783 3.271.783zm12.96 0c1.444 0 2.682-.354 3.717-1.06 1.011-.692 1.659-1.622 1.942-2.79 0-.004.007-.03.026-.162s.015-.258.02-.28h-3.736c-.004.007-.034.102-.07.2-.034.096-.09.194-.094.2a1.716 1.716 0 0 1-.698.59 2.442 2.442 0 0 1-1.058.217c-.706 0-1.28-.173-1.72-.518a2.58 2.58 0 0 1-.902-1.361h8.278c.062-.536.092-1.002.092-1.398 0-1.156-.26-2.177-.781-3.06a5.449 5.449 0 0 0-2.141-2.06c-.906-.49-1.92-.735-3.043-.735-1.218 0-2.3.26-3.247.783A5.475 5.475 0 0 0 40.4 6.289c-.513.923-.77 1.971-.77 3.144s.265 2.225.794 3.156a5.555 5.555 0 0 0 2.25 2.181c.97.522 2.08.783 3.33.783zM43.383 8.3c.154-.665.459-1.186.913-1.562.455-.376 1.025-.565 1.71-.565.67 0 1.218.184 1.647.552.429.367.703.892.823 1.575h-5.093zM58.14 15.65c1.603 0 2.914-.338 3.932-1.012 1.018-.675 1.528-1.655 1.528-2.94 0-1.912-1.211-3.092-3.633-3.542l-2.188-.361c-.802-.145-1.203-.45-1.203-.916 0-.241.124-.442.373-.602.248-.161.613-.241 1.094-.241.562 0 1.023.108 1.383.325.361.217.558.542.59.976h3.463c-.08-1.414-.65-2.442-1.707-3.084-1.059-.643-2.31-.964-3.753-.964-1.571 0-2.83.345-3.776 1.036-.946.69-1.42 1.646-1.42 2.867 0 .996.306 1.787.915 2.374.61.586 1.443.967 2.501 1.144l2.357.41c.37.064.65.168.842.313.193.145.289.313.289.506 0 .257-.148.458-.445.602-.297.145-.702.217-1.215.217-.625 0-1.134-.12-1.527-.361s-.63-.61-.71-1.109l-3.463-.024c.112 1.478.693 2.579 1.744 3.301 1.05.723 2.393 1.085 4.029 1.085zm11.824 0c1.603 0 2.914-.338 3.932-1.012 1.019-.675 1.528-1.655 1.528-2.94 0-1.912-1.21-3.092-3.632-3.542l-2.19-.361c-.8-.145-1.202-.45-1.202-.916 0-.241.124-.442.373-.602.249-.161.613-.241 1.094-.241.562 0 1.023.108 1.384.325.36.217.557.542.589.976h3.464c-.08-1.414-.65-2.442-1.708-3.084-1.059-.643-2.31-.964-3.752-.964-1.572 0-2.83.345-3.777 1.036-.946.69-1.419 1.646-1.419 2.867 0 .996.305 1.787.914 2.374.61.586 1.443.967 2.501 1.144l2.358.41c.368.064.65.168.842.313.192.145.288.313.288.506 0 .257-.148.458-.445.602-.296.145-.701.217-1.214.217-.626 0-1.135-.12-1.528-.361s-.63-.61-.71-1.109l-3.463-.024c.112 1.478.694 2.579 1.744 3.301 1.05.723 2.393 1.085 4.029 1.085z" fill="#1F1F1F"/>
    <path d="M13.071 0H.623v1.871h12.448V0z" fill="#1544D6"/>
    <path d="M84.318 15.878a6.017 6.017 0 0 0 3.458-1.09 6.16 6.16 0 0 0 1.294-1.228c.374-.475.676-.995.905-1.56l-1.237-.207a5.117 5.117 0 0 1-1.752 2.088c-.771.536-1.66.803-2.668.803-.687 0-1.332-.13-1.935-.39a5 5 0 0 1-2.668-2.697 5.144 5.144 0 0 1-.39-2.008 5.197 5.197 0 0 1 1.443-3.603 4.907 4.907 0 0 1 3.55-1.492c1.008 0 1.897.268 2.668.804a5.085 5.085 0 0 1 1.752 2.111l1.237-.23a6.346 6.346 0 0 0-.893-1.549 6.056 6.056 0 0 0-2.897-2.02 5.996 5.996 0 0 0-1.867-.286c-.87 0-1.68.164-2.428.493a6.388 6.388 0 0 0-1.97 1.343 6.205 6.205 0 0 0-1.809 4.43c0 .84.157 1.644.47 2.41a6.244 6.244 0 0 0 1.305 2.007 6.273 6.273 0 0 0 1.97 1.366 5.982 5.982 0 0 0 2.462.505zm12.917 0c.87 0 1.68-.165 2.428-.494a6.287 6.287 0 0 0 3.298-3.362c.32-.765.481-1.576.481-2.433 0-.857-.161-1.664-.481-2.421a6.313 6.313 0 0 0-1.317-1.985 6.379 6.379 0 0 0-1.97-1.354 5.927 5.927 0 0 0-2.44-.505c-.87 0-1.682.164-2.438.493a6.211 6.211 0 0 0-1.97 1.343 6.266 6.266 0 0 0-1.317 1.997 6.23 6.23 0 0 0-.48 2.432c0 .872.16 1.687.48 2.445a6.44 6.44 0 0 0 1.317 1.996 6.12 6.12 0 0 0 1.97 1.354 6.046 6.046 0 0 0 2.439.494zm0-1.194c-.687 0-1.332-.13-1.935-.39a5 5 0 0 1-2.668-2.697 5.146 5.146 0 0 1-.39-2.008c0-.703.13-1.365.39-1.985.26-.62.614-1.159 1.064-1.618.45-.459.978-.822 1.58-1.09a4.77 4.77 0 0 1 1.959-.402c.687 0 1.336.134 1.947.402.61.268 1.141.631 1.591 1.09.451.46.806.998 1.065 1.618.26.62.39 1.282.39 1.985 0 .704-.13 1.366-.39 1.986a5.076 5.076 0 0 1-1.065 1.618 5.07 5.07 0 0 1-1.58 1.09 4.77 4.77 0 0 1-1.958.401zm8.955 1.01V9.612c0-.902.133-1.687.401-2.352.267-.666.637-1.209 1.11-1.63a3.71 3.71 0 0 1 1.672-.849c.642-.145 1.336-.134 2.084.035V3.484c-1.313-.214-2.423-.065-3.332.448-.908.513-1.553 1.297-1.935 2.352V3.53h-1.26v12.164h1.26zm11.68.184c.596 0 1.176-.084 1.741-.253a6.461 6.461 0 0 0 1.569-.7c.48-.298.919-.654 1.316-1.067a5.32 5.32 0 0 0 .962-1.377l-1.214-.206a4.956 4.956 0 0 1-1.832 1.767 5.045 5.045 0 0 1-2.542.665 4.998 4.998 0 0 1-1.855-.344 4.821 4.821 0 0 1-1.534-.964 4.891 4.891 0 0 1-1.077-1.48 5.129 5.129 0 0 1-.481-1.894h11.039c.031-.153.042-.325.035-.516a6.004 6.004 0 0 0-.058-.608 6.636 6.636 0 0 0-.641-2.169 6.039 6.039 0 0 0-3.161-2.972 5.867 5.867 0 0 0-2.267-.436 5.97 5.97 0 0 0-2.428.493 6.387 6.387 0 0 0-1.969 1.343 6.215 6.215 0 0 0-1.809 4.43c0 .871.16 1.686.48 2.444.321.757.76 1.422 1.317 1.996a6.127 6.127 0 0 0 1.97 1.354 6.047 6.047 0 0 0 2.439.494zm4.833-6.885h-9.78a5.142 5.142 0 0 1 .493-1.768 4.807 4.807 0 0 1 1.053-1.434 4.968 4.968 0 0 1 3.378-1.32c.657 0 1.267.119 1.832.356a4.89 4.89 0 0 1 1.489.964c.428.405.775.884 1.042 1.434.267.551.431 1.14.493 1.768z" fill="#000"/>
</svg>
