<svg width="104" height="25" fill="none" xmlns="http://www.w3.org/2000/svg">
    <path d="M7.04 24.33a6.333 6.333 0 0 1-3.313-.932 7.369 7.369 0 0 1-2.51-2.588v3.261H0V0h1.216v12.709c.639-1.088 1.476-1.942 2.511-2.563 1.035-.638 2.14-.958 3.313-.958.95 0 1.846.19 2.692.57a7.11 7.11 0 0 1 2.304 1.63 7.668 7.668 0 0 1 1.527 2.46 8 8 0 0 1 .543 2.924 8 8 0 0 1-.543 2.925 7.74 7.74 0 0 1-1.527 2.433 7.108 7.108 0 0 1-2.304 1.63c-.846.38-1.743.57-2.692.57zm0-13.847c-.776 0-1.536.163-2.278.491-.724.311-1.345.751-1.863 1.32a6.38 6.38 0 0 0-1.268 2.071 6.989 6.989 0 0 0-.415 2.407c0 1.743.561 3.227 1.683 4.452a5.614 5.614 0 0 0 1.863 1.346c.742.31 1.502.466 2.278.466.794 0 1.562-.164 2.304-.492a5.444 5.444 0 0 0 1.863-1.32c1.122-1.225 1.683-2.71 1.683-4.452 0-.845-.147-1.648-.44-2.407a6.031 6.031 0 0 0-1.243-2.07 5.444 5.444 0 0 0-1.863-1.32 5.641 5.641 0 0 0-2.304-.492zM18.37 3.779c0-.293.094-.552.284-.777.207-.224.448-.336.725-.336.276 0 .509.112.698.336.19.207.285.466.285.777 0 .31-.095.578-.284.802a.911.911 0 0 1-.7.31c-.276 0-.517-.111-.724-.336a1.167 1.167 0 0 1-.285-.776zm1.604 20.292h-1.217V9.447h1.217v14.624zM27.082 0h1.216v9.447h3.598v1.294h-3.598v13.33h-1.216v-13.33h-3.598V9.447h3.598V0zM47.61 21.353c-.328.466-.656.837-.984 1.113-1.415 1.243-3.132 1.864-5.15 1.864a6.92 6.92 0 0 1-2.77-.57 7.315 7.315 0 0 1-2.356-1.63 6.89 6.89 0 0 1-1.552-2.407 8.068 8.068 0 0 1-.544-2.95c0-1.036.181-2.02.544-2.951.362-.95.88-1.76 1.552-2.433a7.316 7.316 0 0 1 2.356-1.631 6.92 6.92 0 0 1 2.77-.57c.966 0 1.889.19 2.769.57.88.38 1.665.923 2.355 1.63.673.69 1.19 1.51 1.553 2.46.38.931.57 1.906.57 2.924v.621H35.496c.156 1.484.725 2.761 1.709 3.831a5.826 5.826 0 0 0 1.915 1.346c.76.31 1.544.466 2.355.466.811 0 1.588-.121 2.33-.363.76-.258 1.406-.62 1.941-1.087.38-.345.664-.647.854-.905l1.01.672zm-.156-5.254c-.155-1.518-.716-2.787-1.682-3.805a5.463 5.463 0 0 0-1.941-1.32 5.882 5.882 0 0 0-4.711 0c-.742.311-1.38.751-1.915 1.32-.984 1.036-1.553 2.304-1.709 3.805h11.958zM73.837 14.83c0-.793-.164-1.518-.492-2.173-.31-.673-.75-1.2-1.32-1.58a3.038 3.038 0 0 0-1.812-.594c-.69 0-1.363.112-2.019.336-.638.207-1.199.51-1.682.906a4.611 4.611 0 0 0-1.139 1.45 3.762 3.762 0 0 0-.388 1.656v9.24h-1.217V9.447h1.217v2.226a6.593 6.593 0 0 1 2.303-1.837 6.771 6.771 0 0 1 2.925-.648c.915 0 1.769.294 2.563.88a5.313 5.313 0 0 1 1.812 2.304c.414-.69.82-1.2 1.216-1.527 1.242-1.104 2.726-1.657 4.452-1.657.638 0 1.25.138 1.838.415a4.8 4.8 0 0 1 1.578 1.216c.45.5.794 1.104 1.036 1.812.259.707.388 1.44.388 2.2v9.24h-1.217v-9.24c0-.794-.163-1.518-.491-2.174-.31-.673-.75-1.2-1.32-1.58a3.038 3.038 0 0 0-1.812-.594c-.69 0-1.355.112-1.993.336-.639.207-1.2.51-1.683.906a4.61 4.61 0 0 0-1.138 1.45 3.762 3.762 0 0 0-.389 1.656v9.24h-1.216v-9.24zM102.661 21.353c-.327.466-.655.837-.983 1.113-1.415 1.243-3.132 1.864-5.15 1.864a6.92 6.92 0 0 1-2.77-.57 7.313 7.313 0 0 1-2.356-1.63 6.892 6.892 0 0 1-1.553-2.407 8.07 8.07 0 0 1-.543-2.95 8.07 8.07 0 0 1 .543-2.951c.363-.95.88-1.76 1.553-2.433a7.314 7.314 0 0 1 2.356-1.631 6.92 6.92 0 0 1 2.77-.57c.965 0 1.889.19 2.769.57.88.38 1.665.923 2.355 1.63a7.101 7.101 0 0 1 1.553 2.46c.38.931.569 1.906.569 2.924v.621H90.548c.156 1.484.725 2.761 1.708 3.831a5.827 5.827 0 0 0 1.916 1.346c.759.31 1.544.466 2.355.466.811 0 1.588-.121 2.33-.363.759-.258 1.406-.62 1.941-1.087.379-.345.664-.647.854-.905l1.009.672zm-.155-5.254c-.155-1.518-.716-2.787-1.682-3.805a5.465 5.465 0 0 0-1.942-1.32 5.883 5.883 0 0 0-4.71 0c-.742.311-1.38.751-1.916 1.32-.983 1.036-1.552 2.304-1.708 3.805h11.958z" fill="#D9D9D9"/>
</svg>
