<svg width="108" height="26" viewBox="0 0 108 26" fill="none" xmlns="http://www.w3.org/2000/svg">
<path d="M0.64486 12.8972C0.64486 6.13042 6.13042 0.64486 12.8972 0.64486H94.1495C100.916 0.64486 106.402 6.13042 106.402 12.8972C106.402 19.664 100.916 25.1495 94.1495 25.1495H12.8972C6.13043 25.1495 0.64486 19.664 0.64486 12.8972Z" fill="#FCC55C" stroke="#FCC55C" stroke-width="1.28972"/>
<path d="M25.2281 17.9585C26.8919 17.9585 28.3234 17.1846 29.1489 15.9594L27.6141 15.005C27.0982 15.766 26.2341 16.2432 25.2281 16.2432C23.6031 16.2432 22.3649 15.005 22.3649 13.3542C22.3649 11.7033 23.6031 10.4652 25.2281 10.4652C26.2341 10.4652 27.0982 10.9424 27.6141 11.7033L29.1489 10.7489C28.3234 9.52371 26.8919 8.74988 25.2281 8.74988C22.5584 8.74988 20.5335 10.736 20.5335 13.3542C20.5335 15.9723 22.5584 17.9585 25.2281 17.9585ZM33.8249 11.123C33.0511 11.123 32.4062 11.4712 31.929 12.0774V11.2261H30.2524V17.8037H31.929V14.6826C31.929 13.5605 32.6255 12.8512 33.8249 12.8512H34.1086V11.123H33.8249ZM38.0717 17.9585C40.0837 17.9585 41.6055 16.4753 41.6055 14.5149C41.6055 12.5546 40.0837 11.0714 38.0717 11.0714C36.0597 11.0714 34.5379 12.5546 34.5379 14.5149C34.5379 16.4753 36.0597 17.9585 38.0717 17.9585ZM38.0717 16.3334C37.0399 16.3334 36.2661 15.5467 36.2661 14.5149C36.2661 13.4832 37.0399 12.6964 38.0717 12.6964C39.1164 12.6964 39.8773 13.4832 39.8773 14.5149C39.8773 15.5467 39.1164 16.3334 38.0717 16.3334ZM50.8148 11.2261L49.4606 15.6628L48.0677 11.2261H46.3524L44.9724 15.6628L43.6053 11.2261H41.7352L44.0696 17.8037H45.7978L47.1907 13.2639L48.5836 17.8037H50.3119L52.6462 11.2261H50.8148ZM58.1535 8.51773V12.0129C57.6247 11.4325 56.8895 11.0714 56.0125 11.0714C54.1811 11.0714 52.8011 12.5546 52.8011 14.5149C52.8011 16.4753 54.1811 17.9585 56.0125 17.9585C56.8895 17.9585 57.6247 17.5974 58.1535 17.017V17.8037H59.8301V8.51773H58.1535ZM56.3349 16.3334C55.3032 16.3334 54.5293 15.5467 54.5293 14.5149C54.5293 13.4832 55.3032 12.6964 56.3349 12.6964C57.3796 12.6964 58.1535 13.4832 58.1535 14.5149C58.1535 15.5467 57.3796 16.3334 56.3349 16.3334ZM64.6104 9.89773C64.9457 9.89773 65.2166 9.97511 65.4745 10.117V8.6467C65.1005 8.45324 64.7265 8.36296 64.2364 8.36296C62.7274 8.36296 62.0181 9.26577 62.0181 10.6329V11.2261H60.9863V12.7609H62.0181V17.8037H63.6947V12.7609H65.3456V11.2261H63.6947V10.736C63.6947 10.1815 64.0171 9.89773 64.6104 9.89773ZM69.4417 17.9585C71.286 17.9585 72.5113 16.8622 72.5113 15.1856V11.2261H70.8346V14.9534C70.8346 15.7917 70.28 16.3334 69.4417 16.3334C68.6034 16.3334 68.0488 15.7917 68.0488 14.9534V11.2261H66.3722V15.1856C66.3722 16.8622 67.5845 17.9585 69.4417 17.9585ZM77.7731 11.0714C76.9219 11.0714 76.1996 11.3809 75.6838 11.9613V11.2261H74.0071V17.8037H75.6838V14.1925C75.6838 13.2897 76.3028 12.6964 77.2185 12.6964C78.0955 12.6964 78.663 13.2768 78.663 14.1667V17.8037H80.3397V13.625C80.3397 12.0774 79.3208 11.0714 77.7731 11.0714ZM86.8195 8.51773V12.0129C86.2907 11.4325 85.5556 11.0714 84.6785 11.0714C82.8471 11.0714 81.4671 12.5546 81.4671 14.5149C81.4671 16.4753 82.8471 17.9585 84.6785 17.9585C85.5556 17.9585 86.2907 17.5974 86.8195 17.017V17.8037H88.4961V8.51773H86.8195ZM85.001 16.3334C83.9692 16.3334 83.1954 15.5467 83.1954 14.5149C83.1954 13.4832 83.9692 12.6964 85.001 12.6964C86.0456 12.6964 86.8195 13.4832 86.8195 14.5149C86.8195 15.5467 86.0456 16.3334 85.001 16.3334Z" fill="white"/>
</svg>
