<svg width="144" height="26" fill="none" xmlns="http://www.w3.org/2000/svg">
    <path d="M.645 12.897C.645 6.13 6.13.645 12.897.645h117.365c6.766 0 12.252 5.485 12.252 12.252s-5.486 12.252-12.252 12.252H12.897C6.13 25.15.645 19.665.645 12.897z" fill="#FF9382" stroke="#FF9382" stroke-width="1.29"/>
    <path d="M19.27 16.127v-1.96h3.778V12.49h-3.779v-1.909h4.205V8.905h-5.985v8.899h6.05v-1.677h-4.27zm10.463-4.9v.786a2.84 2.84 0 0 0-2.142-.942c-1.83 0-3.21 1.484-3.21 3.444s1.38 3.444 3.21 3.444a2.84 2.84 0 0 0 2.142-.942v3.237h1.676v-9.028h-1.676zm-1.819 5.106c-1.032 0-1.806-.786-1.806-1.818s.774-1.819 1.806-1.819c1.045 0 1.819.787 1.819 1.819s-.774 1.818-1.819 1.818zm8.056 1.626c1.845 0 3.07-1.097 3.07-2.773v-3.96h-1.677v3.727c0 .839-.554 1.38-1.393 1.38-.838 0-1.393-.541-1.393-1.38v-3.727h-1.676v3.96c0 1.676 1.212 2.773 3.07 2.773zm5.404-7.7c.593 0 1.057-.452 1.057-1.045s-.464-1.044-1.057-1.044-1.058.45-1.058 1.044c0 .593.465 1.045 1.058 1.045zm-.838 7.545h1.676v-6.578h-1.676v6.578zm7.324-5.043v-1.535h-1.767V9.562h-1.677v1.664h-1.044v1.535h1.044v3.005c0 1.315.71 2.193 2.219 2.193.49 0 .864-.09 1.225-.284v-1.56c-.245.115-.529.218-.864.218-.593 0-.903-.283-.903-.838v-2.734h1.767zm5.92-1.535-1.703 4.475-1.715-4.475h-1.909l2.683 6.475-.271.567c-.168.374-.439.516-.748.516-.284 0-.593-.13-.8-.348l-.645 1.315c.439.4 1.135.658 1.729.658.864 0 1.638-.555 1.999-1.457l3.25-7.726h-1.87zm10.02 6.732c1.663 0 3.095-.773 3.92-1.999l-1.534-.954c-.516.761-1.38 1.238-2.387 1.238-1.624 0-2.863-1.238-2.863-2.889 0-1.65 1.239-2.889 2.864-2.889 1.005 0 1.87.477 2.386 1.238l1.534-.954c-.825-1.225-2.257-2-3.92-2-2.67 0-4.695 1.987-4.695 4.605 0 2.618 2.025 4.605 4.695 4.605zm8.596-6.835c-.773 0-1.418.348-1.896.954v-.85h-1.676v6.577H70.5v-3.121c0-1.123.697-1.832 1.896-1.832h.284v-1.728h-.284zm4.247 6.836c2.012 0 3.534-1.484 3.534-3.444s-1.522-3.444-3.534-3.444c-2.012 0-3.534 1.484-3.534 3.444s1.522 3.444 3.534 3.444zm0-1.626c-1.032 0-1.805-.786-1.805-1.818s.773-1.819 1.805-1.819c1.045 0 1.806.787 1.806 1.819s-.761 1.818-1.806 1.818zm12.743-5.107-1.354 4.437-1.393-4.437h-1.715l-1.38 4.437-1.367-4.437h-1.87l2.334 6.578h1.728l1.393-4.54 1.393 4.54h1.728l2.335-6.578h-1.832zm7.339-2.708v3.495a2.84 2.84 0 0 0-2.141-.942c-1.832 0-3.212 1.484-3.212 3.444s1.38 3.444 3.212 3.444a2.84 2.84 0 0 0 2.14-.942v.787h1.677V8.518h-1.676zm-1.819 7.815c-1.031 0-1.805-.786-1.805-1.818s.774-1.819 1.805-1.819c1.045 0 1.819.787 1.819 1.819s-.774 1.818-1.819 1.818zm8.276-6.435c.335 0 .606.077.864.219v-1.47c-.374-.194-.748-.284-1.238-.284-1.509 0-2.219.903-2.219 2.27v.593h-1.031v1.535h1.031v5.043h1.677V12.76h1.651v-1.535h-1.651v-.49c0-.555.323-.838.916-.838zm4.831 8.06c1.844 0 3.07-1.096 3.07-2.772v-3.96h-1.677v3.727c0 .839-.555 1.38-1.393 1.38s-1.393-.541-1.393-1.38v-3.727h-1.676v3.96c0 1.676 1.212 2.773 3.069 2.773zm8.332-6.887c-.852 0-1.574.31-2.09.89v-.735h-1.676v6.578h1.676v-3.611c0-.903.619-1.497 1.535-1.497.877 0 1.444.58 1.444 1.47v3.638h1.677v-4.179c0-1.548-1.019-2.554-2.566-2.554zm9.046-2.553v3.495a2.84 2.84 0 0 0-2.141-.942c-1.831 0-3.211 1.484-3.211 3.444s1.38 3.444 3.211 3.444a2.84 2.84 0 0 0 2.141-.942v.787h1.677V8.518h-1.677zm-1.819 7.815c-1.031 0-1.805-.786-1.805-1.818s.774-1.819 1.805-1.819c1.045 0 1.819.787 1.819 1.819s-.774 1.818-1.819 1.818z" fill="#fff"/>
</svg>
