<svg width="506" height="449" viewBox="0 0 506 449" fill="none" xmlns="http://www.w3.org/2000/svg">
<path d="M285.106 -155.461C264.976 -153.029 245.407 -144.985 225.652 -131.048C214.604 -123.285 191.852 -100.649 182.676 -88.2092C151.03 -45.5573 127.435 10.9377 118.072 66.4973C113.672 92.5 112.548 109.149 113.11 143.289C113.484 160.219 114.327 180.89 115.076 189.121C115.825 197.353 116.481 207.828 116.481 212.505V220.923L108.054 202.216C75.5648 130.195 56.1836 92.6871 16.1104 24.5002C-14.8807 -28.3469 -30.3295 -51.2629 -40.4414 -59.494C-44.2802 -62.5806 -45.3101 -63.0483 -49.0553 -62.7677C-52.7068 -62.4871 -53.6431 -62.0194 -55.422 -59.4005C-63.755 -46.8668 -53.8303 4.7644 -32.5766 58.5469C-6.82863 123.741 33.2445 192.956 63.9548 225.319L72.1005 233.831L67.8872 233.27C65.5465 232.896 54.0301 232.335 42.1393 232.054C1.22343 230.838 -35.0109 235.047 -78.642 245.897C-141.28 261.424 -193.056 286.491 -221.239 315.019C-244.271 338.309 -238.279 354.678 -204.105 361.787C-177.327 367.305 -124.707 366.463 -80.0464 359.729C-32.2021 352.527 33.4318 334.1 78.4673 315.206C84.2722 312.774 88.9537 311.278 89.4218 311.746C89.89 312.213 92.3243 322.783 94.9459 335.129C111.144 411.828 127.529 457.847 145.412 476.928C150.655 482.54 153.651 484.224 158.52 484.224C161.235 484.224 162.827 483.569 164.512 481.885C168.445 478.05 169.287 472.719 168.725 457.286C168.164 442.227 165.729 428.851 158.239 399.201C155.898 390.128 153.838 381.71 153.464 380.4C153.183 379.091 155.805 383.3 159.175 389.754C186.047 439.701 219.285 474.028 251.774 485.253C266.474 490.397 275.462 488.339 280.144 478.892C282.391 474.309 282.484 473.187 282.11 465.236C281.455 454.854 279.02 444.846 273.309 430.161C262.542 402.194 244.378 370.953 224.435 345.792C214.697 333.539 194.567 313.803 184.455 306.695C174.624 299.68 156.086 290.326 144.476 286.398C136.892 283.872 134.176 282.189 137.547 282.189C138.296 282.189 144.288 281.534 150.936 280.786C167.321 278.915 230.052 272.929 292.596 267.223C378.36 259.46 413.752 255.531 445.399 250.293C479.48 244.681 499.891 238.227 504.666 231.493C506.445 228.874 506.445 224.291 504.666 221.672C500.172 215.218 479.76 209.418 448.488 205.771C428.733 203.526 374.054 203.526 350.178 205.771C290.256 211.57 233.61 224.291 195.971 240.472C190.447 242.81 185.672 244.775 185.391 244.775C185.111 244.775 189.698 238.321 195.503 230.464C228.648 185.754 277.241 115.79 301.21 78.2827C353.83 -4.1214 373.117 -52.853 369.279 -94.1019C365.814 -130.393 340.066 -154.058 301.866 -155.928C296.529 -156.115 288.945 -155.928 285.106 -155.461Z" fill="#D4EEFD"/>
</svg>
