<svg width="856" height="893" viewBox="0 0 856 893" fill="none" xmlns="http://www.w3.org/2000/svg">
<path d="M791.039 0.82074C760.422 4.52142 730.66 16.7623 700.613 37.9703C683.81 49.7841 649.206 84.2294 635.251 103.16C587.119 168.065 551.234 254.036 536.994 338.583C530.301 378.152 528.592 403.488 529.447 455.44C530.016 481.203 531.298 512.659 532.437 525.185C533.576 537.71 534.573 553.652 534.573 560.769V573.579L521.757 545.112C472.343 435.513 442.866 378.437 381.918 274.674C334.783 194.255 311.287 159.383 295.908 146.857C290.069 142.16 288.503 141.448 282.807 141.875C277.253 142.302 275.829 143.014 273.123 146.999C260.45 166.072 275.544 244.641 307.869 326.484C347.03 425.692 407.978 531.021 454.686 580.269L467.075 593.221L460.666 592.367C457.106 591.798 439.591 590.944 421.506 590.517C359.276 588.666 304.167 595.072 237.808 611.582C142.541 635.21 63.7927 673.356 20.9298 716.768C-14.1011 752.21 -4.98737 777.119 46.9893 787.936C87.7162 796.334 167.746 795.053 235.672 784.805C308.439 773.845 408.263 745.805 476.758 717.053C485.587 713.352 492.707 711.075 493.419 711.787C494.131 712.498 497.833 728.582 501.821 747.371C526.456 864.086 551.376 934.115 578.575 963.151C586.55 971.691 591.106 974.253 598.511 974.253C602.641 974.253 605.062 973.257 607.625 970.695C613.606 964.859 614.888 956.746 614.033 933.261C613.179 910.345 609.476 889.991 598.084 844.87C594.524 831.064 591.391 818.254 590.822 816.261C590.394 814.268 594.382 820.673 599.508 830.495C640.378 906.502 690.93 958.739 740.344 975.819C762.701 983.648 776.371 980.516 783.491 966.14C786.909 959.166 787.051 957.458 786.482 945.359C785.485 929.56 781.782 914.33 773.096 891.983C756.72 849.425 729.094 801.885 698.762 763.597C683.952 744.951 653.336 714.918 637.957 704.101C623.004 693.425 594.809 679.192 577.151 673.214C565.617 669.371 561.487 666.809 566.613 666.809C567.753 666.809 576.866 665.812 586.977 664.674C611.897 661.827 707.306 652.717 802.431 644.035C932.871 632.221 986.699 626.243 1034.83 618.272C1086.66 609.732 1117.71 599.911 1124.97 589.663C1127.68 585.677 1127.68 578.703 1124.97 574.718C1118.14 564.896 1087.09 556.072 1039.53 550.521C1009.48 547.104 926.32 547.104 890.008 550.521C798.871 559.345 712.718 578.703 655.472 603.327C647.07 606.885 639.808 609.874 639.381 609.874C638.953 609.874 645.931 600.053 654.76 588.097C705.17 520.061 779.077 413.594 815.532 356.517C895.561 231.12 924.896 156.963 919.058 94.1928C913.789 38.9667 874.628 2.95575 816.529 0.10907C808.412 -0.175598 796.877 0.10907 791.039 0.82074Z" fill="#E8FD7D"/>
</svg>
