<svg width="94" height="8" fill="none" xmlns="http://www.w3.org/2000/svg">
    <path d="M1.702 1.456c.319 0 .597.078.834.235.13.088.26.217.395.387v-.512h.63v3.693c0 .515-.077.922-.228 1.22-.283.552-.818.827-1.604.827-.437 0-.805-.098-1.103-.296-.299-.194-.465-.5-.5-.917h.693a.772.772 0 0 0 .197.42c.154.152.397.228.728.228.523 0 .866-.184 1.028-.553.096-.218.14-.606.132-1.164a1.34 1.34 0 0 1-.493.462c-.192.101-.446.152-.762.152-.44 0-.825-.156-1.156-.466C.164 4.858 0 4.342 0 3.62c0-.68.166-1.21.497-1.593.333-.381.735-.572 1.205-.572zM2.931 3.54c0-.503-.104-.876-.311-1.118a.996.996 0 0 0-.793-.364c-.48 0-.808.225-.985.675-.094.24-.14.554-.14.944 0 .457.092.806.276 1.046a.907.907 0 0 0 .75.357c.491 0 .836-.222 1.036-.664a2.14 2.14 0 0 0 .167-.876zM9.27 1.528h.648v.701c.053-.136.183-.302.39-.496a1.009 1.009 0 0 1 .781-.292l.156.015v.72a1.014 1.014 0 0 0-.224-.019c-.344 0-.608.112-.792.334a1.15 1.15 0 0 0-.277.762V5.59h-.683V1.528zM17.018 4.508c0 .197.072.353.216.466.144.114.315.171.512.171.24 0 .473-.056.698-.167.379-.184.569-.486.569-.906v-.55c-.084.053-.191.098-.323.133-.131.035-.26.06-.386.076l-.414.053c-.247.033-.433.085-.557.155-.21.12-.315.309-.315.569zm1.653-1.38c.157-.02.262-.086.315-.197a.599.599 0 0 0 .046-.262c0-.232-.084-.4-.25-.504-.165-.106-.401-.16-.71-.16-.356 0-.609.097-.758.289-.083.106-.138.264-.163.474h-.637c.013-.5.174-.848.485-1.043a2 2 0 0 1 1.088-.296c.478 0 .866.091 1.164.273.296.182.444.465.444.85V4.89c0 .07.014.128.042.17.03.044.092.065.186.065.03 0 .064-.001.102-.004.038-.005.078-.011.121-.019v.505c-.106.03-.187.049-.242.056a1.775 1.775 0 0 1-.228.012c-.235 0-.406-.084-.512-.25a.965.965 0 0 1-.117-.376c-.14.182-.339.34-.6.474-.26.134-.547.201-.86.201-.377 0-.685-.114-.925-.341a1.149 1.149 0 0 1-.357-.86c0-.377.118-.67.353-.877.235-.207.543-.335.925-.383l1.088-.136zM25.476 1.528h.649v.576c.192-.237.395-.408.61-.512.215-.103.454-.155.717-.155.576 0 .965.2 1.167.603.111.22.167.534.167.944v2.605h-.694v-2.56c0-.247-.036-.447-.11-.599-.121-.252-.34-.379-.66-.379-.161 0-.294.017-.397.05a1.025 1.025 0 0 0-.493.333 1.023 1.023 0 0 0-.224.417c-.033.142-.05.345-.05.61V5.59h-.682V1.528zM36.069 5.149c.452 0 .762-.17.929-.512.169-.344.254-.725.254-1.145 0-.38-.061-.688-.182-.925-.192-.374-.523-.561-.994-.561-.417 0-.72.159-.91.477-.19.319-.284.703-.284 1.153 0 .432.095.792.284 1.08.19.289.49.433.903.433zm.026-3.739c.523 0 .966.175 1.327.524.362.348.543.862.543 1.539 0 .655-.16 1.196-.478 1.623-.319.427-.813.64-1.483.64-.558 0-1.002-.188-1.33-.564-.33-.38-.493-.888-.493-1.525 0-.682.173-1.226.52-1.63.345-.404.81-.607 1.394-.607zM43.458.019h.682v5.57h-.682V.019zM50.35 4.508c0 .197.072.353.216.466.144.114.314.171.512.171.24 0 .472-.056.697-.167.38-.184.569-.486.569-.906v-.55c-.084.053-.19.098-.322.133s-.26.06-.387.076l-.413.053c-.248.033-.434.085-.558.155-.21.12-.314.309-.314.569zm1.653-1.38c.156-.02.261-.086.314-.197a.6.6 0 0 0 .046-.262c0-.232-.084-.4-.25-.504-.165-.106-.401-.16-.71-.16-.356 0-.608.097-.758.289-.083.106-.137.264-.163.474h-.637c.013-.5.175-.848.486-1.043a2 2 0 0 1 1.088-.296c.478 0 .866.091 1.164.273.296.182.443.465.443.85V4.89c0 .07.014.128.042.17.03.044.092.065.186.065.03 0 .064-.001.102-.004.038-.005.079-.011.122-.019v.505c-.107.03-.188.049-.243.056a1.774 1.774 0 0 1-.228.012c-.235 0-.405-.084-.511-.25a.967.967 0 0 1-.118-.376c-.139.182-.339.34-.599.474-.26.134-.547.201-.86.201-.377 0-.686-.114-.926-.341a1.149 1.149 0 0 1-.356-.86c0-.377.117-.67.352-.877.236-.207.544-.335.925-.383l1.089-.136zM65.575 0h.663v2.02a1.496 1.496 0 0 1 1.21-.598c.505 0 .915.174 1.228.523.316.346.474.858.474 1.536 0 .642-.156 1.175-.467 1.6-.31.424-.741.636-1.292.636-.309 0-.57-.074-.781-.223a1.886 1.886 0 0 1-.406-.425v.52h-.63V0zm1.774 5.115c.369 0 .644-.147.826-.44.185-.293.277-.68.277-1.16 0-.428-.092-.781-.276-1.062-.183-.28-.452-.42-.808-.42-.311 0-.584.114-.82.344-.232.23-.348.61-.348 1.138 0 .381.048.691.144.929.18.447.515.67 1.005.67zM75.132 4.508c0 .197.072.353.216.466.144.114.315.171.512.171.24 0 .473-.056.698-.167.379-.184.568-.486.568-.906v-.55c-.083.053-.19.098-.322.133-.131.035-.26.06-.387.076l-.413.053c-.248.033-.434.085-.557.155-.21.12-.315.309-.315.569zm1.653-1.38c.157-.02.262-.086.315-.197a.6.6 0 0 0 .045-.262c0-.232-.083-.4-.25-.504-.164-.106-.4-.16-.709-.16-.356 0-.61.097-.758.289-.084.106-.138.264-.163.474h-.637c.012-.5.174-.848.485-1.043a2 2 0 0 1 1.088-.296c.478 0 .866.091 1.164.273.296.182.444.465.444.85V4.89c0 .07.014.128.041.17.03.044.093.065.186.065.03 0 .065-.001.103-.004.038-.005.078-.011.12-.019v.505c-.105.03-.186.049-.242.056a1.774 1.774 0 0 1-.227.012c-.235 0-.406-.084-.512-.25a.967.967 0 0 1-.118-.376c-.139.182-.338.34-.599.474-.26.134-.547.201-.86.201-.377 0-.685-.114-.925-.341a1.149 1.149 0 0 1-.357-.86c0-.377.118-.67.353-.877.235-.207.543-.335.925-.383l1.088-.136zM83.609 1.528h.648v.701c.053-.136.183-.302.39-.496a1.009 1.009 0 0 1 .782-.292l.155.015v.72a1.014 1.014 0 0 0-.223-.019c-.344 0-.608.112-.793.334a1.15 1.15 0 0 0-.277.762V5.59h-.682V1.528zM91.24 4.315c.02.227.077.402.171.523.172.22.47.33.895.33.252 0 .475-.055.667-.163a.552.552 0 0 0 .288-.512.436.436 0 0 0-.231-.398c-.099-.056-.293-.12-.584-.194l-.542-.136c-.346-.086-.602-.182-.766-.288-.293-.185-.44-.44-.44-.766 0-.384.138-.695.413-.933.278-.237.651-.356 1.119-.356.612 0 1.053.18 1.323.538.17.228.252.473.247.736h-.645a.79.79 0 0 0-.163-.421c-.157-.18-.428-.27-.815-.27-.258 0-.454.05-.588.149a.465.465 0 0 0-.197.39c0 .177.087.319.262.425.1.063.25.119.447.167l.451.11c.49.118.82.233.986.345.265.174.398.448.398.822 0 .362-.138.674-.413.937-.273.263-.69.394-1.251.394-.605 0-1.033-.136-1.286-.41a1.568 1.568 0 0 1-.402-1.02h.656z" fill="#D9D9D9"/>
</svg>
