<svg width="223" height="121" viewBox="0 0 223 121" fill="none" xmlns="http://www.w3.org/2000/svg">
<g opacity="0.2" filter="url(#filter0_f)">
<path d="M33 42.0222C33 37.0394 37.0394 33 42.0222 33H180.978C185.961 33 190 37.0394 190 42.0222V78.9778C190 83.9606 185.961 88 180.978 88H42.0222C37.0394 88 33 83.9606 33 78.9778V42.0222Z" fill="#0F0941" fill-opacity="0.8"/>
</g>
<rect x="27" y="18" width="172" height="82" rx="7.73333" fill="white"/>
<path d="M113.524 42.02C113.524 39.26 110.544 38.22 109.104 37.86V34.5C110.124 34.66 111.084 35.14 111.644 35.7L112.924 33.8C112.084 32.94 110.724 32.28 109.104 32.12V30.8H107.744V32.14C105.184 32.38 103.504 33.92 103.504 36.04C103.504 38.28 105.384 39.54 107.744 40.18V43.7C106.484 43.52 105.244 42.84 104.364 42.04L103.004 43.94C104.164 45.1 105.964 45.9 107.744 46.06V47.38H109.104V46.06C111.644 45.82 113.524 44.24 113.524 42.02ZM106.184 35.96C106.184 35.24 106.804 34.7 107.744 34.52V37.5C106.884 37.18 106.184 36.72 106.184 35.96ZM109.104 43.68V40.54C110.024 40.84 110.824 41.28 110.824 42.12C110.824 42.98 110.104 43.52 109.104 43.68ZM125.38 40.72H123.9V32.2H120.88L114.62 41.08L115.28 43.32H121.14V46H123.9V43.32H125.38V40.72ZM117.62 40.72L121.14 35.68V40.72H117.62ZM132.079 37.04C131.299 37.04 130.579 37.22 130.039 37.52L130.259 34.8H135.879V32.2H127.939L127.239 39.64L129.679 40.36C130.199 39.88 130.959 39.56 131.739 39.56C133.059 39.56 133.999 40.4 133.999 41.5C133.999 42.64 132.979 43.58 131.359 43.58C130.139 43.58 128.899 43.06 128.019 42.14L126.639 44.36C128.139 45.66 129.899 46.24 131.539 46.24C134.639 46.24 136.839 44.24 136.839 41.58C136.839 38.98 134.759 37.04 132.079 37.04ZM137.502 48.9H139.742L141.942 43.26H138.902L137.502 48.9ZM148.371 46.24C151.571 46.24 153.791 43.32 153.791 39.1C153.791 34.88 151.571 31.96 148.371 31.96C145.191 31.96 142.951 34.88 142.951 39.1C142.951 43.32 145.191 46.24 148.371 46.24ZM148.371 43.58C146.871 43.58 145.791 41.74 145.791 39.1C145.791 36.46 146.871 34.62 148.371 34.62C149.891 34.62 150.951 36.46 150.951 39.1C150.951 41.74 149.891 43.58 148.371 43.58ZM161.047 46.24C164.247 46.24 166.467 43.32 166.467 39.1C166.467 34.88 164.247 31.96 161.047 31.96C157.867 31.96 155.627 34.88 155.627 39.1C155.627 43.32 157.867 46.24 161.047 46.24ZM161.047 43.58C159.547 43.58 158.467 41.74 158.467 39.1C158.467 36.46 159.547 34.62 161.047 34.62C162.567 34.62 163.627 36.46 163.627 39.1C163.627 41.74 162.567 43.58 161.047 43.58ZM173.723 46.24C176.923 46.24 179.143 43.32 179.143 39.1C179.143 34.88 176.923 31.96 173.723 31.96C170.543 31.96 168.303 34.88 168.303 39.1C168.303 43.32 170.543 46.24 173.723 46.24ZM173.723 43.58C172.223 43.58 171.143 41.74 171.143 39.1C171.143 36.46 172.223 34.62 173.723 34.62C175.243 34.62 176.303 36.46 176.303 39.1C176.303 41.74 175.243 43.58 173.723 43.58Z" fill="#1E48CE"/>
<path d="M53.2916 59.88V60.984C52.7756 60.216 51.9356 59.736 50.9156 59.736C49.1636 59.736 47.8556 61.116 47.8556 62.94C47.8556 64.764 49.1636 66.144 50.9156 66.144C51.9356 66.144 52.7756 65.664 53.2916 64.896V66H54.3236V59.88H53.2916ZM51.1076 65.148C49.8476 65.148 48.9116 64.2 48.9116 62.94C48.9116 61.68 49.8476 60.732 51.1076 60.732C52.3556 60.732 53.2916 61.68 53.2916 62.94C53.2916 64.2 52.3556 65.148 51.1076 65.148ZM60.6871 59.88L58.6231 64.764L56.5591 59.88H55.3711L58.0591 66H59.1511L61.8391 59.88H60.6871ZM68.5482 62.94C68.5482 61.104 67.1802 59.736 65.3562 59.736C63.5202 59.736 62.1402 61.104 62.1402 62.916C62.1402 64.752 63.5682 66.144 65.4882 66.144C66.6762 66.144 67.6842 65.628 68.2962 64.812L67.5882 64.2C67.1922 64.764 66.4242 65.196 65.5242 65.196C64.3362 65.196 63.4602 64.464 63.2562 63.396H68.5242C68.5362 63.252 68.5482 63.084 68.5482 62.94ZM65.3442 60.684C66.4242 60.684 67.2642 61.404 67.4562 62.46H63.2442C63.4362 61.416 64.2762 60.684 65.3442 60.684ZM72.9921 59.784C72.0801 59.784 71.3601 60.204 70.9041 60.936V59.88H69.8721V66H70.9041V62.94C70.9041 61.668 71.6961 60.852 72.9921 60.852H73.1961V59.784H72.9921ZM79.0963 59.88V60.984C78.5803 60.216 77.7403 59.736 76.7203 59.736C74.9683 59.736 73.6603 61.116 73.6603 62.94C73.6603 64.764 74.9683 66.144 76.7203 66.144C77.7403 66.144 78.5803 65.664 79.0963 64.896V66H80.1283V59.88H79.0963ZM76.9123 65.148C75.6523 65.148 74.7163 64.2 74.7163 62.94C74.7163 61.68 75.6523 60.732 76.9123 60.732C78.1603 60.732 79.0963 61.68 79.0963 62.94C79.0963 64.2 78.1603 65.148 76.9123 65.148ZM85.7358 66.156H83.4918C82.9758 66.156 82.6278 65.88 82.6278 65.448C82.6278 65.184 82.7718 64.92 83.0118 64.764C83.3958 64.956 83.8278 65.052 84.3078 65.052C85.8918 65.052 87.1038 63.9 87.1038 62.388C87.1038 61.74 86.8878 61.164 86.5038 60.708C86.5158 60.3 86.8158 60.036 87.2598 60.036H87.6678V59.076H87.1998C86.4558 59.076 85.9278 59.484 85.8078 60.132C85.3758 59.88 84.8718 59.736 84.3078 59.736C82.7118 59.736 81.5118 60.876 81.5118 62.388C81.5118 63.168 81.8358 63.852 82.3518 64.332C81.8838 64.596 81.5958 65.136 81.5958 65.712C81.5958 66.576 82.2798 67.164 83.2998 67.164H85.5558C86.2518 67.164 86.7318 67.524 86.7558 68.076L87.8238 67.8C87.7038 66.78 86.8878 66.156 85.7358 66.156ZM84.3078 60.72C85.2918 60.72 86.0358 61.44 86.0358 62.388C86.0358 63.348 85.2918 64.068 84.3078 64.068C83.3238 64.068 82.5798 63.348 82.5798 62.388C82.5798 61.44 83.3118 60.72 84.3078 60.72ZM94.5755 62.94C94.5755 61.104 93.2075 59.736 91.3835 59.736C89.5475 59.736 88.1675 61.104 88.1675 62.916C88.1675 64.752 89.5955 66.144 91.5155 66.144C92.7035 66.144 93.7115 65.628 94.3235 64.812L93.6155 64.2C93.2195 64.764 92.4515 65.196 91.5515 65.196C90.3635 65.196 89.4875 64.464 89.2835 63.396H94.5515C94.5635 63.252 94.5755 63.084 94.5755 62.94ZM91.3715 60.684C92.4515 60.684 93.2915 61.404 93.4835 62.46H89.2715C89.4635 61.416 90.3035 60.684 91.3715 60.684ZM102.104 59.736C101.144 59.736 100.376 60.12 99.8963 60.816V59.88H98.8643V66H99.8963V62.568C99.8963 61.464 100.64 60.732 101.768 60.732C102.86 60.732 103.556 61.452 103.556 62.544V66H104.588V62.22C104.588 60.72 103.592 59.736 102.104 59.736ZM111.323 59.88V60.984C110.807 60.216 109.967 59.736 108.947 59.736C107.195 59.736 105.887 61.116 105.887 62.94C105.887 64.764 107.195 66.144 108.947 66.144C109.967 66.144 110.807 65.664 111.323 64.896V66H112.355V59.88H111.323ZM109.139 65.148C107.879 65.148 106.943 64.2 106.943 62.94C106.943 61.68 107.879 60.732 109.139 60.732C110.387 60.732 111.323 61.68 111.323 62.94C111.323 64.2 110.387 65.148 109.139 65.148ZM117.638 60.816V59.88H115.802V58.236H114.77V59.88H113.666V60.816H114.77V64.368C114.77 65.496 115.382 66.144 116.57 66.144C117.002 66.144 117.326 66.06 117.638 65.892V64.92C117.386 65.052 117.122 65.148 116.786 65.148C116.162 65.148 115.802 64.86 115.802 64.2V60.816H117.638ZM119.478 58.656C119.862 58.656 120.162 58.356 120.162 57.972C120.162 57.576 119.862 57.288 119.478 57.288C119.082 57.288 118.782 57.576 118.782 57.972C118.782 58.356 119.082 58.656 119.478 58.656ZM118.962 66H119.994V59.88H118.962V66ZM124.607 66.144C126.455 66.144 127.859 64.764 127.859 62.94C127.859 61.116 126.455 59.736 124.607 59.736C122.747 59.736 121.343 61.116 121.343 62.94C121.343 64.764 122.747 66.144 124.607 66.144ZM124.607 65.148C123.347 65.148 122.411 64.2 122.411 62.94C122.411 61.68 123.347 60.732 124.607 60.732C125.855 60.732 126.791 61.68 126.791 62.94C126.791 64.2 125.855 65.148 124.607 65.148ZM132.456 59.736C131.496 59.736 130.728 60.12 130.248 60.816V59.88H129.216V66H130.248V62.568C130.248 61.464 130.992 60.732 132.12 60.732C133.212 60.732 133.908 61.452 133.908 62.544V66H134.94V62.22C134.94 60.72 133.944 59.736 132.456 59.736ZM141.674 59.88V60.984C141.158 60.216 140.318 59.736 139.298 59.736C137.546 59.736 136.238 61.116 136.238 62.94C136.238 64.764 137.546 66.144 139.298 66.144C140.318 66.144 141.158 65.664 141.674 64.896V66H142.706V59.88H141.674ZM139.49 65.148C138.23 65.148 137.294 64.2 137.294 62.94C137.294 61.68 138.23 60.732 139.49 60.732C140.738 60.732 141.674 61.68 141.674 62.94C141.674 64.2 140.738 65.148 139.49 65.148ZM144.462 66H145.494V57.36H144.462V66ZM152.208 66.144C153.588 66.144 154.68 65.46 154.68 64.248C154.68 62.976 153.504 62.676 152.496 62.436C151.68 62.244 150.984 62.076 150.984 61.476C150.984 60.948 151.572 60.672 152.28 60.672C152.952 60.672 153.528 60.936 153.936 61.332L154.512 60.576C153.996 60.108 153.24 59.736 152.268 59.736C151.008 59.736 149.928 60.348 149.928 61.536C149.928 62.82 151.116 63.132 152.124 63.384C152.928 63.576 153.612 63.756 153.612 64.344C153.612 64.896 153 65.208 152.196 65.208C151.404 65.208 150.756 64.908 150.3 64.44L149.724 65.184C150.288 65.724 151.128 66.144 152.208 66.144ZM161.045 59.88V60.984C160.529 60.216 159.689 59.736 158.669 59.736C156.917 59.736 155.609 61.116 155.609 62.94C155.609 64.764 156.917 66.144 158.669 66.144C159.689 66.144 160.529 65.664 161.045 64.896V66H162.077V59.88H161.045ZM158.861 65.148C157.601 65.148 156.665 64.2 156.665 62.94C156.665 61.68 157.601 60.732 158.861 60.732C160.109 60.732 161.045 61.68 161.045 62.94C161.045 64.2 160.109 65.148 158.861 65.148ZM163.833 66H164.865V57.36H163.833V66ZM171.674 59.88V60.984C171.158 60.216 170.318 59.736 169.298 59.736C167.546 59.736 166.238 61.116 166.238 62.94C166.238 64.764 167.546 66.144 169.298 66.144C170.318 66.144 171.158 65.664 171.674 64.896V66H172.706V59.88H171.674ZM169.49 65.148C168.23 65.148 167.294 64.2 167.294 62.94C167.294 61.68 168.23 60.732 169.49 60.732C170.738 60.732 171.674 61.68 171.674 62.94C171.674 64.2 170.738 65.148 169.49 65.148ZM177.582 59.784C176.67 59.784 175.95 60.204 175.494 60.936V59.88H174.462V66H175.494V62.94C175.494 61.668 176.286 60.852 177.582 60.852H177.786V59.784H177.582ZM183.675 59.88L181.611 64.764L179.547 59.88H178.359L181.023 65.964L180.579 66.876C180.387 67.272 180.111 67.428 179.799 67.428C179.487 67.428 179.187 67.272 178.983 67.044L178.551 67.836C178.911 68.196 179.475 68.424 179.955 68.424C180.615 68.424 181.215 68.016 181.527 67.296L184.827 59.88H183.675Z" fill="#131313"/>
<path d="M52.0418 81.608C52.6418 81.32 53.0978 80.612 53.0978 79.796C53.0978 78.596 52.1858 77.72 50.9738 77.72H47.3978V86H51.2618C52.5578 86 53.5418 85.052 53.5418 83.768C53.5418 82.736 52.9298 81.86 52.0418 81.608ZM50.7218 78.716C51.4418 78.716 51.9698 79.256 51.9698 79.976C51.9698 80.696 51.4058 81.236 50.7218 81.236H48.4658V78.716H50.7218ZM51.0098 85.004H48.4658V82.184H51.0098C51.8138 82.184 52.4138 82.784 52.4138 83.588C52.4138 84.392 51.8138 85.004 51.0098 85.004ZM59.8775 79.88V80.984C59.3615 80.216 58.5215 79.736 57.5015 79.736C55.7495 79.736 54.4415 81.116 54.4415 82.94C54.4415 84.764 55.7495 86.144 57.5015 86.144C58.5215 86.144 59.3615 85.664 59.8775 84.896V86H60.9095V79.88H59.8775ZM57.6935 85.148C56.4335 85.148 55.4975 84.2 55.4975 82.94C55.4975 81.68 56.4335 80.732 57.6935 80.732C58.9415 80.732 59.8775 81.68 59.8775 82.94C59.8775 84.2 58.9415 85.148 57.6935 85.148ZM64.6691 86.144C66.0491 86.144 67.1411 85.46 67.1411 84.248C67.1411 82.976 65.9651 82.676 64.9571 82.436C64.1411 82.244 63.4451 82.076 63.4451 81.476C63.4451 80.948 64.0331 80.672 64.7411 80.672C65.4131 80.672 65.9891 80.936 66.3971 81.332L66.9731 80.576C66.4571 80.108 65.7011 79.736 64.7291 79.736C63.4691 79.736 62.3891 80.348 62.3891 81.536C62.3891 82.82 63.5771 83.132 64.5851 83.384C65.3891 83.576 66.0731 83.756 66.0731 84.344C66.0731 84.896 65.4611 85.208 64.6571 85.208C63.8651 85.208 63.2171 84.908 62.7611 84.44L62.1851 85.184C62.7491 85.724 63.5891 86.144 64.6691 86.144ZM74.4544 82.94C74.4544 81.104 73.0864 79.736 71.2624 79.736C69.4264 79.736 68.0464 81.104 68.0464 82.916C68.0464 84.752 69.4744 86.144 71.3944 86.144C72.5824 86.144 73.5904 85.628 74.2024 84.812L73.4944 84.2C73.0984 84.764 72.3304 85.196 71.4304 85.196C70.2424 85.196 69.3664 84.464 69.1624 83.396H74.4304C74.4424 83.252 74.4544 83.084 74.4544 82.94ZM71.2504 80.684C72.3304 80.684 73.1704 81.404 73.3624 82.46H69.1504C69.3424 81.416 70.1824 80.684 71.2504 80.684ZM80.8423 77.36V80.984C80.3263 80.216 79.4863 79.736 78.4663 79.736C76.7143 79.736 75.4063 81.116 75.4063 82.94C75.4063 84.764 76.7143 86.144 78.4663 86.144C79.4863 86.144 80.3263 85.664 80.8423 84.896V86H81.8743V77.36H80.8423ZM78.6583 85.148C77.3983 85.148 76.4623 84.2 76.4623 82.94C76.4623 81.68 77.3983 80.732 78.6583 80.732C79.9063 80.732 80.8423 81.68 80.8423 82.94C80.8423 84.2 79.9063 85.148 78.6583 85.148ZM89.4628 86.144C91.3108 86.144 92.7148 84.764 92.7148 82.94C92.7148 81.116 91.3108 79.736 89.4628 79.736C87.6028 79.736 86.1988 81.116 86.1988 82.94C86.1988 84.764 87.6028 86.144 89.4628 86.144ZM89.4628 85.148C88.2028 85.148 87.2668 84.2 87.2668 82.94C87.2668 81.68 88.2028 80.732 89.4628 80.732C90.7108 80.732 91.6468 81.68 91.6468 82.94C91.6468 84.2 90.7108 85.148 89.4628 85.148ZM97.3113 79.736C96.3513 79.736 95.5833 80.12 95.1033 80.816V79.88H94.0713V86H95.1033V82.568C95.1033 81.464 95.8473 80.732 96.9753 80.732C98.0673 80.732 98.7633 81.452 98.7633 82.544V86H99.7953V82.22C99.7953 80.72 98.7993 79.736 97.3113 79.736ZM107.347 80.792C106.567 80.792 105.775 81.056 105.259 81.596C105.751 80.216 107.095 79.028 109.099 78.596L108.895 77.576C105.895 78.092 103.867 80.348 103.867 82.916C103.867 84.932 105.103 86.144 106.963 86.144C108.727 86.144 110.011 84.968 110.011 83.396C110.011 81.932 108.871 80.792 107.347 80.792ZM106.963 85.088C105.775 85.088 104.995 84.356 104.995 83.348C104.995 82.28 106.075 81.8 107.035 81.8C108.103 81.8 108.883 82.496 108.883 83.408C108.883 84.38 108.067 85.088 106.963 85.088ZM113.931 80.744C113.307 80.744 112.707 80.936 112.275 81.224L112.503 78.752H116.199V77.72H111.591L111.183 82.088L112.143 82.388C112.539 82.004 113.163 81.752 113.799 81.752C114.855 81.752 115.635 82.46 115.635 83.396C115.635 84.344 114.807 85.088 113.619 85.088C112.767 85.088 111.951 84.692 111.387 84.044L110.823 84.908C111.615 85.724 112.647 86.144 113.691 86.144C115.467 86.144 116.763 84.98 116.763 83.42C116.763 81.896 115.539 80.744 113.931 80.744ZM117.459 87.74H118.359L119.523 84.752H118.299L117.459 87.74ZM123.894 80.792C123.114 80.792 122.322 81.056 121.806 81.596C122.298 80.216 123.642 79.028 125.646 78.596L125.442 77.576C122.442 78.092 120.414 80.348 120.414 82.916C120.414 84.932 121.65 86.144 123.51 86.144C125.274 86.144 126.558 84.968 126.558 83.396C126.558 81.932 125.418 80.792 123.894 80.792ZM123.51 85.088C122.322 85.088 121.542 84.356 121.542 83.348C121.542 82.28 122.622 81.8 123.582 81.8C124.65 81.8 125.43 82.496 125.43 83.408C125.43 84.38 124.614 85.088 123.51 85.088ZM129.164 77.72L126.716 79.064L127.184 79.94L128.84 79.04V86H129.932V77.72H129.164ZM133.064 84.968L135.632 82.22C136.232 81.572 136.712 80.876 136.712 79.94C136.712 78.56 135.644 77.576 134.132 77.576C132.968 77.576 131.96 78.188 131.408 79.1L132.176 79.796C132.632 79.112 133.292 78.668 134.072 78.668C134.936 78.668 135.584 79.208 135.584 80C135.584 80.612 135.164 81.164 134.672 81.704L131.528 85.124V86H136.904V84.968H133.064ZM143.29 86.144C144.67 86.144 145.762 85.46 145.762 84.248C145.762 82.976 144.586 82.676 143.578 82.436C142.762 82.244 142.066 82.076 142.066 81.476C142.066 80.948 142.654 80.672 143.362 80.672C144.034 80.672 144.61 80.936 145.018 81.332L145.594 80.576C145.078 80.108 144.322 79.736 143.35 79.736C142.09 79.736 141.01 80.348 141.01 81.536C141.01 82.82 142.198 83.132 143.206 83.384C144.01 83.576 144.694 83.756 144.694 84.344C144.694 84.896 144.082 85.208 143.278 85.208C142.486 85.208 141.838 84.908 141.382 84.44L140.806 85.184C141.37 85.724 142.21 86.144 143.29 86.144ZM152.128 79.88V80.984C151.612 80.216 150.772 79.736 149.752 79.736C148 79.736 146.692 81.116 146.692 82.94C146.692 84.764 148 86.144 149.752 86.144C150.772 86.144 151.612 85.664 152.128 84.896V86H153.16V79.88H152.128ZM149.944 85.148C148.684 85.148 147.748 84.2 147.748 82.94C147.748 81.68 148.684 80.732 149.944 80.732C151.192 80.732 152.128 81.68 152.128 82.94C152.128 84.2 151.192 85.148 149.944 85.148ZM154.915 86H155.947V77.36H154.915V86ZM162.756 79.88V80.984C162.24 80.216 161.4 79.736 160.38 79.736C158.628 79.736 157.32 81.116 157.32 82.94C157.32 84.764 158.628 86.144 160.38 86.144C161.4 86.144 162.24 85.664 162.756 84.896V86H163.788V79.88H162.756ZM160.572 85.148C159.312 85.148 158.376 84.2 158.376 82.94C158.376 81.68 159.312 80.732 160.572 80.732C161.82 80.732 162.756 81.68 162.756 82.94C162.756 84.2 161.82 85.148 160.572 85.148ZM168.664 79.784C167.752 79.784 167.032 80.204 166.576 80.936V79.88H165.544V86H166.576V82.94C166.576 81.668 167.368 80.852 168.664 80.852H168.868V79.784H168.664ZM170.501 78.656C170.885 78.656 171.185 78.356 171.185 77.972C171.185 77.576 170.885 77.288 170.501 77.288C170.105 77.288 169.805 77.576 169.805 77.972C169.805 78.356 170.105 78.656 170.501 78.656ZM169.985 86H171.017V79.88H169.985V86ZM178.775 82.94C178.775 81.104 177.407 79.736 175.583 79.736C173.747 79.736 172.367 81.104 172.367 82.916C172.367 84.752 173.795 86.144 175.715 86.144C176.903 86.144 177.911 85.628 178.523 84.812L177.815 84.2C177.419 84.764 176.651 85.196 175.751 85.196C174.563 85.196 173.687 84.464 173.483 83.396H178.751C178.763 83.252 178.775 83.084 178.775 82.94ZM175.571 80.684C176.651 80.684 177.491 81.404 177.683 82.46H173.471C173.663 81.416 174.503 80.684 175.571 80.684ZM182.103 86.144C183.483 86.144 184.575 85.46 184.575 84.248C184.575 82.976 183.399 82.676 182.391 82.436C181.575 82.244 180.879 82.076 180.879 81.476C180.879 80.948 181.467 80.672 182.175 80.672C182.847 80.672 183.423 80.936 183.831 81.332L184.407 80.576C183.891 80.108 183.135 79.736 182.163 79.736C180.903 79.736 179.823 80.348 179.823 81.536C179.823 82.82 181.011 83.132 182.019 83.384C182.823 83.576 183.507 83.756 183.507 84.344C183.507 84.896 182.895 85.208 182.091 85.208C181.299 85.208 180.651 84.908 180.195 84.44L179.619 85.184C180.183 85.724 181.023 86.144 182.103 86.144Z" fill="#9CA5AF"/>
<defs>
<filter id="filter0_f" x="0.777779" y="0.777779" width="221.444" height="119.444" filterUnits="userSpaceOnUse" color-interpolation-filters="sRGB">
<feFlood flood-opacity="0" result="BackgroundImageFix"/>
<feBlend mode="normal" in="SourceGraphic" in2="BackgroundImageFix" result="shape"/>
<feGaussianBlur stdDeviation="16.1111" result="effect1_foregroundBlur"/>
</filter>
</defs>
</svg>
