<svg width="144" height="18" fill="none" xmlns="http://www.w3.org/2000/svg">
    <g clip-path="url(#a)">
        <path d="M85.484 16.856c.957.65 2.384.738 4.282.268v-1.29c-1.476.406-2.575.41-3.297.013-.721-.398-1.082-1.253-1.082-2.567V5.47h4.428V4.28h-4.428V.459h-1.314v3.82h-2.92V5.47h2.92l-.024 7.834c0 1.719.478 2.903 1.435 3.551zm10.267.511c.908 0 1.69-.146 2.347-.438.657-.292 1.204-.632 1.642-1.021.438-.39.783-.783 1.034-1.18.252-.398.426-.702.523-.913v3.358h1.29V8.22c0-.649-.15-1.229-.45-1.74-.3-.51-.706-.944-1.217-1.301a5.931 5.931 0 0 0-1.8-.827 8.069 8.069 0 0 0-2.202-.292c-.68 0-1.338.077-1.97.231a5.581 5.581 0 0 0-1.679.693 3.956 3.956 0 0 0-1.192 1.156c-.308.462-.495 1.01-.56 1.642l1.314-.024c.081-.487.26-.892.535-1.217.276-.324.6-.584.974-.778a4.298 4.298 0 0 1 1.24-.414 7.735 7.735 0 0 1 1.363-.121c.584 0 1.135.064 1.654.194.519.13.981.325 1.387.584.405.26.725.588.961.985.235.398.352.864.352 1.4v1.118l-4.379.025c-1.119 0-2.06.121-2.822.365-.762.243-1.366.56-1.812.948-.446.39-.762.832-.949 1.326a3.922 3.922 0 0 0-.255 1.52c.032.6.174 1.128.425 1.582a3.5 3.5 0 0 0 1.01 1.144c.422.308.908.543 1.46.705a6.267 6.267 0 0 0 1.776.243zm.073-1.192a4.73 4.73 0 0 1-1.241-.158 3.423 3.423 0 0 1-1.046-.474 2.803 2.803 0 0 1-.767-.779 2.204 2.204 0 0 1-.352-1.046c-.033-.34.016-.693.146-1.058.13-.365.369-.698.717-.998.349-.3.836-.551 1.46-.754.624-.202 1.407-.304 2.348-.304h4.208c0 .762-.146 1.484-.438 2.165a5.593 5.593 0 0 1-2.943 2.968 5.15 5.15 0 0 1-2.092.438zm10.363.998V.143h-1.338v17.03h1.338zm8.612.194c.633 0 1.249-.089 1.849-.267a6.873 6.873 0 0 0 1.667-.742 7.193 7.193 0 0 0 1.399-1.132 5.646 5.646 0 0 0 1.021-1.46l-1.289-.218a5.266 5.266 0 0 1-1.946 1.873 5.372 5.372 0 0 1-2.701.706 5.315 5.315 0 0 1-1.97-.365 5.123 5.123 0 0 1-1.63-1.022 5.176 5.176 0 0 1-1.144-1.57 5.413 5.413 0 0 1-.51-2.006h11.726c.032-.163.044-.345.036-.548a6.183 6.183 0 0 0-.061-.644 7.03 7.03 0 0 0-.681-2.3 6.563 6.563 0 0 0-1.387-1.885 6.402 6.402 0 0 0-1.97-1.265 6.247 6.247 0 0 0-2.409-.462c-.924 0-1.784.174-2.578.523a6.784 6.784 0 0 0-2.093 1.423 6.584 6.584 0 0 0-1.922 4.695c0 .925.171 1.788.511 2.591a6.834 6.834 0 0 0 1.399 2.117 6.51 6.51 0 0 0 2.092 1.435 6.435 6.435 0 0 0 2.591.523zm5.134-7.298h-10.388c.064-.665.239-1.29.523-1.873a5.072 5.072 0 0 1 1.119-1.52 5.275 5.275 0 0 1 3.588-1.4c.697 0 1.346.126 1.946.377.6.252 1.127.592 1.582 1.022.454.43.823.937 1.107 1.52.283.584.458 1.209.523 1.874zm4.208 7.104v-6.569c0-.778.118-1.496.353-2.153a4.921 4.921 0 0 1 .985-1.679 4.56 4.56 0 0 1 1.484-1.082 4.395 4.395 0 0 1 1.849-.39 4.7 4.7 0 0 1 1.642.293c.528.194.994.486 1.399.875.406.39.726.872.961 1.448s.353 1.253.353 2.031v7.226h1.338V9.46c0-.86-.15-1.622-.45-2.287a5.058 5.058 0 0 0-1.216-1.691 5.333 5.333 0 0 0-1.764-1.058 5.971 5.971 0 0 0-2.068-.365c-.6 0-1.156.081-1.667.243-.51.162-.973.381-1.386.657a5.214 5.214 0 0 0-1.071.937 5.41 5.41 0 0 0-.742 1.107V4.279h-1.338v12.894h1.338zm15.522-.317c.956.65 2.384.738 4.281.268v-1.29c-1.476.406-2.574.41-3.296.013-.722-.398-1.083-1.253-1.083-2.567V5.47h4.428V4.28h-4.428V.459h-1.313v3.82h-2.92V5.47h2.92l-.025 7.834c0 1.719.479 2.903 1.436 3.551z" fill="#000"/>
        <path d="M6.158 4.074c1.277 0 2.41.315 3.398.945v-.664h4.139v12.387h-4.14v-.69c-.987.63-2.12.946-3.397.946a5.851 5.851 0 0 1-3.08-.856A6.24 6.24 0 0 1 .83 13.805c-.553-.988-.83-2.077-.83-3.27 0-1.208.277-2.307.83-3.294A6.143 6.143 0 0 1 3.08 4.917a5.919 5.919 0 0 1 3.079-.843zm.598 3.654a2.78 2.78 0 1 0 0 5.56 2.78 2.78 0 0 0 0-5.56zm14.577 9.295c1.124 0 2.155-.225 3.091-.677a5.78 5.78 0 0 0 2.262-1.89c.57-.808.898-1.74.983-2.796H23.76a2.129 2.129 0 0 1-.818 1.353c-.442.34-.979.511-1.61.511-.868 0-1.558-.28-2.069-.843-.51-.562-.766-1.277-.766-2.145 0-.869.255-1.58.766-2.133.511-.553 1.201-.83 2.07-.83.63 0 1.167.17 1.61.51.442.341.715.793.817 1.354h3.91c-.086-1.055-.414-1.988-.984-2.796a5.78 5.78 0 0 0-2.262-1.89c-.936-.452-1.967-.677-3.091-.677-1.295 0-2.453.276-3.475.83a6.18 6.18 0 0 0-2.415 2.311c-.587.988-.88 2.095-.88 3.32 0 1.244.293 2.359.88 3.347a6.18 6.18 0 0 0 2.415 2.311c1.022.553 2.18.83 3.475.83zm13.767 0c1.124 0 2.154-.225 3.091-.677a5.78 5.78 0 0 0 2.262-1.89c.57-.808.898-1.74.983-2.796h-3.909a2.13 2.13 0 0 1-.818 1.353c-.442.34-.979.511-1.61.511-.868 0-1.558-.28-2.069-.843-.51-.562-.766-1.277-.766-2.145 0-.869.255-1.58.766-2.133.511-.553 1.201-.83 2.07-.83.63 0 1.167.17 1.61.51.442.341.715.793.817 1.354h3.91c-.086-1.055-.414-1.988-.984-2.796a5.78 5.78 0 0 0-2.262-1.89c-.937-.452-1.967-.677-3.091-.677-1.295 0-2.453.276-3.475.83a6.18 6.18 0 0 0-2.415 2.311c-.587.988-.881 2.095-.881 3.32 0 1.244.294 2.359.881 3.347a6.18 6.18 0 0 0 2.415 2.311c1.022.553 2.18.83 3.475.83zm13.767 0c1.533 0 2.849-.374 3.947-1.124 1.075-.732 1.763-1.718 2.063-2.955.001-.006.008-.032.028-.172.02-.14.016-.274.02-.297h-3.967c-.004.007-.036.108-.074.212a1.453 1.453 0 0 1-.1.211c-.186.271-.433.48-.742.626a2.6 2.6 0 0 1-1.124.23c-.75 0-1.358-.183-1.827-.55a2.734 2.734 0 0 1-.958-1.442h8.793a13.11 13.11 0 0 0 .098-1.482c0-1.226-.276-2.307-.83-3.243a5.783 5.783 0 0 0-2.274-2.184c-.962-.52-2.04-.78-3.232-.78-1.295 0-2.444.277-3.45.83a5.809 5.809 0 0 0-2.324 2.3c-.545.979-.818 2.09-.818 3.333 0 1.243.281 2.358.843 3.346a5.895 5.895 0 0 0 2.39 2.311c1.03.553 2.21.83 3.538.83zm-2.785-7.688c.164-.705.487-1.256.97-1.655s1.088-.598 1.817-.598c.71 0 1.294.194 1.749.584.456.39.747.946.874 1.67h-5.41zm15.677 7.79c1.703 0 3.096-.357 4.177-1.072 1.082-.716 1.623-1.754 1.623-3.116 0-2.027-1.286-3.278-3.858-3.755l-2.325-.383c-.852-.153-1.278-.477-1.278-.97 0-.256.132-.469.396-.64.264-.17.652-.255 1.163-.255.596 0 1.086.115 1.469.345.383.23.592.575.626 1.035h3.68c-.086-1.499-.69-2.589-1.815-3.27-1.124-.68-2.453-1.021-3.986-1.021-1.669 0-3.006.366-4.011 1.098-1.005.732-1.508 1.745-1.508 3.04 0 1.055.324 1.894.971 2.515.648.622 1.533 1.026 2.658 1.213l2.504.435c.391.068.69.178.894.332.204.153.306.332.306.536 0 .272-.157.485-.472.639-.315.153-.745.23-1.29.23-.665 0-1.206-.128-1.623-.384-.417-.255-.669-.647-.754-1.175l-3.679-.025c.12 1.566.737 2.733 1.852 3.499 1.116.766 2.543 1.15 4.28 1.15zm12.56 0c1.704 0 3.096-.357 4.178-1.072 1.081-.716 1.622-1.754 1.622-3.116 0-2.027-1.286-3.278-3.858-3.755l-2.325-.383c-.852-.153-1.278-.477-1.278-.97 0-.256.132-.469.397-.64.263-.17.651-.255 1.162-.255.596 0 1.086.115 1.47.345.382.23.591.575.625 1.035h3.68c-.086-1.499-.69-2.589-1.815-3.27-1.124-.68-2.453-1.021-3.986-1.021-1.669 0-3.006.366-4.01 1.098-1.006.732-1.508 1.745-1.508 3.04 0 1.055.323 1.894.97 2.515.648.622 1.534 1.026 2.658 1.213l2.504.435c.391.068.69.178.894.332.204.153.306.332.306.536 0 .272-.157.485-.472.639-.315.153-.745.23-1.29.23-.665 0-1.206-.128-1.623-.384-.417-.255-.668-.647-.754-1.175l-3.679-.025c.12 1.566.737 2.733 1.853 3.499 1.115.766 2.542 1.15 4.28 1.15z" fill="#1F1F1F"/>
        <path d="M13.884.537H.661V2.52h13.223V.537z" fill="#99C2DE"/>
    </g>
    <defs>
        <clipPath id="a">
            <path fill="#fff" d="M0 0h144v17.53H0z"/>
        </clipPath>
    </defs>
</svg>
