<svg width="561" height="679" viewBox="0 0 561 679" fill="none" xmlns="http://www.w3.org/2000/svg">
<g opacity="0.2" filter="url(#filter0_f)">
<rect x="135" y="150" width="276" height="379" rx="14.4" fill="#0F0941"/>
</g>
<mask id="mask0" style="mask-type:alpha" maskUnits="userSpaceOnUse" x="99" y="123" width="348" height="392">
<rect x="99" y="123" width="348" height="392" rx="30" fill="#FEFEFE"/>
</mask>
<g mask="url(#mask0)">
<rect x="99" y="123" width="348" height="392" rx="30" fill="#FEFEFE"/>
<path d="M450.96 496.838C450.96 486.518 446.16 477.638 438.56 472.518L432.64 482.038C437.36 485.238 440.32 490.598 440.32 496.838C440.32 506.918 432.64 514.598 422.4 514.598C412.16 514.598 404.48 506.918 404.48 496.838C404.48 490.598 407.44 485.238 412.16 482.038L406.24 472.518C398.64 477.638 393.84 486.518 393.84 496.838C393.84 513.398 406.16 525.958 422.4 525.958C438.64 525.958 450.96 513.398 450.96 496.838ZM450.96 447.014C450.96 434.534 441.76 425.094 429.6 425.094C417.44 425.094 408.24 434.534 408.24 447.014C408.24 459.494 417.44 468.934 429.6 468.934C441.76 468.934 450.96 459.494 450.96 447.014ZM440.88 447.014C440.88 453.414 436 458.214 429.6 458.214C423.2 458.214 418.32 453.414 418.32 447.014C418.32 440.534 423.2 435.814 429.6 435.814C436 435.814 440.88 440.534 440.88 447.014ZM408.24 394.266C408.24 399.546 410.16 404.026 413.76 407.226L409.2 407.226L409.2 417.626L450 417.626L450 407.226L427.6 407.226C422 407.226 418.32 403.386 418.32 397.706C418.32 392.266 421.92 388.746 427.44 388.746L450 388.746L450 378.346L424.08 378.346C414.48 378.346 408.24 384.666 408.24 394.266ZM408.24 345.672C408.24 350.952 410.16 355.432 413.76 358.632L409.2 358.632L409.2 369.032L450 369.032L450 358.632L427.6 358.632C422 358.632 418.32 354.792 418.32 349.112C418.32 343.672 421.92 340.152 427.44 340.152L450 340.152L450 329.752L424.08 329.752C414.48 329.752 408.24 336.072 408.24 345.672ZM429.68 279.798C417.36 279.798 408.24 288.998 408.24 301.238C408.24 313.558 417.36 322.918 429.44 322.918C441.68 322.918 450.96 313.238 450.96 300.278C450.96 292.598 447.84 286.038 442.8 281.798L436.72 288.758C439.44 290.918 441.76 294.998 441.76 299.958C441.76 305.878 438.48 310.198 433.36 311.638L433.36 280.038C432.24 279.878 430.8 279.798 429.68 279.798ZM417.36 301.318C417.36 296.278 420.64 292.198 425.76 290.918L425.76 311.718C420.72 310.438 417.36 306.438 417.36 301.318ZM450.96 253.108C450.96 244.868 446.96 237.988 440.8 234.308L435.36 243.348C438.64 245.188 440.88 248.788 440.88 253.108C440.88 259.508 436 264.308 429.6 264.308C423.2 264.308 418.32 259.508 418.32 253.108C418.32 248.788 420.56 245.188 423.84 243.348L418.4 234.308C412.24 237.988 408.24 244.868 408.24 253.108C408.24 265.588 417.44 275.028 429.6 275.028C441.76 275.028 450.96 265.588 450.96 253.108ZM418.72 202.975L409.2 202.975L409.2 213.935L398.88 213.935L398.88 224.335L409.2 224.335L409.2 230.815L418.72 230.815L418.72 224.335L437.36 224.335C445.52 224.335 450.96 219.935 450.96 210.575C450.96 207.535 450.4 205.215 449.2 202.975L439.52 202.975C440.24 204.495 440.88 206.255 440.88 208.335C440.88 212.015 439.12 213.935 435.68 213.935L418.72 213.935L418.72 202.975Z" fill="#F9F9F9"/>
</g>
<path d="M152.82 302H154.84L149.22 288.2H147.04L141.42 302H143.38L144.72 298.66H151.48L152.82 302ZM145.4 296.96L148.1 290.18L150.8 296.96H145.4ZM161.205 302.24C163.225 302.24 164.945 301.24 165.865 299.68L164.365 298.78C163.745 299.86 162.585 300.58 161.205 300.58C159.105 300.58 157.545 299 157.545 296.9C157.545 294.8 159.105 293.22 161.205 293.22C162.585 293.22 163.745 293.94 164.365 295.02L165.865 294.12C164.945 292.56 163.225 291.56 161.205 291.56C158.105 291.56 155.765 293.86 155.765 296.9C155.765 299.94 158.105 302.24 161.205 302.24ZM172.631 302.24C174.651 302.24 176.371 301.24 177.291 299.68L175.791 298.78C175.171 299.86 174.011 300.58 172.631 300.58C170.531 300.58 168.971 299 168.971 296.9C168.971 294.8 170.531 293.22 172.631 293.22C174.011 293.22 175.171 293.94 175.791 295.02L177.291 294.12C176.371 292.56 174.651 291.56 172.631 291.56C169.531 291.56 167.191 293.86 167.191 296.9C167.191 299.94 169.531 302.24 172.631 302.24ZM189.296 296.9C189.296 293.84 187.016 291.56 183.976 291.56C180.916 291.56 178.616 293.84 178.616 296.86C178.616 299.92 180.996 302.24 184.196 302.24C186.176 302.24 187.856 301.38 188.876 300.02L187.696 299C187.036 299.94 185.756 300.66 184.256 300.66C182.276 300.66 180.816 299.44 180.476 297.66H189.256C189.276 297.42 189.296 297.14 189.296 296.9ZM183.956 293.14C185.756 293.14 187.156 294.34 187.476 296.1H180.456C180.776 294.36 182.176 293.14 183.956 293.14ZM194.843 302.24C197.143 302.24 198.963 301.1 198.963 299.08C198.963 296.96 197.003 296.46 195.323 296.06C193.963 295.74 192.803 295.46 192.803 294.46C192.803 293.58 193.783 293.12 194.963 293.12C196.083 293.12 197.043 293.56 197.723 294.22L198.683 292.96C197.823 292.18 196.563 291.56 194.943 291.56C192.843 291.56 191.043 292.58 191.043 294.56C191.043 296.7 193.023 297.22 194.703 297.64C196.043 297.96 197.183 298.26 197.183 299.24C197.183 300.16 196.163 300.68 194.823 300.68C193.503 300.68 192.423 300.18 191.663 299.4L190.703 300.64C191.643 301.54 193.043 302.24 194.843 302.24ZM204.452 302.24C206.752 302.24 208.572 301.1 208.572 299.08C208.572 296.96 206.612 296.46 204.932 296.06C203.572 295.74 202.412 295.46 202.412 294.46C202.412 293.58 203.392 293.12 204.572 293.12C205.692 293.12 206.652 293.56 207.332 294.22L208.292 292.96C207.432 292.18 206.172 291.56 204.552 291.56C202.452 291.56 200.652 292.58 200.652 294.56C200.652 296.7 202.632 297.22 204.312 297.64C205.652 297.96 206.792 298.26 206.792 299.24C206.792 300.16 205.772 300.68 204.432 300.68C203.112 300.68 202.032 300.18 201.272 299.4L200.312 300.64C201.252 301.54 202.652 302.24 204.452 302.24ZM224.123 291.8V293.64C223.263 292.36 221.863 291.56 220.163 291.56C217.243 291.56 215.063 293.86 215.063 296.9C215.063 299.94 217.243 302.24 220.163 302.24C221.863 302.24 223.263 301.44 224.123 300.16V302H225.843V291.8H224.123ZM220.483 300.58C218.383 300.58 216.823 299 216.823 296.9C216.823 294.8 218.383 293.22 220.483 293.22C222.563 293.22 224.123 294.8 224.123 296.9C224.123 299 222.563 300.58 220.483 300.58ZM240.13 302.26H236.39C235.53 302.26 234.95 301.8 234.95 301.08C234.95 300.64 235.19 300.2 235.59 299.94C236.23 300.26 236.95 300.42 237.75 300.42C240.39 300.42 242.41 298.5 242.41 295.98C242.41 294.9 242.05 293.94 241.41 293.18C241.43 292.5 241.93 292.06 242.67 292.06H243.35V290.46H242.57C241.33 290.46 240.45 291.14 240.25 292.22C239.53 291.8 238.69 291.56 237.75 291.56C235.09 291.56 233.09 293.46 233.09 295.98C233.09 297.28 233.63 298.42 234.49 299.22C233.71 299.66 233.23 300.56 233.23 301.52C233.23 302.96 234.37 303.94 236.07 303.94H239.83C240.99 303.94 241.79 304.54 241.83 305.46L243.61 305C243.41 303.3 242.05 302.26 240.13 302.26ZM237.75 293.2C239.39 293.2 240.63 294.4 240.63 295.98C240.63 297.58 239.39 298.78 237.75 298.78C236.11 298.78 234.87 297.58 234.87 295.98C234.87 294.4 236.09 293.2 237.75 293.2ZM244.94 302H246.66V287.6H244.94V302ZM254.349 302.24C257.429 302.24 259.769 299.94 259.769 296.9C259.769 293.86 257.429 291.56 254.349 291.56C251.249 291.56 248.909 293.86 248.909 296.9C248.909 299.94 251.249 302.24 254.349 302.24ZM254.349 300.58C252.249 300.58 250.689 299 250.689 296.9C250.689 294.8 252.249 293.22 254.349 293.22C256.429 293.22 257.989 294.8 257.989 296.9C257.989 299 256.429 300.58 254.349 300.58ZM267.71 291.56C266.01 291.56 264.61 292.36 263.75 293.64V287.6H262.03V302H263.75V300.16C264.61 301.44 266.01 302.24 267.71 302.24C270.63 302.24 272.83 299.94 272.83 296.9C272.83 293.86 270.63 291.56 267.71 291.56ZM267.39 300.58C265.31 300.58 263.75 299 263.75 296.9C263.75 294.8 265.31 293.22 267.39 293.22C269.49 293.22 271.05 294.8 271.05 296.9C271.05 299 269.49 300.58 267.39 300.58ZM283.556 291.8V293.64C282.696 292.36 281.296 291.56 279.596 291.56C276.676 291.56 274.496 293.86 274.496 296.9C274.496 299.94 276.676 302.24 279.596 302.24C281.296 302.24 282.696 301.44 283.556 300.16V302H285.276V291.8H283.556ZM279.916 300.58C277.816 300.58 276.256 299 276.256 296.9C276.256 294.8 277.816 293.22 279.916 293.22C281.996 293.22 283.556 294.8 283.556 296.9C283.556 299 281.996 300.58 279.916 300.58ZM288.202 302H289.922V287.6H288.202V302ZM303.173 291.56C301.573 291.56 300.293 292.2 299.493 293.36V291.8H297.773V302H299.493V296.28C299.493 294.44 300.733 293.22 302.613 293.22C304.433 293.22 305.593 294.42 305.593 296.24V302H307.313V295.7C307.313 293.2 305.653 291.56 303.173 291.56ZM320.117 296.9C320.117 293.84 317.837 291.56 314.797 291.56C311.737 291.56 309.437 293.84 309.437 296.86C309.437 299.92 311.817 302.24 315.017 302.24C316.997 302.24 318.677 301.38 319.697 300.02L318.517 299C317.857 299.94 316.577 300.66 315.077 300.66C313.097 300.66 311.637 299.44 311.297 297.66H320.077C320.097 297.42 320.117 297.14 320.117 296.9ZM314.777 293.14C316.577 293.14 317.977 294.34 318.297 296.1H311.277C311.597 294.36 312.997 293.14 314.777 293.14ZM327.578 293.36V291.8H324.518V289.06H322.798V291.8H320.958V293.36H322.798V299.28C322.798 301.16 323.818 302.24 325.798 302.24C326.518 302.24 327.058 302.1 327.578 301.82V300.2C327.158 300.42 326.718 300.58 326.158 300.58C325.118 300.58 324.518 300.1 324.518 299V293.36H327.578ZM343.621 291.8L340.861 299.92L338.041 291.8H336.281L333.481 299.9L330.721 291.8H328.781L332.521 302H334.321L337.141 293.84L339.961 302H341.761L345.501 291.8H343.621ZM351.498 302.24C354.578 302.24 356.918 299.94 356.918 296.9C356.918 293.86 354.578 291.56 351.498 291.56C348.398 291.56 346.058 293.86 346.058 296.9C346.058 299.94 348.398 302.24 351.498 302.24ZM351.498 300.58C349.398 300.58 347.838 299 347.838 296.9C347.838 294.8 349.398 293.22 351.498 293.22C353.578 293.22 355.138 294.8 355.138 296.9C355.138 299 353.578 300.58 351.498 300.58ZM364.379 291.64C362.859 291.64 361.659 292.34 360.899 293.56V291.8H359.179V302H360.899V296.9C360.899 294.78 362.219 293.42 364.379 293.42H364.719V291.64H364.379ZM373.281 302H375.561L370.841 296.62L375.421 291.8H373.181L368.301 296.98V287.6H366.581V302H368.301V299.3L369.621 297.9L373.281 302ZM147.24 330.24C150.32 330.24 152.66 327.94 152.66 324.9C152.66 321.86 150.32 319.56 147.24 319.56C144.14 319.56 141.8 321.86 141.8 324.9C141.8 327.94 144.14 330.24 147.24 330.24ZM147.24 328.58C145.14 328.58 143.58 327 143.58 324.9C143.58 322.8 145.14 321.22 147.24 321.22C149.32 321.22 150.88 322.8 150.88 324.9C150.88 327 149.32 328.58 147.24 328.58ZM158.775 316.94C159.335 316.94 159.755 317.08 160.175 317.3V315.78C159.635 315.5 159.135 315.36 158.415 315.36C156.435 315.36 155.415 316.46 155.415 318.38V319.8H153.555V321.36H155.415V330H157.135V321.36H160.075V319.8H157.135V318.5C157.135 317.4 157.735 316.94 158.775 316.94ZM171.353 316.94C171.913 316.94 172.333 317.08 172.753 317.3V315.78C172.213 315.5 171.713 315.36 170.993 315.36C169.013 315.36 167.993 316.46 167.993 318.38V319.8H166.133V321.36H167.993V330H169.713V321.36H172.653V319.8H169.713V318.5C169.713 317.4 170.313 316.94 171.353 316.94ZM178.744 330.24C181.824 330.24 184.164 327.94 184.164 324.9C184.164 321.86 181.824 319.56 178.744 319.56C175.644 319.56 173.304 321.86 173.304 324.9C173.304 327.94 175.644 330.24 178.744 330.24ZM178.744 328.58C176.644 328.58 175.084 327 175.084 324.9C175.084 322.8 176.644 321.22 178.744 321.22C180.824 321.22 182.384 322.8 182.384 324.9C182.384 327 180.824 328.58 178.744 328.58ZM190.885 330.24C193.665 330.24 195.505 328.54 195.505 325.96V319.8H193.785V325.72C193.785 327.44 192.625 328.58 190.885 328.58C189.145 328.58 187.985 327.44 187.985 325.72V319.8H186.265V325.96C186.265 328.54 188.105 330.24 190.885 330.24ZM203.661 319.56C202.061 319.56 200.781 320.2 199.981 321.36V319.8H198.261V330H199.981V324.28C199.981 322.44 201.221 321.22 203.101 321.22C204.921 321.22 206.081 322.42 206.081 324.24V330H207.801V323.7C207.801 321.2 206.141 319.56 203.661 319.56ZM219.025 315.6V321.64C218.165 320.36 216.765 319.56 215.065 319.56C212.145 319.56 209.965 321.86 209.965 324.9C209.965 327.94 212.145 330.24 215.065 330.24C216.765 330.24 218.165 329.44 219.025 328.16V330H220.745V315.6H219.025ZM215.385 328.58C213.285 328.58 211.725 327 211.725 324.9C211.725 322.8 213.285 321.22 215.385 321.22C217.465 321.22 219.025 322.8 219.025 324.9C219.025 327 217.465 328.58 215.385 328.58ZM233.691 324.9C233.691 321.84 231.411 319.56 228.371 319.56C225.311 319.56 223.011 321.84 223.011 324.86C223.011 327.92 225.391 330.24 228.591 330.24C230.571 330.24 232.251 329.38 233.271 328.02L232.091 327C231.431 327.94 230.151 328.66 228.651 328.66C226.671 328.66 225.211 327.44 224.871 325.66H233.651C233.671 325.42 233.691 325.14 233.691 324.9ZM228.351 321.14C230.151 321.14 231.551 322.34 231.871 324.1H224.851C225.171 322.36 226.571 321.14 228.351 321.14ZM241.098 319.64C239.577 319.64 238.378 320.34 237.618 321.56V319.8H235.898V330H237.618V324.9C237.618 322.78 238.938 321.42 241.098 321.42H241.438V319.64H241.098ZM246.542 330.24C248.842 330.24 250.662 329.1 250.662 327.08C250.662 324.96 248.702 324.46 247.022 324.06C245.662 323.74 244.502 323.46 244.502 322.46C244.502 321.58 245.482 321.12 246.662 321.12C247.782 321.12 248.742 321.56 249.422 322.22L250.382 320.96C249.522 320.18 248.262 319.56 246.642 319.56C244.542 319.56 242.742 320.58 242.742 322.56C242.742 324.7 244.722 325.22 246.402 325.64C247.742 325.96 248.882 326.26 248.882 327.24C248.882 328.16 247.862 328.68 246.522 328.68C245.202 328.68 244.122 328.18 243.362 327.4L242.402 328.64C243.342 329.54 244.742 330.24 246.542 330.24ZM251.81 332.9H253.31L255.25 327.92H253.21L251.81 332.9ZM268.296 319.56C266.596 319.56 265.196 320.36 264.336 321.64V319.8H262.616V333.8H264.336V328.16C265.196 329.44 266.596 330.24 268.296 330.24C271.216 330.24 273.416 327.94 273.416 324.9C273.416 321.86 271.216 319.56 268.296 319.56ZM267.976 328.58C265.896 328.58 264.336 327 264.336 324.9C264.336 322.8 265.896 321.22 267.976 321.22C270.076 321.22 271.636 322.8 271.636 324.9C271.636 327 270.076 328.58 267.976 328.58ZM284.142 319.8V321.64C283.282 320.36 281.882 319.56 280.182 319.56C277.262 319.56 275.082 321.86 275.082 324.9C275.082 327.94 277.262 330.24 280.182 330.24C281.882 330.24 283.282 329.44 284.142 328.16V330H285.862V319.8H284.142ZM280.502 328.58C278.402 328.58 276.842 327 276.842 324.9C276.842 322.8 278.402 321.22 280.502 321.22C282.582 321.22 284.142 322.8 284.142 324.9C284.142 327 282.582 328.58 280.502 328.58ZM293.988 319.64C292.468 319.64 291.268 320.34 290.508 321.56V319.8H288.788V330H290.508V324.9C290.508 322.78 291.828 321.42 293.988 321.42H294.328V319.64H293.988ZM302.188 321.36V319.8H299.128V317.06H297.408V319.8H295.568V321.36H297.408V327.28C297.408 329.16 298.428 330.24 300.408 330.24C301.128 330.24 301.668 330.1 302.188 329.82V328.2C301.768 328.42 301.328 328.58 300.768 328.58C299.728 328.58 299.128 328.1 299.128 327V321.36H302.188ZM309.794 319.56C308.194 319.56 306.914 320.2 306.114 321.36V319.8H304.394V330H306.114V324.28C306.114 322.44 307.354 321.22 309.234 321.22C311.054 321.22 312.214 322.42 312.214 324.24V330H313.934V323.7C313.934 321.2 312.274 319.56 309.794 319.56ZM326.738 324.9C326.738 321.84 324.458 319.56 321.418 319.56C318.358 319.56 316.058 321.84 316.058 324.86C316.058 327.92 318.438 330.24 321.638 330.24C323.618 330.24 325.298 329.38 326.318 328.02L325.138 327C324.478 327.94 323.198 328.66 321.698 328.66C319.718 328.66 318.258 327.44 317.918 325.66H326.698C326.718 325.42 326.738 325.14 326.738 324.9ZM321.398 321.14C323.198 321.14 324.598 322.34 324.918 324.1H317.898C318.218 322.36 319.618 321.14 321.398 321.14ZM334.144 319.64C332.624 319.64 331.424 320.34 330.664 321.56V319.8H328.944V330H330.664V324.9C330.664 322.78 331.984 321.42 334.144 321.42H334.484V319.64H334.144ZM339.589 330.24C341.889 330.24 343.709 329.1 343.709 327.08C343.709 324.96 341.749 324.46 340.069 324.06C338.709 323.74 337.549 323.46 337.549 322.46C337.549 321.58 338.529 321.12 339.709 321.12C340.829 321.12 341.789 321.56 342.469 322.22L343.429 320.96C342.569 320.18 341.309 319.56 339.689 319.56C337.589 319.56 335.789 320.58 335.789 322.56C335.789 324.7 337.769 325.22 339.449 325.64C340.789 325.96 341.929 326.26 341.929 327.24C341.929 328.16 340.909 328.68 339.569 328.68C338.249 328.68 337.169 328.18 336.409 327.4L335.449 328.64C336.389 329.54 337.789 330.24 339.589 330.24ZM344.857 332.9H346.357L348.297 327.92H346.257L344.857 332.9ZM143.32 345.76C143.96 345.76 144.46 345.26 144.46 344.62C144.46 343.96 143.96 343.48 143.32 343.48C142.66 343.48 142.16 343.96 142.16 344.62C142.16 345.26 142.66 345.76 143.32 345.76ZM142.46 358H144.18V347.8H142.46V358ZM152.489 347.56C150.889 347.56 149.609 348.2 148.809 349.36V347.8H147.089V358H148.809V352.28C148.809 350.44 150.049 349.22 151.929 349.22C153.749 349.22 154.909 350.42 154.909 352.24V358H156.629V351.7C156.629 349.2 154.969 347.56 152.489 347.56ZM166.605 347.8L163.165 355.94L159.725 347.8H157.745L162.225 358H164.045L168.525 347.8H166.605ZM179.707 352.9C179.707 349.84 177.427 347.56 174.387 347.56C171.327 347.56 169.027 349.84 169.027 352.86C169.027 355.92 171.407 358.24 174.607 358.24C176.587 358.24 178.267 357.38 179.287 356.02L178.107 355C177.447 355.94 176.167 356.66 174.667 356.66C172.687 356.66 171.227 355.44 170.887 353.66H179.667C179.687 353.42 179.707 353.14 179.707 352.9ZM174.367 349.14C176.167 349.14 177.567 350.34 177.887 352.1H170.867C171.187 350.36 172.587 349.14 174.367 349.14ZM185.253 358.24C187.553 358.24 189.373 357.1 189.373 355.08C189.373 352.96 187.413 352.46 185.733 352.06C184.373 351.74 183.213 351.46 183.213 350.46C183.213 349.58 184.193 349.12 185.373 349.12C186.493 349.12 187.453 349.56 188.133 350.22L189.093 348.96C188.233 348.18 186.973 347.56 185.353 347.56C183.253 347.56 181.453 348.58 181.453 350.56C181.453 352.7 183.433 353.22 185.113 353.64C186.453 353.96 187.593 354.26 187.593 355.24C187.593 356.16 186.573 356.68 185.233 356.68C183.913 356.68 182.833 356.18 182.073 355.4L181.113 356.64C182.053 357.54 183.453 358.24 185.253 358.24ZM197.129 349.36V347.8H194.069V345.06H192.349V347.8H190.509V349.36H192.349V355.28C192.349 357.16 193.369 358.24 195.349 358.24C196.069 358.24 196.609 358.1 197.129 357.82V356.2C196.709 356.42 196.269 356.58 195.709 356.58C194.669 356.58 194.069 356.1 194.069 355V349.36H197.129ZM203.724 358.24C206.804 358.24 209.144 355.94 209.144 352.9C209.144 349.86 206.804 347.56 203.724 347.56C200.624 347.56 198.284 349.86 198.284 352.9C198.284 355.94 200.624 358.24 203.724 358.24ZM203.724 356.58C201.624 356.58 200.064 355 200.064 352.9C200.064 350.8 201.624 349.22 203.724 349.22C205.804 349.22 207.364 350.8 207.364 352.9C207.364 355 205.804 356.58 203.724 356.58ZM216.605 347.64C215.085 347.64 213.885 348.34 213.125 349.56V347.8H211.405V358H213.125V352.9C213.125 350.78 214.445 349.42 216.605 349.42H216.945V347.64H216.605ZM222.05 358.24C224.35 358.24 226.17 357.1 226.17 355.08C226.17 352.96 224.21 352.46 222.53 352.06C221.17 351.74 220.01 351.46 220.01 350.46C220.01 349.58 220.99 349.12 222.17 349.12C223.29 349.12 224.25 349.56 224.93 350.22L225.89 348.96C225.03 348.18 223.77 347.56 222.15 347.56C220.05 347.56 218.25 348.58 218.25 350.56C218.25 352.7 220.23 353.22 221.91 353.64C223.25 353.96 224.39 354.26 224.39 355.24C224.39 356.16 223.37 356.68 222.03 356.68C220.71 356.68 219.63 356.18 218.87 355.4L217.91 356.64C218.85 357.54 220.25 358.24 222.05 358.24ZM245.02 358L242.7 355.42C243.5 354.36 244.02 353.1 244.44 351.94L242.9 351.4C242.58 352.42 242.14 353.38 241.58 354.2L237.88 350.12C239.36 349.34 240.74 348.4 240.74 346.82C240.74 345.16 239.26 343.96 237.36 343.96C235.5 343.96 234.02 345.18 234.02 346.84C234.02 347.82 234.54 348.8 235.32 349.8C233.86 350.64 232.56 351.8 232.56 353.84C232.56 356.4 234.66 358.24 237.56 358.24C239.14 358.24 240.48 357.7 241.56 356.76L242.68 358H245.02ZM237.36 345.38C238.24 345.38 238.94 346 238.94 346.82C238.94 347.76 238.04 348.38 236.88 348.98C236.16 348.1 235.8 347.44 235.8 346.84C235.8 345.98 236.5 345.38 237.36 345.38ZM237.62 356.6C235.8 356.6 234.4 355.4 234.4 353.72C234.4 352.46 235.22 351.64 236.32 350.94L240.44 355.5C239.64 356.18 238.68 356.6 237.62 356.6ZM251.914 345.76C252.554 345.76 253.054 345.26 253.054 344.62C253.054 343.96 252.554 343.48 251.914 343.48C251.254 343.48 250.754 343.96 250.754 344.62C250.754 345.26 251.254 345.76 251.914 345.76ZM251.054 358H252.774V347.8H251.054V358ZM261.083 347.56C259.483 347.56 258.203 348.2 257.403 349.36V347.8H255.683V358H257.403V352.28C257.403 350.44 258.643 349.22 260.523 349.22C262.343 349.22 263.503 350.42 263.503 352.24V358H265.223V351.7C265.223 349.2 263.563 347.56 261.083 347.56ZM273.407 347.56C271.807 347.56 270.527 348.2 269.727 349.36V347.8H268.007V358H269.727V352.28C269.727 350.44 270.967 349.22 272.847 349.22C274.667 349.22 275.827 350.42 275.827 352.24V358H277.547V351.7C277.547 349.2 275.887 347.56 273.407 347.56ZM285.111 358.24C288.191 358.24 290.531 355.94 290.531 352.9C290.531 349.86 288.191 347.56 285.111 347.56C282.011 347.56 279.671 349.86 279.671 352.9C279.671 355.94 282.011 358.24 285.111 358.24ZM285.111 356.58C283.011 356.58 281.451 355 281.451 352.9C281.451 350.8 283.011 349.22 285.111 349.22C287.191 349.22 288.751 350.8 288.751 352.9C288.751 355 287.191 356.58 285.111 356.58ZM299.886 347.8L296.446 355.94L293.006 347.8H291.026L295.506 358H297.326L301.806 347.8H299.886ZM311.408 347.8V349.64C310.548 348.36 309.148 347.56 307.448 347.56C304.528 347.56 302.348 349.86 302.348 352.9C302.348 355.94 304.528 358.24 307.448 358.24C309.148 358.24 310.548 357.44 311.408 356.16V358H313.128V347.8H311.408ZM307.768 356.58C305.668 356.58 304.108 355 304.108 352.9C304.108 350.8 305.668 349.22 307.768 349.22C309.848 349.22 311.408 350.8 311.408 352.9C311.408 355 309.848 356.58 307.768 356.58ZM321.934 349.36V347.8H318.874V345.06H317.154V347.8H315.314V349.36H317.154V355.28C317.154 357.16 318.174 358.24 320.154 358.24C320.874 358.24 321.414 358.1 321.934 357.82V356.2C321.514 356.42 321.074 356.58 320.514 356.58C319.474 356.58 318.874 356.1 318.874 355V349.36H321.934ZM328.529 358.24C331.609 358.24 333.949 355.94 333.949 352.9C333.949 349.86 331.609 347.56 328.529 347.56C325.429 347.56 323.089 349.86 323.089 352.9C323.089 355.94 325.429 358.24 328.529 358.24ZM328.529 356.58C326.429 356.58 324.869 355 324.869 352.9C324.869 350.8 326.429 349.22 328.529 349.22C330.609 349.22 332.169 350.8 332.169 352.9C332.169 355 330.609 356.58 328.529 356.58ZM341.41 347.64C339.89 347.64 338.69 348.34 337.93 349.56V347.8H336.21V358H337.93V352.9C337.93 350.78 339.25 349.42 341.41 349.42H341.75V347.64H341.41ZM346.855 358.24C349.155 358.24 350.975 357.1 350.975 355.08C350.975 352.96 349.015 352.46 347.335 352.06C345.975 351.74 344.815 351.46 344.815 350.46C344.815 349.58 345.795 349.12 346.975 349.12C348.095 349.12 349.055 349.56 349.735 350.22L350.695 348.96C349.835 348.18 348.575 347.56 346.955 347.56C344.855 347.56 343.055 348.58 343.055 350.56C343.055 352.7 345.035 353.22 346.715 353.64C348.055 353.96 349.195 354.26 349.195 355.24C349.195 356.16 348.175 356.68 346.835 356.68C345.515 356.68 344.435 356.18 343.675 355.4L342.715 356.64C343.655 357.54 345.055 358.24 346.855 358.24ZM354.063 358.14C354.803 358.14 355.363 357.58 355.363 356.86C355.363 356.14 354.803 355.58 354.063 355.58C353.343 355.58 352.783 356.14 352.783 356.86C352.783 357.58 353.343 358.14 354.063 358.14Z" fill="#B1B1B1"/>
<path d="M147.298 221.192C148.812 221.192 150.155 221.566 151.325 222.312V221.525H156.231V236.207H151.325V235.39C150.155 236.136 148.812 236.51 147.298 236.51C145.986 236.51 144.769 236.172 143.649 235.496C142.529 234.82 141.64 233.896 140.984 232.726C140.328 231.555 140 230.264 140 228.851C140 227.418 140.328 226.116 140.984 224.946C141.64 223.775 142.529 222.857 143.649 222.191C144.769 221.525 145.986 221.192 147.298 221.192ZM148.008 225.523C146.188 225.523 144.712 226.998 144.712 228.817C144.712 230.637 146.188 232.111 148.008 232.111C149.828 232.111 151.303 230.637 151.303 228.817C151.303 226.998 149.828 225.523 148.008 225.523ZM165.284 236.54C166.616 236.54 167.837 236.273 168.948 235.738C170.058 235.203 170.951 234.456 171.628 233.498C172.304 232.539 172.693 231.434 172.794 230.183H168.16C168.039 230.849 167.716 231.384 167.191 231.787C166.667 232.191 166.031 232.393 165.284 232.393C164.254 232.393 163.436 232.06 162.831 231.394C162.225 230.728 161.922 229.88 161.922 228.851C161.922 227.822 162.225 226.979 162.831 226.323C163.436 225.667 164.254 225.339 165.284 225.339C166.031 225.339 166.667 225.541 167.191 225.945C167.716 226.349 168.039 226.883 168.16 227.549H172.794C172.693 226.298 172.304 225.193 171.628 224.235C170.951 223.276 170.058 222.529 168.948 221.994C167.837 221.46 166.616 221.192 165.284 221.192C163.749 221.192 162.377 221.52 161.165 222.176C159.954 222.832 159 223.745 158.304 224.916C157.607 226.086 157.259 227.398 157.259 228.851C157.259 230.324 157.607 231.646 158.304 232.817C159 233.987 159.954 234.9 161.165 235.556C162.377 236.212 163.749 236.54 165.284 236.54ZM181.6 236.54C182.933 236.54 184.154 236.273 185.264 235.738C186.375 235.203 187.268 234.456 187.944 233.498C188.621 232.539 189.009 231.434 189.11 230.183H184.477C184.356 230.849 184.033 231.384 183.508 231.787C182.983 232.191 182.347 232.393 181.6 232.393C180.571 232.393 179.753 232.06 179.148 231.394C178.542 230.728 178.239 229.88 178.239 228.851C178.239 227.822 178.542 226.979 179.148 226.323C179.753 225.667 180.571 225.339 181.6 225.339C182.347 225.339 182.983 225.541 183.508 225.945C184.033 226.349 184.356 226.883 184.477 227.549H189.11C189.009 226.298 188.621 225.193 187.944 224.235C187.268 223.276 186.375 222.529 185.264 221.994C184.154 221.46 182.933 221.192 181.6 221.192C180.066 221.192 178.693 221.52 177.482 222.176C176.271 222.832 175.317 223.745 174.62 224.916C173.924 226.086 173.576 227.398 173.576 228.851C173.576 230.324 173.924 231.646 174.62 232.817C175.317 233.987 176.271 234.9 177.482 235.556C178.693 236.212 180.066 236.54 181.6 236.54ZM197.917 236.54C199.734 236.54 201.293 236.096 202.596 235.208C203.869 234.34 204.684 233.172 205.04 231.705C205.042 231.698 205.05 231.667 205.073 231.501C205.097 231.335 205.092 231.177 205.098 231.15H200.395C200.39 231.158 200.352 231.277 200.307 231.401C200.264 231.52 200.193 231.644 200.188 231.651C199.969 231.972 199.676 232.219 199.31 232.393C198.926 232.574 198.482 232.665 197.978 232.665C197.089 232.665 196.368 232.448 195.812 232.014C195.257 231.581 194.879 231.01 194.677 230.304H205.098C205.176 229.631 205.215 229.046 205.215 228.548C205.215 227.095 204.887 225.814 204.231 224.704C203.575 223.594 202.676 222.731 201.536 222.116C200.395 221.5 199.118 221.192 197.705 221.192C196.171 221.192 194.808 221.52 193.617 222.176C192.426 222.832 191.507 223.74 190.861 224.901C190.215 226.061 189.892 227.378 189.892 228.851C189.892 230.324 190.225 231.646 190.892 232.817C191.558 233.987 192.502 234.9 193.723 235.556C194.944 236.212 196.342 236.54 197.917 236.54ZM194.616 227.428C194.811 226.593 195.194 225.939 195.766 225.466C196.338 224.994 197.056 224.757 197.92 224.757C198.762 224.757 199.453 224.988 199.993 225.45C200.532 225.911 200.878 226.571 201.029 227.428H194.616ZM213.197 236.661C215.216 236.661 216.866 236.237 218.148 235.39C219.43 234.542 220.071 233.311 220.071 231.697C220.071 229.295 218.547 227.812 215.498 227.247L212.743 226.793C211.733 226.611 211.229 226.227 211.229 225.642C211.229 225.339 211.385 225.087 211.698 224.885C212.011 224.684 212.47 224.583 213.076 224.583C213.782 224.583 214.363 224.719 214.817 224.991C215.271 225.264 215.519 225.672 215.559 226.217H219.92C219.819 224.441 219.102 223.15 217.77 222.343C216.437 221.535 214.862 221.132 213.046 221.132C211.067 221.132 209.482 221.566 208.291 222.433C207.1 223.301 206.505 224.502 206.505 226.036C206.505 227.287 206.888 228.281 207.655 229.017C208.422 229.754 209.472 230.233 210.805 230.455L213.772 230.97C214.237 231.051 214.59 231.182 214.832 231.364C215.074 231.545 215.196 231.757 215.196 231.999C215.196 232.322 215.009 232.574 214.635 232.756C214.262 232.938 213.752 233.028 213.106 233.028C212.319 233.028 211.678 232.877 211.183 232.574C210.689 232.272 210.391 231.808 210.29 231.182L205.929 231.152C206.071 233.008 206.802 234.391 208.125 235.299C209.447 236.207 211.138 236.661 213.197 236.661ZM228.083 236.661C230.102 236.661 231.752 236.237 233.034 235.39C234.316 234.542 234.957 233.311 234.957 231.697C234.957 229.295 233.433 227.812 230.385 227.247L227.629 226.793C226.62 226.611 226.115 226.227 226.115 225.642C226.115 225.339 226.271 225.087 226.584 224.885C226.897 224.684 227.356 224.583 227.962 224.583C228.669 224.583 229.249 224.719 229.703 224.991C230.158 225.264 230.405 225.672 230.445 226.217L234.806 226.217C234.705 224.441 233.988 223.15 232.656 222.343C231.323 221.535 229.749 221.132 227.932 221.132C225.953 221.132 224.369 221.566 223.178 222.433C221.986 223.301 221.391 224.502 221.391 226.036C221.391 227.287 221.774 228.281 222.542 229.017C223.309 229.754 224.359 230.233 225.691 230.455L228.659 230.97C229.123 231.051 229.476 231.182 229.718 231.364C229.961 231.545 230.082 231.757 230.082 231.999C230.082 232.322 229.895 232.574 229.522 232.756C229.148 232.938 228.638 233.028 227.992 233.028C227.205 233.028 226.564 232.877 226.069 232.574C225.575 232.272 225.277 231.808 225.176 231.182L220.816 231.152C220.957 233.008 221.689 234.391 223.011 235.299C224.333 236.207 226.024 236.661 228.083 236.661Z" fill="#1F1F1F"/>
<path d="M156.455 217H140.783V219.351H156.455V217Z" fill="#142744"/>
<path d="M239.179 236.717V229.218C239.179 228.329 239.313 227.51 239.582 226.76C239.85 226.01 240.225 225.372 240.706 224.844C241.188 224.316 241.753 223.904 242.401 223.608C243.049 223.312 243.752 223.164 244.511 223.164C245.159 223.164 245.784 223.275 246.386 223.497C246.988 223.719 247.52 224.052 247.983 224.497C248.446 224.941 248.812 225.492 249.08 226.149C249.349 226.807 249.483 227.58 249.483 228.468V236.717H251.01V227.913C251.01 226.932 250.839 226.061 250.497 225.302C250.154 224.543 249.691 223.9 249.108 223.372C248.525 222.844 247.853 222.441 247.094 222.164C246.335 221.886 245.548 221.747 244.734 221.747C244.049 221.747 243.414 221.84 242.831 222.025C242.248 222.21 241.72 222.46 241.248 222.775C240.776 223.09 240.369 223.446 240.026 223.844C239.683 224.242 239.401 224.663 239.179 225.108V221.997H237.651V236.717H239.179ZM260.825 236.939C261.547 236.939 262.25 236.837 262.935 236.634C263.62 236.43 264.255 236.148 264.838 235.787C265.421 235.426 265.953 234.995 266.435 234.495C266.916 233.995 267.305 233.44 267.601 232.829L266.129 232.579C265.592 233.468 264.852 234.18 263.907 234.717C262.963 235.254 261.936 235.523 260.825 235.523C260.028 235.523 259.279 235.384 258.575 235.106C257.871 234.828 257.251 234.44 256.714 233.94C256.177 233.44 255.742 232.843 255.409 232.148C255.075 231.454 254.881 230.69 254.826 229.857H268.212C268.249 229.672 268.263 229.464 268.254 229.232C268.245 229.001 268.222 228.755 268.185 228.496C268.073 227.57 267.814 226.695 267.407 225.872C267 225.048 266.472 224.33 265.824 223.719C265.176 223.108 264.426 222.627 263.574 222.275C262.722 221.923 261.806 221.747 260.825 221.747C259.769 221.747 258.788 221.946 257.881 222.344C256.973 222.742 256.177 223.284 255.492 223.969C254.807 224.654 254.27 225.455 253.881 226.371C253.492 227.288 253.298 228.274 253.298 229.329C253.298 230.385 253.492 231.371 253.881 232.287C254.27 233.204 254.802 234.009 255.478 234.703C256.154 235.398 256.95 235.944 257.867 236.342C258.783 236.74 259.769 236.939 260.825 236.939ZM266.685 228.607H254.826C254.9 227.848 255.099 227.135 255.423 226.469C255.747 225.802 256.173 225.223 256.7 224.733C257.228 224.242 257.844 223.853 258.547 223.566C259.251 223.279 260.001 223.136 260.797 223.136C261.593 223.136 262.334 223.279 263.019 223.566C263.704 223.853 264.306 224.242 264.824 224.733C265.342 225.223 265.764 225.802 266.088 226.469C266.412 227.135 266.611 227.848 266.685 228.607ZM274.249 236.356C275.342 237.097 276.971 237.198 279.137 236.662V235.19C277.453 235.652 276.198 235.657 275.374 235.203C274.55 234.75 274.138 233.773 274.138 232.273V223.358H279.193V221.997H274.138V217.637H272.638V221.997H269.306V223.358H272.638L272.611 232.301C272.611 234.264 273.157 235.615 274.249 236.356ZM287.424 236.717L291.062 222.719L294.673 236.717H297.2L301.561 221.997H299.978L295.951 235.967L292.34 221.997H289.785L286.147 235.967L282.119 221.997H280.536L284.897 236.717H287.424ZM309.986 236.939C311.042 236.939 312.023 236.74 312.93 236.342C313.838 235.944 314.634 235.398 315.319 234.703C316.004 234.009 316.541 233.199 316.93 232.273C317.319 231.348 317.513 230.366 317.513 229.329C317.513 228.292 317.319 227.316 316.93 226.399C316.541 225.483 316.009 224.682 315.333 223.997C314.657 223.312 313.861 222.766 312.944 222.358C312.028 221.951 311.042 221.747 309.986 221.747C308.931 221.747 307.945 221.946 307.028 222.344C306.112 222.742 305.316 223.284 304.64 223.969C303.964 224.654 303.432 225.46 303.043 226.385C302.654 227.311 302.46 228.292 302.46 229.329C302.46 230.385 302.654 231.371 303.043 232.287C303.432 233.204 303.964 234.009 304.64 234.703C305.316 235.398 306.112 235.944 307.028 236.342C307.945 236.74 308.931 236.939 309.986 236.939ZM309.986 235.495C309.153 235.495 308.371 235.338 307.64 235.023C306.908 234.708 306.265 234.273 305.709 233.718C305.154 233.162 304.719 232.509 304.404 231.759C304.089 231.01 303.932 230.2 303.932 229.329C303.932 228.478 304.089 227.677 304.404 226.927C304.719 226.177 305.149 225.524 305.695 224.969C306.242 224.413 306.88 223.974 307.612 223.65C308.343 223.326 309.135 223.164 309.986 223.164C310.82 223.164 311.606 223.326 312.347 223.65C313.088 223.974 313.731 224.413 314.277 224.969C314.824 225.524 315.254 226.177 315.569 226.927C315.884 227.677 316.041 228.478 316.041 229.329C316.041 230.181 315.884 230.982 315.569 231.732C315.254 232.482 314.824 233.134 314.277 233.69C313.731 234.245 313.092 234.685 312.361 235.009C311.63 235.333 310.838 235.495 309.986 235.495ZM321.328 236.717V229.357C321.328 228.265 321.49 227.316 321.814 226.51C322.138 225.705 322.587 225.048 323.161 224.538C323.735 224.029 324.411 223.687 325.189 223.511C325.966 223.335 326.809 223.349 327.716 223.552V221.942C326.124 221.682 324.777 221.863 323.675 222.483C322.573 223.103 321.791 224.052 321.328 225.33V221.997H319.801V236.717H321.328ZM331.392 236.717V233.301L334.864 229.69L340.585 236.717H342.446L335.808 228.663L342.113 221.997H340.252L331.392 231.385V217.276H329.865V236.717H331.392Z" fill="black"/>
<rect x="131" y="93" width="99" height="99" rx="14" fill="#182742"/>
<defs>
<filter id="filter0_f" x="-15" y="0" width="576" height="679" filterUnits="userSpaceOnUse" color-interpolation-filters="sRGB">
<feFlood flood-opacity="0" result="BackgroundImageFix"/>
<feBlend mode="normal" in="SourceGraphic" in2="BackgroundImageFix" result="shape"/>
<feGaussianBlur stdDeviation="75" result="effect1_foregroundBlur"/>
</filter>
</defs>
</svg>
