<svg width="549" height="543" fill="none" xmlns="http://www.w3.org/2000/svg">
    <g opacity=".2" filter="url(#a)">
        <rect x="150" y="150.872" width="249" height="242.129" rx="14.4" fill="#0F0941"/>
    </g>
    <rect x="100" y="133" width="348" height="260" rx="30" fill="#FEFEFE"/>
    <path d="M141.992 251.88v-3.648h7.032v-3.12h-7.032v-3.552h7.824v-3.12H138.68V255h11.256v-3.12h-7.944zm16.039 3.408c2.472 0 4.536-1.2 5.64-3.048l-2.712-1.632c-.552.984-1.632 1.656-2.928 1.656-1.92 0-3.36-1.464-3.36-3.384s1.44-3.384 3.36-3.384c1.296 0 2.376.672 2.928 1.656l2.712-1.632c-1.104-1.848-3.168-3.048-5.64-3.048-3.744 0-6.576 2.76-6.576 6.408 0 3.648 2.832 6.408 6.576 6.408zm13.219 0c3.744 0 6.576-2.76 6.576-6.408 0-3.648-2.832-6.408-6.576-6.408-3.744 0-6.576 2.76-6.576 6.408 0 3.648 2.832 6.408 6.576 6.408zm0-3.024c-1.92 0-3.36-1.464-3.36-3.384s1.44-3.384 3.36-3.384c1.944 0 3.36 1.464 3.36 3.384s-1.416 3.384-3.36 3.384zm13.04 3.024c2.928 0 5.232-1.416 5.232-4.008 0-2.784-2.52-3.384-4.464-3.816-1.368-.288-2.4-.552-2.4-1.368 0-.72.864-1.056 1.92-1.056 1.248 0 2.28.456 3.168 1.128l1.512-2.088c-1.104-.864-2.664-1.608-4.752-1.608-2.712 0-4.992 1.272-4.992 3.864 0 2.784 2.52 3.384 4.464 3.816 1.344.312 2.4.6 2.4 1.416 0 .744-.912 1.152-2.16 1.152-1.464 0-2.64-.552-3.576-1.368l-1.512 2.064c1.176 1.008 2.88 1.872 5.16 1.872zm15.57-12.528-3.168 8.328-3.192-8.328h-3.552l4.992 12.048-.504 1.056c-.312.696-.816.96-1.392.96-.528 0-1.104-.24-1.488-.648l-1.2 2.448c.816.744 2.112 1.224 3.216 1.224 1.608 0 3.048-1.032 3.72-2.712l6.048-14.376h-3.48zm9.016 12.528c2.928 0 5.232-1.416 5.232-4.008 0-2.784-2.52-3.384-4.464-3.816-1.368-.288-2.4-.552-2.4-1.368 0-.72.864-1.056 1.92-1.056 1.248 0 2.28.456 3.168 1.128l1.512-2.088c-1.104-.864-2.664-1.608-4.752-1.608-2.712 0-4.992 1.272-4.992 3.864 0 2.784 2.52 3.384 4.464 3.816 1.344.312 2.4.6 2.4 1.416 0 .744-.912 1.152-2.16 1.152-1.464 0-2.64-.552-3.576-1.368l-1.512 2.064c1.176 1.008 2.88 1.872 5.16 1.872zm14.632-9.672v-2.856h-3.288v-3.096h-3.12v3.096h-1.944v2.856h1.944v5.592c0 2.448 1.32 4.08 4.128 4.08.912 0 1.608-.168 2.28-.528v-2.904c-.456.216-.984.408-1.608.408-1.104 0-1.68-.528-1.68-1.56v-5.088h3.288zm14.149 3.288c0-3.696-2.76-6.432-6.432-6.432-3.696 0-6.504 2.736-6.504 6.36 0 3.672 2.904 6.456 6.792 6.456 2.304 0 4.272-.936 5.544-2.448l-2.088-1.824c-.648.816-1.872 1.512-3.36 1.512-1.776 0-3.072-.984-3.504-2.52h9.48c.048-.336.072-.768.072-1.104zm-6.456-3.696c1.512 0 2.736.984 3.12 2.52h-6.24c.384-1.512 1.584-2.52 3.12-2.52zm23.391-2.736c-1.776 0-3.192.696-4.176 1.992-.768-1.248-2.112-1.992-3.84-1.992-1.488 0-2.712.528-3.624 1.56v-1.272h-3.12V255h3.12v-6.984c0-1.512 1.056-2.52 2.568-2.52 1.464 0 2.424.984 2.424 2.472V255h3.12v-6.984c0-1.512 1.032-2.52 2.568-2.52 1.464 0 2.4.984 2.4 2.472V255h3.12v-7.968c0-2.76-1.8-4.56-4.56-4.56zm21.933-4.032-5.688 9.84-5.664-9.84h-2.784V255h2.208v-13.224l5.616 9.744h1.224l5.616-9.744V255h2.184v-16.56h-2.712zm16.543 4.32v2.208c-1.032-1.536-2.712-2.496-4.752-2.496-3.504 0-6.12 2.76-6.12 6.408 0 3.648 2.616 6.408 6.12 6.408 2.04 0 3.72-.96 4.752-2.496V255h2.064v-12.24h-2.064zm-4.368 10.536c-2.52 0-4.392-1.896-4.392-4.416 0-2.52 1.872-4.416 4.392-4.416 2.496 0 4.368 1.896 4.368 4.416 0 2.52-1.872 4.416-4.368 4.416zm16.759-10.824c-2.04 0-3.72.96-4.752 2.496v-2.208h-2.064v16.8h2.064v-6.768c1.032 1.536 2.712 2.496 4.752 2.496 3.504 0 6.144-2.76 6.144-6.408 0-3.648-2.64-6.408-6.144-6.408zm-.384 10.824c-2.496 0-4.368-1.896-4.368-4.416 0-2.52 1.872-4.416 4.368-4.416 2.52 0 4.392 1.896 4.392 4.416 0 2.52-1.872 4.416-4.392 4.416zM147.456 296h1.616l-4.496-11.04h-1.744L138.336 296h1.568l1.072-2.672h5.408l1.072 2.672zm-5.936-4.032 2.16-5.424 2.16 5.424h-4.32zm13.374-4.32c-1.28 0-2.304.512-2.944 1.44v-1.248h-1.376V296h1.376v-4.576c0-1.472.992-2.448 2.496-2.448 1.456 0 2.384.96 2.384 2.416V296h1.376v-5.04c0-2-1.328-3.312-3.312-3.312zm10.181-1.44c.512 0 .912-.4.912-.912 0-.528-.4-.912-.912-.912-.528 0-.928.384-.928.912 0 .512.4.912.928.912zm-.688 9.792h1.376v-8.16h-1.376V296zm8.023-8.352c-1.28 0-2.304.512-2.944 1.44v-1.248h-1.376V296h1.376v-4.576c0-1.472.992-2.448 2.496-2.448 1.456 0 2.384.96 2.384 2.416V296h1.376v-5.04c0-2-1.328-3.312-3.312-3.312zm9.79 1.44v-1.248h-2.448v-2.192h-1.376v2.192h-1.472v1.248h1.472v4.736c0 1.504.816 2.368 2.4 2.368.576 0 1.008-.112 1.424-.336v-1.296c-.336.176-.688.304-1.136.304-.832 0-1.312-.384-1.312-1.264v-4.512h2.448zm9.468 2.832c0-2.448-1.824-4.272-4.256-4.272-2.448 0-4.288 1.824-4.288 4.24 0 2.448 1.904 4.304 4.464 4.304 1.584 0 2.928-.688 3.744-1.776l-.944-.816c-.528.752-1.552 1.328-2.752 1.328-1.584 0-2.752-.976-3.024-2.4h7.024c.016-.192.032-.416.032-.608zm-4.272-3.008c1.44 0 2.56.96 2.816 2.368h-5.616c.256-1.392 1.376-2.368 2.8-2.368zm10.198-1.2c-1.216 0-2.176.56-2.784 1.536v-1.408h-1.376V296h1.376v-4.08c0-1.696 1.056-2.784 2.784-2.784h.272v-1.424h-.272zm8.139.128v1.472c-.688-1.024-1.808-1.664-3.168-1.664-2.336 0-4.08 1.84-4.08 4.272 0 2.432 1.744 4.272 4.08 4.272 1.36 0 2.48-.64 3.168-1.664V296h1.376v-8.16h-1.376zm-2.912 7.024c-1.68 0-2.928-1.264-2.928-2.944s1.248-2.944 2.928-2.944c1.664 0 2.912 1.264 2.912 2.944s-1.248 2.944-2.912 2.944zm10.452 1.328c1.616 0 2.992-.8 3.728-2.048l-1.2-.72a2.878 2.878 0 0 1-2.528 1.44c-1.68 0-2.928-1.264-2.928-2.944s1.248-2.944 2.928-2.944c1.104 0 2.032.576 2.528 1.44l1.2-.72c-.736-1.248-2.112-2.048-3.728-2.048-2.48 0-4.352 1.84-4.352 4.272 0 2.432 1.872 4.272 4.352 4.272zm10.005-7.104v-1.248h-2.448v-2.192h-1.376v2.192h-1.472v1.248h1.472v4.736c0 1.504.816 2.368 2.4 2.368.576 0 1.008-.112 1.424-.336v-1.296c-.336.176-.688.304-1.136.304-.832 0-1.312-.384-1.312-1.264v-4.512h2.448zm2.453-2.88c.512 0 .912-.4.912-.912 0-.528-.4-.912-.912-.912-.528 0-.928.384-.928.912 0 .512.4.912.928.912zm-.688 9.792h1.376v-8.16h-1.376V296zm9.847-8.16-2.752 6.512-2.752-6.512h-1.584l3.584 8.16h1.456l3.584-8.16h-1.536zm10.482 4.08c0-2.448-1.824-4.272-4.256-4.272-2.448 0-4.288 1.824-4.288 4.24 0 2.448 1.904 4.304 4.464 4.304 1.584 0 2.928-.688 3.744-1.776l-.944-.816c-.528.752-1.552 1.328-2.752 1.328-1.584 0-2.752-.976-3.024-2.4h7.024c.016-.192.032-.416.032-.608zm-4.272-3.008c1.44 0 2.56.96 2.816 2.368h-5.617c.257-1.392 1.377-2.368 2.801-2.368zm19.734-1.264c-1.312 0-2.352.576-2.96 1.6-.48-1.008-1.456-1.6-2.736-1.6-1.152 0-2.08.464-2.672 1.296v-1.104h-1.376V296h1.376v-4.848c0-1.312.896-2.176 2.224-2.176 1.296 0 2.128.848 2.128 2.144V296h1.376v-4.848c0-1.312.896-2.176 2.224-2.176 1.296 0 2.128.848 2.128 2.144V296h1.376v-5.264c0-1.872-1.216-3.088-3.088-3.088zm12.055.192v1.472c-.688-1.024-1.808-1.664-3.168-1.664-2.336 0-4.08 1.84-4.08 4.272 0 2.432 1.744 4.272 4.08 4.272 1.36 0 2.48-.64 3.168-1.664V296h1.376v-8.16h-1.376zm-2.912 7.024c-1.68 0-2.928-1.264-2.928-2.944s1.248-2.944 2.928-2.944c1.664 0 2.912 1.264 2.912 2.944s-1.248 2.944-2.912 2.944zm11.173-7.216c-1.36 0-2.48.64-3.168 1.664v-1.472h-1.376v11.2h1.376v-4.512c.688 1.024 1.808 1.664 3.168 1.664 2.336 0 4.096-1.84 4.096-4.272 0-2.432-1.76-4.272-4.096-4.272zm-.256 7.216c-1.664 0-2.912-1.264-2.912-2.944s1.248-2.944 2.912-2.944c1.68 0 2.928 1.264 2.928 2.944s-1.248 2.944-2.928 2.944zm16.885-7.024v1.472c-.688-1.024-1.808-1.664-3.168-1.664-2.336 0-4.08 1.84-4.08 4.272 0 2.432 1.744 4.272 4.08 4.272 1.36 0 2.48-.64 3.168-1.664V296h1.376v-8.16h-1.376zm-2.912 7.024c-1.68 0-2.928-1.264-2.928-2.944s1.248-2.944 2.928-2.944c1.664 0 2.912 1.264 2.912 2.944s-1.248 2.944-2.912 2.944zm6.629 1.136h1.376v-11.52h-1.376V296zm3.703 0h1.376v-11.52h-1.376V296zm7.527.192c2.464 0 4.336-1.84 4.336-4.272 0-2.432-1.872-4.272-4.336-4.272-2.48 0-4.352 1.84-4.352 4.272 0 2.432 1.872 4.272 4.352 4.272zm0-1.328c-1.68 0-2.928-1.264-2.928-2.944s1.248-2.944 2.928-2.944c1.664 0 2.912 1.264 2.912 2.944s-1.248 2.944-2.912 2.944zm16.652-7.024-2.208 6.496-2.256-6.496h-1.408l-2.24 6.48-2.208-6.48h-1.552l2.992 8.16h1.44l2.256-6.528L326.45 296h1.44l2.992-8.16h-1.504zm3.634-1.632c.512 0 .912-.4.912-.912 0-.528-.4-.912-.912-.912-.528 0-.928.384-.928.912 0 .512.4.912.928.912zm-.688 9.792h1.376v-8.16h-1.376V296zm8.023-8.352c-1.28 0-2.304.512-2.944 1.44v-1.248h-1.376V296h1.376v-4.576c0-1.472.992-2.448 2.496-2.448 1.456 0 2.384.96 2.384 2.416V296h1.376v-5.04c0-2-1.328-3.312-3.312-3.312zm10.676 8.56h-2.992c-.688 0-1.152-.368-1.152-.944 0-.352.192-.704.512-.912.512.256 1.088.384 1.728.384 2.112 0 3.728-1.536 3.728-3.552 0-.864-.288-1.632-.8-2.24.016-.544.416-.896 1.008-.896h.544v-1.28h-.624c-.992 0-1.696.544-1.856 1.408a3.923 3.923 0 0 0-2-.528c-2.128 0-3.728 1.52-3.728 3.536a3.51 3.51 0 0 0 1.12 2.592c-.624.352-1.008 1.072-1.008 1.84 0 1.152.912 1.936 2.272 1.936h3.008c.928 0 1.568.48 1.6 1.216l1.424-.368c-.16-1.36-1.248-2.192-2.784-2.192zm-1.904-7.248c1.312 0 2.304.96 2.304 2.224 0 1.28-.992 2.24-2.304 2.24-1.312 0-2.304-.96-2.304-2.24 0-1.264.976-2.224 2.304-2.224zm13.273 7.232c2.224 0 3.696-1.36 3.696-3.424v-4.928h-1.376v4.736c0 1.376-.928 2.288-2.32 2.288s-2.32-.912-2.32-2.288v-4.736h-1.376v4.928c0 2.064 1.472 3.424 3.696 3.424zm8.573 0c1.84 0 3.296-.912 3.296-2.528 0-1.696-1.568-2.096-2.912-2.416-1.088-.256-2.016-.48-2.016-1.28 0-.704.784-1.072 1.728-1.072.896 0 1.664.352 2.208.88l.768-1.008c-.688-.624-1.696-1.12-2.992-1.12-1.68 0-3.12.816-3.12 2.4 0 1.712 1.584 2.128 2.928 2.464 1.072.256 1.984.496 1.984 1.28 0 .736-.816 1.152-1.888 1.152-1.056 0-1.92-.4-2.528-1.024l-.768.992c.752.72 1.872 1.28 3.312 1.28zm13.047-4.272c0-2.448-1.824-4.272-4.256-4.272-2.448 0-4.288 1.824-4.288 4.24 0 2.448 1.904 4.304 4.464 4.304 1.584 0 2.928-.688 3.744-1.776l-.944-.816c-.528.752-1.552 1.328-2.752 1.328-1.584 0-2.752-.976-3.024-2.4h7.024c.016-.192.032-.416.032-.608zm-4.272-3.008c1.44 0 2.56.96 2.816 2.368h-5.616c.256-1.392 1.376-2.368 2.8-2.368zm10.197-1.2c-1.216 0-2.176.56-2.784 1.536v-1.408h-1.376V296h1.376v-4.08c0-1.696 1.056-2.784 2.784-2.784h.272v-1.424h-.272zm4.356 8.48c1.84 0 3.296-.912 3.296-2.528 0-1.696-1.568-2.096-2.912-2.416-1.088-.256-2.016-.48-2.016-1.28 0-.704.784-1.072 1.728-1.072.896 0 1.664.352 2.208.88l.768-1.008c-.688-.624-1.696-1.12-2.992-1.12-1.68 0-3.12.816-3.12 2.4 0 1.712 1.584 2.128 2.928 2.464 1.072.256 1.984.496 1.984 1.28 0 .736-.816 1.152-1.888 1.152-1.056 0-1.92-.4-2.528-1.024l-.768.992c.752.72 1.872 1.28 3.312 1.28zm-250.421 13.896v-1.248h-2.448v-2.192h-1.376v2.192h-1.472v1.248h1.472v4.736c0 1.504.816 2.368 2.4 2.368.576 0 1.008-.112 1.424-.336v-1.296c-.336.176-.688.304-1.136.304-.832 0-1.312-.384-1.312-1.264v-4.512h2.448zm5.276 7.104c2.464 0 4.336-1.84 4.336-4.272 0-2.432-1.872-4.272-4.336-4.272-2.48 0-4.352 1.84-4.352 4.272 0 2.432 1.872 4.272 4.352 4.272zm0-1.328c-1.68 0-2.928-1.264-2.928-2.944s1.248-2.944 2.928-2.944c1.664 0 2.912 1.264 2.912 2.944s-1.248 2.944-2.912 2.944zm16.242-7.024-2.752 6.512-2.752-6.512h-1.584l3.584 8.16h1.456l3.584-8.16h-1.536zm3.622-1.632c.512 0 .912-.4.912-.912 0-.528-.4-.912-.912-.912-.528 0-.928.384-.928.912 0 .512.4.912.928.912zm-.688 9.792h1.376v-8.16h-1.376V317zm7.863-8.288c-1.216 0-2.176.56-2.784 1.536v-1.408h-1.376V317h1.376v-4.08c0-1.696 1.056-2.784 2.784-2.784h.272v-1.424h-.272zm6.56 1.376v-1.248h-2.448v-2.192h-1.376v2.192h-1.472v1.248h1.472v4.736c0 1.504.816 2.368 2.4 2.368.576 0 1.008-.112 1.424-.336v-1.296c-.336.176-.688.304-1.136.304-.832 0-1.312-.384-1.312-1.264v-4.512h2.448zm5.333 7.104c2.224 0 3.696-1.36 3.696-3.424v-4.928H190.4v4.736c0 1.376-.928 2.288-2.32 2.288s-2.32-.912-2.32-2.288v-4.736h-1.376v4.928c0 2.064 1.472 3.424 3.696 3.424zm12.653-8.352v1.472c-.688-1.024-1.808-1.664-3.168-1.664-2.336 0-4.08 1.84-4.08 4.272 0 2.432 1.744 4.272 4.08 4.272 1.36 0 2.48-.64 3.168-1.664V317h1.376v-8.16h-1.376zm-2.912 7.024c-1.68 0-2.928-1.264-2.928-2.944s1.248-2.944 2.928-2.944c1.664 0 2.912 1.264 2.912 2.944s-1.248 2.944-2.912 2.944zm6.628 1.136h1.376v-11.52h-1.376V317zm3.703 0h1.376v-11.52h-1.376V317zm9.848-8.16-2.752 6.512-2.752-6.512h-1.584l3.552 8.112-.592 1.216c-.256.528-.624.736-1.04.736-.416 0-.816-.208-1.089-.512l-.575 1.056c.48.48 1.232.784 1.871.784.881 0 1.681-.544 2.097-1.504l4.4-9.888H218zm11.207-.192c-1.28 0-2.304.512-2.944 1.44v-1.248h-1.376V317h1.376v-4.576c0-1.472.992-2.448 2.496-2.448 1.456 0 2.384.96 2.384 2.416V317h1.376v-5.04c0-2-1.328-3.312-3.312-3.312zm12.291.192v1.472c-.688-1.024-1.808-1.664-3.168-1.664-2.336 0-4.08 1.84-4.08 4.272 0 2.432 1.744 4.272 4.08 4.272 1.36 0 2.48-.64 3.168-1.664V317h1.376v-8.16h-1.376zm-2.912 7.024c-1.68 0-2.928-1.264-2.928-2.944s1.248-2.944 2.928-2.944c1.664 0 2.912 1.264 2.912 2.944s-1.248 2.944-2.912 2.944zm12.773-7.024-2.752 6.512-2.752-6.512h-1.584l3.584 8.16h1.456l3.584-8.16h-1.536zm3.622-1.632c.512 0 .912-.4.912-.912 0-.528-.4-.912-.912-.912-.528 0-.928.384-.928.912 0 .512.4.912.928.912zm-.688 9.792h1.376v-8.16h-1.376V317zm8.839.208h-2.992c-.688 0-1.152-.368-1.152-.944 0-.352.192-.704.512-.912.512.256 1.088.384 1.728.384 2.112 0 3.728-1.536 3.728-3.552 0-.864-.288-1.632-.8-2.24.016-.544.416-.896 1.008-.896h.544v-1.28h-.624c-.992 0-1.696.544-1.856 1.408a3.923 3.923 0 0 0-2-.528c-2.128 0-3.728 1.52-3.728 3.536a3.51 3.51 0 0 0 1.12 2.592c-.624.352-1.008 1.072-1.008 1.84 0 1.152.912 1.936 2.272 1.936h3.008c.928 0 1.568.48 1.6 1.216l1.424-.368c-.16-1.36-1.248-2.192-2.784-2.192zm-1.904-7.248c1.312 0 2.304.96 2.304 2.224 0 1.28-.992 2.24-2.304 2.24-1.312 0-2.304-.96-2.304-2.24 0-1.264.976-2.224 2.304-2.224zm12.426-1.12v1.472c-.688-1.024-1.808-1.664-3.168-1.664-2.336 0-4.08 1.84-4.08 4.272 0 2.432 1.744 4.272 4.08 4.272 1.36 0 2.48-.64 3.168-1.664V317h1.376v-8.16h-1.376zm-2.912 7.024c-1.68 0-2.928-1.264-2.928-2.944s1.248-2.944 2.928-2.944c1.664 0 2.912 1.264 2.912 2.944s-1.248 2.944-2.912 2.944zm11.333-5.776v-1.248h-2.448v-2.192h-1.376v2.192h-1.472v1.248h1.472v4.736c0 1.504.816 2.368 2.4 2.368.576 0 1.008-.112 1.424-.336v-1.296c-.336.176-.688.304-1.136.304-.832 0-1.312-.384-1.312-1.264v-4.512h2.448zm9.468 2.832c0-2.448-1.824-4.272-4.256-4.272-2.448 0-4.288 1.824-4.288 4.24 0 2.448 1.904 4.304 4.464 4.304 1.584 0 2.928-.688 3.744-1.776l-.944-.816c-.528.752-1.552 1.328-2.752 1.328-1.584 0-2.752-.976-3.024-2.4h7.024c.016-.192.032-.416.032-.608zm-4.272-3.008c1.44 0 2.56.96 2.816 2.368h-5.616c.256-1.392 1.376-2.368 2.8-2.368zm14.695.176v-1.248h-2.448v-2.192h-1.376v2.192h-1.472v1.248h1.472v4.736c0 1.504.816 2.368 2.4 2.368.576 0 1.008-.112 1.424-.336v-1.296c-.336.176-.688.304-1.136.304-.832 0-1.312-.384-1.312-1.264v-4.512h2.448zm6.085-1.44c-1.28 0-2.304.528-2.944 1.488v-4.656h-1.376V317h1.376v-4.576c0-1.472.992-2.448 2.496-2.448 1.456 0 2.384.96 2.384 2.416V317h1.376v-5.04c0-2-1.328-3.312-3.312-3.312zm13.555 4.272c0-2.448-1.824-4.272-4.256-4.272-2.448 0-4.288 1.824-4.288 4.24 0 2.448 1.904 4.304 4.464 4.304 1.584 0 2.928-.688 3.744-1.776l-.944-.816c-.528.752-1.552 1.328-2.752 1.328-1.584 0-2.752-.976-3.024-2.4h7.024c.016-.192.032-.416.032-.608zm-4.272-3.008c1.44 0 2.56.96 2.816 2.368h-5.616c.256-1.392 1.376-2.368 2.8-2.368zm12.662 7.28c1.84 0 3.296-.912 3.296-2.528 0-1.696-1.568-2.096-2.912-2.416-1.088-.256-2.016-.48-2.016-1.28 0-.704.784-1.072 1.728-1.072.896 0 1.664.352 2.208.88l.768-1.008c-.688-.624-1.696-1.12-2.992-1.12-1.68 0-3.12.816-3.12 2.4 0 1.712 1.584 2.128 2.928 2.464 1.072.256 1.984.496 1.984 1.28 0 .736-.816 1.152-1.888 1.152-1.056 0-1.92-.4-2.528-1.024l-.768.992c.752.72 1.872 1.28 3.312 1.28zm9.501-7.104v-1.248h-2.448v-2.192h-1.376v2.192h-1.472v1.248h1.472v4.736c0 1.504.816 2.368 2.4 2.368.576 0 1.008-.112 1.424-.336v-1.296c-.336.176-.688.304-1.136.304-.832 0-1.312-.384-1.312-1.264v-4.512h2.448zm8.204-1.248v1.472c-.688-1.024-1.808-1.664-3.168-1.664-2.336 0-4.08 1.84-4.08 4.272 0 2.432 1.744 4.272 4.08 4.272 1.36 0 2.48-.64 3.168-1.664V317h1.376v-8.16h-1.376zm-2.912 7.024c-1.68 0-2.928-1.264-2.928-2.944s1.248-2.944 2.928-2.944c1.664 0 2.912 1.264 2.912 2.944s-1.248 2.944-2.912 2.944zm10.789-7.152c-1.216 0-2.176.56-2.784 1.536v-1.408h-1.376V317h1.376v-4.08c0-1.696 1.056-2.784 2.784-2.784h.272v-1.424h-.272zm6.56 1.376v-1.248h-2.448v-2.192h-1.376v2.192h-1.472v1.248h1.472v4.736c0 1.504.816 2.368 2.4 2.368.576 0 1.008-.112 1.424-.336v-1.296c-.336.176-.688.304-1.136.304-.832 0-1.312-.384-1.312-1.264v-4.512h2.448zm5.332 7.104c2.224 0 3.696-1.36 3.696-3.424v-4.928h-1.376v4.736c0 1.376-.928 2.288-2.32 2.288s-2.32-.912-2.32-2.288v-4.736h-1.376v4.928c0 2.064 1.472 3.424 3.696 3.424zm10.445-8.544c-1.36 0-2.48.64-3.168 1.664v-1.472h-1.376v11.2h1.376v-4.512c.688 1.024 1.808 1.664 3.168 1.664 2.336 0 4.096-1.84 4.096-4.272 0-2.432-1.76-4.272-4.096-4.272zm-.256 7.216c-1.664 0-2.912-1.264-2.912-2.944s1.248-2.944 2.912-2.944c1.68 0 2.928 1.264 2.928 2.944s-1.248 2.944-2.928 2.944zM147.184 333.92c0-2.448-1.824-4.272-4.256-4.272-2.448 0-4.288 1.824-4.288 4.24 0 2.448 1.904 4.304 4.464 4.304 1.584 0 2.928-.688 3.744-1.776l-.944-.816c-.528.752-1.552 1.328-2.752 1.328-1.584 0-2.752-.976-3.024-2.4h7.024c.016-.192.032-.416.032-.608zm-4.272-3.008c1.44 0 2.56.96 2.816 2.368h-5.616c.256-1.392 1.376-2.368 2.8-2.368zm9.861 7.28c1.616 0 2.992-.8 3.728-2.048l-1.2-.72a2.878 2.878 0 0 1-2.528 1.44c-1.68 0-2.928-1.264-2.928-2.944s1.248-2.944 2.928-2.944c1.104 0 2.032.576 2.528 1.44l1.2-.72c-.736-1.248-2.112-2.048-3.728-2.048-2.48 0-4.352 1.84-4.352 4.272 0 2.432 1.872 4.272 4.352 4.272zm9.141 0c2.464 0 4.336-1.84 4.336-4.272 0-2.432-1.872-4.272-4.336-4.272-2.48 0-4.352 1.84-4.352 4.272 0 2.432 1.872 4.272 4.352 4.272zm0-1.328c-1.68 0-2.928-1.264-2.928-2.944s1.248-2.944 2.928-2.944c1.664 0 2.912 1.264 2.912 2.944s-1.248 2.944-2.912 2.944zm8.817 1.328c1.84 0 3.296-.912 3.296-2.528 0-1.696-1.568-2.096-2.912-2.416-1.088-.256-2.016-.48-2.016-1.28 0-.704.784-1.072 1.728-1.072.896 0 1.664.352 2.208.88l.768-1.008c-.688-.624-1.696-1.12-2.992-1.12-1.68 0-3.12.816-3.12 2.4 0 1.712 1.584 2.128 2.928 2.464 1.072.256 1.984.496 1.984 1.28 0 .736-.816 1.152-1.888 1.152-1.056 0-1.92-.4-2.528-1.024l-.768.992c.752.72 1.872 1.28 3.312 1.28zm10.956-8.352-2.752 6.512-2.752-6.512h-1.584l3.552 8.112-.592 1.216c-.256.528-.624.736-1.04.736-.416 0-.816-.208-1.088-.512l-.576 1.056c.48.48 1.232.784 1.872.784.88 0 1.68-.544 2.096-1.504l4.4-9.888h-1.536zm5.387 8.352c1.84 0 3.296-.912 3.296-2.528 0-1.696-1.568-2.096-2.912-2.416-1.088-.256-2.016-.48-2.016-1.28 0-.704.784-1.072 1.728-1.072.896 0 1.664.352 2.208.88l.768-1.008c-.688-.624-1.696-1.12-2.992-1.12-1.68 0-3.12.816-3.12 2.4 0 1.712 1.584 2.128 2.928 2.464 1.072.256 1.984.496 1.984 1.28 0 .736-.816 1.152-1.888 1.152-1.056 0-1.92-.4-2.528-1.024l-.768.992c.752.72 1.872 1.28 3.312 1.28zm9.501-7.104v-1.248h-2.448v-2.192h-1.376v2.192h-1.472v1.248h1.472v4.736c0 1.504.816 2.368 2.4 2.368.576 0 1.008-.112 1.424-.336v-1.296c-.336.176-.688.304-1.136.304-.832 0-1.312-.384-1.312-1.264v-4.512h2.448zm9.468 2.832c0-2.448-1.824-4.272-4.256-4.272-2.448 0-4.288 1.824-4.288 4.24 0 2.448 1.904 4.304 4.464 4.304 1.584 0 2.928-.688 3.744-1.776l-.944-.816c-.528.752-1.552 1.328-2.752 1.328-1.584 0-2.752-.976-3.024-2.4h7.024c.016-.192.032-.416.032-.608zm-4.272-3.008c1.44 0 2.56.96 2.816 2.368h-5.616c.256-1.392 1.376-2.368 2.8-2.368zm15.782-1.264c-1.312 0-2.352.576-2.96 1.6-.48-1.008-1.456-1.6-2.736-1.6-1.152 0-2.08.464-2.672 1.296v-1.104h-1.376V338h1.376v-4.848c0-1.312.896-2.176 2.224-2.176 1.296 0 2.128.848 2.128 2.144V338h1.376v-4.848c0-1.312.896-2.176 2.224-2.176 1.296 0 2.128.848 2.128 2.144V338h1.376v-5.264c0-1.872-1.216-3.088-3.088-3.088zm14.392 8.56h-2.992c-.688 0-1.152-.368-1.152-.944 0-.352.192-.704.512-.912.512.256 1.088.384 1.728.384 2.112 0 3.728-1.536 3.728-3.552 0-.864-.288-1.632-.8-2.24.016-.544.416-.896 1.008-.896h.544v-1.28h-.624c-.992 0-1.696.544-1.856 1.408a3.923 3.923 0 0 0-2-.528c-2.128 0-3.728 1.52-3.728 3.536a3.51 3.51 0 0 0 1.12 2.592c-.624.352-1.008 1.072-1.008 1.84 0 1.152.912 1.936 2.272 1.936h3.008c.928 0 1.568.48 1.6 1.216l1.424-.368c-.16-1.36-1.248-2.192-2.784-2.192zm-1.904-7.248c1.312 0 2.304.96 2.304 2.224 0 1.28-.992 2.24-2.304 2.24-1.312 0-2.304-.96-2.304-2.24 0-1.264.976-2.224 2.304-2.224zm5.752 7.04h1.376v-11.52h-1.376V338zm7.527.192c2.464 0 4.336-1.84 4.336-4.272 0-2.432-1.872-4.272-4.336-4.272-2.48 0-4.352 1.84-4.352 4.272 0 2.432 1.872 4.272 4.352 4.272zm0-1.328c-1.68 0-2.928-1.264-2.928-2.944s1.248-2.944 2.928-2.944c1.664 0 2.912 1.264 2.912 2.944s-1.248 2.944-2.912 2.944zm10.689-7.216c-1.36 0-2.48.64-3.168 1.664v-4.832h-1.376V338h1.376v-1.472c.688 1.024 1.808 1.664 3.168 1.664 2.336 0 4.096-1.84 4.096-4.272 0-2.432-1.76-4.272-4.096-4.272zm-.256 7.216c-1.664 0-2.912-1.264-2.912-2.944s1.248-2.944 2.912-2.944c1.68 0 2.928 1.264 2.928 2.944s-1.248 2.944-2.928 2.944zm12.933-7.024v1.472c-.688-1.024-1.808-1.664-3.168-1.664-2.336 0-4.08 1.84-4.08 4.272 0 2.432 1.744 4.272 4.08 4.272 1.36 0 2.48-.64 3.168-1.664V338h1.376v-8.16h-1.376zm-2.912 7.024c-1.68 0-2.928-1.264-2.928-2.944s1.248-2.944 2.928-2.944c1.664 0 2.912 1.264 2.912 2.944s-1.248 2.944-2.912 2.944zm6.628 1.136h1.376v-11.52h-1.376V338zm3.704 0h1.376v-11.52h-1.376V338zm9.847-8.16-2.752 6.512-2.752-6.512h-1.584l3.552 8.112-.592 1.216c-.256.528-.624.736-1.04.736-.416 0-.816-.208-1.088-.512l-.576 1.056c.48.48 1.232.784 1.872.784.88 0 1.68-.544 2.096-1.504l4.4-9.888h-1.536zm2.341 8.272c.592 0 1.04-.448 1.04-1.024 0-.576-.448-1.024-1.04-1.024a1.01 1.01 0 0 0-1.024 1.024 1.01 1.01 0 0 0 1.024 1.024z" fill="#000"/>
    <defs>
        <filter id="a" x="0" y=".872" width="549" height="542.129" filterUnits="userSpaceOnUse" color-interpolation-filters="sRGB">
            <feFlood flood-opacity="0" result="BackgroundImageFix"/>
            <feBlend in="SourceGraphic" in2="BackgroundImageFix" result="shape"/>
            <feGaussianBlur stdDeviation="75" result="effect1_foregroundBlur"/>
        </filter>
    </defs>
</svg>
