<svg width="354" height="137" viewBox="0 0 354 137" fill="none" xmlns="http://www.w3.org/2000/svg">
<g filter="url(#filter0_f)">
<rect x="50" y="50" width="254" height="37" fill="#090A42" fill-opacity="0.4"/>
</g>
<rect x="42" y="40" width="270" height="55" fill="#E8FD7D"/>
<path d="M154.38 62.8V60.2H145.4V74H148.16V68.5H153.58V65.9H148.16V62.8H154.38ZM160.465 74.24C163.325 74.24 165.225 72.54 165.225 69.94V63.8H162.625V69.58C162.625 70.88 161.765 71.72 160.465 71.72C159.165 71.72 158.305 70.88 158.305 69.58V63.8H155.705V69.94C155.705 72.54 157.585 74.24 160.465 74.24ZM173.385 63.56C172.065 63.56 170.945 64.04 170.145 64.94V63.8H167.545V74H170.145V68.4C170.145 67 171.105 66.08 172.525 66.08C173.885 66.08 174.765 66.98 174.765 68.36V74H177.365V67.52C177.365 65.12 175.785 63.56 173.385 63.56ZM187.413 59.6V65.02C186.593 64.12 185.453 63.56 184.093 63.56C181.253 63.56 179.113 65.86 179.113 68.9C179.113 71.94 181.253 74.24 184.093 74.24C185.453 74.24 186.593 73.68 187.413 72.78V74H190.013V59.6H187.413ZM184.593 71.72C182.993 71.72 181.793 70.5 181.793 68.9C181.793 67.3 182.993 66.08 184.593 66.08C186.213 66.08 187.413 67.3 187.413 68.9C187.413 70.5 186.213 71.72 184.593 71.72ZM197.197 74H199.957V60.2H197.197V74ZM208.883 66.18V63.8H206.143V61.22H203.543V63.8H201.923V66.18H203.543V70.84C203.543 72.88 204.643 74.24 206.983 74.24C207.743 74.24 208.323 74.1 208.883 73.8V71.38C208.503 71.56 208.063 71.72 207.543 71.72C206.623 71.72 206.143 71.28 206.143 70.42V66.18H208.883Z" fill="black"/>
<defs>
<filter id="filter0_f" x="0" y="0" width="354" height="137" filterUnits="userSpaceOnUse" color-interpolation-filters="sRGB">
<feFlood flood-opacity="0" result="BackgroundImageFix"/>
<feBlend mode="normal" in="SourceGraphic" in2="BackgroundImageFix" result="shape"/>
<feGaussianBlur stdDeviation="25" result="effect1_foregroundBlur"/>
</filter>
</defs>
</svg>
