<svg width="195" height="104" fill="none" xmlns="http://www.w3.org/2000/svg">
    <g opacity=".2" filter="url(#a)">
        <path d="M33 42.022A9.022 9.022 0 0 1 42.022 33h110.845a9.023 9.023 0 0 1 9.022 9.022v20.622a9.023 9.023 0 0 1-9.022 9.023H42.022A9.022 9.022 0 0 1 33 62.644V42.022z" fill="#0F0941" fill-opacity=".8"/>
    </g>
    <rect x="33" y="33" width="128.889" height="38.667" rx="7.733" fill="#fff"/>
    <path d="M83.648 56h1.812l-3.18-8.28h-1.956L77.132 56h1.788l.588-1.608h3.552L83.648 56zm-3.588-3.132 1.224-3.324 1.212 3.324H80.06zm9.826-3.132c-.816 0-1.5.324-1.992.876v-.732h-1.56v8.4h1.56v-3.012c.492.552 1.176.876 1.992.876 1.704 0 2.976-1.38 2.976-3.204 0-1.824-1.272-3.204-2.976-3.204zm-.312 4.896c-.96 0-1.68-.732-1.68-1.692s.72-1.692 1.68-1.692c.972 0 1.68.732 1.68 1.692s-.708 1.692-1.68 1.692zm7.988-4.896c-.816 0-1.5.324-1.992.876v-.732h-1.56v8.4h1.56v-3.012c.492.552 1.176.876 1.992.876 1.704 0 2.976-1.38 2.976-3.204 0-1.824-1.272-3.204-2.976-3.204zm-.312 4.896c-.96 0-1.68-.732-1.68-1.692s.72-1.692 1.68-1.692c.972 0 1.68.732 1.68 1.692s-.708 1.692-1.68 1.692zM101.685 56h1.56v-8.64h-1.56V56zm7.319-6.12-1.584 4.164-1.596-4.164h-1.776l2.496 6.024-.252.528c-.156.348-.408.48-.696.48-.264 0-.552-.12-.744-.324l-.6 1.224c.408.372 1.056.612 1.608.612.804 0 1.524-.516 1.86-1.356l3.024-7.188h-1.74zm8.075-1.716c.336 0 .588.084.84.216v-.912a2.116 2.116 0 0 0-1.056-.252c-1.188 0-1.8.66-1.8 1.812v.852h-1.116v.936h1.116V56h1.032v-5.184h1.764v-.936h-1.764v-.78c0-.66.36-.936.984-.936zm4.435 7.98c1.848 0 3.252-1.38 3.252-3.204 0-1.824-1.404-3.204-3.252-3.204-1.86 0-3.264 1.38-3.264 3.204 0 1.824 1.404 3.204 3.264 3.204zm0-.996c-1.26 0-2.196-.948-2.196-2.208 0-1.26.936-2.208 2.196-2.208 1.248 0 2.184.948 2.184 2.208 0 1.26-.936 2.208-2.184 2.208zm7.728-5.364c-.912 0-1.632.42-2.088 1.152V49.88h-1.032V56h1.032v-3.06c0-1.272.792-2.088 2.088-2.088h.204v-1.068h-.204zm4.862-1.128c.396 0 .696-.3.696-.684 0-.396-.3-.684-.696-.684a.669.669 0 0 0-.684.684c0 .384.3.684.684.684zm-1.14 9.768c1.08 0 1.656-.612 1.656-1.668V49.88h-1.032v6.768c0 .576-.312.828-.804.828-.228 0-.42-.048-.588-.132v.924c.216.096.456.156.768.156zm6.28-2.28c1.848 0 3.252-1.38 3.252-3.204 0-1.824-1.404-3.204-3.252-3.204-1.86 0-3.264 1.38-3.264 3.204 0 1.824 1.404 3.204 3.264 3.204zm0-.996c-1.26 0-2.196-.948-2.196-2.208 0-1.26.936-2.208 2.196-2.208 1.248 0 2.184.948 2.184 2.208 0 1.26-.936 2.208-2.184 2.208zm8.017-5.412c-1.02 0-1.86.48-2.376 1.248V47.36h-1.032V56h1.032v-1.104c.516.768 1.356 1.248 2.376 1.248 1.752 0 3.072-1.38 3.072-3.204 0-1.824-1.32-3.204-3.072-3.204zm-.192 5.412c-1.248 0-2.184-.948-2.184-2.208 0-1.26.936-2.208 2.184-2.208 1.26 0 2.196.948 2.196 2.208 0 1.26-.936 2.208-2.196 2.208z" fill="#131313"/>
    <path fill-rule="evenodd" clip-rule="evenodd" d="M68 52c0 5.52-4.49 10-10 10l-.28-.004C52.33 61.848 48 57.426 48 52c0-5.51 4.48-10 10-10 5.51 0 10 4.49 10 10zm-11.99 3.753a.88.88 0 0 0 .614.247.879.879 0 0 0 .615-.247l5.506-5.319a.82.82 0 0 0 0-1.188.89.89 0 0 0-1.23 0l-4.89 4.724-2.14-2.064a.89.89 0 0 0-1.23 0 .82.82 0 0 0 0 1.188l2.754 2.66z" fill="#131313"/>
    <defs>
        <filter id="a" x=".778" y=".778" width="193.333" height="103.111" filterUnits="userSpaceOnUse" color-interpolation-filters="sRGB">
            <feFlood flood-opacity="0" result="BackgroundImageFix"/>
            <feBlend in="SourceGraphic" in2="BackgroundImageFix" result="shape"/>
            <feGaussianBlur stdDeviation="16.111" result="effect1_foregroundBlur"/>
        </filter>
    </defs>
</svg>
