<svg width="576" height="679" fill="none" xmlns="http://www.w3.org/2000/svg">
    <g opacity=".2" filter="url(#a)">
        <rect x="150" y="150" width="276" height="379" rx="14.4" fill="#0F0941"/>
    </g>
    <mask id="b" style="mask-type:alpha" maskUnits="userSpaceOnUse" x="114" y="123" width="348" height="392">
        <rect x="114" y="123" width="348" height="392" rx="30" fill="#FEFEFE"/>
    </mask>
    <g mask="url(#b)">
        <rect x="114" y="123" width="348" height="392" rx="30" fill="#FEFEFE"/>
        <path d="M409.8 483.96v42.96h10.4v-16H465v-11.04h-44.8v-15.92h-10.4zm14.4-31.034h4.88c-3.6 3.28-5.84 7.84-5.84 13.28 0 11.36 9.2 19.92 21.36 19.92s21.36-8.56 21.36-19.92c0-5.44-2.24-10-5.84-13.28H465v-10.4h-40.8v10.4zm31.68 11.28c0 6.4-4.88 11.2-11.28 11.2-6.4 0-11.28-4.8-11.28-11.2 0-6.48 4.88-11.28 11.28-11.28 6.4 0 11.28 4.8 11.28 11.28zm9.12-31.572v-10.4h-57.6v10.4H465zm-20.32-60.953c-12.32 0-21.44 9.2-21.44 21.44 0 12.32 9.12 21.68 21.2 21.68 12.24 0 21.52-9.68 21.52-22.64 0-7.68-3.12-14.24-8.16-18.48l-6.08 6.96c2.72 2.16 5.04 6.24 5.04 11.2 0 5.92-3.28 10.24-8.4 11.68v-31.6c-1.12-.16-2.56-.24-3.68-.24zm-12.32 21.52c0-5.04 3.28-9.12 8.4-10.4v20.8c-5.04-1.28-8.4-5.28-8.4-10.4zm-9.12-52.13c0 5.28 1.92 9.76 5.52 12.96h-4.56v10.4H465v-10.4h-22.4c-5.6 0-9.28-3.84-9.28-9.52 0-5.44 3.6-8.96 9.12-8.96H465v-10.4h-25.92c-9.6 0-15.84 6.32-15.84 15.92zm10.48-48.557h-9.52v10.96h-10.32v10.4h10.32v6.48h9.52v-6.48h18.64c8.16 0 13.6-4.4 13.6-13.76 0-3.04-.56-5.36-1.76-7.6h-9.68c.72 1.52 1.36 3.28 1.36 5.36 0 3.68-1.76 5.6-5.2 5.6h-16.96v-10.96z" fill="#F9F9F9"/>
    </g>
    <path d="M253.685 236.347c1.104.751 2.752.854 4.943.31v-1.493c-1.704.47-2.973.474-3.806.014-.833-.46-1.25-1.45-1.25-2.971v-9.04h5.112v-1.38h-5.112v-4.421h-1.516v4.421h-3.37v1.38h3.37l-.028 9.068c0 1.99.552 3.361 1.657 4.112zm11.851.591c1.049 0 1.952-.169 2.71-.507.759-.337 1.391-.732 1.896-1.182.506-.451.904-.906 1.194-1.366.29-.46.491-.812.604-1.056v3.886h1.488V226.35c0-.751-.173-1.423-.519-2.014a4.786 4.786 0 0 0-1.405-1.507c-.589-.413-1.282-.732-2.078-.957a9.304 9.304 0 0 0-2.542-.338c-.786 0-1.544.089-2.274.268a6.401 6.401 0 0 0-1.938.802 4.566 4.566 0 0 0-1.376 1.338c-.356.535-.572 1.169-.646 1.901l1.516-.028c.094-.564.3-1.033.618-1.409a3.744 3.744 0 0 1 1.123-.901 4.935 4.935 0 0 1 1.433-.478 8.886 8.886 0 0 1 1.572-.141c.674 0 1.311.075 1.91.225.599.15 1.133.376 1.601.676.468.3.838.681 1.109 1.14.272.46.408 1 .408 1.62v1.295l-5.056.028c-1.292 0-2.377.141-3.257.423-.88.281-1.578.647-2.093 1.098-.515.451-.88.962-1.095 1.535a4.553 4.553 0 0 0-.295 1.76c.038.695.201 1.305.492 1.83.29.526.678.967 1.165 1.324a5.422 5.422 0 0 0 1.685.817c.637.187 1.32.281 2.05.281zm.085-1.38c-.506 0-.983-.061-1.433-.183a3.935 3.935 0 0 1-1.207-.549 3.23 3.23 0 0 1-.885-.901 2.55 2.55 0 0 1-.407-1.211 2.826 2.826 0 0 1 .168-1.225c.15-.422.426-.807.829-1.155.402-.347.964-.638 1.685-.873.721-.234 1.624-.352 2.71-.352h4.859c0 .883-.169 1.718-.506 2.507a6.504 6.504 0 0 1-1.376 2.056 6.565 6.565 0 0 1-2.022 1.38 5.947 5.947 0 0 1-2.415.506zm11.964 1.155V217h-1.545v19.713h1.545zm9.942.225c.73 0 1.441-.103 2.134-.309a7.94 7.94 0 0 0 1.924-.859 8.298 8.298 0 0 0 1.615-1.31c.486-.507.88-1.07 1.179-1.69l-1.488-.253a6.086 6.086 0 0 1-2.247 2.168 6.181 6.181 0 0 1-3.117.817 6.132 6.132 0 0 1-2.275-.422 5.926 5.926 0 0 1-1.882-1.183 6 6 0 0 1-1.32-1.816 6.301 6.301 0 0 1-.59-2.324h13.537c.038-.188.052-.399.042-.633a7.424 7.424 0 0 0-.07-.747 8.158 8.158 0 0 0-.786-2.661 7.414 7.414 0 0 0-3.876-3.647 7.187 7.187 0 0 0-2.78-.535c-1.068 0-2.06.202-2.977.605a7.833 7.833 0 0 0-2.416 1.648 7.618 7.618 0 0 0-2.218 5.435c0 1.07.196 2.07.589 2.999.394.93.932 1.746 1.615 2.45a7.52 7.52 0 0 0 2.416 1.662 7.397 7.397 0 0 0 2.991.605zm5.925-8.448H281.46c.075-.77.276-1.493.604-2.169a5.918 5.918 0 0 1 1.292-1.76 6.099 6.099 0 0 1 4.142-1.619c.806 0 1.555.146 2.247.437a6.006 6.006 0 0 1 1.826 1.182c.524.498.95 1.085 1.278 1.76.327.676.529 1.399.603 2.169zm4.859 8.223v-7.604c0-.901.136-1.731.407-2.492.272-.76.651-1.408 1.138-1.943a5.252 5.252 0 0 1 1.713-1.253 5.05 5.05 0 0 1 2.134-.451 5.42 5.42 0 0 1 1.896.338 4.6 4.6 0 0 1 1.615 1.014 4.799 4.799 0 0 1 1.109 1.676c.272.666.407 1.45.407 2.351v8.364h1.545v-8.927c0-.995-.173-1.878-.519-2.647a5.86 5.86 0 0 0-1.405-1.958 6.147 6.147 0 0 0-2.036-1.225 6.887 6.887 0 0 0-2.387-.422c-.693 0-1.334.094-1.924.282a6.288 6.288 0 0 0-1.601.76 6.045 6.045 0 0 0-1.235 1.084 6.237 6.237 0 0 0-.857 1.282v-3.155h-1.545v14.926h1.545zm17.918-.366c1.105.751 2.752.854 4.943.31v-1.493c-1.704.47-2.972.474-3.806.014-.833-.46-1.249-1.45-1.249-2.971v-9.04h5.111v-1.38h-5.111v-4.421H314.6v4.421h-3.37v1.38h3.37l-.028 9.068c0 1.99.552 3.361 1.657 4.112z" fill="#000"/>
    <path d="M162.108 221.55c1.475 0 2.783.365 3.923 1.094v-.769h4.779v14.34h-4.779v-.798c-1.14.729-2.448 1.094-3.923 1.094a6.746 6.746 0 0 1-3.554-.991 7.214 7.214 0 0 1-2.595-2.705c-.639-1.143-.959-2.405-.959-3.785 0-1.399.32-2.67.959-3.814a7.1 7.1 0 0 1 2.595-2.69 6.815 6.815 0 0 1 3.554-.976zm.692 4.23a3.213 3.213 0 0 0-3.21 3.217 3.214 3.214 0 0 0 3.21 3.218 3.214 3.214 0 0 0 3.21-3.218 3.213 3.213 0 0 0-3.21-3.217zm16.827 10.76c1.298 0 2.487-.261 3.569-.783 1.081-.523 1.952-1.252 2.61-2.188.659-.936 1.038-2.016 1.136-3.238h-4.513a2.465 2.465 0 0 1-.944 1.567c-.511.394-1.13.592-1.858.592-1.003 0-1.799-.326-2.389-.976-.59-.651-.885-1.478-.885-2.484 0-1.005.295-1.828.885-2.468.59-.641 1.386-.961 2.389-.961.728 0 1.347.197 1.858.591.511.394.826.917.944 1.567h4.513c-.098-1.222-.477-2.301-1.136-3.237-.658-.937-1.529-1.666-2.61-2.188-1.082-.523-2.271-.784-3.569-.784-1.494 0-2.832.32-4.011.961a7.153 7.153 0 0 0-2.788 2.676c-.678 1.143-1.017 2.424-1.017 3.843 0 1.439.339 2.73 1.017 3.874a7.144 7.144 0 0 0 2.788 2.675c1.179.641 2.517.961 4.011.961zm15.893 0c1.298 0 2.487-.261 3.569-.783 1.081-.523 1.951-1.252 2.61-2.188.659-.936 1.037-2.016 1.136-3.238h-4.513a2.465 2.465 0 0 1-.944 1.567c-.511.394-1.131.592-1.858.592-1.003 0-1.799-.326-2.389-.976-.59-.651-.885-1.478-.885-2.484 0-1.005.295-1.828.885-2.468.59-.641 1.386-.961 2.389-.961.727 0 1.347.197 1.858.591.511.394.826.917.944 1.567h4.513c-.099-1.222-.477-2.301-1.136-3.237-.659-.937-1.529-1.666-2.61-2.188-1.082-.523-2.271-.784-3.569-.784-1.495 0-2.832.32-4.012.961a7.157 7.157 0 0 0-2.787 2.676c-.678 1.143-1.017 2.424-1.017 3.843 0 1.439.339 2.73 1.017 3.874a7.148 7.148 0 0 0 2.787 2.675c1.18.641 2.517.961 4.012.961zm15.893 0c1.769 0 3.288-.433 4.557-1.301 1.24-.848 2.034-1.989 2.381-3.421.002-.007.009-.037.032-.199.023-.163.019-.317.025-.343h-4.581c-.005.007-.042.124-.086.244a1.617 1.617 0 0 1-.116.245 2.108 2.108 0 0 1-.855.725c-.374.177-.807.266-1.298.266-.865 0-1.568-.212-2.109-.636a3.163 3.163 0 0 1-1.106-1.67h10.151c.075-.657.113-1.229.113-1.715 0-1.419-.319-2.671-.958-3.755a6.692 6.692 0 0 0-2.626-2.528c-1.111-.601-2.354-.902-3.731-.902-1.494 0-2.821.32-3.982.961a6.725 6.725 0 0 0-2.684 2.661c-.629 1.133-.944 2.419-.944 3.858s.325 2.73.974 3.874c.649 1.143 1.568 2.035 2.758 2.675 1.189.641 2.551.961 4.085.961zm-3.215-8.899c.189-.816.562-1.455 1.12-1.917.557-.461 1.256-.692 2.097-.692.821 0 1.494.225 2.019.676.526.451.863 1.095 1.01 1.933h-6.246zm18.098 9.017c1.966 0 3.574-.413 4.822-1.241 1.249-.828 1.873-2.031 1.873-3.607 0-2.346-1.484-3.795-4.454-4.347l-2.684-.443c-.983-.178-1.474-.552-1.474-1.124 0-.295.152-.542.457-.739.305-.197.752-.295 1.342-.295.688 0 1.253.133 1.696.399.442.266.683.665.722 1.197h4.248c-.099-1.734-.797-2.996-2.094-3.784-1.298-.789-2.832-1.183-4.602-1.183-1.927 0-3.47.424-4.63 1.271-1.161.848-1.741 2.021-1.741 3.519 0 1.222.374 2.193 1.121 2.912.747.719 1.77 1.188 3.068 1.404l2.89.503c.452.079.797.207 1.033.384.236.178.354.385.354.621 0 .316-.182.562-.546.739-.364.178-.86.266-1.49.266-.767 0-1.391-.147-1.873-.443-.481-.296-.771-.749-.87-1.36l-4.247-.03c.138 1.814.85 3.164 2.138 4.051 1.288.887 2.935 1.33 4.941 1.33zm14.499 0c1.967 0 3.574-.413 4.823-1.241 1.249-.828 1.873-2.031 1.873-3.607 0-2.346-1.485-3.795-4.454-4.347l-2.684-.443c-.983-.178-1.475-.552-1.475-1.124 0-.295.153-.542.457-.739.305-.197.753-.295 1.342-.295.689 0 1.254.133 1.696.399.443.266.684.665.723 1.197h4.247c-.098-1.734-.796-2.996-2.094-3.784-1.298-.789-2.831-1.183-4.601-1.183-1.927 0-3.471.424-4.631 1.271-1.16.848-1.74 2.021-1.74 3.519 0 1.222.374 2.193 1.121 2.912.747.719 1.77 1.188 3.067 1.404l2.891.503c.452.079.796.207 1.032.384.236.178.354.385.354.621 0 .316-.182.562-.546.739-.363.178-.86.266-1.489.266-.767 0-1.391-.147-1.873-.443-.482-.296-.772-.749-.87-1.36l-4.247-.03c.137 1.814.85 3.164 2.138 4.051 1.288.887 2.935 1.33 4.94 1.33z" fill="#1F1F1F"/>
    <path d="M171.028 217.456h-15.264v2.296h15.264v-2.296z" fill="#99C2DE"/>
    <path d="M167.82 302h2.02l-5.62-13.8h-2.18l-5.62 13.8h1.96l1.34-3.34h6.76l1.34 3.34zm-7.42-5.04 2.7-6.78 2.7 6.78h-5.4zm15.805 5.28c2.02 0 3.74-1 4.66-2.56l-1.5-.9c-.62 1.08-1.78 1.8-3.16 1.8-2.1 0-3.66-1.58-3.66-3.68s1.56-3.68 3.66-3.68c1.38 0 2.54.72 3.16 1.8l1.5-.9c-.92-1.56-2.64-2.56-4.66-2.56-3.1 0-5.44 2.3-5.44 5.34s2.34 5.34 5.44 5.34zm11.426 0c2.02 0 3.74-1 4.66-2.56l-1.5-.9c-.62 1.08-1.78 1.8-3.16 1.8-2.1 0-3.66-1.58-3.66-3.68s1.56-3.68 3.66-3.68c1.38 0 2.54.72 3.16 1.8l1.5-.9c-.92-1.56-2.64-2.56-4.66-2.56-3.1 0-5.44 2.3-5.44 5.34s2.34 5.34 5.44 5.34zm16.665-5.34c0-3.06-2.28-5.34-5.32-5.34-3.06 0-5.36 2.28-5.36 5.3 0 3.06 2.38 5.38 5.58 5.38 1.98 0 3.66-.86 4.68-2.22l-1.18-1.02c-.66.94-1.94 1.66-3.44 1.66-1.98 0-3.44-1.22-3.78-3h8.78c.02-.24.04-.52.04-.76zm-5.34-3.76c1.8 0 3.2 1.2 3.52 2.96h-7.02c.32-1.74 1.72-2.96 3.5-2.96zm10.887 9.1c2.3 0 4.12-1.14 4.12-3.16 0-2.12-1.96-2.62-3.64-3.02-1.36-.32-2.52-.6-2.52-1.6 0-.88.98-1.34 2.16-1.34 1.12 0 2.08.44 2.76 1.1l.96-1.26c-.86-.78-2.12-1.4-3.74-1.4-2.1 0-3.9 1.02-3.9 3 0 2.14 1.98 2.66 3.66 3.08 1.34.32 2.48.62 2.48 1.6 0 .92-1.02 1.44-2.36 1.44-1.32 0-2.4-.5-3.16-1.28l-.96 1.24c.94.9 2.34 1.6 4.14 1.6zm9.609 0c2.3 0 4.12-1.14 4.12-3.16 0-2.12-1.96-2.62-3.64-3.02-1.36-.32-2.52-.6-2.52-1.6 0-.88.98-1.34 2.16-1.34 1.12 0 2.08.44 2.76 1.1l.96-1.26c-.86-.78-2.12-1.4-3.74-1.4-2.1 0-3.9 1.02-3.9 3 0 2.14 1.98 2.66 3.66 3.08 1.34.32 2.48.62 2.48 1.6 0 .92-1.02 1.44-2.36 1.44-1.32 0-2.4-.5-3.16-1.28l-.96 1.24c.94.9 2.34 1.6 4.14 1.6zm17.111-8.88v-1.56h-3.06v-2.74h-1.72v2.74h-1.84v1.56h1.84v5.92c0 1.88 1.02 2.96 3 2.96.72 0 1.26-.14 1.78-.42v-1.62c-.42.22-.86.38-1.42.38-1.04 0-1.64-.48-1.64-1.58v-5.64h3.06zm7.606-1.8c-1.6 0-2.88.66-3.68 1.86v-5.82h-1.72V302h1.72v-5.72c0-1.84 1.24-3.06 3.12-3.06 1.82 0 2.98 1.2 2.98 3.02V302h1.72v-6.3c0-2.5-1.66-4.14-4.14-4.14zm16.944 5.34c0-3.06-2.28-5.34-5.32-5.34-3.06 0-5.36 2.28-5.36 5.3 0 3.06 2.38 5.38 5.58 5.38 1.98 0 3.66-.86 4.68-2.22l-1.18-1.02c-.66.94-1.94 1.66-3.44 1.66-1.98 0-3.44-1.22-3.78-3h8.78c.02-.24.04-.52.04-.76zm-5.34-3.76c1.8 0 3.2 1.2 3.52 2.96h-7.02c.32-1.74 1.72-2.96 3.5-2.96zm18.368.22v-1.56h-3.06v-2.74h-1.72v2.74h-1.84v1.56h1.84v5.92c0 1.88 1.02 2.96 3 2.96.72 0 1.26-.14 1.78-.42v-1.62c-.42.22-.86.38-1.42.38-1.04 0-1.64-.48-1.64-1.58v-5.64h3.06zm10.255-1.56v1.84c-.86-1.28-2.26-2.08-3.96-2.08-2.92 0-5.1 2.3-5.1 5.34s2.18 5.34 5.1 5.34c1.7 0 3.1-.8 3.96-2.08V302h1.72v-10.2h-1.72zm-3.64 8.78c-2.1 0-3.66-1.58-3.66-3.68s1.56-3.68 3.66-3.68c2.08 0 3.64 1.58 3.64 3.68s-1.56 3.68-3.64 3.68zm8.286 1.42h1.72v-14.4h-1.72V302zm14.649-5.1c0-3.06-2.28-5.34-5.32-5.34-3.06 0-5.36 2.28-5.36 5.3 0 3.06 2.38 5.38 5.58 5.38 1.98 0 3.66-.86 4.68-2.22l-1.18-1.02c-.66.94-1.94 1.66-3.44 1.66-1.98 0-3.44-1.22-3.78-3h8.78c.02-.24.04-.52.04-.76zm-5.34-3.76c1.8 0 3.2 1.2 3.52 2.96h-7.02c.32-1.74 1.72-2.96 3.5-2.96zm12.947-1.58c-1.6 0-2.88.64-3.68 1.8v-1.56h-1.72V302h1.72v-5.72c0-1.84 1.24-3.06 3.12-3.06 1.82 0 2.98 1.2 2.98 3.02V302h1.72v-6.3c0-2.5-1.66-4.14-4.14-4.14zm12.237 1.8v-1.56h-3.06v-2.74h-1.72v2.74h-1.84v1.56h1.84v5.92c0 1.88 1.02 2.96 3 2.96.72 0 1.26-.14 1.78-.42v-1.62c-.42.22-.86.38-1.42.38-1.04 0-1.64-.48-1.64-1.58v-5.64h3.06zm14.828-1.56-3.44 8.14-3.44-8.14h-1.98l4.44 10.14-.74 1.52c-.32.66-.78.92-1.3.92s-1.02-.26-1.36-.64l-.72 1.32c.6.6 1.54.98 2.34.98 1.1 0 2.1-.68 2.62-1.88l5.5-12.36h-1.92zm7.861 10.44c3.08 0 5.42-2.3 5.42-5.34s-2.34-5.34-5.42-5.34c-3.1 0-5.44 2.3-5.44 5.34s2.34 5.34 5.44 5.34zm0-1.66c-2.1 0-3.66-1.58-3.66-3.68s1.56-3.68 3.66-3.68c2.08 0 3.64 1.58 3.64 3.68s-1.56 3.68-3.64 3.68zm12.141 1.66c2.78 0 4.62-1.7 4.62-4.28v-6.16h-1.72v5.92c0 1.72-1.16 2.86-2.9 2.86s-2.9-1.14-2.9-2.86v-5.92h-1.72v6.16c0 2.58 1.84 4.28 4.62 4.28zM162.86 319.56c-1.6 0-2.88.64-3.68 1.8v-1.56h-1.72V330h1.72v-5.72c0-1.84 1.24-3.06 3.12-3.06 1.82 0 2.98 1.2 2.98 3.02V330H167v-6.3c0-2.5-1.66-4.14-4.14-4.14zm16.944 5.34c0-3.06-2.28-5.34-5.32-5.34-3.06 0-5.36 2.28-5.36 5.3 0 3.06 2.38 5.38 5.58 5.38 1.98 0 3.66-.86 4.68-2.22l-1.18-1.02c-.66.94-1.94 1.66-3.44 1.66-1.98 0-3.44-1.22-3.78-3h8.78c.02-.24.04-.52.04-.76zm-5.34-3.76c1.8 0 3.2 1.2 3.52 2.96h-7.02c.32-1.74 1.72-2.96 3.5-2.96zm17.567 3.76c0-3.06-2.28-5.34-5.32-5.34-3.06 0-5.36 2.28-5.36 5.3 0 3.06 2.38 5.38 5.58 5.38 1.98 0 3.66-.86 4.68-2.22l-1.18-1.02c-.66.94-1.94 1.66-3.44 1.66-1.98 0-3.44-1.22-3.78-3h8.78c.02-.24.04-.52.04-.76zm-5.34-3.76c1.8 0 3.2 1.2 3.52 2.96h-7.02c.32-1.74 1.72-2.96 3.5-2.96zm15.986-5.54v6.04c-.86-1.28-2.26-2.08-3.96-2.08-2.92 0-5.1 2.3-5.1 5.34s2.18 5.34 5.1 5.34c1.7 0 3.1-.8 3.96-2.08V330h1.72v-14.4h-1.72zm-3.64 12.98c-2.1 0-3.66-1.58-3.66-3.68s1.56-3.68 3.66-3.68c2.08 0 3.64 1.58 3.64 3.68s-1.56 3.68-3.64 3.68zm26.948-8.78-2.76 8.12-2.82-8.12h-1.76l-2.8 8.1-2.76-8.1h-1.94l3.74 10.2h1.8l2.82-8.16 2.82 8.16h1.8l3.74-10.2h-1.88zm4.542-2.04c.64 0 1.14-.5 1.14-1.14 0-.66-.5-1.14-1.14-1.14-.66 0-1.16.48-1.16 1.14 0 .64.5 1.14 1.16 1.14zm-.86 12.24h1.72v-10.2h-1.72V330zm10.509-8.64v-1.56h-3.06v-2.74h-1.72v2.74h-1.84v1.56h1.84v5.92c0 1.88 1.02 2.96 3 2.96.72 0 1.26-.14 1.78-.42v-1.62c-.42.22-.86.38-1.42.38-1.04 0-1.64-.48-1.64-1.58v-5.64h3.06zm7.606-1.8c-1.6 0-2.88.66-3.68 1.86v-5.82h-1.72V330h1.72v-5.72c0-1.84 1.24-3.06 3.12-3.06 1.82 0 2.98 1.2 2.98 3.02V330h1.72v-6.3c0-2.5-1.66-4.14-4.14-4.14zm20.306.24v1.84c-.86-1.28-2.26-2.08-3.96-2.08-2.92 0-5.1 2.3-5.1 5.34s2.18 5.34 5.1 5.34c1.7 0 3.1-.8 3.96-2.08V330h1.72v-10.2h-1.72zm-3.64 8.78c-2.1 0-3.66-1.58-3.66-3.68s1.56-3.68 3.66-3.68c2.08 0 3.64 1.58 3.64 3.68s-1.56 3.68-3.64 3.68zm16.567 1.66c2.3 0 4.12-1.14 4.12-3.16 0-2.12-1.96-2.62-3.64-3.02-1.36-.32-2.52-.6-2.52-1.6 0-.88.98-1.34 2.16-1.34 1.12 0 2.08.44 2.76 1.1l.96-1.26c-.86-.78-2.12-1.4-3.74-1.4-2.1 0-3.9 1.02-3.9 3 0 2.14 1.98 2.66 3.66 3.08 1.34.32 2.48.62 2.48 1.6 0 .92-1.02 1.44-2.36 1.44-1.32 0-2.4-.5-3.16-1.28l-.96 1.24c.94.9 2.34 1.6 4.14 1.6zm18.469-10.68c-1.64 0-2.94.72-3.7 2-.6-1.26-1.82-2-3.42-2-1.44 0-2.6.58-3.34 1.62v-1.38h-1.72V330h1.72v-6.06c0-1.64 1.12-2.72 2.78-2.72 1.62 0 2.66 1.06 2.66 2.68v6.1h1.72v-6.06c0-1.64 1.12-2.72 2.78-2.72 1.62 0 2.66 1.06 2.66 2.68v6.1h1.72v-6.58c0-2.34-1.52-3.86-3.86-3.86zm15.068.24v1.84c-.86-1.28-2.26-2.08-3.96-2.08-2.92 0-5.1 2.3-5.1 5.34s2.18 5.34 5.1 5.34c1.7 0 3.1-.8 3.96-2.08V330h1.72v-10.2h-1.72zm-3.64 8.78c-2.1 0-3.66-1.58-3.66-3.68s1.56-3.68 3.66-3.68c2.08 0 3.64 1.58 3.64 3.68s-1.56 3.68-3.64 3.68zm13.486-8.94c-1.52 0-2.72.7-3.48 1.92v-1.76h-1.72V330h1.72v-5.1c0-2.12 1.32-3.48 3.48-3.48h.34v-1.78h-.34zm8.2 1.72v-1.56h-3.06v-2.74h-1.72v2.74h-1.84v1.56h1.84v5.92c0 1.88 1.02 2.96 3 2.96.72 0 1.26-.14 1.78-.42v-1.62c-.42.22-.86.38-1.42.38-1.04 0-1.64-.48-1.64-1.58v-5.64h3.06zm11.835 3.54c0-3.06-2.28-5.34-5.32-5.34-3.06 0-5.36 2.28-5.36 5.3 0 3.06 2.38 5.38 5.58 5.38 1.98 0 3.66-.86 4.68-2.22l-1.18-1.02c-.66.94-1.94 1.66-3.44 1.66-1.98 0-3.44-1.22-3.78-3h8.78c.02-.24.04-.52.04-.76zm-5.34-3.76c1.8 0 3.2 1.2 3.52 2.96h-7.02c.32-1.74 1.72-2.96 3.5-2.96zm12.747-1.5c-1.52 0-2.72.7-3.48 1.92v-1.76h-1.72V330h1.72v-5.1c0-2.12 1.32-3.48 3.48-3.48h.34v-1.78h-.34zM370.723 330l-2.32-2.58c.8-1.06 1.32-2.32 1.74-3.48l-1.54-.54c-.32 1.02-.76 1.98-1.32 2.8l-3.7-4.08c1.48-.78 2.86-1.72 2.86-3.3 0-1.66-1.48-2.86-3.38-2.86-1.86 0-3.34 1.22-3.34 2.88 0 .98.52 1.96 1.3 2.96-1.46.84-2.76 2-2.76 4.04 0 2.56 2.1 4.4 5 4.4 1.58 0 2.92-.54 4-1.48l1.12 1.24h2.34zm-7.66-12.62c.88 0 1.58.62 1.58 1.44 0 .94-.9 1.56-2.06 2.16-.72-.88-1.08-1.54-1.08-2.14 0-.86.7-1.46 1.56-1.46zm.26 11.22c-1.82 0-3.22-1.2-3.22-2.88 0-1.26.82-2.08 1.92-2.78l4.12 4.56c-.8.68-1.76 1.1-2.82 1.1zM169.64 347.56c-1.64 0-2.94.72-3.7 2-.6-1.26-1.82-2-3.42-2-1.44 0-2.6.58-3.34 1.62v-1.38h-1.72V358h1.72v-6.06c0-1.64 1.12-2.72 2.78-2.72 1.62 0 2.66 1.06 2.66 2.68v6.1h1.72v-6.06c0-1.64 1.12-2.72 2.78-2.72 1.62 0 2.66 1.06 2.66 2.68v6.1h1.72v-6.58c0-2.34-1.52-3.86-3.86-3.86zm11.409 10.68c3.08 0 5.42-2.3 5.42-5.34s-2.34-5.34-5.42-5.34c-3.1 0-5.44 2.3-5.44 5.34s2.34 5.34 5.44 5.34zm0-1.66c-2.1 0-3.66-1.58-3.66-3.68s1.56-3.68 3.66-3.68c2.08 0 3.64 1.58 3.64 3.68s-1.56 3.68-3.64 3.68zm12.881-8.94c-1.52 0-2.72.7-3.48 1.92v-1.76h-1.72V358h1.72v-5.1c0-2.12 1.32-3.48 3.48-3.48h.34v-1.78h-.34zm11.753 5.26c0-3.06-2.28-5.34-5.32-5.34-3.06 0-5.36 2.28-5.36 5.3 0 3.06 2.38 5.38 5.58 5.38 1.98 0 3.66-.86 4.68-2.22l-1.18-1.02c-.66.94-1.94 1.66-3.44 1.66-1.98 0-3.44-1.22-3.78-3h8.78c.02-.24.04-.52.04-.76zm-5.34-3.76c1.8 0 3.2 1.2 3.52 2.96h-7.02c.32-1.74 1.72-2.96 3.5-2.96zm22.508 3.76c0-3.06-2.28-5.34-5.32-5.34-3.06 0-5.36 2.28-5.36 5.3 0 3.06 2.38 5.38 5.58 5.38 1.98 0 3.66-.86 4.68-2.22l-1.18-1.02c-.66.94-1.94 1.66-3.44 1.66-1.98 0-3.44-1.22-3.78-3h8.78c.02-.24.04-.52.04-.76zm-5.34-3.76c1.8 0 3.2 1.2 3.52 2.96h-7.02c.32-1.74 1.72-2.96 3.5-2.96zm11.401-4.2c.56 0 .98.14 1.4.36v-1.52c-.54-.28-1.04-.42-1.76-.42-1.98 0-3 1.1-3 3.02v1.42h-1.86v1.56h1.86V358h1.72v-8.64h2.94v-1.56h-2.94v-1.3c0-1.1.6-1.56 1.64-1.56zm4.257 1.44v1.42h-1.86v1.56h1.86V358h1.72v-8.64h2.94v-1.56h-2.94v-1.3c0-1.1.6-1.56 1.64-1.56.56 0 .98.14 1.4.36v-1.52c-.54-.28-1.04-.42-1.76-.42-1.98 0-3 1.1-3 3.02zm7.6-.62c.64 0 1.14-.5 1.14-1.14 0-.66-.5-1.14-1.14-1.14-.66 0-1.16.48-1.16 1.14 0 .64.5 1.14 1.16 1.14zm-.86 12.24h1.72v-10.2h-1.72V358zm9.421.24c2.02 0 3.74-1 4.66-2.56l-1.5-.9c-.62 1.08-1.78 1.8-3.16 1.8-2.1 0-3.66-1.58-3.66-3.68s1.56-3.68 3.66-3.68c1.38 0 2.54.72 3.16 1.8l1.5-.9c-.92-1.56-2.64-2.56-4.66-2.56-3.1 0-5.44 2.3-5.44 5.34s2.34 5.34 5.44 5.34zm7.603-12.48c.64 0 1.14-.5 1.14-1.14 0-.66-.5-1.14-1.14-1.14-.66 0-1.16.48-1.16 1.14 0 .64.5 1.14 1.16 1.14zm-.86 12.24h1.72v-10.2h-1.72V358zm14.649-5.1c0-3.06-2.28-5.34-5.32-5.34-3.06 0-5.36 2.28-5.36 5.3 0 3.06 2.38 5.38 5.58 5.38 1.98 0 3.66-.86 4.68-2.22l-1.18-1.02c-.66.94-1.94 1.66-3.44 1.66-1.98 0-3.44-1.22-3.78-3h8.78c.02-.24.04-.52.04-.76zm-5.34-3.76c1.8 0 3.2 1.2 3.52 2.96h-7.02c.32-1.74 1.72-2.96 3.5-2.96zm12.947-1.58c-1.6 0-2.88.64-3.68 1.8v-1.56h-1.72V358h1.72v-5.72c0-1.84 1.24-3.06 3.12-3.06 1.82 0 2.98 1.2 2.98 3.02V358h1.72v-6.3c0-2.5-1.66-4.14-4.14-4.14zm12.238 1.8v-1.56h-3.06v-2.74h-1.72v2.74h-1.84v1.56h1.84v5.92c0 1.88 1.02 2.96 3 2.96.72 0 1.26-.14 1.78-.42v-1.62c-.42.22-.86.38-1.42.38-1.04 0-1.64-.48-1.64-1.58v-5.64h3.06zm12.827-1.8c-1.7 0-3.1.8-3.96 2.08v-1.84h-1.72v14h1.72v-5.64c.86 1.28 2.26 2.08 3.96 2.08 2.92 0 5.12-2.3 5.12-5.34s-2.2-5.34-5.12-5.34zm-.32 9.02c-2.08 0-3.64-1.58-3.64-3.68s1.56-3.68 3.64-3.68c2.1 0 3.66 1.58 3.66 3.68s-1.56 3.68-3.66 3.68zM310.8 358h1.72v-14.4h-1.72V358zm13.069-10.2v1.84c-.86-1.28-2.26-2.08-3.96-2.08-2.92 0-5.1 2.3-5.1 5.34s2.18 5.34 5.1 5.34c1.7 0 3.1-.8 3.96-2.08V358h1.72v-10.2h-1.72zm-3.64 8.78c-2.1 0-3.66-1.58-3.66-3.68s1.56-3.68 3.66-3.68c2.08 0 3.64 1.58 3.64 3.68s-1.56 3.68-3.64 3.68zm14.166-7.22v-1.56h-3.06v-2.74h-1.72v2.74h-1.84v1.56h1.84v5.92c0 1.88 1.02 2.96 3 2.96.72 0 1.26-.14 1.78-.42v-1.62c-.42.22-.86.38-1.42.38-1.04 0-1.64-.48-1.64-1.58v-5.64h3.06zm6.45-4.42c.56 0 .98.14 1.4.36v-1.52c-.54-.28-1.04-.42-1.76-.42-1.98 0-3 1.1-3 3.02v1.42h-1.86v1.56h1.86V358h1.72v-8.64h2.94v-1.56h-2.94v-1.3c0-1.1.6-1.56 1.64-1.56zm7.391 13.3c3.08 0 5.42-2.3 5.42-5.34s-2.34-5.34-5.42-5.34c-3.1 0-5.44 2.3-5.44 5.34s2.34 5.34 5.44 5.34zm0-1.66c-2.1 0-3.66-1.58-3.66-3.68s1.56-3.68 3.66-3.68c2.08 0 3.64 1.58 3.64 3.68s-1.56 3.68-3.64 3.68zm12.881-8.94c-1.52 0-2.72.7-3.48 1.92v-1.76h-1.72V358h1.72v-5.1c0-2.12 1.32-3.48 3.48-3.48h.34v-1.78h-.34zm14.382-.08c-1.64 0-2.94.72-3.7 2-.6-1.26-1.82-2-3.42-2-1.44 0-2.6.58-3.34 1.62v-1.38h-1.72V358h1.72v-6.06c0-1.64 1.12-2.72 2.78-2.72 1.62 0 2.66 1.06 2.66 2.68v6.1h1.72v-6.06c0-1.64 1.12-2.72 2.78-2.72 1.62 0 2.66 1.06 2.66 2.68v6.1h1.72v-6.58c0-2.34-1.52-3.86-3.86-3.86zm7.509 10.58c.74 0 1.3-.56 1.3-1.28s-.56-1.28-1.3-1.28c-.72 0-1.28.56-1.28 1.28s.56 1.28 1.28 1.28z" fill="#B1B1B1"/>
    <rect x="146" y="93" width="99" height="99" rx="14" fill="#99C2DE"/>
    <defs>
        <filter id="a" x="0" y="0" width="576" height="679" filterUnits="userSpaceOnUse" color-interpolation-filters="sRGB">
            <feFlood flood-opacity="0" result="BackgroundImageFix"/>
            <feBlend in="SourceGraphic" in2="BackgroundImageFix" result="shape"/>
            <feGaussianBlur stdDeviation="75" result="effect1_foregroundBlur"/>
        </filter>
    </defs>
</svg>
