<svg width="819" height="354" viewBox="0 0 819 354" fill="none" xmlns="http://www.w3.org/2000/svg">
<g opacity="0.3" filter="url(#filter0_f)">
<rect x="92.9072" y="92.7471" width="632.826" height="168.253" rx="21.8371" fill="#0F0941" fill-opacity="0.5"/>
</g>
<rect x="82" y="86" width="655" height="175" rx="18.8866" fill="white"/>
<circle cx="699" cy="115" r="2" fill="#C4C4C4"/>
<circle cx="699" cy="124" r="2" fill="#C4C4C4"/>
<circle cx="699" cy="133" r="2" fill="#C4C4C4"/>
<path d="M289.98 142H293.3L289.86 136.86C291.7 136.28 292.96 134.7 292.96 132.72C292.96 130.14 290.94 128.2 288.28 128.2H282.4V142H285.16V137.08H286.8L289.98 142ZM285.16 130.8H288.22C289.3 130.8 290.12 131.64 290.12 132.74C290.12 133.84 289.3 134.68 288.22 134.68H285.16V130.8ZM302.362 131.8V133.02C301.542 132.12 300.402 131.56 299.042 131.56C296.202 131.56 294.062 133.86 294.062 136.9C294.062 139.94 296.202 142.24 299.042 142.24C300.402 142.24 301.542 141.68 302.362 140.78V142H304.962V131.8H302.362ZM299.542 139.72C297.942 139.72 296.742 138.5 296.742 136.9C296.742 135.3 297.942 134.08 299.542 134.08C301.162 134.08 302.362 135.3 302.362 136.9C302.362 138.5 301.162 139.72 299.542 139.72ZM308.735 130.3C309.655 130.3 310.375 129.6 310.375 128.68C310.375 127.76 309.655 127.06 308.735 127.06C307.815 127.06 307.095 127.76 307.095 128.68C307.095 129.6 307.815 130.3 308.735 130.3ZM307.435 142H310.035V131.8H307.435V142ZM316.033 142.24C318.473 142.24 320.393 141.06 320.393 138.9C320.393 136.58 318.293 136.08 316.673 135.72C315.533 135.48 314.673 135.26 314.673 134.58C314.673 133.98 315.393 133.7 316.273 133.7C317.313 133.7 318.173 134.08 318.913 134.64L320.173 132.9C319.253 132.18 317.953 131.56 316.213 131.56C313.953 131.56 312.053 132.62 312.053 134.78C312.053 137.1 314.153 137.6 315.773 137.96C316.893 138.22 317.773 138.46 317.773 139.14C317.773 139.76 317.013 140.1 315.973 140.1C314.753 140.1 313.773 139.64 312.993 138.96L311.733 140.68C312.713 141.52 314.133 142.24 316.033 142.24ZM323.442 130.3C324.362 130.3 325.082 129.6 325.082 128.68C325.082 127.76 324.362 127.06 323.442 127.06C322.522 127.06 321.802 127.76 321.802 128.68C321.802 129.6 322.522 130.3 323.442 130.3ZM322.142 142H324.742V131.8H322.142V142ZM333.06 131.56C331.74 131.56 330.62 132.04 329.82 132.94V131.8H327.22V142H329.82V136.4C329.82 135 330.78 134.08 332.2 134.08C333.56 134.08 334.44 134.98 334.44 136.36V142H337.04V135.52C337.04 133.12 335.46 131.56 333.06 131.56ZM345.849 142H342.529C341.889 142 341.449 141.64 341.449 141.14C341.449 140.8 341.649 140.46 341.969 140.26C342.489 140.42 343.049 140.52 343.649 140.52C346.369 140.52 348.449 138.6 348.449 136.04C348.449 135.04 348.129 134.12 347.569 133.4C347.669 132.94 348.089 132.66 348.609 132.66H349.329V130.26H348.489C347.149 130.26 346.169 130.94 345.869 132.04C345.209 131.74 344.469 131.56 343.649 131.56C340.909 131.56 338.869 133.48 338.869 136.04C338.869 137.32 339.369 138.42 340.229 139.22C339.389 139.74 338.849 140.74 338.849 141.78C338.849 143.4 340.109 144.5 342.009 144.5H345.349C346.269 144.5 346.889 144.98 346.969 145.72L349.649 145C349.309 143.12 347.869 142 345.849 142ZM343.649 134.02C344.849 134.02 345.769 134.88 345.769 136.04C345.769 137.2 344.849 138.06 343.649 138.06C342.429 138.06 341.529 137.2 341.529 136.04C341.529 134.88 342.429 134.02 343.649 134.02ZM358.398 142H361.718L358.278 136.86C360.118 136.28 361.378 134.7 361.378 132.72C361.378 130.14 359.358 128.2 356.698 128.2H350.818V142H353.578V137.08H355.218L358.398 142ZM353.578 130.8H356.638C357.718 130.8 358.538 131.64 358.538 132.74C358.538 133.84 357.718 134.68 356.638 134.68H353.578V130.8ZM364.614 130.3C365.534 130.3 366.254 129.6 366.254 128.68C366.254 127.76 365.534 127.06 364.614 127.06C363.694 127.06 362.974 127.76 362.974 128.68C362.974 129.6 363.694 130.3 364.614 130.3ZM363.314 142H365.914V131.8H363.314V142ZM374.872 142H371.552C370.912 142 370.472 141.64 370.472 141.14C370.472 140.8 370.672 140.46 370.992 140.26C371.512 140.42 372.072 140.52 372.672 140.52C375.392 140.52 377.472 138.6 377.472 136.04C377.472 135.04 377.152 134.12 376.592 133.4C376.692 132.94 377.112 132.66 377.632 132.66H378.352V130.26H377.512C376.172 130.26 375.192 130.94 374.892 132.04C374.232 131.74 373.492 131.56 372.672 131.56C369.932 131.56 367.892 133.48 367.892 136.04C367.892 137.32 368.392 138.42 369.252 139.22C368.412 139.74 367.872 140.74 367.872 141.78C367.872 143.4 369.132 144.5 371.032 144.5H374.372C375.292 144.5 375.912 144.98 375.992 145.72L378.672 145C378.332 143.12 376.892 142 374.872 142ZM372.672 134.02C373.872 134.02 374.792 134.88 374.792 136.04C374.792 137.2 373.872 138.06 372.672 138.06C371.452 138.06 370.552 137.2 370.552 136.04C370.552 134.88 371.452 134.02 372.672 134.02ZM385.521 131.56C384.201 131.56 383.081 132.06 382.281 133V127.6H379.681V142H382.281V136.4C382.281 135 383.241 134.08 384.681 134.08C386.021 134.08 386.901 134.98 386.901 136.36V142H389.501V135.52C389.501 133.12 387.921 131.56 385.521 131.56ZM397.661 134.18V131.8H394.921V129.22H392.321V131.8H390.701V134.18H392.321V138.84C392.321 140.88 393.421 142.24 395.761 142.24C396.521 142.24 397.101 142.1 397.661 141.8V139.38C397.281 139.56 396.841 139.72 396.321 139.72C395.401 139.72 394.921 139.28 394.921 138.42V134.18H397.661ZM401.277 135.66C402.297 135.66 403.077 134.88 403.077 133.86C403.077 132.84 402.297 132.06 401.277 132.06C400.237 132.06 399.457 132.84 399.457 133.86C399.457 134.88 400.237 135.66 401.277 135.66ZM401.277 142.18C402.297 142.18 403.077 141.4 403.077 140.38C403.077 139.36 402.297 138.58 401.277 138.58C400.237 138.58 399.457 139.36 399.457 140.38C399.457 141.4 400.237 142.18 401.277 142.18ZM418.841 130.8V128.2H409.861V142H412.621V136.5H418.041V133.9H412.621V130.8H418.841ZM426.003 131.64C424.803 131.64 423.803 132.18 423.063 133.12V131.8H420.463V142H423.063V137.16C423.063 135.42 424.143 134.32 426.003 134.32H426.443V131.64H426.003ZM432.588 142.24C435.708 142.24 438.068 139.94 438.068 136.9C438.068 133.86 435.708 131.56 432.588 131.56C429.468 131.56 427.108 133.86 427.108 136.9C427.108 139.94 429.468 142.24 432.588 142.24ZM432.588 139.72C430.988 139.72 429.788 138.5 429.788 136.9C429.788 135.3 430.988 134.08 432.588 134.08C434.208 134.08 435.388 135.3 435.388 136.9C435.388 138.5 434.208 139.72 432.588 139.72ZM452.235 131.56C450.755 131.56 449.575 132.14 448.755 133.22C448.115 132.18 446.995 131.56 445.555 131.56C444.315 131.56 443.295 132 442.535 132.86V131.8H439.935V142H442.535V136.18C442.535 134.92 443.415 134.08 444.675 134.08C445.895 134.08 446.695 134.9 446.695 136.14V142H449.295V136.18C449.295 134.92 450.155 134.08 451.435 134.08C452.655 134.08 453.435 134.9 453.435 136.14V142H456.035V135.36C456.035 133.06 454.535 131.56 452.235 131.56ZM466.164 139.4L473.084 130.18V128.2H462.464V130.8H469.304L462.384 140.02V142H473.224V139.4H466.164ZM485.037 136.92C485.037 133.84 482.737 131.56 479.677 131.56C476.597 131.56 474.257 133.84 474.257 136.86C474.257 139.92 476.677 142.24 479.917 142.24C481.837 142.24 483.477 141.46 484.537 140.2L482.797 138.68C482.257 139.36 481.237 139.94 479.997 139.94C478.517 139.94 477.437 139.12 477.077 137.84H484.977C485.017 137.56 485.037 137.2 485.037 136.92ZM479.657 133.84C480.917 133.84 481.937 134.66 482.257 135.94H477.057C477.377 134.68 478.377 133.84 479.657 133.84ZM492.389 131.64C491.189 131.64 490.189 132.18 489.449 133.12V131.8H486.849V142H489.449V137.16C489.449 135.42 490.529 134.32 492.389 134.32H492.829V131.64H492.389ZM498.975 142.24C502.095 142.24 504.455 139.94 504.455 136.9C504.455 133.86 502.095 131.56 498.975 131.56C495.855 131.56 493.495 133.86 493.495 136.9C493.495 139.94 495.855 142.24 498.975 142.24ZM498.975 139.72C497.375 139.72 496.175 138.5 496.175 136.9C496.175 135.3 497.375 134.08 498.975 134.08C500.595 134.08 501.775 135.3 501.775 136.9C501.775 138.5 500.595 139.72 498.975 139.72ZM517.153 134.18V131.8H514.413V129.22H511.813V131.8H510.193V134.18H511.813V138.84C511.813 140.88 512.913 142.24 515.253 142.24C516.013 142.24 516.593 142.1 517.153 141.8V139.38C516.773 139.56 516.333 139.72 515.813 139.72C514.893 139.72 514.413 139.28 514.413 138.42V134.18H517.153ZM523.643 142.24C526.763 142.24 529.123 139.94 529.123 136.9C529.123 133.86 526.763 131.56 523.643 131.56C520.523 131.56 518.163 133.86 518.163 136.9C518.163 139.94 520.523 142.24 523.643 142.24ZM523.643 139.72C522.043 139.72 520.843 138.5 520.843 136.9C520.843 135.3 522.043 134.08 523.643 134.08C525.263 134.08 526.443 135.3 526.443 136.9C526.443 138.5 525.263 139.72 523.643 139.72ZM544.681 130.8V128.2H535.701V142H538.461V136.5H543.881V133.9H538.461V130.8H544.681ZM550.766 142.24C553.626 142.24 555.526 140.54 555.526 137.94V131.8H552.926V137.58C552.926 138.88 552.066 139.72 550.766 139.72C549.466 139.72 548.606 138.88 548.606 137.58V131.8H546.006V137.94C546.006 140.54 547.886 142.24 550.766 142.24ZM563.685 131.56C562.365 131.56 561.245 132.04 560.445 132.94V131.8H557.845V142H560.445V136.4C560.445 135 561.405 134.08 562.825 134.08C564.185 134.08 565.065 134.98 565.065 136.36V142H567.665V135.52C567.665 133.12 566.085 131.56 563.685 131.56ZM577.714 127.6V133.02C576.894 132.12 575.754 131.56 574.394 131.56C571.554 131.56 569.414 133.86 569.414 136.9C569.414 139.94 571.554 142.24 574.394 142.24C575.754 142.24 576.894 141.68 577.714 140.78V142H580.314V127.6H577.714ZM574.894 139.72C573.294 139.72 572.094 138.5 572.094 136.9C572.094 135.3 573.294 134.08 574.894 134.08C576.514 134.08 577.714 135.3 577.714 136.9C577.714 138.5 576.514 139.72 574.894 139.72ZM592.947 136.92C592.947 133.84 590.647 131.56 587.587 131.56C584.507 131.56 582.167 133.84 582.167 136.86C582.167 139.92 584.587 142.24 587.827 142.24C589.747 142.24 591.387 141.46 592.447 140.2L590.707 138.68C590.167 139.36 589.147 139.94 587.907 139.94C586.427 139.94 585.347 139.12 584.987 137.84H592.887C592.927 137.56 592.947 137.2 592.947 136.92ZM587.567 133.84C588.827 133.84 589.847 134.66 590.167 135.94H584.967C585.287 134.68 586.287 133.84 587.567 133.84ZM602.48 127.6V133.02C601.66 132.12 600.52 131.56 599.16 131.56C596.32 131.56 594.18 133.86 594.18 136.9C594.18 139.94 596.32 142.24 599.16 142.24C600.52 142.24 601.66 141.68 602.48 140.78V142H605.08V127.6H602.48ZM599.66 139.72C598.06 139.72 596.86 138.5 596.86 136.9C596.86 135.3 598.06 134.08 599.66 134.08C601.28 134.08 602.48 135.3 602.48 136.9C602.48 138.5 601.28 139.72 599.66 139.72Z" fill="#131313"/>
<path d="M283.076 221.968L285.644 219.22C286.244 218.572 286.724 217.876 286.724 216.94C286.724 215.56 285.656 214.576 284.144 214.576C282.98 214.576 281.972 215.188 281.42 216.1L282.188 216.796C282.644 216.112 283.304 215.668 284.084 215.668C284.948 215.668 285.596 216.208 285.596 217C285.596 217.612 285.176 218.164 284.684 218.704L281.54 222.124V223H286.916V221.968H283.076ZM292.118 218.632C292.91 218.296 293.414 217.6 293.414 216.76C293.414 215.5 292.274 214.576 290.666 214.576C289.646 214.576 288.638 214.972 288.014 215.656L288.614 216.436C289.058 215.932 289.79 215.632 290.534 215.632C291.566 215.632 292.286 216.184 292.286 216.916C292.286 217.636 291.602 218.176 290.678 218.176H289.43V219.124H290.678C291.734 219.124 292.514 219.76 292.514 220.612C292.514 221.464 291.71 222.088 290.582 222.088C289.73 222.088 288.902 221.752 288.35 221.152L287.702 221.968C288.422 222.712 289.526 223.144 290.654 223.144C292.406 223.144 293.642 222.148 293.642 220.756C293.642 219.784 293.042 218.992 292.118 218.632ZM294.372 214.72V215.752H298.464L295.044 223H296.28L299.772 215.572V214.72H294.372ZM311.153 214.72L308.309 219.64L305.477 214.72H304.085V223H305.189V216.388L307.997 221.26H308.609L311.417 216.388V223H312.509V214.72H311.153ZM320.372 219.94C320.372 218.104 319.004 216.736 317.18 216.736C315.344 216.736 313.964 218.104 313.964 219.916C313.964 221.752 315.392 223.144 317.312 223.144C318.5 223.144 319.508 222.628 320.12 221.812L319.412 221.2C319.016 221.764 318.248 222.196 317.348 222.196C316.16 222.196 315.284 221.464 315.08 220.396H320.348C320.36 220.252 320.372 220.084 320.372 219.94ZM317.168 217.684C318.248 217.684 319.088 218.404 319.28 219.46H315.068C315.26 218.416 316.1 217.684 317.168 217.684ZM329.004 216.736C328.02 216.736 327.24 217.168 326.784 217.936C326.424 217.18 325.692 216.736 324.732 216.736C323.868 216.736 323.172 217.084 322.728 217.708V216.88H321.696V223H322.728V219.364C322.728 218.38 323.4 217.732 324.396 217.732C325.368 217.732 325.992 218.368 325.992 219.34V223H327.024V219.364C327.024 218.38 327.696 217.732 328.692 217.732C329.664 217.732 330.288 218.368 330.288 219.34V223H331.32V219.052C331.32 217.648 330.408 216.736 329.004 216.736ZM336.389 216.736C335.369 216.736 334.529 217.216 334.013 217.984V214.36H332.981V223H334.013V221.896C334.529 222.664 335.369 223.144 336.389 223.144C338.141 223.144 339.461 221.764 339.461 219.94C339.461 218.116 338.141 216.736 336.389 216.736ZM336.197 222.148C334.949 222.148 334.013 221.2 334.013 219.94C334.013 218.68 334.949 217.732 336.197 217.732C337.457 217.732 338.393 218.68 338.393 219.94C338.393 221.2 337.457 222.148 336.197 222.148ZM346.845 219.94C346.845 218.104 345.477 216.736 343.653 216.736C341.817 216.736 340.437 218.104 340.437 219.916C340.437 221.752 341.865 223.144 343.785 223.144C344.973 223.144 345.981 222.628 346.593 221.812L345.885 221.2C345.489 221.764 344.721 222.196 343.821 222.196C342.633 222.196 341.757 221.464 341.553 220.396H346.821C346.833 220.252 346.845 220.084 346.845 219.94ZM343.641 217.684C344.721 217.684 345.561 218.404 345.753 219.46H341.541C341.733 218.416 342.573 217.684 343.641 217.684ZM351.289 216.784C350.377 216.784 349.657 217.204 349.201 217.936V216.88H348.169V223H349.201V219.94C349.201 218.668 349.993 217.852 351.289 217.852H351.493V216.784H351.289ZM354.556 223.144C355.936 223.144 357.028 222.46 357.028 221.248C357.028 219.976 355.852 219.676 354.844 219.436C354.028 219.244 353.332 219.076 353.332 218.476C353.332 217.948 353.92 217.672 354.628 217.672C355.3 217.672 355.876 217.936 356.284 218.332L356.86 217.576C356.344 217.108 355.588 216.736 354.616 216.736C353.356 216.736 352.276 217.348 352.276 218.536C352.276 219.82 353.464 220.132 354.472 220.384C355.276 220.576 355.96 220.756 355.96 221.344C355.96 221.896 355.348 222.208 354.544 222.208C353.752 222.208 353.104 221.908 352.648 221.44L352.072 222.184C352.636 222.724 353.476 223.144 354.556 223.144ZM364.595 225.28H365.543V214H364.595V225.28ZM374.775 221.968V214.72H373.671V223H378.795V221.968H374.775ZM384.756 216.88V217.984C384.24 217.216 383.4 216.736 382.38 216.736C380.628 216.736 379.32 218.116 379.32 219.94C379.32 221.764 380.628 223.144 382.38 223.144C383.4 223.144 384.24 222.664 384.756 221.896V223H385.788V216.88H384.756ZM382.572 222.148C381.312 222.148 380.376 221.2 380.376 219.94C380.376 218.68 381.312 217.732 382.572 217.732C383.82 217.732 384.756 218.68 384.756 219.94C384.756 221.2 383.82 222.148 382.572 222.148ZM389.548 223.144C390.928 223.144 392.02 222.46 392.02 221.248C392.02 219.976 390.844 219.676 389.836 219.436C389.02 219.244 388.324 219.076 388.324 218.476C388.324 217.948 388.912 217.672 389.62 217.672C390.292 217.672 390.868 217.936 391.276 218.332L391.852 217.576C391.336 217.108 390.58 216.736 389.608 216.736C388.348 216.736 387.268 217.348 387.268 218.536C387.268 219.82 388.456 220.132 389.464 220.384C390.268 220.576 390.952 220.756 390.952 221.344C390.952 221.896 390.34 222.208 389.536 222.208C388.744 222.208 388.096 221.908 387.64 221.44L387.064 222.184C387.628 222.724 388.468 223.144 389.548 223.144ZM396.674 217.816V216.88H394.838V215.236H393.806V216.88H392.702V217.816H393.806V221.368C393.806 222.496 394.418 223.144 395.606 223.144C396.038 223.144 396.362 223.06 396.674 222.892V221.92C396.422 222.052 396.158 222.148 395.822 222.148C395.198 222.148 394.838 221.86 394.838 221.2V217.816H396.674ZM407.178 223H408.39L405.018 214.72H403.71L400.338 223H401.514L402.318 220.996H406.374L407.178 223ZM402.726 219.976L404.346 215.908L405.966 219.976H402.726ZM412.209 223.144C413.421 223.144 414.453 222.544 415.005 221.608L414.105 221.068C413.733 221.716 413.037 222.148 412.209 222.148C410.949 222.148 410.013 221.2 410.013 219.94C410.013 218.68 410.949 217.732 412.209 217.732C413.037 217.732 413.733 218.164 414.105 218.812L415.005 218.272C414.453 217.336 413.421 216.736 412.209 216.736C410.349 216.736 408.945 218.116 408.945 219.94C408.945 221.764 410.349 223.144 412.209 223.144ZM419.713 217.816V216.88H417.877V215.236H416.845V216.88H415.741V217.816H416.845V221.368C416.845 222.496 417.457 223.144 418.645 223.144C419.077 223.144 419.401 223.06 419.713 222.892V221.92C419.461 222.052 419.197 222.148 418.861 222.148C418.237 222.148 417.877 221.86 417.877 221.2V217.816H419.713ZM421.552 215.656C421.936 215.656 422.236 215.356 422.236 214.972C422.236 214.576 421.936 214.288 421.552 214.288C421.156 214.288 420.856 214.576 420.856 214.972C420.856 215.356 421.156 215.656 421.552 215.656ZM421.036 223H422.068V216.88H421.036V223ZM428.422 216.88L426.358 221.764L424.294 216.88H423.106L425.794 223H426.886L429.574 216.88H428.422ZM436.283 219.94C436.283 218.104 434.915 216.736 433.091 216.736C431.255 216.736 429.875 218.104 429.875 219.916C429.875 221.752 431.303 223.144 433.223 223.144C434.411 223.144 435.419 222.628 436.031 221.812L435.323 221.2C434.927 221.764 434.159 222.196 433.259 222.196C432.071 222.196 431.195 221.464 430.991 220.396H436.259C436.271 220.252 436.283 220.084 436.283 219.94ZM433.079 217.684C434.159 217.684 434.999 218.404 435.191 219.46H430.979C431.171 218.416 432.011 217.684 433.079 217.684ZM442.371 214.72L439.923 216.064L440.391 216.94L442.047 216.04V223H443.139V214.72H442.371ZM453.1 214.36V217.984C452.584 217.216 451.744 216.736 450.724 216.736C448.972 216.736 447.664 218.116 447.664 219.94C447.664 221.764 448.972 223.144 450.724 223.144C451.744 223.144 452.584 222.664 453.1 221.896V223H454.132V214.36H453.1ZM450.916 222.148C449.656 222.148 448.72 221.2 448.72 219.94C448.72 218.68 449.656 217.732 450.916 217.732C452.164 217.732 453.1 218.68 453.1 219.94C453.1 221.2 452.164 222.148 450.916 222.148ZM460.952 216.88V217.984C460.436 217.216 459.596 216.736 458.576 216.736C456.824 216.736 455.516 218.116 455.516 219.94C455.516 221.764 456.824 223.144 458.576 223.144C459.596 223.144 460.436 222.664 460.952 221.896V223H461.984V216.88H460.952ZM458.768 222.148C457.508 222.148 456.572 221.2 456.572 219.94C456.572 218.68 457.508 217.732 458.768 217.732C460.016 217.732 460.952 218.68 460.952 219.94C460.952 221.2 460.016 222.148 458.768 222.148ZM468.347 216.88L466.283 221.764L464.219 216.88H463.031L465.695 222.964L465.251 223.876C465.059 224.272 464.783 224.428 464.471 224.428C464.159 224.428 463.859 224.272 463.655 224.044L463.223 224.836C463.583 225.196 464.147 225.424 464.627 225.424C465.287 225.424 465.887 225.016 466.199 224.296L469.499 216.88H468.347ZM478.577 216.88V217.984C478.061 217.216 477.221 216.736 476.201 216.736C474.449 216.736 473.141 218.116 473.141 219.94C473.141 221.764 474.449 223.144 476.201 223.144C477.221 223.144 478.061 222.664 478.577 221.896V223H479.609V216.88H478.577ZM476.393 222.148C475.133 222.148 474.197 221.2 474.197 219.94C474.197 218.68 475.133 217.732 476.393 217.732C477.641 217.732 478.577 218.68 478.577 219.94C478.577 221.2 477.641 222.148 476.393 222.148ZM485.216 223.156H482.972C482.456 223.156 482.108 222.88 482.108 222.448C482.108 222.184 482.252 221.92 482.492 221.764C482.876 221.956 483.308 222.052 483.788 222.052C485.372 222.052 486.584 220.9 486.584 219.388C486.584 218.74 486.368 218.164 485.984 217.708C485.996 217.3 486.296 217.036 486.74 217.036H487.148V216.076H486.68C485.936 216.076 485.408 216.484 485.288 217.132C484.856 216.88 484.352 216.736 483.788 216.736C482.192 216.736 480.992 217.876 480.992 219.388C480.992 220.168 481.316 220.852 481.832 221.332C481.364 221.596 481.076 222.136 481.076 222.712C481.076 223.576 481.76 224.164 482.78 224.164H485.036C485.732 224.164 486.212 224.524 486.236 225.076L487.304 224.8C487.184 223.78 486.368 223.156 485.216 223.156ZM483.788 217.72C484.772 217.72 485.516 218.44 485.516 219.388C485.516 220.348 484.772 221.068 483.788 221.068C482.804 221.068 482.06 220.348 482.06 219.388C482.06 218.44 482.792 217.72 483.788 217.72ZM490.912 223.144C492.76 223.144 494.164 221.764 494.164 219.94C494.164 218.116 492.76 216.736 490.912 216.736C489.052 216.736 487.648 218.116 487.648 219.94C487.648 221.764 489.052 223.144 490.912 223.144ZM490.912 222.148C489.652 222.148 488.716 221.2 488.716 219.94C488.716 218.68 489.652 217.732 490.912 217.732C492.16 217.732 493.096 218.68 493.096 219.94C493.096 221.2 492.16 222.148 490.912 222.148Z" fill="#B1B1B1"/>
<path d="M283.768 173.624V163.96H282.296V175H289.128V173.624H283.768ZM298.34 170.92C298.34 168.472 296.516 166.648 294.084 166.648C291.636 166.648 289.796 168.472 289.796 170.888C289.796 173.336 291.7 175.192 294.26 175.192C295.844 175.192 297.188 174.504 298.004 173.416L297.06 172.6C296.532 173.352 295.508 173.928 294.308 173.928C292.724 173.928 291.556 172.952 291.284 171.528H298.308C298.324 171.336 298.34 171.112 298.34 170.92ZM294.068 167.912C295.508 167.912 296.628 168.872 296.884 170.28H291.268C291.524 168.888 292.644 167.912 294.068 167.912ZM306.858 166.84V168.312C306.17 167.288 305.05 166.648 303.69 166.648C301.354 166.648 299.61 168.488 299.61 170.92C299.61 173.352 301.354 175.192 303.69 175.192C305.05 175.192 306.17 174.552 306.858 173.528V175H308.234V166.84H306.858ZM303.946 173.864C302.266 173.864 301.018 172.6 301.018 170.92C301.018 169.24 302.266 167.976 303.946 167.976C305.61 167.976 306.858 169.24 306.858 170.92C306.858 172.6 305.61 173.864 303.946 173.864ZM314.734 166.712C313.518 166.712 312.558 167.272 311.95 168.248V166.84H310.574V175H311.95V170.92C311.95 169.224 313.006 168.136 314.734 168.136H315.006V166.712H314.734ZM320.816 166.648C319.536 166.648 318.512 167.16 317.872 168.088V166.84H316.496V175H317.872V170.424C317.872 168.952 318.864 167.976 320.368 167.976C321.824 167.976 322.752 168.936 322.752 170.392V175H324.128V169.96C324.128 167.96 322.8 166.648 320.816 166.648ZM335.013 168.088V166.84H332.565V164.648H331.189V166.84H329.717V168.088H331.189V172.824C331.189 174.328 332.005 175.192 333.589 175.192C334.165 175.192 334.597 175.08 335.013 174.856V173.56C334.677 173.736 334.325 173.864 333.877 173.864C333.045 173.864 332.565 173.48 332.565 172.6V168.088H335.013ZM341.097 166.648C339.817 166.648 338.793 167.176 338.153 168.136V163.48H336.777V175H338.153V170.424C338.153 168.952 339.145 167.976 340.649 167.976C342.105 167.976 343.033 168.936 343.033 170.392V175H344.409V169.96C344.409 167.96 343.081 166.648 341.097 166.648ZM354.653 170.92C354.653 168.472 352.829 166.648 350.397 166.648C347.949 166.648 346.109 168.472 346.109 170.888C346.109 173.336 348.013 175.192 350.573 175.192C352.157 175.192 353.501 174.504 354.317 173.416L353.373 172.6C352.845 173.352 351.821 173.928 350.621 173.928C349.037 173.928 347.869 172.952 347.597 171.528H354.621C354.637 171.336 354.653 171.112 354.653 170.92ZM350.381 167.912C351.821 167.912 352.941 168.872 353.197 170.28H347.581C347.837 168.888 348.957 167.912 350.381 167.912ZM364.915 166.648C363.555 166.648 362.435 167.288 361.747 168.312V166.84H360.371V178.04H361.747V173.528C362.435 174.552 363.555 175.192 364.915 175.192C367.251 175.192 369.011 173.352 369.011 170.92C369.011 168.488 367.251 166.648 364.915 166.648ZM364.659 173.864C362.995 173.864 361.747 172.6 361.747 170.92C361.747 169.24 362.995 167.976 364.659 167.976C366.339 167.976 367.587 169.24 367.587 170.92C367.587 172.6 366.339 173.864 364.659 173.864ZM375 166.712C373.784 166.712 372.824 167.272 372.216 168.248V166.84H370.84V175H372.216V170.92C372.216 169.224 373.272 168.136 375 168.136H375.272V166.712H375ZM380.211 175.192C382.675 175.192 384.547 173.352 384.547 170.92C384.547 168.488 382.675 166.648 380.211 166.648C377.731 166.648 375.859 168.488 375.859 170.92C375.859 173.352 377.731 175.192 380.211 175.192ZM380.211 173.864C378.531 173.864 377.283 172.6 377.283 170.92C377.283 169.24 378.531 167.976 380.211 167.976C381.875 167.976 383.123 169.24 383.123 170.92C383.123 172.6 381.875 173.864 380.211 173.864ZM390.18 175.192C391.796 175.192 393.172 174.392 393.908 173.144L392.708 172.424C392.212 173.288 391.284 173.864 390.18 173.864C388.5 173.864 387.252 172.6 387.252 170.92C387.252 169.24 388.5 167.976 390.18 167.976C391.284 167.976 392.212 168.552 392.708 169.416L393.908 168.696C393.172 167.448 391.796 166.648 390.18 166.648C387.7 166.648 385.828 168.488 385.828 170.92C385.828 173.352 387.7 175.192 390.18 175.192ZM403.512 170.92C403.512 168.472 401.688 166.648 399.256 166.648C396.808 166.648 394.968 168.472 394.968 170.888C394.968 173.336 396.872 175.192 399.432 175.192C401.016 175.192 402.36 174.504 403.176 173.416L402.232 172.6C401.704 173.352 400.68 173.928 399.48 173.928C397.896 173.928 396.728 172.952 396.456 171.528H403.48C403.496 171.336 403.512 171.112 403.512 170.92ZM399.24 167.912C400.68 167.912 401.8 168.872 402.056 170.28H396.44C396.696 168.888 397.816 167.912 399.24 167.912ZM407.949 175.192C409.789 175.192 411.245 174.28 411.245 172.664C411.245 170.968 409.677 170.568 408.333 170.248C407.245 169.992 406.317 169.768 406.317 168.968C406.317 168.264 407.101 167.896 408.045 167.896C408.941 167.896 409.709 168.248 410.253 168.776L411.021 167.768C410.333 167.144 409.325 166.648 408.029 166.648C406.349 166.648 404.909 167.464 404.909 169.048C404.909 170.76 406.493 171.176 407.837 171.512C408.909 171.768 409.821 172.008 409.821 172.792C409.821 173.528 409.005 173.944 407.933 173.944C406.877 173.944 406.013 173.544 405.405 172.92L404.637 173.912C405.389 174.632 406.509 175.192 407.949 175.192ZM415.637 175.192C417.477 175.192 418.933 174.28 418.933 172.664C418.933 170.968 417.365 170.568 416.021 170.248C414.933 169.992 414.005 169.768 414.005 168.968C414.005 168.264 414.789 167.896 415.733 167.896C416.629 167.896 417.397 168.248 417.941 168.776L418.709 167.768C418.021 167.144 417.013 166.648 415.717 166.648C414.037 166.648 412.597 167.464 412.597 169.048C412.597 170.76 414.181 171.176 415.525 171.512C416.597 171.768 417.509 172.008 417.509 172.792C417.509 173.528 416.693 173.944 415.621 173.944C414.565 173.944 413.701 173.544 413.093 172.92L412.325 173.912C413.077 174.632 414.197 175.192 415.637 175.192ZM428.445 175.192C430.909 175.192 432.781 173.352 432.781 170.92C432.781 168.488 430.909 166.648 428.445 166.648C425.965 166.648 424.093 168.488 424.093 170.92C424.093 173.352 425.965 175.192 428.445 175.192ZM428.445 173.864C426.765 173.864 425.517 172.6 425.517 170.92C425.517 169.24 426.765 167.976 428.445 167.976C430.109 167.976 431.357 169.24 431.357 170.92C431.357 172.6 430.109 173.864 428.445 173.864ZM437.673 164.552C438.121 164.552 438.457 164.664 438.793 164.84V163.624C438.361 163.4 437.961 163.288 437.385 163.288C435.801 163.288 434.985 164.168 434.985 165.704V166.84H433.497V168.088H434.985V175H436.361V168.088H438.713V166.84H436.361V165.8C436.361 164.92 436.841 164.552 437.673 164.552ZM448.344 166.712C447.128 166.712 446.168 167.272 445.56 168.248V166.84H444.184V175H445.56V170.92C445.56 169.224 446.616 168.136 448.344 168.136H448.616V166.712H448.344ZM456.483 166.84V168.312C455.795 167.288 454.675 166.648 453.315 166.648C450.979 166.648 449.235 168.488 449.235 170.92C449.235 173.352 450.979 175.192 453.315 175.192C454.675 175.192 455.795 174.552 456.483 173.528V175H457.859V166.84H456.483ZM453.571 173.864C451.891 173.864 450.643 172.6 450.643 170.92C450.643 169.24 451.891 167.976 453.571 167.976C455.235 167.976 456.483 169.24 456.483 170.92C456.483 172.6 455.235 173.864 453.571 173.864ZM460.887 165.208C461.399 165.208 461.799 164.808 461.799 164.296C461.799 163.768 461.399 163.384 460.887 163.384C460.359 163.384 459.959 163.768 459.959 164.296C459.959 164.808 460.359 165.208 460.887 165.208ZM460.199 175H461.575V166.84H460.199V175ZM466.574 175.192C468.414 175.192 469.87 174.28 469.87 172.664C469.87 170.968 468.302 170.568 466.958 170.248C465.87 169.992 464.942 169.768 464.942 168.968C464.942 168.264 465.726 167.896 466.67 167.896C467.566 167.896 468.334 168.248 468.878 168.776L469.646 167.768C468.958 167.144 467.95 166.648 466.654 166.648C464.974 166.648 463.534 167.464 463.534 169.048C463.534 170.76 465.118 171.176 466.462 171.512C467.534 171.768 468.446 172.008 468.446 172.792C468.446 173.528 467.63 173.944 466.558 173.944C465.502 173.944 464.638 173.544 464.03 172.92L463.262 173.912C464.014 174.632 465.134 175.192 466.574 175.192ZM472.294 165.208C472.806 165.208 473.206 164.808 473.206 164.296C473.206 163.768 472.806 163.384 472.294 163.384C471.766 163.384 471.366 163.768 471.366 164.296C471.366 164.808 471.766 165.208 472.294 165.208ZM471.606 175H472.982V166.84H471.606V175ZM479.629 166.648C478.349 166.648 477.325 167.16 476.685 168.088V166.84H475.309V175H476.685V170.424C476.685 168.952 477.677 167.976 479.181 167.976C480.637 167.976 481.565 168.936 481.565 170.392V175H482.941V169.96C482.941 167.96 481.613 166.648 479.629 166.648ZM490.304 175.208H487.312C486.624 175.208 486.16 174.84 486.16 174.264C486.16 173.912 486.352 173.56 486.672 173.352C487.184 173.608 487.76 173.736 488.4 173.736C490.512 173.736 492.128 172.2 492.128 170.184C492.128 169.32 491.84 168.552 491.328 167.944C491.344 167.4 491.744 167.048 492.336 167.048H492.88V165.768H492.256C491.264 165.768 490.56 166.312 490.4 167.176C489.824 166.84 489.152 166.648 488.4 166.648C486.272 166.648 484.672 168.168 484.672 170.184C484.672 171.224 485.104 172.136 485.792 172.776C485.168 173.128 484.784 173.848 484.784 174.616C484.784 175.768 485.696 176.552 487.056 176.552H490.064C490.992 176.552 491.632 177.032 491.664 177.768L493.088 177.4C492.928 176.04 491.84 175.208 490.304 175.208ZM488.4 167.96C489.712 167.96 490.704 168.92 490.704 170.184C490.704 171.464 489.712 172.424 488.4 172.424C487.088 172.424 486.096 171.464 486.096 170.184C486.096 168.92 487.072 167.96 488.4 167.96ZM501.658 164.552C502.106 164.552 502.442 164.664 502.778 164.84V163.624C502.346 163.4 501.946 163.288 501.37 163.288C499.786 163.288 498.97 164.168 498.97 165.704V166.84H497.482V168.088H498.97V175H500.346V168.088H502.698V166.84H500.346V165.8C500.346 164.92 500.826 164.552 501.658 164.552ZM507.845 175.192C510.069 175.192 511.541 173.832 511.541 171.768V166.84H510.165V171.576C510.165 172.952 509.237 173.864 507.845 173.864C506.453 173.864 505.525 172.952 505.525 171.576V166.84H504.149V171.768C504.149 173.832 505.621 175.192 507.845 175.192ZM518.066 166.648C516.786 166.648 515.762 167.16 515.122 168.088V166.84H513.746V175H515.122V170.424C515.122 168.952 516.114 167.976 517.618 167.976C519.074 167.976 520.002 168.936 520.002 170.392V175H521.378V169.96C521.378 167.96 520.05 166.648 518.066 166.648ZM530.358 163.48V168.312C529.67 167.288 528.55 166.648 527.19 166.648C524.854 166.648 523.11 168.488 523.11 170.92C523.11 173.352 524.854 175.192 527.19 175.192C528.55 175.192 529.67 174.552 530.358 173.528V175H531.734V163.48H530.358ZM527.446 173.864C525.766 173.864 524.518 172.6 524.518 170.92C524.518 169.24 525.766 167.976 527.446 167.976C529.11 167.976 530.358 169.24 530.358 170.92C530.358 172.6 529.11 173.864 527.446 173.864ZM536.746 175.192C538.586 175.192 540.042 174.28 540.042 172.664C540.042 170.968 538.474 170.568 537.13 170.248C536.042 169.992 535.114 169.768 535.114 168.968C535.114 168.264 535.898 167.896 536.842 167.896C537.738 167.896 538.506 168.248 539.05 168.776L539.818 167.768C539.13 167.144 538.122 166.648 536.826 166.648C535.146 166.648 533.706 167.464 533.706 169.048C533.706 170.76 535.29 171.176 536.634 171.512C537.706 171.768 538.618 172.008 538.618 172.792C538.618 173.528 537.802 173.944 536.73 173.944C535.674 173.944 534.81 173.544 534.202 172.92L533.434 173.912C534.186 174.632 535.306 175.192 536.746 175.192ZM549.283 164.552C549.731 164.552 550.067 164.664 550.403 164.84V163.624C549.971 163.4 549.571 163.288 548.995 163.288C547.411 163.288 546.595 164.168 546.595 165.704V166.84H545.107V168.088H546.595V175H547.971V168.088H550.323V166.84H547.971V165.8C547.971 164.92 548.451 164.552 549.283 164.552ZM555.195 175.192C557.659 175.192 559.531 173.352 559.531 170.92C559.531 168.488 557.659 166.648 555.195 166.648C552.715 166.648 550.843 168.488 550.843 170.92C550.843 173.352 552.715 175.192 555.195 175.192ZM555.195 173.864C553.515 173.864 552.267 172.6 552.267 170.92C552.267 169.24 553.515 167.976 555.195 167.976C556.859 167.976 558.107 169.24 558.107 170.92C558.107 172.6 556.859 173.864 555.195 173.864ZM565.5 166.712C564.284 166.712 563.324 167.272 562.716 168.248V166.84H561.34V175H562.716V170.92C562.716 169.224 563.772 168.136 565.5 168.136H565.772V166.712H565.5ZM577.967 166.84V168.312C577.279 167.288 576.159 166.648 574.799 166.648C572.463 166.648 570.719 168.488 570.719 170.92C570.719 173.352 572.463 175.192 574.799 175.192C576.159 175.192 577.279 174.552 577.967 173.528V175H579.343V166.84H577.967ZM575.055 173.864C573.375 173.864 572.127 172.6 572.127 170.92C572.127 169.24 573.375 167.976 575.055 167.976C576.719 167.976 577.967 169.24 577.967 170.92C577.967 172.6 576.719 173.864 575.055 173.864ZM588.309 175.192C590.149 175.192 591.605 174.28 591.605 172.664C591.605 170.968 590.037 170.568 588.693 170.248C587.605 169.992 586.677 169.768 586.677 168.968C586.677 168.264 587.461 167.896 588.405 167.896C589.301 167.896 590.069 168.248 590.613 168.776L591.381 167.768C590.693 167.144 589.685 166.648 588.389 166.648C586.709 166.648 585.269 167.464 585.269 169.048C585.269 170.76 586.853 171.176 588.197 171.512C589.269 171.768 590.181 172.008 590.181 172.792C590.181 173.528 589.365 173.944 588.293 173.944C587.237 173.944 586.373 173.544 585.765 172.92L584.997 173.912C585.749 174.632 586.869 175.192 588.309 175.192ZM597.81 168.088V166.84H595.362V164.648H593.986V166.84H592.514V168.088H593.986V172.824C593.986 174.328 594.802 175.192 596.386 175.192C596.962 175.192 597.394 175.08 597.81 174.856V173.56C597.474 173.736 597.122 173.864 596.674 173.864C595.842 173.864 595.362 173.48 595.362 172.6V168.088H597.81ZM606.014 166.84V168.312C605.326 167.288 604.206 166.648 602.846 166.648C600.51 166.648 598.766 168.488 598.766 170.92C598.766 173.352 600.51 175.192 602.846 175.192C604.206 175.192 605.326 174.552 606.014 173.528V175H607.39V166.84H606.014ZM603.102 173.864C601.422 173.864 600.174 172.6 600.174 170.92C600.174 169.24 601.422 167.976 603.102 167.976C604.766 167.976 606.014 169.24 606.014 170.92C606.014 172.6 604.766 173.864 603.102 173.864ZM613.891 166.712C612.674 166.712 611.715 167.272 611.107 168.248V166.84H609.731V175H611.107V170.92C611.107 169.224 612.163 168.136 613.891 168.136H614.163V166.712H613.891ZM620.45 168.088V166.84H618.002V164.648H616.626V166.84H615.154V168.088H616.626V172.824C616.626 174.328 617.442 175.192 619.026 175.192C619.602 175.192 620.034 175.08 620.45 174.856V173.56C620.114 173.736 619.762 173.864 619.314 173.864C618.482 173.864 618.002 173.48 618.002 172.6V168.088H620.45ZM625.783 175.192C628.007 175.192 629.479 173.832 629.479 171.768V166.84H628.103V171.576C628.103 172.952 627.175 173.864 625.783 173.864C624.391 173.864 623.463 172.952 623.463 171.576V166.84H622.087V171.768C622.087 173.832 623.559 175.192 625.783 175.192ZM636.228 166.648C634.868 166.648 633.748 167.288 633.06 168.312V166.84H631.684V178.04H633.06V173.528C633.748 174.552 634.868 175.192 636.228 175.192C638.564 175.192 640.324 173.352 640.324 170.92C640.324 168.488 638.564 166.648 636.228 166.648ZM635.972 173.864C634.308 173.864 633.06 172.6 633.06 170.92C633.06 169.24 634.308 167.976 635.972 167.976C637.652 167.976 638.9 169.24 638.9 170.92C638.9 172.6 637.652 173.864 635.972 173.864ZM649.658 164.552C650.106 164.552 650.442 164.664 650.778 164.84V163.624C650.346 163.4 649.946 163.288 649.37 163.288C647.786 163.288 646.97 164.168 646.97 165.704V166.84H645.482V168.088H646.97V175H648.346V168.088H650.698V166.84H648.346V165.8C648.346 164.92 648.826 164.552 649.658 164.552ZM656.375 166.712C655.159 166.712 654.199 167.272 653.591 168.248V166.84H652.215V175H653.591V170.92C653.591 169.224 654.647 168.136 656.375 168.136H656.647V166.712H656.375ZM661.586 175.192C664.05 175.192 665.922 173.352 665.922 170.92C665.922 168.488 664.05 166.648 661.586 166.648C659.106 166.648 657.234 168.488 657.234 170.92C657.234 173.352 659.106 175.192 661.586 175.192ZM661.586 173.864C659.906 173.864 658.658 172.6 658.658 170.92C658.658 169.24 659.906 167.976 661.586 167.976C663.25 167.976 664.498 169.24 664.498 170.92C664.498 172.6 663.25 173.864 661.586 173.864ZM677.475 166.648C676.163 166.648 675.123 167.224 674.515 168.248C674.035 167.24 673.059 166.648 671.779 166.648C670.627 166.648 669.699 167.112 669.107 167.944V166.84H667.731V175H669.107V170.152C669.107 168.84 670.003 167.976 671.331 167.976C672.627 167.976 673.459 168.824 673.459 170.12V175H674.835V170.152C674.835 168.84 675.731 167.976 677.059 167.976C678.355 167.976 679.187 168.824 679.187 170.12V175H680.563V169.736C680.563 167.864 679.347 166.648 677.475 166.648ZM283.624 194.672L288.184 188.832V187.84H281.768V189.168H286.264L281.704 195.008V196H288.296V194.672H283.624ZM297.809 191.92C297.809 189.472 295.985 187.648 293.553 187.648C291.105 187.648 289.265 189.472 289.265 191.888C289.265 194.336 291.169 196.192 293.729 196.192C295.313 196.192 296.657 195.504 297.473 194.416L296.529 193.6C296.001 194.352 294.977 194.928 293.777 194.928C292.193 194.928 291.025 193.952 290.753 192.528H297.777C297.793 192.336 297.809 192.112 297.809 191.92ZM293.537 188.912C294.977 188.912 296.097 189.872 296.353 191.28H290.737C290.993 189.888 292.113 188.912 293.537 188.912ZM303.734 187.712C302.518 187.712 301.558 188.272 300.95 189.248V187.84H299.574V196H300.95V191.92C300.95 190.224 302.006 189.136 303.734 189.136H304.006V187.712H303.734ZM308.945 196.192C311.409 196.192 313.281 194.352 313.281 191.92C313.281 189.488 311.409 187.648 308.945 187.648C306.465 187.648 304.593 189.488 304.593 191.92C304.593 194.352 306.465 196.192 308.945 196.192ZM308.945 194.864C307.265 194.864 306.017 193.6 306.017 191.92C306.017 190.24 307.265 188.976 308.945 188.976C310.609 188.976 311.857 190.24 311.857 191.92C311.857 193.6 310.609 194.864 308.945 194.864ZM323.747 189.088V187.84H321.299V185.648H319.923V187.84H318.451V189.088H319.923V193.824C319.923 195.328 320.739 196.192 322.323 196.192C322.899 196.192 323.331 196.08 323.747 195.856V194.56C323.411 194.736 323.059 194.864 322.611 194.864C321.779 194.864 321.299 194.48 321.299 193.6V189.088H323.747ZM329.023 196.192C331.487 196.192 333.359 194.352 333.359 191.92C333.359 189.488 331.487 187.648 329.023 187.648C326.543 187.648 324.671 189.488 324.671 191.92C324.671 194.352 326.543 196.192 329.023 196.192ZM329.023 194.864C327.343 194.864 326.095 193.6 326.095 191.92C326.095 190.24 327.343 188.976 329.023 188.976C330.687 188.976 331.935 190.24 331.935 191.92C331.935 193.6 330.687 194.864 329.023 194.864ZM342.673 185.552C343.121 185.552 343.457 185.664 343.793 185.84V184.624C343.361 184.4 342.961 184.288 342.385 184.288C340.801 184.288 339.985 185.168 339.985 186.704V187.84H338.497V189.088H339.985V196H341.361V189.088H343.713V187.84H341.361V186.8C341.361 185.92 341.841 185.552 342.673 185.552ZM348.861 196.192C351.085 196.192 352.557 194.832 352.557 192.768V187.84H351.181V192.576C351.181 193.952 350.253 194.864 348.861 194.864C347.469 194.864 346.541 193.952 346.541 192.576V187.84H345.165V192.768C345.165 194.832 346.637 196.192 348.861 196.192ZM359.082 187.648C357.802 187.648 356.778 188.16 356.138 189.088V187.84H354.762V196H356.138V191.424C356.138 189.952 357.13 188.976 358.634 188.976C360.09 188.976 361.018 189.936 361.018 191.392V196H362.394V190.96C362.394 188.96 361.066 187.648 359.082 187.648ZM371.373 184.48V189.312C370.685 188.288 369.565 187.648 368.205 187.648C365.869 187.648 364.125 189.488 364.125 191.92C364.125 194.352 365.869 196.192 368.205 196.192C369.565 196.192 370.685 195.552 371.373 194.528V196H372.749V184.48H371.373ZM368.461 194.864C366.781 194.864 365.533 193.6 365.533 191.92C365.533 190.24 366.781 188.976 368.461 188.976C370.125 188.976 371.373 190.24 371.373 191.92C371.373 193.6 370.125 194.864 368.461 194.864ZM383.106 191.92C383.106 189.472 381.282 187.648 378.85 187.648C376.402 187.648 374.562 189.472 374.562 191.888C374.562 194.336 376.466 196.192 379.026 196.192C380.61 196.192 381.954 195.504 382.77 194.416L381.826 193.6C381.298 194.352 380.274 194.928 379.074 194.928C377.49 194.928 376.322 193.952 376.05 192.528H383.074C383.09 192.336 383.106 192.112 383.106 191.92ZM378.834 188.912C380.274 188.912 381.394 189.872 381.65 191.28H376.034C376.29 189.888 377.41 188.912 378.834 188.912ZM391.623 184.48V189.312C390.935 188.288 389.815 187.648 388.455 187.648C386.119 187.648 384.375 189.488 384.375 191.92C384.375 194.352 386.119 196.192 388.455 196.192C389.815 196.192 390.935 195.552 391.623 194.528V196H392.999V184.48H391.623ZM388.711 194.864C387.031 194.864 385.783 193.6 385.783 191.92C385.783 190.24 387.031 188.976 388.711 188.976C390.375 188.976 391.623 190.24 391.623 191.92C391.623 193.6 390.375 194.864 388.711 194.864ZM396.044 196.112C396.636 196.112 397.084 195.664 397.084 195.088C397.084 194.512 396.636 194.064 396.044 194.064C395.468 194.064 395.02 194.512 395.02 195.088C395.02 195.664 395.468 196.112 396.044 196.112ZM407.731 184.96H403.187V196H404.659V191.888H407.731C409.747 191.888 411.267 190.4 411.267 188.432C411.267 186.448 409.747 184.96 407.731 184.96ZM407.699 190.512H404.659V186.336H407.699C408.883 186.336 409.763 187.232 409.763 188.432C409.763 189.632 408.883 190.512 407.699 190.512ZM417.109 187.712C415.893 187.712 414.933 188.272 414.325 189.248V187.84H412.949V196H414.325V191.92C414.325 190.224 415.381 189.136 417.109 189.136H417.381V187.712H417.109ZM426.512 191.92C426.512 189.472 424.688 187.648 422.256 187.648C419.808 187.648 417.968 189.472 417.968 191.888C417.968 194.336 419.872 196.192 422.432 196.192C424.016 196.192 425.36 195.504 426.176 194.416L425.232 193.6C424.704 194.352 423.68 194.928 422.48 194.928C420.896 194.928 419.728 193.952 419.456 192.528H426.48C426.496 192.336 426.512 192.112 426.512 191.92ZM422.24 188.912C423.68 188.912 424.8 189.872 425.056 191.28H419.44C419.696 189.888 420.816 188.912 422.24 188.912ZM430.949 196.192C432.789 196.192 434.245 195.28 434.245 193.664C434.245 191.968 432.677 191.568 431.333 191.248C430.245 190.992 429.317 190.768 429.317 189.968C429.317 189.264 430.101 188.896 431.045 188.896C431.941 188.896 432.709 189.248 433.253 189.776L434.021 188.768C433.333 188.144 432.325 187.648 431.029 187.648C429.349 187.648 427.909 188.464 427.909 190.048C427.909 191.76 429.493 192.176 430.837 192.512C431.909 192.768 432.821 193.008 432.821 193.792C432.821 194.528 432.005 194.944 430.933 194.944C429.877 194.944 429.013 194.544 428.405 193.92L427.637 194.912C428.389 195.632 429.509 196.192 430.949 196.192ZM443.997 191.92C443.997 189.472 442.173 187.648 439.741 187.648C437.293 187.648 435.453 189.472 435.453 191.888C435.453 194.336 437.357 196.192 439.917 196.192C441.501 196.192 442.845 195.504 443.661 194.416L442.717 193.6C442.189 194.352 441.165 194.928 439.965 194.928C438.381 194.928 437.213 193.952 436.941 192.528H443.965C443.981 192.336 443.997 192.112 443.997 191.92ZM439.725 188.912C441.165 188.912 442.285 189.872 442.541 191.28H436.924C437.181 189.888 438.301 188.912 439.725 188.912ZM450.082 187.648C448.802 187.648 447.778 188.16 447.138 189.088V187.84H445.762V196H447.138V191.424C447.138 189.952 448.13 188.976 449.634 188.976C451.09 188.976 452.018 189.936 452.018 191.392V196H453.394V190.96C453.394 188.96 452.066 187.648 450.082 187.648ZM459.872 189.088V187.84H457.424V185.648H456.048V187.84H454.576V189.088H456.048V193.824C456.048 195.328 456.864 196.192 458.448 196.192C459.024 196.192 459.456 196.08 459.872 195.856V194.56C459.536 194.736 459.184 194.864 458.736 194.864C457.904 194.864 457.424 194.48 457.424 193.6V189.088H459.872ZM469.34 191.92C469.34 189.472 467.516 187.648 465.084 187.648C462.636 187.648 460.796 189.472 460.796 191.888C460.796 194.336 462.7 196.192 465.26 196.192C466.844 196.192 468.188 195.504 469.004 194.416L468.06 193.6C467.532 194.352 466.508 194.928 465.308 194.928C463.724 194.928 462.556 193.952 462.284 192.528H469.308C469.324 192.336 469.34 192.112 469.34 191.92ZM465.068 188.912C466.508 188.912 467.628 189.872 467.884 191.28H462.268C462.524 189.888 463.644 188.912 465.068 188.912ZM477.858 184.48V189.312C477.17 188.288 476.05 187.648 474.69 187.648C472.354 187.648 470.61 189.488 470.61 191.92C470.61 194.352 472.354 196.192 474.69 196.192C476.05 196.192 477.17 195.552 477.858 194.528V196H479.234V184.48H477.858ZM474.946 194.864C473.266 194.864 472.018 193.6 472.018 191.92C472.018 190.24 473.266 188.976 474.946 188.976C476.61 188.976 477.858 190.24 477.858 191.92C477.858 193.6 476.61 194.864 474.946 194.864ZM490.071 187.648C488.711 187.648 487.591 188.288 486.903 189.312V184.48H485.527V196H486.903V194.528C487.591 195.552 488.711 196.192 490.071 196.192C492.407 196.192 494.167 194.352 494.167 191.92C494.167 189.488 492.407 187.648 490.071 187.648ZM489.815 194.864C488.151 194.864 486.903 193.6 486.903 191.92C486.903 190.24 488.151 188.976 489.815 188.976C491.495 188.976 492.743 190.24 492.743 191.92C492.743 193.6 491.495 194.864 489.815 194.864ZM501.671 187.84L498.919 194.352L496.167 187.84H494.583L498.135 195.952L497.543 197.168C497.287 197.696 496.919 197.904 496.503 197.904C496.087 197.904 495.687 197.696 495.415 197.392L494.839 198.448C495.319 198.928 496.071 199.232 496.711 199.232C497.591 199.232 498.391 198.688 498.807 197.728L503.207 187.84H501.671ZM518.111 184.96L514.319 191.52L510.543 184.96H508.687V196H510.159V187.184L513.903 193.68H514.719L518.463 187.184V196H519.919V184.96H518.111ZM526.211 196.192C528.675 196.192 530.547 194.352 530.547 191.92C530.547 189.488 528.675 187.648 526.211 187.648C523.731 187.648 521.859 189.488 521.859 191.92C521.859 194.352 523.731 196.192 526.211 196.192ZM526.211 194.864C524.531 194.864 523.283 193.6 523.283 191.92C523.283 190.24 524.531 188.976 526.211 188.976C527.875 188.976 529.123 190.24 529.123 191.92C529.123 193.6 527.875 194.864 526.211 194.864ZM537.716 196H539.54L535.764 191.696L539.428 187.84H537.636L533.732 191.984V184.48H532.356V196H533.732V193.84L534.788 192.72L537.716 196ZM548.231 191.92C548.231 189.472 546.407 187.648 543.975 187.648C541.527 187.648 539.687 189.472 539.687 191.888C539.687 194.336 541.591 196.192 544.151 196.192C545.735 196.192 547.079 195.504 547.895 194.416L546.951 193.6C546.423 194.352 545.399 194.928 544.199 194.928C542.615 194.928 541.447 193.952 541.175 192.528H548.199C548.215 192.336 548.231 192.112 548.231 191.92ZM543.959 188.912C545.399 188.912 546.519 189.872 546.775 191.28H541.159C541.415 189.888 542.535 188.912 543.959 188.912ZM554.316 187.648C553.036 187.648 552.012 188.16 551.372 189.088V187.84H549.996V196H551.372V191.424C551.372 189.952 552.364 188.976 553.868 188.976C555.324 188.976 556.252 189.936 556.252 191.392V196H557.628V190.96C557.628 188.96 556.3 187.648 554.316 187.648ZM560.56 196.112C561.152 196.112 561.6 195.664 561.6 195.088C561.6 194.512 561.152 194.064 560.56 194.064C559.984 194.064 559.536 194.512 559.536 195.088C559.536 195.664 559.984 196.112 560.56 196.112Z" fill="#4E5460"/>
<rect x="604" y="203" width="97" height="37" rx="10" fill="#131313"/>
<path d="M634.638 226H636.63L634.566 222.916C635.67 222.568 636.426 221.62 636.426 220.432C636.426 218.884 635.214 217.72 633.618 217.72H630.09V226H631.746V223.048H632.73L634.638 226ZM631.746 219.28H633.582C634.23 219.28 634.722 219.784 634.722 220.444C634.722 221.104 634.23 221.608 633.582 221.608H631.746V219.28ZM643.531 222.952C643.531 221.104 642.151 219.736 640.315 219.736C638.467 219.736 637.063 221.104 637.063 222.916C637.063 224.752 638.515 226.144 640.459 226.144C641.611 226.144 642.595 225.676 643.231 224.92L642.187 224.008C641.863 224.416 641.251 224.764 640.507 224.764C639.619 224.764 638.971 224.272 638.755 223.504H643.495C643.519 223.336 643.531 223.12 643.531 222.952ZM640.303 221.104C641.059 221.104 641.671 221.596 641.863 222.364H638.743C638.935 221.608 639.535 221.104 640.303 221.104ZM648.472 226H646.48C646.096 226 645.832 225.784 645.832 225.484C645.832 225.28 645.952 225.076 646.144 224.956C646.456 225.052 646.792 225.112 647.152 225.112C648.784 225.112 650.032 223.96 650.032 222.424C650.032 221.824 649.84 221.272 649.504 220.84C649.564 220.564 649.816 220.396 650.128 220.396H650.56V218.956H650.056C649.252 218.956 648.664 219.364 648.484 220.024C648.088 219.844 647.644 219.736 647.152 219.736C645.508 219.736 644.284 220.888 644.284 222.424C644.284 223.192 644.584 223.852 645.1 224.332C644.596 224.644 644.272 225.244 644.272 225.868C644.272 226.84 645.028 227.5 646.168 227.5H648.172C648.724 227.5 649.096 227.788 649.144 228.232L650.752 227.8C650.548 226.672 649.684 226 648.472 226ZM647.152 221.212C647.872 221.212 648.424 221.728 648.424 222.424C648.424 223.12 647.872 223.636 647.152 223.636C646.42 223.636 645.88 223.12 645.88 222.424C645.88 221.728 646.42 221.212 647.152 221.212ZM652.137 218.98C652.689 218.98 653.121 218.56 653.121 218.008C653.121 217.456 652.689 217.036 652.137 217.036C651.585 217.036 651.153 217.456 651.153 218.008C651.153 218.56 651.585 218.98 652.137 218.98ZM651.357 226H652.917V219.88H651.357V226ZM656.516 226.144C657.98 226.144 659.132 225.436 659.132 224.14C659.132 222.748 657.872 222.448 656.9 222.232C656.216 222.088 655.7 221.956 655.7 221.548C655.7 221.188 656.132 221.02 656.66 221.02C657.284 221.02 657.8 221.248 658.244 221.584L659 220.54C658.448 220.108 657.668 219.736 656.624 219.736C655.268 219.736 654.128 220.372 654.128 221.668C654.128 223.06 655.388 223.36 656.36 223.576C657.032 223.732 657.56 223.876 657.56 224.284C657.56 224.656 657.104 224.86 656.48 224.86C655.748 224.86 655.16 224.584 654.692 224.176L653.936 225.208C654.524 225.712 655.376 226.144 656.516 226.144ZM663.832 221.308V219.88H662.188V218.332H660.628V219.88H659.656V221.308H660.628V224.104C660.628 225.328 661.288 226.144 662.692 226.144C663.148 226.144 663.496 226.06 663.832 225.88V224.428C663.604 224.536 663.34 224.632 663.028 224.632C662.476 224.632 662.188 224.368 662.188 223.852V221.308H663.832ZM670.906 222.952C670.906 221.104 669.526 219.736 667.69 219.736C665.842 219.736 664.438 221.104 664.438 222.916C664.438 224.752 665.89 226.144 667.834 226.144C668.986 226.144 669.97 225.676 670.606 224.92L669.562 224.008C669.238 224.416 668.626 224.764 667.882 224.764C666.994 224.764 666.346 224.272 666.13 223.504H670.87C670.894 223.336 670.906 223.12 670.906 222.952ZM667.678 221.104C668.434 221.104 669.046 221.596 669.238 222.364H666.118C666.31 221.608 666.91 221.104 667.678 221.104ZM675.318 219.784C674.598 219.784 673.998 220.108 673.554 220.672V219.88H671.994V226H673.554V223.096C673.554 222.052 674.202 221.392 675.318 221.392H675.582V219.784H675.318Z" fill="white"/>
<circle cx="184.5" cy="173.5" r="56.5" fill="#003A3B"/>
<path d="M148.527 172H150.964L148.439 168.227C149.79 167.802 150.714 166.642 150.714 165.189C150.714 163.295 149.232 161.871 147.279 161.871H142.964V172H144.989V168.389H146.193L148.527 172ZM144.989 163.779H147.235C148.028 163.779 148.63 164.396 148.63 165.203C148.63 166.011 148.028 166.627 147.235 166.627H144.989V163.779ZM157.616 164.513V165.409C157.014 164.748 156.177 164.337 155.179 164.337C153.094 164.337 151.523 166.025 151.523 168.257C151.523 170.488 153.094 172.176 155.179 172.176C156.177 172.176 157.014 171.765 157.616 171.105V172H159.524V164.513H157.616ZM155.546 170.327C154.371 170.327 153.491 169.431 153.491 168.257C153.491 167.082 154.371 166.187 155.546 166.187C156.735 166.187 157.616 167.082 157.616 168.257C157.616 169.431 156.735 170.327 155.546 170.327ZM162.293 163.412C162.968 163.412 163.497 162.899 163.497 162.223C163.497 161.548 162.968 161.034 162.293 161.034C161.618 161.034 161.089 161.548 161.089 162.223C161.089 162.899 161.618 163.412 162.293 163.412ZM161.339 172H163.247V164.513H161.339V172ZM167.65 172.176C169.441 172.176 170.85 171.31 170.85 169.725C170.85 168.022 169.309 167.655 168.12 167.391C167.283 167.214 166.652 167.053 166.652 166.554C166.652 166.113 167.18 165.908 167.826 165.908C168.589 165.908 169.221 166.187 169.764 166.598L170.689 165.321C170.013 164.792 169.059 164.337 167.782 164.337C166.123 164.337 164.729 165.115 164.729 166.701C164.729 168.403 166.27 168.77 167.459 169.035C168.281 169.226 168.927 169.402 168.927 169.901C168.927 170.356 168.369 170.605 167.606 170.605C166.71 170.605 165.991 170.268 165.419 169.769L164.494 171.031C165.213 171.648 166.255 172.176 167.65 172.176ZM173.088 163.412C173.763 163.412 174.292 162.899 174.292 162.223C174.292 161.548 173.763 161.034 173.088 161.034C172.413 161.034 171.884 161.548 171.884 162.223C171.884 162.899 172.413 163.412 173.088 163.412ZM172.134 172H174.042V164.513H172.134V172ZM180.147 164.337C179.179 164.337 178.356 164.69 177.769 165.35V164.513H175.861V172H177.769V167.89C177.769 166.862 178.474 166.187 179.516 166.187C180.514 166.187 181.16 166.847 181.16 167.86V172H183.069V167.244C183.069 165.482 181.909 164.337 180.147 164.337ZM189.534 172H187.097C186.627 172 186.304 171.736 186.304 171.369C186.304 171.119 186.451 170.87 186.686 170.723C187.068 170.84 187.479 170.914 187.919 170.914C189.915 170.914 191.442 169.504 191.442 167.625C191.442 166.891 191.207 166.216 190.796 165.688C190.87 165.35 191.178 165.145 191.56 165.145H192.088V163.383H191.472C190.488 163.383 189.769 163.882 189.549 164.69C189.064 164.469 188.521 164.337 187.919 164.337C185.908 164.337 184.411 165.746 184.411 167.625C184.411 168.565 184.778 169.372 185.409 169.96C184.792 170.341 184.396 171.075 184.396 171.839C184.396 173.028 185.321 173.835 186.715 173.835H189.167C189.842 173.835 190.297 174.187 190.356 174.73L192.323 174.202C192.073 172.822 191.016 172 189.534 172ZM187.919 166.143C188.8 166.143 189.475 166.774 189.475 167.625C189.475 168.477 188.8 169.108 187.919 169.108C187.024 169.108 186.363 168.477 186.363 167.625C186.363 166.774 187.024 166.143 187.919 166.143ZM198.745 172H201.181L198.657 168.227C200.007 167.802 200.932 166.642 200.932 165.189C200.932 163.295 199.449 161.871 197.497 161.871H193.181V172H195.207V168.389H196.411L198.745 172ZM195.207 163.779H197.453C198.245 163.779 198.847 164.396 198.847 165.203C198.847 166.011 198.245 166.627 197.453 166.627H195.207V163.779ZM203.307 163.412C203.982 163.412 204.511 162.899 204.511 162.223C204.511 161.548 203.982 161.034 203.307 161.034C202.632 161.034 202.103 161.548 202.103 162.223C202.103 162.899 202.632 163.412 203.307 163.412ZM202.353 172H204.261V164.513H202.353V172ZM210.836 172H208.4C207.93 172 207.607 171.736 207.607 171.369C207.607 171.119 207.754 170.87 207.989 170.723C208.37 170.84 208.781 170.914 209.222 170.914C211.218 170.914 212.745 169.504 212.745 167.625C212.745 166.891 212.51 166.216 212.099 165.688C212.172 165.35 212.481 165.145 212.862 165.145H213.391V163.383H212.774C211.791 163.383 211.071 163.882 210.851 164.69C210.367 164.469 209.824 164.337 209.222 164.337C207.211 164.337 205.713 165.746 205.713 167.625C205.713 168.565 206.08 169.372 206.711 169.96C206.095 170.341 205.699 171.075 205.699 171.839C205.699 173.028 206.623 173.835 208.018 173.835H210.469C211.145 173.835 211.6 174.187 211.659 174.73L213.626 174.202C213.376 172.822 212.319 172 210.836 172ZM209.222 166.143C210.102 166.143 210.778 166.774 210.778 167.625C210.778 168.477 210.102 169.108 209.222 169.108C208.326 169.108 207.666 168.477 207.666 167.625C207.666 166.774 208.326 166.143 209.222 166.143ZM218.653 164.337C217.684 164.337 216.862 164.704 216.275 165.394V161.431H214.366V172H216.275V167.89C216.275 166.862 216.979 166.187 218.036 166.187C219.02 166.187 219.666 166.847 219.666 167.86V172H221.574V167.244C221.574 165.482 220.414 164.337 218.653 164.337ZM227.563 166.26V164.513H225.552V162.62H223.643V164.513H222.454V166.26H223.643V169.681C223.643 171.178 224.451 172.176 226.168 172.176C226.726 172.176 227.152 172.073 227.563 171.853V170.077C227.284 170.209 226.961 170.327 226.579 170.327C225.904 170.327 225.552 170.004 225.552 169.372V166.26H227.563ZM141.673 179.52V178.247H137.279V185H138.629V182.309H141.281V181.037H138.629V179.52H141.673ZM145.177 179.931C144.59 179.931 144.101 180.195 143.739 180.655V180.009H142.466V185H143.739V182.632C143.739 181.78 144.267 181.242 145.177 181.242H145.392V179.931H145.177ZM148.4 185.117C149.926 185.117 151.081 183.992 151.081 182.504C151.081 181.017 149.926 179.891 148.4 179.891C146.873 179.891 145.718 181.017 145.718 182.504C145.718 183.992 146.873 185.117 148.4 185.117ZM148.4 183.884C147.617 183.884 147.03 183.287 147.03 182.504C147.03 181.722 147.617 181.125 148.4 181.125C149.192 181.125 149.77 181.722 149.77 182.504C149.77 183.287 149.192 183.884 148.4 183.884ZM158.013 179.891C157.289 179.891 156.712 180.175 156.31 180.704C155.997 180.195 155.449 179.891 154.745 179.891C154.138 179.891 153.639 180.107 153.267 180.528V180.009H151.995V185H153.267V182.152C153.267 181.536 153.697 181.125 154.314 181.125C154.911 181.125 155.302 181.526 155.302 182.133V185H156.575V182.152C156.575 181.536 156.996 181.125 157.622 181.125C158.219 181.125 158.6 181.526 158.6 182.133V185H159.873V181.751C159.873 180.625 159.139 179.891 158.013 179.891ZM164.829 183.728L168.215 179.216V178.247H163.018V179.52H166.365L162.979 184.031V185H168.284V183.728H164.829ZM174.064 182.514C174.064 181.007 172.938 179.891 171.441 179.891C169.934 179.891 168.789 181.007 168.789 182.485C168.789 183.982 169.973 185.117 171.558 185.117C172.498 185.117 173.3 184.736 173.819 184.119L172.968 183.375C172.703 183.708 172.204 183.992 171.598 183.992C170.873 183.992 170.345 183.591 170.169 182.964H174.034C174.054 182.827 174.064 182.651 174.064 182.514ZM171.431 181.007C172.048 181.007 172.547 181.408 172.703 182.035H170.159C170.315 181.418 170.805 181.007 171.431 181.007ZM177.661 179.931C177.074 179.931 176.585 180.195 176.223 180.655V180.009H174.951V185H176.223V182.632C176.223 181.78 176.751 181.242 177.661 181.242H177.877V179.931H177.661ZM180.884 185.117C182.411 185.117 183.565 183.992 183.565 182.504C183.565 181.017 182.411 179.891 180.884 179.891C179.357 179.891 178.202 181.017 178.202 182.504C178.202 183.992 179.357 185.117 180.884 185.117ZM180.884 183.884C180.101 183.884 179.514 183.287 179.514 182.504C179.514 181.722 180.101 181.125 180.884 181.125C181.677 181.125 182.254 181.722 182.254 182.504C182.254 183.287 181.677 183.884 180.884 183.884ZM189.779 181.174V180.009H188.438V178.746H187.166V180.009H186.373V181.174H187.166V183.454C187.166 184.452 187.704 185.117 188.849 185.117C189.221 185.117 189.505 185.049 189.779 184.902V183.718C189.593 183.806 189.378 183.884 189.123 183.884C188.673 183.884 188.438 183.669 188.438 183.248V181.174H189.779ZM192.955 185.117C194.481 185.117 195.636 183.992 195.636 182.504C195.636 181.017 194.481 179.891 192.955 179.891C191.428 179.891 190.273 181.017 190.273 182.504C190.273 183.992 191.428 185.117 192.955 185.117ZM192.955 183.884C192.172 183.884 191.584 183.287 191.584 182.504C191.584 181.722 192.172 181.125 192.955 181.125C193.747 181.125 194.325 181.722 194.325 182.504C194.325 183.287 193.747 183.884 192.955 183.884ZM203.249 179.52V178.247H198.855V185H200.205V182.309H202.857V181.037H200.205V179.52H203.249ZM206.226 185.117C207.626 185.117 208.555 184.286 208.555 183.013V180.009H207.283V182.837C207.283 183.473 206.862 183.884 206.226 183.884C205.59 183.884 205.169 183.473 205.169 182.837V180.009H203.897V183.013C203.897 184.286 204.817 185.117 206.226 185.117ZM212.548 179.891C211.902 179.891 211.354 180.126 210.963 180.567V180.009H209.69V185H210.963V182.26C210.963 181.575 211.432 181.125 212.127 181.125C212.793 181.125 213.223 181.565 213.223 182.24V185H214.496V181.829C214.496 180.655 213.722 179.891 212.548 179.891ZM219.413 177.954V180.606C219.011 180.166 218.453 179.891 217.788 179.891C216.398 179.891 215.351 181.017 215.351 182.504C215.351 183.992 216.398 185.117 217.788 185.117C218.453 185.117 219.011 184.843 219.413 184.403V185H220.685V177.954H219.413ZM218.033 183.884C217.25 183.884 216.663 183.287 216.663 182.504C216.663 181.722 217.25 181.125 218.033 181.125C218.825 181.125 219.413 181.722 219.413 182.504C219.413 183.287 218.825 183.884 218.033 183.884ZM226.866 182.514C226.866 181.007 225.741 179.891 224.244 179.891C222.736 179.891 221.591 181.007 221.591 182.485C221.591 183.982 222.776 185.117 224.361 185.117C225.3 185.117 226.103 184.736 226.622 184.119L225.77 183.375C225.506 183.708 225.007 183.992 224.4 183.992C223.676 183.992 223.147 183.591 222.971 182.964H226.837C226.857 182.827 226.866 182.651 226.866 182.514ZM224.234 181.007C224.85 181.007 225.349 181.408 225.506 182.035H222.962C223.118 181.418 223.607 181.007 224.234 181.007ZM231.531 177.954V180.606C231.13 180.166 230.572 179.891 229.906 179.891C228.517 179.891 227.469 181.017 227.469 182.504C227.469 183.992 228.517 185.117 229.906 185.117C230.572 185.117 231.13 184.843 231.531 184.403V185H232.803V177.954H231.531ZM230.151 183.884C229.368 183.884 228.781 183.287 228.781 182.504C228.781 181.722 229.368 181.125 230.151 181.125C230.944 181.125 231.531 181.722 231.531 182.504C231.531 183.287 230.944 183.884 230.151 183.884Z" fill="#D0EAE8"/>
<defs>
<filter id="filter0_f" x="0.570213" y="0.410057" width="817.5" height="352.927" filterUnits="userSpaceOnUse" color-interpolation-filters="sRGB">
<feFlood flood-opacity="0" result="BackgroundImageFix"/>
<feBlend mode="normal" in="SourceGraphic" in2="BackgroundImageFix" result="shape"/>
<feGaussianBlur stdDeviation="46.1685" result="effect1_foregroundBlur"/>
</filter>
</defs>
</svg>
