<svg width="104" height="37" fill="none" xmlns="http://www.w3.org/2000/svg">
    <path d="M6.702 30.456c.319 0 .597.078.834.235.13.088.26.217.395.387v-.512h.63v3.693c0 .515-.077.922-.228 1.22-.283.552-.818.827-1.604.827-.437 0-.805-.098-1.103-.296-.299-.194-.466-.5-.5-.917h.693a.772.772 0 0 0 .197.42c.154.152.397.228.728.228.523 0 .866-.184 1.028-.553.096-.218.14-.606.132-1.164a1.34 1.34 0 0 1-.493.462c-.192.101-.446.152-.762.152-.44 0-.825-.156-1.156-.466-.329-.314-.493-.83-.493-1.551 0-.68.166-1.21.497-1.593.333-.381.735-.572 1.205-.572zm1.229 2.085c0-.503-.104-.876-.311-1.118a.996.996 0 0 0-.793-.364c-.48 0-.808.225-.985.675-.094.24-.14.554-.14.944 0 .457.092.806.276 1.046a.907.907 0 0 0 .75.357c.491 0 .836-.222 1.036-.664a2.14 2.14 0 0 0 .167-.876zM14.27 30.528h.648v.701c.053-.136.183-.302.39-.496a1.009 1.009 0 0 1 .781-.292l.156.015v.72a1.026 1.026 0 0 0-.224-.019c-.344 0-.608.111-.792.334a1.15 1.15 0 0 0-.277.762v2.336h-.683v-4.061zM22.018 33.508c0 .197.072.353.216.466.144.114.315.171.512.171.24 0 .473-.056.698-.167.379-.184.569-.486.569-.906v-.55c-.084.053-.191.098-.323.133-.131.035-.26.06-.386.076l-.414.053c-.247.033-.433.084-.557.155-.21.12-.315.309-.315.569zm1.653-1.38c.157-.02.262-.086.315-.197a.6.6 0 0 0 .046-.262c0-.232-.084-.4-.25-.504-.165-.106-.401-.16-.71-.16-.356 0-.609.097-.758.289-.083.106-.138.264-.163.474h-.637c.013-.5.174-.848.485-1.043a2 2 0 0 1 1.088-.296c.478 0 .866.091 1.164.273.296.182.444.465.444.85v2.339c0 .07.014.128.042.17.03.044.092.065.186.065.03 0 .064-.001.102-.004.038-.005.078-.011.121-.019v.505a1.89 1.89 0 0 1-.242.056 1.77 1.77 0 0 1-.228.012c-.235 0-.406-.084-.512-.25a.965.965 0 0 1-.117-.376c-.14.182-.339.34-.6.474-.26.134-.547.201-.86.201-.377 0-.685-.114-.925-.341a1.149 1.149 0 0 1-.357-.86c0-.377.118-.67.353-.877.235-.207.543-.334.925-.383l1.088-.136zM30.476 30.528h.649v.576c.192-.237.395-.408.61-.512.215-.103.454-.155.717-.155.576 0 .965.2 1.167.603.111.22.167.534.167.944v2.605h-.694v-2.56c0-.247-.036-.447-.11-.599-.121-.252-.34-.379-.66-.379-.161 0-.294.017-.397.05a1.025 1.025 0 0 0-.493.333 1.023 1.023 0 0 0-.224.417c-.033.142-.05.345-.05.61v2.128h-.682v-4.061zM41.069 34.149c.452 0 .762-.17.929-.512.169-.344.254-.726.254-1.145 0-.38-.061-.688-.182-.925-.192-.374-.523-.561-.994-.561-.417 0-.72.159-.91.477-.19.319-.284.703-.284 1.153 0 .432.095.792.284 1.08.19.289.49.433.903.433zm.026-3.739c.523 0 .966.175 1.327.524.362.348.543.862.543 1.539 0 .655-.16 1.196-.478 1.623-.319.427-.813.64-1.483.64-.558 0-1.002-.188-1.33-.564-.33-.38-.493-.888-.493-1.525 0-.682.173-1.225.52-1.63.345-.404.81-.607 1.394-.607zM48.458 29.019h.682v5.57h-.682v-5.57zM55.35 33.508c0 .197.072.353.216.466.144.114.314.171.512.171.24 0 .472-.056.697-.167.38-.184.569-.486.569-.906v-.55a1.17 1.17 0 0 1-.322.133c-.132.035-.26.06-.387.076l-.413.053c-.248.033-.434.084-.558.155-.21.12-.314.309-.314.569zm1.653-1.38c.156-.02.261-.086.314-.197a.6.6 0 0 0 .046-.262c0-.232-.084-.4-.25-.504-.165-.106-.401-.16-.71-.16-.356 0-.608.097-.758.289-.083.106-.137.264-.163.474h-.637c.013-.5.175-.848.486-1.043a2 2 0 0 1 1.088-.296c.478 0 .866.091 1.164.273.296.182.443.465.443.85v2.339c0 .07.014.128.042.17.03.044.092.065.186.065.03 0 .064-.001.102-.004.038-.005.079-.011.122-.019v.505c-.107.03-.188.049-.243.056a1.769 1.769 0 0 1-.228.012c-.235 0-.405-.084-.511-.25a.967.967 0 0 1-.118-.376c-.139.182-.339.34-.599.474-.26.134-.547.201-.86.201-.377 0-.686-.114-.926-.341a1.149 1.149 0 0 1-.356-.86c0-.377.117-.67.352-.877.236-.207.544-.334.925-.383l1.089-.136zM70.575 29h.663v2.02a1.496 1.496 0 0 1 1.21-.598c.505 0 .915.174 1.228.523.316.346.474.858.474 1.535 0 .643-.156 1.176-.467 1.6-.31.425-.741.638-1.292.638-.309 0-.57-.075-.781-.224a1.887 1.887 0 0 1-.406-.425v.52h-.63V29zm1.774 5.115c.369 0 .644-.147.826-.44.185-.293.277-.68.277-1.16 0-.428-.092-.781-.276-1.062-.183-.28-.452-.42-.808-.42-.311 0-.584.114-.82.344-.232.23-.348.61-.348 1.138 0 .381.048.691.144.929.18.447.515.67 1.005.67zM80.132 33.508c0 .197.072.353.216.466.144.114.315.171.512.171.24 0 .473-.056.698-.167.379-.184.568-.486.568-.906v-.55a1.17 1.17 0 0 1-.322.133c-.131.035-.26.06-.387.076l-.413.053c-.248.033-.434.084-.557.155-.21.12-.315.309-.315.569zm1.653-1.38c.157-.02.262-.086.315-.197a.6.6 0 0 0 .045-.262c0-.232-.083-.4-.25-.504-.164-.106-.4-.16-.709-.16-.356 0-.61.097-.758.289-.084.106-.138.264-.163.474h-.637c.012-.5.174-.848.485-1.043a2.001 2.001 0 0 1 1.088-.296c.478 0 .866.091 1.164.273.296.182.444.465.444.85v2.339c0 .07.014.128.041.17.03.044.093.065.186.065.03 0 .065-.001.103-.004a2.79 2.79 0 0 0 .12-.019v.505a1.89 1.89 0 0 1-.242.056 1.769 1.769 0 0 1-.227.012c-.235 0-.406-.084-.512-.25a.967.967 0 0 1-.118-.376c-.139.182-.338.34-.599.474-.26.134-.547.201-.86.201-.377 0-.685-.114-.925-.341a1.149 1.149 0 0 1-.357-.86c0-.377.118-.67.353-.877.235-.207.543-.334.925-.383l1.088-.136zM88.609 30.528h.648v.701c.053-.136.183-.302.39-.496a1.009 1.009 0 0 1 .782-.292l.155.015v.72a1.026 1.026 0 0 0-.223-.019c-.344 0-.608.111-.793.334a1.15 1.15 0 0 0-.277.762v2.336h-.682v-4.061zM96.24 33.315c.02.227.077.402.171.523.172.22.47.33.895.33.252 0 .475-.055.667-.163a.552.552 0 0 0 .288-.512.436.436 0 0 0-.231-.398c-.099-.056-.293-.12-.584-.194l-.542-.136c-.346-.086-.602-.182-.766-.288-.293-.185-.44-.44-.44-.766 0-.384.138-.695.413-.933.278-.237.651-.356 1.119-.356.612 0 1.053.18 1.323.538.17.228.252.473.247.736h-.645a.79.79 0 0 0-.163-.421c-.157-.18-.428-.27-.815-.27-.258 0-.454.05-.588.149a.465.465 0 0 0-.197.39c0 .177.087.319.262.425.1.063.25.118.447.166l.451.11c.49.12.82.234.986.346.265.174.398.448.398.822 0 .362-.138.674-.413.937-.273.263-.69.394-1.251.394-.605 0-1.033-.136-1.286-.41a1.569 1.569 0 0 1-.402-1.02h.656zM7.04 24.33a6.333 6.333 0 0 1-3.313-.932 7.369 7.369 0 0 1-2.51-2.588v3.261H0V0h1.216v12.709c.639-1.088 1.476-1.942 2.511-2.563 1.035-.638 2.14-.958 3.313-.958.95 0 1.846.19 2.692.57a7.11 7.11 0 0 1 2.304 1.63 7.668 7.668 0 0 1 1.527 2.46 8 8 0 0 1 .543 2.924 8 8 0 0 1-.543 2.925 7.74 7.74 0 0 1-1.527 2.433 7.108 7.108 0 0 1-2.304 1.63c-.846.38-1.743.57-2.692.57zm0-13.847c-.776 0-1.536.163-2.278.491-.724.311-1.345.751-1.863 1.32a6.38 6.38 0 0 0-1.268 2.071 6.989 6.989 0 0 0-.415 2.407c0 1.743.561 3.227 1.683 4.452a5.614 5.614 0 0 0 1.863 1.346c.742.31 1.502.466 2.278.466.794 0 1.562-.164 2.304-.492a5.444 5.444 0 0 0 1.863-1.32c1.122-1.225 1.683-2.71 1.683-4.452 0-.845-.147-1.648-.44-2.407a6.031 6.031 0 0 0-1.243-2.07 5.444 5.444 0 0 0-1.863-1.32 5.641 5.641 0 0 0-2.304-.492zM18.37 3.779c0-.293.094-.552.284-.777.207-.224.448-.336.725-.336.276 0 .509.112.698.336.19.207.285.466.285.777 0 .31-.095.578-.284.802a.911.911 0 0 1-.7.31c-.276 0-.517-.111-.724-.336a1.167 1.167 0 0 1-.285-.776zm1.604 20.292h-1.217V9.447h1.217v14.624zM27.082 0h1.216v9.447h3.598v1.294h-3.598v13.33h-1.216v-13.33h-3.598V9.447h3.598V0zM47.61 21.353c-.328.466-.656.837-.984 1.113-1.415 1.243-3.132 1.864-5.15 1.864a6.92 6.92 0 0 1-2.77-.57 7.315 7.315 0 0 1-2.356-1.63 6.89 6.89 0 0 1-1.552-2.407 8.068 8.068 0 0 1-.544-2.95c0-1.036.181-2.02.544-2.951.362-.95.88-1.76 1.552-2.433a7.316 7.316 0 0 1 2.356-1.631 6.92 6.92 0 0 1 2.77-.57c.966 0 1.889.19 2.769.57.88.38 1.665.923 2.355 1.63.673.69 1.19 1.51 1.553 2.46.38.931.57 1.906.57 2.924v.621H35.496c.156 1.484.725 2.761 1.709 3.831a5.826 5.826 0 0 0 1.915 1.346c.76.31 1.544.466 2.355.466.811 0 1.588-.121 2.33-.363.76-.258 1.406-.62 1.941-1.087.38-.345.664-.647.854-.905l1.01.672zm-.156-5.254c-.155-1.518-.716-2.787-1.682-3.805a5.463 5.463 0 0 0-1.941-1.32 5.882 5.882 0 0 0-4.711 0c-.742.311-1.38.751-1.915 1.32-.984 1.036-1.553 2.304-1.709 3.805h11.958zM73.837 14.83c0-.793-.164-1.518-.492-2.173-.31-.673-.75-1.2-1.32-1.58a3.038 3.038 0 0 0-1.812-.594c-.69 0-1.363.112-2.019.336-.638.207-1.199.51-1.682.906a4.611 4.611 0 0 0-1.139 1.45 3.762 3.762 0 0 0-.388 1.656v9.24h-1.217V9.447h1.217v2.226a6.594 6.594 0 0 1 2.303-1.837 6.77 6.77 0 0 1 2.925-.648c.915 0 1.769.294 2.563.88a5.313 5.313 0 0 1 1.812 2.304c.414-.69.82-1.2 1.216-1.527 1.242-1.104 2.726-1.657 4.452-1.657.638 0 1.25.138 1.838.415a4.8 4.8 0 0 1 1.578 1.216c.45.5.794 1.104 1.036 1.812.259.707.388 1.44.388 2.2v9.24h-1.217v-9.24c0-.794-.163-1.518-.491-2.174-.31-.673-.75-1.2-1.32-1.58a3.038 3.038 0 0 0-1.812-.594c-.69 0-1.355.112-1.993.336-.639.207-1.2.51-1.683.906a4.61 4.61 0 0 0-1.138 1.45 3.762 3.762 0 0 0-.389 1.656v9.24h-1.216v-9.24zM102.661 21.353c-.327.466-.655.837-.983 1.113-1.415 1.243-3.132 1.864-5.15 1.864a6.92 6.92 0 0 1-2.77-.57 7.313 7.313 0 0 1-2.356-1.63 6.892 6.892 0 0 1-1.553-2.407 8.07 8.07 0 0 1-.543-2.95 8.07 8.07 0 0 1 .543-2.951c.363-.95.88-1.76 1.553-2.433a7.314 7.314 0 0 1 2.356-1.631 6.92 6.92 0 0 1 2.77-.57c.965 0 1.889.19 2.769.57.88.38 1.665.923 2.355 1.63a7.101 7.101 0 0 1 1.553 2.46c.38.931.569 1.906.569 2.924v.621H90.548c.156 1.484.725 2.761 1.708 3.831a5.827 5.827 0 0 0 1.916 1.346c.759.31 1.544.466 2.355.466.811 0 1.588-.121 2.33-.363.759-.258 1.406-.62 1.941-1.087.379-.345.664-.647.854-.905l1.009.672zm-.155-5.254c-.155-1.518-.716-2.787-1.682-3.805a5.465 5.465 0 0 0-1.942-1.32 5.883 5.883 0 0 0-4.71 0c-.742.311-1.38.751-1.916 1.32-.983 1.036-1.552 2.304-1.708 3.805h11.958z" fill="#D9D9D9"/>
</svg>
