<svg width="549" height="543" viewBox="0 0 549 543" fill="none" xmlns="http://www.w3.org/2000/svg">
<g opacity="0.2" filter="url(#filter0_f)">
<rect x="150" y="150.872" width="249" height="242.129" rx="14.4" fill="#0F0941"/>
</g>
<rect x="100" y="133" width="348" height="260" rx="30" fill="#FEFEFE"/>
<path d="M149.456 241.56V238.44H138.68V255H141.992V248.4H148.496V245.28H141.992V241.56H149.456ZM156.758 255.288C160.19 255.288 162.47 253.248 162.47 250.128V242.76H159.35V249.696C159.35 251.256 158.318 252.264 156.758 252.264C155.198 252.264 154.166 251.256 154.166 249.696V242.76H151.046V250.128C151.046 253.248 153.302 255.288 156.758 255.288ZM172.262 242.472C170.678 242.472 169.334 243.048 168.374 244.128V242.76H165.254V255H168.374V248.28C168.374 246.6 169.526 245.496 171.23 245.496C172.862 245.496 173.918 246.576 173.918 248.232V255H177.038V247.224C177.038 244.344 175.142 242.472 172.262 242.472ZM189.096 237.72V244.224C188.112 243.144 186.744 242.472 185.112 242.472C181.704 242.472 179.136 245.232 179.136 248.88C179.136 252.528 181.704 255.288 185.112 255.288C186.744 255.288 188.112 254.616 189.096 253.536V255H192.216V237.72H189.096ZM185.712 252.264C183.792 252.264 182.352 250.8 182.352 248.88C182.352 246.96 183.792 245.496 185.712 245.496C187.656 245.496 189.096 246.96 189.096 248.88C189.096 250.8 187.656 252.264 185.712 252.264ZM196.743 240.96C197.847 240.96 198.711 240.12 198.711 239.016C198.711 237.912 197.847 237.072 196.743 237.072C195.639 237.072 194.775 237.912 194.775 239.016C194.775 240.12 195.639 240.96 196.743 240.96ZM195.183 255H198.303V242.76H195.183V255ZM208.285 242.472C206.701 242.472 205.357 243.048 204.397 244.128V242.76H201.277V255H204.397V248.28C204.397 246.6 205.549 245.496 207.253 245.496C208.885 245.496 209.941 246.576 209.941 248.232V255H213.061V247.224C213.061 244.344 211.165 242.472 208.285 242.472ZM223.631 255H219.647C218.879 255 218.351 254.568 218.351 253.968C218.351 253.56 218.591 253.152 218.975 252.912C219.599 253.104 220.271 253.224 220.991 253.224C224.255 253.224 226.751 250.92 226.751 247.848C226.751 246.648 226.367 245.544 225.695 244.68C225.815 244.128 226.319 243.792 226.943 243.792H227.807V240.912H226.799C225.191 240.912 224.015 241.728 223.655 243.048C222.863 242.688 221.975 242.472 220.991 242.472C217.703 242.472 215.255 244.776 215.255 247.848C215.255 249.384 215.855 250.704 216.887 251.664C215.879 252.288 215.231 253.488 215.231 254.736C215.231 256.68 216.743 258 219.023 258H223.031C224.135 258 224.879 258.576 224.975 259.464L228.191 258.6C227.783 256.344 226.055 255 223.631 255ZM220.991 245.424C222.431 245.424 223.535 246.456 223.535 247.848C223.535 249.24 222.431 250.272 220.991 250.272C219.527 250.272 218.447 249.24 218.447 247.848C218.447 246.456 219.527 245.424 220.991 245.424ZM242.135 238.44H235.319V255H237.527V248.832H242.135C245.159 248.832 247.439 246.6 247.439 243.648C247.439 240.672 245.159 238.44 242.135 238.44ZM242.087 246.768H237.527V240.504H242.087C243.863 240.504 245.183 241.848 245.183 243.648C245.183 245.448 243.863 246.768 242.087 246.768ZM256.203 242.568C254.379 242.568 252.939 243.408 252.027 244.872V242.76H249.963V255H252.027V248.88C252.027 246.336 253.611 244.704 256.203 244.704H256.611V242.568H256.203ZM264.019 255.288C267.715 255.288 270.523 252.528 270.523 248.88C270.523 245.232 267.715 242.472 264.019 242.472C260.299 242.472 257.491 245.232 257.491 248.88C257.491 252.528 260.299 255.288 264.019 255.288ZM264.019 253.296C261.499 253.296 259.627 251.4 259.627 248.88C259.627 246.36 261.499 244.464 264.019 244.464C266.515 244.464 268.387 246.36 268.387 248.88C268.387 251.4 266.515 253.296 264.019 253.296ZM274.388 240.312C275.18 240.312 275.78 239.712 275.78 238.944C275.78 238.152 275.18 237.576 274.388 237.576C273.62 237.576 273.02 238.152 273.02 238.944C273.02 239.712 273.62 240.312 274.388 240.312ZM272.108 259.848C274.268 259.848 275.42 258.624 275.42 256.512V242.76H273.356V256.296C273.356 257.448 272.732 257.952 271.748 257.952C271.292 257.952 270.908 257.856 270.572 257.688V259.536C271.004 259.728 271.484 259.848 272.108 259.848ZM290.956 248.88C290.956 245.208 288.22 242.472 284.572 242.472C280.9 242.472 278.14 245.208 278.14 248.832C278.14 252.504 280.996 255.288 284.836 255.288C287.212 255.288 289.228 254.256 290.452 252.624L289.036 251.4C288.244 252.528 286.708 253.392 284.908 253.392C282.532 253.392 280.78 251.928 280.372 249.792H290.908C290.932 249.504 290.956 249.168 290.956 248.88ZM284.548 244.368C286.708 244.368 288.388 245.808 288.772 247.92H280.348C280.732 245.832 282.412 244.368 284.548 244.368ZM299.34 255.288C301.764 255.288 303.828 254.088 304.932 252.216L303.132 251.136C302.388 252.432 300.996 253.296 299.34 253.296C296.82 253.296 294.948 251.4 294.948 248.88C294.948 246.36 296.82 244.464 299.34 244.464C300.996 244.464 302.388 245.328 303.132 246.624L304.932 245.544C303.828 243.672 301.764 242.472 299.34 242.472C295.62 242.472 292.812 245.232 292.812 248.88C292.812 252.528 295.62 255.288 299.34 255.288ZM314.347 244.632V242.76H310.675V239.472H308.611V242.76H306.403V244.632H308.611V251.736C308.611 253.992 309.835 255.288 312.211 255.288C313.075 255.288 313.723 255.12 314.347 254.784V252.84C313.843 253.104 313.315 253.296 312.643 253.296C311.395 253.296 310.675 252.72 310.675 251.4V244.632H314.347ZM322.261 255.288C325.957 255.288 328.765 252.528 328.765 248.88C328.765 245.232 325.957 242.472 322.261 242.472C318.541 242.472 315.733 245.232 315.733 248.88C315.733 252.528 318.541 255.288 322.261 255.288ZM322.261 253.296C319.741 253.296 317.869 251.4 317.869 248.88C317.869 246.36 319.741 244.464 322.261 244.464C324.757 244.464 326.629 246.36 326.629 248.88C326.629 251.4 324.757 253.296 322.261 253.296ZM337.719 242.568C335.895 242.568 334.455 243.408 333.543 244.872V242.76H331.479V255H333.543V248.88C333.543 246.336 335.127 244.704 337.719 244.704H338.127V242.568H337.719Z" fill="black"/>
<path d="M146.456 303H148.072L143.576 291.96H141.832L137.336 303H138.904L139.976 300.328H145.384L146.456 303ZM140.52 298.968L142.68 293.544L144.84 298.968H140.52ZM158.071 294.648C156.711 294.648 155.591 295.288 154.903 296.312V294.84H153.527V306.04H154.903V301.528C155.591 302.552 156.711 303.192 158.071 303.192C160.407 303.192 162.167 301.352 162.167 298.92C162.167 296.488 160.407 294.648 158.071 294.648ZM157.815 301.864C156.151 301.864 154.903 300.6 154.903 298.92C154.903 297.24 156.151 295.976 157.815 295.976C159.495 295.976 160.743 297.24 160.743 298.92C160.743 300.6 159.495 301.864 157.815 301.864ZM168.156 294.712C166.94 294.712 165.98 295.272 165.372 296.248V294.84H163.996V303H165.372V298.92C165.372 297.224 166.428 296.136 168.156 296.136H168.428V294.712H168.156ZM177.559 298.92C177.559 296.472 175.735 294.648 173.303 294.648C170.855 294.648 169.015 296.472 169.015 298.888C169.015 301.336 170.919 303.192 173.479 303.192C175.063 303.192 176.407 302.504 177.223 301.416L176.279 300.6C175.751 301.352 174.727 301.928 173.527 301.928C171.943 301.928 170.775 300.952 170.503 299.528H177.527C177.543 299.336 177.559 299.112 177.559 298.92ZM173.287 295.912C174.727 295.912 175.847 296.872 176.103 298.28H170.487C170.743 296.888 171.863 295.912 173.287 295.912ZM186.076 291.48V296.312C185.388 295.288 184.268 294.648 182.908 294.648C180.572 294.648 178.828 296.488 178.828 298.92C178.828 301.352 180.572 303.192 182.908 303.192C184.268 303.192 185.388 302.552 186.076 301.528V303H187.452V291.48H186.076ZM183.164 301.864C181.484 301.864 180.236 300.6 180.236 298.92C180.236 297.24 181.484 295.976 183.164 295.976C184.828 295.976 186.076 297.24 186.076 298.92C186.076 300.6 184.828 301.864 183.164 301.864ZM190.481 293.208C190.993 293.208 191.393 292.808 191.393 292.296C191.393 291.768 190.993 291.384 190.481 291.384C189.953 291.384 189.553 291.768 189.553 292.296C189.553 292.808 189.953 293.208 190.481 293.208ZM189.793 303H191.169V294.84H189.793V303ZM197.32 303.192C198.936 303.192 200.312 302.392 201.048 301.144L199.848 300.424C199.352 301.288 198.424 301.864 197.32 301.864C195.64 301.864 194.392 300.6 194.392 298.92C194.392 297.24 195.64 295.976 197.32 295.976C198.424 295.976 199.352 296.552 199.848 297.416L201.048 296.696C200.312 295.448 198.936 294.648 197.32 294.648C194.84 294.648 192.968 296.488 192.968 298.92C192.968 301.352 194.84 303.192 197.32 303.192ZM207.325 296.088V294.84H204.877V292.648H203.501V294.84H202.029V296.088H203.501V300.824C203.501 302.328 204.317 303.192 205.901 303.192C206.477 303.192 206.909 303.08 207.325 302.856V301.56C206.989 301.736 206.637 301.864 206.189 301.864C205.357 301.864 204.877 301.48 204.877 300.6V296.088H207.325ZM209.778 293.208C210.29 293.208 210.69 292.808 210.69 292.296C210.69 291.768 210.29 291.384 209.778 291.384C209.25 291.384 208.85 291.768 208.85 292.296C208.85 292.808 209.25 293.208 209.778 293.208ZM209.09 303H210.466V294.84H209.09V303ZM218.937 294.84L216.185 301.352L213.433 294.84H211.849L215.433 303H216.889L220.473 294.84H218.937ZM229.418 298.92C229.418 296.472 227.594 294.648 225.162 294.648C222.714 294.648 220.874 296.472 220.874 298.888C220.874 301.336 222.778 303.192 225.338 303.192C226.922 303.192 228.266 302.504 229.082 301.416L228.138 300.6C227.61 301.352 226.586 301.928 225.386 301.928C223.802 301.928 222.634 300.952 222.362 299.528H229.386C229.402 299.336 229.418 299.112 229.418 298.92ZM225.146 295.912C226.586 295.912 227.706 296.872 227.962 298.28H222.346C222.602 296.888 223.722 295.912 225.146 295.912ZM239.841 296.088V294.84H237.393V292.648H236.017V294.84H234.545V296.088H236.017V300.824C236.017 302.328 236.833 303.192 238.417 303.192C238.993 303.192 239.425 303.08 239.841 302.856V301.56C239.505 301.736 239.153 301.864 238.705 301.864C237.873 301.864 237.393 301.48 237.393 300.6V296.088H239.841ZM245.117 303.192C247.581 303.192 249.453 301.352 249.453 298.92C249.453 296.488 247.581 294.648 245.117 294.648C242.637 294.648 240.765 296.488 240.765 298.92C240.765 301.352 242.637 303.192 245.117 303.192ZM245.117 301.864C243.437 301.864 242.189 300.6 242.189 298.92C242.189 297.24 243.437 295.976 245.117 295.976C246.781 295.976 248.029 297.24 248.029 298.92C248.029 300.6 246.781 301.864 245.117 301.864ZM255.086 303.192C257.55 303.192 259.422 301.352 259.422 298.92C259.422 296.488 257.55 294.648 255.086 294.648C252.606 294.648 250.734 296.488 250.734 298.92C250.734 301.352 252.606 303.192 255.086 303.192ZM255.086 301.864C253.406 301.864 252.158 300.6 252.158 298.92C252.158 297.24 253.406 295.976 255.086 295.976C256.75 295.976 257.998 297.24 257.998 298.92C257.998 300.6 256.75 301.864 255.086 301.864ZM261.231 303H262.607V291.48H261.231V303ZM272.455 303.192C274.679 303.192 276.151 301.832 276.151 299.768V294.84H274.775V299.576C274.775 300.952 273.847 301.864 272.455 301.864C271.063 301.864 270.135 300.952 270.135 299.576V294.84H268.759V299.768C268.759 301.832 270.231 303.192 272.455 303.192ZM281.028 303.192C282.868 303.192 284.324 302.28 284.324 300.664C284.324 298.968 282.756 298.568 281.411 298.248C280.324 297.992 279.396 297.768 279.396 296.968C279.396 296.264 280.18 295.896 281.124 295.896C282.02 295.896 282.788 296.248 283.332 296.776L284.1 295.768C283.412 295.144 282.404 294.648 281.108 294.648C279.428 294.648 277.988 295.464 277.988 297.048C277.988 298.76 279.572 299.176 280.916 299.512C281.988 299.768 282.9 300.008 282.9 300.792C282.9 301.528 282.084 301.944 281.012 301.944C279.956 301.944 279.092 301.544 278.484 300.92L277.715 301.912C278.468 302.632 279.588 303.192 281.028 303.192ZM294.075 298.92C294.075 296.472 292.251 294.648 289.819 294.648C287.371 294.648 285.531 296.472 285.531 298.888C285.531 301.336 287.435 303.192 289.995 303.192C291.579 303.192 292.923 302.504 293.739 301.416L292.795 300.6C292.267 301.352 291.243 301.928 290.043 301.928C288.459 301.928 287.291 300.952 287.019 299.528H294.043C294.059 299.336 294.075 299.112 294.075 298.92ZM289.803 295.912C291.243 295.912 292.363 296.872 292.619 298.28H287.003C287.259 296.888 288.379 295.912 289.803 295.912ZM302.592 291.48V296.312C301.904 295.288 300.784 294.648 299.424 294.648C297.088 294.648 295.344 296.488 295.344 298.92C295.344 301.352 297.088 303.192 299.424 303.192C300.784 303.192 301.904 302.552 302.592 301.528V303H303.968V291.48H302.592ZM299.68 301.864C298 301.864 296.752 300.6 296.752 298.92C296.752 297.24 298 295.976 299.68 295.976C301.344 295.976 302.592 297.24 302.592 298.92C302.592 300.6 301.344 301.864 299.68 301.864ZM314.966 296.088V294.84H312.518V292.648H311.142V294.84H309.67V296.088H311.142V300.824C311.142 302.328 311.958 303.192 313.542 303.192C314.118 303.192 314.55 303.08 314.966 302.856V301.56C314.63 301.736 314.278 301.864 313.83 301.864C312.998 301.864 312.518 301.48 312.518 300.6V296.088H314.966ZM320.242 303.192C322.706 303.192 324.578 301.352 324.578 298.92C324.578 296.488 322.706 294.648 320.242 294.648C317.762 294.648 315.89 296.488 315.89 298.92C315.89 301.352 317.762 303.192 320.242 303.192ZM320.242 301.864C318.562 301.864 317.314 300.6 317.314 298.92C317.314 297.24 318.562 295.976 320.242 295.976C321.906 295.976 323.154 297.24 323.154 298.92C323.154 300.6 321.906 301.864 320.242 301.864ZM334.164 303.192C336.628 303.192 338.5 301.352 338.5 298.92C338.5 296.488 336.628 294.648 334.164 294.648C331.684 294.648 329.812 296.488 329.812 298.92C329.812 301.352 331.684 303.192 334.164 303.192ZM334.164 301.864C332.484 301.864 331.236 300.6 331.236 298.92C331.236 297.24 332.484 295.976 334.164 295.976C335.828 295.976 337.076 297.24 337.076 298.92C337.076 300.6 335.828 301.864 334.164 301.864ZM343.877 303.192C346.101 303.192 347.573 301.832 347.573 299.768V294.84H346.197V299.576C346.197 300.952 345.269 301.864 343.877 301.864C342.485 301.864 341.557 300.952 341.557 299.576V294.84H340.181V299.768C340.181 301.832 341.653 303.192 343.877 303.192ZM354.403 296.088V294.84H351.955V292.648H350.579V294.84H349.107V296.088H350.579V300.824C350.579 302.328 351.395 303.192 352.979 303.192C353.555 303.192 353.987 303.08 354.403 302.856V301.56C354.067 301.736 353.715 301.864 353.267 301.864C352.435 301.864 351.955 301.48 351.955 300.6V296.088H354.403ZM360.712 294.648C359.352 294.648 358.232 295.288 357.544 296.312V294.84H356.168V306.04H357.544V301.528C358.232 302.552 359.352 303.192 360.712 303.192C363.048 303.192 364.808 301.352 364.808 298.92C364.808 296.488 363.048 294.648 360.712 294.648ZM360.456 301.864C358.792 301.864 357.544 300.6 357.544 298.92C357.544 297.24 358.792 295.976 360.456 295.976C362.136 295.976 363.384 297.24 363.384 298.92C363.384 300.6 362.136 301.864 360.456 301.864ZM370.205 303.192C372.429 303.192 373.901 301.832 373.901 299.768V294.84H372.525V299.576C372.525 300.952 371.597 301.864 370.205 301.864C368.813 301.864 367.885 300.952 367.885 299.576V294.84H366.509V299.768C366.509 301.832 367.981 303.192 370.205 303.192ZM380.731 296.088V294.84H378.283V292.648H376.907V294.84H375.435V296.088H376.907V300.824C376.907 302.328 377.723 303.192 379.307 303.192C379.883 303.192 380.315 303.08 380.731 302.856V301.56C380.395 301.736 380.043 301.864 379.595 301.864C378.763 301.864 378.283 301.48 378.283 300.6V296.088H380.731ZM142.872 317.088V315.84H140.424V313.648H139.048V315.84H137.576V317.088H139.048V321.824C139.048 323.328 139.864 324.192 141.448 324.192C142.024 324.192 142.456 324.08 142.872 323.856V322.56C142.536 322.736 142.184 322.864 141.736 322.864C140.904 322.864 140.424 322.48 140.424 321.6V317.088H142.872ZM148.957 315.648C147.677 315.648 146.653 316.176 146.013 317.136V312.48H144.637V324H146.013V319.424C146.013 317.952 147.005 316.976 148.509 316.976C149.965 316.976 150.893 317.936 150.893 319.392V324H152.269V318.96C152.269 316.96 150.941 315.648 148.957 315.648ZM162.512 319.92C162.512 317.472 160.688 315.648 158.256 315.648C155.808 315.648 153.968 317.472 153.968 319.888C153.968 322.336 155.872 324.192 158.432 324.192C160.016 324.192 161.36 323.504 162.176 322.416L161.232 321.6C160.704 322.352 159.68 322.928 158.48 322.928C156.896 322.928 155.728 321.952 155.456 320.528H162.48C162.496 320.336 162.512 320.112 162.512 319.92ZM158.24 316.912C159.68 316.912 160.8 317.872 161.056 319.28H155.44C155.696 317.888 156.816 316.912 158.24 316.912ZM172.391 315.712C171.174 315.712 170.215 316.272 169.607 317.248V315.84H168.231V324H169.607V319.92C169.607 318.224 170.663 317.136 172.391 317.136H172.663V315.712H172.391ZM181.793 319.92C181.793 317.472 179.969 315.648 177.537 315.648C175.089 315.648 173.249 317.472 173.249 319.888C173.249 322.336 175.153 324.192 177.713 324.192C179.297 324.192 180.641 323.504 181.457 322.416L180.513 321.6C179.985 322.352 178.961 322.928 177.761 322.928C176.177 322.928 175.009 321.952 174.737 320.528H181.761C181.777 320.336 181.793 320.112 181.793 319.92ZM177.521 316.912C178.961 316.912 180.081 317.872 180.337 319.28H174.721C174.977 317.888 176.097 316.912 177.521 316.912ZM187.383 324.192C188.999 324.192 190.375 323.392 191.111 322.144L189.911 321.424C189.415 322.288 188.487 322.864 187.383 322.864C185.703 322.864 184.455 321.6 184.455 319.92C184.455 318.24 185.703 316.976 187.383 316.976C188.487 316.976 189.415 317.552 189.911 318.416L191.111 317.696C190.375 316.448 188.999 315.648 187.383 315.648C184.903 315.648 183.031 317.488 183.031 319.92C183.031 322.352 184.903 324.192 187.383 324.192ZM196.523 324.192C198.987 324.192 200.859 322.352 200.859 319.92C200.859 317.488 198.987 315.648 196.523 315.648C194.043 315.648 192.171 317.488 192.171 319.92C192.171 322.352 194.043 324.192 196.523 324.192ZM196.523 322.864C194.843 322.864 193.595 321.6 193.595 319.92C193.595 318.24 194.843 316.976 196.523 316.976C198.187 316.976 199.435 318.24 199.435 319.92C199.435 321.6 198.187 322.864 196.523 322.864ZM212.412 315.648C211.1 315.648 210.06 316.224 209.452 317.248C208.972 316.24 207.996 315.648 206.716 315.648C205.564 315.648 204.636 316.112 204.044 316.944V315.84H202.668V324H204.044V319.152C204.044 317.84 204.94 316.976 206.268 316.976C207.564 316.976 208.396 317.824 208.396 319.12V324H209.772V319.152C209.772 317.84 210.668 316.976 211.996 316.976C213.292 316.976 214.124 317.824 214.124 319.12V324H215.5V318.736C215.5 316.864 214.284 315.648 212.412 315.648ZM227.459 315.648C226.147 315.648 225.107 316.224 224.499 317.248C224.019 316.24 223.043 315.648 221.763 315.648C220.611 315.648 219.683 316.112 219.091 316.944V315.84H217.715V324H219.091V319.152C219.091 317.84 219.987 316.976 221.315 316.976C222.611 316.976 223.443 317.824 223.443 319.12V324H224.819V319.152C224.819 317.84 225.715 316.976 227.043 316.976C228.339 316.976 229.171 317.824 229.171 319.12V324H230.547V318.736C230.547 316.864 229.331 315.648 227.459 315.648ZM240.778 319.92C240.778 317.472 238.954 315.648 236.522 315.648C234.074 315.648 232.234 317.472 232.234 319.888C232.234 322.336 234.138 324.192 236.698 324.192C238.282 324.192 239.626 323.504 240.442 322.416L239.498 321.6C238.97 322.352 237.946 322.928 236.746 322.928C235.162 322.928 233.994 321.952 233.722 320.528H240.746C240.762 320.336 240.778 320.112 240.778 319.92ZM236.506 316.912C237.946 316.912 239.066 317.872 239.322 319.28H233.706C233.962 317.888 235.082 316.912 236.506 316.912ZM246.863 315.648C245.583 315.648 244.559 316.16 243.919 317.088V315.84H242.543V324H243.919V319.424C243.919 317.952 244.911 316.976 246.415 316.976C247.871 316.976 248.799 317.936 248.799 319.392V324H250.175V318.96C250.175 316.96 248.847 315.648 246.863 315.648ZM259.154 312.48V317.312C258.466 316.288 257.346 315.648 255.986 315.648C253.65 315.648 251.906 317.488 251.906 319.92C251.906 322.352 253.65 324.192 255.986 324.192C257.346 324.192 258.466 323.552 259.154 322.528V324H260.53V312.48H259.154ZM256.242 322.864C254.562 322.864 253.314 321.6 253.314 319.92C253.314 318.24 254.562 316.976 256.242 316.976C257.906 316.976 259.154 318.24 259.154 319.92C259.154 321.6 257.906 322.864 256.242 322.864ZM270.887 319.92C270.887 317.472 269.063 315.648 266.631 315.648C264.183 315.648 262.343 317.472 262.343 319.888C262.343 322.336 264.247 324.192 266.807 324.192C268.391 324.192 269.735 323.504 270.551 322.416L269.607 321.6C269.079 322.352 268.055 322.928 266.855 322.928C265.271 322.928 264.103 321.952 263.831 320.528H270.855C270.871 320.336 270.887 320.112 270.887 319.92ZM266.615 316.912C268.055 316.912 269.175 317.872 269.431 319.28H263.815C264.071 317.888 265.191 316.912 266.615 316.912ZM279.404 312.48V317.312C278.716 316.288 277.596 315.648 276.236 315.648C273.9 315.648 272.156 317.488 272.156 319.92C272.156 322.352 273.9 324.192 276.236 324.192C277.596 324.192 278.716 323.552 279.404 322.528V324H280.78V312.48H279.404ZM276.492 322.864C274.812 322.864 273.564 321.6 273.564 319.92C273.564 318.24 274.812 316.976 276.492 316.976C278.156 316.976 279.404 318.24 279.404 319.92C279.404 321.6 278.156 322.864 276.492 322.864ZM291.618 315.648C290.258 315.648 289.138 316.288 288.45 317.312V315.84H287.074V327.04H288.45V322.528C289.138 323.552 290.258 324.192 291.618 324.192C293.954 324.192 295.714 322.352 295.714 319.92C295.714 317.488 293.954 315.648 291.618 315.648ZM291.362 322.864C289.698 322.864 288.45 321.6 288.45 319.92C288.45 318.24 289.698 316.976 291.362 316.976C293.042 316.976 294.29 318.24 294.29 319.92C294.29 321.6 293.042 322.864 291.362 322.864ZM304.295 315.84V317.312C303.607 316.288 302.487 315.648 301.127 315.648C298.791 315.648 297.047 317.488 297.047 319.92C297.047 322.352 298.791 324.192 301.127 324.192C302.487 324.192 303.607 323.552 304.295 322.528V324H305.671V315.84H304.295ZM301.383 322.864C299.703 322.864 298.455 321.6 298.455 319.92C298.455 318.24 299.703 316.976 301.383 316.976C303.047 316.976 304.295 318.24 304.295 319.92C304.295 321.6 303.047 322.864 301.383 322.864ZM312.716 317.088V315.84H310.268V313.648H308.892V315.84H307.42V317.088H308.892V321.824C308.892 323.328 309.708 324.192 311.292 324.192C311.868 324.192 312.3 324.08 312.716 323.856V322.56C312.38 322.736 312.028 322.864 311.58 322.864C310.748 322.864 310.268 322.48 310.268 321.6V317.088H312.716ZM318.801 315.648C317.521 315.648 316.497 316.176 315.857 317.136V312.48H314.481V324H315.857V319.424C315.857 317.952 316.849 316.976 318.353 316.976C319.809 316.976 320.737 317.936 320.737 319.392V324H322.113V318.96C322.113 316.96 320.785 315.648 318.801 315.648ZM334.925 315.84L332.717 322.336L330.461 315.84H329.053L326.813 322.32L324.605 315.84H323.053L326.045 324H327.485L329.741 317.472L331.997 324H333.437L336.429 315.84H334.925ZM344.154 315.84V317.312C343.466 316.288 342.346 315.648 340.986 315.648C338.65 315.648 336.906 317.488 336.906 319.92C336.906 322.352 338.65 324.192 340.986 324.192C342.346 324.192 343.466 323.552 344.154 322.528V324H345.53V315.84H344.154ZM341.242 322.864C339.562 322.864 338.314 321.6 338.314 319.92C338.314 318.24 339.562 316.976 341.242 316.976C342.906 316.976 344.154 318.24 344.154 319.92C344.154 321.6 342.906 322.864 341.242 322.864ZM354.015 315.84L351.263 322.352L348.511 315.84H346.927L350.479 323.952L349.887 325.168C349.631 325.696 349.263 325.904 348.847 325.904C348.431 325.904 348.031 325.696 347.759 325.392L347.183 326.448C347.663 326.928 348.415 327.232 349.055 327.232C349.935 327.232 350.735 326.688 351.151 325.728L355.551 315.84H354.015ZM365.606 317.088V315.84H363.158V313.648H361.782V315.84H360.31V317.088H361.782V321.824C361.782 323.328 362.598 324.192 364.182 324.192C364.758 324.192 365.19 324.08 365.606 323.856V322.56C365.27 322.736 364.918 322.864 364.47 322.864C363.638 322.864 363.158 322.48 363.158 321.6V317.088H365.606ZM370.883 324.192C373.347 324.192 375.219 322.352 375.219 319.92C375.219 317.488 373.347 315.648 370.883 315.648C368.403 315.648 366.531 317.488 366.531 319.92C366.531 322.352 368.403 324.192 370.883 324.192ZM370.883 322.864C369.203 322.864 367.955 321.6 367.955 319.92C367.955 318.24 369.203 316.976 370.883 316.976C372.547 316.976 373.795 318.24 373.795 319.92C373.795 321.6 372.547 322.864 370.883 322.864ZM141.72 334.552C142.168 334.552 142.504 334.664 142.84 334.84V333.624C142.408 333.4 142.008 333.288 141.432 333.288C139.848 333.288 139.032 334.168 139.032 335.704V336.84H137.544V338.088H139.032V345H140.408V338.088H142.76V336.84H140.408V335.8C140.408 334.92 140.888 334.552 141.72 334.552ZM147.908 345.192C150.132 345.192 151.604 343.832 151.604 341.768V336.84H150.228V341.576C150.228 342.952 149.3 343.864 147.908 343.864C146.516 343.864 145.588 342.952 145.588 341.576V336.84H144.212V341.768C144.212 343.832 145.684 345.192 147.908 345.192ZM158.129 336.648C156.849 336.648 155.825 337.16 155.185 338.088V336.84H153.809V345H155.185V340.424C155.185 338.952 156.177 337.976 157.681 337.976C159.137 337.976 160.065 338.936 160.065 340.392V345H161.441V339.96C161.441 337.96 160.113 336.648 158.129 336.648ZM170.42 333.48V338.312C169.732 337.288 168.612 336.648 167.252 336.648C164.916 336.648 163.172 338.488 163.172 340.92C163.172 343.352 164.916 345.192 167.252 345.192C168.612 345.192 169.732 344.552 170.42 343.528V345H171.796V333.48H170.42ZM167.508 343.864C165.828 343.864 164.58 342.6 164.58 340.92C164.58 339.24 165.828 337.976 167.508 337.976C169.172 337.976 170.42 339.24 170.42 340.92C170.42 342.6 169.172 343.864 167.508 343.864ZM174.825 335.208C175.337 335.208 175.737 334.808 175.737 334.296C175.737 333.768 175.337 333.384 174.825 333.384C174.297 333.384 173.897 333.768 173.897 334.296C173.897 334.808 174.297 335.208 174.825 335.208ZM174.137 345H175.513V336.84H174.137V345ZM182.16 336.648C180.88 336.648 179.856 337.16 179.216 338.088V336.84H177.84V345H179.216V340.424C179.216 338.952 180.208 337.976 181.712 337.976C183.168 337.976 184.096 338.936 184.096 340.392V345H185.472V339.96C185.472 337.96 184.144 336.648 182.16 336.648ZM192.835 345.208H189.843C189.155 345.208 188.691 344.84 188.691 344.264C188.691 343.912 188.883 343.56 189.203 343.352C189.715 343.608 190.291 343.736 190.931 343.736C193.043 343.736 194.659 342.2 194.659 340.184C194.659 339.32 194.371 338.552 193.859 337.944C193.875 337.4 194.275 337.048 194.867 337.048H195.411V335.768H194.787C193.795 335.768 193.091 336.312 192.931 337.176C192.355 336.84 191.683 336.648 190.931 336.648C188.803 336.648 187.203 338.168 187.203 340.184C187.203 341.224 187.635 342.136 188.323 342.776C187.699 343.128 187.315 343.848 187.315 344.616C187.315 345.768 188.227 346.552 189.587 346.552H192.595C193.523 346.552 194.163 347.032 194.195 347.768L195.619 347.4C195.459 346.04 194.371 345.208 192.835 345.208ZM190.931 337.96C192.243 337.96 193.235 338.92 193.235 340.184C193.235 341.464 192.243 342.424 190.931 342.424C189.619 342.424 188.627 341.464 188.627 340.184C188.627 338.92 189.603 337.96 190.931 337.96ZM204.189 334.552C204.637 334.552 204.973 334.664 205.309 334.84V333.624C204.877 333.4 204.477 333.288 203.901 333.288C202.317 333.288 201.501 334.168 201.501 335.704V336.84H200.013V338.088H201.501V345H202.877V338.088H205.229V336.84H202.877V335.8C202.877 334.92 203.357 334.552 204.189 334.552ZM210.101 345.192C212.565 345.192 214.437 343.352 214.437 340.92C214.437 338.488 212.565 336.648 210.101 336.648C207.621 336.648 205.749 338.488 205.749 340.92C205.749 343.352 207.621 345.192 210.101 345.192ZM210.101 343.864C208.421 343.864 207.173 342.6 207.173 340.92C207.173 339.24 208.421 337.976 210.101 337.976C211.765 337.976 213.013 339.24 213.013 340.92C213.013 342.6 211.765 343.864 210.101 343.864ZM220.406 336.712C219.19 336.712 218.23 337.272 217.622 338.248V336.84H216.246V345H217.622V340.92C217.622 339.224 218.678 338.136 220.406 338.136H220.678V336.712H220.406ZM230.825 338.088V336.84H228.377V334.648H227.001V336.84H225.529V338.088H227.001V342.824C227.001 344.328 227.817 345.192 229.401 345.192C229.977 345.192 230.409 345.08 230.825 344.856V343.56C230.489 343.736 230.137 343.864 229.689 343.864C228.857 343.864 228.377 343.48 228.377 342.6V338.088H230.825ZM236.91 336.648C235.63 336.648 234.606 337.176 233.966 338.136V333.48H232.59V345H233.966V340.424C233.966 338.952 234.958 337.976 236.462 337.976C237.918 337.976 238.846 338.936 238.846 340.392V345H240.222V339.96C240.222 337.96 238.894 336.648 236.91 336.648ZM250.465 340.92C250.465 338.472 248.641 336.648 246.209 336.648C243.761 336.648 241.921 338.472 241.921 340.888C241.921 343.336 243.825 345.192 246.385 345.192C247.969 345.192 249.313 344.504 250.129 343.416L249.185 342.6C248.657 343.352 247.633 343.928 246.433 343.928C244.849 343.928 243.681 342.952 243.409 341.528H250.433C250.449 341.336 250.465 341.112 250.465 340.92ZM246.193 337.912C247.633 337.912 248.753 338.872 249.009 340.28H243.393C243.649 338.888 244.769 337.912 246.193 337.912ZM258.856 345.192C260.696 345.192 262.152 344.28 262.152 342.664C262.152 340.968 260.584 340.568 259.24 340.248C258.152 339.992 257.224 339.768 257.224 338.968C257.224 338.264 258.008 337.896 258.952 337.896C259.848 337.896 260.616 338.248 261.16 338.776L261.928 337.768C261.24 337.144 260.232 336.648 258.936 336.648C257.256 336.648 255.816 337.464 255.816 339.048C255.816 340.76 257.4 341.176 258.744 341.512C259.816 341.768 260.728 342.008 260.728 342.792C260.728 343.528 259.912 343.944 258.84 343.944C257.784 343.944 256.92 343.544 256.312 342.92L255.544 343.912C256.296 344.632 257.416 345.192 258.856 345.192ZM268.356 338.088V336.84H265.908V334.648H264.532V336.84H263.06V338.088H264.532V342.824C264.532 344.328 265.348 345.192 266.932 345.192C267.508 345.192 267.94 345.08 268.356 344.856V343.56C268.02 343.736 267.668 343.864 267.22 343.864C266.388 343.864 265.908 343.48 265.908 342.6V338.088H268.356ZM276.561 336.84V338.312C275.873 337.288 274.753 336.648 273.393 336.648C271.057 336.648 269.313 338.488 269.313 340.92C269.313 343.352 271.057 345.192 273.393 345.192C274.753 345.192 275.873 344.552 276.561 343.528V345H277.937V336.84H276.561ZM273.649 343.864C271.969 343.864 270.721 342.6 270.721 340.92C270.721 339.24 271.969 337.976 273.649 337.976C275.313 337.976 276.561 339.24 276.561 340.92C276.561 342.6 275.313 343.864 273.649 343.864ZM284.437 336.712C283.221 336.712 282.261 337.272 281.653 338.248V336.84H280.277V345H281.653V340.92C281.653 339.224 282.709 338.136 284.437 338.136H284.709V336.712H284.437ZM290.997 338.088V336.84H288.549V334.648H287.173V336.84H285.701V338.088H287.173V342.824C287.173 344.328 287.989 345.192 289.573 345.192C290.149 345.192 290.581 345.08 290.997 344.856V343.56C290.661 343.736 290.309 343.864 289.861 343.864C289.029 343.864 288.549 343.48 288.549 342.6V338.088H290.997ZM296.33 345.192C298.554 345.192 300.026 343.832 300.026 341.768V336.84H298.65V341.576C298.65 342.952 297.722 343.864 296.33 343.864C294.938 343.864 294.01 342.952 294.01 341.576V336.84H292.634V341.768C292.634 343.832 294.106 345.192 296.33 345.192ZM306.775 336.648C305.415 336.648 304.295 337.288 303.607 338.312V336.84H302.231V348.04H303.607V343.528C304.295 344.552 305.415 345.192 306.775 345.192C309.111 345.192 310.871 343.352 310.871 340.92C310.871 338.488 309.111 336.648 306.775 336.648ZM306.519 343.864C304.855 343.864 303.607 342.6 303.607 340.92C303.607 339.24 304.855 337.976 306.519 337.976C308.199 337.976 309.447 339.24 309.447 340.92C309.447 342.6 308.199 343.864 306.519 343.864ZM313.106 345.112C313.698 345.112 314.146 344.664 314.146 344.088C314.146 343.512 313.698 343.064 313.106 343.064C312.53 343.064 312.082 343.512 312.082 344.088C312.082 344.664 312.53 345.112 313.106 345.112Z" fill="black"/>
<defs>
<filter id="filter0_f" x="0" y="0.871582" width="549" height="542.129" filterUnits="userSpaceOnUse" color-interpolation-filters="sRGB">
<feFlood flood-opacity="0" result="BackgroundImageFix"/>
<feBlend mode="normal" in="SourceGraphic" in2="BackgroundImageFix" result="shape"/>
<feGaussianBlur stdDeviation="75" result="effect1_foregroundBlur"/>
</filter>
</defs>
</svg>
