<svg width="549" height="543" viewBox="0 0 549 543" fill="none" xmlns="http://www.w3.org/2000/svg">
<g opacity="0.2" filter="url(#filter0_f)">
<rect x="150" y="150.872" width="249" height="242.129" rx="14.4" fill="#0F0941"/>
</g>
<rect x="100" y="133" width="348" height="260" rx="30" fill="#FEFEFE"/>
<path d="M144.44 255.288C148.064 255.288 150.896 253.248 150.896 250.272C150.896 246.48 146.36 245.352 144.824 245.04C143.288 244.704 141.56 244.152 141.56 242.88C141.56 241.848 142.736 241.104 144.392 241.104C146.048 241.104 147.704 241.8 148.64 242.712L150.176 240.216C148.952 239.016 146.912 238.152 144.44 238.152C140.72 238.152 138.152 240.072 138.152 243.024C138.152 245.928 140.744 247.44 143.912 248.184C145.616 248.592 147.488 249.024 147.488 250.416C147.488 251.568 146.096 252.336 144.44 252.336C142.568 252.336 140.6 251.448 139.256 250.176L137.552 252.696C139.232 254.256 141.896 255.288 144.44 255.288ZM162.283 242.76V244.224C161.299 243.144 159.931 242.472 158.299 242.472C154.891 242.472 152.323 245.232 152.323 248.88C152.323 252.528 154.891 255.288 158.299 255.288C159.931 255.288 161.299 254.616 162.283 253.536V255H165.403V242.76H162.283ZM158.899 252.264C156.979 252.264 155.539 250.8 155.539 248.88C155.539 246.96 156.979 245.496 158.899 245.496C160.843 245.496 162.283 246.96 162.283 248.88C162.283 250.8 160.843 252.264 158.899 252.264ZM168.371 255H171.491V237.72H168.371V255ZM183.729 242.76V244.224C182.745 243.144 181.377 242.472 179.745 242.472C176.337 242.472 173.769 245.232 173.769 248.88C173.769 252.528 176.337 255.288 179.745 255.288C181.377 255.288 182.745 254.616 183.729 253.536V255H186.849V242.76H183.729ZM180.345 252.264C178.425 252.264 176.985 250.8 176.985 248.88C176.985 246.96 178.425 245.496 180.345 245.496C182.289 245.496 183.729 246.96 183.729 248.88C183.729 250.8 182.289 252.264 180.345 252.264ZM196.464 242.568C195.024 242.568 193.824 243.216 192.936 244.344V242.76H189.816V255H192.936V249.192C192.936 247.104 194.232 245.784 196.464 245.784H196.992V242.568H196.464ZM207.805 242.76L204.637 251.088L201.445 242.76H197.893L202.885 254.808L202.381 255.864C202.069 256.56 201.565 256.824 200.989 256.824C200.461 256.824 199.885 256.584 199.501 256.176L198.301 258.624C199.117 259.368 200.413 259.848 201.517 259.848C203.125 259.848 204.565 258.816 205.237 257.136L211.285 242.76H207.805ZM233.184 255L230.4 251.904C231.36 250.632 231.984 249.12 232.488 247.728L230.64 247.08C230.256 248.304 229.728 249.456 229.056 250.44L224.616 245.544C226.392 244.608 228.048 243.48 228.048 241.584C228.048 239.592 226.272 238.152 223.992 238.152C221.76 238.152 219.984 239.616 219.984 241.608C219.984 242.784 220.608 243.96 221.544 245.16C219.792 246.168 218.232 247.56 218.232 250.008C218.232 253.08 220.752 255.288 224.232 255.288C226.128 255.288 227.736 254.64 229.032 253.512L230.376 255H233.184ZM223.992 239.856C225.048 239.856 225.888 240.6 225.888 241.584C225.888 242.712 224.808 243.456 223.416 244.176C222.552 243.12 222.12 242.328 222.12 241.608C222.12 240.576 222.96 239.856 223.992 239.856ZM224.304 253.32C222.12 253.32 220.44 251.88 220.44 249.864C220.44 248.352 221.424 247.368 222.744 246.528L227.688 252C226.728 252.816 225.576 253.32 224.304 253.32ZM252.16 238.44H239.368V240.504H244.672V255H246.856V240.504H252.16V238.44ZM262.575 242.76V244.968C261.543 243.432 259.863 242.472 257.823 242.472C254.319 242.472 251.703 245.232 251.703 248.88C251.703 252.528 254.319 255.288 257.823 255.288C259.863 255.288 261.543 254.328 262.575 252.792V255H264.639V242.76H262.575ZM258.207 253.296C255.687 253.296 253.815 251.4 253.815 248.88C253.815 246.36 255.687 244.464 258.207 244.464C260.703 244.464 262.575 246.36 262.575 248.88C262.575 251.4 260.703 253.296 258.207 253.296ZM279.358 255L274.63 248.856L279.286 242.76H276.766L273.214 247.464L269.662 242.76H267.142L271.798 248.856L267.07 255H269.59L273.19 250.224L276.814 255H279.358ZM295.689 255.288C298.761 255.288 301.377 253.824 302.913 251.568L301.017 250.392C299.889 252.096 297.969 253.176 295.689 253.176C292.041 253.176 289.281 250.392 289.281 246.72C289.281 243.048 292.041 240.264 295.689 240.264C297.969 240.264 299.889 241.344 301.017 243.048L302.913 241.872C301.377 239.616 298.761 238.152 295.689 238.152C290.745 238.152 287.025 241.848 287.025 246.72C287.025 251.592 290.745 255.288 295.689 255.288ZM315.427 242.76V244.968C314.395 243.432 312.715 242.472 310.675 242.472C307.171 242.472 304.555 245.232 304.555 248.88C304.555 252.528 307.171 255.288 310.675 255.288C312.715 255.288 314.395 254.328 315.427 252.792V255H317.491V242.76H315.427ZM311.059 253.296C308.539 253.296 306.667 251.4 306.667 248.88C306.667 246.36 308.539 244.464 311.059 244.464C313.555 244.464 315.427 246.36 315.427 248.88C315.427 251.4 313.555 253.296 311.059 253.296ZM321.002 255H323.066V237.72H321.002V255ZM332.293 255.288C334.717 255.288 336.781 254.088 337.885 252.216L336.085 251.136C335.341 252.432 333.949 253.296 332.293 253.296C329.773 253.296 327.901 251.4 327.901 248.88C327.901 246.36 329.773 244.464 332.293 244.464C333.949 244.464 335.341 245.328 336.085 246.624L337.885 245.544C336.781 243.672 334.717 242.472 332.293 242.472C328.573 242.472 325.765 245.232 325.765 248.88C325.765 252.528 328.573 255.288 332.293 255.288ZM345.737 255.288C349.073 255.288 351.281 253.248 351.281 250.152V242.76H349.217V249.864C349.217 251.928 347.825 253.296 345.737 253.296C343.649 253.296 342.257 251.928 342.257 249.864V242.76H340.193V250.152C340.193 253.248 342.401 255.288 345.737 255.288ZM354.588 255H356.652V237.72H354.588V255ZM370.271 242.76V244.968C369.239 243.432 367.559 242.472 365.519 242.472C362.015 242.472 359.399 245.232 359.399 248.88C359.399 252.528 362.015 255.288 365.519 255.288C367.559 255.288 369.239 254.328 370.271 252.792V255H372.335V242.76H370.271ZM365.903 253.296C363.383 253.296 361.511 251.4 361.511 248.88C361.511 246.36 363.383 244.464 365.903 244.464C368.399 244.464 370.271 246.36 370.271 248.88C370.271 251.4 368.399 253.296 365.903 253.296ZM382.902 244.632V242.76H379.23V239.472H377.166V242.76H374.958V244.632H377.166V251.736C377.166 253.992 378.39 255.288 380.766 255.288C381.63 255.288 382.278 255.12 382.902 254.784V252.84C382.398 253.104 381.87 253.296 381.198 253.296C379.95 253.296 379.23 252.72 379.23 251.4V244.632H382.902ZM390.816 255.288C394.512 255.288 397.32 252.528 397.32 248.88C397.32 245.232 394.512 242.472 390.816 242.472C387.096 242.472 384.288 245.232 384.288 248.88C384.288 252.528 387.096 255.288 390.816 255.288ZM390.816 253.296C388.296 253.296 386.424 251.4 386.424 248.88C386.424 246.36 388.296 244.464 390.816 244.464C393.312 244.464 395.184 246.36 395.184 248.88C395.184 251.4 393.312 253.296 390.816 253.296ZM406.273 242.568C404.449 242.568 403.009 243.408 402.097 244.872V242.76H400.033V255H402.097V248.88C402.097 246.336 403.681 244.704 406.273 244.704H406.681V242.568H406.273Z" fill="black"/>
<path d="M146.456 303H148.072L143.576 291.96H141.832L137.336 303H138.904L139.976 300.328H145.384L146.456 303ZM140.52 298.968L142.68 293.544L144.84 298.968H140.52ZM153.894 294.648C152.614 294.648 151.59 295.16 150.95 296.088V294.84H149.574V303H150.95V298.424C150.95 296.952 151.942 295.976 153.446 295.976C154.902 295.976 155.83 296.936 155.83 298.392V303H157.206V297.96C157.206 295.96 155.878 294.648 153.894 294.648ZM164.075 293.208C164.587 293.208 164.987 292.808 164.987 292.296C164.987 291.768 164.587 291.384 164.075 291.384C163.547 291.384 163.147 291.768 163.147 292.296C163.147 292.808 163.547 293.208 164.075 293.208ZM163.387 303H164.763V294.84H163.387V303ZM171.41 294.648C170.13 294.648 169.106 295.16 168.466 296.088V294.84H167.09V303H168.466V298.424C168.466 296.952 169.458 295.976 170.962 295.976C172.418 295.976 173.346 296.936 173.346 298.392V303H174.722V297.96C174.722 295.96 173.394 294.648 171.41 294.648ZM181.2 296.088V294.84H178.752V292.648H177.376V294.84H175.904V296.088H177.376V300.824C177.376 302.328 178.192 303.192 179.776 303.192C180.352 303.192 180.784 303.08 181.2 302.856V301.56C180.864 301.736 180.512 301.864 180.064 301.864C179.232 301.864 178.752 301.48 178.752 300.6V296.088H181.2ZM190.668 298.92C190.668 296.472 188.844 294.648 186.412 294.648C183.964 294.648 182.124 296.472 182.124 298.888C182.124 301.336 184.028 303.192 186.588 303.192C188.172 303.192 189.516 302.504 190.332 301.416L189.388 300.6C188.86 301.352 187.836 301.928 186.636 301.928C185.052 301.928 183.884 300.952 183.612 299.528H190.636C190.652 299.336 190.668 299.112 190.668 298.92ZM186.396 295.912C187.836 295.912 188.956 296.872 189.212 298.28H183.596C183.852 296.888 184.972 295.912 186.396 295.912ZM196.594 294.712C195.378 294.712 194.418 295.272 193.81 296.248V294.84H192.434V303H193.81V298.92C193.81 297.224 194.866 296.136 196.594 296.136H196.866V294.712H196.594ZM204.733 294.84V296.312C204.045 295.288 202.925 294.648 201.565 294.648C199.229 294.648 197.485 296.488 197.485 298.92C197.485 301.352 199.229 303.192 201.565 303.192C202.925 303.192 204.045 302.552 204.733 301.528V303H206.109V294.84H204.733ZM201.821 301.864C200.141 301.864 198.893 300.6 198.893 298.92C198.893 297.24 200.141 295.976 201.821 295.976C203.485 295.976 204.733 297.24 204.733 298.92C204.733 300.6 203.485 301.864 201.821 301.864ZM212.273 303.192C213.889 303.192 215.265 302.392 216.001 301.144L214.801 300.424C214.305 301.288 213.377 301.864 212.273 301.864C210.593 301.864 209.345 300.6 209.345 298.92C209.345 297.24 210.593 295.976 212.273 295.976C213.377 295.976 214.305 296.552 214.801 297.416L216.001 296.696C215.265 295.448 213.889 294.648 212.273 294.648C209.793 294.648 207.921 296.488 207.921 298.92C207.921 301.352 209.793 303.192 212.273 303.192ZM222.278 296.088V294.84H219.83V292.648H218.454V294.84H216.982V296.088H218.454V300.824C218.454 302.328 219.27 303.192 220.854 303.192C221.43 303.192 221.862 303.08 222.278 302.856V301.56C221.942 301.736 221.59 301.864 221.142 301.864C220.31 301.864 219.83 301.48 219.83 300.6V296.088H222.278ZM224.731 293.208C225.243 293.208 225.643 292.808 225.643 292.296C225.643 291.768 225.243 291.384 224.731 291.384C224.203 291.384 223.803 291.768 223.803 292.296C223.803 292.808 224.203 293.208 224.731 293.208ZM224.043 303H225.419V294.84H224.043V303ZM233.89 294.84L231.138 301.352L228.386 294.84H226.802L230.386 303H231.842L235.426 294.84H233.89ZM244.372 298.92C244.372 296.472 242.548 294.648 240.116 294.648C237.668 294.648 235.828 296.472 235.828 298.888C235.828 301.336 237.732 303.192 240.292 303.192C241.876 303.192 243.22 302.504 244.036 301.416L243.092 300.6C242.564 301.352 241.54 301.928 240.34 301.928C238.756 301.928 237.588 300.952 237.316 299.528H244.34C244.356 299.336 244.372 299.112 244.372 298.92ZM240.1 295.912C241.54 295.912 242.66 296.872 242.916 298.28H237.299C237.556 296.888 238.676 295.912 240.1 295.912ZM259.834 294.648C258.522 294.648 257.482 295.224 256.874 296.248C256.394 295.24 255.418 294.648 254.138 294.648C252.986 294.648 252.058 295.112 251.466 295.944V294.84H250.09V303H251.466V298.152C251.466 296.84 252.362 295.976 253.69 295.976C254.986 295.976 255.818 296.824 255.818 298.12V303H257.194V298.152C257.194 296.84 258.09 295.976 259.418 295.976C260.714 295.976 261.546 296.824 261.546 298.12V303H262.922V297.736C262.922 295.864 261.706 294.648 259.834 294.648ZM271.889 294.84V296.312C271.201 295.288 270.081 294.648 268.721 294.648C266.385 294.648 264.641 296.488 264.641 298.92C264.641 301.352 266.385 303.192 268.721 303.192C270.081 303.192 271.201 302.552 271.889 301.528V303H273.265V294.84H271.889ZM268.977 301.864C267.297 301.864 266.049 300.6 266.049 298.92C266.049 297.24 267.297 295.976 268.977 295.976C270.641 295.976 271.889 297.24 271.889 298.92C271.889 300.6 270.641 301.864 268.977 301.864ZM280.15 294.648C278.79 294.648 277.67 295.288 276.982 296.312V294.84H275.606V306.04H276.982V301.528C277.67 302.552 278.79 303.192 280.15 303.192C282.486 303.192 284.246 301.352 284.246 298.92C284.246 296.488 282.486 294.648 280.15 294.648ZM279.894 301.864C278.23 301.864 276.982 300.6 276.982 298.92C276.982 297.24 278.23 295.976 279.894 295.976C281.574 295.976 282.822 297.24 282.822 298.92C282.822 300.6 281.574 301.864 279.894 301.864ZM296.779 294.84V296.312C296.091 295.288 294.971 294.648 293.611 294.648C291.275 294.648 289.531 296.488 289.531 298.92C289.531 301.352 291.275 303.192 293.611 303.192C294.971 303.192 296.091 302.552 296.779 301.528V303H298.155V294.84H296.779ZM293.867 301.864C292.187 301.864 290.939 300.6 290.939 298.92C290.939 297.24 292.187 295.976 293.867 295.976C295.531 295.976 296.779 297.24 296.779 298.92C296.779 300.6 295.531 301.864 293.867 301.864ZM300.496 303H301.872V291.48H300.496V303ZM304.199 303H305.575V291.48H304.199V303ZM311.726 303.192C314.19 303.192 316.062 301.352 316.062 298.92C316.062 296.488 314.19 294.648 311.726 294.648C309.246 294.648 307.374 296.488 307.374 298.92C307.374 301.352 309.246 303.192 311.726 303.192ZM311.726 301.864C310.046 301.864 308.798 300.6 308.798 298.92C308.798 297.24 310.046 295.976 311.726 295.976C313.39 295.976 314.638 297.24 314.638 298.92C314.638 300.6 313.39 301.864 311.726 301.864ZM328.378 294.84L326.17 301.336L323.914 294.84H322.506L320.266 301.32L318.058 294.84H316.506L319.498 303H320.938L323.194 296.472L325.45 303H326.89L329.882 294.84H328.378ZM332.012 293.208C332.524 293.208 332.924 292.808 332.924 292.296C332.924 291.768 332.524 291.384 332.012 291.384C331.484 291.384 331.084 291.768 331.084 292.296C331.084 292.808 331.484 293.208 332.012 293.208ZM331.324 303H332.7V294.84H331.324V303ZM339.347 294.648C338.067 294.648 337.043 295.16 336.403 296.088V294.84H335.027V303H336.403V298.424C336.403 296.952 337.395 295.976 338.899 295.976C340.355 295.976 341.283 296.936 341.283 298.392V303H342.659V297.96C342.659 295.96 341.331 294.648 339.347 294.648ZM350.023 303.208H347.031C346.343 303.208 345.879 302.84 345.879 302.264C345.879 301.912 346.071 301.56 346.391 301.352C346.903 301.608 347.479 301.736 348.119 301.736C350.231 301.736 351.847 300.2 351.847 298.184C351.847 297.32 351.559 296.552 351.047 295.944C351.063 295.4 351.463 295.048 352.055 295.048H352.599V293.768H351.975C350.983 293.768 350.279 294.312 350.119 295.176C349.543 294.84 348.871 294.648 348.119 294.648C345.991 294.648 344.391 296.168 344.391 298.184C344.391 299.224 344.823 300.136 345.511 300.776C344.887 301.128 344.503 301.848 344.503 302.616C344.503 303.768 345.415 304.552 346.775 304.552H349.783C350.711 304.552 351.351 305.032 351.383 305.768L352.807 305.4C352.647 304.04 351.559 303.208 350.023 303.208ZM348.119 295.96C349.431 295.96 350.423 296.92 350.423 298.184C350.423 299.464 349.431 300.424 348.119 300.424C346.807 300.424 345.815 299.464 345.815 298.184C345.815 296.92 346.791 295.96 348.119 295.96ZM361.392 303.192C363.616 303.192 365.088 301.832 365.088 299.768V294.84H363.712V299.576C363.712 300.952 362.784 301.864 361.392 301.864C360 301.864 359.072 300.952 359.072 299.576V294.84H357.696V299.768C357.696 301.832 359.168 303.192 361.392 303.192ZM369.965 303.192C371.805 303.192 373.261 302.28 373.261 300.664C373.261 298.968 371.693 298.568 370.349 298.248C369.261 297.992 368.333 297.768 368.333 296.968C368.333 296.264 369.117 295.896 370.061 295.896C370.957 295.896 371.725 296.248 372.269 296.776L373.037 295.768C372.349 295.144 371.341 294.648 370.045 294.648C368.365 294.648 366.925 295.464 366.925 297.048C366.925 298.76 368.509 299.176 369.853 299.512C370.925 299.768 371.837 300.008 371.837 300.792C371.837 301.528 371.021 301.944 369.949 301.944C368.893 301.944 368.029 301.544 367.421 300.92L366.653 301.912C367.405 302.632 368.525 303.192 369.965 303.192ZM383.012 298.92C383.012 296.472 381.188 294.648 378.756 294.648C376.308 294.648 374.468 296.472 374.468 298.888C374.468 301.336 376.372 303.192 378.932 303.192C380.516 303.192 381.86 302.504 382.676 301.416L381.732 300.6C381.204 301.352 380.18 301.928 378.98 301.928C377.396 301.928 376.228 300.952 375.956 299.528H382.98C382.996 299.336 383.012 299.112 383.012 298.92ZM378.74 295.912C380.18 295.912 381.3 296.872 381.556 298.28H375.94C376.196 296.888 377.316 295.912 378.74 295.912ZM388.937 294.712C387.721 294.712 386.761 295.272 386.153 296.248V294.84H384.777V303H386.153V298.92C386.153 297.224 387.209 296.136 388.937 296.136H389.209V294.712H388.937ZM393.293 303.192C395.133 303.192 396.589 302.28 396.589 300.664C396.589 298.968 395.021 298.568 393.677 298.248C392.589 297.992 391.661 297.768 391.661 296.968C391.661 296.264 392.445 295.896 393.389 295.896C394.285 295.896 395.053 296.248 395.597 296.776L396.365 295.768C395.677 295.144 394.669 294.648 393.373 294.648C391.693 294.648 390.253 295.464 390.253 297.048C390.253 298.76 391.837 299.176 393.181 299.512C394.253 299.768 395.165 300.008 395.165 300.792C395.165 301.528 394.349 301.944 393.277 301.944C392.221 301.944 391.357 301.544 390.749 300.92L389.981 301.912C390.733 302.632 391.853 303.192 393.293 303.192ZM142.872 317.088V315.84H140.424V313.648H139.048V315.84H137.576V317.088H139.048V321.824C139.048 323.328 139.864 324.192 141.448 324.192C142.024 324.192 142.456 324.08 142.872 323.856V322.56C142.536 322.736 142.184 322.864 141.736 322.864C140.904 322.864 140.424 322.48 140.424 321.6V317.088H142.872ZM148.148 324.192C150.612 324.192 152.484 322.352 152.484 319.92C152.484 317.488 150.612 315.648 148.148 315.648C145.668 315.648 143.796 317.488 143.796 319.92C143.796 322.352 145.668 324.192 148.148 324.192ZM148.148 322.864C146.468 322.864 145.22 321.6 145.22 319.92C145.22 318.24 146.468 316.976 148.148 316.976C149.812 316.976 151.06 318.24 151.06 319.92C151.06 321.6 149.812 322.864 148.148 322.864ZM164.39 315.84L161.638 322.352L158.886 315.84H157.302L160.886 324H162.342L165.926 315.84H164.39ZM168.012 314.208C168.524 314.208 168.924 313.808 168.924 313.296C168.924 312.768 168.524 312.384 168.012 312.384C167.484 312.384 167.084 312.768 167.084 313.296C167.084 313.808 167.484 314.208 168.012 314.208ZM167.324 324H168.7V315.84H167.324V324ZM175.187 315.712C173.971 315.712 173.011 316.272 172.403 317.248V315.84H171.027V324H172.403V319.92C172.403 318.224 173.459 317.136 175.187 317.136H175.459V315.712H175.187ZM181.747 317.088V315.84H179.299V313.648H177.923V315.84H176.451V317.088H177.923V321.824C177.923 323.328 178.739 324.192 180.323 324.192C180.899 324.192 181.331 324.08 181.747 323.856V322.56C181.411 322.736 181.059 322.864 180.611 322.864C179.779 322.864 179.299 322.48 179.299 321.6V317.088H181.747ZM187.08 324.192C189.304 324.192 190.776 322.832 190.776 320.768V315.84H189.4V320.576C189.4 321.952 188.472 322.864 187.08 322.864C185.688 322.864 184.76 321.952 184.76 320.576V315.84H183.384V320.768C183.384 322.832 184.856 324.192 187.08 324.192ZM199.733 315.84V317.312C199.045 316.288 197.925 315.648 196.565 315.648C194.229 315.648 192.485 317.488 192.485 319.92C192.485 322.352 194.229 324.192 196.565 324.192C197.925 324.192 199.045 323.552 199.733 322.528V324H201.109V315.84H199.733ZM196.821 322.864C195.141 322.864 193.893 321.6 193.893 319.92C193.893 318.24 195.141 316.976 196.821 316.976C198.485 316.976 199.733 318.24 199.733 319.92C199.733 321.6 198.485 322.864 196.821 322.864ZM203.449 324H204.825V312.48H203.449V324ZM207.152 324H208.528V312.48H207.152V324ZM217 315.84L214.248 322.352L211.496 315.84H209.912L213.464 323.952L212.872 325.168C212.616 325.696 212.248 325.904 211.832 325.904C211.416 325.904 211.016 325.696 210.743 325.392L210.168 326.448C210.648 326.928 211.4 327.232 212.039 327.232C212.92 327.232 213.72 326.688 214.136 325.728L218.536 315.84H217ZM228.207 315.648C226.927 315.648 225.903 316.16 225.263 317.088V315.84H223.887V324H225.263V319.424C225.263 317.952 226.255 316.976 227.759 316.976C229.215 316.976 230.143 317.936 230.143 319.392V324H231.519V318.96C231.519 316.96 230.191 315.648 228.207 315.648ZM240.498 315.84V317.312C239.81 316.288 238.69 315.648 237.33 315.648C234.994 315.648 233.25 317.488 233.25 319.92C233.25 322.352 234.994 324.192 237.33 324.192C238.69 324.192 239.81 323.552 240.498 322.528V324H241.874V315.84H240.498ZM237.586 322.864C235.906 322.864 234.658 321.6 234.658 319.92C234.658 318.24 235.906 316.976 237.586 316.976C239.25 316.976 240.498 318.24 240.498 319.92C240.498 321.6 239.25 322.864 237.586 322.864ZM250.359 315.84L247.607 322.352L244.855 315.84H243.271L246.855 324H248.311L251.895 315.84H250.359ZM253.981 314.208C254.493 314.208 254.893 313.808 254.893 313.296C254.893 312.768 254.493 312.384 253.981 312.384C253.453 312.384 253.053 312.768 253.053 313.296C253.053 313.808 253.453 314.208 253.981 314.208ZM253.293 324H254.669V315.84H253.293V324ZM262.132 324.208H259.14C258.452 324.208 257.988 323.84 257.988 323.264C257.988 322.912 258.18 322.56 258.5 322.352C259.012 322.608 259.588 322.736 260.228 322.736C262.34 322.736 263.956 321.2 263.956 319.184C263.956 318.32 263.668 317.552 263.156 316.944C263.172 316.4 263.572 316.048 264.164 316.048H264.708V314.768H264.084C263.092 314.768 262.388 315.312 262.228 316.176C261.652 315.84 260.98 315.648 260.228 315.648C258.1 315.648 256.5 317.168 256.5 319.184C256.5 320.224 256.932 321.136 257.62 321.776C256.996 322.128 256.612 322.848 256.612 323.616C256.612 324.768 257.524 325.552 258.884 325.552H261.892C262.82 325.552 263.46 326.032 263.492 326.768L264.916 326.4C264.756 325.04 263.668 324.208 262.132 324.208ZM260.228 316.96C261.54 316.96 262.532 317.92 262.532 319.184C262.532 320.464 261.54 321.424 260.228 321.424C258.916 321.424 257.924 320.464 257.924 319.184C257.924 317.92 258.9 316.96 260.228 316.96ZM272.654 315.84V317.312C271.966 316.288 270.846 315.648 269.486 315.648C267.15 315.648 265.406 317.488 265.406 319.92C265.406 322.352 267.15 324.192 269.486 324.192C270.846 324.192 271.966 323.552 272.654 322.528V324H274.03V315.84H272.654ZM269.742 322.864C268.062 322.864 266.814 321.6 266.814 319.92C266.814 318.24 268.062 316.976 269.742 316.976C271.406 316.976 272.654 318.24 272.654 319.92C272.654 321.6 271.406 322.864 269.742 322.864ZM281.075 317.088V315.84H278.627V313.648H277.251V315.84H275.779V317.088H277.251V321.824C277.251 323.328 278.067 324.192 279.651 324.192C280.227 324.192 280.659 324.08 281.075 323.856V322.56C280.739 322.736 280.387 322.864 279.939 322.864C279.107 322.864 278.627 322.48 278.627 321.6V317.088H281.075ZM290.543 319.92C290.543 317.472 288.719 315.648 286.287 315.648C283.839 315.648 281.999 317.472 281.999 319.888C281.999 322.336 283.903 324.192 286.463 324.192C288.047 324.192 289.391 323.504 290.207 322.416L289.263 321.6C288.735 322.352 287.711 322.928 286.511 322.928C284.927 322.928 283.759 321.952 283.487 320.528H290.511C290.527 320.336 290.543 320.112 290.543 319.92ZM286.271 316.912C287.711 316.912 288.831 317.872 289.087 319.28H283.471C283.727 317.888 284.847 316.912 286.271 316.912ZM300.966 317.088V315.84H298.518V313.648H297.142V315.84H295.67V317.088H297.142V321.824C297.142 323.328 297.958 324.192 299.542 324.192C300.118 324.192 300.55 324.08 300.966 323.856V322.56C300.63 322.736 300.278 322.864 299.83 322.864C298.998 322.864 298.518 322.48 298.518 321.6V317.088H300.966ZM307.051 315.648C305.771 315.648 304.747 316.176 304.107 317.136V312.48H302.731V324H304.107V319.424C304.107 317.952 305.099 316.976 306.603 316.976C308.059 316.976 308.987 317.936 308.987 319.392V324H310.363V318.96C310.363 316.96 309.035 315.648 307.051 315.648ZM320.606 319.92C320.606 317.472 318.782 315.648 316.35 315.648C313.902 315.648 312.062 317.472 312.062 319.888C312.062 322.336 313.966 324.192 316.526 324.192C318.11 324.192 319.454 323.504 320.27 322.416L319.326 321.6C318.798 322.352 317.774 322.928 316.574 322.928C314.99 322.928 313.822 321.952 313.55 320.528H320.574C320.59 320.336 320.606 320.112 320.606 319.92ZM316.334 316.912C317.774 316.912 318.894 317.872 319.15 319.28H313.534C313.79 317.888 314.91 316.912 316.334 316.912ZM328.996 324.192C330.836 324.192 332.292 323.28 332.292 321.664C332.292 319.968 330.724 319.568 329.38 319.248C328.292 318.992 327.364 318.768 327.364 317.968C327.364 317.264 328.148 316.896 329.092 316.896C329.988 316.896 330.756 317.248 331.3 317.776L332.068 316.768C331.38 316.144 330.372 315.648 329.076 315.648C327.396 315.648 325.956 316.464 325.956 318.048C325.956 319.76 327.54 320.176 328.884 320.512C329.956 320.768 330.868 321.008 330.868 321.792C330.868 322.528 330.052 322.944 328.98 322.944C327.924 322.944 327.06 322.544 326.452 321.92L325.684 322.912C326.436 323.632 327.556 324.192 328.996 324.192ZM338.497 317.088V315.84H336.049V313.648H334.673V315.84H333.201V317.088H334.673V321.824C334.673 323.328 335.489 324.192 337.073 324.192C337.649 324.192 338.081 324.08 338.497 323.856V322.56C338.161 322.736 337.809 322.864 337.361 322.864C336.529 322.864 336.049 322.48 336.049 321.6V317.088H338.497ZM346.701 315.84V317.312C346.013 316.288 344.893 315.648 343.533 315.648C341.197 315.648 339.453 317.488 339.453 319.92C339.453 322.352 341.197 324.192 343.533 324.192C344.893 324.192 346.013 323.552 346.701 322.528V324H348.077V315.84H346.701ZM343.789 322.864C342.109 322.864 340.861 321.6 340.861 319.92C340.861 318.24 342.109 316.976 343.789 316.976C345.453 316.976 346.701 318.24 346.701 319.92C346.701 321.6 345.453 322.864 343.789 322.864ZM354.578 315.712C353.362 315.712 352.402 316.272 351.794 317.248V315.84H350.418V324H351.794V319.92C351.794 318.224 352.85 317.136 354.578 317.136H354.85V315.712H354.578ZM361.138 317.088V315.84H358.69V313.648H357.314V315.84H355.842V317.088H357.314V321.824C357.314 323.328 358.13 324.192 359.714 324.192C360.29 324.192 360.722 324.08 361.138 323.856V322.56C360.802 322.736 360.45 322.864 360.002 322.864C359.17 322.864 358.69 322.48 358.69 321.6V317.088H361.138ZM366.47 324.192C368.694 324.192 370.166 322.832 370.166 320.768V315.84H368.79V320.576C368.79 321.952 367.862 322.864 366.47 322.864C365.078 322.864 364.15 321.952 364.15 320.576V315.84H362.774V320.768C362.774 322.832 364.246 324.192 366.47 324.192ZM376.915 315.648C375.555 315.648 374.435 316.288 373.747 317.312V315.84H372.371V327.04H373.747V322.528C374.435 323.552 375.555 324.192 376.915 324.192C379.251 324.192 381.011 322.352 381.011 319.92C381.011 317.488 379.251 315.648 376.915 315.648ZM376.659 322.864C374.995 322.864 373.747 321.6 373.747 319.92C373.747 318.24 374.995 316.976 376.659 316.976C378.339 316.976 379.587 318.24 379.587 319.92C379.587 321.6 378.339 322.864 376.659 322.864ZM146.184 340.92C146.184 338.472 144.36 336.648 141.928 336.648C139.48 336.648 137.64 338.472 137.64 340.888C137.64 343.336 139.544 345.192 142.104 345.192C143.688 345.192 145.032 344.504 145.848 343.416L144.904 342.6C144.376 343.352 143.352 343.928 142.152 343.928C140.568 343.928 139.4 342.952 139.128 341.528H146.152C146.168 341.336 146.184 341.112 146.184 340.92ZM141.912 337.912C143.352 337.912 144.472 338.872 144.728 340.28H139.112C139.368 338.888 140.488 337.912 141.912 337.912ZM151.773 345.192C153.389 345.192 154.765 344.392 155.501 343.144L154.301 342.424C153.805 343.288 152.877 343.864 151.773 343.864C150.093 343.864 148.845 342.6 148.845 340.92C148.845 339.24 150.093 337.976 151.773 337.976C152.877 337.976 153.805 338.552 154.301 339.416L155.501 338.696C154.765 337.448 153.389 336.648 151.773 336.648C149.293 336.648 147.421 338.488 147.421 340.92C147.421 343.352 149.293 345.192 151.773 345.192ZM160.914 345.192C163.378 345.192 165.25 343.352 165.25 340.92C165.25 338.488 163.378 336.648 160.914 336.648C158.434 336.648 156.562 338.488 156.562 340.92C156.562 343.352 158.434 345.192 160.914 345.192ZM160.914 343.864C159.234 343.864 157.986 342.6 157.986 340.92C157.986 339.24 159.234 337.976 160.914 337.976C162.578 337.976 163.826 339.24 163.826 340.92C163.826 342.6 162.578 343.864 160.914 343.864ZM169.731 345.192C171.571 345.192 173.027 344.28 173.027 342.664C173.027 340.968 171.459 340.568 170.115 340.248C169.027 339.992 168.099 339.768 168.099 338.968C168.099 338.264 168.883 337.896 169.827 337.896C170.723 337.896 171.491 338.248 172.035 338.776L172.803 337.768C172.115 337.144 171.107 336.648 169.811 336.648C168.131 336.648 166.691 337.464 166.691 339.048C166.691 340.76 168.275 341.176 169.619 341.512C170.691 341.768 171.603 342.008 171.603 342.792C171.603 343.528 170.787 343.944 169.715 343.944C168.659 343.944 167.795 343.544 167.187 342.92L166.419 343.912C167.171 344.632 168.291 345.192 169.731 345.192ZM180.687 336.84L177.935 343.352L175.183 336.84H173.599L177.151 344.952L176.559 346.168C176.303 346.696 175.935 346.904 175.519 346.904C175.103 346.904 174.703 346.696 174.431 346.392L173.855 347.448C174.335 347.928 175.087 348.232 175.727 348.232C176.607 348.232 177.407 347.688 177.823 346.728L182.223 336.84H180.687ZM186.074 345.192C187.914 345.192 189.37 344.28 189.37 342.664C189.37 340.968 187.802 340.568 186.458 340.248C185.37 339.992 184.442 339.768 184.442 338.968C184.442 338.264 185.226 337.896 186.17 337.896C187.066 337.896 187.834 338.248 188.378 338.776L189.146 337.768C188.458 337.144 187.45 336.648 186.154 336.648C184.474 336.648 183.034 337.464 183.034 339.048C183.034 340.76 184.618 341.176 185.962 341.512C187.034 341.768 187.946 342.008 187.946 342.792C187.946 343.528 187.13 343.944 186.058 343.944C185.002 343.944 184.138 343.544 183.53 342.92L182.762 343.912C183.514 344.632 184.634 345.192 186.074 345.192ZM195.575 338.088V336.84H193.127V334.648H191.751V336.84H190.279V338.088H191.751V342.824C191.751 344.328 192.567 345.192 194.151 345.192C194.727 345.192 195.159 345.08 195.575 344.856V343.56C195.239 343.736 194.887 343.864 194.439 343.864C193.607 343.864 193.127 343.48 193.127 342.6V338.088H195.575ZM205.043 340.92C205.043 338.472 203.219 336.648 200.787 336.648C198.339 336.648 196.499 338.472 196.499 340.888C196.499 343.336 198.403 345.192 200.963 345.192C202.547 345.192 203.891 344.504 204.707 343.416L203.763 342.6C203.235 343.352 202.211 343.928 201.011 343.928C199.427 343.928 198.259 342.952 197.987 341.528H205.011C205.027 341.336 205.043 341.112 205.043 340.92ZM200.771 337.912C202.211 337.912 203.331 338.872 203.587 340.28H197.971C198.227 338.888 199.347 337.912 200.771 337.912ZM216.553 336.648C215.241 336.648 214.201 337.224 213.593 338.248C213.113 337.24 212.137 336.648 210.857 336.648C209.705 336.648 208.777 337.112 208.185 337.944V336.84H206.809V345H208.185V340.152C208.185 338.84 209.081 337.976 210.409 337.976C211.705 337.976 212.537 338.824 212.537 340.12V345H213.913V340.152C213.913 338.84 214.809 337.976 216.137 337.976C217.433 337.976 218.265 338.824 218.265 340.12V345H219.641V339.736C219.641 337.864 218.425 336.648 216.553 336.648ZM230.945 345.208H227.953C227.265 345.208 226.801 344.84 226.801 344.264C226.801 343.912 226.993 343.56 227.313 343.352C227.825 343.608 228.401 343.736 229.041 343.736C231.153 343.736 232.769 342.2 232.769 340.184C232.769 339.32 232.481 338.552 231.969 337.944C231.985 337.4 232.385 337.048 232.977 337.048H233.521V335.768H232.897C231.905 335.768 231.201 336.312 231.041 337.176C230.465 336.84 229.793 336.648 229.041 336.648C226.913 336.648 225.313 338.168 225.313 340.184C225.313 341.224 225.745 342.136 226.433 342.776C225.809 343.128 225.425 343.848 225.425 344.616C225.425 345.768 226.337 346.552 227.697 346.552H230.705C231.633 346.552 232.273 347.032 232.305 347.768L233.729 347.4C233.569 346.04 232.481 345.208 230.945 345.208ZM229.041 337.96C230.353 337.96 231.345 338.92 231.345 340.184C231.345 341.464 230.353 342.424 229.041 342.424C227.729 342.424 226.737 341.464 226.737 340.184C226.737 338.92 227.713 337.96 229.041 337.96ZM234.793 345H236.169V333.48H234.793V345ZM242.32 345.192C244.784 345.192 246.656 343.352 246.656 340.92C246.656 338.488 244.784 336.648 242.32 336.648C239.84 336.648 237.968 338.488 237.968 340.92C237.968 343.352 239.84 345.192 242.32 345.192ZM242.32 343.864C240.64 343.864 239.392 342.6 239.392 340.92C239.392 339.24 240.64 337.976 242.32 337.976C243.984 337.976 245.232 339.24 245.232 340.92C245.232 342.6 243.984 343.864 242.32 343.864ZM253.009 336.648C251.649 336.648 250.529 337.288 249.841 338.312V333.48H248.465V345H249.841V343.528C250.529 344.552 251.649 345.192 253.009 345.192C255.345 345.192 257.105 343.352 257.105 340.92C257.105 338.488 255.345 336.648 253.009 336.648ZM252.753 343.864C251.089 343.864 249.841 342.6 249.841 340.92C249.841 339.24 251.089 337.976 252.753 337.976C254.433 337.976 255.681 339.24 255.681 340.92C255.681 342.6 254.433 343.864 252.753 343.864ZM265.686 336.84V338.312C264.998 337.288 263.878 336.648 262.518 336.648C260.182 336.648 258.438 338.488 258.438 340.92C258.438 343.352 260.182 345.192 262.518 345.192C263.878 345.192 264.998 344.552 265.686 343.528V345H267.062V336.84H265.686ZM262.774 343.864C261.094 343.864 259.846 342.6 259.846 340.92C259.846 339.24 261.094 337.976 262.774 337.976C264.438 337.976 265.686 339.24 265.686 340.92C265.686 342.6 264.438 343.864 262.774 343.864ZM269.402 345H270.778V333.48H269.402V345ZM273.106 345H274.482V333.48H273.106V345ZM282.953 336.84L280.201 343.352L277.449 336.84H275.865L279.417 344.952L278.825 346.168C278.569 346.696 278.201 346.904 277.785 346.904C277.369 346.904 276.969 346.696 276.697 346.392L276.121 347.448C276.601 347.928 277.353 348.232 277.993 348.232C278.873 348.232 279.673 347.688 280.089 346.728L284.489 336.84H282.953ZM285.294 345.112C285.886 345.112 286.334 344.664 286.334 344.088C286.334 343.512 285.886 343.064 285.294 343.064C284.718 343.064 284.27 343.512 284.27 344.088C284.27 344.664 284.718 345.112 285.294 345.112Z" fill="black"/>
<defs>
<filter id="filter0_f" x="0" y="0.871582" width="549" height="542.129" filterUnits="userSpaceOnUse" color-interpolation-filters="sRGB">
<feFlood flood-opacity="0" result="BackgroundImageFix"/>
<feBlend mode="normal" in="SourceGraphic" in2="BackgroundImageFix" result="shape"/>
<feGaussianBlur stdDeviation="75" result="effect1_foregroundBlur"/>
</filter>
</defs>
</svg>
