<svg fill="full" xmlns="http://www.w3.org/2000/svg" >
    <g opacity=".2" filter="url(#a)">
        <rect x="150" y="150" width="276" height="379" rx="14.4" fill="#0F0941"/>
    </g>
    <mask id="b" style="mask-type:alpha" maskUnits="userSpaceOnUse" x="114" y="123" width="348" height="392">
        <rect x="114" y="123" width="348" height="392" rx="30" fill="#FEFEFE"/>
    </mask>
    <g mask="url(#b)">
        <rect x="114" y="123" width="348" height="392" rx="30" fill="#FEFEFE"/>
        <path d="M465 493.08V479.8l-20.56 13.76c-2.32-7.36-8.64-12.4-16.56-12.4-10.32 0-18.08 8.08-18.08 18.72v23.52H465v-11.04h-19.68v-6.56L465 493.08zm-44.8 19.28v-12.24c0-4.32 3.36-7.6 7.76-7.6s7.76 3.28 7.76 7.6v12.24H420.2zm24.48-78.569c-12.32 0-21.44 9.2-21.44 21.44 0 12.32 9.12 21.68 21.2 21.68 12.24 0 21.52-9.68 21.52-22.64 0-7.68-3.12-14.24-8.16-18.48l-6.08 6.96c2.72 2.16 5.04 6.24 5.04 11.2 0 5.92-3.28 10.24-8.4 11.68v-31.6c-1.12-.16-2.56-.24-3.68-.24zm-12.32 21.52c0-5.04 3.28-9.12 8.4-10.4v20.8c-5.04-1.28-8.4-5.28-8.4-10.4zm33.6-42.851c0-9.76-4.72-17.44-13.36-17.44-9.28 0-11.28 8.4-12.72 14.88-.96 4.56-1.84 8-4.56 8-2.4 0-3.52-2.88-3.52-6.4 0-4.16 1.52-7.6 3.76-10.56l-6.96-5.04c-2.88 3.68-5.36 8.88-5.36 15.84 0 9.04 4.24 16.64 12.88 16.64 9.28 0 11.28-8.4 12.72-14.88 1.04-4.48 2-8 4.72-8 2.48 0 3.84 3.04 3.84 7.2 0 4.88-1.84 8.8-4.56 11.92l6.88 5.04c3.36-3.92 6.24-9.6 6.24-17.2zm0-43.876c0-12.48-9.2-21.92-21.36-21.92s-21.36 9.44-21.36 21.92c0 12.48 9.2 21.92 21.36 21.92s21.36-9.44 21.36-21.92zm-10.08 0c0 6.4-4.88 11.2-11.28 11.2-6.4 0-11.28-4.8-11.28-11.2 0-6.48 4.88-11.2 11.28-11.2 6.4 0 11.28 4.72 11.28 11.2zm10.08-47.788c0-11.44-6.8-19.04-17.2-19.04H424.2v10.4h23.12c5.2 0 8.56 3.44 8.56 8.64 0 5.2-3.36 8.64-8.56 8.64H424.2v10.4h24.56c10.4 0 17.2-7.52 17.2-19.04zm-42.4-50.479c0 4.8 2.16 8.8 5.92 11.76h-5.28v10.4H465v-10.4h-19.36c-6.96 0-11.36-4.32-11.36-11.76v-1.76h-10.72v1.76zm42.4-26.342c0-8.24-4-15.12-10.16-18.8l-5.44 9.04c3.28 1.84 5.52 5.44 5.52 9.76 0 6.4-4.88 11.2-11.28 11.2-6.4 0-11.28-4.8-11.28-11.2 0-4.32 2.24-7.92 5.52-9.76l-5.44-9.04c-6.16 3.68-10.16 10.56-10.16 18.8 0 12.48 9.2 21.92 21.36 21.92s21.36-9.44 21.36-21.92zm-21.28-65.263c-12.32 0-21.44 9.2-21.44 21.44 0 12.32 9.12 21.68 21.2 21.68 12.24 0 21.52-9.68 21.52-22.64 0-7.68-3.12-14.24-8.16-18.48l-6.08 6.96c2.72 2.16 5.04 6.24 5.04 11.2 0 5.92-3.28 10.24-8.4 11.68v-31.6c-1.12-.16-2.56-.24-3.68-.24zm-12.32 21.52c0-5.04 3.28-9.12 8.4-10.4v20.8c-5.04-1.28-8.4-5.28-8.4-10.4zm33.6-42.85c0-9.76-4.72-17.44-13.36-17.44-9.28 0-11.28 8.4-12.72 14.88-.96 4.56-1.84 8-4.56 8-2.4 0-3.52-2.88-3.52-6.4 0-4.16 1.52-7.6 3.76-10.56l-6.96-5.04c-2.88 3.68-5.36 8.88-5.36 15.84 0 9.04 4.24 16.64 12.88 16.64 9.28 0 11.28-8.4 12.72-14.88 1.04-4.48 2-8 4.72-8 2.48 0 3.84 3.04 3.84 7.2 0 4.88-1.84 8.8-4.56 11.92l6.88 5.04c3.36-3.92 6.24-9.6 6.24-17.2z" fill="#F9F9F9"/>
    </g>
    <path d="M167.82 302h2.02l-5.62-13.8h-2.18l-5.62 13.8h1.96l1.34-3.34h6.76l1.34 3.34zm-7.42-5.04 2.7-6.78 2.7 6.78h-5.4zm15.805 5.28c2.02 0 3.74-1 4.66-2.56l-1.5-.9c-.62 1.08-1.78 1.8-3.16 1.8-2.1 0-3.66-1.58-3.66-3.68s1.56-3.68 3.66-3.68c1.38 0 2.54.72 3.16 1.8l1.5-.9c-.92-1.56-2.64-2.56-4.66-2.56-3.1 0-5.44 2.3-5.44 5.34s2.34 5.34 5.44 5.34zm11.426 0c2.02 0 3.74-1 4.66-2.56l-1.5-.9c-.62 1.08-1.78 1.8-3.16 1.8-2.1 0-3.66-1.58-3.66-3.68s1.56-3.68 3.66-3.68c1.38 0 2.54.72 3.16 1.8l1.5-.9c-.92-1.56-2.64-2.56-4.66-2.56-3.1 0-5.44 2.3-5.44 5.34s2.34 5.34 5.44 5.34zm16.665-5.34c0-3.06-2.28-5.34-5.32-5.34-3.06 0-5.36 2.28-5.36 5.3 0 3.06 2.38 5.38 5.58 5.38 1.98 0 3.66-.86 4.68-2.22l-1.18-1.02c-.66.94-1.94 1.66-3.44 1.66-1.98 0-3.44-1.22-3.78-3h8.78c.02-.24.04-.52.04-.76zm-5.34-3.76c1.8 0 3.2 1.2 3.52 2.96h-7.02c.32-1.74 1.72-2.96 3.5-2.96zm10.887 9.1c2.3 0 4.12-1.14 4.12-3.16 0-2.12-1.96-2.62-3.64-3.02-1.36-.32-2.52-.6-2.52-1.6 0-.88.98-1.34 2.16-1.34 1.12 0 2.08.44 2.76 1.1l.96-1.26c-.86-.78-2.12-1.4-3.74-1.4-2.1 0-3.9 1.02-3.9 3 0 2.14 1.98 2.66 3.66 3.08 1.34.32 2.48.62 2.48 1.6 0 .92-1.02 1.44-2.36 1.44-1.32 0-2.4-.5-3.16-1.28l-.96 1.24c.94.9 2.34 1.6 4.14 1.6zm9.609 0c2.3 0 4.12-1.14 4.12-3.16 0-2.12-1.96-2.62-3.64-3.02-1.36-.32-2.52-.6-2.52-1.6 0-.88.98-1.34 2.16-1.34 1.12 0 2.08.44 2.76 1.1l.96-1.26c-.86-.78-2.12-1.4-3.74-1.4-2.1 0-3.9 1.02-3.9 3 0 2.14 1.98 2.66 3.66 3.08 1.34.32 2.48.62 2.48 1.6 0 .92-1.02 1.44-2.36 1.44-1.32 0-2.4-.5-3.16-1.28l-.96 1.24c.94.9 2.34 1.6 4.14 1.6zm17.111-8.88v-1.56h-3.06v-2.74h-1.72v2.74h-1.84v1.56h1.84v5.92c0 1.88 1.02 2.96 3 2.96.72 0 1.26-.14 1.78-.42v-1.62c-.42.22-.86.38-1.42.38-1.04 0-1.64-.48-1.64-1.58v-5.64h3.06zm7.606-1.8c-1.6 0-2.88.66-3.68 1.86v-5.82h-1.72V302h1.72v-5.72c0-1.84 1.24-3.06 3.12-3.06 1.82 0 2.98 1.2 2.98 3.02V302h1.72v-6.3c0-2.5-1.66-4.14-4.14-4.14zm16.944 5.34c0-3.06-2.28-5.34-5.32-5.34-3.06 0-5.36 2.28-5.36 5.3 0 3.06 2.38 5.38 5.58 5.38 1.98 0 3.66-.86 4.68-2.22l-1.18-1.02c-.66.94-1.94 1.66-3.44 1.66-1.98 0-3.44-1.22-3.78-3h8.78c.02-.24.04-.52.04-.76zm-5.34-3.76c1.8 0 3.2 1.2 3.52 2.96h-7.02c.32-1.74 1.72-2.96 3.5-2.96zm17.688-1.5c-1.52 0-2.72.7-3.48 1.92v-1.76h-1.72V302h1.72v-5.1c0-2.12 1.32-3.48 3.48-3.48h.34v-1.78h-.34zm11.753 5.26c0-3.06-2.28-5.34-5.32-5.34-3.06 0-5.36 2.28-5.36 5.3 0 3.06 2.38 5.38 5.58 5.38 1.98 0 3.66-.86 4.68-2.22l-1.18-1.02c-.66.94-1.94 1.66-3.44 1.66-1.98 0-3.44-1.22-3.78-3h8.78c.02-.24.04-.52.04-.76zm-5.34-3.76c1.8 0 3.2 1.2 3.52 2.96h-7.02c.32-1.74 1.72-2.96 3.5-2.96zm10.887 9.1c2.3 0 4.12-1.14 4.12-3.16 0-2.12-1.96-2.62-3.64-3.02-1.36-.32-2.52-.6-2.52-1.6 0-.88.98-1.34 2.16-1.34 1.12 0 2.08.44 2.76 1.1l.96-1.26c-.86-.78-2.12-1.4-3.74-1.4-2.1 0-3.9 1.02-3.9 3 0 2.14 1.98 2.66 3.66 3.08 1.34.32 2.48.62 2.48 1.6 0 .92-1.02 1.44-2.36 1.44-1.32 0-2.4-.5-3.16-1.28l-.96 1.24c.94.9 2.34 1.6 4.14 1.6zm11.069 0c3.08 0 5.42-2.3 5.42-5.34s-2.34-5.34-5.42-5.34c-3.1 0-5.44 2.3-5.44 5.34s2.34 5.34 5.44 5.34zm0-1.66c-2.1 0-3.66-1.58-3.66-3.68s1.56-3.68 3.66-3.68c2.08 0 3.64 1.58 3.64 3.68s-1.56 3.68-3.64 3.68zm12.141 1.66c2.78 0 4.62-1.7 4.62-4.28v-6.16h-1.72v5.92c0 1.72-1.16 2.86-2.9 2.86s-2.9-1.14-2.9-2.86v-5.92h-1.72v6.16c0 2.58 1.84 4.28 4.62 4.28zm12.576-10.6c-1.52 0-2.72.7-3.48 1.92v-1.76h-1.72V302h1.72v-5.1c0-2.12 1.32-3.48 3.48-3.48h.34v-1.78h-.34zm6.513 10.6c2.02 0 3.74-1 4.66-2.56l-1.5-.9c-.62 1.08-1.78 1.8-3.16 1.8-2.1 0-3.66-1.58-3.66-3.68s1.56-3.68 3.66-3.68c1.38 0 2.54.72 3.16 1.8l1.5-.9c-.92-1.56-2.64-2.56-4.66-2.56-3.1 0-5.44 2.3-5.44 5.34s2.34 5.34 5.44 5.34zm16.666-5.34c0-3.06-2.28-5.34-5.32-5.34-3.06 0-5.36 2.28-5.36 5.3 0 3.06 2.38 5.38 5.58 5.38 1.98 0 3.66-.86 4.68-2.22l-1.18-1.02c-.66.94-1.94 1.66-3.44 1.66-1.98 0-3.44-1.22-3.78-3h8.78c.02-.24.04-.52.04-.76zm-5.34-3.76c1.8 0 3.2 1.2 3.52 2.96h-7.02c.32-1.74 1.72-2.96 3.5-2.96zm10.887 9.1c2.3 0 4.12-1.14 4.12-3.16 0-2.12-1.96-2.62-3.64-3.02-1.36-.32-2.52-.6-2.52-1.6 0-.88.98-1.34 2.16-1.34 1.12 0 2.08.44 2.76 1.1l.96-1.26c-.86-.78-2.12-1.4-3.74-1.4-2.1 0-3.9 1.02-3.9 3 0 2.14 1.98 2.66 3.66 3.08 1.34.32 2.48.62 2.48 1.6 0 .92-1.02 1.44-2.36 1.44-1.32 0-2.4-.5-3.16-1.28l-.96 1.24c.94.9 2.34 1.6 4.14 1.6zM165.14 319.8l-3.44 8.14-3.44-8.14h-1.98l4.44 10.14-.74 1.52c-.32.66-.78.92-1.3.92s-1.02-.26-1.36-.64l-.72 1.32c.6.6 1.54.98 2.34.98 1.1 0 2.1-.68 2.62-1.88l5.5-12.36h-1.92zm7.862 10.44c3.08 0 5.42-2.3 5.42-5.34s-2.34-5.34-5.42-5.34c-3.1 0-5.44 2.3-5.44 5.34s2.34 5.34 5.44 5.34zm0-1.66c-2.1 0-3.66-1.58-3.66-3.68s1.56-3.68 3.66-3.68c2.08 0 3.64 1.58 3.64 3.68s-1.56 3.68-3.64 3.68zm12.141 1.66c2.78 0 4.62-1.7 4.62-4.28v-6.16h-1.72v5.92c0 1.72-1.16 2.86-2.9 2.86s-2.9-1.14-2.9-2.86v-5.92h-1.72v6.16c0 2.58 1.84 4.28 4.62 4.28zm17.717-10.68c-1.6 0-2.88.64-3.68 1.8v-1.56h-1.72V330h1.72v-5.72c0-1.84 1.24-3.06 3.12-3.06 1.82 0 2.98 1.2 2.98 3.02V330H207v-6.3c0-2.5-1.66-4.14-4.14-4.14zm16.944 5.34c0-3.06-2.28-5.34-5.32-5.34-3.06 0-5.36 2.28-5.36 5.3 0 3.06 2.38 5.38 5.58 5.38 1.98 0 3.66-.86 4.68-2.22l-1.18-1.02c-.66.94-1.94 1.66-3.44 1.66-1.98 0-3.44-1.22-3.78-3h8.78c.02-.24.04-.52.04-.76zm-5.34-3.76c1.8 0 3.2 1.2 3.52 2.96h-7.02c.32-1.74 1.72-2.96 3.5-2.96zm17.567 3.76c0-3.06-2.28-5.34-5.32-5.34-3.06 0-5.36 2.28-5.36 5.3 0 3.06 2.38 5.38 5.58 5.38 1.98 0 3.66-.86 4.68-2.22l-1.18-1.02c-.66.94-1.94 1.66-3.44 1.66-1.98 0-3.44-1.22-3.78-3h8.78c.02-.24.04-.52.04-.76zm-5.34-3.76c1.8 0 3.2 1.2 3.52 2.96h-7.02c.32-1.74 1.72-2.96 3.5-2.96zm15.986-5.54v6.04c-.86-1.28-2.26-2.08-3.96-2.08-2.92 0-5.1 2.3-5.1 5.34s2.18 5.34 5.1 5.34c1.7 0 3.1-.8 3.96-2.08V330h1.72v-14.4h-1.72zm-3.64 12.98c-2.1 0-3.66-1.58-3.66-3.68s1.56-3.68 3.66-3.68c2.08 0 3.64 1.58 3.64 3.68s-1.56 3.68-3.64 3.68zm19.108-7.22v-1.56h-3.06v-2.74h-1.72v2.74h-1.84v1.56h1.84v5.92c0 1.88 1.02 2.96 3 2.96.72 0 1.26-.14 1.78-.42v-1.62c-.42.22-.86.38-1.42.38-1.04 0-1.64-.48-1.64-1.58v-5.64h3.06zm6.595 8.88c3.08 0 5.42-2.3 5.42-5.34s-2.34-5.34-5.42-5.34c-3.1 0-5.44 2.3-5.44 5.34s2.34 5.34 5.44 5.34zm0-1.66c-2.1 0-3.66-1.58-3.66-3.68s1.56-3.68 3.66-3.68c2.08 0 3.64 1.58 3.64 3.68s-1.56 3.68-3.64 3.68zm19.042 1.68h-3.74c-.86 0-1.44-.46-1.44-1.18 0-.44.24-.88.64-1.14.64.32 1.36.48 2.16.48 2.64 0 4.66-1.92 4.66-4.44 0-1.08-.36-2.04-1-2.8.02-.68.52-1.12 1.26-1.12h.68v-1.6h-.78c-1.24 0-2.12.68-2.32 1.76-.72-.42-1.56-.66-2.5-.66-2.66 0-4.66 1.9-4.66 4.42 0 1.3.54 2.44 1.4 3.24-.78.44-1.26 1.34-1.26 2.3 0 1.44 1.14 2.42 2.84 2.42h3.76c1.16 0 1.96.6 2 1.52l1.78-.46c-.2-1.7-1.56-2.74-3.48-2.74zm-2.38-9.06c1.64 0 2.88 1.2 2.88 2.78 0 1.6-1.24 2.8-2.88 2.8s-2.88-1.2-2.88-2.8c0-1.58 1.22-2.78 2.88-2.78zm12.391-1.56c-1.52 0-2.72.7-3.48 1.92v-1.76h-1.72V330h1.72v-5.1c0-2.12 1.32-3.48 3.48-3.48h.34v-1.78h-.34zm6.513 10.6c3.08 0 5.42-2.3 5.42-5.34s-2.34-5.34-5.42-5.34c-3.1 0-5.44 2.3-5.44 5.34s2.34 5.34 5.44 5.34zm0-1.66c-2.1 0-3.66-1.58-3.66-3.68s1.56-3.68 3.66-3.68c2.08 0 3.64 1.58 3.64 3.68s-1.56 3.68-3.64 3.68zm20.815-8.78-2.76 8.12-2.82-8.12h-1.76l-2.8 8.1-2.76-8.1h-1.94l3.74 10.2h1.8l2.82-8.16 2.82 8.16h1.8l3.74-10.2h-1.88zm20.364 10.2-2.32-2.58c.8-1.06 1.32-2.32 1.74-3.48l-1.54-.54c-.32 1.02-.76 1.98-1.32 2.8l-3.7-4.08c1.48-.78 2.86-1.72 2.86-3.3 0-1.66-1.48-2.86-3.38-2.86-1.86 0-3.34 1.22-3.34 2.88 0 .98.52 1.96 1.3 2.96-1.46.84-2.76 2-2.76 4.04 0 2.56 2.1 4.4 5 4.4 1.58 0 2.92-.54 4-1.48l1.12 1.24h2.34zm-7.66-12.62c.88 0 1.58.62 1.58 1.44 0 .94-.9 1.56-2.06 2.16-.72-.88-1.08-1.54-1.08-2.14 0-.86.7-1.46 1.56-1.46zm.26 11.22c-1.82 0-3.22-1.2-3.22-2.88 0-1.26.82-2.08 1.92-2.78l4.12 4.56c-.8.68-1.76 1.1-2.82 1.1zM160.8 358.24c2.3 0 4.12-1.14 4.12-3.16 0-2.12-1.96-2.62-3.64-3.02-1.36-.32-2.52-.6-2.52-1.6 0-.88.98-1.34 2.16-1.34 1.12 0 2.08.44 2.76 1.1l.96-1.26c-.86-.78-2.12-1.4-3.74-1.4-2.1 0-3.9 1.02-3.9 3 0 2.14 1.98 2.66 3.66 3.08 1.34.32 2.48.62 2.48 1.6 0 .92-1.02 1.44-2.36 1.44-1.32 0-2.4-.5-3.16-1.28l-.96 1.24c.94.9 2.34 1.6 4.14 1.6zm11.069 0c2.02 0 3.74-1 4.66-2.56l-1.5-.9c-.62 1.08-1.78 1.8-3.16 1.8-2.1 0-3.66-1.58-3.66-3.68s1.56-3.68 3.66-3.68c1.38 0 2.54.72 3.16 1.8l1.5-.9c-.92-1.56-2.64-2.56-4.66-2.56-3.1 0-5.44 2.3-5.44 5.34s2.34 5.34 5.44 5.34zm15.086-10.44v1.84c-.86-1.28-2.26-2.08-3.96-2.08-2.92 0-5.1 2.3-5.1 5.34s2.18 5.34 5.1 5.34c1.7 0 3.1-.8 3.96-2.08V358h1.72v-10.2h-1.72zm-3.64 8.78c-2.1 0-3.66-1.58-3.66-3.68s1.56-3.68 3.66-3.68c2.08 0 3.64 1.58 3.64 3.68s-1.56 3.68-3.64 3.68zm8.286 1.42h1.72v-14.4h-1.72V358zm14.649-5.1c0-3.06-2.28-5.34-5.32-5.34-3.06 0-5.36 2.28-5.36 5.3 0 3.06 2.38 5.38 5.58 5.38 1.98 0 3.66-.86 4.68-2.22l-1.18-1.02c-.66.94-1.94 1.66-3.44 1.66-1.98 0-3.44-1.22-3.78-3h8.78c.02-.24.04-.52.04-.76zm-5.34-3.76c1.8 0 3.2 1.2 3.52 2.96h-7.02c.32-1.74 1.72-2.96 3.5-2.96zm20.168-1.34-3.44 8.14-3.44-8.14h-1.98l4.44 10.14-.74 1.52c-.32.66-.78.92-1.3.92s-1.02-.26-1.361-.64l-.719 1.32c.6.6 1.54.98 2.339.98 1.101 0 2.101-.68 2.621-1.88l5.5-12.36h-1.92zm7.861 10.44c3.08 0 5.42-2.3 5.42-5.34s-2.34-5.34-5.42-5.34c-3.1 0-5.44 2.3-5.44 5.34s2.34 5.34 5.44 5.34zm0-1.66c-2.1 0-3.66-1.58-3.66-3.68s1.56-3.68 3.66-3.68c2.08 0 3.64 1.58 3.64 3.68s-1.56 3.68-3.64 3.68zm12.141 1.66c2.78 0 4.62-1.7 4.62-4.28v-6.16h-1.72v5.92c0 1.72-1.16 2.86-2.9 2.86s-2.9-1.14-2.9-2.86v-5.92h-1.72v6.16c0 2.58 1.84 4.28 4.62 4.28zm12.576-10.6c-1.52 0-2.72.7-3.48 1.92v-1.76h-1.72V358h1.72v-5.1c0-2.12 1.32-3.48 3.48-3.48h.34v-1.78h-.34zm10.484 10.6c2.3 0 4.12-1.14 4.12-3.16 0-2.12-1.96-2.62-3.64-3.02-1.36-.32-2.52-.6-2.52-1.6 0-.88.98-1.34 2.16-1.34 1.12 0 2.08.44 2.76 1.1l.96-1.26c-.86-.78-2.12-1.4-3.74-1.4-2.1 0-3.9 1.02-3.9 3 0 2.14 1.98 2.66 3.66 3.08 1.34.32 2.48.62 2.48 1.6 0 .92-1.02 1.44-2.36 1.44-1.32 0-2.4-.5-3.16-1.28l-.96 1.24c.94.9 2.34 1.6 4.14 1.6zm11.876-8.88v-1.56h-3.06v-2.74h-1.72v2.74h-1.84v1.56h1.84v5.92c0 1.88 1.02 2.96 3 2.96.72 0 1.26-.14 1.78-.42v-1.62c-.42.22-.86.38-1.42.38-1.04 0-1.64-.48-1.64-1.58v-5.64h3.06zm10.255-1.56v1.84c-.86-1.28-2.26-2.08-3.96-2.08-2.92 0-5.1 2.3-5.1 5.34s2.18 5.34 5.1 5.34c1.7 0 3.1-.8 3.96-2.08V358h1.72v-10.2h-1.72zm-3.64 8.78c-2.1 0-3.66-1.58-3.66-3.68s1.56-3.68 3.66-3.68c2.08 0 3.64 1.58 3.64 3.68s-1.56 3.68-3.64 3.68zm13.486-8.94c-1.52 0-2.72.7-3.48 1.92v-1.76h-1.72V358h1.72v-5.1c0-2.12 1.32-3.48 3.48-3.48h.34v-1.78h-.34zm8.2 1.72v-1.56h-3.06v-2.74h-1.72v2.74h-1.84v1.56h1.84v5.92c0 1.88 1.02 2.96 3 2.96.72 0 1.26-.14 1.78-.42v-1.62c-.42.22-.86.38-1.42.38-1.04 0-1.64-.48-1.64-1.58v-5.64h3.06zm6.666 8.88c2.78 0 4.62-1.7 4.62-4.28v-6.16h-1.72v5.92c0 1.72-1.16 2.86-2.9 2.86s-2.9-1.14-2.9-2.86v-5.92h-1.72v6.16c0 2.58 1.84 4.28 4.62 4.28zm13.055-10.68c-1.7 0-3.1.8-3.96 2.08v-1.84h-1.72v14h1.72v-5.64c.86 1.28 2.26 2.08 3.96 2.08 2.92 0 5.12-2.3 5.12-5.34s-2.2-5.34-5.12-5.34zm-.32 9.02c-2.08 0-3.64-1.58-3.64-3.68s1.56-3.68 3.64-3.68c2.1 0 3.66 1.58 3.66 3.68s-1.56 3.68-3.66 3.68zm8.235 1.56c.74 0 1.3-.56 1.3-1.28s-.56-1.28-1.3-1.28c-.72 0-1.28.56-1.28 1.28s.56 1.28 1.28 1.28z" fill="#B1B1B1"/>
    <path d="M162.302 221.203c1.515 0 2.858.374 4.029 1.123v-.789h4.909v14.72h-4.909v-.819c-1.171.748-2.514 1.123-4.029 1.123a6.927 6.927 0 0 1-3.651-1.017 7.403 7.403 0 0 1-2.666-2.777c-.657-1.174-.985-2.469-.985-3.885 0-1.437.328-2.742.985-3.915a7.282 7.282 0 0 1 2.666-2.762 7.005 7.005 0 0 1 3.651-1.002zm.71 4.342a3.3 3.3 0 0 0-3.297 3.303 3.3 3.3 0 0 0 3.297 3.303 3.3 3.3 0 0 0 3.297-3.303 3.3 3.3 0 0 0-3.297-3.303zm17.285 11.046c1.333 0 2.555-.268 3.666-.804 1.111-.536 2.005-1.285 2.681-2.246.677-.961 1.066-2.069 1.167-3.324h-4.636a2.531 2.531 0 0 1-.969 1.609c-.526.405-1.162.607-1.909.607-1.03 0-1.848-.334-2.454-1.002-.606-.667-.909-1.517-.909-2.549s.303-1.877.909-2.534c.606-.658 1.424-.987 2.454-.987.747 0 1.383.203 1.909.607.525.405.848.941.969 1.609h4.636c-.101-1.255-.49-2.362-1.167-3.324-.676-.961-1.57-1.709-2.681-2.246-1.111-.536-2.333-.804-3.666-.804-1.535 0-2.909.329-4.121.987a7.334 7.334 0 0 0-2.863 2.746c-.697 1.174-1.045 2.489-1.045 3.946 0 1.477.348 2.802 1.045 3.976a7.336 7.336 0 0 0 2.863 2.747c1.212.657 2.586.986 4.121.986zm16.325 0c1.333 0 2.555-.268 3.666-.804 1.111-.536 2.005-1.285 2.681-2.246.677-.961 1.066-2.069 1.167-3.324H199.5a2.531 2.531 0 0 1-.969 1.609c-.526.405-1.162.607-1.909.607-1.03 0-1.848-.334-2.454-1.002-.606-.667-.909-1.517-.909-2.549s.303-1.877.909-2.534c.606-.658 1.424-.987 2.454-.987.747 0 1.383.203 1.909.607.525.405.848.941.969 1.609h4.636c-.101-1.255-.49-2.362-1.167-3.324-.676-.961-1.57-1.709-2.681-2.246-1.111-.536-2.333-.804-3.666-.804-1.535 0-2.909.329-4.121.987a7.34 7.34 0 0 0-2.863 2.746c-.697 1.174-1.045 2.489-1.045 3.946 0 1.477.348 2.802 1.045 3.976a7.343 7.343 0 0 0 2.863 2.747c1.212.657 2.586.986 4.121.986zm16.325 0c1.818 0 3.378-.445 4.681-1.335 1.274-.871 2.09-2.042 2.446-3.513.002-.006.009-.037.033-.204.024-.167.019-.325.025-.352h-4.705c-.005.008-.043.128-.088.251-.044.12-.115.244-.12.252a2.167 2.167 0 0 1-.878.743c-.384.182-.828.273-1.333.273-.889 0-1.611-.217-2.167-.652a3.252 3.252 0 0 1-1.136-1.715h10.427c.078-.675.117-1.261.117-1.761 0-1.456-.328-2.741-.985-3.854a6.859 6.859 0 0 0-2.696-2.595c-1.142-.617-2.419-.926-3.833-.926-1.535 0-2.899.329-4.09.987a6.889 6.889 0 0 0-2.757 2.731c-.647 1.164-.97 2.484-.97 3.961 0 1.477.333 2.802 1 3.976.666 1.174 1.611 2.089 2.833 2.747 1.222.657 2.621.986 4.196.986zm-3.302-9.136c.194-.837.577-1.493 1.15-1.967.572-.474 1.291-.711 2.155-.711.842 0 1.534.232 2.074.695.54.463.885 1.124 1.037 1.983h-6.416zm18.59 9.258c2.02 0 3.671-.425 4.954-1.275 1.282-.85 1.923-2.084 1.923-3.703 0-2.408-1.525-3.895-4.575-4.462l-2.757-.455c-1.01-.182-1.514-.566-1.514-1.153 0-.304.156-.557.469-.759.313-.202.773-.304 1.379-.304.707 0 1.287.137 1.742.41.454.273.702.683.742 1.229h4.363c-.101-1.78-.818-3.075-2.151-3.884-1.333-.81-2.909-1.215-4.727-1.215-1.979 0-3.565.435-4.756 1.306-1.192.87-1.788 2.074-1.788 3.611 0 1.255.384 2.251 1.151 2.99.768.738 1.818 1.219 3.151 1.442l2.97.516c.464.081.818.212 1.06.394.242.182.364.395.364.638 0 .323-.187.576-.561.758-.374.182-.884.273-1.53.273-.788 0-1.429-.151-1.924-.455-.495-.303-.793-.769-.894-1.396l-4.363-.03c.142 1.861.874 3.247 2.197 4.158 1.323.91 3.015 1.366 5.075 1.366zm14.894 0c2.02 0 3.671-.425 4.954-1.275 1.282-.85 1.923-2.084 1.923-3.703 0-2.408-1.525-3.895-4.575-4.462l-2.757-.455c-1.01-.182-1.514-.566-1.514-1.153 0-.304.156-.557.469-.759.313-.202.773-.304 1.379-.304.707 0 1.287.137 1.742.41.454.273.702.683.742 1.229h4.363c-.101-1.78-.818-3.075-2.151-3.884-1.333-.81-2.909-1.215-4.727-1.215-1.979 0-3.565.435-4.756 1.306-1.192.87-1.788 2.074-1.788 3.611 0 1.255.384 2.251 1.151 2.99.768.738 1.818 1.219 3.151 1.442l2.97.516c.464.081.818.212 1.06.394.242.182.364.395.364.638 0 .323-.187.576-.561.758-.374.182-.884.273-1.53.273-.788 0-1.429-.151-1.924-.455-.495-.303-.793-.769-.894-1.396l-4.363-.03c.142 1.861.874 3.247 2.197 4.158 1.323.91 3.015 1.366 5.075 1.366z" fill="#1F1F1F"/>
    <path d="M171.463 217h-15.68v2.357h15.68V217z" fill="#1544D6"/>
    <path d="M261.211 237a7.49 7.49 0 0 0 2.322-.361 7.617 7.617 0 0 0 3.664-2.559 7.99 7.99 0 0 0 1.139-1.966l-1.558-.26a6.444 6.444 0 0 1-2.207 2.631c-.971.674-2.091 1.012-3.36 1.012a6.08 6.08 0 0 1-2.438-.492 6.341 6.341 0 0 1-2.005-1.359 6.29 6.29 0 0 1-1.356-2.038 6.474 6.474 0 0 1-.49-2.529 6.545 6.545 0 0 1 1.817-4.539 6.176 6.176 0 0 1 1.991-1.373 6.113 6.113 0 0 1 2.481-.506c1.269 0 2.389.337 3.36 1.012a6.397 6.397 0 0 1 2.207 2.659l1.558-.289a7.97 7.97 0 0 0-1.125-1.951 7.608 7.608 0 0 0-3.649-2.544 7.555 7.555 0 0 0-2.351-.361 7.514 7.514 0 0 0-3.058.621 8.043 8.043 0 0 0-2.481 1.691 7.814 7.814 0 0 0-2.279 5.58c0 1.06.197 2.072.591 3.035a7.862 7.862 0 0 0 1.644 2.53 7.899 7.899 0 0 0 2.481 1.72c.952.424 1.986.636 3.102.636zm16.27 0a7.502 7.502 0 0 0 3.058-.622 7.936 7.936 0 0 0 2.481-1.705 7.939 7.939 0 0 0 1.673-2.53 7.842 7.842 0 0 0 .606-3.064 7.741 7.741 0 0 0-.606-3.05 7.94 7.94 0 0 0-1.659-2.501 8.025 8.025 0 0 0-2.481-1.705 7.464 7.464 0 0 0-3.072-.636c-1.096 0-2.12.207-3.072.621a7.836 7.836 0 0 0-2.481 1.691 7.902 7.902 0 0 0-1.659 2.515 7.85 7.85 0 0 0-.606 3.065c0 1.098.202 2.125.606 3.079a8.119 8.119 0 0 0 1.659 2.515 7.713 7.713 0 0 0 2.481 1.705 7.603 7.603 0 0 0 3.072.622zm0-1.503a6.087 6.087 0 0 1-2.438-.492 6.352 6.352 0 0 1-2.005-1.359 6.29 6.29 0 0 1-1.356-2.038 6.492 6.492 0 0 1-.49-2.529c0-.887.164-1.72.49-2.501.327-.78.775-1.46 1.342-2.038a6.396 6.396 0 0 1 1.99-1.373 6.016 6.016 0 0 1 2.467-.506c.865 0 1.683.169 2.452.506a6.347 6.347 0 0 1 2.005 1.373 6.429 6.429 0 0 1 1.342 2.038c.327.781.49 1.614.49 2.501 0 .886-.163 1.72-.49 2.5a6.433 6.433 0 0 1-1.342 2.039 6.413 6.413 0 0 1-1.99 1.373 6.016 6.016 0 0 1-2.467.506zm11.28 1.272v-7.661c0-1.137.168-2.125.505-2.963.336-.839.803-1.523 1.399-2.053a4.664 4.664 0 0 1 2.106-1.07c.807-.183 1.683-.168 2.625.044v-1.677c-1.654-.27-3.053-.082-4.198.564-1.144.645-1.956 1.633-2.437 2.963v-3.469h-1.587v15.322h1.587zm14.712.231a7.64 7.64 0 0 0 2.193-.318 8.124 8.124 0 0 0 1.976-.882 8.54 8.54 0 0 0 1.659-1.344c.5-.52.904-1.099 1.211-1.735l-1.528-.26c-.558.925-1.328 1.667-2.308 2.226a6.36 6.36 0 0 1-3.203.839 6.293 6.293 0 0 1-2.336-.434 6.092 6.092 0 0 1-1.933-1.214 6.16 6.16 0 0 1-1.356-1.865 6.472 6.472 0 0 1-.606-2.385h13.905a2.72 2.72 0 0 0 .043-.65 7.24 7.24 0 0 0-.072-.766 8.366 8.366 0 0 0-.807-2.732 7.819 7.819 0 0 0-1.645-2.241 7.594 7.594 0 0 0-2.337-1.503 7.392 7.392 0 0 0-2.856-.549 7.513 7.513 0 0 0-3.057.621 8.043 8.043 0 0 0-2.481 1.691 7.814 7.814 0 0 0-2.279 5.58c0 1.098.201 2.125.605 3.079a8.119 8.119 0 0 0 1.659 2.515 7.713 7.713 0 0 0 2.481 1.705 7.603 7.603 0 0 0 3.072.622zm6.088-8.673h-12.319c.077-.79.284-1.532.62-2.226a6.07 6.07 0 0 1 1.327-1.807 6.287 6.287 0 0 1 1.919-1.214 6.112 6.112 0 0 1 2.337-.448c.827 0 1.596.149 2.308.448a6.196 6.196 0 0 1 1.875 1.214 6.184 6.184 0 0 1 1.312 1.807c.337.694.544 1.436.621 2.226z" fill="#000"/>
    <rect x="146" y="93" width="99" height="99" rx="14" fill="#1E48CE"/>

    <defs>
        <filter id="a" x="0" y="0" width="576" height="679" filterUnits="userSpaceOnUse" color-interpolation-filters="sRGB">
            <feFlood flood-opacity="0" result="BackgroundImageFix"/>
            <feBlend in="SourceGraphic" in2="BackgroundImageFix" result="shape"/>
            <feGaussianBlur stdDeviation="75" result="effect1_foregroundBlur"/>
        </filter>
    </defs>
</svg>