<svg width="375" height="359" fill="none" xmlns="http://www.w3.org/2000/svg">
    <g opacity=".3" filter="url(#a)">
        <rect x="93.264" y="92.94" width="189.365" height="173.06" rx="21.837" fill="#0F0941" fill-opacity=".5"/>
    </g>
    <rect x="90" y="86" width="196" height="180" rx="18.887" fill="#fff"/>
    <path d="M124.2 214.24c3.02 0 5.38-1.7 5.38-4.18 0-3.16-3.78-4.1-5.06-4.36-1.28-.28-2.72-.74-2.72-1.8 0-.86.98-1.48 2.36-1.48s2.76.58 3.54 1.34l1.28-2.08c-1.02-1-2.72-1.72-4.78-1.72-3.1 0-5.24 1.6-5.24 4.06 0 2.42 2.16 3.68 4.8 4.3 1.42.34 2.98.7 2.98 1.86 0 .96-1.16 1.6-2.54 1.6-1.56 0-3.2-.74-4.32-1.8l-1.42 2.1c1.4 1.3 3.62 2.16 5.74 2.16zm13.136-8.06v-2.38h-2.74v-2.58h-2.6v2.58h-1.62v2.38h1.62v4.66c0 2.04 1.1 3.4 3.44 3.4.76 0 1.34-.14 1.9-.44v-2.42c-.38.18-.82.34-1.34.34-.92 0-1.4-.44-1.4-1.3v-4.24h2.74zm9.351-2.38v1.22c-.82-.9-1.96-1.46-3.32-1.46-2.84 0-4.98 2.3-4.98 5.34s2.14 5.34 4.98 5.34c1.36 0 2.5-.56 3.32-1.46V214h2.6v-10.2h-2.6zm-2.82 7.92c-1.6 0-2.8-1.22-2.8-2.82 0-1.6 1.2-2.82 2.8-2.82 1.62 0 2.82 1.22 2.82 2.82 0 1.6-1.2 2.82-2.82 2.82zm13.433-8.08c-1.2 0-2.2.54-2.94 1.48v-1.32h-2.6V214h2.6v-4.84c0-1.74 1.08-2.84 2.94-2.84h.44v-2.68h-.44zm8.415 2.54v-2.38h-2.74v-2.58h-2.6v2.58h-1.62v2.38h1.62v4.66c0 2.04 1.1 3.4 3.44 3.4.76 0 1.34-.14 1.9-.44v-2.42c-.38.18-.82.34-1.34.34-.92 0-1.4-.44-1.4-1.3v-4.24h2.74zm6.523 8.06c2.86 0 4.76-1.7 4.76-4.3v-6.14h-2.6v5.78c0 1.3-.86 2.14-2.16 2.14-1.3 0-2.16-.84-2.16-2.14v-5.78h-2.6v6.14c0 2.6 1.88 4.3 4.76 4.3zm13-10.68c-1.36 0-2.5.54-3.32 1.46v-1.22h-2.6v14h2.6v-5.02c.82.92 1.96 1.46 3.32 1.46 2.84 0 4.96-2.3 4.96-5.34s-2.12-5.34-4.96-5.34zm-.52 8.16c-1.6 0-2.8-1.22-2.8-2.82 0-1.6 1.2-2.82 2.8-2.82 1.62 0 2.8 1.22 2.8 2.82 0 1.6-1.18 2.82-2.8 2.82zm13.464 2.52c2.84 0 4.74-1.72 4.74-4.62v-9.42h-2.76v9.28c0 1.34-.86 2.1-2.28 2.1-.7 0-1.4-.18-1.94-.42v2.64c.6.26 1.36.44 2.24.44zm11.973 0c3.12 0 5.48-2.3 5.48-5.34s-2.36-5.34-5.48-5.34c-3.12 0-5.48 2.3-5.48 5.34s2.36 5.34 5.48 5.34zm0-2.52c-1.6 0-2.8-1.22-2.8-2.82 0-1.6 1.2-2.82 2.8-2.82 1.62 0 2.8 1.22 2.8 2.82 0 1.6-1.18 2.82-2.8 2.82zm13.267-8.16c-1.36 0-2.5.54-3.32 1.46v-5.42h-2.6V214h2.6v-1.22c.82.92 1.96 1.46 3.32 1.46 2.84 0 4.96-2.3 4.96-5.34s-2.12-5.34-4.96-5.34zm-.52 8.16c-1.6 0-2.8-1.22-2.8-2.82 0-1.6 1.2-2.82 2.8-2.82 1.62 0 2.8 1.22 2.8 2.82 0 1.6-1.18 2.82-2.8 2.82zm-94.962 20.96c.92-.52 1.6-1.66 1.6-2.96 0-2.04-1.6-3.52-3.66-3.52h-6.48V240h6.94c2.22 0 3.88-1.56 3.88-3.74 0-1.64-.94-3.1-2.28-3.58zm-2.74-4c.86 0 1.5.66 1.5 1.52s-.68 1.52-1.5 1.52h-3.12v-3.04h3.12zm.46 8.84h-3.58v-3.46h3.58c.98 0 1.72.76 1.72 1.72 0 .98-.74 1.74-1.72 1.74zm11.213 2.72c3.12 0 5.48-2.3 5.48-5.34s-2.36-5.34-5.48-5.34c-3.12 0-5.48 2.3-5.48 5.34s2.36 5.34 5.48 5.34zm0-2.52c-1.6 0-2.8-1.22-2.8-2.82 0-1.6 1.2-2.82 2.8-2.82 1.62 0 2.8 1.22 2.8 2.82 0 1.6-1.18 2.82-2.8 2.82zm15.067-7.92v1.22c-.82-.9-1.96-1.46-3.32-1.46-2.84 0-4.98 2.3-4.98 5.34s2.14 5.34 4.98 5.34c1.36 0 2.5-.56 3.32-1.46V240h2.6v-10.2h-2.6zm-2.82 7.92c-1.6 0-2.8-1.22-2.8-2.82 0-1.6 1.2-2.82 2.8-2.82 1.62 0 2.82 1.22 2.82 2.82 0 1.6-1.2 2.82-2.82 2.82zm13.433-8.08c-1.2 0-2.2.54-2.94 1.48v-1.32h-2.6V240h2.6v-4.84c0-1.74 1.08-2.84 2.94-2.84h.44v-2.68h-.44zm9.446-4.04v5.42c-.82-.9-1.96-1.46-3.32-1.46-2.84 0-4.98 2.3-4.98 5.34s2.14 5.34 4.98 5.34c1.36 0 2.5-.56 3.32-1.46V240h2.6v-14.4h-2.6zm-2.82 12.12c-1.6 0-2.8-1.22-2.8-2.82 0-1.6 1.2-2.82 2.8-2.82 1.62 0 2.82 1.22 2.82 2.82 0 1.6-1.2 2.82-2.82 2.82z" fill="#131313"/>
    <circle cx="262" cy="111" r="2" fill="#C4C4C4"/>
    <circle cx="262" cy="120" r="2" fill="#C4C4C4"/>
    <circle cx="262" cy="129" r="2" fill="#C4C4C4"/>
    <circle cx="152" cy="144.5" r="38.5" fill="#D4EEFD"/>
    <path d="M124.666 142.126c1.585 0 2.824-.893 2.824-2.195 0-1.659-1.984-2.152-2.656-2.289-.672-.147-1.428-.388-1.428-.944 0-.452.514-.778 1.239-.778.724 0 1.449.305 1.858.704l.672-1.092c-.535-.525-1.428-.903-2.509-.903-1.628 0-2.751.84-2.751 2.131 0 1.271 1.134 1.932 2.52 2.258.745.178 1.564.367 1.564.976 0 .504-.609.84-1.333.84-.819 0-1.68-.388-2.268-.945l-.746 1.103c.735.682 1.901 1.134 3.014 1.134zm6.896-4.232v-1.249h-1.438v-1.355h-1.365v1.355h-.851v1.249h.851v2.447c0 1.071.577 1.785 1.806 1.785.399 0 .703-.073.997-.231v-1.271c-.199.095-.43.179-.703.179-.483 0-.735-.231-.735-.683v-2.226h1.438zm4.909-1.249v.64a2.312 2.312 0 0 0-1.743-.766c-1.491 0-2.614 1.207-2.614 2.803 0 1.596 1.123 2.804 2.614 2.804a2.31 2.31 0 0 0 1.743-.767V142h1.365v-5.355h-1.365zm-1.48 4.158c-.84 0-1.47-.641-1.47-1.481 0-.84.63-1.48 1.47-1.48.85 0 1.48.64 1.48 1.48s-.63 1.481-1.48 1.481zm7.052-4.242c-.63 0-1.155.283-1.544.777v-.693h-1.365V142h1.365v-2.541c0-.914.567-1.491 1.544-1.491h.231v-1.407h-.231zm4.418 1.333v-1.249h-1.438v-1.355h-1.365v1.355h-.851v1.249h.851v2.447c0 1.071.577 1.785 1.806 1.785.399 0 .703-.073.997-.231v-1.271c-.199.095-.43.179-.703.179-.483 0-.735-.231-.735-.683v-2.226h1.438zm3.425 4.232c1.501 0 2.499-.893 2.499-2.258v-3.223h-1.365v3.034c0 .683-.452 1.124-1.134 1.124-.683 0-1.134-.441-1.134-1.124v-3.034h-1.365v3.223c0 1.365.987 2.258 2.499 2.258zm6.825-5.607c-.714 0-1.313.283-1.743.766v-.64h-1.365v7.35h1.365v-2.636c.43.483 1.029.767 1.743.767 1.491 0 2.604-1.208 2.604-2.804 0-1.596-1.113-2.803-2.604-2.803zm-.273 4.284c-.84 0-1.47-.641-1.47-1.481 0-.84.63-1.48 1.47-1.48.85 0 1.47.64 1.47 1.48s-.62 1.481-1.47 1.481zm7.068 1.323c1.491 0 2.489-.903 2.489-2.426v-4.945h-1.449v4.872c0 .703-.452 1.102-1.197 1.102-.368 0-.735-.094-1.019-.22v1.386c.315.137.714.231 1.176.231zm6.286 0c1.638 0 2.877-1.208 2.877-2.804 0-1.596-1.239-2.803-2.877-2.803-1.638 0-2.877 1.207-2.877 2.803 0 1.596 1.239 2.804 2.877 2.804zm0-1.323c-.84 0-1.47-.641-1.47-1.481 0-.84.63-1.48 1.47-1.48.85 0 1.47.64 1.47 1.48s-.62 1.481-1.47 1.481zm6.965-4.284c-.714 0-1.312.283-1.743.766v-2.845h-1.365V142h1.365v-.641a2.277 2.277 0 0 0 1.743.767c1.491 0 2.604-1.208 2.604-2.804 0-1.596-1.113-2.803-2.604-2.803zm-.273 4.284c-.84 0-1.47-.641-1.47-1.481 0-.84.63-1.48 1.47-1.48.851 0 1.47.64 1.47 1.48s-.619 1.481-1.47 1.481zm-45.003 15.323c2.173 0 3.822-1.617 3.822-3.749 0-2.131-1.649-3.748-3.822-3.748-2.174 0-3.822 1.617-3.822 3.748 0 2.132 1.648 3.749 3.822 3.749zm0-1.397c-1.323 0-2.331-1.008-2.331-2.352 0-1.344 1.008-2.352 2.331-2.352s2.331 1.008 2.331 2.352c0 1.344-1.008 2.352-2.331 2.352zm7.432-5.166c.273 0 .494.063.704.179v-1.197a2.066 2.066 0 0 0-1.008-.231c-1.229 0-1.806.735-1.806 1.848v.483h-.84v1.249h.84V156h1.365v-4.106h1.344v-1.249h-1.344v-.399c0-.452.262-.683.745-.683zm4.061 0c.273 0 .493.063.703.179v-1.197a2.064 2.064 0 0 0-1.008-.231c-1.228 0-1.806.735-1.806 1.848v.483h-.84v1.249h.84V156h1.365v-4.106h1.344v-1.249h-1.344v-.399c0-.452.263-.683.746-.683zm6.596 3.77c0-1.617-1.208-2.814-2.814-2.814-1.617 0-2.846 1.197-2.846 2.783 0 1.606 1.271 2.824 2.972 2.824 1.008 0 1.869-.41 2.425-1.071l-.913-.798c-.284.357-.819.661-1.47.661-.777 0-1.344-.43-1.533-1.102h4.147c.021-.147.032-.336.032-.483zm-2.825-1.617c.662 0 1.197.43 1.365 1.102h-2.73c.168-.661.693-1.102 1.365-1.102zm6.685-1.155c-.63 0-1.155.283-1.544.777v-.693h-1.365V156h1.365v-2.541c0-.914.567-1.491 1.544-1.491h.231v-1.407h-.231zm1.711-.704a.842.842 0 0 0 .861-.85.843.843 0 0 0-.861-.851.843.843 0 0 0-.861.851c0 .483.378.85.861.85zm-.682 6.143h1.365v-5.355h-1.365V156zm5.732-5.481c-.693 0-1.281.252-1.701.724v-.598h-1.365V156h1.365v-2.94c0-.735.504-1.218 1.249-1.218.714 0 1.176.472 1.176 1.197V156h1.365v-3.402c0-1.26-.829-2.079-2.089-2.079zm6.714 5.481h-1.743c-.336 0-.567-.189-.567-.452 0-.178.105-.357.273-.462.273.084.567.137.882.137 1.428 0 2.52-1.008 2.52-2.352 0-.525-.168-1.008-.462-1.386.052-.242.273-.389.546-.389h.378v-1.26h-.441c-.704 0-1.218.357-1.376.935a2.78 2.78 0 0 0-1.165-.252c-1.439 0-2.51 1.008-2.51 2.352 0 .672.263 1.249.714 1.669-.441.273-.724.798-.724 1.344 0 .851.661 1.428 1.659 1.428h1.753c.483 0 .809.253.851.641l1.407-.378c-.179-.987-.935-1.575-1.995-1.575zm-1.155-4.19c.63 0 1.113.452 1.113 1.061s-.483 1.06-1.113 1.06c-.641 0-1.113-.451-1.113-1.06s.472-1.061 1.113-1.061zm5.528 4.316c1.281 0 2.289-.62 2.289-1.754 0-1.218-1.103-1.48-1.953-1.669-.599-.126-1.05-.242-1.05-.599 0-.315.378-.462.84-.462.546 0 .997.2 1.386.494l.661-.914a3.3 3.3 0 0 0-2.079-.703c-1.186 0-2.184.556-2.184 1.69 0 1.218 1.103 1.481 1.953 1.67.588.136 1.05.262 1.05.619 0 .326-.399.504-.945.504-.64 0-1.155-.241-1.564-.598l-.662.903a3.4 3.4 0 0 0 2.258.819z" fill="#182542"/>
    <defs>
        <filter id="a" x=".927" y=".603" width="374.039" height="357.734" filterUnits="userSpaceOnUse" color-interpolation-filters="sRGB">
            <feFlood flood-opacity="0" result="BackgroundImageFix"/>
            <feBlend in="SourceGraphic" in2="BackgroundImageFix" result="shape"/>
            <feGaussianBlur stdDeviation="46.169" result="effect1_foregroundBlur"/>
        </filter>
    </defs>
</svg>
