<svg width="754" height="339" fill="none" xmlns="http://www.w3.org/2000/svg">
    <g opacity=".3" filter="url(#a)">
        <rect x="92.791" y="92.813" width="568.094" height="153.831" rx="21.837" fill="#0F0941" fill-opacity=".5"/>
    </g>
    <rect x="83" y="86.644" width="588" height="160" rx="18.887" fill="#fff"/>
    <path d="M265.42 131.844h-6.02v13.8h2.76v-4.6h3.26c2.68 0 4.74-1.98 4.74-4.6 0-2.62-2.06-4.6-4.74-4.6zm-.06 6.6h-3.2v-4h3.2c1.12 0 1.96.86 1.96 2 0 1.14-.84 2-1.96 2zm7.758-4.5c.92 0 1.64-.7 1.64-1.62 0-.92-.72-1.62-1.64-1.62-.92 0-1.64.7-1.64 1.62 0 .92.72 1.62 1.64 1.62zm-1.3 11.7h2.6v-10.2h-2.6v10.2zm11.358-7.82v-2.38h-2.74v-2.58h-2.6v2.58h-1.62v2.38h1.62v4.66c0 2.04 1.1 3.4 3.44 3.4.76 0 1.34-.14 1.9-.44v-2.42c-.38.18-.82.34-1.34.34-.92 0-1.4-.44-1.4-1.3v-4.24h2.74zm6.49 8.06c2.06 0 3.78-1 4.7-2.54l-2.26-1.36c-.46.82-1.36 1.38-2.44 1.38-1.6 0-2.8-1.22-2.8-2.82 0-1.6 1.2-2.82 2.8-2.82 1.08 0 1.98.56 2.44 1.38l2.26-1.36c-.92-1.54-2.64-2.54-4.7-2.54-3.12 0-5.48 2.3-5.48 5.34s2.36 5.34 5.48 5.34zm12.152-10.68c-1.32 0-2.44.5-3.24 1.44v-5.4h-2.6v14.4h2.6v-5.6c0-1.4.96-2.32 2.4-2.32 1.34 0 2.22.9 2.22 2.28v5.64h2.6v-6.48c0-2.4-1.58-3.96-3.98-3.96zm11.269 10.68c3.02 0 5.38-1.7 5.38-4.18 0-3.16-3.78-4.1-5.06-4.36-1.28-.28-2.72-.74-2.72-1.8 0-.86.98-1.48 2.36-1.48s2.76.58 3.54 1.34l1.28-2.08c-1.02-1-2.72-1.72-4.78-1.72-3.1 0-5.24 1.6-5.24 4.06 0 2.42 2.16 3.68 4.8 4.3 1.42.34 2.98.7 2.98 1.86 0 .96-1.16 1.6-2.54 1.6-1.56 0-3.2-.74-4.32-1.8l-1.42 2.1c1.4 1.3 3.62 2.16 5.74 2.16zm12.952-10.68c-1.36 0-2.5.54-3.32 1.46v-1.22h-2.6v14h2.6v-5.02c.82.92 1.96 1.46 3.32 1.46 2.84 0 4.96-2.3 4.96-5.34s-2.12-5.34-4.96-5.34zm-.52 8.16c-1.6 0-2.8-1.22-2.8-2.82 0-1.6 1.2-2.82 2.8-2.82 1.62 0 2.8 1.22 2.8 2.82 0 1.6-1.18 2.82-2.8 2.82zm15.113-7.92v1.22c-.82-.9-1.96-1.46-3.32-1.46-2.84 0-4.98 2.3-4.98 5.34s2.14 5.34 4.98 5.34c1.36 0 2.5-.56 3.32-1.46v1.22h2.6v-10.2h-2.6zm-2.82 7.92c-1.6 0-2.8-1.22-2.8-2.82 0-1.6 1.2-2.82 2.8-2.82 1.62 0 2.82 1.22 2.82 2.82 0 1.6-1.2 2.82-2.82 2.82zm12.753 2.52c2.06 0 3.78-1 4.7-2.54l-2.26-1.36c-.46.82-1.36 1.38-2.44 1.38-1.6 0-2.8-1.22-2.8-2.82 0-1.6 1.2-2.82 2.8-2.82 1.08 0 1.98.56 2.44 1.38l2.26-1.36c-.92-1.54-2.64-2.54-4.7-2.54-3.12 0-5.48 2.3-5.48 5.34s2.36 5.34 5.48 5.34zm16.315-5.32c0-3.08-2.3-5.36-5.36-5.36-3.08 0-5.42 2.28-5.42 5.3 0 3.06 2.42 5.38 5.66 5.38 1.92 0 3.56-.78 4.62-2.04l-1.74-1.52c-.54.68-1.56 1.26-2.8 1.26-1.48 0-2.56-.82-2.92-2.1h7.9c.04-.28.06-.64.06-.92zm-5.38-3.08c1.26 0 2.28.82 2.6 2.1h-5.2c.32-1.26 1.32-2.1 2.6-2.1z" fill="#131313"/>
    <path d="M267.456 178.644h1.616l-4.496-11.04h-1.744l-4.496 11.04h1.568l1.072-2.672h5.408l1.072 2.672zm-5.936-4.032 2.16-5.424 2.16 5.424h-4.32zm15.679 4.224c1.84 0 3.296-.912 3.296-2.528 0-1.696-1.568-2.096-2.912-2.416-1.088-.256-2.016-.48-2.016-1.28 0-.704.784-1.072 1.728-1.072.896 0 1.664.352 2.208.88l.768-1.008c-.688-.624-1.696-1.12-2.992-1.12-1.68 0-3.12.816-3.12 2.4 0 1.712 1.584 2.128 2.928 2.464 1.072.256 1.984.496 1.984 1.28 0 .736-.816 1.152-1.888 1.152-1.056 0-1.92-.4-2.528-1.024l-.768.992c.752.72 1.872 1.28 3.312 1.28zm9.576-8.544c-1.36 0-2.48.64-3.168 1.664v-1.472h-1.376v11.2h1.376v-4.512c.688 1.024 1.808 1.664 3.168 1.664 2.336 0 4.096-1.84 4.096-4.272 0-2.432-1.76-4.272-4.096-4.272zm-.256 7.216c-1.664 0-2.912-1.264-2.912-2.944s1.248-2.944 2.912-2.944c1.68 0 2.928 1.264 2.928 2.944s-1.248 2.944-2.928 2.944zm12.932-7.024v1.472c-.688-1.024-1.808-1.664-3.168-1.664-2.336 0-4.08 1.84-4.08 4.272 0 2.432 1.744 4.272 4.08 4.272 1.36 0 2.48-.64 3.168-1.664v1.472h1.376v-8.16h-1.376zm-2.912 7.024c-1.68 0-2.928-1.264-2.928-2.944s1.248-2.944 2.928-2.944c1.664 0 2.912 1.264 2.912 2.944s-1.248 2.944-2.912 2.944zm10.453 1.328c1.616 0 2.992-.8 3.728-2.048l-1.2-.72a2.878 2.878 0 0 1-2.528 1.44c-1.68 0-2.928-1.264-2.928-2.944s1.248-2.944 2.928-2.944c1.104 0 2.032.576 2.528 1.44l1.2-.72c-.736-1.248-2.112-2.048-3.728-2.048-2.48 0-4.352 1.84-4.352 4.272 0 2.432 1.872 4.272 4.352 4.272zm13.333-4.272c0-2.448-1.824-4.272-4.256-4.272-2.448 0-4.288 1.824-4.288 4.24 0 2.448 1.904 4.304 4.464 4.304 1.584 0 2.928-.688 3.744-1.776l-.944-.816c-.528.752-1.552 1.328-2.752 1.328-1.584 0-2.752-.976-3.024-2.4h7.024c.016-.192.032-.416.032-.608zm-4.272-3.008c1.44 0 2.56.96 2.816 2.368h-5.616c.256-1.392 1.376-2.368 2.8-2.368zm12.662 7.28c1.84 0 3.296-.912 3.296-2.528 0-1.696-1.568-2.096-2.912-2.416-1.088-.256-2.016-.48-2.016-1.28 0-.704.784-1.072 1.728-1.072.896 0 1.664.352 2.208.88l.768-1.008c-.688-.624-1.696-1.12-2.992-1.12-1.68 0-3.12.816-3.12 2.4 0 1.712 1.584 2.128 2.928 2.464 1.072.256 1.984.496 1.984 1.28 0 .736-.816 1.152-1.888 1.152-1.056 0-1.92-.4-2.528-1.024l-.768.992c.752.72 1.872 1.28 3.312 1.28zm9.575-8.544c-1.36 0-2.48.64-3.168 1.664v-1.472h-1.376v11.2h1.376v-4.512c.688 1.024 1.808 1.664 3.168 1.664 2.336 0 4.096-1.84 4.096-4.272 0-2.432-1.76-4.272-4.096-4.272zm-.256 7.216c-1.664 0-2.912-1.264-2.912-2.944s1.248-2.944 2.912-2.944c1.68 0 2.928 1.264 2.928 2.944s-1.248 2.944-2.928 2.944zm14.197-2.944c0-2.448-1.824-4.272-4.256-4.272-2.448 0-4.288 1.824-4.288 4.24 0 2.448 1.904 4.304 4.464 4.304 1.584 0 2.928-.688 3.744-1.776l-.944-.816c-.528.752-1.552 1.328-2.752 1.328-1.584 0-2.752-.976-3.024-2.4h7.024c.016-.192.032-.416.032-.608zm-4.272-3.008c1.44 0 2.56.96 2.816 2.368h-5.616c.256-1.392 1.376-2.368 2.8-2.368zm9.861 7.28c1.616 0 2.992-.8 3.728-2.048l-1.2-.72a2.878 2.878 0 0 1-2.528 1.44c-1.68 0-2.928-1.264-2.928-2.944s1.248-2.944 2.928-2.944c1.104 0 2.032.576 2.528 1.44l1.2-.72c-.736-1.248-2.112-2.048-3.728-2.048-2.48 0-4.352 1.84-4.352 4.272 0 2.432 1.872 4.272 4.352 4.272zm6.083-9.984c.512 0 .912-.4.912-.912 0-.528-.4-.912-.912-.912-.528 0-.928.384-.928.912 0 .512.4.912.928.912zm-.688 9.792h1.376v-8.16h-1.376v8.16zm4.567-9.296v1.136h-1.488v1.248h1.488v6.912h1.376v-6.912h2.352v-1.248h-2.352v-1.04c0-.88.48-1.248 1.312-1.248.448 0 .784.112 1.12.288v-1.216a2.82 2.82 0 0 0-1.408-.336c-1.584 0-2.4.88-2.4 2.416zm6.08-.496c.512 0 .912-.4.912-.912 0-.528-.4-.912-.912-.912-.528 0-.928.384-.928.912 0 .512.4.912.928.912zm-.688 9.792h1.376v-8.16h-1.376v8.16zm7.537.192c1.616 0 2.992-.8 3.728-2.048l-1.2-.72a2.878 2.878 0 0 1-2.528 1.44c-1.68 0-2.928-1.264-2.928-2.944s1.248-2.944 2.928-2.944c1.104 0 2.032.576 2.528 1.44l1.2-.72c-.736-1.248-2.112-2.048-3.728-2.048-2.48 0-4.352 1.84-4.352 4.272 0 2.432 1.872 4.272 4.352 4.272zm12.068-8.352v1.472c-.688-1.024-1.808-1.664-3.168-1.664-2.336 0-4.08 1.84-4.08 4.272 0 2.432 1.744 4.272 4.08 4.272 1.36 0 2.48-.64 3.168-1.664v1.472h1.376v-8.16h-1.376zm-2.912 7.024c-1.68 0-2.928-1.264-2.928-2.944s1.248-2.944 2.928-2.944c1.664 0 2.912 1.264 2.912 2.944s-1.248 2.944-2.912 2.944zm6.629 1.136h1.376v-11.52h-1.376v11.52zm3.703 0h1.376v-11.52h-1.376v11.52zm9.847-8.16-2.752 6.512-2.752-6.512h-1.584l3.552 8.112-.592 1.216c-.256.528-.624.736-1.04.736-.416 0-.816-.208-1.088-.512l-.576 1.056c.48.48 1.232.784 1.872.784.88 0 1.68-.544 2.096-1.504l4.4-9.888h-1.536zm10.712 8.352c1.616 0 2.992-.8 3.728-2.048l-1.2-.72a2.878 2.878 0 0 1-2.528 1.44c-1.68 0-2.928-1.264-2.928-2.944s1.248-2.944 2.928-2.944c1.104 0 2.032.576 2.528 1.44l1.2-.72c-.736-1.248-2.112-2.048-3.728-2.048-2.48 0-4.352 1.84-4.352 4.272 0 2.432 1.872 4.272 4.352 4.272zm9.554-8.48c-1.216 0-2.176.56-2.784 1.536v-1.408h-1.376v8.16h1.376v-4.08c0-1.696 1.056-2.784 2.784-2.784h.272v-1.424h-.272zm9.403 4.208c0-2.448-1.824-4.272-4.256-4.272-2.448 0-4.288 1.824-4.288 4.24 0 2.448 1.904 4.304 4.464 4.304 1.584 0 2.928-.688 3.744-1.776l-.944-.816c-.528.752-1.552 1.328-2.752 1.328-1.584 0-2.752-.976-3.024-2.4h7.024c.016-.192.032-.416.032-.608zm-4.272-3.008c1.44 0 2.56.96 2.816 2.368h-5.616c.256-1.392 1.376-2.368 2.8-2.368zm12.79-1.072v1.472c-.688-1.024-1.808-1.664-3.168-1.664-2.336 0-4.08 1.84-4.08 4.272 0 2.432 1.744 4.272 4.08 4.272 1.36 0 2.48-.64 3.168-1.664v1.472h1.376v-8.16h-1.376zm-2.912 7.024c-1.68 0-2.928-1.264-2.928-2.944s1.248-2.944 2.928-2.944c1.664 0 2.912 1.264 2.912 2.944s-1.248 2.944-2.912 2.944zm11.332-5.776v-1.248h-2.448v-2.192h-1.376v2.192h-1.472v1.248h1.472v4.736c0 1.504.816 2.368 2.4 2.368.576 0 1.008-.112 1.424-.336v-1.296c-.336.176-.688.304-1.136.304-.832 0-1.312-.384-1.312-1.264v-4.512h2.448zm9.469 2.832c0-2.448-1.824-4.272-4.256-4.272-2.448 0-4.288 1.824-4.288 4.24 0 2.448 1.904 4.304 4.464 4.304 1.584 0 2.928-.688 3.744-1.776l-.944-.816c-.528.752-1.552 1.328-2.752 1.328-1.584 0-2.752-.976-3.024-2.4h7.024c.016-.192.032-.416.032-.608zm-4.272-3.008c1.44 0 2.56.96 2.816 2.368h-5.617c.257-1.392 1.377-2.368 2.801-2.368zm12.789-4.432v4.832c-.688-1.024-1.808-1.664-3.168-1.664-2.336 0-4.08 1.84-4.08 4.272 0 2.432 1.744 4.272 4.08 4.272 1.36 0 2.48-.64 3.168-1.664v1.472h1.376v-11.52h-1.376zm-2.912 10.384c-1.68 0-2.928-1.264-2.928-2.944s1.248-2.944 2.928-2.944c1.664 0 2.912 1.264 2.912 2.944s-1.248 2.944-2.912 2.944zm14.134-9.312c.448 0 .784.112 1.12.288v-1.216a2.82 2.82 0 0 0-1.408-.336c-1.584 0-2.4.88-2.4 2.416v1.136h-1.488v1.248h1.488v6.912h1.376v-6.912h2.352v-1.248h-2.352v-1.04c0-.88.48-1.248 1.312-1.248zm5.912 10.64c2.464 0 4.336-1.84 4.336-4.272 0-2.432-1.872-4.272-4.336-4.272-2.48 0-4.352 1.84-4.352 4.272 0 2.432 1.872 4.272 4.352 4.272zm0-1.328c-1.68 0-2.928-1.264-2.928-2.944s1.248-2.944 2.928-2.944c1.664 0 2.912 1.264 2.912 2.944s-1.248 2.944-2.912 2.944zm10.305-7.152c-1.216 0-2.176.56-2.784 1.536v-1.408h-1.376v8.16h1.376v-4.08c0-1.696 1.056-2.784 2.784-2.784h.272v-1.424h-.272zm10.259-.064c-1.36 0-2.48.64-3.168 1.664v-1.472h-1.376v11.2h1.376v-4.512c.688 1.024 1.808 1.664 3.168 1.664 2.336 0 4.096-1.84 4.096-4.272 0-2.432-1.76-4.272-4.096-4.272zm-.256 7.216c-1.664 0-2.912-1.264-2.912-2.944s1.248-2.944 2.912-2.944c1.68 0 2.928 1.264 2.928 2.944s-1.248 2.944-2.928 2.944zm6.869-8.656c.512 0 .912-.4.912-.912 0-.528-.4-.912-.912-.912-.528 0-.928.384-.928.912 0 .512.4.912.928.912zm-.688 9.792h1.376v-8.16h-1.376v8.16zm8.407-6.912v-1.248h-2.448v-2.192h-1.376v2.192h-1.472v1.248h1.472v4.736c0 1.504.816 2.368 2.4 2.368.576 0 1.008-.112 1.424-.336v-1.296c-.336.176-.688.304-1.136.304-.832 0-1.312-.384-1.312-1.264v-4.512h2.448zm5.276 7.104c1.616 0 2.992-.8 3.728-2.048l-1.2-.72a2.878 2.878 0 0 1-2.528 1.44c-1.68 0-2.928-1.264-2.928-2.944s1.248-2.944 2.928-2.944c1.104 0 2.032.576 2.528 1.44l1.2-.72c-.736-1.248-2.112-2.048-3.728-2.048-2.48 0-4.352 1.84-4.352 4.272 0 2.432 1.872 4.272 4.352 4.272zm9.715-8.544c-1.28 0-2.304.528-2.944 1.488v-4.656h-1.376v11.52h1.376v-4.576c0-1.472.992-2.448 2.496-2.448 1.456 0 2.384.96 2.384 2.416v4.608h1.376v-5.04c0-2-1.328-3.312-3.312-3.312zm6.227-1.44c.512 0 .912-.4.912-.912 0-.528-.4-.912-.912-.912-.528 0-.928.384-.928.912 0 .512.4.912.928.912zm-.688 9.792h1.376v-8.16h-1.376v8.16zm8.023-8.352c-1.28 0-2.304.512-2.944 1.44v-1.248h-1.376v8.16h1.376v-4.576c0-1.472.992-2.448 2.496-2.448 1.456 0 2.384.96 2.384 2.416v4.608h1.376v-5.04c0-2-1.328-3.312-3.312-3.312zm10.676 8.56h-2.992c-.688 0-1.152-.368-1.152-.944 0-.352.192-.704.512-.912.512.256 1.088.384 1.728.384 2.112 0 3.728-1.536 3.728-3.552 0-.864-.288-1.632-.8-2.24.016-.544.416-.896 1.008-.896h.544v-1.28h-.624c-.992 0-1.696.544-1.856 1.408a3.923 3.923 0 0 0-2-.528c-2.128 0-3.728 1.52-3.728 3.536a3.51 3.51 0 0 0 1.12 2.592c-.624.352-1.008 1.072-1.008 1.84 0 1.152.912 1.936 2.272 1.936h3.008c.928 0 1.568.48 1.6 1.216l1.424-.368c-.16-1.36-1.248-2.192-2.784-2.192zm-1.904-7.248c1.312 0 2.304.96 2.304 2.224 0 1.28-.992 2.24-2.304 2.24-1.312 0-2.304-.96-2.304-2.24 0-1.264.976-2.224 2.304-2.224zM261.84 199.836c1.84 0 3.296-.912 3.296-2.528 0-1.696-1.568-2.096-2.912-2.416-1.088-.256-2.016-.48-2.016-1.28 0-.704.784-1.072 1.728-1.072.896 0 1.664.352 2.208.88l.768-1.008c-.688-.624-1.696-1.12-2.992-1.12-1.68 0-3.12.816-3.12 2.4 0 1.712 1.584 2.128 2.928 2.464 1.072.256 1.984.496 1.984 1.28 0 .736-.816 1.152-1.888 1.152-1.056 0-1.92-.4-2.528-1.024l-.768.992c.752.72 1.872 1.28 3.312 1.28zm9.501-7.104v-1.248h-2.448v-2.192h-1.376v2.192h-1.472v1.248h1.472v4.736c0 1.504.816 2.368 2.4 2.368.576 0 1.008-.112 1.424-.336v-1.296c-.336.176-.688.304-1.136.304-.832 0-1.312-.384-1.312-1.264v-4.512h2.448zm8.204-1.248v1.472c-.688-1.024-1.808-1.664-3.168-1.664-2.336 0-4.08 1.84-4.08 4.272 0 2.432 1.744 4.272 4.08 4.272 1.36 0 2.48-.64 3.168-1.664v1.472h1.376v-8.16h-1.376zm-2.912 7.024c-1.68 0-2.928-1.264-2.928-2.944s1.248-2.944 2.928-2.944c1.664 0 2.912 1.264 2.912 2.944s-1.248 2.944-2.912 2.944zm10.789-7.152c-1.216 0-2.176.56-2.784 1.536v-1.408h-1.376v8.16h1.376v-4.08c0-1.696 1.056-2.784 2.784-2.784h.272v-1.424h-.272zm6.559 1.376v-1.248h-2.448v-2.192h-1.376v2.192h-1.472v1.248h1.472v4.736c0 1.504.816 2.368 2.4 2.368.576 0 1.008-.112 1.424-.336v-1.296c-.336.176-.688.304-1.136.304-.832 0-1.312-.384-1.312-1.264v-4.512h2.448zm5.333 7.104c2.224 0 3.696-1.36 3.696-3.424v-4.928h-1.376v4.736c0 1.376-.928 2.288-2.32 2.288s-2.32-.912-2.32-2.288v-4.736h-1.376v4.928c0 2.064 1.472 3.424 3.696 3.424zm10.445-8.544c-1.36 0-2.48.64-3.168 1.664v-1.472h-1.376v11.2h1.376v-4.512c.688 1.024 1.808 1.664 3.168 1.664 2.336 0 4.096-1.84 4.096-4.272 0-2.432-1.76-4.272-4.096-4.272zm-.256 7.216c-1.664 0-2.912-1.264-2.912-2.944s1.248-2.944 2.912-2.944c1.68 0 2.928 1.264 2.928 2.944s-1.248 2.944-2.928 2.944zm8.853 1.328c1.84 0 3.296-.912 3.296-2.528 0-1.696-1.568-2.096-2.912-2.416-1.088-.256-2.016-.48-2.016-1.28 0-.704.784-1.072 1.728-1.072.896 0 1.664.352 2.208.88l.768-1.008c-.688-.624-1.696-1.12-2.992-1.12-1.68 0-3.12.816-3.12 2.4 0 1.712 1.584 2.128 2.928 2.464 1.072.256 1.984.496 1.984 1.28 0 .736-.816 1.152-1.888 1.152-1.056 0-1.92-.4-2.528-1.024l-.768.992c.752.72 1.872 1.28 3.312 1.28zm4.214 2.128h1.2l1.552-3.984h-1.632l-1.12 3.984zm9.333-12.112c.512 0 .912-.4.912-.912 0-.528-.4-.912-.912-.912-.528 0-.928.384-.928.912 0 .512.4.912.928.912zm-.688 9.792h1.376v-8.16h-1.376v8.16zm10.455-11.52v4.832c-.688-1.024-1.808-1.664-3.168-1.664-2.336 0-4.08 1.84-4.08 4.272 0 2.432 1.744 4.272 4.08 4.272 1.36 0 2.48-.64 3.168-1.664v1.472h1.376v-11.52h-1.376zm-2.912 10.384c-1.68 0-2.928-1.264-2.928-2.944s1.248-2.944 2.928-2.944c1.664 0 2.912 1.264 2.912 2.944s-1.248 2.944-2.912 2.944zm14.645-2.944c0-2.448-1.824-4.272-4.256-4.272-2.448 0-4.288 1.824-4.288 4.24 0 2.448 1.904 4.304 4.464 4.304 1.584 0 2.928-.688 3.744-1.776l-.944-.816c-.528.752-1.552 1.328-2.752 1.328-1.584 0-2.752-.976-3.024-2.4h7.024c.016-.192.032-.416.032-.608zm-4.272-3.008c1.44 0 2.56.96 2.816 2.368h-5.616c.256-1.392 1.376-2.368 2.8-2.368zm12.789-1.072v1.472c-.688-1.024-1.808-1.664-3.168-1.664-2.336 0-4.08 1.84-4.08 4.272 0 2.432 1.744 4.272 4.08 4.272 1.36 0 2.48-.64 3.168-1.664v1.472h1.376v-8.16h-1.376zm-2.912 7.024c-1.68 0-2.928-1.264-2.928-2.944s1.248-2.944 2.928-2.944c1.664 0 2.912 1.264 2.912 2.944s-1.248 2.944-2.912 2.944zm9.301 1.328c1.84 0 3.296-.912 3.296-2.528 0-1.696-1.568-2.096-2.912-2.416-1.088-.256-2.016-.48-2.016-1.28 0-.704.784-1.072 1.728-1.072.896 0 1.664.352 2.208.88l.768-1.008c-.688-.624-1.696-1.12-2.992-1.12-1.68 0-3.12.816-3.12 2.4 0 1.712 1.584 2.128 2.928 2.464 1.072.256 1.984.496 1.984 1.28 0 .736-.816 1.152-1.888 1.152-1.056 0-1.92-.4-2.528-1.024l-.768.992c.752.72 1.872 1.28 3.312 1.28zm4.214 2.128h1.2l1.552-3.984h-1.632l-1.12 3.984zm15.397-10.48v1.472c-.688-1.024-1.808-1.664-3.168-1.664-2.336 0-4.08 1.84-4.08 4.272 0 2.432 1.744 4.272 4.08 4.272 1.36 0 2.48-.64 3.168-1.664v1.472h1.376v-8.16h-1.376zm-2.912 7.024c-1.68 0-2.928-1.264-2.928-2.944s1.248-2.944 2.928-2.944c1.664 0 2.912 1.264 2.912 2.944s-1.248 2.944-2.912 2.944zm10.949-7.216c-1.28 0-2.304.512-2.944 1.44v-1.248h-1.376v8.16h1.376v-4.576c0-1.472.992-2.448 2.496-2.448 1.456 0 2.384.96 2.384 2.416v4.608h1.376v-5.04c0-2-1.328-3.312-3.312-3.312zm12.291-3.168v4.832c-.688-1.024-1.808-1.664-3.168-1.664-2.336 0-4.08 1.84-4.08 4.272 0 2.432 1.744 4.272 4.08 4.272 1.36 0 2.48-.64 3.168-1.664v1.472h1.376v-11.52h-1.376zm-2.912 10.384c-1.68 0-2.928-1.264-2.928-2.944s1.248-2.944 2.928-2.944c1.664 0 2.912 1.264 2.912 2.944s-1.248 2.944-2.912 2.944zm16.726-7.024-2.752 6.512-2.752-6.512h-1.584l3.584 8.16h1.456l3.584-8.16h-1.536zm10.481 4.08c0-2.448-1.824-4.272-4.256-4.272-2.448 0-4.288 1.824-4.288 4.24 0 2.448 1.904 4.304 4.464 4.304 1.584 0 2.928-.688 3.744-1.776l-.944-.816c-.528.752-1.552 1.328-2.752 1.328-1.584 0-2.752-.976-3.024-2.4h7.024c.016-.192.032-.416.032-.608zm-4.272-3.008c1.44 0 2.56.96 2.816 2.368h-5.616c.256-1.392 1.376-2.368 2.8-2.368zm10.358-1.264c-1.28 0-2.304.512-2.944 1.44v-1.248h-1.376v8.16h1.376v-4.576c0-1.472.992-2.448 2.496-2.448 1.456 0 2.384.96 2.384 2.416v4.608h1.376v-5.04c0-2-1.328-3.312-3.312-3.312zm9.79 1.44v-1.248h-2.448v-2.192h-1.376v2.192h-1.472v1.248h1.472v4.736c0 1.504.816 2.368 2.4 2.368.576 0 1.008-.112 1.424-.336v-1.296c-.336.176-.688.304-1.136.304-.832 0-1.312-.384-1.312-1.264v-4.512h2.448zm5.333 7.104c2.224 0 3.696-1.36 3.696-3.424v-4.928h-1.376v4.736c0 1.376-.928 2.288-2.32 2.288s-2.32-.912-2.32-2.288v-4.736h-1.376v4.928c0 2.064 1.472 3.424 3.696 3.424zm10.06-8.48c-1.216 0-2.176.56-2.784 1.536v-1.408h-1.376v8.16h1.376v-4.08c0-1.696 1.056-2.784 2.784-2.784h.272v-1.424h-.272zm9.403 4.208c0-2.448-1.824-4.272-4.256-4.272-2.448 0-4.288 1.824-4.288 4.24 0 2.448 1.904 4.304 4.464 4.304 1.584 0 2.928-.688 3.744-1.776l-.944-.816c-.528.752-1.552 1.328-2.752 1.328-1.584 0-2.752-.976-3.024-2.4h7.024c.016-.192.032-.416.032-.608zm-4.272-3.008c1.44 0 2.56.96 2.816 2.368h-5.616c.256-1.392 1.376-2.368 2.8-2.368zm8.71 7.28c1.84 0 3.296-.912 3.296-2.528 0-1.696-1.568-2.096-2.913-2.416-1.087-.256-2.015-.48-2.015-1.28 0-.704.784-1.072 1.728-1.072.896 0 1.664.352 2.208.88l.768-1.008c-.688-.624-1.696-1.12-2.992-1.12-1.68 0-3.12.816-3.12 2.4 0 1.712 1.584 2.128 2.928 2.464 1.072.256 1.984.496 1.984 1.28 0 .736-.816 1.152-1.888 1.152-1.056 0-1.92-.4-2.528-1.024l-.769.992c.753.72 1.873 1.28 3.313 1.28zm5.766-.08c.592 0 1.04-.448 1.04-1.024 0-.576-.448-1.024-1.04-1.024a1.01 1.01 0 0 0-1.024 1.024 1.01 1.01 0 0 0 1.024 1.024z" fill="#4E5460"/>
    <circle cx="179.105" cy="166.907" r="53.263" fill="#FF9382"/>
    <circle cx="643" cy="109.644" r="2" fill="#C4C4C4"/>
    <circle cx="643" cy="118.644" r="2" fill="#C4C4C4"/>
    <circle cx="643" cy="127.644" r="2" fill="#C4C4C4"/>
    <path d="M144.14 161.2h-4.372v10.023h2.005v-3.341h2.367c1.947 0 3.443-1.438 3.443-3.341 0-1.903-1.496-3.341-3.443-3.341zm-.043 4.794h-2.324v-2.906h2.324c.813 0 1.423.625 1.423 1.453 0 .828-.61 1.453-1.423 1.453zm5.635-3.269c.668 0 1.191-.508 1.191-1.176 0-.669-.523-1.177-1.191-1.177s-1.191.508-1.191 1.177c0 .668.523 1.176 1.191 1.176zm-.944 8.498h1.888v-7.408h-1.888v7.408zm8.249-5.68v-1.728h-1.99v-1.874h-1.888v1.874h-1.177v1.728h1.177v3.385c0 1.482.799 2.469 2.498 2.469.552 0 .973-.101 1.38-.319v-1.758c-.276.131-.595.247-.973.247-.668 0-1.017-.319-1.017-.944v-3.08h1.99zm4.714 5.854c1.496 0 2.746-.726 3.414-1.844l-1.642-.988c-.334.595-.988 1.002-1.772 1.002-1.162 0-2.034-.886-2.034-2.048s.872-2.048 2.034-2.048c.784 0 1.438.406 1.772 1.002l1.642-.988c-.668-1.118-1.918-1.845-3.414-1.845-2.266 0-3.98 1.671-3.98 3.879s1.714 3.878 3.98 3.878zm8.826-7.757c-.959 0-1.772.364-2.353 1.046v-3.922h-1.889v10.459h1.889v-4.067c0-1.017.697-1.685 1.743-1.685.973 0 1.612.653 1.612 1.656v4.096h1.889v-4.706c0-1.744-1.148-2.877-2.891-2.877zm8.185 7.757c2.193 0 3.907-1.234 3.907-3.036 0-2.295-2.745-2.977-3.675-3.166-.93-.204-1.976-.538-1.976-1.308 0-.624.712-1.075 1.715-1.075 1.002 0 2.004.422 2.571.974l.929-1.511c-.74-.726-1.975-1.249-3.471-1.249-2.252 0-3.806 1.162-3.806 2.949 0 1.757 1.569 2.672 3.486 3.123 1.031.247 2.164.508 2.164 1.351 0 .697-.842 1.162-1.844 1.162-1.133 0-2.325-.538-3.138-1.308l-1.031 1.526c1.016.944 2.629 1.568 4.169 1.568zm9.407-7.757c-.988 0-1.816.393-2.411 1.061v-.886h-1.889v10.168h1.889v-3.646c.595.668 1.423 1.06 2.411 1.06 2.063 0 3.602-1.67 3.602-3.878s-1.539-3.879-3.602-3.879zm-.378 5.927c-1.162 0-2.033-.886-2.033-2.048s.871-2.048 2.033-2.048c1.177 0 2.034.886 2.034 2.048s-.857 2.048-2.034 2.048zm10.977-5.752v.886a3.199 3.199 0 0 0-2.411-1.061c-2.063 0-3.617 1.671-3.617 3.879s1.554 3.878 3.617 3.878c.987 0 1.815-.406 2.411-1.06v.886h1.888v-7.408h-1.888zm-2.048 5.752c-1.162 0-2.034-.886-2.034-2.048s.872-2.048 2.034-2.048c1.176 0 2.048.886 2.048 2.048s-.872 2.048-2.048 2.048zm9.263 1.83c1.496 0 2.745-.726 3.413-1.844l-1.641-.988c-.334.595-.988 1.002-1.772 1.002-1.163 0-2.034-.886-2.034-2.048s.871-2.048 2.034-2.048c.784 0 1.438.406 1.772 1.002l1.641-.988c-.668-1.118-1.917-1.845-3.413-1.845-2.267 0-3.981 1.671-3.981 3.879s1.714 3.878 3.981 3.878zm11.85-3.864c0-2.237-1.671-3.893-3.893-3.893-2.237 0-3.937 1.656-3.937 3.85 0 2.222 1.758 3.907 4.111 3.907 1.395 0 2.586-.566 3.356-1.481l-1.264-1.104c-.392.494-1.133.915-2.034.915-1.075 0-1.859-.596-2.121-1.525h5.738c.029-.204.044-.465.044-.669zm-3.908-2.237c.915 0 1.656.596 1.889 1.526h-3.777c.232-.915.959-1.526 1.888-1.526z" fill="#D4EEFD"/>
    <defs>
        <filter id="a" x=".454" y=".475" width="752.768" height="338.505" filterUnits="userSpaceOnUse" color-interpolation-filters="sRGB">
            <feFlood flood-opacity="0" result="BackgroundImageFix"/>
            <feBlend in="SourceGraphic" in2="BackgroundImageFix" result="shape"/>
            <feGaussianBlur stdDeviation="46.169" result="effect1_foregroundBlur"/>
        </filter>
    </defs>
</svg>
