<svg width="62" height="49" fill="none" xmlns="http://www.w3.org/2000/svg">
    <path d="M0 26.971V1.785h5.608v21.809h8.82v3.377H0zM18.613 3.233c0-.772.28-1.448.794-2.027.56-.579 1.166-.82 1.96-.82.793 0 1.447.29 1.96.82.513.531.793 1.255.793 2.027 0 .772-.28 1.447-.793 2.026-.56.53-1.213.82-1.96.82-.747 0-1.4-.29-1.96-.82-.56-.579-.794-1.206-.794-2.026zm.094 45.499v-38.6h5.273v38.6h-5.273zM28.741 0h5.32v10.277h.84c3.174 0 5.648.724 7.328 2.22 1.68 1.495 2.567 3.618 2.567 6.417 0 2.605-.794 4.631-2.334 5.982s-3.827 2.075-6.814 2.075h-6.907V0zm5.32 12.593v12.062c1.774-.048 3.08-.482 3.828-1.399.793-.917 1.166-2.46 1.166-4.584 0-2.17-.373-3.667-1.166-4.632-.747-.964-2.054-1.447-3.827-1.447zM28.708 48.2V31.362h7.506c2.337 0 4.077.438 5.27 1.265 1.193.827 1.79 2.093 1.79 3.747 0 1.12-.25 2.044-.796 2.774-.547.73-1.342 1.217-2.436 1.509l5.07 7.592h-6.561l-3.927-7.933v-.34c1.093-.146 1.839-.487 2.336-1.022.497-.536.746-1.266.746-2.239 0-.973-.249-1.752-.796-2.239-.546-.486-1.292-.778-2.336-.778h-.348c-.1 0-.199 0-.249.048V48.25h-5.269V48.2zM46.56 48.249l4.224-13.72c.422-1.363.892-2.336 1.408-2.871.516-.536 1.267-.779 2.159-.779.845 0 1.502.243 1.97.681.47.487.94 1.363 1.315 2.676L62 48.25h-5.537l-.892-3.065h-5.35l-.845 3.065H46.56zm4.318-5.4h4.036L52.99 35.55l-2.112 7.298z" fill="#D9D9D9"/>
</svg>
