<svg width="97" height="27" fill="none" xmlns="http://www.w3.org/2000/svg">
    <path d="M17.759 0v5.796H7.282v4.607h7.728v5.535H7.282v10.255H0V0h17.759zM42.152 5.35v20.843h-7.32V23.22c-.619.942-1.473 1.71-2.563 2.304-1.09.57-2.34.854-3.752.854-2.428 0-4.347-.792-5.76-2.377-1.386-1.61-2.08-3.79-2.08-6.54V5.35h7.245v11.183c0 1.189.31 2.13.929 2.824.644.668 1.486 1.003 2.526 1.003 1.065 0 1.907-.335 2.527-1.003.619-.694.928-1.635.928-2.824V5.35h7.32zM53.578 9.028c.817-1.189 1.808-2.13 2.972-2.823a7.206 7.206 0 0 1 3.752-1.04v7.764H58.26c-1.585 0-2.762.31-3.53.929-.767.62-1.151 1.697-1.151 3.232v9.103h-7.282V5.35h7.282v3.678zM76.548 5.164c2.403 0 4.31.805 5.722 2.415 1.411 1.585 2.117 3.74 2.117 6.465v12.149h-7.282V15.01c0-1.19-.31-2.118-.928-2.787-.62-.693-1.45-1.04-2.49-1.04-1.09 0-1.944.347-2.563 1.04-.62.669-.93 1.598-.93 2.787v11.183h-7.281V5.35h7.282v2.972c.644-.941 1.51-1.696 2.6-2.266 1.09-.595 2.341-.892 3.753-.892z" fill="#D9D9D9"/>
    <circle cx="92.07" cy="21.262" r="4.93" fill="#D9D9D9"/>
</svg>
