<svg width="754" height="380" fill="none" xmlns="http://www.w3.org/2000/svg">
    <g opacity=".3" filter="url(#a)">
        <rect x="92.791" y="92.471" width="568.094" height="195.173" rx="21.837" fill="#0F0941" fill-opacity=".5"/>
    </g>
    <rect x="83" y="84.644" width="588" height="203" rx="18.887" fill="#fff"/>
    <path d="m268.42 121.844-3.64 6.16-3.64-6.16h-3.16l5.38 8.96v4.84h2.76v-4.84l5.38-8.96h-3.08zm6.95 14.04c3.12 0 5.48-2.3 5.48-5.34s-2.36-5.34-5.48-5.34c-3.12 0-5.48 2.3-5.48 5.34s2.36 5.34 5.48 5.34zm0-2.52c-1.6 0-2.8-1.22-2.8-2.82 0-1.6 1.2-2.82 2.8-2.82 1.62 0 2.8 1.22 2.8 2.82 0 1.6-1.18 2.82-2.8 2.82zm11.947 2.52c2.86 0 4.76-1.7 4.76-4.3v-6.14h-2.6v5.78c0 1.3-.86 2.14-2.16 2.14-1.3 0-2.16-.84-2.16-2.14v-5.78h-2.6v6.14c0 2.6 1.88 4.3 4.76 4.3zm12.919-10.68c-1.32 0-2.44.48-3.24 1.38v-1.14h-2.6v10.2h2.6v-5.6c0-1.4.96-2.32 2.38-2.32 1.36 0 2.24.9 2.24 2.28v5.64h2.6v-6.48c0-2.4-1.58-3.96-3.98-3.96zm12.789 10.44h-3.32c-.64 0-1.08-.36-1.08-.86 0-.34.2-.68.52-.88.52.16 1.08.26 1.68.26 2.72 0 4.8-1.92 4.8-4.48 0-1-.32-1.92-.88-2.64.1-.46.52-.74 1.04-.74h.72v-2.4h-.84c-1.34 0-2.32.68-2.62 1.78-.66-.3-1.4-.48-2.22-.48-2.74 0-4.78 1.92-4.78 4.48 0 1.28.5 2.38 1.36 3.18-.84.52-1.38 1.52-1.38 2.56 0 1.62 1.26 2.72 3.16 2.72h3.34c.92 0 1.54.48 1.62 1.22l2.68-.72c-.34-1.88-1.78-3-3.8-3zm-2.2-7.98c1.2 0 2.12.86 2.12 2.02 0 1.16-.92 2.02-2.12 2.02-1.22 0-2.12-.86-2.12-2.02 0-1.16.9-2.02 2.12-2.02zm14.48 5.38v-3.04h5.86v-2.6h-5.86v-2.96h6.52v-2.6h-9.28v13.8h9.38v-2.6h-6.62zm14.541-7.84c-1.32 0-2.44.48-3.24 1.38v-1.14h-2.6v10.2h2.6v-5.6c0-1.4.96-2.32 2.38-2.32 1.36 0 2.24.9 2.24 2.28v5.64h2.6v-6.48c0-2.4-1.58-3.96-3.98-3.96zm12.139 2.62v-2.38h-2.74v-2.58h-2.6v2.58h-1.62v2.38h1.62v4.66c0 2.04 1.1 3.4 3.44 3.4.76 0 1.34-.14 1.9-.44v-2.42c-.38.18-.82.34-1.34.34-.92 0-1.4-.44-1.4-1.3v-4.24h2.74zm7.463-2.54c-1.2 0-2.2.54-2.94 1.48v-1.32h-2.6v10.2h2.6v-4.84c0-1.74 1.08-2.84 2.94-2.84h.44v-2.68h-.44zm11.886 5.28c0-3.08-2.3-5.36-5.36-5.36-3.08 0-5.42 2.28-5.42 5.3 0 3.06 2.42 5.38 5.66 5.38 1.92 0 3.56-.78 4.62-2.04l-1.74-1.52c-.54.68-1.56 1.26-2.8 1.26-1.48 0-2.56-.82-2.92-2.1h7.9c.04-.28.06-.64.06-.92zm-5.38-3.08c1.26 0 2.28.82 2.6 2.1h-5.2c.32-1.26 1.32-2.1 2.6-2.1zm13.112-2.28c-1.36 0-2.5.54-3.32 1.46v-1.22h-2.6v14h2.6v-5.02c.82.92 1.96 1.46 3.32 1.46 2.84 0 4.96-2.3 4.96-5.34s-2.12-5.34-4.96-5.34zm-.52 8.16c-1.6 0-2.8-1.22-2.8-2.82 0-1.6 1.2-2.82 2.8-2.82 1.62 0 2.8 1.22 2.8 2.82 0 1.6-1.18 2.82-2.8 2.82zm12.933-8.08c-1.2 0-2.2.54-2.94 1.48v-1.32h-2.6v10.2h2.6v-4.84c0-1.74 1.08-2.84 2.94-2.84h.44v-2.68h-.44zm11.886 5.28c0-3.08-2.3-5.36-5.36-5.36-3.08 0-5.42 2.28-5.42 5.3 0 3.06 2.42 5.38 5.66 5.38 1.92 0 3.56-.78 4.62-2.04l-1.74-1.52c-.54.68-1.56 1.26-2.8 1.26-1.48 0-2.56-.82-2.92-2.1h7.9c.04-.28.06-.64.06-.92zm-5.38-3.08c1.26 0 2.28.82 2.6 2.1h-5.2c.32-1.26 1.32-2.1 2.6-2.1zm13.033-2.28c-1.32 0-2.44.48-3.24 1.38v-1.14h-2.6v10.2h2.6v-5.6c0-1.4.96-2.32 2.38-2.32 1.36 0 2.24.9 2.24 2.28v5.64h2.6v-6.48c0-2.4-1.58-3.96-3.98-3.96zm16.468 5.36c0-3.08-2.3-5.36-5.36-5.36-3.08 0-5.42 2.28-5.42 5.3 0 3.06 2.42 5.38 5.66 5.38 1.92 0 3.56-.78 4.62-2.04l-1.74-1.52c-.54.68-1.56 1.26-2.8 1.26-1.48 0-2.56-.82-2.92-2.1h7.9c.04-.28.06-.64.06-.92zm-5.38-3.08c1.26 0 2.28.82 2.6 2.1h-5.2c.32-1.26 1.32-2.1 2.6-2.1zm11.793 8.4c2.86 0 4.76-1.7 4.76-4.3v-6.14h-2.6v5.78c0 1.3-.86 2.14-2.16 2.14-1.3 0-2.16-.84-2.16-2.14v-5.78h-2.6v6.14c0 2.6 1.88 4.3 4.76 4.3zm12.619-10.6c-1.2 0-2.2.54-2.94 1.48v-1.32h-2.6v10.2h2.6v-4.84c0-1.74 1.08-2.84 2.94-2.84h.44v-2.68h-.44zm5.48 10.6c2.44 0 4.36-1.18 4.36-3.34 0-2.32-2.1-2.82-3.72-3.18-1.14-.24-2-.46-2-1.14 0-.6.72-.88 1.6-.88 1.04 0 1.9.38 2.64.94l1.26-1.74c-.92-.72-2.22-1.34-3.96-1.34-2.26 0-4.16 1.06-4.16 3.22 0 2.32 2.1 2.82 3.72 3.18 1.12.26 2 .5 2 1.18 0 .62-.76.96-1.8.96-1.22 0-2.2-.46-2.98-1.14l-1.26 1.72c.98.84 2.4 1.56 4.3 1.56z" fill="#131313"/>
    <path d="M267.456 168.644h1.616l-4.496-11.04h-1.744l-4.496 11.04h1.568l1.072-2.672h5.408l1.072 2.672zm-5.936-4.032 2.16-5.424 2.16 5.424h-4.32zm15.679 4.224c1.84 0 3.296-.912 3.296-2.528 0-1.696-1.568-2.096-2.912-2.416-1.088-.256-2.016-.48-2.016-1.28 0-.704.784-1.072 1.728-1.072.896 0 1.664.352 2.208.88l.768-1.008c-.688-.624-1.696-1.12-2.992-1.12-1.68 0-3.12.816-3.12 2.4 0 1.712 1.584 2.128 2.928 2.464 1.072.256 1.984.496 1.984 1.28 0 .736-.816 1.152-1.888 1.152-1.056 0-1.92-.4-2.528-1.024l-.768.992c.752.72 1.872 1.28 3.312 1.28zm9.576-8.544c-1.36 0-2.48.64-3.168 1.664v-1.472h-1.376v11.2h1.376v-4.512c.688 1.024 1.808 1.664 3.168 1.664 2.336 0 4.096-1.84 4.096-4.272 0-2.432-1.76-4.272-4.096-4.272zm-.256 7.216c-1.664 0-2.912-1.264-2.912-2.944s1.248-2.944 2.912-2.944c1.68 0 2.928 1.264 2.928 2.944s-1.248 2.944-2.928 2.944zm12.932-7.024v1.472c-.688-1.024-1.808-1.664-3.168-1.664-2.336 0-4.08 1.84-4.08 4.272 0 2.432 1.744 4.272 4.08 4.272 1.36 0 2.48-.64 3.168-1.664v1.472h1.376v-8.16h-1.376zm-2.912 7.024c-1.68 0-2.928-1.264-2.928-2.944s1.248-2.944 2.928-2.944c1.664 0 2.912 1.264 2.912 2.944s-1.248 2.944-2.912 2.944zm10.453 1.328c1.616 0 2.992-.8 3.728-2.048l-1.2-.72a2.878 2.878 0 0 1-2.528 1.44c-1.68 0-2.928-1.264-2.928-2.944s1.248-2.944 2.928-2.944c1.104 0 2.032.576 2.528 1.44l1.2-.72c-.736-1.248-2.112-2.048-3.728-2.048-2.48 0-4.352 1.84-4.352 4.272 0 2.432 1.872 4.272 4.352 4.272zm13.333-4.272c0-2.448-1.824-4.272-4.256-4.272-2.448 0-4.288 1.824-4.288 4.24 0 2.448 1.904 4.304 4.464 4.304 1.584 0 2.928-.688 3.744-1.776l-.944-.816c-.528.752-1.552 1.328-2.752 1.328-1.584 0-2.752-.976-3.024-2.4h7.024c.016-.192.032-.416.032-.608zm-4.272-3.008c1.44 0 2.56.96 2.816 2.368h-5.616c.256-1.392 1.376-2.368 2.8-2.368zm13.542-3.36c.448 0 .784.112 1.12.288v-1.216a2.82 2.82 0 0 0-1.408-.336c-1.584 0-2.4.88-2.4 2.416v1.136h-1.488v1.248h1.488v6.912h1.376v-6.912h2.352v-1.248h-2.352v-1.04c0-.88.48-1.248 1.312-1.248zm5.913 10.64c2.464 0 4.336-1.84 4.336-4.272 0-2.432-1.872-4.272-4.336-4.272-2.48 0-4.352 1.84-4.352 4.272 0 2.432 1.872 4.272 4.352 4.272zm0-1.328c-1.68 0-2.928-1.264-2.928-2.944s1.248-2.944 2.928-2.944c1.664 0 2.912 1.264 2.912 2.944s-1.248 2.944-2.912 2.944zm10.304-7.152c-1.216 0-2.176.56-2.784 1.536v-1.408h-1.376v8.16h1.376v-4.08c0-1.696 1.056-2.784 2.784-2.784h.272v-1.424h-.272zm11.859.128-2.752 6.512-2.752-6.512h-1.584l3.552 8.112-.592 1.216c-.256.528-.624.736-1.04.736-.416 0-.816-.208-1.088-.512l-.576 1.056c.48.48 1.232.784 1.872.784.88 0 1.68-.544 2.096-1.504l4.4-9.888h-1.536zm6.29 8.352c2.464 0 4.336-1.84 4.336-4.272 0-2.432-1.872-4.272-4.336-4.272-2.48 0-4.352 1.84-4.352 4.272 0 2.432 1.872 4.272 4.352 4.272zm0-1.328c-1.68 0-2.928-1.264-2.928-2.944s1.248-2.944 2.928-2.944c1.664 0 2.912 1.264 2.912 2.944s-1.248 2.944-2.912 2.944zm9.713 1.328c2.224 0 3.696-1.36 3.696-3.424v-4.928h-1.376v4.736c0 1.376-.928 2.288-2.32 2.288s-2.32-.912-2.32-2.288v-4.736h-1.376v4.928c0 2.064 1.472 3.424 3.696 3.424zm10.22-8.544c-1.28 0-2.304.512-2.944 1.44v-1.248h-1.376v8.16h1.376v-4.576c0-1.472.992-2.448 2.496-2.448 1.456 0 2.384.96 2.384 2.416v4.608h1.376v-5.04c0-2-1.328-3.312-3.312-3.312zm10.676 8.56h-2.992c-.688 0-1.152-.368-1.152-.944 0-.352.192-.704.512-.912.512.256 1.088.384 1.728.384 2.112 0 3.728-1.536 3.728-3.552 0-.864-.288-1.632-.8-2.24.016-.544.416-.896 1.008-.896h.544v-1.28h-.624c-.992 0-1.696.544-1.856 1.408a3.923 3.923 0 0 0-2-.528c-2.128 0-3.728 1.52-3.728 3.536a3.51 3.51 0 0 0 1.12 2.592c-.624.352-1.008 1.072-1.008 1.84 0 1.152.912 1.936 2.272 1.936h3.008c.928 0 1.568.48 1.6 1.216l1.424-.368c-.16-1.36-1.248-2.192-2.784-2.192zm-1.904-7.248c1.312 0 2.304.96 2.304 2.224 0 1.28-.992 2.24-2.304 2.24-1.312 0-2.304-.96-2.304-2.24 0-1.264.976-2.224 2.304-2.224zm17.721 2.96c0-2.448-1.824-4.272-4.256-4.272-2.448 0-4.288 1.824-4.288 4.24 0 2.448 1.904 4.304 4.464 4.304 1.584 0 2.928-.688 3.744-1.776l-.944-.816c-.528.752-1.552 1.328-2.752 1.328-1.584 0-2.752-.976-3.024-2.4h7.024c.016-.192.032-.416.032-.608zm-4.272-3.008c1.44 0 2.56.96 2.816 2.368h-5.616c.256-1.392 1.376-2.368 2.8-2.368zm10.357-1.264c-1.28 0-2.304.512-2.944 1.44v-1.248h-1.376v8.16h1.376v-4.576c0-1.472.992-2.448 2.496-2.448 1.456 0 2.384.96 2.384 2.416v4.608h1.376v-5.04c0-2-1.328-3.312-3.312-3.312zm9.791 1.44v-1.248h-2.448v-2.192h-1.376v2.192h-1.472v1.248h1.472v4.736c0 1.504.816 2.368 2.4 2.368.576 0 1.008-.112 1.424-.336v-1.296c-.336.176-.688.304-1.136.304-.832 0-1.312-.384-1.312-1.264v-4.512h2.448zm5.924-1.376c-1.216 0-2.176.56-2.784 1.536v-1.408h-1.376v8.16h1.376v-4.08c0-1.696 1.056-2.784 2.784-2.784h.272v-1.424h-.272zm9.403 4.208c0-2.448-1.824-4.272-4.256-4.272-2.448 0-4.288 1.824-4.288 4.24 0 2.448 1.904 4.304 4.464 4.304 1.584 0 2.928-.688 3.744-1.776l-.944-.816c-.528.752-1.552 1.328-2.752 1.328-1.584 0-2.752-.976-3.024-2.4h7.024c.016-.192.032-.416.032-.608zm-4.272-3.008c1.44 0 2.56.96 2.816 2.368h-5.616c.256-1.392 1.376-2.368 2.8-2.368zm10.582-1.264c-1.36 0-2.48.64-3.168 1.664v-1.472h-1.376v11.2h1.376v-4.512c.688 1.024 1.808 1.664 3.168 1.664 2.336 0 4.096-1.84 4.096-4.272 0-2.432-1.76-4.272-4.096-4.272zm-.256 7.216c-1.664 0-2.912-1.264-2.912-2.944s1.248-2.944 2.912-2.944c1.68 0 2.928 1.264 2.928 2.944s-1.248 2.944-2.928 2.944zm10.34-7.152c-1.216 0-2.176.56-2.784 1.536v-1.408h-1.376v8.16h1.376v-4.08c0-1.696 1.056-2.784 2.784-2.784h.272v-1.424h-.272zm9.403 4.208c0-2.448-1.824-4.272-4.256-4.272-2.448 0-4.288 1.824-4.288 4.24 0 2.448 1.904 4.304 4.464 4.304 1.584 0 2.928-.688 3.744-1.776l-.944-.816c-.528.752-1.552 1.328-2.752 1.328-1.584 0-2.752-.976-3.024-2.4h7.024c.016-.192.032-.416.032-.608zm-4.272-3.008c1.44 0 2.56.96 2.816 2.368h-5.616c.256-1.392 1.376-2.368 2.8-2.368zm10.357-1.264c-1.28 0-2.304.512-2.944 1.44v-1.248h-1.376v8.16h1.376v-4.576c0-1.472.992-2.448 2.496-2.448 1.456 0 2.384.96 2.384 2.416v4.608h1.376v-5.04c0-2-1.328-3.312-3.312-3.312zm13.556 4.272c0-2.448-1.824-4.272-4.256-4.272-2.448 0-4.288 1.824-4.288 4.24 0 2.448 1.904 4.304 4.464 4.304 1.584 0 2.928-.688 3.744-1.776l-.944-.816c-.528.752-1.552 1.328-2.752 1.328-1.584 0-2.752-.976-3.024-2.4h7.024c.016-.192.032-.416.032-.608zm-4.272-3.008c1.44 0 2.56.96 2.816 2.368h-5.616c.256-1.392 1.376-2.368 2.8-2.368zm9.605 7.28c2.224 0 3.696-1.36 3.696-3.424v-4.928h-1.376v4.736c0 1.376-.928 2.288-2.32 2.288s-2.32-.912-2.32-2.288v-4.736h-1.376v4.928c0 2.064 1.472 3.424 3.696 3.424zm10.061-8.48c-1.216 0-2.176.56-2.784 1.536v-1.408h-1.376v8.16h1.376v-4.08c0-1.696 1.056-2.784 2.784-2.784h.272v-1.424h-.272zm4.356 8.48c1.84 0 3.296-.912 3.296-2.528 0-1.696-1.568-2.096-2.913-2.416-1.087-.256-2.015-.48-2.015-1.28 0-.704.784-1.072 1.728-1.072.896 0 1.664.352 2.208.88l.768-1.008c-.688-.624-1.696-1.12-2.992-1.12-1.68 0-3.12.816-3.12 2.4 0 1.712 1.584 2.128 2.928 2.464 1.072.256 1.984.496 1.984 1.28 0 .736-.816 1.152-1.888 1.152-1.056 0-1.92-.4-2.528-1.024l-.769.992c.753.72 1.873 1.28 3.313 1.28zm13.688-7.104v-1.248h-2.448v-2.192h-1.376v2.192h-1.472v1.248h1.472v4.736c0 1.504.816 2.368 2.4 2.368.576 0 1.008-.112 1.424-.336v-1.296c-.336.176-.688.304-1.136.304-.832 0-1.312-.384-1.312-1.264v-4.512h2.448zm5.276 7.104c2.464 0 4.336-1.84 4.336-4.272 0-2.432-1.872-4.272-4.336-4.272-2.48 0-4.352 1.84-4.352 4.272 0 2.432 1.872 4.272 4.352 4.272zm0-1.328c-1.68 0-2.928-1.264-2.928-2.944s1.248-2.944 2.928-2.944c1.664 0 2.912 1.264 2.912 2.944s-1.248 2.944-2.912 2.944zm15.234 1.344h-2.992c-.688 0-1.152-.368-1.152-.944 0-.352.192-.704.512-.912.512.256 1.088.384 1.728.384 2.112 0 3.728-1.536 3.728-3.552 0-.864-.288-1.632-.8-2.24.016-.544.416-.896 1.008-.896h.544v-1.28h-.624c-.992 0-1.696.544-1.856 1.408a3.923 3.923 0 0 0-2-.528c-2.128 0-3.728 1.52-3.728 3.536a3.51 3.51 0 0 0 1.12 2.592c-.624.352-1.008 1.072-1.008 1.84 0 1.152.912 1.936 2.272 1.936h3.008c.928 0 1.568.48 1.6 1.216l1.424-.368c-.16-1.36-1.248-2.192-2.784-2.192zm-1.904-7.248c1.312 0 2.304.96 2.304 2.224 0 1.28-.992 2.24-2.304 2.24-1.312 0-2.304-.96-2.304-2.24 0-1.264.976-2.224 2.304-2.224zm9.912-1.248c-1.216 0-2.176.56-2.784 1.536v-1.408h-1.376v8.16h1.376v-4.08c0-1.696 1.056-2.784 2.784-2.784h.272v-1.424h-.272zm5.211 8.48c2.464 0 4.336-1.84 4.336-4.272 0-2.432-1.872-4.272-4.336-4.272-2.48 0-4.352 1.84-4.352 4.272 0 2.432 1.872 4.272 4.352 4.272zm0-1.328c-1.68 0-2.928-1.264-2.928-2.944s1.248-2.944 2.928-2.944c1.664 0 2.912 1.264 2.912 2.944s-1.248 2.944-2.912 2.944zm16.652-7.024-2.208 6.496-2.256-6.496h-1.408l-2.24 6.48-2.208-6.48h-1.552l2.992 8.16h1.44l2.256-6.528 2.256 6.528h1.44l2.992-8.16h-1.504zm.801 10.48h1.2l1.552-3.984h-1.632l-1.12 3.984zm-304.464 14.6c0-2.448-1.824-4.272-4.256-4.272-2.448 0-4.288 1.824-4.288 4.24 0 2.448 1.904 4.304 4.464 4.304 1.584 0 2.928-.688 3.744-1.776l-.944-.816c-.528.752-1.552 1.328-2.752 1.328-1.584 0-2.752-.976-3.024-2.4h7.024c.016-.192.032-.416.032-.608zm-4.272-3.008c1.44 0 2.56.96 2.816 2.368h-5.616c.256-1.392 1.376-2.368 2.8-2.368zm12.916 7.088-3.152-4.096 3.104-4.064h-1.68l-2.368 3.136-2.368-3.136h-1.68l3.104 4.064-3.152 4.096h1.68l2.4-3.184 2.416 3.184h1.696zm6.165-8.352c-1.36 0-2.48.64-3.168 1.664v-1.472h-1.376v11.2h1.376v-4.512c.688 1.024 1.808 1.664 3.168 1.664 2.336 0 4.096-1.84 4.096-4.272 0-2.432-1.76-4.272-4.096-4.272zm-.256 7.216c-1.664 0-2.912-1.264-2.912-2.944s1.248-2.944 2.912-2.944c1.68 0 2.928 1.264 2.928 2.944s-1.248 2.944-2.928 2.944zm6.181 1.136h1.376v-11.52h-1.376v11.52zm7.527.192c2.464 0 4.336-1.84 4.336-4.272 0-2.432-1.872-4.272-4.336-4.272-2.48 0-4.352 1.84-4.352 4.272 0 2.432 1.872 4.272 4.352 4.272zm0-1.328c-1.68 0-2.928-1.264-2.928-2.944s1.248-2.944 2.928-2.944c1.664 0 2.912 1.264 2.912 2.944s-1.248 2.944-2.912 2.944zm10.305-7.152c-1.216 0-2.176.56-2.784 1.536v-1.408h-1.376v8.16h1.376v-4.08c0-1.696 1.056-2.784 2.784-2.784h.272v-1.424h-.272zm9.403 4.208c0-2.448-1.824-4.272-4.256-4.272-2.448 0-4.288 1.824-4.288 4.24 0 2.448 1.904 4.304 4.464 4.304 1.584 0 2.928-.688 3.744-1.776l-.944-.816c-.528.752-1.552 1.328-2.752 1.328-1.584 0-2.752-.976-3.024-2.4h7.024c.016-.192.032-.416.032-.608zm-4.272-3.008c1.44 0 2.56.96 2.816 2.368h-5.616c.256-1.392 1.376-2.368 2.8-2.368zm4.892 9.408h1.2l1.552-3.984h-1.632l-1.12 3.984zm15.397-10.48v1.472c-.688-1.024-1.808-1.664-3.168-1.664-2.336 0-4.08 1.84-4.08 4.272 0 2.432 1.744 4.272 4.08 4.272 1.36 0 2.48-.64 3.168-1.664v1.472h1.376v-8.16h-1.376zm-2.912 7.024c-1.68 0-2.928-1.264-2.928-2.944s1.248-2.944 2.928-2.944c1.664 0 2.912 1.264 2.912 2.944s-1.248 2.944-2.912 2.944zm10.949-7.216c-1.28 0-2.304.512-2.944 1.44v-1.248h-1.376v8.16h1.376v-4.576c0-1.472.992-2.448 2.496-2.448 1.456 0 2.384.96 2.384 2.416v4.608h1.376v-5.04c0-2-1.328-3.312-3.312-3.312zm12.291-3.168v4.832c-.688-1.024-1.808-1.664-3.168-1.664-2.336 0-4.08 1.84-4.08 4.272 0 2.432 1.744 4.272 4.08 4.272 1.36 0 2.48-.64 3.168-1.664v1.472h1.376v-11.52h-1.376zm-2.912 10.384c-1.68 0-2.928-1.264-2.928-2.944s1.248-2.944 2.928-2.944c1.664 0 2.912 1.264 2.912 2.944s-1.248 2.944-2.912 2.944zm17.334-7.024v1.472c-.688-1.024-1.808-1.664-3.168-1.664-2.336 0-4.08 1.84-4.08 4.272 0 2.432 1.744 4.272 4.08 4.272 1.36 0 2.48-.64 3.168-1.664v1.472h1.376v-8.16h-1.376zm-2.912 7.024c-1.68 0-2.928-1.264-2.928-2.944s1.248-2.944 2.928-2.944c1.664 0 2.912 1.264 2.912 2.944s-1.248 2.944-2.912 2.944zm9.301 1.328c1.84 0 3.296-.912 3.296-2.528 0-1.696-1.568-2.096-2.912-2.416-1.088-.256-2.016-.48-2.016-1.28 0-.704.784-1.072 1.728-1.072.896 0 1.664.352 2.208.88l.768-1.008c-.688-.624-1.696-1.12-2.992-1.12-1.68 0-3.12.816-3.12 2.4 0 1.712 1.584 2.128 2.928 2.464 1.072.256 1.984.496 1.984 1.28 0 .736-.816 1.152-1.888 1.152-1.056 0-1.92-.4-2.528-1.024l-.768.992c.752.72 1.872 1.28 3.312 1.28zm10.391-.192h1.824l-3.776-4.304 3.664-3.856h-1.792l-3.904 4.144v-7.504h-1.376v11.52h1.376v-2.16l1.056-1.12 2.928 3.28zm13.751-8.16v1.472c-.688-1.024-1.808-1.664-3.168-1.664-2.336 0-4.08 1.84-4.08 4.272 0 2.432 1.744 4.272 4.08 4.272 1.36 0 2.48-.64 3.168-1.664v4.512h1.376v-11.2h-1.376zm-2.912 7.024c-1.68 0-2.928-1.264-2.928-2.944s1.248-2.944 2.928-2.944c1.664 0 2.912 1.264 2.912 2.944s-1.248 2.944-2.912 2.944zm10.197 1.328c2.224 0 3.696-1.36 3.696-3.424v-4.928h-1.376v4.736c0 1.376-.928 2.288-2.32 2.288s-2.32-.912-2.32-2.288v-4.736h-1.376v4.928c0 2.064 1.472 3.424 3.696 3.424zm13.917-4.272c0-2.448-1.824-4.272-4.256-4.272-2.448 0-4.288 1.824-4.288 4.24 0 2.448 1.904 4.304 4.464 4.304 1.584 0 2.928-.688 3.744-1.776l-.944-.816c-.528.752-1.552 1.328-2.752 1.328-1.584 0-2.752-.976-3.024-2.4h7.024c.016-.192.032-.416.032-.608zm-4.272-3.008c1.44 0 2.56.96 2.816 2.368h-5.616c.256-1.392 1.376-2.368 2.8-2.368zm8.709 7.28c1.84 0 3.296-.912 3.296-2.528 0-1.696-1.568-2.096-2.912-2.416-1.088-.256-2.016-.48-2.016-1.28 0-.704.784-1.072 1.728-1.072.896 0 1.664.352 2.208.88l.768-1.008c-.688-.624-1.696-1.12-2.992-1.12-1.68 0-3.12.816-3.12 2.4 0 1.712 1.584 2.128 2.928 2.464 1.072.256 1.984.496 1.984 1.28 0 .736-.816 1.152-1.888 1.152-1.056 0-1.92-.4-2.528-1.024l-.768.992c.752.72 1.872 1.28 3.312 1.28zm9.501-7.104v-1.248h-2.448v-2.192h-1.376v2.192h-1.472v1.248h1.472v4.736c0 1.504.816 2.368 2.4 2.368.576 0 1.008-.112 1.424-.336v-1.296c-.336.176-.688.304-1.136.304-.832 0-1.312-.384-1.312-1.264v-4.512h2.448zm2.453-2.88c.512 0 .912-.4.912-.912 0-.528-.4-.912-.912-.912-.528 0-.928.384-.928.912 0 .512.4.912.928.912zm-.688 9.792h1.376v-8.16h-1.376v8.16zm7.527.192c2.464 0 4.336-1.84 4.336-4.272 0-2.432-1.872-4.272-4.336-4.272-2.48 0-4.352 1.84-4.352 4.272 0 2.432 1.872 4.272 4.352 4.272zm0-1.328c-1.68 0-2.928-1.264-2.928-2.944s1.248-2.944 2.928-2.944c1.664 0 2.912 1.264 2.912 2.944s-1.248 2.944-2.912 2.944zm10.464-7.216c-1.28 0-2.304.512-2.944 1.44v-1.248h-1.376v8.16h1.376v-4.576c0-1.472.992-2.448 2.496-2.448 1.456 0 2.384.96 2.384 2.416v4.608h1.376v-5.04c0-2-1.328-3.312-3.312-3.312zm8.196 8.544c1.84 0 3.296-.912 3.296-2.528 0-1.696-1.568-2.096-2.912-2.416-1.088-.256-2.016-.48-2.016-1.28 0-.704.784-1.072 1.728-1.072.896 0 1.664.352 2.208.88l.768-1.008c-.688-.624-1.696-1.12-2.992-1.12-1.68 0-3.12.816-3.12 2.4 0 1.712 1.584 2.128 2.928 2.464 1.072.256 1.984.496 1.984 1.28 0 .736-.816 1.152-1.888 1.152-1.056 0-1.92-.4-2.528-1.024l-.768.992c.752.72 1.872 1.28 3.312 1.28zm13.688-7.104v-1.248h-2.448v-2.192h-1.376v2.192h-1.472v1.248h1.472v4.736c0 1.504.816 2.368 2.4 2.368.576 0 1.008-.112 1.424-.336v-1.296c-.336.176-.688.304-1.136.304-.832 0-1.312-.384-1.312-1.264v-4.512h2.448zm6.085-1.44c-1.28 0-2.304.528-2.944 1.488v-4.656h-1.376v11.52h1.376v-4.576c0-1.472.992-2.448 2.496-2.448 1.456 0 2.384.96 2.384 2.416v4.608h1.376v-5.04c0-2-1.328-3.312-3.312-3.312zm9.7.064c-1.217 0-2.176.56-2.784 1.536v-1.408h-1.376v8.16h1.376v-4.08c0-1.696 1.056-2.784 2.784-2.784h.272v-1.424h-.272zm5.21 8.48c2.464 0 4.336-1.84 4.336-4.272 0-2.432-1.872-4.272-4.336-4.272-2.48 0-4.352 1.84-4.352 4.272 0 2.432 1.872 4.272 4.352 4.272zm0-1.328c-1.68 0-2.928-1.264-2.928-2.944s1.248-2.944 2.928-2.944c1.664 0 2.912 1.264 2.912 2.944s-1.248 2.944-2.912 2.944zm9.713 1.328c2.224 0 3.696-1.36 3.696-3.424v-4.928h-1.376v4.736c0 1.376-.928 2.288-2.32 2.288s-2.32-.912-2.32-2.288v-4.736h-1.376v4.928c0 2.064 1.472 3.424 3.696 3.424zm10.896.016h-2.992c-.688 0-1.152-.368-1.152-.944 0-.352.192-.704.512-.912.512.256 1.088.384 1.728.384 2.112 0 3.728-1.536 3.728-3.552 0-.864-.288-1.632-.8-2.24.016-.544.416-.896 1.008-.896h.544v-1.28h-.624c-.992 0-1.696.544-1.856 1.408a3.923 3.923 0 0 0-2-.528c-2.128 0-3.728 1.52-3.728 3.536a3.51 3.51 0 0 0 1.12 2.592c-.624.352-1.008 1.072-1.008 1.84 0 1.152.912 1.936 2.272 1.936h3.008c.928 0 1.568.48 1.6 1.216l1.424-.368c-.16-1.36-1.248-2.192-2.784-2.192zm-1.904-7.248c1.312 0 2.304.96 2.304 2.224 0 1.28-.992 2.24-2.304 2.24-1.312 0-2.304-.96-2.304-2.24 0-1.264.976-2.224 2.304-2.224zm10.073-1.312c-1.28 0-2.304.528-2.944 1.488v-4.656h-1.376v11.52h1.376v-4.576c0-1.472.992-2.448 2.496-2.448 1.456 0 2.384.96 2.384 2.416v4.608h1.376v-5.04c0-2-1.328-3.312-3.312-3.312zm9.492 8.352h1.376v-11.52h-1.376v11.52zm11.719-4.08c0-2.448-1.824-4.272-4.256-4.272-2.448 0-4.288 1.824-4.288 4.24 0 2.448 1.904 4.304 4.464 4.304 1.584 0 2.928-.688 3.744-1.776l-.944-.816c-.528.752-1.552 1.328-2.752 1.328-1.584 0-2.752-.976-3.024-2.4h7.024c.016-.192.032-.416.032-.608zm-4.272-3.008c1.44 0 2.56.96 2.816 2.368h-5.616c.256-1.392 1.376-2.368 2.8-2.368zm12.79-1.072v1.472c-.688-1.024-1.808-1.664-3.168-1.664-2.336 0-4.08 1.84-4.08 4.272 0 2.432 1.744 4.272 4.08 4.272 1.36 0 2.48-.64 3.168-1.664v1.472h1.376v-8.16h-1.376zm-2.912 7.024c-1.68 0-2.928-1.264-2.928-2.944s1.248-2.944 2.928-2.944c1.664 0 2.912 1.264 2.912 2.944s-1.248 2.944-2.912 2.944zm10.788-7.152c-1.216 0-2.176.56-2.784 1.536v-1.408h-1.376v8.16h1.376v-4.08c0-1.696 1.056-2.784 2.784-2.784h.272v-1.424h-.272zm6.082-.064c-1.28 0-2.304.512-2.944 1.44v-1.248h-1.376v8.16h1.376v-4.576c0-1.472.992-2.448 2.496-2.448 1.456 0 2.384.96 2.384 2.416v4.608h1.376v-5.04c0-2-1.328-3.312-3.312-3.312zm6.228-1.44c.512 0 .912-.4.912-.912 0-.528-.4-.912-.912-.912-.528 0-.928.384-.928.912 0 .512.4.912.928.912zm-.688 9.792h1.376v-8.16h-1.376v8.16zm8.023-8.352c-1.28 0-2.304.512-2.944 1.44v-1.248h-1.376v8.16h1.376v-4.576c0-1.472.992-2.448 2.496-2.448 1.456 0 2.384.96 2.384 2.416v4.608h1.376v-5.04c0-2-1.328-3.312-3.312-3.312zm10.675 8.56h-2.992c-.688 0-1.152-.368-1.152-.944 0-.352.192-.704.512-.912.512.256 1.088.384 1.728.384 2.112 0 3.728-1.536 3.728-3.552 0-.864-.288-1.632-.8-2.24.016-.544.416-.896 1.008-.896h.544v-1.28h-.624c-.992 0-1.696.544-1.856 1.408a3.923 3.923 0 0 0-2-.528c-2.128 0-3.728 1.52-3.728 3.536a3.51 3.51 0 0 0 1.12 2.592c-.624.352-1.008 1.072-1.008 1.84 0 1.152.912 1.936 2.272 1.936h3.008c.928 0 1.568.48 1.6 1.216l1.424-.368c-.16-1.36-1.248-2.192-2.784-2.192zm-1.904-7.248c1.312 0 2.304.96 2.304 2.224 0 1.28-.992 2.24-2.304 2.24-1.312 0-2.304-.96-2.304-2.24 0-1.264.976-2.224 2.304-2.224zm6.613 7.152c.592 0 1.04-.448 1.04-1.024 0-.576-.448-1.024-1.04-1.024a1.01 1.01 0 0 0-1.024 1.024 1.01 1.01 0 0 0 1.024 1.024z" fill="#4E5460"/>
    <circle cx="170.5" cy="153.144" r="47.5" fill="#1E48CE"/>
    <path stroke="#C4C4C4" stroke-width=".5" d="M117 217.394h520"/>
    <circle cx="633" cy="107.644" r="2" fill="#C4C4C4"/>
    <circle cx="633" cy="116.644" r="2" fill="#C4C4C4"/>
    <circle cx="633" cy="125.644" r="2" fill="#C4C4C4"/>
    <path d="m159.674 138.364-2.184 3.696-2.184-3.696h-1.896l3.228 5.376v2.904h1.656v-2.904l3.228-5.376h-1.848zm4.17 8.424c1.872 0 3.288-1.38 3.288-3.204 0-1.824-1.416-3.204-3.288-3.204-1.872 0-3.288 1.38-3.288 3.204 0 1.824 1.416 3.204 3.288 3.204zm0-1.512c-.96 0-1.68-.732-1.68-1.692s.72-1.692 1.68-1.692c.972 0 1.68.732 1.68 1.692s-.708 1.692-1.68 1.692zm7.168 1.512c1.716 0 2.856-1.02 2.856-2.58v-3.684h-1.56v3.468c0 .78-.516 1.284-1.296 1.284s-1.296-.504-1.296-1.284v-3.468h-1.56v3.684c0 1.56 1.128 2.58 2.856 2.58zm7.752-6.408c-.792 0-1.464.288-1.944.828v-.684h-1.56v6.12h1.56v-3.36c0-.84.576-1.392 1.428-1.392.816 0 1.344.54 1.344 1.368v3.384h1.56v-3.888c0-1.44-.948-2.376-2.388-2.376zm7.673 6.264h-1.992c-.384 0-.648-.216-.648-.516 0-.204.12-.408.312-.528a3.41 3.41 0 0 0 1.008.156c1.632 0 2.88-1.152 2.88-2.688 0-.6-.192-1.152-.528-1.584.06-.276.312-.444.624-.444h.432v-1.44h-.504c-.804 0-1.392.408-1.572 1.068a3.189 3.189 0 0 0-1.332-.288c-1.644 0-2.868 1.152-2.868 2.688 0 .768.3 1.428.816 1.908-.504.312-.828.912-.828 1.536 0 .972.756 1.632 1.896 1.632h2.004c.552 0 .924.288.972.732l1.608-.432c-.204-1.128-1.068-1.8-2.28-1.8zm-1.32-4.788c.72 0 1.272.516 1.272 1.212s-.552 1.212-1.272 1.212c-.732 0-1.272-.516-1.272-1.212s.54-1.212 1.272-1.212zm-52.338 19.228v-1.824h3.516v-1.56h-3.516v-1.776h3.912v-1.56h-5.568v8.28h5.628v-1.56h-3.972zm8.725-4.704c-.792 0-1.464.288-1.944.828v-.684H138v6.12h1.56v-3.36c0-.84.576-1.392 1.428-1.392.816 0 1.344.54 1.344 1.368v3.384h1.56v-3.888c0-1.44-.948-2.376-2.388-2.376zm7.283 1.572v-1.428h-1.644v-1.548h-1.56v1.548h-.972v1.428h.972v2.796c0 1.224.66 2.04 2.064 2.04.456 0 .804-.084 1.14-.264v-1.452a1.849 1.849 0 0 1-.804.204c-.552 0-.84-.264-.84-.78v-2.544h1.644zm4.478-1.524c-.72 0-1.32.324-1.764.888v-.792h-1.56v6.12h1.56v-2.904c0-1.044.648-1.704 1.764-1.704h.264v-1.608h-.264zm7.132 3.168c0-1.848-1.38-3.216-3.216-3.216-1.848 0-3.252 1.368-3.252 3.18 0 1.836 1.452 3.228 3.396 3.228 1.152 0 2.136-.468 2.772-1.224l-1.044-.912c-.324.408-.936.756-1.68.756-.888 0-1.536-.492-1.752-1.26h4.74c.024-.168.036-.384.036-.552zm-3.228-1.848c.756 0 1.368.492 1.56 1.26h-3.12c.192-.756.792-1.26 1.56-1.26zm7.867-1.368c-.816 0-1.5.324-1.992.876v-.732h-1.56v8.4h1.56v-3.012c.492.552 1.176.876 1.992.876 1.704 0 2.976-1.38 2.976-3.204 0-1.824-1.272-3.204-2.976-3.204zm-.312 4.896c-.96 0-1.68-.732-1.68-1.692s.72-1.692 1.68-1.692c.972 0 1.68.732 1.68 1.692s-.708 1.692-1.68 1.692zm7.76-4.848c-.72 0-1.32.324-1.764.888v-.792h-1.56v6.12h1.56v-2.904c0-1.044.648-1.704 1.764-1.704h.264v-1.608h-.264zm7.131 3.168c0-1.848-1.38-3.216-3.216-3.216-1.848 0-3.252 1.368-3.252 3.18 0 1.836 1.452 3.228 3.396 3.228 1.152 0 2.136-.468 2.772-1.224l-1.044-.912c-.324.408-.936.756-1.68.756-.888 0-1.536-.492-1.752-1.26h4.74c.024-.168.036-.384.036-.552zm-3.228-1.848c.756 0 1.368.492 1.56 1.26h-3.12c.192-.756.792-1.26 1.56-1.26zm7.82-1.368c-.792 0-1.464.288-1.944.828v-.684h-1.56v6.12h1.56v-3.36c0-.84.576-1.392 1.428-1.392.816 0 1.344.54 1.344 1.368v3.384h1.56v-3.888c0-1.44-.948-2.376-2.388-2.376zm9.881 3.216c0-1.848-1.38-3.216-3.216-3.216-1.848 0-3.252 1.368-3.252 3.18 0 1.836 1.452 3.228 3.396 3.228 1.152 0 2.136-.468 2.772-1.224l-1.044-.912c-.324.408-.936.756-1.68.756-.888 0-1.536-.492-1.752-1.26h4.74c.024-.168.036-.384.036-.552zm-3.228-1.848c.756 0 1.368.492 1.56 1.26h-3.12c.192-.756.792-1.26 1.56-1.26zm7.076 5.04c1.716 0 2.856-1.02 2.856-2.58v-3.684h-1.56v3.468c0 .78-.516 1.284-1.296 1.284s-1.296-.504-1.296-1.284v-3.468h-1.56v3.684c0 1.56 1.128 2.58 2.856 2.58zm7.571-6.36c-.72 0-1.32.324-1.764.888v-.792h-1.56v6.12h1.56v-2.904c0-1.044.648-1.704 1.764-1.704h.264v-1.608h-.264zm3.288 6.36c1.464 0 2.616-.708 2.616-2.004 0-1.392-1.26-1.692-2.232-1.908-.684-.144-1.2-.276-1.2-.684 0-.36.432-.528.96-.528.624 0 1.14.228 1.584.564l.756-1.044a3.772 3.772 0 0 0-2.376-.804c-1.356 0-2.496.636-2.496 1.932 0 1.392 1.26 1.692 2.232 1.908.672.156 1.2.3 1.2.708 0 .372-.456.576-1.08.576-.732 0-1.32-.276-1.788-.684l-.756 1.032c.588.504 1.44.936 2.58.936z" fill="#E8FD7D"/>
    <rect x="532" y="233.644" width="97" height="37" rx="10" fill="#131313"/>
    <path d="M551.029 256.788c1.704 0 2.844-1.032 2.844-2.772v-5.652h-1.656v5.568c0 .804-.516 1.26-1.368 1.26-.42 0-.84-.108-1.164-.252v1.584c.36.156.816.264 1.344.264zm7.184 0c1.872 0 3.288-1.38 3.288-3.204 0-1.824-1.416-3.204-3.288-3.204-1.872 0-3.288 1.38-3.288 3.204 0 1.824 1.416 3.204 3.288 3.204zm0-1.512c-.96 0-1.68-.732-1.68-1.692s.72-1.692 1.68-1.692c.972 0 1.68.732 1.68 1.692s-.708 1.692-1.68 1.692zm5.188-5.652c.552 0 .984-.42.984-.972a.963.963 0 0 0-.984-.972.963.963 0 0 0-.984.972c0 .552.432.972.984.972zm-.78 7.02h1.56v-6.12h-1.56v6.12zm6.551-6.264c-.792 0-1.464.288-1.944.828v-.684h-1.56v6.12h1.56v-3.36c0-.84.576-1.392 1.428-1.392.816 0 1.344.54 1.344 1.368v3.384h1.56v-3.888c0-1.44-.948-2.376-2.388-2.376zm10.739 1.608v1.476h2.244c-.252 1.032-1.212 1.74-2.4 1.74-1.536 0-2.688-1.152-2.688-2.7 0-1.548 1.164-2.7 2.7-2.7.9 0 1.68.396 2.172 1.032l1.248-.996c-.732-.996-2.004-1.62-3.456-1.62-2.484 0-4.368 1.848-4.368 4.284s1.86 4.284 4.332 4.284c2.424 0 4.2-1.788 4.2-4.224v-.576h-3.984zm8.417-1.56c-.72 0-1.32.324-1.764.888v-.792h-1.56v6.12h1.56v-2.904c0-1.044.648-1.704 1.764-1.704h.264v-1.608h-.264zm3.951 6.36c1.872 0 3.288-1.38 3.288-3.204 0-1.824-1.416-3.204-3.288-3.204-1.872 0-3.288 1.38-3.288 3.204 0 1.824 1.416 3.204 3.288 3.204zm0-1.512c-.96 0-1.68-.732-1.68-1.692s.72-1.692 1.68-1.692c.972 0 1.68.732 1.68 1.692s-.708 1.692-1.68 1.692zm7.168 1.512c1.716 0 2.856-1.02 2.856-2.58v-3.684h-1.56v3.468c0 .78-.516 1.284-1.296 1.284s-1.296-.504-1.296-1.284v-3.468h-1.56v3.684c0 1.56 1.128 2.58 2.856 2.58zm7.8-6.408c-.816 0-1.5.324-1.992.876v-.732h-1.56v8.4h1.56v-3.012c.492.552 1.176.876 1.992.876 1.704 0 2.976-1.38 2.976-3.204 0-1.824-1.272-3.204-2.976-3.204zm-.312 4.896c-.96 0-1.68-.732-1.68-1.692s.72-1.692 1.68-1.692c.972 0 1.68.732 1.68 1.692s-.708 1.692-1.68 1.692z" fill="#fff"/>
    <rect x="408.5" y="235.144" width="96" height="36" rx="9.5" stroke="#182742"/>
    <path d="m428.085 249.364-2.364 4.308-2.352-4.308h-2.064v8.28h1.656v-5.688l2.28 4.2h.936l2.292-4.2v5.688h1.656v-8.28h-2.04zm6.54 8.424c1.872 0 3.288-1.38 3.288-3.204 0-1.824-1.416-3.204-3.288-3.204-1.872 0-3.288 1.38-3.288 3.204 0 1.824 1.416 3.204 3.288 3.204zm0-1.512c-.96 0-1.68-.732-1.68-1.692s.72-1.692 1.68-1.692c.972 0 1.68.732 1.68 1.692s-.708 1.692-1.68 1.692zm7.732-4.848c-.72 0-1.32.324-1.764.888v-.792h-1.56v6.12h1.56v-2.904c0-1.044.648-1.704 1.764-1.704h.264v-1.608h-.264zm7.131 3.168c0-1.848-1.38-3.216-3.216-3.216-1.848 0-3.252 1.368-3.252 3.18 0 1.836 1.452 3.228 3.396 3.228 1.152 0 2.136-.468 2.772-1.224l-1.044-.912c-.324.408-.936.756-1.68.756-.888 0-1.536-.492-1.752-1.26h4.74c.024-.168.036-.384.036-.552zm-3.228-1.848c.756 0 1.368.492 1.56 1.26h-3.12c.192-.756.792-1.26 1.56-1.26zm10.383-3.384h-3.24v8.28h3.24c2.412 0 4.224-1.776 4.224-4.14s-1.812-4.14-4.224-4.14zm-.036 6.72h-1.548v-5.16h1.548c1.464 0 2.556 1.104 2.556 2.58s-1.092 2.58-2.556 2.58zm11.561-1.488c0-1.848-1.38-3.216-3.216-3.216-1.848 0-3.252 1.368-3.252 3.18 0 1.836 1.452 3.228 3.396 3.228 1.152 0 2.136-.468 2.772-1.224l-1.044-.912c-.324.408-.936.756-1.68.756-.888 0-1.536-.492-1.752-1.26h4.74c.024-.168.036-.384.036-.552zm-3.228-1.848c.756 0 1.368.492 1.56 1.26h-3.12c.192-.756.792-1.26 1.56-1.26zm7.814.204v-1.428h-1.644v-1.548h-1.56v1.548h-.972v1.428h.972v2.796c0 1.224.66 2.04 2.064 2.04.456 0 .804-.084 1.14-.264v-1.452a1.849 1.849 0 0 1-.804.204c-.552 0-.84-.264-.84-.78v-2.544h1.644zm5.61-1.428v.732a2.642 2.642 0 0 0-1.992-.876c-1.704 0-2.988 1.38-2.988 3.204 0 1.824 1.284 3.204 2.988 3.204.816 0 1.5-.336 1.992-.876v.732h1.56v-6.12h-1.56zm-1.692 4.752c-.96 0-1.68-.732-1.68-1.692s.72-1.692 1.68-1.692c.972 0 1.692.732 1.692 1.692s-.72 1.692-1.692 1.692zm5.516-5.652c.552 0 .984-.42.984-.972a.963.963 0 0 0-.984-.972.963.963 0 0 0-.984.972c0 .552.432.972.984.972zm-.78 7.02h1.56v-6.12h-1.56v6.12zm3.047 0h1.56v-8.64h-1.56v8.64zm5.159.144c1.464 0 2.616-.708 2.616-2.004 0-1.392-1.26-1.692-2.232-1.908-.684-.144-1.2-.276-1.2-.684 0-.36.432-.528.96-.528.624 0 1.14.228 1.584.564l.756-1.044a3.772 3.772 0 0 0-2.376-.804c-1.356 0-2.496.636-2.496 1.932 0 1.392 1.26 1.692 2.232 1.908.672.156 1.2.3 1.2.708 0 .372-.456.576-1.08.576-.732 0-1.32-.276-1.788-.684l-.756 1.032c.588.504 1.44.936 2.58.936z" fill="#182742"/>
    <path d="M418 235.644h77v-2h-77v2zm86 9v17h2v-17h-2zm-9 26h-77v2h77v-2zm-86-9v-17h-2v17h2zm9 9a9 9 0 0 1-9-9h-2c0 6.075 4.925 11 11 11v-2zm86-9a9 9 0 0 1-9 9v2c6.075 0 11-4.925 11-11h-2zm-9-26a9 9 0 0 1 9 9h2c0-6.075-4.925-11-11-11v2zm-77-2c-6.075 0-11 4.925-11 11h2a9 9 0 0 1 9-9v-2z" fill="#000"/>
    <defs>
        <filter id="a" x=".454" y=".134" width="752.768" height="379.847" filterUnits="userSpaceOnUse" color-interpolation-filters="sRGB">
            <feFlood flood-opacity="0" result="BackgroundImageFix"/>
            <feBlend in="SourceGraphic" in2="BackgroundImageFix" result="shape"/>
            <feGaussianBlur stdDeviation="46.169" result="effect1_foregroundBlur"/>
        </filter>
    </defs>
</svg>
