<svg width="149" height="33" fill="none" xmlns="http://www.w3.org/2000/svg">
    <path d="M28.894 6.663a.294.294 0 1 0 .59 0 .294.294 0 0 0-.59 0zM26.973 3.403a.295.295 0 1 0 .589 0 .295.295 0 0 0-.59 0zM30.564 16.445a.61.61 0 1 0 1.22 0 .61.61 0 0 0-1.22 0zM28.635 13.185a.61.61 0 1 0 1.22 0 .61.61 0 0 0-1.22 0zM26.707 9.924a.61.61 0 1 0 1.22 0 .61.61 0 0 0-1.22 0zM24.78 6.665a.61.61 0 1 0 1.22 0 .61.61 0 0 0-1.22 0zM22.857 3.404a.61.61 0 1 0 1.22 0 .61.61 0 0 0-1.22 0zM26.153 16.446a1.22 1.22 0 1 0 2.44 0 1.22 1.22 0 0 0-2.44 0zM24.226 13.185a1.22 1.22 0 1 0 2.44 0 1.22 1.22 0 0 0-2.44 0zM22.297 9.925a1.22 1.22 0 1 0 2.44 0 1.22 1.22 0 0 0-2.44 0zM20.374 6.664a1.22 1.22 0 1 0 2.44 0 1.22 1.22 0 0 0-2.44 0zM19.058 3.404a.61.61 0 1 0 1.22 0 .61.61 0 0 0-1.22 0zM22.354 16.446a1.22 1.22 0 1 0 2.44 0 1.22 1.22 0 0 0-2.44 0zM20.424 13.185a1.22 1.22 0 1 0 2.44 0 1.22 1.22 0 0 0-2.44 0zM18.504 9.925a1.22 1.22 0 1 0 2.44 0 1.22 1.22 0 0 0-2.44 0zM16.576 6.664a1.22 1.22 0 1 0 2.44 0 1.22 1.22 0 0 0-2.44 0zM15.257 3.404a.61.61 0 1 0 1.22 0 .61.61 0 0 0-1.22 0zM19.163 16.445a.61.61 0 1 0 1.22 0 .61.61 0 0 0-1.22 0zM17.24 13.185a.61.61 0 1 0 1.22 0 .61.61 0 0 0-1.22 0zM15.313 9.924a.61.61 0 1 0 1.22 0 .61.61 0 0 0-1.22 0zM13.384 6.665a.61.61 0 1 0 1.22 0 .61.61 0 0 0-1.22 0zM11.771 3.403a.294.294 0 1 0 .59 0 .294.294 0 0 0-.59 0zM15.686 16.445a.294.294 0 1 0 .59 0 .294.294 0 0 0-.59 0zM13.757 13.185a.294.294 0 1 0 .589 0 .294.294 0 0 0-.59 0zM11.828 9.925a.294.294 0 1 0 .589 0 .294.294 0 0 0-.589 0zM9.898 6.663a.294.294 0 1 0 .59 0 .294.294 0 0 0-.59 0zM7.972 3.403a.294.294 0 1 0 .588 0 .294.294 0 0 0-.588 0zM11.885 16.445a.295.295 0 1 0 .589 0 .295.295 0 0 0-.59 0zM9.955 13.185a.294.294 0 1 0 .589 0 .294.294 0 0 0-.589 0zM8.028 9.925a.294.294 0 1 0 .59 0 .294.294 0 0 0-.59 0zM6.1 6.663a.294.294 0 1 0 .588 0 .294.294 0 0 0-.589 0zM8.083 16.445a.295.295 0 1 0 .589 0 .295.295 0 0 0-.59 0zM6.156 13.185a.294.294 0 1 0 .589 0 .294.294 0 0 0-.589 0zM4.227 9.925a.294.294 0 1 0 .59 0 .294.294 0 0 0-.59 0zM4.284 16.445a.295.295 0 1 0 .59 0 .295.295 0 0 0-.59 0zM2.354 13.185a.294.294 0 1 0 .59 0 .294.294 0 0 0-.59 0zM.482 16.445a.295.295 0 1 0 .59 0 .295.295 0 0 0-.59 0zM28.845 32.706a.294.294 0 1 0 .589 0 .294.294 0 0 0-.59 0zM28.894 26.177a.294.294 0 1 0 .59 0 .294.294 0 0 0-.59 0zM26.973 29.445a.294.294 0 1 0 .588 0 .294.294 0 0 0-.588 0zM25.046 32.706a.295.295 0 1 0 .589 0 .295.295 0 0 0-.59 0z" fill="#D9D9D9"/>
    <path d="M30.564 16.396a.61.61 0 1 0 1.22 0 .61.61 0 0 0-1.22 0zM28.635 19.657a.61.61 0 1 0 1.22 0 .61.61 0 0 0-1.22 0zM26.707 22.918a.61.61 0 1 0 1.22 0 .61.61 0 0 0-1.22 0zM24.78 26.177a.61.61 0 1 0 1.22 0 .61.61 0 0 0-1.22 0zM22.857 29.446a.61.61 0 1 0 1.22 0 .61.61 0 0 0-1.22 0zM21.244 32.706a.294.294 0 1 0 .589 0 .294.294 0 0 0-.589 0zM26.153 16.396a1.22 1.22 0 1 0 2.44 0 1.22 1.22 0 0 0-2.44 0zM24.226 19.657a1.22 1.22 0 1 0 2.44 0 1.22 1.22 0 0 0-2.44 0zM22.297 22.917a1.22 1.22 0 1 0 2.44 0 1.22 1.22 0 0 0-2.44 0zM20.374 26.178a1.22 1.22 0 1 0 2.44 0 1.22 1.22 0 0 0-2.44 0zM19.058 29.446a.61.61 0 1 0 1.22 0 .61.61 0 0 0-1.22 0zM17.445 32.706a.294.294 0 1 0 .59 0 .294.294 0 0 0-.59 0zM22.354 16.396a1.22 1.22 0 1 0 2.44 0 1.22 1.22 0 0 0-2.44 0zM20.424 19.657a1.22 1.22 0 1 0 2.44 0 1.22 1.22 0 0 0-2.44 0zM18.504 22.917a1.22 1.22 0 1 0 2.44 0 1.22 1.22 0 0 0-2.44 0zM16.576 26.178a1.22 1.22 0 1 0 2.44 0 1.22 1.22 0 0 0-2.44 0zM15.257 29.446a.61.61 0 1 0 1.22 0 .61.61 0 0 0-1.22 0zM13.643 32.706a.295.295 0 1 0 .59 0 .295.295 0 0 0-.59 0zM19.163 16.396a.61.61 0 1 0 1.22 0 .61.61 0 0 0-1.22 0zM17.24 19.657a.61.61 0 1 0 1.22 0 .61.61 0 0 0-1.22 0zM15.313 22.918a.61.61 0 1 0 1.22 0 .61.61 0 0 0-1.22 0zM13.384 26.177a.61.61 0 1 0 1.22 0 .61.61 0 0 0-1.22 0zM11.771 29.445a.294.294 0 1 0 .59 0 .294.294 0 0 0-.59 0zM9.845 32.706a.295.295 0 1 0 .589 0 .295.295 0 0 0-.59 0zM15.686 16.397a.294.294 0 1 0 .59 0 .294.294 0 0 0-.59 0zM13.757 19.657a.294.294 0 1 0 .589 0 .294.294 0 0 0-.59 0zM11.828 22.917a.294.294 0 1 0 .589 0 .294.294 0 0 0-.589 0zM9.898 26.177a.294.294 0 1 0 .59 0 .294.294 0 0 0-.59 0zM7.972 29.445a.294.294 0 1 0 .588 0 .294.294 0 0 0-.588 0zM11.885 16.397a.295.295 0 1 0 .589 0 .295.295 0 0 0-.59 0zM9.955 19.657a.294.294 0 1 0 .589 0 .294.294 0 0 0-.589 0zM8.028 22.917a.294.294 0 1 0 .59 0 .294.294 0 0 0-.59 0zM6.1 26.177a.294.294 0 1 0 .588 0 .294.294 0 0 0-.589 0zM8.083 16.397a.295.295 0 1 0 .589 0 .295.295 0 0 0-.59 0zM6.156 19.657a.294.294 0 1 0 .589 0 .294.294 0 0 0-.589 0zM4.227 22.917a.294.294 0 1 0 .59 0 .294.294 0 0 0-.59 0zM4.284 16.397a.295.295 0 1 0 .59 0 .295.295 0 0 0-.59 0zM2.354 19.657a.294.294 0 1 0 .59 0 .294.294 0 0 0-.59 0zM.482 16.397a.295.295 0 1 0 .59 0 .295.295 0 0 0-.59 0zM39.202 16.06a.295.295 0 1 0 .59 0 .295.295 0 0 0-.59 0zM37.273 12.799a.294.294 0 1 0 .59 0 .294.294 0 0 0-.59 0zM35.346 9.538a.294.294 0 1 0 .588 0 .294.294 0 0 0-.588 0zM33.417 6.279a.294.294 0 1 0 .589 0 .294.294 0 0 0-.59 0zM31.49 3.018a.294.294 0 1 0 .59 0 .294.294 0 0 0-.59 0zM35.4 16.06a.295.295 0 1 0 .59 0 .295.295 0 0 0-.59 0zM33.474 12.799a.294.294 0 1 0 .588 0 .294.294 0 0 0-.588 0zM31.545 9.538a.295.295 0 1 0 .589 0 .295.295 0 0 0-.59 0z" fill="#D9D9D9"/>
    <path d="M39.202 16.01a.294.294 0 1 0 .589 0 .294.294 0 0 0-.589 0zM37.273 19.271a.294.294 0 1 0 .59 0 .294.294 0 0 0-.59 0zM35.346 22.532a.294.294 0 1 0 .589 0 .294.294 0 0 0-.59 0zM33.417 25.792a.294.294 0 1 0 .589 0 .294.294 0 0 0-.59 0zM31.49 29.06a.294.294 0 1 0 .589 0 .294.294 0 0 0-.589 0zM35.4 16.01a.294.294 0 1 0 .59 0 .294.294 0 0 0-.59 0zM33.474 19.271a.295.295 0 1 0 .589 0 .295.295 0 0 0-.59 0zM31.545 22.532a.295.295 0 1 0 .589 0 .295.295 0 0 0-.59 0zM59.644 19.366H49.98L47.898 24H45.99l7.93-17.346h1.808L63.658 24h-1.933l-2.081-4.634zm-.67-1.487-4.162-9.317-4.163 9.317h8.326zm8.867-4.36c.413-.877 1.024-1.537 1.834-1.983.826-.446 1.841-.67 3.047-.67v1.71l-.42-.024c-1.372 0-2.446.42-3.222 1.264-.777.842-1.165 2.023-1.165 3.543V24h-1.76V10.966h1.686v2.552zm15.488 9.688a3.46 3.46 0 0 1-1.24.694 5.07 5.07 0 0 1-1.51.223c-1.223 0-2.165-.33-2.826-.991-.66-.661-.991-1.595-.991-2.8v-7.88h-2.33v-1.487h2.33v-2.85h1.76v2.85h3.964v1.487h-3.965v7.78c0 .777.19 1.372.57 1.785.397.396.959.594 1.685.594.364 0 .71-.057 1.041-.173.347-.116.644-.281.892-.496l.62 1.264zm3.203-17.594h1.759V24h-1.76V5.613zm11.982 18.51c-1.256 0-2.387-.28-3.395-.842a6.324 6.324 0 0 1-2.379-2.378c-.578-1.008-.867-2.148-.867-3.42 0-1.272.289-2.412.867-3.42a6.145 6.145 0 0 1 2.38-2.354c1.007-.561 2.138-.842 3.394-.842 1.255 0 2.387.28 3.395.842a5.98 5.98 0 0 1 2.354 2.354c.578 1.008.867 2.148.867 3.42 0 1.272-.289 2.412-.867 3.42a6.153 6.153 0 0 1-2.354 2.378c-1.008.562-2.14.843-3.395.843zm0-1.56c.925 0 1.751-.207 2.478-.62a4.466 4.466 0 0 0 1.734-1.809c.413-.776.62-1.66.62-2.651 0-.991-.207-1.875-.62-2.652a4.303 4.303 0 0 0-1.734-1.784c-.727-.43-1.553-.644-2.478-.644-.925 0-1.76.215-2.503.644-.727.413-1.305 1.008-1.734 1.784-.413.777-.62 1.66-.62 2.652 0 .991.207 1.875.62 2.651a4.69 4.69 0 0 0 1.734 1.81c.743.412 1.578.619 2.503.619zm15.536 1.56c-1.256 0-2.387-.28-3.395-.842a6.322 6.322 0 0 1-2.379-2.378c-.578-1.008-.867-2.148-.867-3.42 0-1.272.289-2.412.867-3.42a6.142 6.142 0 0 1 2.379-2.354c1.008-.561 2.139-.842 3.395-.842 1.255 0 2.387.28 3.395.842a5.98 5.98 0 0 1 2.354 2.354c.578 1.008.867 2.148.867 3.42 0 1.272-.289 2.412-.867 3.42a6.153 6.153 0 0 1-2.354 2.378c-1.008.562-2.14.843-3.395.843zm0-1.56c.925 0 1.751-.207 2.478-.62a4.466 4.466 0 0 0 1.734-1.809c.413-.776.62-1.66.62-2.651 0-.991-.207-1.875-.62-2.652a4.303 4.303 0 0 0-1.734-1.784c-.727-.43-1.553-.644-2.478-.644-.925 0-1.76.215-2.503.644-.727.413-1.305 1.008-1.735 1.784-.413.777-.619 1.66-.619 2.652 0 .991.206 1.875.619 2.651a4.692 4.692 0 0 0 1.735 1.81c.743.412 1.578.619 2.503.619zm26.464-11.696c1.635 0 2.915.47 3.84 1.412.942.942 1.413 2.33 1.413 4.163V24h-1.76v-7.384c0-1.355-.33-2.387-.991-3.098-.644-.71-1.561-1.065-2.75-1.065-1.355 0-2.42.42-3.197 1.263-.776.826-1.165 1.975-1.165 3.445V24h-1.759v-7.384c0-1.355-.33-2.387-.991-3.098-.644-.71-1.57-1.065-2.775-1.065-1.339 0-2.404.42-3.197 1.263-.777.826-1.165 1.975-1.165 3.445V24h-1.759V10.966h1.685v2.379a4.699 4.699 0 0 1 1.933-1.834c.826-.43 1.776-.644 2.849-.644 1.091 0 2.032.23 2.825.693.81.463 1.413 1.149 1.809 2.057a5.019 5.019 0 0 1 2.057-2.007c.909-.496 1.941-.743 3.098-.743z" fill="#D9D9D9"/>
</svg>
