<svg width="375" height="359" fill="none" xmlns="http://www.w3.org/2000/svg">
    <g opacity=".3" filter="url(#a)">
        <rect x="93.264" y="92.94" width="189.365" height="173.06" rx="21.837" fill="#0F0941" fill-opacity=".5"/>
    </g>
    <rect x="90" y="86" width="196" height="180" rx="18.887" fill="#fff"/>
    <path d="M125.98 214.24c2.58 0 4.8-1.2 6.08-3.1l-2.38-1.48c-.8 1.18-2.14 1.92-3.7 1.92-2.52 0-4.44-1.92-4.44-4.48 0-2.56 1.92-4.48 4.44-4.48 1.56 0 2.9.74 3.7 1.92l2.38-1.48c-1.28-1.9-3.5-3.1-6.08-3.1-4.14 0-7.28 3.08-7.28 7.14s3.14 7.14 7.28 7.14zm12.456 0c3.12 0 5.48-2.3 5.48-5.34s-2.36-5.34-5.48-5.34c-3.12 0-5.48 2.3-5.48 5.34s2.36 5.34 5.48 5.34zm0-2.52c-1.6 0-2.8-1.22-2.8-2.82 0-1.6 1.2-2.82 2.8-2.82 1.62 0 2.8 1.22 2.8 2.82 0 1.6-1.18 2.82-2.8 2.82zm19.647-8.16c-1.48 0-2.66.58-3.48 1.66-.64-1.04-1.76-1.66-3.2-1.66-1.24 0-2.26.44-3.02 1.3v-1.06h-2.6V214h2.6v-5.82c0-1.26.88-2.1 2.14-2.1 1.22 0 2.02.82 2.02 2.06V214h2.6v-5.82c0-1.26.86-2.1 2.14-2.1 1.22 0 2 .82 2 2.06V214h2.6v-6.64c0-2.3-1.5-3.8-3.8-3.8zm18.418 0c-1.48 0-2.66.58-3.48 1.66-.64-1.04-1.76-1.66-3.2-1.66-1.24 0-2.26.44-3.02 1.3v-1.06h-2.6V214h2.6v-5.82c0-1.26.88-2.1 2.14-2.1 1.22 0 2.02.82 2.02 2.06V214h2.6v-5.82c0-1.26.86-2.1 2.14-2.1 1.22 0 2 .82 2 2.06V214h2.6v-6.64c0-2.3-1.5-3.8-3.8-3.8zm10.718 10.68c2.86 0 4.76-1.7 4.76-4.3v-6.14h-2.6v5.78c0 1.3-.86 2.14-2.16 2.14-1.3 0-2.16-.84-2.16-2.14v-5.78h-2.6v6.14c0 2.6 1.88 4.3 4.76 4.3zm12.92-10.68c-1.32 0-2.44.48-3.24 1.38v-1.14h-2.6V214h2.6v-5.6c0-1.4.96-2.32 2.38-2.32 1.36 0 2.24.9 2.24 2.28V214h2.6v-6.48c0-2.4-1.58-3.96-3.98-3.96zm7.608-1.26c.92 0 1.64-.7 1.64-1.62 0-.92-.72-1.62-1.64-1.62-.92 0-1.64.7-1.64 1.62 0 .92.72 1.62 1.64 1.62zm-1.3 11.7h2.6v-10.2h-2.6V214zm11.358-7.82v-2.38h-2.74v-2.58h-2.6v2.58h-1.62v2.38h1.62v4.66c0 2.04 1.1 3.4 3.44 3.4.76 0 1.34-.14 1.9-.44v-2.42c-.38.18-.82.34-1.34.34-.92 0-1.4-.44-1.4-1.3v-4.24h2.74zm9.18-2.38-2.64 6.94-2.66-6.94h-2.96l4.16 10.04-.42.88c-.26.58-.68.8-1.16.8-.44 0-.92-.2-1.24-.54l-1 2.04c.68.62 1.76 1.02 2.68 1.02 1.34 0 2.54-.86 3.1-2.26l5.04-11.98h-2.9zM125.98 240.24c4.14 0 7.28-3.08 7.28-7.14s-3.14-7.14-7.28-7.14c-4.14 0-7.28 3.08-7.28 7.14s3.14 7.14 7.28 7.14zm0-2.66c-2.52 0-4.44-1.92-4.44-4.48 0-2.56 1.92-4.48 4.44-4.48 2.52 0 4.44 1.92 4.44 4.48 0 2.56-1.92 4.48-4.44 4.48zm14.157-9.84c.52 0 .94.12 1.34.34v-2.28c-.58-.3-1.16-.44-1.92-.44-2.34 0-3.44 1.4-3.44 3.52v.92h-1.6v2.38h1.6V240h2.6v-7.82h2.56v-2.38h-2.56v-.76c0-.86.5-1.3 1.42-1.3zm7.734 0c.52 0 .94.12 1.34.34v-2.28c-.58-.3-1.16-.44-1.92-.44-2.34 0-3.44 1.4-3.44 3.52v.92h-1.6v2.38h1.6V240h2.6v-7.82h2.56v-2.38h-2.56v-.76c0-.86.5-1.3 1.42-1.3zm12.564 7.18c0-3.08-2.3-5.36-5.36-5.36-3.08 0-5.42 2.28-5.42 5.3 0 3.06 2.42 5.38 5.66 5.38 1.92 0 3.56-.78 4.62-2.04l-1.74-1.52c-.54.68-1.56 1.26-2.8 1.26-1.48 0-2.56-.82-2.92-2.1h7.9c.04-.28.06-.64.06-.92zm-5.38-3.08c1.26 0 2.28.82 2.6 2.1h-5.2c.32-1.26 1.32-2.1 2.6-2.1zm12.733-2.2c-1.2 0-2.2.54-2.94 1.48v-1.32h-2.6V240h2.6v-4.84c0-1.74 1.08-2.84 2.94-2.84h.44v-2.68h-.44zm3.26-1.34c.92 0 1.64-.7 1.64-1.62 0-.92-.72-1.62-1.64-1.62-.92 0-1.64.7-1.64 1.62 0 .92.72 1.62 1.64 1.62zm-1.3 11.7h2.6v-10.2h-2.6V240zm10.918-10.44c-1.32 0-2.44.48-3.24 1.38v-1.14h-2.6V240h2.6v-5.6c0-1.4.96-2.32 2.38-2.32 1.36 0 2.24.9 2.24 2.28V240h2.6v-6.48c0-2.4-1.58-3.96-3.98-3.96zM193.454 240h-3.32c-.64 0-1.08-.36-1.08-.86 0-.34.2-.68.52-.88.52.16 1.08.26 1.68.26 2.72 0 4.8-1.92 4.8-4.48 0-1-.32-1.92-.88-2.64.1-.46.52-.74 1.04-.74h.72v-2.4h-.84c-1.34 0-2.32.68-2.62 1.78-.66-.3-1.4-.48-2.22-.48-2.74 0-4.78 1.92-4.78 4.48 0 1.28.5 2.38 1.36 3.18-.84.52-1.38 1.52-1.38 2.56 0 1.62 1.26 2.72 3.16 2.72h3.34c.92 0 1.54.48 1.62 1.22l2.68-.72c-.34-1.88-1.78-3-3.8-3zm-2.2-7.98c1.2 0 2.12.86 2.12 2.02 0 1.16-.92 2.02-2.12 2.02-1.22 0-2.12-.86-2.12-2.02 0-1.16.9-2.02 2.12-2.02zm10.529 8.22c2.44 0 4.36-1.18 4.36-3.34 0-2.32-2.1-2.82-3.72-3.18-1.14-.24-2-.46-2-1.14 0-.6.72-.88 1.6-.88 1.04 0 1.9.38 2.64.94l1.26-1.74c-.92-.72-2.22-1.34-3.96-1.34-2.26 0-4.16 1.06-4.16 3.22 0 2.32 2.1 2.82 3.72 3.18 1.12.26 2 .5 2 1.18 0 .62-.76.96-1.8.96-1.22 0-2.2-.46-2.98-1.14l-1.26 1.72c.98.84 2.4 1.56 4.3 1.56z" fill="#131313"/>
    <circle cx="262" cy="111" r="2" fill="#C4C4C4"/>
    <circle cx="262" cy="120" r="2" fill="#C4C4C4"/>
    <circle cx="262" cy="129" r="2" fill="#C4C4C4"/>
    <circle cx="152" cy="144.5" r="38.5" fill="#182742"/>
    <path d="M126.354 140.626c1.355 0 2.52-.63 3.192-1.628l-1.249-.777c-.42.62-1.124 1.008-1.943 1.008-1.323 0-2.331-1.008-2.331-2.352 0-1.344 1.008-2.352 2.331-2.352.819 0 1.523.389 1.943 1.008l1.249-.777c-.672-.997-1.837-1.627-3.192-1.627-2.173 0-3.822 1.617-3.822 3.748 0 2.132 1.649 3.749 3.822 3.749zm6.539 0c1.638 0 2.877-1.208 2.877-2.804 0-1.596-1.239-2.803-2.877-2.803-1.638 0-2.877 1.207-2.877 2.803 0 1.596 1.239 2.804 2.877 2.804zm0-1.323c-.84 0-1.47-.641-1.47-1.481 0-.84.63-1.48 1.47-1.48.851 0 1.47.64 1.47 1.48s-.619 1.481-1.47 1.481zm10.315-4.284c-.777 0-1.396.304-1.827.871-.336-.546-.924-.871-1.68-.871-.651 0-1.186.231-1.585.682v-.556h-1.365v5.355h1.365v-3.056c0-.661.462-1.102 1.123-1.102.641 0 1.061.43 1.061 1.081v3.077h1.365v-3.056c0-.661.451-1.102 1.123-1.102.641 0 1.05.43 1.05 1.081v3.077h1.365v-3.486c0-1.208-.787-1.995-1.995-1.995zm9.67 0c-.777 0-1.397.304-1.827.871-.336-.546-.924-.871-1.68-.871-.651 0-1.187.231-1.586.682v-.556h-1.365v5.355h1.365v-3.056c0-.661.462-1.102 1.124-1.102.64 0 1.06.43 1.06 1.081v3.077h1.365v-3.056c0-.661.452-1.102 1.124-1.102.64 0 1.05.43 1.05 1.081v3.077h1.365v-3.486c0-1.208-.788-1.995-1.995-1.995zm5.626 5.607c1.502 0 2.499-.893 2.499-2.258v-3.223h-1.365v3.034c0 .683-.451 1.124-1.134 1.124-.682 0-1.134-.441-1.134-1.124v-3.034h-1.365v3.223c0 1.365.987 2.258 2.499 2.258zm6.783-5.607c-.693 0-1.281.252-1.701.724v-.598h-1.365v5.355h1.365v-2.94c0-.735.504-1.218 1.25-1.218.714 0 1.176.472 1.176 1.197v2.961h1.365v-3.402c0-1.26-.83-2.079-2.09-2.079zm3.995-.662a.842.842 0 0 0 .861-.85.843.843 0 0 0-.861-.851.843.843 0 0 0-.861.851c0 .483.378.85.861.85zm-.683 6.143h1.365v-5.355h-1.365v5.355zm5.963-4.106v-1.249h-1.438v-1.355h-1.365v1.355h-.851v1.249h.851v2.447c0 1.071.577 1.785 1.806 1.785.399 0 .703-.073.997-.231v-1.271c-.199.095-.43.179-.703.179-.483 0-.735-.231-.735-.683v-2.226h1.438zm4.82-1.249-1.386 3.643-1.397-3.643h-1.554l2.184 5.271-.22.462c-.137.305-.357.42-.609.42a.927.927 0 0 1-.651-.283l-.525 1.071c.357.325.924.535 1.407.535.703 0 1.333-.451 1.627-1.186l2.646-6.29h-1.522zm-46.901 19.481c2.173 0 3.822-1.617 3.822-3.749 0-2.131-1.649-3.748-3.822-3.748-2.174 0-3.822 1.617-3.822 3.748 0 2.132 1.648 3.749 3.822 3.749zm0-1.397c-1.323 0-2.331-1.008-2.331-2.352 0-1.344 1.008-2.352 2.331-2.352s2.331 1.008 2.331 2.352c0 1.344-1.008 2.352-2.331 2.352zm7.432-5.166c.273 0 .494.063.704.179v-1.197a2.066 2.066 0 0 0-1.008-.231c-1.229 0-1.806.735-1.806 1.848v.483h-.84v1.249h.84v4.106h1.365v-4.106h1.344v-1.249h-1.344v-.399c0-.452.262-.683.745-.683zm4.061 0c.273 0 .493.063.703.179v-1.197a2.064 2.064 0 0 0-1.008-.231c-1.228 0-1.806.735-1.806 1.848v.483h-.84v1.249h.84v4.106h1.365v-4.106h1.344v-1.249h-1.344v-.399c0-.452.263-.683.746-.683zm6.596 3.77c0-1.617-1.208-2.814-2.814-2.814-1.617 0-2.846 1.197-2.846 2.783 0 1.606 1.271 2.824 2.972 2.824 1.008 0 1.869-.41 2.425-1.071l-.913-.798c-.284.357-.819.661-1.47.661-.777 0-1.344-.43-1.533-1.102h4.147c.021-.147.032-.336.032-.483zm-2.825-1.617c.662 0 1.197.43 1.365 1.102h-2.73c.168-.661.693-1.102 1.365-1.102zm6.685-1.155c-.63 0-1.155.283-1.544.777v-.693h-1.365v5.355h1.365v-2.541c0-.914.567-1.491 1.544-1.491h.231v-1.407h-.231zm1.711-.704a.842.842 0 0 0 .861-.85.843.843 0 0 0-.861-.851.843.843 0 0 0-.861.851c0 .483.378.85.861.85zm-.682 6.143h1.365v-5.355h-1.365v5.355zm5.732-5.481c-.693 0-1.281.252-1.701.724v-.598h-1.365v5.355h1.365v-2.94c0-.735.504-1.218 1.249-1.218.714 0 1.176.472 1.176 1.197v2.961h1.365v-3.402c0-1.26-.829-2.079-2.089-2.079zm6.714 5.481h-1.743c-.336 0-.567-.189-.567-.452 0-.178.105-.357.273-.462.273.084.567.137.882.137 1.428 0 2.52-1.008 2.52-2.352 0-.525-.168-1.008-.462-1.386.052-.242.273-.389.546-.389h.378v-1.26h-.441c-.704 0-1.218.357-1.376.935a2.78 2.78 0 0 0-1.165-.252c-1.439 0-2.51 1.008-2.51 2.352 0 .672.263 1.249.714 1.669-.441.273-.724.798-.724 1.344 0 .851.661 1.428 1.659 1.428h1.753c.483 0 .809.253.851.641l1.407-.378c-.179-.987-.935-1.575-1.995-1.575zm-1.155-4.19c.63 0 1.113.452 1.113 1.061s-.483 1.06-1.113 1.06c-.641 0-1.113-.451-1.113-1.06s.472-1.061 1.113-1.061zm5.528 4.316c1.281 0 2.289-.62 2.289-1.754 0-1.218-1.103-1.48-1.953-1.669-.599-.126-1.05-.242-1.05-.599 0-.315.378-.462.84-.462.546 0 .997.2 1.386.494l.661-.914a3.3 3.3 0 0 0-2.079-.703c-1.186 0-2.184.556-2.184 1.69 0 1.218 1.103 1.481 1.953 1.67.588.136 1.05.262 1.05.619 0 .326-.399.504-.945.504-.64 0-1.155-.241-1.564-.598l-.662.903a3.4 3.4 0 0 0 2.258.819z" fill="#D4EEFD"/>
    <defs>
        <filter id="a" x=".927" y=".603" width="374.039" height="357.734" filterUnits="userSpaceOnUse" color-interpolation-filters="sRGB">
            <feFlood flood-opacity="0" result="BackgroundImageFix"/>
            <feBlend in="SourceGraphic" in2="BackgroundImageFix" result="shape"/>
            <feGaussianBlur stdDeviation="46.169" result="effect1_foregroundBlur"/>
        </filter>
    </defs>
</svg>
