<svg width="819" height="354" fill="none" xmlns="http://www.w3.org/2000/svg">
    <g opacity=".3" filter="url(#a)">
        <rect x="92.907" y="92.63" width="632.826" height="168.253" rx="21.837" fill="#0F0941" fill-opacity=".5"/>
    </g>
    <rect x="82" y="85.883" width="655" height="175" rx="18.887" fill="#fff"/>
    <circle cx="699" cy="114.883" r="2" fill="#C4C4C4"/>
    <circle cx="699" cy="123.883" r="2" fill="#C4C4C4"/>
    <circle cx="699" cy="132.883" r="2" fill="#C4C4C4"/>
    <path d="M289.98 141.883h3.32l-3.44-5.14c1.84-.58 3.1-2.16 3.1-4.14 0-2.58-2.02-4.52-4.68-4.52h-5.88v13.8h2.76v-4.92h1.64l3.18 4.92zm-4.82-11.2h3.06c1.08 0 1.9.84 1.9 1.94s-.82 1.94-1.9 1.94h-3.06v-3.88zm17.202 1v1.22c-.82-.9-1.96-1.46-3.32-1.46-2.84 0-4.98 2.3-4.98 5.34s2.14 5.34 4.98 5.34c1.36 0 2.5-.56 3.32-1.46v1.22h2.6v-10.2h-2.6zm-2.82 7.92c-1.6 0-2.8-1.22-2.8-2.82 0-1.6 1.2-2.82 2.8-2.82 1.62 0 2.82 1.22 2.82 2.82 0 1.6-1.2 2.82-2.82 2.82zm9.193-9.42c.92 0 1.64-.7 1.64-1.62 0-.92-.72-1.62-1.64-1.62-.92 0-1.64.7-1.64 1.62 0 .92.72 1.62 1.64 1.62zm-1.3 11.7h2.6v-10.2h-2.6v10.2zm8.598.24c2.44 0 4.36-1.18 4.36-3.34 0-2.32-2.1-2.82-3.72-3.18-1.14-.24-2-.46-2-1.14 0-.6.72-.88 1.6-.88 1.04 0 1.9.38 2.64.94l1.26-1.74c-.92-.72-2.22-1.34-3.96-1.34-2.26 0-4.16 1.06-4.16 3.22 0 2.32 2.1 2.82 3.72 3.18 1.12.26 2 .5 2 1.18 0 .62-.76.96-1.8.96-1.22 0-2.2-.46-2.98-1.14l-1.26 1.72c.98.84 2.4 1.56 4.3 1.56zm7.409-11.94c.92 0 1.64-.7 1.64-1.62 0-.92-.72-1.62-1.64-1.62-.92 0-1.64.7-1.64 1.62 0 .92.72 1.62 1.64 1.62zm-1.3 11.7h2.6v-10.2h-2.6v10.2zm10.918-10.44c-1.32 0-2.44.48-3.24 1.38v-1.14h-2.6v10.2h2.6v-5.6c0-1.4.96-2.32 2.38-2.32 1.36 0 2.24.9 2.24 2.28v5.64h2.6v-6.48c0-2.4-1.58-3.96-3.98-3.96zm12.789 10.44h-3.32c-.64 0-1.08-.36-1.08-.86 0-.34.2-.68.52-.88.52.16 1.08.26 1.68.26 2.72 0 4.8-1.92 4.8-4.48 0-1-.32-1.92-.88-2.64.1-.46.52-.74 1.04-.74h.72v-2.4h-.84c-1.34 0-2.32.68-2.62 1.78-.66-.3-1.4-.48-2.22-.48-2.74 0-4.78 1.92-4.78 4.48 0 1.28.5 2.38 1.36 3.18-.84.52-1.38 1.52-1.38 2.56 0 1.62 1.26 2.72 3.16 2.72h3.34c.92 0 1.54.48 1.62 1.22l2.68-.72c-.34-1.88-1.78-3-3.8-3zm-2.2-7.98c1.2 0 2.12.86 2.12 2.02 0 1.16-.92 2.02-2.12 2.02-1.22 0-2.12-.86-2.12-2.02 0-1.16.9-2.02 2.12-2.02zm14.749 7.98h3.32l-3.44-5.14c1.84-.58 3.1-2.16 3.1-4.14 0-2.58-2.02-4.52-4.68-4.52h-5.88v13.8h2.76v-4.92h1.64l3.18 4.92zm-4.82-11.2h3.06c1.08 0 1.9.84 1.9 1.94s-.82 1.94-1.9 1.94h-3.06v-3.88zm11.036-.5c.92 0 1.64-.7 1.64-1.62 0-.92-.72-1.62-1.64-1.62-.92 0-1.64.7-1.64 1.62 0 .92.72 1.62 1.64 1.62zm-1.3 11.7h2.6v-10.2h-2.6v10.2zm11.558 0h-3.32c-.64 0-1.08-.36-1.08-.86 0-.34.2-.68.52-.88.52.16 1.08.26 1.68.26 2.72 0 4.8-1.92 4.8-4.48 0-1-.32-1.92-.88-2.64.1-.46.52-.74 1.04-.74h.72v-2.4h-.84c-1.34 0-2.32.68-2.62 1.78-.66-.3-1.4-.48-2.22-.48-2.74 0-4.78 1.92-4.78 4.48 0 1.28.5 2.38 1.36 3.18-.84.52-1.38 1.52-1.38 2.56 0 1.62 1.26 2.72 3.16 2.72h3.34c.92 0 1.54.48 1.62 1.22l2.68-.72c-.34-1.88-1.78-3-3.8-3zm-2.2-7.98c1.2 0 2.12.86 2.12 2.02 0 1.16-.92 2.02-2.12 2.02-1.22 0-2.12-.86-2.12-2.02 0-1.16.9-2.02 2.12-2.02zm12.849-2.46c-1.32 0-2.44.5-3.24 1.44v-5.4h-2.6v14.4h2.6v-5.6c0-1.4.96-2.32 2.4-2.32 1.34 0 2.22.9 2.22 2.28v5.64h2.6v-6.48c0-2.4-1.58-3.96-3.98-3.96zm12.14 2.62v-2.38h-2.74v-2.58h-2.6v2.58h-1.62v2.38h1.62v4.66c0 2.04 1.1 3.4 3.44 3.4.76 0 1.34-.14 1.9-.44v-2.42c-.38.18-.82.34-1.34.34-.92 0-1.4-.44-1.4-1.3v-4.24h2.74zm3.616 1.48c1.02 0 1.8-.78 1.8-1.8s-.78-1.8-1.8-1.8c-1.04 0-1.82.78-1.82 1.8s.78 1.8 1.82 1.8zm0 6.52c1.02 0 1.8-.78 1.8-1.8s-.78-1.8-1.8-1.8c-1.04 0-1.82.78-1.82 1.8s.78 1.8 1.82 1.8zm17.564-11.38v-2.6h-8.98v13.8h2.76v-5.5h5.42v-2.6h-5.42v-3.1h6.22zm7.162.84c-1.2 0-2.2.54-2.94 1.48v-1.32h-2.6v10.2h2.6v-4.84c0-1.74 1.08-2.84 2.94-2.84h.44v-2.68h-.44zm6.585 10.6c3.12 0 5.48-2.3 5.48-5.34s-2.36-5.34-5.48-5.34c-3.12 0-5.48 2.3-5.48 5.34s2.36 5.34 5.48 5.34zm0-2.52c-1.6 0-2.8-1.22-2.8-2.82 0-1.6 1.2-2.82 2.8-2.82 1.62 0 2.8 1.22 2.8 2.82 0 1.6-1.18 2.82-2.8 2.82zm19.647-8.16c-1.48 0-2.66.58-3.48 1.66-.64-1.04-1.76-1.66-3.2-1.66-1.24 0-2.26.44-3.02 1.3v-1.06h-2.6v10.2h2.6v-5.82c0-1.26.88-2.1 2.14-2.1 1.22 0 2.02.82 2.02 2.06v5.86h2.6v-5.82c0-1.26.86-2.1 2.14-2.1 1.22 0 2 .82 2 2.06v5.86h2.6v-6.64c0-2.3-1.5-3.8-3.8-3.8zm13.929 7.84 6.92-9.22v-1.98h-10.62v2.6h6.84l-6.92 9.22v1.98h10.84v-2.6h-7.06zm18.873-2.48c0-3.08-2.3-5.36-5.36-5.36-3.08 0-5.42 2.28-5.42 5.3 0 3.06 2.42 5.38 5.66 5.38 1.92 0 3.56-.78 4.62-2.04l-1.74-1.52c-.54.68-1.56 1.26-2.8 1.26-1.48 0-2.56-.82-2.92-2.1h7.9c.04-.28.06-.64.06-.92zm-5.38-3.08c1.26 0 2.28.82 2.6 2.1h-5.2c.32-1.26 1.32-2.1 2.6-2.1zm12.732-2.2c-1.2 0-2.2.54-2.94 1.48v-1.32h-2.6v10.2h2.6v-4.84c0-1.74 1.08-2.84 2.94-2.84h.44v-2.68h-.44zm6.586 10.6c3.12 0 5.48-2.3 5.48-5.34s-2.36-5.34-5.48-5.34c-3.12 0-5.48 2.3-5.48 5.34s2.36 5.34 5.48 5.34zm0-2.52c-1.6 0-2.8-1.22-2.8-2.82 0-1.6 1.2-2.82 2.8-2.82 1.62 0 2.8 1.22 2.8 2.82 0 1.6-1.18 2.82-2.8 2.82zm18.178-5.54v-2.38h-2.74v-2.58h-2.6v2.58h-1.62v2.38h1.62v4.66c0 2.04 1.1 3.4 3.44 3.4.76 0 1.34-.14 1.9-.44v-2.42c-.38.18-.82.34-1.34.34-.92 0-1.4-.44-1.4-1.3v-4.24h2.74zm6.49 8.06c3.12 0 5.48-2.3 5.48-5.34s-2.36-5.34-5.48-5.34c-3.12 0-5.48 2.3-5.48 5.34s2.36 5.34 5.48 5.34zm0-2.52c-1.6 0-2.8-1.22-2.8-2.82 0-1.6 1.2-2.82 2.8-2.82 1.62 0 2.8 1.22 2.8 2.82 0 1.6-1.18 2.82-2.8 2.82zm21.038-8.92v-2.6h-8.98v13.8h2.76v-5.5h5.42v-2.6h-5.42v-3.1h6.22zm6.085 11.44c2.86 0 4.76-1.7 4.76-4.3v-6.14h-2.6v5.78c0 1.3-.86 2.14-2.16 2.14-1.3 0-2.16-.84-2.16-2.14v-5.78h-2.6v6.14c0 2.6 1.88 4.3 4.76 4.3zm12.919-10.68c-1.32 0-2.44.48-3.24 1.38v-1.14h-2.6v10.2h2.6v-5.6c0-1.4.96-2.32 2.38-2.32 1.36 0 2.24.9 2.24 2.28v5.64h2.6v-6.48c0-2.4-1.58-3.96-3.98-3.96zm14.029-3.96v5.42c-.82-.9-1.96-1.46-3.32-1.46-2.84 0-4.98 2.3-4.98 5.34s2.14 5.34 4.98 5.34c1.36 0 2.5-.56 3.32-1.46v1.22h2.6v-14.4h-2.6zm-2.82 12.12c-1.6 0-2.8-1.22-2.8-2.82 0-1.6 1.2-2.82 2.8-2.82 1.62 0 2.82 1.22 2.82 2.82 0 1.6-1.2 2.82-2.82 2.82zm18.053-2.8c0-3.08-2.3-5.36-5.36-5.36-3.08 0-5.42 2.28-5.42 5.3 0 3.06 2.42 5.38 5.66 5.38 1.92 0 3.56-.78 4.62-2.04l-1.74-1.52c-.54.68-1.56 1.26-2.8 1.26-1.48 0-2.56-.82-2.92-2.1h7.9c.04-.28.06-.64.06-.92zm-5.38-3.08c1.26 0 2.28.82 2.6 2.1h-5.2c.32-1.26 1.32-2.1 2.6-2.1zm14.913-6.24v5.42c-.82-.9-1.96-1.46-3.32-1.46-2.84 0-4.98 2.3-4.98 5.34s2.14 5.34 4.98 5.34c1.36 0 2.5-.56 3.32-1.46v1.22h2.6v-14.4h-2.6zm-2.82 12.12c-1.6 0-2.8-1.22-2.8-2.82 0-1.6 1.2-2.82 2.8-2.82 1.62 0 2.82 1.22 2.82 2.82 0 1.6-1.2 2.82-2.82 2.82z" fill="#131313"/>
    <path d="m283.076 221.851 2.568-2.748c.6-.648 1.08-1.344 1.08-2.28 0-1.38-1.068-2.364-2.58-2.364a3.17 3.17 0 0 0-2.724 1.524l.768.696c.456-.684 1.116-1.128 1.896-1.128.864 0 1.512.54 1.512 1.332 0 .612-.42 1.164-.912 1.704l-3.144 3.42v.876h5.376v-1.032h-3.84zm9.042-3.336c.792-.336 1.296-1.032 1.296-1.872 0-1.26-1.14-2.184-2.748-2.184-1.02 0-2.028.396-2.652 1.08l.6.78c.444-.504 1.176-.804 1.92-.804 1.032 0 1.752.552 1.752 1.284 0 .72-.684 1.26-1.608 1.26h-1.248v.948h1.248c1.056 0 1.836.636 1.836 1.488s-.804 1.476-1.932 1.476c-.852 0-1.68-.336-2.232-.936l-.648.816c.72.744 1.824 1.176 2.952 1.176 1.752 0 2.988-.996 2.988-2.388 0-.972-.6-1.764-1.524-2.124zm2.254-3.912v1.032h4.092l-3.42 7.248h1.236l3.492-7.428v-.852h-5.4zm16.781 0-2.844 4.92-2.832-4.92h-1.392v8.28h1.104v-6.612l2.808 4.872h.612l2.808-4.872v6.612h1.092v-8.28h-1.356zm9.219 5.22c0-1.836-1.368-3.204-3.192-3.204-1.836 0-3.216 1.368-3.216 3.18 0 1.836 1.428 3.228 3.348 3.228 1.188 0 2.196-.516 2.808-1.332l-.708-.612c-.396.564-1.164.996-2.064.996-1.188 0-2.064-.732-2.268-1.8h5.268c.012-.144.024-.312.024-.456zm-3.204-2.256c1.08 0 1.92.72 2.112 1.776h-4.212c.192-1.044 1.032-1.776 2.1-1.776zm11.836-.948c-.984 0-1.764.432-2.22 1.2-.36-.756-1.092-1.2-2.052-1.2-.864 0-1.56.348-2.004.972v-.828h-1.032v6.12h1.032v-3.636c0-.984.672-1.632 1.668-1.632.972 0 1.596.636 1.596 1.608v3.66h1.032v-3.636c0-.984.672-1.632 1.668-1.632.972 0 1.596.636 1.596 1.608v3.66h1.032v-3.948c0-1.404-.912-2.316-2.316-2.316zm7.385 0c-1.02 0-1.86.48-2.376 1.248v-3.624h-1.032v8.64h1.032v-1.104c.516.768 1.356 1.248 2.376 1.248 1.752 0 3.072-1.38 3.072-3.204 0-1.824-1.32-3.204-3.072-3.204zm-.192 5.412c-1.248 0-2.184-.948-2.184-2.208 0-1.26.936-2.208 2.184-2.208 1.26 0 2.196.948 2.196 2.208 0 1.26-.936 2.208-2.196 2.208zm10.648-2.208c0-1.836-1.368-3.204-3.192-3.204-1.836 0-3.216 1.368-3.216 3.18 0 1.836 1.428 3.228 3.348 3.228 1.188 0 2.196-.516 2.808-1.332l-.708-.612c-.396.564-1.164.996-2.064.996-1.188 0-2.064-.732-2.268-1.8h5.268c.012-.144.024-.312.024-.456zm-3.204-2.256c1.08 0 1.92.72 2.112 1.776h-4.212c.192-1.044 1.032-1.776 2.1-1.776zm7.648-.9c-.912 0-1.632.42-2.088 1.152v-1.056h-1.032v6.12h1.032v-3.06c0-1.272.792-2.088 2.088-2.088h.204v-1.068h-.204zm3.267 6.36c1.38 0 2.472-.684 2.472-1.896 0-1.272-1.176-1.572-2.184-1.812-.816-.192-1.512-.36-1.512-.96 0-.528.588-.804 1.296-.804.672 0 1.248.264 1.656.66l.576-.756c-.516-.468-1.272-.84-2.244-.84-1.26 0-2.34.612-2.34 1.8 0 1.284 1.188 1.596 2.196 1.848.804.192 1.488.372 1.488.96 0 .552-.612.864-1.416.864-.792 0-1.44-.3-1.896-.768l-.576.744c.564.54 1.404.96 2.484.96zm10.039 2.136h.948v-11.28h-.948v11.28zm10.18-3.312v-7.248h-1.104v8.28h5.124v-1.032h-4.02zm9.981-5.088v1.104c-.516-.768-1.356-1.248-2.376-1.248-1.752 0-3.06 1.38-3.06 3.204 0 1.824 1.308 3.204 3.06 3.204 1.02 0 1.86-.48 2.376-1.248v1.104h1.032v-6.12h-1.032zm-2.184 5.268c-1.26 0-2.196-.948-2.196-2.208 0-1.26.936-2.208 2.196-2.208 1.248 0 2.184.948 2.184 2.208 0 1.26-.936 2.208-2.184 2.208zm6.976.996c1.38 0 2.472-.684 2.472-1.896 0-1.272-1.176-1.572-2.184-1.812-.816-.192-1.512-.36-1.512-.96 0-.528.588-.804 1.296-.804.672 0 1.248.264 1.656.66l.576-.756c-.516-.468-1.272-.84-2.244-.84-1.26 0-2.34.612-2.34 1.8 0 1.284 1.188 1.596 2.196 1.848.804.192 1.488.372 1.488.96 0 .552-.612.864-1.416.864-.792 0-1.44-.3-1.896-.768l-.576.744c.564.54 1.404.96 2.484.96zm7.126-5.328v-.936h-1.836v-1.644h-1.032v1.644h-1.104v.936h1.104v3.552c0 1.128.612 1.776 1.8 1.776.432 0 .756-.084 1.068-.252v-.972a1.763 1.763 0 0 1-.852.228c-.624 0-.984-.288-.984-.948v-3.384h1.836zm10.504 5.184h1.212l-3.372-8.28h-1.308l-3.372 8.28h1.176l.804-2.004h4.056l.804 2.004zm-4.452-3.024 1.62-4.068 1.62 4.068h-3.24zm9.483 3.168c1.212 0 2.244-.6 2.796-1.536l-.9-.54a2.159 2.159 0 0 1-1.896 1.08c-1.26 0-2.196-.948-2.196-2.208 0-1.26.936-2.208 2.196-2.208.828 0 1.524.432 1.896 1.08l.9-.54c-.552-.936-1.584-1.536-2.796-1.536-1.86 0-3.264 1.38-3.264 3.204 0 1.824 1.404 3.204 3.264 3.204zm7.504-5.328v-.936h-1.836v-1.644h-1.032v1.644h-1.104v.936h1.104v3.552c0 1.128.612 1.776 1.8 1.776.432 0 .756-.084 1.068-.252v-.972a1.763 1.763 0 0 1-.852.228c-.624 0-.984-.288-.984-.948v-3.384h1.836zm1.839-2.16c.384 0 .684-.3.684-.684 0-.396-.3-.684-.684-.684-.396 0-.696.288-.696.684 0 .384.3.684.696.684zm-.516 7.344h1.032v-6.12h-1.032v6.12zm7.386-6.12-2.064 4.884-2.064-4.884h-1.188l2.688 6.12h1.092l2.688-6.12h-1.152zm7.861 3.06c0-1.836-1.368-3.204-3.192-3.204-1.836 0-3.216 1.368-3.216 3.18 0 1.836 1.428 3.228 3.348 3.228 1.188 0 2.196-.516 2.808-1.332l-.708-.612c-.396.564-1.164.996-2.064.996-1.188 0-2.064-.732-2.268-1.8h5.268c.012-.144.024-.312.024-.456zm-3.204-2.256c1.08 0 1.92.72 2.112 1.776h-4.212c.192-1.044 1.032-1.776 2.1-1.776zm9.292-2.964-2.448 1.344.468.876 1.656-.9v6.96h1.092v-8.28h-.768zm10.729-.36v3.624c-.516-.768-1.356-1.248-2.376-1.248-1.752 0-3.06 1.38-3.06 3.204 0 1.824 1.308 3.204 3.06 3.204 1.02 0 1.86-.48 2.376-1.248v1.104h1.032v-8.64H453.1zm-2.184 7.788c-1.26 0-2.196-.948-2.196-2.208 0-1.26.936-2.208 2.196-2.208 1.248 0 2.184.948 2.184 2.208 0 1.26-.936 2.208-2.184 2.208zm10.036-5.268v1.104c-.516-.768-1.356-1.248-2.376-1.248-1.752 0-3.06 1.38-3.06 3.204 0 1.824 1.308 3.204 3.06 3.204 1.02 0 1.86-.48 2.376-1.248v1.104h1.032v-6.12h-1.032zm-2.184 5.268c-1.26 0-2.196-.948-2.196-2.208 0-1.26.936-2.208 2.196-2.208 1.248 0 2.184.948 2.184 2.208 0 1.26-.936 2.208-2.184 2.208zm9.579-5.268-2.064 4.884-2.064-4.884h-1.188l2.664 6.084-.444.912c-.192.396-.468.552-.78.552s-.612-.156-.816-.384l-.432.792c.36.36.924.588 1.404.588.66 0 1.26-.408 1.572-1.128l3.3-7.416h-1.152zm10.23 0v1.104c-.516-.768-1.356-1.248-2.376-1.248-1.752 0-3.06 1.38-3.06 3.204 0 1.824 1.308 3.204 3.06 3.204 1.02 0 1.86-.48 2.376-1.248v1.104h1.032v-6.12h-1.032zm-2.184 5.268c-1.26 0-2.196-.948-2.196-2.208 0-1.26.936-2.208 2.196-2.208 1.248 0 2.184.948 2.184 2.208 0 1.26-.936 2.208-2.184 2.208zm8.823 1.008h-2.244c-.516 0-.864-.276-.864-.708 0-.264.144-.528.384-.684.384.192.816.288 1.296.288 1.584 0 2.796-1.152 2.796-2.664 0-.648-.216-1.224-.6-1.68.012-.408.312-.672.756-.672h.408v-.96h-.468c-.744 0-1.272.408-1.392 1.056a2.942 2.942 0 0 0-1.5-.396c-1.596 0-2.796 1.14-2.796 2.652 0 .78.324 1.464.84 1.944-.468.264-.756.804-.756 1.38 0 .864.684 1.452 1.704 1.452h2.256c.696 0 1.176.36 1.2.912l1.068-.276c-.12-1.02-.936-1.644-2.088-1.644zm-1.428-5.436c.984 0 1.728.72 1.728 1.668 0 .96-.744 1.68-1.728 1.68s-1.728-.72-1.728-1.68c0-.948.732-1.668 1.728-1.668zm7.124 5.424c1.848 0 3.252-1.38 3.252-3.204 0-1.824-1.404-3.204-3.252-3.204-1.86 0-3.264 1.38-3.264 3.204 0 1.824 1.404 3.204 3.264 3.204zm0-.996c-1.26 0-2.196-.948-2.196-2.208 0-1.26.936-2.208 2.196-2.208 1.248 0 2.184.948 2.184 2.208 0 1.26-.936 2.208-2.184 2.208z" fill="#B1B1B1"/>
    <path d="M283.768 173.507v-9.664h-1.472v11.04h6.832v-1.376h-5.36zm14.572-2.704c0-2.448-1.824-4.272-4.256-4.272-2.448 0-4.288 1.824-4.288 4.24 0 2.448 1.904 4.304 4.464 4.304 1.584 0 2.928-.688 3.744-1.776l-.944-.816c-.528.752-1.552 1.328-2.752 1.328-1.584 0-2.752-.976-3.024-2.4h7.024c.016-.192.032-.416.032-.608zm-4.272-3.008c1.44 0 2.56.96 2.816 2.368h-5.616c.256-1.392 1.376-2.368 2.8-2.368zm12.79-1.072v1.472c-.688-1.024-1.808-1.664-3.168-1.664-2.336 0-4.08 1.84-4.08 4.272 0 2.432 1.744 4.272 4.08 4.272 1.36 0 2.48-.64 3.168-1.664v1.472h1.376v-8.16h-1.376zm-2.912 7.024c-1.68 0-2.928-1.264-2.928-2.944s1.248-2.944 2.928-2.944c1.664 0 2.912 1.264 2.912 2.944s-1.248 2.944-2.912 2.944zm10.788-7.152c-1.216 0-2.176.56-2.784 1.536v-1.408h-1.376v8.16h1.376v-4.08c0-1.696 1.056-2.784 2.784-2.784h.272v-1.424h-.272zm6.082-.064c-1.28 0-2.304.512-2.944 1.44v-1.248h-1.376v8.16h1.376v-4.576c0-1.472.992-2.448 2.496-2.448 1.456 0 2.384.96 2.384 2.416v4.608h1.376v-5.04c0-2-1.328-3.312-3.312-3.312zm14.197 1.44v-1.248h-2.448v-2.192h-1.376v2.192h-1.472v1.248h1.472v4.736c0 1.504.816 2.368 2.4 2.368.576 0 1.008-.112 1.424-.336v-1.296c-.336.176-.688.304-1.136.304-.832 0-1.312-.384-1.312-1.264v-4.512h2.448zm6.084-1.44c-1.28 0-2.304.528-2.944 1.488v-4.656h-1.376v11.52h1.376v-4.576c0-1.472.992-2.448 2.496-2.448 1.456 0 2.384.96 2.384 2.416v4.608h1.376v-5.04c0-2-1.328-3.312-3.312-3.312zm13.556 4.272c0-2.448-1.824-4.272-4.256-4.272-2.448 0-4.288 1.824-4.288 4.24 0 2.448 1.904 4.304 4.464 4.304 1.584 0 2.928-.688 3.744-1.776l-.944-.816c-.528.752-1.552 1.328-2.752 1.328-1.584 0-2.752-.976-3.024-2.4h7.024c.016-.192.032-.416.032-.608zm-4.272-3.008c1.44 0 2.56.96 2.816 2.368h-5.616c.256-1.392 1.376-2.368 2.8-2.368zm14.534-1.264c-1.36 0-2.48.64-3.168 1.664v-1.472h-1.376v11.2h1.376v-4.512c.688 1.024 1.808 1.664 3.168 1.664 2.336 0 4.096-1.84 4.096-4.272 0-2.432-1.76-4.272-4.096-4.272zm-.256 7.216c-1.664 0-2.912-1.264-2.912-2.944s1.248-2.944 2.912-2.944c1.68 0 2.928 1.264 2.928 2.944s-1.248 2.944-2.928 2.944zM375 166.595c-1.216 0-2.176.56-2.784 1.536v-1.408h-1.376v8.16h1.376v-4.08c0-1.696 1.056-2.784 2.784-2.784h.272v-1.424H375zm5.211 8.48c2.464 0 4.336-1.84 4.336-4.272 0-2.432-1.872-4.272-4.336-4.272-2.48 0-4.352 1.84-4.352 4.272 0 2.432 1.872 4.272 4.352 4.272zm0-1.328c-1.68 0-2.928-1.264-2.928-2.944s1.248-2.944 2.928-2.944c1.664 0 2.912 1.264 2.912 2.944s-1.248 2.944-2.912 2.944zm9.969 1.328c1.616 0 2.992-.8 3.728-2.048l-1.2-.72a2.878 2.878 0 0 1-2.528 1.44c-1.68 0-2.928-1.264-2.928-2.944s1.248-2.944 2.928-2.944c1.104 0 2.032.576 2.528 1.44l1.2-.72c-.736-1.248-2.112-2.048-3.728-2.048-2.48 0-4.352 1.84-4.352 4.272 0 2.432 1.872 4.272 4.352 4.272zm13.332-4.272c0-2.448-1.824-4.272-4.256-4.272-2.448 0-4.288 1.824-4.288 4.24 0 2.448 1.904 4.304 4.464 4.304 1.584 0 2.928-.688 3.744-1.776l-.944-.816c-.528.752-1.552 1.328-2.752 1.328-1.584 0-2.752-.976-3.024-2.4h7.024c.016-.192.032-.416.032-.608zm-4.272-3.008c1.44 0 2.56.96 2.816 2.368h-5.616c.256-1.392 1.376-2.368 2.8-2.368zm8.709 7.28c1.84 0 3.296-.912 3.296-2.528 0-1.696-1.568-2.096-2.912-2.416-1.088-.256-2.016-.48-2.016-1.28 0-.704.784-1.072 1.728-1.072.896 0 1.664.352 2.208.88l.768-1.008c-.688-.624-1.696-1.12-2.992-1.12-1.68 0-3.12.816-3.12 2.4 0 1.712 1.584 2.128 2.928 2.464 1.072.256 1.984.496 1.984 1.28 0 .736-.816 1.152-1.888 1.152-1.056 0-1.92-.4-2.528-1.024l-.768.992c.752.72 1.872 1.28 3.312 1.28zm7.688 0c1.84 0 3.296-.912 3.296-2.528 0-1.696-1.568-2.096-2.912-2.416-1.088-.256-2.016-.48-2.016-1.28 0-.704.784-1.072 1.728-1.072.896 0 1.664.352 2.208.88l.768-1.008c-.688-.624-1.696-1.12-2.992-1.12-1.68 0-3.12.816-3.12 2.4 0 1.712 1.584 2.128 2.928 2.464 1.072.256 1.984.496 1.984 1.28 0 .736-.816 1.152-1.888 1.152-1.056 0-1.92-.4-2.528-1.024l-.768.992c.752.72 1.872 1.28 3.312 1.28zm12.808 0c2.464 0 4.336-1.84 4.336-4.272 0-2.432-1.872-4.272-4.336-4.272-2.48 0-4.352 1.84-4.352 4.272 0 2.432 1.872 4.272 4.352 4.272zm0-1.328c-1.68 0-2.928-1.264-2.928-2.944s1.248-2.944 2.928-2.944c1.664 0 2.912 1.264 2.912 2.944s-1.248 2.944-2.912 2.944zm9.228-9.312c.448 0 .784.112 1.12.288v-1.216a2.82 2.82 0 0 0-1.408-.336c-1.584 0-2.4.88-2.4 2.416v1.136h-1.488v1.248h1.488v6.912h1.376v-6.912h2.352v-1.248h-2.352v-1.04c0-.88.48-1.248 1.312-1.248zm10.671 2.16c-1.216 0-2.176.56-2.784 1.536v-1.408h-1.376v8.16h1.376v-4.08c0-1.696 1.056-2.784 2.784-2.784h.272v-1.424h-.272zm8.139.128v1.472c-.688-1.024-1.808-1.664-3.168-1.664-2.336 0-4.08 1.84-4.08 4.272 0 2.432 1.744 4.272 4.08 4.272 1.36 0 2.48-.64 3.168-1.664v1.472h1.376v-8.16h-1.376zm-2.912 7.024c-1.68 0-2.928-1.264-2.928-2.944s1.248-2.944 2.928-2.944c1.664 0 2.912 1.264 2.912 2.944s-1.248 2.944-2.912 2.944zm7.316-8.656c.512 0 .912-.4.912-.912 0-.528-.4-.912-.912-.912-.528 0-.928.384-.928.912 0 .512.4.912.928.912zm-.688 9.792h1.376v-8.16h-1.376v8.16zm6.375.192c1.84 0 3.296-.912 3.296-2.528 0-1.696-1.568-2.096-2.912-2.416-1.088-.256-2.016-.48-2.016-1.28 0-.704.784-1.072 1.728-1.072.896 0 1.664.352 2.208.88l.768-1.008c-.688-.624-1.696-1.12-2.992-1.12-1.68 0-3.12.816-3.12 2.4 0 1.712 1.584 2.128 2.928 2.464 1.072.256 1.984.496 1.984 1.28 0 .736-.816 1.152-1.888 1.152-1.056 0-1.92-.4-2.528-1.024l-.768.992c.752.72 1.872 1.28 3.312 1.28zm5.72-9.984c.512 0 .912-.4.912-.912 0-.528-.4-.912-.912-.912-.528 0-.928.384-.928.912 0 .512.4.912.928.912zm-.688 9.792h1.376v-8.16h-1.376v8.16zm8.023-8.352c-1.28 0-2.304.512-2.944 1.44v-1.248h-1.376v8.16h1.376v-4.576c0-1.472.992-2.448 2.496-2.448 1.456 0 2.384.96 2.384 2.416v4.608h1.376v-5.04c0-2-1.328-3.312-3.312-3.312zm10.675 8.56h-2.992c-.688 0-1.152-.368-1.152-.944 0-.352.192-.704.512-.912.512.256 1.088.384 1.728.384 2.112 0 3.728-1.536 3.728-3.552 0-.864-.288-1.632-.8-2.24.016-.544.416-.896 1.008-.896h.544v-1.28h-.624c-.992 0-1.696.544-1.856 1.408a3.923 3.923 0 0 0-2-.528c-2.128 0-3.728 1.52-3.728 3.536a3.51 3.51 0 0 0 1.12 2.592c-.624.352-1.008 1.072-1.008 1.84 0 1.152.912 1.936 2.272 1.936h3.008c.928 0 1.568.48 1.6 1.216l1.424-.368c-.16-1.36-1.248-2.192-2.784-2.192zm-1.904-7.248c1.312 0 2.304.96 2.304 2.224 0 1.28-.992 2.24-2.304 2.24-1.312 0-2.304-.96-2.304-2.24 0-1.264.976-2.224 2.304-2.224zm13.258-3.408c.448 0 .784.112 1.12.288v-1.216a2.82 2.82 0 0 0-1.408-.336c-1.584 0-2.4.88-2.4 2.416v1.136h-1.488v1.248h1.488v6.912h1.376v-6.912h2.352v-1.248h-2.352v-1.04c0-.88.48-1.248 1.312-1.248zm6.187 10.64c2.224 0 3.696-1.36 3.696-3.424v-4.928h-1.376v4.736c0 1.376-.928 2.288-2.32 2.288s-2.32-.912-2.32-2.288v-4.736h-1.376v4.928c0 2.064 1.472 3.424 3.696 3.424zm10.221-8.544c-1.28 0-2.304.512-2.944 1.44v-1.248h-1.376v8.16h1.376v-4.576c0-1.472.992-2.448 2.496-2.448 1.456 0 2.384.96 2.384 2.416v4.608h1.376v-5.04c0-2-1.328-3.312-3.312-3.312zm12.292-3.168v4.832c-.688-1.024-1.808-1.664-3.168-1.664-2.336 0-4.08 1.84-4.08 4.272 0 2.432 1.744 4.272 4.08 4.272 1.36 0 2.48-.64 3.168-1.664v1.472h1.376v-11.52h-1.376zm-2.912 10.384c-1.68 0-2.928-1.264-2.928-2.944s1.248-2.944 2.928-2.944c1.664 0 2.912 1.264 2.912 2.944s-1.248 2.944-2.912 2.944zm9.3 1.328c1.84 0 3.296-.912 3.296-2.528 0-1.696-1.568-2.096-2.912-2.416-1.088-.256-2.016-.48-2.016-1.28 0-.704.784-1.072 1.728-1.072.896 0 1.664.352 2.208.88l.768-1.008c-.688-.624-1.696-1.12-2.992-1.12-1.68 0-3.12.816-3.12 2.4 0 1.712 1.584 2.128 2.928 2.464 1.072.256 1.984.496 1.984 1.28 0 .736-.816 1.152-1.888 1.152-1.056 0-1.92-.4-2.528-1.024l-.768.992c.752.72 1.872 1.28 3.312 1.28zm12.537-10.64c.448 0 .784.112 1.12.288v-1.216a2.82 2.82 0 0 0-1.408-.336c-1.584 0-2.4.88-2.4 2.416v1.136h-1.488v1.248h1.488v6.912h1.376v-6.912h2.352v-1.248h-2.352v-1.04c0-.88.48-1.248 1.312-1.248zm5.912 10.64c2.464 0 4.336-1.84 4.336-4.272 0-2.432-1.872-4.272-4.336-4.272-2.48 0-4.352 1.84-4.352 4.272 0 2.432 1.872 4.272 4.352 4.272zm0-1.328c-1.68 0-2.928-1.264-2.928-2.944s1.248-2.944 2.928-2.944c1.664 0 2.912 1.264 2.912 2.944s-1.248 2.944-2.912 2.944zm10.305-7.152c-1.216 0-2.176.56-2.784 1.536v-1.408h-1.376v8.16h1.376v-4.08c0-1.696 1.056-2.784 2.784-2.784h.272v-1.424h-.272zm12.467.128v1.472c-.688-1.024-1.808-1.664-3.168-1.664-2.336 0-4.08 1.84-4.08 4.272 0 2.432 1.744 4.272 4.08 4.272 1.36 0 2.48-.64 3.168-1.664v1.472h1.376v-8.16h-1.376zm-2.912 7.024c-1.68 0-2.928-1.264-2.928-2.944s1.248-2.944 2.928-2.944c1.664 0 2.912 1.264 2.912 2.944s-1.248 2.944-2.912 2.944zm13.254 1.328c1.84 0 3.296-.912 3.296-2.528 0-1.696-1.568-2.096-2.912-2.416-1.088-.256-2.016-.48-2.016-1.28 0-.704.784-1.072 1.728-1.072.896 0 1.664.352 2.208.88l.768-1.008c-.688-.624-1.696-1.12-2.992-1.12-1.68 0-3.12.816-3.12 2.4 0 1.712 1.584 2.128 2.928 2.464 1.072.256 1.984.496 1.984 1.28 0 .736-.816 1.152-1.888 1.152-1.056 0-1.92-.4-2.528-1.024l-.768.992c.752.72 1.872 1.28 3.312 1.28zm9.501-7.104v-1.248h-2.448v-2.192h-1.376v2.192h-1.472v1.248h1.472v4.736c0 1.504.816 2.368 2.4 2.368.576 0 1.008-.112 1.424-.336v-1.296c-.336.176-.688.304-1.136.304-.832 0-1.312-.384-1.312-1.264v-4.512h2.448zm8.204-1.248v1.472c-.688-1.024-1.808-1.664-3.168-1.664-2.336 0-4.08 1.84-4.08 4.272 0 2.432 1.744 4.272 4.08 4.272 1.36 0 2.48-.64 3.168-1.664v1.472h1.376v-8.16h-1.376zm-2.912 7.024c-1.68 0-2.928-1.264-2.928-2.944s1.248-2.944 2.928-2.944c1.664 0 2.912 1.264 2.912 2.944s-1.248 2.944-2.912 2.944zm10.789-7.152c-1.217 0-2.176.56-2.784 1.536v-1.408h-1.376v8.16h1.376v-4.08c0-1.696 1.056-2.784 2.784-2.784h.272v-1.424h-.272zm6.559 1.376v-1.248h-2.448v-2.192h-1.376v2.192h-1.472v1.248h1.472v4.736c0 1.504.816 2.368 2.4 2.368.576 0 1.008-.112 1.424-.336v-1.296c-.336.176-.688.304-1.136.304-.832 0-1.312-.384-1.312-1.264v-4.512h2.448zm5.333 7.104c2.224 0 3.696-1.36 3.696-3.424v-4.928h-1.376v4.736c0 1.376-.928 2.288-2.32 2.288s-2.32-.912-2.32-2.288v-4.736h-1.376v4.928c0 2.064 1.472 3.424 3.696 3.424zm10.445-8.544c-1.36 0-2.48.64-3.168 1.664v-1.472h-1.376v11.2h1.376v-4.512c.688 1.024 1.808 1.664 3.168 1.664 2.336 0 4.096-1.84 4.096-4.272 0-2.432-1.76-4.272-4.096-4.272zm-.256 7.216c-1.664 0-2.912-1.264-2.912-2.944s1.248-2.944 2.912-2.944c1.68 0 2.928 1.264 2.928 2.944s-1.248 2.944-2.928 2.944zm13.686-9.312c.448 0 .784.112 1.12.288v-1.216a2.82 2.82 0 0 0-1.408-.336c-1.584 0-2.4.88-2.4 2.416v1.136h-1.488v1.248h1.488v6.912h1.376v-6.912h2.352v-1.248h-2.352v-1.04c0-.88.48-1.248 1.312-1.248zm6.717 2.16c-1.216 0-2.176.56-2.784 1.536v-1.408h-1.376v8.16h1.376v-4.08c0-1.696 1.056-2.784 2.784-2.784h.272v-1.424h-.272zm5.211 8.48c2.464 0 4.336-1.84 4.336-4.272 0-2.432-1.872-4.272-4.336-4.272-2.48 0-4.352 1.84-4.352 4.272 0 2.432 1.872 4.272 4.352 4.272zm0-1.328c-1.68 0-2.928-1.264-2.928-2.944s1.248-2.944 2.928-2.944c1.664 0 2.912 1.264 2.912 2.944s-1.248 2.944-2.912 2.944zm15.889-7.216c-1.312 0-2.352.576-2.96 1.6-.48-1.008-1.456-1.6-2.736-1.6-1.152 0-2.08.464-2.672 1.296v-1.104h-1.376v8.16h1.376v-4.848c0-1.312.896-2.176 2.224-2.176 1.296 0 2.128.848 2.128 2.144v4.88h1.376v-4.848c0-1.312.896-2.176 2.224-2.176 1.296 0 2.128.848 2.128 2.144v4.88h1.376v-5.264c0-1.872-1.216-3.088-3.088-3.088zm-393.851 28.024 4.56-5.84v-.992h-6.416v1.328h4.496l-4.56 5.84v.992h6.592v-1.328h-4.672zm14.185-2.752c0-2.448-1.824-4.272-4.256-4.272-2.448 0-4.288 1.824-4.288 4.24 0 2.448 1.904 4.304 4.464 4.304 1.584 0 2.928-.688 3.744-1.776l-.944-.816c-.528.752-1.552 1.328-2.752 1.328-1.584 0-2.752-.976-3.024-2.4h7.024c.016-.192.032-.416.032-.608zm-4.272-3.008c1.44 0 2.56.96 2.816 2.368h-5.616c.256-1.392 1.376-2.368 2.8-2.368zm10.197-1.2c-1.216 0-2.176.56-2.784 1.536v-1.408h-1.376v8.16h1.376v-4.08c0-1.696 1.056-2.784 2.784-2.784h.272v-1.424h-.272zm5.211 8.48c2.464 0 4.336-1.84 4.336-4.272 0-2.432-1.872-4.272-4.336-4.272-2.48 0-4.352 1.84-4.352 4.272 0 2.432 1.872 4.272 4.352 4.272zm0-1.328c-1.68 0-2.928-1.264-2.928-2.944s1.248-2.944 2.928-2.944c1.664 0 2.912 1.264 2.912 2.944s-1.248 2.944-2.912 2.944zm14.802-5.776v-1.248h-2.448v-2.192h-1.376v2.192h-1.472v1.248h1.472v4.736c0 1.504.816 2.368 2.4 2.368.576 0 1.008-.112 1.424-.336v-1.296c-.336.176-.688.304-1.136.304-.832 0-1.312-.384-1.312-1.264v-4.512h2.448zm5.276 7.104c2.464 0 4.336-1.84 4.336-4.272 0-2.432-1.872-4.272-4.336-4.272-2.48 0-4.352 1.84-4.352 4.272 0 2.432 1.872 4.272 4.352 4.272zm0-1.328c-1.68 0-2.928-1.264-2.928-2.944s1.248-2.944 2.928-2.944c1.664 0 2.912 1.264 2.912 2.944s-1.248 2.944-2.912 2.944zm13.65-9.312c.448 0 .784.112 1.12.288v-1.216a2.82 2.82 0 0 0-1.408-.336c-1.584 0-2.4.88-2.4 2.416v1.136h-1.488v1.248h1.488v6.912h1.376v-6.912h2.352v-1.248h-2.352v-1.04c0-.88.48-1.248 1.312-1.248zm6.188 10.64c2.224 0 3.696-1.36 3.696-3.424v-4.928h-1.376v4.736c0 1.376-.928 2.288-2.32 2.288s-2.32-.912-2.32-2.288v-4.736h-1.376v4.928c0 2.064 1.472 3.424 3.696 3.424zm10.221-8.544c-1.28 0-2.304.512-2.944 1.44v-1.248h-1.376v8.16h1.376v-4.576c0-1.472.992-2.448 2.496-2.448 1.456 0 2.384.96 2.384 2.416v4.608h1.376v-5.04c0-2-1.328-3.312-3.312-3.312zm12.291-3.168v4.832c-.688-1.024-1.808-1.664-3.168-1.664-2.336 0-4.08 1.84-4.08 4.272 0 2.432 1.744 4.272 4.08 4.272 1.36 0 2.48-.64 3.168-1.664v1.472h1.376v-11.52h-1.376zm-2.912 10.384c-1.68 0-2.928-1.264-2.928-2.944s1.248-2.944 2.928-2.944c1.664 0 2.912 1.264 2.912 2.944s-1.248 2.944-2.912 2.944zm14.645-2.944c0-2.448-1.824-4.272-4.256-4.272-2.448 0-4.288 1.824-4.288 4.24 0 2.448 1.904 4.304 4.464 4.304 1.584 0 2.928-.688 3.744-1.776l-.944-.816c-.528.752-1.552 1.328-2.752 1.328-1.584 0-2.752-.976-3.024-2.4h7.024c.016-.192.032-.416.032-.608zm-4.272-3.008c1.44 0 2.56.96 2.816 2.368h-5.616c.256-1.392 1.376-2.368 2.8-2.368zm12.789-4.432v4.832c-.688-1.024-1.808-1.664-3.168-1.664-2.336 0-4.08 1.84-4.08 4.272 0 2.432 1.744 4.272 4.08 4.272 1.36 0 2.48-.64 3.168-1.664v1.472h1.376v-11.52h-1.376zm-2.912 10.384c-1.68 0-2.928-1.264-2.928-2.944s1.248-2.944 2.928-2.944c1.664 0 2.912 1.264 2.912 2.944s-1.248 2.944-2.912 2.944zm7.333 1.248c.592 0 1.04-.448 1.04-1.024 0-.576-.448-1.024-1.04-1.024a1.01 1.01 0 0 0-1.024 1.024 1.01 1.01 0 0 0 1.024 1.024zm11.687-11.152h-4.544v11.04h1.472v-4.112h3.072c2.016 0 3.536-1.488 3.536-3.456 0-1.984-1.52-3.472-3.536-3.472zm-.032 5.552h-3.04v-4.176h3.04c1.184 0 2.064.896 2.064 2.096 0 1.2-.88 2.08-2.064 2.08zm9.41-2.8c-1.216 0-2.176.56-2.784 1.536v-1.408h-1.376v8.16h1.376v-4.08c0-1.696 1.056-2.784 2.784-2.784h.272v-1.424h-.272zm9.403 4.208c0-2.448-1.824-4.272-4.256-4.272-2.448 0-4.288 1.824-4.288 4.24 0 2.448 1.904 4.304 4.464 4.304 1.584 0 2.928-.688 3.744-1.776l-.944-.816c-.528.752-1.552 1.328-2.752 1.328-1.584 0-2.752-.976-3.024-2.4h7.024c.016-.192.032-.416.032-.608zm-4.272-3.008c1.44 0 2.56.96 2.816 2.368h-5.616c.256-1.392 1.376-2.368 2.8-2.368zm8.709 7.28c1.84 0 3.296-.912 3.296-2.528 0-1.696-1.568-2.096-2.912-2.416-1.088-.256-2.016-.48-2.016-1.28 0-.704.784-1.072 1.728-1.072.896 0 1.664.352 2.208.88l.768-1.008c-.688-.624-1.696-1.12-2.992-1.12-1.68 0-3.12.816-3.12 2.4 0 1.712 1.584 2.128 2.928 2.464 1.072.256 1.984.496 1.984 1.28 0 .736-.816 1.152-1.888 1.152-1.056 0-1.92-.4-2.528-1.024l-.768.992c.752.72 1.872 1.28 3.312 1.28zm13.048-4.272c0-2.448-1.824-4.272-4.256-4.272-2.448 0-4.288 1.824-4.288 4.24 0 2.448 1.904 4.304 4.464 4.304 1.584 0 2.928-.688 3.744-1.776l-.944-.816c-.528.752-1.552 1.328-2.752 1.328-1.584 0-2.752-.976-3.024-2.4h7.024c.016-.192.032-.416.032-.608zm-4.272-3.008c1.44 0 2.56.96 2.816 2.368h-5.617c.257-1.392 1.377-2.368 2.801-2.368zm10.357-1.264c-1.28 0-2.304.512-2.944 1.44v-1.248h-1.376v8.16h1.376v-4.576c0-1.472.992-2.448 2.496-2.448 1.456 0 2.384.96 2.384 2.416v4.608h1.376v-5.04c0-2-1.328-3.312-3.312-3.312zm9.79 1.44v-1.248h-2.448v-2.192h-1.376v2.192h-1.472v1.248h1.472v4.736c0 1.504.816 2.368 2.4 2.368.576 0 1.008-.112 1.424-.336v-1.296c-.336.176-.688.304-1.136.304-.832 0-1.312-.384-1.312-1.264v-4.512h2.448zm9.468 2.832c0-2.448-1.824-4.272-4.256-4.272-2.448 0-4.288 1.824-4.288 4.24 0 2.448 1.904 4.304 4.464 4.304 1.584 0 2.928-.688 3.744-1.776l-.944-.816c-.528.752-1.552 1.328-2.752 1.328-1.584 0-2.752-.976-3.024-2.4h7.024c.016-.192.032-.416.032-.608zm-4.272-3.008c1.44 0 2.56.96 2.816 2.368h-5.616c.256-1.392 1.376-2.368 2.8-2.368zm12.79-4.432v4.832c-.688-1.024-1.808-1.664-3.168-1.664-2.336 0-4.08 1.84-4.08 4.272 0 2.432 1.744 4.272 4.08 4.272 1.36 0 2.48-.64 3.168-1.664v1.472h1.376v-11.52h-1.376zm-2.912 10.384c-1.68 0-2.928-1.264-2.928-2.944s1.248-2.944 2.928-2.944c1.664 0 2.912 1.264 2.912 2.944s-1.248 2.944-2.912 2.944zm15.125-7.216c-1.36 0-2.48.64-3.168 1.664v-4.832h-1.376v11.52h1.376v-1.472c.688 1.024 1.808 1.664 3.168 1.664 2.336 0 4.096-1.84 4.096-4.272 0-2.432-1.76-4.272-4.096-4.272zm-.256 7.216c-1.664 0-2.912-1.264-2.912-2.944s1.248-2.944 2.912-2.944c1.68 0 2.928 1.264 2.928 2.944s-1.248 2.944-2.928 2.944zm11.856-7.024-2.752 6.512-2.752-6.512h-1.584l3.552 8.112-.592 1.216c-.256.528-.624.736-1.04.736-.416 0-.816-.208-1.088-.512l-.576 1.056c.48.48 1.232.784 1.872.784.88 0 1.68-.544 2.096-1.504l4.4-9.888h-1.536zm16.44-2.88-3.792 6.56-3.776-6.56h-1.856v11.04h1.472v-8.816l3.744 6.496h.816l3.744-6.496v8.816h1.456v-11.04h-1.808zm8.1 11.232c2.464 0 4.336-1.84 4.336-4.272 0-2.432-1.872-4.272-4.336-4.272-2.48 0-4.352 1.84-4.352 4.272 0 2.432 1.872 4.272 4.352 4.272zm0-1.328c-1.68 0-2.928-1.264-2.928-2.944s1.248-2.944 2.928-2.944c1.664 0 2.912 1.264 2.912 2.944s-1.248 2.944-2.912 2.944zm11.505 1.136h1.824l-3.776-4.304 3.664-3.856h-1.792l-3.904 4.144v-7.504h-1.376v11.52h1.376v-2.16l1.056-1.12 2.928 3.28zm10.515-4.08c0-2.448-1.824-4.272-4.256-4.272-2.448 0-4.288 1.824-4.288 4.24 0 2.448 1.904 4.304 4.464 4.304 1.584 0 2.928-.688 3.744-1.776l-.944-.816c-.528.752-1.552 1.328-2.752 1.328-1.584 0-2.752-.976-3.024-2.4h7.024c.016-.192.032-.416.032-.608zm-4.272-3.008c1.44 0 2.56.96 2.816 2.368h-5.616c.256-1.392 1.376-2.368 2.8-2.368zm10.357-1.264c-1.28 0-2.304.512-2.944 1.44v-1.248h-1.376v8.16h1.376v-4.576c0-1.472.992-2.448 2.496-2.448 1.456 0 2.384.96 2.384 2.416v4.608h1.376v-5.04c0-2-1.328-3.312-3.312-3.312zm6.244 8.464c.592 0 1.04-.448 1.04-1.024 0-.576-.448-1.024-1.04-1.024a1.01 1.01 0 0 0-1.024 1.024 1.01 1.01 0 0 0 1.024 1.024z" fill="#4E5460"/>
    <rect x="604" y="202.883" width="97" height="37" rx="10" fill="#131313"/>
    <path d="M634.638 225.883h1.992l-2.064-3.084c1.104-.348 1.86-1.296 1.86-2.484 0-1.548-1.212-2.712-2.808-2.712h-3.528v8.28h1.656v-2.952h.984l1.908 2.952zm-2.892-6.72h1.836c.648 0 1.14.504 1.14 1.164 0 .66-.492 1.164-1.14 1.164h-1.836v-2.328zm11.785 3.672c0-1.848-1.38-3.216-3.216-3.216-1.848 0-3.252 1.368-3.252 3.18 0 1.836 1.452 3.228 3.396 3.228 1.152 0 2.136-.468 2.772-1.224l-1.044-.912c-.324.408-.936.756-1.68.756-.888 0-1.536-.492-1.752-1.26h4.74c.024-.168.036-.384.036-.552zm-3.228-1.848c.756 0 1.368.492 1.56 1.26h-3.12c.192-.756.792-1.26 1.56-1.26zm8.169 4.896h-1.992c-.384 0-.648-.216-.648-.516 0-.204.12-.408.312-.528a3.41 3.41 0 0 0 1.008.156c1.632 0 2.88-1.152 2.88-2.688 0-.6-.192-1.152-.528-1.584.06-.276.312-.444.624-.444h.432v-1.44h-.504c-.804 0-1.392.408-1.572 1.068a3.189 3.189 0 0 0-1.332-.288c-1.644 0-2.868 1.152-2.868 2.688 0 .768.3 1.428.816 1.908-.504.312-.828.912-.828 1.536 0 .972.756 1.632 1.896 1.632h2.004c.552 0 .924.288.972.732l1.608-.432c-.204-1.128-1.068-1.8-2.28-1.8zm-1.32-4.788c.72 0 1.272.516 1.272 1.212s-.552 1.212-1.272 1.212c-.732 0-1.272-.516-1.272-1.212s.54-1.212 1.272-1.212zm4.985-2.232c.552 0 .984-.42.984-.972a.963.963 0 0 0-.984-.972.963.963 0 0 0-.984.972c0 .552.432.972.984.972zm-.78 7.02h1.56v-6.12h-1.56v6.12zm5.159.144c1.464 0 2.616-.708 2.616-2.004 0-1.392-1.26-1.692-2.232-1.908-.684-.144-1.2-.276-1.2-.684 0-.36.432-.528.96-.528.624 0 1.14.228 1.584.564l.756-1.044a3.772 3.772 0 0 0-2.376-.804c-1.356 0-2.496.636-2.496 1.932 0 1.392 1.26 1.692 2.232 1.908.672.156 1.2.3 1.2.708 0 .372-.456.576-1.08.576-.732 0-1.32-.276-1.788-.684l-.756 1.032c.588.504 1.44.936 2.58.936zm7.316-4.836v-1.428h-1.644v-1.548h-1.56v1.548h-.972v1.428h.972v2.796c0 1.224.66 2.04 2.064 2.04.456 0 .804-.084 1.14-.264v-1.452a1.849 1.849 0 0 1-.804.204c-.552 0-.84-.264-.84-.78v-2.544h1.644zm7.074 1.644c0-1.848-1.38-3.216-3.216-3.216-1.848 0-3.252 1.368-3.252 3.18 0 1.836 1.452 3.228 3.396 3.228 1.152 0 2.136-.468 2.772-1.224l-1.044-.912c-.324.408-.936.756-1.68.756-.888 0-1.536-.492-1.752-1.26h4.74c.024-.168.036-.384.036-.552zm-3.228-1.848c.756 0 1.368.492 1.56 1.26h-3.12c.192-.756.792-1.26 1.56-1.26zm7.64-1.32c-.72 0-1.32.324-1.764.888v-.792h-1.56v6.12h1.56v-2.904c0-1.044.648-1.704 1.764-1.704h.264v-1.608h-.264z" fill="#fff"/>
    <circle cx="184.5" cy="173.383" r="56.5" fill="#003A3B"/>
    <path d="M148.527 171.883h2.437l-2.525-3.772c1.351-.426 2.275-1.586 2.275-3.039 0-1.894-1.482-3.318-3.435-3.318h-4.315v10.129h2.025v-3.611h1.204l2.334 3.611zm-3.538-8.22h2.246c.793 0 1.395.616 1.395 1.424 0 .807-.602 1.424-1.395 1.424h-2.246v-2.848zm12.627.734v.895a3.235 3.235 0 0 0-2.437-1.071c-2.085 0-3.656 1.688-3.656 3.919s1.571 3.919 3.656 3.919c.998 0 1.835-.411 2.437-1.071v.895h1.908v-7.486h-1.908zm-2.07 5.813c-1.175 0-2.055-.896-2.055-2.07s.88-2.07 2.055-2.07c1.189 0 2.07.896 2.07 2.07s-.881 2.07-2.07 2.07zm6.747-6.914c.675 0 1.204-.514 1.204-1.189 0-.676-.529-1.189-1.204-1.189-.675 0-1.204.513-1.204 1.189 0 .675.529 1.189 1.204 1.189zm-.954 8.587h1.908v-7.486h-1.908v7.486zm6.311.176c1.791 0 3.2-.866 3.2-2.451 0-1.703-1.541-2.07-2.73-2.334-.837-.176-1.468-.338-1.468-.837 0-.44.528-.646 1.174-.646.763 0 1.395.279 1.938.69l.925-1.277c-.676-.528-1.63-.983-2.907-.983-1.659 0-3.053.778-3.053 2.363 0 1.703 1.541 2.07 2.73 2.334.822.191 1.468.367 1.468.866 0 .455-.558.705-1.321.705-.896 0-1.615-.338-2.187-.837l-.925 1.262c.719.617 1.761 1.145 3.156 1.145zm5.438-8.763c.675 0 1.204-.514 1.204-1.189 0-.676-.529-1.189-1.204-1.189-.675 0-1.204.513-1.204 1.189 0 .675.529 1.189 1.204 1.189zm-.954 8.587h1.908v-7.486h-1.908v7.486zm8.013-7.662c-.968 0-1.791.352-2.378 1.012v-.836h-1.908v7.486h1.908v-4.11c0-1.028.705-1.703 1.747-1.703.998 0 1.644.661 1.644 1.674v4.139h1.909v-4.756c0-1.761-1.16-2.906-2.922-2.906zm9.387 7.662h-2.437c-.47 0-.793-.264-.793-.631 0-.249.147-.499.382-.646.382.118.793.191 1.233.191 1.996 0 3.523-1.409 3.523-3.288 0-.734-.235-1.409-.646-1.938.074-.338.382-.543.764-.543h.528v-1.762h-.616c-.984 0-1.703.499-1.923 1.307a3.908 3.908 0 0 0-1.63-.352c-2.011 0-3.508 1.409-3.508 3.288 0 .939.367 1.747.998 2.334-.617.382-1.013 1.115-1.013 1.879 0 1.189.925 1.996 2.319 1.996h2.452c.675 0 1.13.353 1.189.896l1.967-.529c-.25-1.38-1.307-2.202-2.789-2.202zm-1.615-5.857c.881 0 1.556.631 1.556 1.483 0 .851-.675 1.482-1.556 1.482-.895 0-1.556-.631-1.556-1.482 0-.852.661-1.483 1.556-1.483zm10.826 5.857h2.436l-2.524-3.772c1.35-.426 2.275-1.586 2.275-3.039 0-1.894-1.483-3.318-3.435-3.318h-4.316v10.129h2.026v-3.611h1.204l2.334 3.611zm-3.538-8.22h2.246c.792 0 1.394.616 1.394 1.424 0 .807-.602 1.424-1.394 1.424h-2.246v-2.848zm8.1-.367c.675 0 1.204-.514 1.204-1.189 0-.676-.529-1.189-1.204-1.189-.675 0-1.204.513-1.204 1.189 0 .675.529 1.189 1.204 1.189zm-.954 8.587h1.908v-7.486h-1.908v7.486zm8.483 0H208.4c-.47 0-.793-.264-.793-.631 0-.249.147-.499.382-.646.381.118.792.191 1.233.191 1.996 0 3.523-1.409 3.523-3.288 0-.734-.235-1.409-.646-1.938.073-.338.382-.543.763-.543h.529v-1.762h-.617c-.983 0-1.703.499-1.923 1.307a3.9 3.9 0 0 0-1.629-.352c-2.011 0-3.509 1.409-3.509 3.288 0 .939.367 1.747.998 2.334-.616.382-1.012 1.115-1.012 1.879 0 1.189.924 1.996 2.319 1.996h2.451c.676 0 1.131.353 1.19.896l1.967-.529c-.25-1.38-1.307-2.202-2.79-2.202zm-1.614-5.857c.88 0 1.556.631 1.556 1.483 0 .851-.676 1.482-1.556 1.482-.896 0-1.556-.631-1.556-1.482 0-.852.66-1.483 1.556-1.483zm9.431-1.805c-.969 0-1.791.367-2.378 1.056v-3.963h-1.909v10.569h1.909v-4.11c0-1.028.704-1.703 1.761-1.703.984 0 1.63.661 1.63 1.674v4.139h1.908v-4.756c0-1.761-1.16-2.906-2.921-2.906zm8.91 1.923v-1.747h-2.011v-1.894h-1.909v1.894h-1.189v1.747h1.189v3.42c0 1.497.808 2.495 2.525 2.495.558 0 .984-.102 1.395-.322v-1.777c-.279.132-.602.25-.984.25-.675 0-1.027-.323-1.027-.954v-3.112h2.011zm-85.89 13.259v-1.272h-4.394v6.752h1.35v-2.691h2.652v-1.272h-2.652v-1.517h3.044zm3.504.411c-.587 0-1.076.264-1.438.724v-.646h-1.273v4.991h1.273v-2.368c0-.851.528-1.39 1.438-1.39h.215v-1.311h-.215zm3.223 5.187c1.526 0 2.681-1.126 2.681-2.613 0-1.488-1.155-2.613-2.681-2.613-1.527 0-2.682 1.125-2.682 2.613 0 1.487 1.155 2.613 2.682 2.613zm0-1.233c-.783 0-1.37-.597-1.37-1.38 0-.783.587-1.38 1.37-1.38.792 0 1.37.597 1.37 1.38 0 .783-.578 1.38-1.37 1.38zm9.613-3.993c-.724 0-1.301.284-1.703.812-.313-.509-.861-.812-1.565-.812-.607 0-1.106.215-1.478.636v-.519h-1.272v4.991h1.272v-2.848c0-.616.43-1.027 1.047-1.027.597 0 .988.401.988 1.008v2.867h1.273v-2.848c0-.616.421-1.027 1.047-1.027.597 0 .978.401.978 1.008v2.867h1.273v-3.249c0-1.125-.734-1.859-1.86-1.859zm6.816 3.836 3.386-4.511v-.969h-5.197v1.272h3.347l-3.386 4.511v.969h5.305v-1.272h-3.455zm9.235-1.213c0-1.508-1.126-2.623-2.623-2.623-1.507 0-2.652 1.115-2.652 2.593 0 1.498 1.184 2.633 2.769 2.633.94 0 1.742-.382 2.261-.998l-.851-.744c-.265.332-.764.616-1.37.616-.725 0-1.253-.401-1.429-1.027h3.865c.02-.137.03-.313.03-.45zm-2.633-1.508c.617 0 1.116.402 1.272 1.028h-2.544c.156-.617.646-1.028 1.272-1.028zm6.23-1.076c-.587 0-1.076.264-1.438.724v-.646h-1.272v4.991h1.272v-2.368c0-.851.528-1.39 1.438-1.39h.216v-1.311h-.216zm3.223 5.187c1.527 0 2.681-1.126 2.681-2.613 0-1.488-1.154-2.613-2.681-2.613-1.527 0-2.682 1.125-2.682 2.613 0 1.487 1.155 2.613 2.682 2.613zm0-1.233c-.783 0-1.37-.597-1.37-1.38 0-.783.587-1.38 1.37-1.38.793 0 1.37.597 1.37 1.38 0 .783-.577 1.38-1.37 1.38zm8.895-2.711v-1.165h-1.341v-1.262h-1.272v1.262h-.793v1.165h.793v2.28c0 .998.538 1.664 1.683 1.664.372 0 .656-.069.93-.216v-1.184a1.509 1.509 0 0 1-.656.167c-.45 0-.685-.216-.685-.636v-2.075h1.341zm3.176 3.944c1.526 0 2.681-1.126 2.681-2.613 0-1.488-1.155-2.613-2.681-2.613-1.527 0-2.682 1.125-2.682 2.613 0 1.487 1.155 2.613 2.682 2.613zm0-1.233c-.783 0-1.371-.597-1.371-1.38 0-.783.588-1.38 1.371-1.38.792 0 1.37.597 1.37 1.38 0 .783-.578 1.38-1.37 1.38zm10.294-4.365v-1.272h-4.394v6.752h1.35v-2.691h2.652v-1.272h-2.652v-1.517h3.044zm2.977 5.598c1.4 0 2.329-.832 2.329-2.104v-3.005h-1.272v2.829c0 .636-.421 1.047-1.057 1.047-.636 0-1.057-.411-1.057-1.047v-2.829h-1.272v3.005c0 1.272.92 2.104 2.329 2.104zm6.322-5.226c-.646 0-1.194.235-1.585.675v-.558h-1.273v4.991h1.273v-2.74c0-.685.469-1.135 1.164-1.135.666 0 1.096.44 1.096 1.116v2.759h1.273v-3.17c0-1.175-.774-1.938-1.948-1.938zm6.865-1.938v2.652a2.159 2.159 0 0 0-1.625-.714c-1.39 0-2.437 1.125-2.437 2.613 0 1.487 1.047 2.613 2.437 2.613.665 0 1.223-.274 1.625-.715v.597h1.272v-7.046h-1.272zm-1.38 5.931c-.783 0-1.37-.597-1.37-1.38 0-.783.587-1.38 1.37-1.38.792 0 1.38.597 1.38 1.38 0 .783-.588 1.38-1.38 1.38zm8.833-1.37c0-1.508-1.125-2.623-2.622-2.623-1.508 0-2.653 1.115-2.653 2.593 0 1.498 1.185 2.633 2.77 2.633.939 0 1.742-.382 2.261-.998l-.852-.744c-.264.332-.763.616-1.37.616-.724 0-1.253-.401-1.429-1.027h3.866a3.4 3.4 0 0 0 .029-.45zm-2.632-1.508c.616 0 1.115.402 1.272 1.028h-2.544c.156-.617.645-1.028 1.272-1.028zm7.297-3.053v2.652a2.155 2.155 0 0 0-1.625-.714c-1.389 0-2.437 1.125-2.437 2.613 0 1.487 1.048 2.613 2.437 2.613.666 0 1.224-.274 1.625-.715v.597h1.272v-7.046h-1.272zm-1.38 5.931c-.783 0-1.37-.597-1.37-1.38 0-.783.587-1.38 1.37-1.38.793 0 1.38.597 1.38 1.38 0 .783-.587 1.38-1.38 1.38z" fill="#D0EAE8"/>
    <defs>
        <filter id="a" x=".57" y=".293" width="817.5" height="352.927" filterUnits="userSpaceOnUse" color-interpolation-filters="sRGB">
            <feFlood flood-opacity="0" result="BackgroundImageFix"/>
            <feBlend in="SourceGraphic" in2="BackgroundImageFix" result="shape"/>
            <feGaussianBlur stdDeviation="46.169" result="effect1_foregroundBlur"/>
        </filter>
    </defs>
</svg>
