<svg width="348" height="392" viewBox="0 0 348 392" fill="none" xmlns="http://www.w3.org/2000/svg">
<g clip-path="url(#clip0)">
<g opacity="0.2" filter="url(#filter0_f)">
<path opacity="0.2" d="M297.6 27H50.4C42.4471 27 36 33.4471 36 41.4V391.6C36 399.553 42.4471 406 50.4 406H297.6C305.553 406 312 399.553 312 391.6V41.4C312 33.4471 305.553 27 297.6 27Z" fill="#0F0941"/>
</g>
<mask id="mask0" style="mask-type:alpha" maskUnits="userSpaceOnUse" x="0" y="0" width="348" height="392">
<path d="M318 0H30C13.4315 0 0 13.4315 0 30V362C0 378.569 13.4315 392 30 392H318C334.569 392 348 378.569 348 362V30C348 13.4315 334.569 0 318 0Z" fill="#FEFEFE"/>
</mask>
<g mask="url(#mask0)">
<path d="M318 0H30C13.4315 0 0 13.4315 0 30V362C0 378.569 13.4315 392 30 392H318C334.569 392 348 378.569 348 362V30C348 13.4315 334.569 0 318 0Z" fill="#FEFEFE"/>
<path d="M351.96 373.838C351.96 363.518 347.16 354.638 339.56 349.518L333.64 359.038C338.36 362.238 341.32 367.598 341.32 373.838C341.32 383.918 333.64 391.598 323.4 391.598C313.16 391.598 305.48 383.918 305.48 373.838C305.48 367.598 308.44 362.238 313.16 359.038L307.24 349.518C299.64 354.638 294.84 363.518 294.84 373.838C294.84 390.398 307.16 402.958 323.4 402.958C339.64 402.958 351.96 390.398 351.96 373.838V373.838ZM351.96 324.014C351.96 311.534 342.76 302.094 330.6 302.094C318.44 302.094 309.24 311.534 309.24 324.014C309.24 336.494 318.44 345.934 330.6 345.934C342.76 345.934 351.96 336.494 351.96 324.014ZM341.88 324.014C341.88 330.414 337 335.214 330.6 335.214C324.2 335.214 319.32 330.414 319.32 324.014C319.32 317.534 324.2 312.814 330.6 312.814C337 312.814 341.88 317.534 341.88 324.014ZM309.24 271.266C309.24 276.546 311.16 281.026 314.76 284.226H310.2V294.626H351V284.226H328.6C323 284.226 319.32 280.386 319.32 274.706C319.32 269.266 322.92 265.746 328.44 265.746H351V255.346H325.08C315.48 255.346 309.24 261.666 309.24 271.266V271.266ZM309.24 222.672C309.24 227.952 311.16 232.432 314.76 235.632H310.2V246.032H351V235.632H328.6C323 235.632 319.32 231.792 319.32 226.112C319.32 220.672 322.92 217.152 328.44 217.152H351V206.752H325.08C315.48 206.752 309.24 213.072 309.24 222.672V222.672ZM330.68 156.798C318.36 156.798 309.24 165.998 309.24 178.238C309.24 190.558 318.36 199.918 330.44 199.918C342.68 199.918 351.96 190.238 351.96 177.278C351.96 169.598 348.84 163.038 343.8 158.798L337.72 165.758C340.44 167.918 342.76 171.998 342.76 176.958C342.76 182.878 339.48 187.198 334.36 188.638V157.038C333.24 156.878 331.8 156.798 330.68 156.798V156.798ZM318.36 178.318C318.36 173.278 321.64 169.198 326.76 167.918V188.718C321.72 187.438 318.36 183.438 318.36 178.318V178.318ZM351.96 130.108C351.96 121.868 347.96 114.988 341.8 111.308L336.36 120.348C339.64 122.188 341.88 125.788 341.88 130.108C341.88 136.508 337 141.308 330.6 141.308C324.2 141.308 319.32 136.508 319.32 130.108C319.32 125.788 321.56 122.188 324.84 120.348L319.4 111.308C313.24 114.988 309.24 121.868 309.24 130.108C309.24 142.588 318.44 152.028 330.6 152.028C342.76 152.028 351.96 142.588 351.96 130.108V130.108ZM319.72 79.975H310.2V90.935H299.88V101.335H310.2V107.815H319.72V101.335H338.36C346.52 101.335 351.96 96.935 351.96 87.575C351.96 84.535 351.4 82.215 350.2 79.975H340.52C341.24 81.495 341.88 83.255 341.88 85.335C341.88 89.015 340.12 90.935 336.68 90.935H319.72V79.975V79.975Z" fill="#F9F9F9"/>
</g>
</g>
<defs>
<filter id="filter0_f" x="-114" y="-123" width="576" height="679" filterUnits="userSpaceOnUse" color-interpolation-filters="sRGB">
<feFlood flood-opacity="0" result="BackgroundImageFix"/>
<feBlend mode="normal" in="SourceGraphic" in2="BackgroundImageFix" result="shape"/>
<feGaussianBlur stdDeviation="75" result="effect1_foregroundBlur"/>
</filter>
<clipPath id="clip0">
<rect width="348" height="392" fill="white"/>
</clipPath>
</defs>
</svg>
