<svg width="573" height="679" fill="none" xmlns="http://www.w3.org/2000/svg">
    <g opacity=".2" filter="url(#a)">
        <rect x="150" y="150" width="276" height="379" rx="14.4" fill="#0F0941"/>
    </g>
    <mask id="b" style="mask-type:alpha" maskUnits="userSpaceOnUse" x="114" y="123" width="348" height="392">
        <rect x="114" y="123" width="348" height="392" rx="30" fill="#FEFEFE"/>
    </mask>
    <g mask="url(#b)">
        <rect x="114" y="123" width="348" height="392" rx="30" fill="#FEFEFE"/>
        <path d="M454.6 512.36h-12.16v-23.44h-10.4v23.44H420.2v-26.08h-10.4v37.12H465v-37.52h-10.4v26.48zm-47.2-64.903h21.68c-3.6 3.28-5.84 7.84-5.84 13.28 0 11.36 9.2 19.92 21.36 19.92s21.36-8.56 21.36-19.92c0-5.44-2.24-10-5.84-13.28H465v-10.4h-57.6v10.4zm48.48 11.28c0 6.4-4.88 11.2-11.28 11.2-6.4 0-11.28-4.8-11.28-11.2 0-6.48 4.88-11.28 11.28-11.28 6.4 0 11.28 4.8 11.28 11.28zm10.08-49.972c0-11.44-6.8-19.04-17.2-19.04H424.2v10.4h23.12c5.2 0 8.56 3.44 8.56 8.64 0 5.2-3.36 8.64-8.56 8.64H424.2v10.4h24.56c10.4 0 17.2-7.52 17.2-19.04zm0-47.759c0-8.24-4-15.12-10.16-18.8l-5.44 9.04c3.28 1.84 5.52 5.44 5.52 9.76 0 6.4-4.88 11.2-11.28 11.2-6.4 0-11.28-4.8-11.28-11.2 0-4.32 2.24-7.92 5.52-9.76l-5.44-9.04c-6.16 3.68-10.16 10.56-10.16 18.8 0 12.48 9.2 21.92 21.36 21.92s21.36-9.44 21.36-21.92zm-41.76-55.502h4.88c-3.6 3.28-5.84 7.84-5.84 13.28 0 11.36 9.2 19.92 21.36 19.92s21.36-8.56 21.36-19.92c0-5.44-2.24-10-5.84-13.28H465v-10.4h-40.8v10.4zm31.68 11.28c0 6.4-4.88 11.2-11.28 11.2-6.4 0-11.28-4.8-11.28-11.2 0-6.48 4.88-11.28 11.28-11.28 6.4 0 11.28 4.8 11.28 11.28zm-22.16-56.692h-9.52v10.96h-10.32v10.4h10.32v6.48h9.52v-6.48h18.64c8.16 0 13.6-4.4 13.6-13.76 0-3.04-.56-5.36-1.76-7.6h-9.68c.72 1.52 1.36 3.28 1.36 5.36 0 3.68-1.76 5.6-5.2 5.6h-16.96v-10.96zm-15.52-12.893c0-3.68-2.8-6.56-6.48-6.56-3.68 0-6.48 2.88-6.48 6.56 0 3.68 2.8 6.56 6.48 6.56 3.68 0 6.48-2.88 6.48-6.56zm46.8 5.2v-10.4h-40.8v10.4H465zm.96-39.752c0-12.48-9.2-21.92-21.36-21.92s-21.36 9.44-21.36 21.92c0 12.48 9.2 21.92 21.36 21.92s21.36-9.44 21.36-21.92zm-10.08 0c0 6.4-4.88 11.2-11.28 11.2-6.4 0-11.28-4.8-11.28-11.2 0-6.48 4.88-11.2 11.28-11.2 6.4 0 11.28 4.72 11.28 11.2zm-32.64-52.748c0 5.28 1.92 9.76 5.52 12.96h-4.56v10.4H465v-10.4h-22.4c-5.6 0-9.28-3.84-9.28-9.52 0-5.44 3.6-8.96 9.12-8.96H465v-10.4h-25.92c-9.6 0-15.84 6.32-15.84 15.92z" fill="#F9F9F9"/>
    </g>
    <path d="M256.417 236.938c1.051 0 1.957-.169 2.718-.507.76-.337 1.394-.732 1.901-1.182.506-.451.905-.906 1.196-1.366.291-.46.493-.812.606-1.056v3.886h1.492V226.35c0-.751-.173-1.423-.521-2.014a4.773 4.773 0 0 0-1.408-1.507c-.591-.413-1.286-.732-2.084-.957a9.343 9.343 0 0 0-2.548-.338c-.789 0-1.549.089-2.281.268a6.442 6.442 0 0 0-1.943.802 4.569 4.569 0 0 0-1.38 1.338c-.357.535-.573 1.169-.648 1.901l1.521-.028c.094-.564.3-1.033.619-1.409a3.747 3.747 0 0 1 1.127-.901c.432-.225.91-.385 1.436-.478a8.942 8.942 0 0 1 1.577-.141c.676 0 1.314.075 1.915.225.601.15 1.136.376 1.605.676.47.3.84.681 1.113 1.14.272.46.408 1 .408 1.62v1.295l-5.069.028c-1.296 0-2.385.141-3.267.423-.882.281-1.582.647-2.098 1.098-.516.451-.882.962-1.098 1.535a4.536 4.536 0 0 0-.296 1.76c.038.695.202 1.305.493 1.83.291.526.68.967 1.169 1.324a5.434 5.434 0 0 0 1.689.817 7.287 7.287 0 0 0 2.056.281zm.085-1.38c-.507 0-.986-.061-1.437-.183a3.968 3.968 0 0 1-1.211-.549 3.25 3.25 0 0 1-.887-.901 2.563 2.563 0 0 1-.408-1.211 2.828 2.828 0 0 1 .169-1.225c.15-.422.427-.807.831-1.155.403-.347.967-.638 1.689-.873.723-.234 1.629-.352 2.718-.352h4.872c0 .883-.169 1.718-.507 2.507a6.498 6.498 0 0 1-1.38 2.056 6.58 6.58 0 0 1-2.028 1.38 5.971 5.971 0 0 1-2.421.506zm17.46 1.38a7.393 7.393 0 0 0 4.252-1.337 7.576 7.576 0 0 0 1.591-1.507c.46-.582.831-1.22 1.113-1.915l-1.521-.253a6.28 6.28 0 0 1-2.154 2.562c-.949.657-2.042.986-3.281.986a5.96 5.96 0 0 1-2.38-.479 6.139 6.139 0 0 1-3.281-3.309 6.3 6.3 0 0 1-.478-2.464 6.363 6.363 0 0 1 1.774-4.421 6.04 6.04 0 0 1 4.365-1.831c1.239 0 2.332.329 3.281.986a6.242 6.242 0 0 1 2.154 2.591l1.521-.282a7.789 7.789 0 0 0-1.099-1.901 7.425 7.425 0 0 0-3.562-2.478 7.378 7.378 0 0 0-2.295-.352c-1.07 0-2.065.202-2.985.605a7.848 7.848 0 0 0-2.422 1.648 7.602 7.602 0 0 0-2.225 5.435c0 1.033.192 2.018.577 2.957.385.939.92 1.76 1.605 2.464a7.729 7.729 0 0 0 2.422 1.676c.93.413 1.939.619 3.028.619zm15.911 0a7.379 7.379 0 0 0 4.252-1.337 7.581 7.581 0 0 0 1.592-1.507 7.83 7.83 0 0 0 1.112-1.915l-1.521-.253a6.28 6.28 0 0 1-2.154 2.562c-.948.657-2.042.986-3.281.986a5.96 5.96 0 0 1-2.38-.479 6.136 6.136 0 0 1-3.28-3.309 6.283 6.283 0 0 1-.479-2.464c0-.864.159-1.676.479-2.436a6.36 6.36 0 0 1 1.295-1.985 6.04 6.04 0 0 1 4.365-1.831c1.239 0 2.333.329 3.281.986a6.242 6.242 0 0 1 2.154 2.591l1.521-.282a7.818 7.818 0 0 0-1.098-1.901 7.402 7.402 0 0 0-5.858-2.83c-1.07 0-2.065.202-2.985.605a7.86 7.86 0 0 0-2.422 1.648 7.61 7.61 0 0 0-2.225 5.435c0 1.033.193 2.018.578 2.957a7.63 7.63 0 0 0 4.027 4.14c.929.413 1.938.619 3.027.619zm15.911 0c.732 0 1.446-.103 2.141-.309a7.993 7.993 0 0 0 1.929-.859 8.322 8.322 0 0 0 1.619-1.31 6.548 6.548 0 0 0 1.183-1.69l-1.493-.253a6.088 6.088 0 0 1-2.253 2.168 6.209 6.209 0 0 1-3.126.817 6.17 6.17 0 0 1-2.281-.422 5.96 5.96 0 0 1-1.887-1.183 6.009 6.009 0 0 1-1.323-1.816 6.302 6.302 0 0 1-.592-2.324h13.574c.038-.188.052-.399.042-.633a7.143 7.143 0 0 0-.07-.747 8.16 8.16 0 0 0-.788-2.661 7.43 7.43 0 0 0-3.887-3.647 7.223 7.223 0 0 0-2.788-.535c-1.07 0-2.065.202-2.985.605a7.86 7.86 0 0 0-2.422 1.648 7.626 7.626 0 0 0-2.225 5.435c0 1.07.198 2.07.592 2.999.394.93.934 1.746 1.619 2.45a7.534 7.534 0 0 0 2.422 1.662 7.438 7.438 0 0 0 2.999.605zm5.942-8.448h-12.025c.075-.77.277-1.493.606-2.169a5.91 5.91 0 0 1 1.295-1.76 6.123 6.123 0 0 1 4.154-1.619c.807 0 1.558.146 2.253.437a6.03 6.03 0 0 1 1.831 1.182 6.063 6.063 0 0 1 1.281 1.76c.328.676.53 1.399.605 2.169zm5.351 8.223V217h-1.549v19.713h1.549zm9.969.225c.732 0 1.446-.103 2.141-.309a7.993 7.993 0 0 0 1.929-.859 8.322 8.322 0 0 0 1.619-1.31 6.548 6.548 0 0 0 1.183-1.69l-1.493-.253a6.088 6.088 0 0 1-2.253 2.168 6.209 6.209 0 0 1-3.126.817 6.17 6.17 0 0 1-2.281-.422 5.96 5.96 0 0 1-1.887-1.183 6.009 6.009 0 0 1-1.323-1.816 6.302 6.302 0 0 1-.592-2.324h13.574c.038-.188.052-.399.042-.633a7.143 7.143 0 0 0-.07-.747 8.16 8.16 0 0 0-.788-2.661 7.43 7.43 0 0 0-3.887-3.647 7.223 7.223 0 0 0-2.788-.535c-1.07 0-2.065.202-2.985.605a7.86 7.86 0 0 0-2.422 1.648 7.626 7.626 0 0 0-2.225 5.435c0 1.07.198 2.07.592 2.999.394.93.934 1.746 1.619 2.45a7.534 7.534 0 0 0 2.422 1.662 7.438 7.438 0 0 0 2.999.605zm5.942-8.448h-12.025c.075-.77.277-1.493.606-2.169a5.91 5.91 0 0 1 1.295-1.76 6.123 6.123 0 0 1 4.154-1.619c.807 0 1.558.146 2.253.437a6.013 6.013 0 0 1 1.83 1.182 6.048 6.048 0 0 1 1.282 1.76c.328.676.53 1.399.605 2.169zm4.872 8.223v-7.463c0-1.107.165-2.07.493-2.886.329-.817.784-1.483 1.366-2a4.566 4.566 0 0 1 2.056-1.042c.788-.178 1.642-.164 2.562.043v-1.634c-1.614-.263-2.98-.08-4.097.549-1.117.629-1.91 1.591-2.38 2.887v-3.38h-1.549v14.926h1.549zm13.011.225c1.051 0 1.957-.169 2.717-.507.761-.337 1.394-.732 1.901-1.182.507-.451.906-.906 1.197-1.366.291-.46.493-.812.606-1.056v3.886h1.492V226.35c0-.751-.173-1.423-.521-2.014a4.773 4.773 0 0 0-1.408-1.507c-.591-.413-1.286-.732-2.084-.957a9.348 9.348 0 0 0-2.548-.338c-.789 0-1.549.089-2.281.268a6.448 6.448 0 0 0-1.944.802 4.577 4.577 0 0 0-1.379 1.338c-.357.535-.573 1.169-.648 1.901l1.521-.028c.093-.564.3-1.033.619-1.409a3.747 3.747 0 0 1 1.127-.901c.431-.225.91-.385 1.436-.478a8.934 8.934 0 0 1 1.577-.141c.676 0 1.314.075 1.915.225.601.15 1.136.376 1.605.676.469.3.84.681 1.112 1.14.273.46.409 1 .409 1.62v1.295l-5.069.028c-1.296 0-2.385.141-3.267.423-.882.281-1.582.647-2.098 1.098-.516.451-.883.962-1.098 1.535a4.536 4.536 0 0 0-.296 1.76c.037.695.202 1.305.493 1.83.291.526.68.967 1.168 1.324a5.45 5.45 0 0 0 1.69.817 7.282 7.282 0 0 0 2.056.281zm.084-1.38c-.507 0-.985-.061-1.436-.183a3.968 3.968 0 0 1-1.211-.549 3.237 3.237 0 0 1-.887-.901 2.541 2.541 0 0 1-.408-1.211 2.828 2.828 0 0 1 .169-1.225c.15-.422.427-.807.831-1.155.403-.347.966-.638 1.689-.873.723-.234 1.629-.352 2.718-.352h4.872c0 .883-.169 1.718-.507 2.507a6.498 6.498 0 0 1-1.38 2.056 6.58 6.58 0 0 1-2.028 1.38 5.973 5.973 0 0 1-2.422.506zm13.969.789c1.107.751 2.759.854 4.956.31v-1.493c-1.709.47-2.98.474-3.816.014-.835-.46-1.253-1.45-1.253-2.971v-9.04h5.125v-1.38h-5.125v-4.421h-1.521v4.421h-3.379v1.38h3.379l-.028 9.068c0 1.99.554 3.361 1.662 4.112zm13.517.591c.732 0 1.446-.103 2.14-.309a7.959 7.959 0 0 0 1.929-.859 8.299 8.299 0 0 0 1.62-1.31 6.52 6.52 0 0 0 1.182-1.69l-1.492-.253a6.103 6.103 0 0 1-2.253 2.168 6.211 6.211 0 0 1-3.126.817 6.167 6.167 0 0 1-2.281-.422 5.96 5.96 0 0 1-1.887-1.183 5.992 5.992 0 0 1-1.323-1.816 6.283 6.283 0 0 1-.592-2.324h13.574c.038-.188.052-.399.042-.633a7.424 7.424 0 0 0-.07-.747 8.162 8.162 0 0 0-.789-2.661 7.43 7.43 0 0 0-3.886-3.647 7.227 7.227 0 0 0-2.788-.535c-1.07 0-2.065.202-2.985.605a7.86 7.86 0 0 0-2.422 1.648 7.61 7.61 0 0 0-2.225 5.435c0 1.07.197 2.07.592 2.999.394.93.934 1.746 1.619 2.45a7.534 7.534 0 0 0 2.422 1.662 7.438 7.438 0 0 0 2.999.605zm5.942-8.448h-12.025c.075-.77.277-1.493.606-2.169a5.91 5.91 0 0 1 3.168-2.942 5.98 5.98 0 0 1 2.281-.437c.807 0 1.558.146 2.253.437a6.025 6.025 0 0 1 1.83 1.182 6.048 6.048 0 0 1 1.282 1.76c.328.676.53 1.399.605 2.169z" fill="#000"/>
    <path d="M162.128 221.757c1.479 0 2.79.365 3.934 1.094v-.769h4.791v14.34h-4.791v-.798c-1.144.729-2.455 1.094-3.934 1.094a6.776 6.776 0 0 1-3.564-.991 7.227 7.227 0 0 1-2.603-2.705c-.641-1.143-.961-2.405-.961-3.785 0-1.399.32-2.67.961-3.814a7.113 7.113 0 0 1 2.603-2.69 6.845 6.845 0 0 1 3.564-.976zm.693 4.23a3.217 3.217 0 1 0 0 6.435 3.219 3.219 0 1 0 0-6.435zm16.873 10.76c1.302 0 2.495-.261 3.579-.783 1.085-.523 1.957-1.252 2.618-2.188.66-.936 1.04-2.016 1.138-3.238h-4.525a2.464 2.464 0 0 1-.946 1.567c-.513.395-1.134.592-1.864.592-1.005 0-1.804-.326-2.395-.976-.592-.651-.888-1.478-.888-2.484 0-1.005.296-1.828.888-2.468.591-.641 1.39-.961 2.395-.961.73 0 1.351.197 1.864.591.512.394.828.917.946 1.567h4.525c-.098-1.222-.478-2.301-1.138-3.237-.661-.937-1.533-1.666-2.618-2.188-1.084-.523-2.277-.784-3.579-.784-1.498 0-2.839.32-4.022.961a7.158 7.158 0 0 0-2.795 2.676c-.68 1.143-1.02 2.424-1.02 3.843 0 1.439.34 2.73 1.02 3.874a7.149 7.149 0 0 0 2.795 2.675c1.183.641 2.524.961 4.022.961zm15.937 0c1.301 0 2.494-.261 3.579-.783 1.084-.523 1.957-1.252 2.617-2.188.661-.936 1.04-2.016 1.139-3.238h-4.525a2.465 2.465 0 0 1-.947 1.567c-.513.395-1.134.592-1.863.592-1.006 0-1.804-.326-2.396-.976-.591-.651-.887-1.478-.887-2.484 0-1.005.296-1.828.887-2.468.592-.641 1.39-.961 2.396-.961.729 0 1.35.197 1.863.591.513.394.828.917.947 1.567h4.525c-.099-1.222-.478-2.301-1.139-3.237-.66-.937-1.533-1.666-2.617-2.188-1.085-.523-2.278-.784-3.579-.784-1.499 0-2.839.32-4.023.961a7.156 7.156 0 0 0-2.794 2.676c-.681 1.143-1.021 2.424-1.021 3.843 0 1.439.34 2.73 1.021 3.874a7.146 7.146 0 0 0 2.794 2.675c1.184.641 2.524.961 4.023.961zm15.936 0c1.775 0 3.298-.433 4.57-1.301 1.244-.848 2.04-1.989 2.388-3.421.001-.006.009-.037.032-.199.023-.163.018-.317.024-.343h-4.593c-.005.007-.042.124-.086.245a1.709 1.709 0 0 1-.117.244 2.101 2.101 0 0 1-.857.725c-.375.177-.809.266-1.302.266-.867 0-1.572-.212-2.114-.636a3.162 3.162 0 0 1-1.109-1.67h10.178c.076-.657.114-1.229.114-1.715 0-1.419-.32-2.671-.961-3.755a6.694 6.694 0 0 0-2.632-2.528c-1.114-.601-2.362-.902-3.742-.902-1.498 0-2.829.32-3.993.961a6.73 6.73 0 0 0-2.691 2.661c-.631 1.133-.946 2.419-.946 3.858s.325 2.73.976 3.874c.65 1.143 1.572 2.035 2.765 2.675 1.193.641 2.558.961 4.096.961zm-3.224-8.899c.19-.816.565-1.455 1.123-1.917.559-.461 1.26-.692 2.104-.692.822 0 1.497.225 2.024.676.528.451.865 1.095 1.013 1.933h-6.264zm18.148 9.017c1.972 0 3.584-.413 4.836-1.241 1.252-.828 1.878-2.031 1.878-3.607 0-2.346-1.489-3.795-4.466-4.347l-2.692-.443c-.985-.178-1.478-.552-1.478-1.124 0-.295.152-.542.458-.739.306-.197.754-.295 1.346-.295.69 0 1.257.133 1.7.399.444.266.686.665.725 1.197h4.259c-.099-1.734-.799-2.996-2.1-3.784-1.301-.789-2.839-1.183-4.614-1.183-1.932 0-3.48.424-4.643 1.271-1.164.848-1.745 2.021-1.745 3.519 0 1.222.374 2.193 1.124 2.912.749.719 1.774 1.188 3.076 1.404l2.898.503c.454.079.799.207 1.035.384.237.178.355.385.355.621 0 .316-.182.562-.547.739-.365.178-.863.267-1.494.267-.769 0-1.395-.148-1.878-.444-.483-.296-.774-.749-.872-1.36l-4.259-.03c.138 1.814.853 3.164 2.144 4.051 1.292.887 2.943 1.33 4.954 1.33zm14.539 0c1.972 0 3.584-.413 4.836-1.241 1.252-.828 1.878-2.031 1.878-3.607 0-2.346-1.488-3.795-4.466-4.347l-2.691-.443c-.986-.178-1.479-.552-1.479-1.124 0-.295.153-.542.458-.739.306-.197.755-.295 1.346-.295.69 0 1.257.133 1.701.399.443.266.685.665.724 1.197h4.259c-.098-1.734-.798-2.996-2.1-3.784-1.301-.789-2.839-1.183-4.613-1.183-1.933 0-3.481.424-4.644 1.271-1.163.848-1.745 2.021-1.745 3.519 0 1.222.375 2.193 1.124 2.912.749.719 1.775 1.188 3.076 1.404l2.898.503c.454.079.799.207 1.036.384.236.178.354.385.354.621 0 .316-.182.562-.547.739-.364.178-.862.267-1.493.267-.769 0-1.395-.148-1.878-.444-.483-.296-.774-.749-.873-1.36l-4.259-.03c.138 1.814.853 3.164 2.144 4.051 1.292.887 2.943 1.33 4.954 1.33z" fill="#1F1F1F"/>
    <path d="M171.072 217.663h-15.306v2.296h15.306v-2.296z" fill="#FCC55C"/>
    <path d="M167.82 302h2.02l-5.62-13.8h-2.18l-5.62 13.8h1.96l1.34-3.34h6.76l1.34 3.34zm-7.42-5.04 2.7-6.78 2.7 6.78h-5.4zm15.805 5.28c2.02 0 3.74-1 4.66-2.56l-1.5-.9c-.62 1.08-1.78 1.8-3.16 1.8-2.1 0-3.66-1.58-3.66-3.68s1.56-3.68 3.66-3.68c1.38 0 2.54.72 3.16 1.8l1.5-.9c-.92-1.56-2.64-2.56-4.66-2.56-3.1 0-5.44 2.3-5.44 5.34s2.34 5.34 5.44 5.34zm11.426 0c2.02 0 3.74-1 4.66-2.56l-1.5-.9c-.62 1.08-1.78 1.8-3.16 1.8-2.1 0-3.66-1.58-3.66-3.68s1.56-3.68 3.66-3.68c1.38 0 2.54.72 3.16 1.8l1.5-.9c-.92-1.56-2.64-2.56-4.66-2.56-3.1 0-5.44 2.3-5.44 5.34s2.34 5.34 5.44 5.34zm16.665-5.34c0-3.06-2.28-5.34-5.32-5.34-3.06 0-5.36 2.28-5.36 5.3 0 3.06 2.38 5.38 5.58 5.38 1.98 0 3.66-.86 4.68-2.22l-1.18-1.02c-.66.94-1.94 1.66-3.44 1.66-1.98 0-3.44-1.22-3.78-3h8.78c.02-.24.04-.52.04-.76zm-5.34-3.76c1.8 0 3.2 1.2 3.52 2.96h-7.02c.32-1.74 1.72-2.96 3.5-2.96zm10.887 9.1c2.3 0 4.12-1.14 4.12-3.16 0-2.12-1.96-2.62-3.64-3.02-1.36-.32-2.52-.6-2.52-1.6 0-.88.98-1.34 2.16-1.34 1.12 0 2.08.44 2.76 1.1l.96-1.26c-.86-.78-2.12-1.4-3.74-1.4-2.1 0-3.9 1.02-3.9 3 0 2.14 1.98 2.66 3.66 3.08 1.34.32 2.48.62 2.48 1.6 0 .92-1.02 1.44-2.36 1.44-1.32 0-2.4-.5-3.16-1.28l-.96 1.24c.94.9 2.34 1.6 4.14 1.6zm9.609 0c2.3 0 4.12-1.14 4.12-3.16 0-2.12-1.96-2.62-3.64-3.02-1.36-.32-2.52-.6-2.52-1.6 0-.88.98-1.34 2.16-1.34 1.12 0 2.08.44 2.76 1.1l.96-1.26c-.86-.78-2.12-1.4-3.74-1.4-2.1 0-3.9 1.02-3.9 3 0 2.14 1.98 2.66 3.66 3.08 1.34.32 2.48.62 2.48 1.6 0 .92-1.02 1.44-2.36 1.44-1.32 0-2.4-.5-3.16-1.28l-.96 1.24c.94.9 2.34 1.6 4.14 1.6zm12.091-12.48c.64 0 1.14-.5 1.14-1.14 0-.66-.5-1.14-1.14-1.14-.66 0-1.16.48-1.16 1.14 0 .64.5 1.14 1.16 1.14zm-.86 12.24h1.72v-10.2h-1.72V302zm10.029-10.44c-1.6 0-2.88.64-3.68 1.8v-1.56h-1.72V302h1.72v-5.72c0-1.84 1.24-3.06 3.12-3.06 1.82 0 2.98 1.2 2.98 3.02V302h1.72v-6.3c0-2.5-1.66-4.14-4.14-4.14zm15.364-3.96v6.04c-.86-1.28-2.26-2.08-3.96-2.08-2.92 0-5.1 2.3-5.1 5.34s2.18 5.34 5.1 5.34c1.7 0 3.1-.8 3.96-2.08V302h1.72v-14.4h-1.72zm-3.64 12.98c-2.1 0-3.66-1.58-3.66-3.68s1.56-3.68 3.66-3.68c2.08 0 3.64 1.58 3.64 3.68s-1.56 3.68-3.64 3.68zm12.746 1.66c2.78 0 4.62-1.7 4.62-4.28v-6.16h-1.72v5.92c0 1.72-1.16 2.86-2.9 2.86s-2.9-1.14-2.9-2.86v-5.92h-1.72v6.16c0 2.58 1.84 4.28 4.62 4.28zm10.716 0c2.3 0 4.12-1.14 4.12-3.16 0-2.12-1.96-2.62-3.64-3.02-1.36-.32-2.52-.6-2.52-1.6 0-.88.98-1.34 2.16-1.34 1.12 0 2.08.44 2.76 1.1l.96-1.26c-.86-.78-2.12-1.4-3.74-1.4-2.1 0-3.9 1.02-3.9 3 0 2.14 1.98 2.66 3.66 3.08 1.34.32 2.48.62 2.48 1.6 0 .92-1.02 1.44-2.36 1.44-1.32 0-2.4-.5-3.16-1.28l-.96 1.24c.94.9 2.34 1.6 4.14 1.6zm11.876-8.88v-1.56h-3.06v-2.74h-1.72v2.74h-1.84v1.56h1.84v5.92c0 1.88 1.02 2.96 3 2.96.72 0 1.26-.14 1.78-.42v-1.62c-.42.22-.86.38-1.42.38-1.04 0-1.64-.48-1.64-1.58v-5.64h3.06zm7.406-1.72c-1.52 0-2.72.7-3.48 1.92v-1.76h-1.72V302h1.72v-5.1c0-2.12 1.32-3.48 3.48-3.48h.34v-1.78h-.34zm10.155.16-3.44 8.14-3.44-8.14h-1.98l4.44 10.14-.74 1.52c-.32.66-.78.92-1.3.92s-1.02-.26-1.36-.64l-.72 1.32c.6.6 1.54.98 2.34.98 1.1 0 2.1-.68 2.62-1.88l5.5-12.36h-1.92zm8.609 10.2h1.72v-14.4h-1.72V302zm14.649-5.1c0-3.06-2.28-5.34-5.32-5.34-3.06 0-5.36 2.28-5.36 5.3 0 3.06 2.38 5.38 5.58 5.38 1.98 0 3.66-.86 4.68-2.22l-1.18-1.02c-.66.94-1.94 1.66-3.44 1.66-1.98 0-3.44-1.22-3.78-3h8.78c.02-.24.04-.52.04-.76zm-5.34-3.76c1.8 0 3.2 1.2 3.52 2.96h-7.02c.32-1.74 1.72-2.96 3.5-2.96zm15.987-1.34v1.84c-.86-1.28-2.26-2.08-3.96-2.08-2.92 0-5.1 2.3-5.1 5.34s2.18 5.34 5.1 5.34c1.7 0 3.1-.8 3.96-2.08V302h1.72v-10.2h-1.72zm-3.64 8.78c-2.1 0-3.66-1.58-3.66-3.68s1.56-3.68 3.66-3.68c2.08 0 3.64 1.58 3.64 3.68s-1.56 3.68-3.64 3.68zm16.726-12.98v6.04c-.86-1.28-2.26-2.08-3.96-2.08-2.92 0-5.1 2.3-5.1 5.34s2.18 5.34 5.1 5.34c1.7 0 3.1-.8 3.96-2.08V302h1.72v-14.4h-1.72zm-3.64 12.98c-2.1 0-3.66-1.58-3.66-3.68s1.56-3.68 3.66-3.68c2.08 0 3.64 1.58 3.64 3.68s-1.56 3.68-3.64 3.68zm9.146-10.82c.64 0 1.14-.5 1.14-1.14 0-.66-.5-1.14-1.14-1.14-.66 0-1.16.48-1.16 1.14 0 .64.5 1.14 1.16 1.14zm-.86 12.24h1.72v-10.2h-1.72V302zm10.029-10.44c-1.6 0-2.88.64-3.68 1.8v-1.56h-1.72V302h1.72v-5.72c0-1.84 1.24-3.06 3.12-3.06 1.82 0 2.98 1.2 2.98 3.02V302h1.72v-6.3c0-2.5-1.66-4.14-4.14-4.14zm13.344 10.7h-3.74c-.86 0-1.44-.46-1.44-1.18 0-.44.24-.88.64-1.14.64.32 1.36.48 2.16.48 2.64 0 4.66-1.92 4.66-4.44 0-1.08-.36-2.04-1-2.8.02-.68.52-1.12 1.26-1.12h.68v-1.6h-.78c-1.24 0-2.12.68-2.32 1.76-.72-.42-1.56-.66-2.5-.66-2.66 0-4.66 1.9-4.66 4.42 0 1.3.54 2.44 1.4 3.24-.78.44-1.26 1.34-1.26 2.3 0 1.44 1.14 2.42 2.84 2.42h3.76c1.16 0 1.96.6 2 1.52l1.78-.46c-.2-1.7-1.56-2.74-3.48-2.74zm-2.38-9.06c1.64 0 2.88 1.2 2.88 2.78 0 1.6-1.24 2.8-2.88 2.8s-2.88-1.2-2.88-2.8c0-1.58 1.22-2.78 2.88-2.78zM160.8 330.24c2.3 0 4.12-1.14 4.12-3.16 0-2.12-1.96-2.62-3.64-3.02-1.36-.32-2.52-.6-2.52-1.6 0-.88.98-1.34 2.16-1.34 1.12 0 2.08.44 2.76 1.1l.96-1.26c-.86-.78-2.12-1.4-3.74-1.4-2.1 0-3.9 1.02-3.9 3 0 2.14 1.98 2.66 3.66 3.08 1.34.32 2.48.62 2.48 1.6 0 .92-1.02 1.44-2.36 1.44-1.32 0-2.4-.5-3.16-1.28l-.96 1.24c.94.9 2.34 1.6 4.14 1.6zm11.876-8.88v-1.56h-3.06v-2.74h-1.72v2.74h-1.84v1.56h1.84v5.92c0 1.88 1.02 2.96 3 2.96.72 0 1.26-.14 1.78-.42v-1.62c-.42.22-.86.38-1.42.38-1.04 0-1.64-.48-1.64-1.58v-5.64h3.06zm10.255-1.56v1.84c-.86-1.28-2.26-2.08-3.96-2.08-2.92 0-5.1 2.3-5.1 5.34s2.18 5.34 5.1 5.34c1.7 0 3.1-.8 3.96-2.08V330h1.72v-10.2h-1.72zm-3.64 8.78c-2.1 0-3.66-1.58-3.66-3.68s1.56-3.68 3.66-3.68c2.08 0 3.64 1.58 3.64 3.68s-1.56 3.68-3.64 3.68zm13.486-8.94c-1.52 0-2.72.7-3.48 1.92v-1.76h-1.72V330h1.72v-5.1c0-2.12 1.32-3.48 3.48-3.48h.34v-1.78h-.34zm8.2 1.72v-1.56h-3.06v-2.74h-1.72v2.74h-1.84v1.56h1.84v5.92c0 1.88 1.02 2.96 3 2.96.72 0 1.26-.14 1.78-.42v-1.62c-.42.22-.86.38-1.42.38-1.04 0-1.64-.48-1.64-1.58v-5.64h3.06zm6.666 8.88c2.78 0 4.62-1.7 4.62-4.28v-6.16h-1.72v5.92c0 1.72-1.16 2.86-2.9 2.86s-2.9-1.14-2.9-2.86v-5.92h-1.72v6.16c0 2.58 1.84 4.28 4.62 4.28zm13.056-10.68c-1.7 0-3.1.8-3.96 2.08v-1.84h-1.72v14h1.72v-5.64c.86 1.28 2.26 2.08 3.96 2.08 2.92 0 5.12-2.3 5.12-5.34s-2.2-5.34-5.12-5.34zm-.32 9.02c-2.08 0-3.64-1.58-3.64-3.68s1.56-3.68 3.64-3.68c2.1 0 3.66 1.58 3.66 3.68s-1.56 3.68-3.66 3.68zm11.066 1.66c2.3 0 4.12-1.14 4.12-3.16 0-2.12-1.96-2.62-3.64-3.02-1.36-.32-2.52-.6-2.52-1.6 0-.88.98-1.34 2.16-1.34 1.12 0 2.08.44 2.76 1.1l.96-1.26c-.86-.78-2.12-1.4-3.74-1.4-2.1 0-3.9 1.02-3.9 3 0 2.14 1.98 2.66 3.66 3.08 1.34.32 2.48.62 2.48 1.6 0 .92-1.02 1.44-2.36 1.44-1.32 0-2.4-.5-3.16-1.28l-.96 1.24c.94.9 2.34 1.6 4.14 1.6zm24.95-10.44-2.76 8.12-2.82-8.12h-1.76l-2.8 8.1-2.76-8.1h-1.94l3.74 10.2h1.8l2.82-8.16 2.82 8.16h1.8l3.74-10.2h-1.88zm4.542-2.04c.64 0 1.14-.5 1.14-1.14 0-.66-.5-1.14-1.14-1.14-.66 0-1.16.48-1.16 1.14 0 .64.5 1.14 1.16 1.14zm-.86 12.24h1.72v-10.2h-1.72V330zm10.509-8.64v-1.56h-3.06v-2.74h-1.72v2.74h-1.84v1.56h1.84v5.92c0 1.88 1.02 2.96 3 2.96.72 0 1.26-.14 1.78-.42v-1.62c-.42.22-.86.38-1.42.38-1.04 0-1.64-.48-1.64-1.58v-5.64h3.06zm7.606-1.8c-1.6 0-2.88.66-3.68 1.86v-5.82h-1.72V330h1.72v-5.72c0-1.84 1.24-3.06 3.12-3.06 1.82 0 2.98 1.2 2.98 3.02V330h1.72v-6.3c0-2.5-1.66-4.14-4.14-4.14zm16.306-2.62c.56 0 .98.14 1.4.36v-1.52c-.54-.28-1.04-.42-1.76-.42-1.98 0-3 1.1-3 3.02v1.42h-1.86v1.56h1.86V330h1.72v-8.64h2.94v-1.56h-2.94v-1.3c0-1.1.6-1.56 1.64-1.56zm7.735 13.3c2.78 0 4.62-1.7 4.62-4.28v-6.16h-1.72v5.92c0 1.72-1.16 2.86-2.9 2.86s-2.9-1.14-2.9-2.86v-5.92h-1.72v6.16c0 2.58 1.84 4.28 4.62 4.28zm7.375-.24h1.72v-14.4h-1.72V330zm4.629 0h1.72v-14.4h-1.72V330zm12.911.24c2.3 0 4.12-1.14 4.12-3.16 0-2.12-1.96-2.62-3.64-3.02-1.36-.32-2.52-.6-2.52-1.6 0-.88.98-1.34 2.16-1.34 1.12 0 2.08.44 2.76 1.1l.96-1.26c-.86-.78-2.12-1.4-3.74-1.4-2.1 0-3.9 1.02-3.9 3 0 2.14 1.98 2.66 3.66 3.08 1.34.32 2.48.62 2.48 1.6 0 .92-1.02 1.44-2.36 1.44-1.32 0-2.4-.5-3.16-1.28l-.96 1.24c.94.9 2.34 1.6 4.14 1.6zm16.309-5.34c0-3.06-2.28-5.34-5.32-5.34-3.06 0-5.36 2.28-5.36 5.3 0 3.06 2.38 5.38 5.58 5.38 1.98 0 3.66-.86 4.68-2.22l-1.18-1.02c-.66.94-1.94 1.66-3.44 1.66-1.98 0-3.44-1.22-3.78-3h8.78c.02-.24.04-.52.04-.76zm-5.34-3.76c1.8 0 3.2 1.2 3.52 2.96h-7.02c.32-1.74 1.72-2.96 3.5-2.96zm12.746-1.5c-1.52 0-2.72.7-3.48 1.92v-1.76h-1.72V330h1.72v-5.1c0-2.12 1.32-3.48 3.48-3.48h.34v-1.78h-.34zm10.156.16-3.44 8.14-3.44-8.14h-1.98l4.48 10.2h1.82l4.48-10.2h-1.92zm4.528-2.04c.64 0 1.14-.5 1.14-1.14 0-.66-.5-1.14-1.14-1.14-.66 0-1.16.48-1.16 1.14 0 .64.5 1.14 1.16 1.14zm-.86 12.24h1.72v-10.2h-1.72V330zm9.408.24c2.02 0 3.74-1 4.66-2.56l-1.5-.9c-.62 1.08-1.78 1.8-3.16 1.8-2.1 0-3.66-1.58-3.66-3.68s1.56-3.68 3.66-3.68c1.38 0 2.54.72 3.16 1.8l1.5-.9c-.92-1.56-2.64-2.56-4.66-2.56-3.1 0-5.44 2.3-5.44 5.34s2.34 5.34 5.44 5.34zm16.666-5.34c0-3.06-2.28-5.34-5.32-5.34-3.06 0-5.36 2.28-5.36 5.3 0 3.06 2.38 5.38 5.58 5.38 1.98 0 3.66-.86 4.68-2.22l-1.18-1.02c-.66.94-1.94 1.66-3.44 1.66-1.98 0-3.44-1.22-3.78-3h8.78c.02-.24.04-.52.04-.76zm-5.34-3.76c1.8 0 3.2 1.2 3.52 2.96h-7.02c.32-1.74 1.72-2.96 3.5-2.96zM163.14 347.56c-1.7 0-3.1.8-3.96 2.08v-1.84h-1.72v14h1.72v-5.64c.86 1.28 2.26 2.08 3.96 2.08 2.92 0 5.12-2.3 5.12-5.34s-2.2-5.34-5.12-5.34zm-.32 9.02c-2.08 0-3.64-1.58-3.64-3.68s1.56-3.68 3.64-3.68c2.1 0 3.66 1.58 3.66 3.68s-1.56 3.68-3.66 3.68zm12.926-8.94c-1.52 0-2.72.7-3.48 1.92v-1.76h-1.72V358h1.72v-5.1c0-2.12 1.32-3.48 3.48-3.48h.34v-1.78h-.34zm6.514 10.6c3.08 0 5.42-2.3 5.42-5.34s-2.34-5.34-5.42-5.34c-3.1 0-5.44 2.3-5.44 5.34s2.34 5.34 5.44 5.34zm0-1.66c-2.1 0-3.66-1.58-3.66-3.68s1.56-3.68 3.66-3.68c2.08 0 3.64 1.58 3.64 3.68s-1.56 3.68-3.64 3.68zm14.022 1.68h-3.74c-.86 0-1.44-.46-1.44-1.18 0-.44.24-.88.64-1.14.64.32 1.36.48 2.16.48 2.64 0 4.66-1.92 4.66-4.44 0-1.08-.36-2.04-1-2.8.02-.68.52-1.12 1.26-1.12h.68v-1.6h-.78c-1.24 0-2.12.68-2.32 1.76-.72-.42-1.56-.66-2.5-.66-2.66 0-4.66 1.9-4.66 4.42 0 1.3.54 2.44 1.4 3.24-.78.44-1.26 1.34-1.26 2.3 0 1.44 1.14 2.42 2.84 2.42h3.76c1.16 0 1.96.6 2 1.52l1.78-.46c-.2-1.7-1.56-2.74-3.48-2.74zm-2.38-9.06c1.64 0 2.88 1.2 2.88 2.78 0 1.6-1.24 2.8-2.88 2.8s-2.88-1.2-2.88-2.8c0-1.58 1.22-2.78 2.88-2.78zm12.391-1.56c-1.52 0-2.72.7-3.48 1.92v-1.76h-1.72V358h1.72v-5.1c0-2.12 1.32-3.48 3.48-3.48h.34v-1.78h-.34zm10.173.16v1.84c-.86-1.28-2.26-2.08-3.96-2.08-2.92 0-5.1 2.3-5.1 5.34s2.18 5.34 5.1 5.34c1.7 0 3.1-.8 3.96-2.08V358h1.72v-10.2h-1.72zm-3.64 8.78c-2.1 0-3.66-1.58-3.66-3.68s1.56-3.68 3.66-3.68c2.08 0 3.64 1.58 3.64 3.68s-1.56 3.68-3.64 3.68zm20.466-9.02c-1.64 0-2.94.72-3.7 2-.6-1.26-1.82-2-3.42-2-1.44 0-2.6.58-3.34 1.62v-1.38h-1.72V358h1.72v-6.06c0-1.64 1.12-2.72 2.78-2.72 1.62 0 2.66 1.06 2.66 2.68v6.1h1.72v-6.06c0-1.64 1.12-2.72 2.78-2.72 1.62 0 2.66 1.06 2.66 2.68v6.1h1.72v-6.58c0-2.34-1.52-3.86-3.86-3.86zm23.75 0c-1.64 0-2.94.72-3.7 2-.6-1.26-1.82-2-3.42-2-1.44 0-2.6.58-3.34 1.62v-1.38h-1.72V358h1.72v-6.06c0-1.64 1.12-2.72 2.78-2.72 1.62 0 2.66 1.06 2.66 2.68v6.1h1.72v-6.06c0-1.64 1.12-2.72 2.78-2.72 1.62 0 2.66 1.06 2.66 2.68v6.1h1.72v-6.58c0-2.34-1.52-3.86-3.86-3.86zm15.069.24v1.84c-.86-1.28-2.26-2.08-3.96-2.08-2.92 0-5.1 2.3-5.1 5.34s2.18 5.34 5.1 5.34c1.7 0 3.1-.8 3.96-2.08V358h1.72v-10.2h-1.72zm-3.64 8.78c-2.1 0-3.66-1.58-3.66-3.68s1.56-3.68 3.66-3.68c2.08 0 3.64 1.58 3.64 3.68s-1.56 3.68-3.64 3.68zm13.686-9.02c-1.6 0-2.88.64-3.68 1.8v-1.56h-1.72V358h1.72v-5.72c0-1.84 1.24-3.06 3.12-3.06 1.82 0 2.98 1.2 2.98 3.02V358h1.72v-6.3c0-2.5-1.66-4.14-4.14-4.14zm15.364.24v1.84c-.86-1.28-2.26-2.08-3.96-2.08-2.92 0-5.1 2.3-5.1 5.34s2.18 5.34 5.1 5.34c1.7 0 3.1-.8 3.96-2.08V358h1.72v-10.2h-1.72zm-3.64 8.78c-2.1 0-3.66-1.58-3.66-3.68s1.56-3.68 3.66-3.68c2.08 0 3.64 1.58 3.64 3.68s-1.56 3.68-3.64 3.68zm14.706 1.68h-3.74c-.86 0-1.44-.46-1.44-1.18 0-.44.24-.88.64-1.14.64.32 1.36.48 2.16.48 2.64 0 4.66-1.92 4.66-4.44 0-1.08-.36-2.04-1-2.8.02-.68.52-1.12 1.26-1.12h.68v-1.6h-.78c-1.24 0-2.12.68-2.32 1.76-.72-.42-1.56-.66-2.5-.66-2.66 0-4.66 1.9-4.66 4.42 0 1.3.54 2.44 1.4 3.24-.78.44-1.26 1.34-1.26 2.3 0 1.44 1.14 2.42 2.84 2.42h3.76c1.16 0 1.96.6 2 1.52l1.78-.46c-.2-1.7-1.56-2.74-3.48-2.74zm-2.38-9.06c1.64 0 2.88 1.2 2.88 2.78 0 1.6-1.24 2.8-2.88 2.8s-2.88-1.2-2.88-2.8c0-1.58 1.22-2.78 2.88-2.78zm17.113 3.7c0-3.06-2.28-5.34-5.32-5.34-3.06 0-5.36 2.28-5.36 5.3 0 3.06 2.38 5.38 5.58 5.38 1.98 0 3.66-.86 4.68-2.22l-1.18-1.02c-.66.94-1.94 1.66-3.44 1.66-1.98 0-3.44-1.22-3.78-3h8.78c.02-.24.04-.52.04-.76zm-5.34-3.76c1.8 0 3.2 1.2 3.52 2.96h-7.02c.32-1.74 1.72-2.96 3.5-2.96zm19.726-1.58c-1.64 0-2.94.72-3.7 2-.6-1.26-1.82-2-3.42-2-1.44 0-2.6.58-3.34 1.62v-1.38h-1.72V358h1.72v-6.06c0-1.64 1.12-2.72 2.78-2.72 1.62 0 2.66 1.06 2.66 2.68v6.1h1.72v-6.06c0-1.64 1.12-2.72 2.78-2.72 1.62 0 2.66 1.06 2.66 2.68v6.1h1.72v-6.58c0-2.34-1.52-3.86-3.86-3.86zm16.649 5.34c0-3.06-2.28-5.34-5.32-5.34-3.06 0-5.36 2.28-5.36 5.3 0 3.06 2.38 5.38 5.58 5.38 1.98 0 3.66-.86 4.68-2.22l-1.18-1.02c-.66.94-1.94 1.66-3.44 1.66-1.98 0-3.44-1.22-3.78-3h8.78c.02-.24.04-.52.04-.76zm-5.34-3.76c1.8 0 3.2 1.2 3.52 2.96h-7.02c.32-1.74 1.72-2.96 3.5-2.96zm12.947-1.58c-1.6 0-2.88.64-3.68 1.8v-1.56h-1.72V358h1.72v-5.72c0-1.84 1.24-3.06 3.12-3.06 1.82 0 2.98 1.2 2.98 3.02V358h1.72v-6.3c0-2.5-1.66-4.14-4.14-4.14zm12.237 1.8v-1.56h-3.06v-2.74h-1.72v2.74h-1.84v1.56h1.84v5.92c0 1.88 1.02 2.96 3 2.96.72 0 1.26-.14 1.78-.42v-1.62c-.42.22-.86.38-1.42.38-1.04 0-1.64-.48-1.64-1.58v-5.64h3.06zm3.086 8.78c.74 0 1.3-.56 1.3-1.28s-.56-1.28-1.3-1.28c-.72 0-1.28.56-1.28 1.28s.56 1.28 1.28 1.28z" fill="#B1B1B1"/>
    <rect x="146" y="93" width="99" height="99" rx="14" fill="#FCC55C"/>
    <defs>
        <filter id="a" x="0" y="0" width="576" height="679" filterUnits="userSpaceOnUse" color-interpolation-filters="sRGB">
            <feFlood flood-opacity="0" result="BackgroundImageFix"/>
            <feBlend in="SourceGraphic" in2="BackgroundImageFix" result="shape"/>
            <feGaussianBlur stdDeviation="75" result="effect1_foregroundBlur"/>
        </filter>
    </defs>
</svg>
