<svg width="375" height="359" fill="none" xmlns="http://www.w3.org/2000/svg">
    <g opacity=".3" filter="url(#a)">
        <rect x="93.264" y="92.94" width="189.365" height="173.06" rx="21.837" fill="#0F0941" fill-opacity=".5"/>
    </g>
    <rect x="90" y="86" width="196" height="180" rx="18.887" fill="#fff"/>
    <path d="M129.08 214h3.02l-5.3-13.8h-3.26l-5.32 13.8h2.98l.98-2.68h5.92l.98 2.68zm-5.98-5.22 2.04-5.54 2.02 5.54h-4.06zm15.004 5.46c2.06 0 3.78-1 4.7-2.54l-2.26-1.36c-.46.82-1.36 1.38-2.44 1.38-1.6 0-2.8-1.22-2.8-2.82 0-1.6 1.2-2.82 2.8-2.82 1.08 0 1.98.56 2.44 1.38l2.26-1.36c-.92-1.54-2.64-2.54-4.7-2.54-3.12 0-5.48 2.3-5.48 5.34s2.36 5.34 5.48 5.34zm11.016 0c2.06 0 3.78-1 4.7-2.54l-2.26-1.36c-.46.82-1.36 1.38-2.44 1.38-1.6 0-2.8-1.22-2.8-2.82 0-1.6 1.2-2.82 2.8-2.82 1.08 0 1.98.56 2.44 1.38l2.26-1.36c-.92-1.54-2.64-2.54-4.7-2.54-3.12 0-5.48 2.3-5.48 5.34s2.36 5.34 5.48 5.34zm11.851-10.6c-1.2 0-2.2.54-2.94 1.48v-1.32h-2.6V214h2.6v-4.84c0-1.74 1.08-2.84 2.94-2.84h.44v-2.68h-.44zm11.886 5.28c0-3.08-2.3-5.36-5.36-5.36-3.08 0-5.42 2.28-5.42 5.3 0 3.06 2.42 5.38 5.66 5.38 1.92 0 3.56-.78 4.62-2.04l-1.74-1.52c-.54.68-1.56 1.26-2.8 1.26-1.48 0-2.56-.82-2.92-2.1h7.9c.04-.28.06-.64.06-.92zm-5.38-3.08c1.26 0 2.28.82 2.6 2.1h-5.2c.32-1.26 1.32-2.1 2.6-2.1zm14.913-6.24v5.42c-.82-.9-1.96-1.46-3.32-1.46-2.84 0-4.98 2.3-4.98 5.34s2.14 5.34 4.98 5.34c1.36 0 2.5-.56 3.32-1.46V214h2.6v-14.4h-2.6zm-2.82 12.12c-1.6 0-2.8-1.22-2.8-2.82 0-1.6 1.2-2.82 2.8-2.82 1.62 0 2.82 1.22 2.82 2.82 0 1.6-1.2 2.82-2.82 2.82zm9.193-9.42c.92 0 1.64-.7 1.64-1.62 0-.92-.72-1.62-1.64-1.62-.92 0-1.64.7-1.64 1.62 0 .92.72 1.62 1.64 1.62zm-1.3 11.7h2.6v-10.2h-2.6V214zm11.358-7.82v-2.38h-2.74v-2.58h-2.6v2.58h-1.62v2.38h1.62v4.66c0 2.04 1.1 3.4 3.44 3.4.76 0 1.34-.14 1.9-.44v-2.42c-.38.18-.82.34-1.34.34-.92 0-1.4-.44-1.4-1.3v-4.24h2.74zm11.79 2.74c0-3.08-2.3-5.36-5.36-5.36-3.08 0-5.42 2.28-5.42 5.3 0 3.06 2.42 5.38 5.66 5.38 1.92 0 3.56-.78 4.62-2.04l-1.74-1.52c-.54.68-1.56 1.26-2.8 1.26-1.48 0-2.56-.82-2.92-2.1h7.9c.04-.28.06-.64.06-.92zm-5.38-3.08c1.26 0 2.28.82 2.6 2.1h-5.2c.32-1.26 1.32-2.1 2.6-2.1zm14.913-6.24v5.42c-.82-.9-1.96-1.46-3.32-1.46-2.84 0-4.98 2.3-4.98 5.34s2.14 5.34 4.98 5.34c1.36 0 2.5-.56 3.32-1.46V214h2.6v-14.4h-2.6zm-2.82 12.12c-1.6 0-2.8-1.22-2.8-2.82 0-1.6 1.2-2.82 2.8-2.82 1.62 0 2.82 1.22 2.82 2.82 0 1.6-1.2 2.82-2.82 2.82zM119.4 240h2.76v-13.8h-2.76V240zm11.246-10.44c-1.32 0-2.44.48-3.24 1.38v-1.14h-2.6V240h2.6v-5.6c0-1.4.96-2.32 2.38-2.32 1.36 0 2.24.9 2.24 2.28V240h2.6v-6.48c0-2.4-1.58-3.96-3.98-3.96zm12.96.24-2.64 6.94-2.66-6.94h-2.96l4.24 10.2h2.68l4.24-10.2h-2.9zm13.821 5.12c0-3.08-2.3-5.36-5.36-5.36-3.08 0-5.42 2.28-5.42 5.3 0 3.06 2.42 5.38 5.66 5.38 1.92 0 3.56-.78 4.62-2.04l-1.74-1.52c-.54.68-1.56 1.26-2.8 1.26-1.48 0-2.56-.82-2.92-2.1h7.9c.04-.28.06-.64.06-.92zm-5.38-3.08c1.26 0 2.28.82 2.6 2.1h-5.2c.32-1.26 1.32-2.1 2.6-2.1zm10.713 8.4c2.44 0 4.36-1.18 4.36-3.34 0-2.32-2.1-2.82-3.72-3.18-1.14-.24-2-.46-2-1.14 0-.6.72-.88 1.6-.88 1.04 0 1.9.38 2.64.94l1.26-1.74c-.92-.72-2.22-1.34-3.96-1.34-2.26 0-4.16 1.06-4.16 3.22 0 2.32 2.1 2.82 3.72 3.18 1.12.26 2 .5 2 1.18 0 .62-.76.96-1.8.96-1.22 0-2.2-.46-2.98-1.14l-1.26 1.72c.98.84 2.4 1.56 4.3 1.56zm12.194-8.06v-2.38h-2.74v-2.58h-2.6v2.58h-1.62v2.38h1.62v4.66c0 2.04 1.1 3.4 3.44 3.4.76 0 1.34-.14 1.9-.44v-2.42c-.38.18-.82.34-1.34.34-.92 0-1.4-.44-1.4-1.3v-4.24h2.74zm6.49 8.06c3.12 0 5.48-2.3 5.48-5.34s-2.36-5.34-5.48-5.34c-3.12 0-5.48 2.3-5.48 5.34s2.36 5.34 5.48 5.34zm0-2.52c-1.6 0-2.8-1.22-2.8-2.82 0-1.6 1.2-2.82 2.8-2.82 1.62 0 2.8 1.22 2.8 2.82 0 1.6-1.18 2.82-2.8 2.82zm12.887-8.08c-1.2 0-2.2.54-2.94 1.48v-1.32h-2.6V240h2.6v-4.84c0-1.74 1.08-2.84 2.94-2.84h.44v-2.68h-.44zm5.48 10.6c2.44 0 4.36-1.18 4.36-3.34 0-2.32-2.1-2.82-3.72-3.18-1.14-.24-2-.46-2-1.14 0-.6.72-.88 1.6-.88 1.04 0 1.9.38 2.64.94l1.26-1.74c-.92-.72-2.22-1.34-3.96-1.34-2.26 0-4.16 1.06-4.16 3.22 0 2.32 2.1 2.82 3.72 3.18 1.12.26 2 .5 2 1.18 0 .62-.76.96-1.8.96-1.22 0-2.2-.46-2.98-1.14l-1.26 1.72c.98.84 2.4 1.56 4.3 1.56z" fill="#131313"/>
    <circle cx="262" cy="111" r="2" fill="#C4C4C4"/>
    <circle cx="262" cy="120" r="2" fill="#C4C4C4"/>
    <circle cx="262" cy="129" r="2" fill="#C4C4C4"/>
    <circle cx="152" cy="144.5" r="38.5" fill="#F9E4EA"/>
    <path d="M129.561 142h1.585l-2.782-7.245h-1.712L123.859 142h1.565l.514-1.407h3.108l.515 1.407zm-3.14-2.741 1.071-2.908 1.061 2.908h-2.132zm7.877 2.867c1.082 0 1.985-.525 2.468-1.334l-1.187-.714a1.447 1.447 0 0 1-1.281.725c-.84 0-1.47-.641-1.47-1.481 0-.84.63-1.48 1.47-1.48.567 0 1.04.294 1.281.724l1.187-.714c-.483-.808-1.386-1.333-2.468-1.333-1.638 0-2.877 1.207-2.877 2.803 0 1.596 1.239 2.804 2.877 2.804zm5.783 0c1.082 0 1.985-.525 2.468-1.334l-1.187-.714a1.447 1.447 0 0 1-1.281.725c-.84 0-1.47-.641-1.47-1.481 0-.84.63-1.48 1.47-1.48.567 0 1.04.294 1.281.724l1.187-.714c-.483-.808-1.386-1.333-2.468-1.333-1.638 0-2.877 1.207-2.877 2.803 0 1.596 1.239 2.804 2.877 2.804zm6.223-5.565c-.63 0-1.155.283-1.544.777v-.693h-1.365V142h1.365v-2.541c0-.914.567-1.491 1.544-1.491h.231v-1.407h-.231zm6.24 2.772c0-1.617-1.208-2.814-2.814-2.814-1.617 0-2.846 1.197-2.846 2.783 0 1.606 1.271 2.824 2.972 2.824 1.008 0 1.869-.41 2.425-1.071l-.913-.798c-.284.357-.819.661-1.47.661-.777 0-1.344-.43-1.533-1.102h4.147c.021-.147.032-.336.032-.483zm-2.825-1.617c.662 0 1.197.43 1.365 1.102h-2.73c.168-.661.693-1.102 1.365-1.102zm7.829-3.276v2.845a2.312 2.312 0 0 0-1.743-.766c-1.491 0-2.614 1.207-2.614 2.803 0 1.596 1.123 2.804 2.614 2.804a2.31 2.31 0 0 0 1.743-.767V142h1.365v-7.56h-1.365zm-1.48 6.363c-.84 0-1.47-.641-1.47-1.481 0-.84.63-1.48 1.47-1.48.85 0 1.48.64 1.48 1.48s-.63 1.481-1.48 1.481zm4.826-4.946a.842.842 0 0 0 .861-.85.843.843 0 0 0-.861-.851.843.843 0 0 0-.861.851c0 .483.378.85.861.85zm-.682 6.143h1.365v-5.355h-1.365V142zm5.963-4.106v-1.249h-1.439v-1.355h-1.365v1.355h-.85v1.249h.85v2.447c0 1.071.578 1.785 1.806 1.785.399 0 .704-.073.998-.231v-1.271c-.2.095-.431.179-.704.179-.483 0-.735-.231-.735-.683v-2.226h1.439zm6.189 1.439c0-1.617-1.207-2.814-2.814-2.814-1.617 0-2.845 1.197-2.845 2.783 0 1.606 1.27 2.824 2.971 2.824 1.008 0 1.869-.41 2.426-1.071l-.914-.798c-.283.357-.819.661-1.47.661-.777 0-1.344-.43-1.533-1.102h4.148a3.73 3.73 0 0 0 .031-.483zm-2.824-1.617c.661 0 1.197.43 1.365 1.102h-2.73c.168-.661.693-1.102 1.365-1.102zm7.829-3.276v2.845a2.312 2.312 0 0 0-1.743-.766c-1.491 0-2.614 1.207-2.614 2.803 0 1.596 1.123 2.804 2.614 2.804a2.31 2.31 0 0 0 1.743-.767V142h1.365v-7.56h-1.365zm-1.48 6.363c-.84 0-1.47-.641-1.47-1.481 0-.84.63-1.48 1.47-1.48.85 0 1.48.64 1.48 1.48s-.63 1.481-1.48 1.481zM129.544 156h1.449v-7.245h-1.449V156zm5.904-5.481c-.693 0-1.281.252-1.701.724v-.598h-1.365V156h1.365v-2.94c0-.735.504-1.218 1.25-1.218.714 0 1.176.472 1.176 1.197V156h1.365v-3.402c0-1.26-.83-2.079-2.09-2.079zm6.804.126-1.386 3.643-1.396-3.643h-1.554l2.226 5.355h1.407l2.226-5.355h-1.523zm7.256 2.688c0-1.617-1.207-2.814-2.814-2.814-1.617 0-2.845 1.197-2.845 2.783 0 1.606 1.27 2.824 2.971 2.824 1.008 0 1.869-.41 2.426-1.071l-.914-.798c-.283.357-.819.661-1.47.661-.777 0-1.344-.43-1.533-1.102h4.148a3.73 3.73 0 0 0 .031-.483zm-2.824-1.617c.661 0 1.197.43 1.365 1.102h-2.73c.168-.661.693-1.102 1.365-1.102zm5.624 4.41c1.281 0 2.289-.62 2.289-1.754 0-1.218-1.102-1.48-1.953-1.669-.598-.126-1.05-.242-1.05-.599 0-.315.378-.462.84-.462.546 0 .998.2 1.386.494l.662-.914a3.302 3.302 0 0 0-2.079-.703c-1.187 0-2.184.556-2.184 1.69 0 1.218 1.102 1.481 1.953 1.67.588.136 1.05.262 1.05.619 0 .326-.399.504-.945.504a2.324 2.324 0 0 1-1.565-.598l-.661.903c.514.441 1.26.819 2.257.819zm6.402-4.232v-1.249h-1.439v-1.355h-1.365v1.355h-.85v1.249h.85v2.447c0 1.071.578 1.785 1.806 1.785.399 0 .704-.073.998-.231v-1.271c-.2.095-.431.179-.704.179-.483 0-.735-.231-.735-.683v-2.226h1.439zm3.407 4.232c1.638 0 2.877-1.208 2.877-2.804 0-1.596-1.239-2.803-2.877-2.803-1.638 0-2.877 1.207-2.877 2.803 0 1.596 1.239 2.804 2.877 2.804zm0-1.323c-.84 0-1.47-.641-1.47-1.481 0-.84.63-1.48 1.47-1.48.851 0 1.47.64 1.47 1.48s-.619 1.481-1.47 1.481zm6.766-4.242c-.63 0-1.155.283-1.544.777v-.693h-1.365V156h1.365v-2.541c0-.914.567-1.491 1.544-1.491h.231v-1.407h-.231zm2.877 5.565c1.281 0 2.289-.62 2.289-1.754 0-1.218-1.103-1.48-1.953-1.669-.599-.126-1.05-.242-1.05-.599 0-.315.378-.462.84-.462.546 0 .997.2 1.386.494l.661-.914a3.3 3.3 0 0 0-2.079-.703c-1.186 0-2.184.556-2.184 1.69 0 1.218 1.103 1.481 1.953 1.67.588.136 1.05.262 1.05.619 0 .326-.399.504-.945.504-.64 0-1.155-.241-1.564-.598l-.662.903a3.4 3.4 0 0 0 2.258.819z" fill="#182542"/>
    <defs>
        <filter id="a" x=".927" y=".603" width="374.039" height="357.734" filterUnits="userSpaceOnUse" color-interpolation-filters="sRGB">
            <feFlood flood-opacity="0" result="BackgroundImageFix"/>
            <feBlend in="SourceGraphic" in2="BackgroundImageFix" result="shape"/>
            <feGaussianBlur stdDeviation="46.169" result="effect1_foregroundBlur"/>
        </filter>
    </defs>
</svg>
