<svg width="354" height="137" fill="none" xmlns="http://www.w3.org/2000/svg">
    <g filter="url(#a)">
        <path fill="#090A42" fill-opacity=".4" d="M50 50h254v37H50z"/>
    </g>
    <path fill="#99C2DE" d="M42 40h270v55H42z"/>
    <path d="M102.514 73.24c3.02 0 5.38-1.7 5.38-4.18 0-3.16-3.78-4.1-5.06-4.36-1.28-.28-2.72-.74-2.72-1.8 0-.86.98-1.48 2.36-1.48s2.76.58 3.54 1.34l1.28-2.08c-1.02-1-2.72-1.72-4.78-1.72-3.1 0-5.24 1.6-5.24 4.06 0 2.42 2.16 3.68 4.8 4.3 1.42.34 2.98.7 2.98 1.86 0 .96-1.16 1.6-2.54 1.6-1.56 0-3.2-.74-4.32-1.8l-1.42 2.1c1.4 1.3 3.62 2.16 5.74 2.16zm12.873-10.68c-1.32 0-2.44.5-3.24 1.44v-5.4h-2.6V73h2.6v-5.6c0-1.4.96-2.32 2.4-2.32 1.34 0 2.22.9 2.22 2.28V73h2.6v-6.48c0-2.4-1.58-3.96-3.98-3.96zm14.028.24v1.22c-.82-.9-1.96-1.46-3.32-1.46-2.84 0-4.98 2.3-4.98 5.34s2.14 5.34 4.98 5.34c1.36 0 2.5-.56 3.32-1.46V73h2.6V62.8h-2.6zm-2.82 7.92c-1.6 0-2.8-1.22-2.8-2.82 0-1.6 1.2-2.82 2.8-2.82 1.62 0 2.82 1.22 2.82 2.82 0 1.6-1.2 2.82-2.82 2.82zm13.433-8.08c-1.2 0-2.2.54-2.94 1.48V62.8h-2.6V73h2.6v-4.84c0-1.74 1.08-2.84 2.94-2.84h.44v-2.68h-.44zm11.886 5.28c0-3.08-2.3-5.36-5.36-5.36-3.08 0-5.42 2.28-5.42 5.3 0 3.06 2.42 5.38 5.66 5.38 1.92 0 3.56-.78 4.62-2.04l-1.74-1.52c-.54.68-1.56 1.26-2.8 1.26-1.48 0-2.56-.82-2.92-2.1h7.9c.04-.28.06-.64.06-.92zm-5.38-3.08c1.26 0 2.28.82 2.6 2.1h-5.2c.32-1.26 1.32-2.1 2.6-2.1zm18.483 8.4c2.58 0 4.8-1.2 6.08-3.1l-2.38-1.48c-.8 1.18-2.14 1.92-3.7 1.92-2.52 0-4.44-1.92-4.44-4.48 0-2.56 1.92-4.48 4.44-4.48 1.56 0 2.9.74 3.7 1.92l2.38-1.48c-1.28-1.9-3.5-3.1-6.08-3.1-4.14 0-7.28 3.08-7.28 7.14s3.14 7.14 7.28 7.14zm15.316-10.44v1.22c-.82-.9-1.96-1.46-3.32-1.46-2.84 0-4.98 2.3-4.98 5.34s2.14 5.34 4.98 5.34c1.36 0 2.5-.56 3.32-1.46V73h2.6V62.8h-2.6zm-2.82 7.92c-1.6 0-2.8-1.22-2.8-2.82 0-1.6 1.2-2.82 2.8-2.82 1.62 0 2.82 1.22 2.82 2.82 0 1.6-1.2 2.82-2.82 2.82zm20.193-8.16c-1.48 0-2.66.58-3.48 1.66-.64-1.04-1.76-1.66-3.2-1.66-1.24 0-2.26.44-3.02 1.3V62.8h-2.6V73h2.6v-5.82c0-1.26.88-2.1 2.14-2.1 1.22 0 2.02.82 2.02 2.06V73h2.6v-5.82c0-1.26.86-2.1 2.14-2.1 1.22 0 2 .82 2 2.06V73h2.6v-6.64c0-2.3-1.5-3.8-3.8-3.8zm12.038 0c-1.36 0-2.5.54-3.32 1.46V62.8h-2.6v14h2.6v-5.02c.82.92 1.96 1.46 3.32 1.46 2.84 0 4.96-2.3 4.96-5.34s-2.12-5.34-4.96-5.34zm-.52 8.16c-1.6 0-2.8-1.22-2.8-2.82 0-1.6 1.2-2.82 2.8-2.82 1.62 0 2.8 1.22 2.8 2.82 0 1.6-1.18 2.82-2.8 2.82zm15.113-7.92v1.22c-.82-.9-1.96-1.46-3.32-1.46-2.84 0-4.98 2.3-4.98 5.34s2.14 5.34 4.98 5.34c1.36 0 2.5-.56 3.32-1.46V73h2.6V62.8h-2.6zm-2.82 7.92c-1.6 0-2.8-1.22-2.8-2.82 0-1.6 1.2-2.82 2.8-2.82 1.62 0 2.82 1.22 2.82 2.82 0 1.6-1.2 2.82-2.82 2.82zm9.193-9.42c.92 0 1.64-.7 1.64-1.62 0-.92-.72-1.62-1.64-1.62-.92 0-1.64.7-1.64 1.62 0 .92.72 1.62 1.64 1.62zm-1.3 11.7h2.6V62.8h-2.6V73zm11.558 0h-3.32c-.64 0-1.08-.36-1.08-.86 0-.34.2-.68.52-.88.52.16 1.08.26 1.68.26 2.72 0 4.8-1.92 4.8-4.48 0-1-.32-1.92-.88-2.64.1-.46.52-.74 1.04-.74h.72v-2.4h-.84c-1.34 0-2.32.68-2.62 1.78-.66-.3-1.4-.48-2.22-.48-2.74 0-4.78 1.92-4.78 4.48 0 1.28.5 2.38 1.36 3.18-.84.52-1.38 1.52-1.38 2.56 0 1.62 1.26 2.72 3.16 2.72h3.34c.92 0 1.54.48 1.62 1.22l2.68-.72c-.34-1.88-1.78-3-3.8-3zm-2.2-7.98c1.2 0 2.12.86 2.12 2.02 0 1.16-.92 2.02-2.12 2.02-1.22 0-2.12-.86-2.12-2.02 0-1.16.9-2.02 2.12-2.02zm12.849-2.46c-1.32 0-2.44.48-3.24 1.38V62.8h-2.6V73h2.6v-5.6c0-1.4.96-2.32 2.38-2.32 1.36 0 2.24.9 2.24 2.28V73h2.6v-6.48c0-2.4-1.58-3.96-3.98-3.96z" fill="#000"/>
    <defs>
        <filter id="a" x="0" y="0" width="354" height="137" filterUnits="userSpaceOnUse" color-interpolation-filters="sRGB">
            <feFlood flood-opacity="0" result="BackgroundImageFix"/>
            <feBlend in="SourceGraphic" in2="BackgroundImageFix" result="shape"/>
            <feGaussianBlur stdDeviation="25" result="effect1_foregroundBlur"/>
        </filter>
    </defs>
</svg>
