<svg width="76" height="24" fill="none" xmlns="http://www.w3.org/2000/svg">
    <path d="M0 11.773C0 5.27 5.27 0 11.773 0h52.324C70.599 0 75.87 5.27 75.87 11.773c0 6.502-5.271 11.773-11.773 11.773H11.773C5.27 23.546 0 18.275 0 11.773z" fill="#E8FD7D"/>
    <path d="M14.55 15.232h1.444v-7.22H14.55v7.22zm7.14-5.462c-.69 0-1.276.251-1.695.722v-.597h-1.36v5.337h1.36v-2.93c0-.732.503-1.214 1.246-1.214.711 0 1.172.471 1.172 1.193v2.951h1.36v-3.39c0-1.256-.827-2.072-2.082-2.072zm8.037.125-1.38 3.632-1.393-3.632h-1.549l2.219 5.337h1.402l2.219-5.337h-1.518zm8.488 2.68c0-1.612-1.203-2.805-2.805-2.805-1.611 0-2.835 1.193-2.835 2.773 0 1.601 1.266 2.815 2.961 2.815 1.005 0 1.863-.408 2.417-1.067l-.91-.796c-.283.356-.816.66-1.465.66-.775 0-1.34-.43-1.528-1.1h4.134c.02-.146.031-.334.031-.48zM35.4 10.962c.66 0 1.193.429 1.36 1.099h-2.72c.167-.66.69-1.1 1.36-1.1zm6.861 4.395c1.277 0 2.281-.617 2.281-1.748 0-1.213-1.098-1.475-1.946-1.663-.597-.126-1.047-.241-1.047-.597 0-.314.377-.46.838-.46.544 0 .994.198 1.381.491l.66-.91a3.29 3.29 0 0 0-2.073-.701c-1.182 0-2.176.554-2.176 1.685 0 1.213 1.098 1.475 1.946 1.663.586.137 1.047.262 1.047.618 0 .324-.398.502-.942.502-.639 0-1.151-.24-1.56-.596l-.659.9c.513.44 1.256.816 2.25.816zm7.636-4.217V9.895h-1.434v-1.35h-1.36v1.35h-.848v1.246h.848v2.438c0 1.067.575 1.779 1.8 1.779.398 0 .701-.073.994-.23V13.86c-.199.095-.43.178-.701.178-.481 0-.733-.23-.733-.68v-2.218h1.434zm4.652 4.217c1.632 0 2.867-1.204 2.867-2.794S56.181 9.77 54.549 9.77c-1.633 0-2.868 1.203-2.868 2.794 0 1.59 1.235 2.794 2.868 2.794zm0-1.319c-.837 0-1.465-.638-1.465-1.475 0-.837.627-1.476 1.465-1.476.847 0 1.465.639 1.465 1.476s-.618 1.475-1.465 1.475zm7.998-4.227c-.627 0-1.15.282-1.538.774v-.69h-1.36v5.336h1.36V12.7c0-.91.565-1.486 1.538-1.486h.23V9.812h-.23z" fill="#131313"/>
</svg>
