<svg width="467" height="526" fill="none" xmlns="http://www.w3.org/2000/svg">
    <g opacity=".2" filter="url(#a)">
        <path d="M60.684 77.664c0-9.27 7.514-16.785 16.784-16.785h312.05c9.27 0 16.784 7.515 16.784 16.785v370.71c0 9.269-7.514 16.784-16.784 16.784H77.468c-9.27 0-16.784-7.515-16.784-16.784V77.664z" fill="#0F0941" fill-opacity=".8"/>
    </g>
    <rect x="48" y="26" width="370.985" height="439.158" rx="14.387" fill="#fff"/>
    <path d="M154.98 69h2.539l-2.198-3.454c1.161-.45 1.939-1.488 1.939-2.813 0-1.802-1.406-3.153-3.277-3.153h-4.082V69h2.116v-3.222h1.024L154.98 69zm-2.963-7.427h1.925c.656 0 1.147.505 1.147 1.188 0 .669-.491 1.174-1.147 1.174h-1.925v-2.362zM167.836 69h2.321l-3.55-9.42h-2.498L160.573 69h2.266l.587-1.652h3.823l.587 1.652zm-3.727-3.604 1.228-3.482 1.229 3.482h-2.457zM173.894 69h2.117v-9.42h-2.117V69zm10.009.164c2.103 0 3.727-1.174 3.727-2.908 0-2.198-2.635-2.854-3.467-3.031-.86-.178-1.721-.464-1.721-1.079 0-.491.601-.846 1.448-.846.887 0 1.815.369 2.361.887l.983-1.61c-.696-.67-1.884-1.161-3.331-1.161-2.171 0-3.631 1.12-3.631 2.812 0 1.666 1.406 2.553 3.29 3.004.997.246 1.898.464 1.898 1.12 0 .56-.724.928-1.57.928-.997 0-2.13-.492-2.895-1.202l-1.092 1.611c.983.888 2.539 1.475 4 1.475zm7.612-.164h2.116v-9.42h-2.116V69zm12.698-9.42v5.761l-3.918-5.761h-2.13V69h2.116v-5.761L204.186 69h2.143v-9.42h-2.116zm11.298 4.027v1.884h2.321c-.301.983-1.256 1.652-2.444 1.652-1.611 0-2.84-1.228-2.84-2.853 0-1.625 1.229-2.854 2.854-2.854.942 0 1.761.41 2.28 1.052l1.597-1.27c-.847-1.106-2.28-1.802-3.918-1.802-2.84 0-4.984 2.102-4.984 4.874 0 2.771 2.117 4.874 4.943 4.874 2.758 0 4.778-2.048 4.778-4.833v-.724h-4.587zM229.157 69h2.539l-2.198-3.454c1.161-.45 1.939-1.488 1.939-2.813 0-1.802-1.406-3.153-3.277-3.153h-4.082V69h2.116v-3.222h1.024L229.157 69zm-2.963-7.427h1.925c.656 0 1.147.505 1.147 1.188 0 .669-.491 1.174-1.147 1.174h-1.925v-2.362zM235.502 69h2.116v-9.42h-2.116V69zm11.319-5.393v1.884h2.321c-.3.983-1.256 1.652-2.444 1.652-1.611 0-2.84-1.228-2.84-2.853 0-1.625 1.229-2.854 2.854-2.854.942 0 1.761.41 2.28 1.052l1.597-1.27c-.846-1.106-2.28-1.802-3.918-1.802-2.84 0-4.983 2.102-4.983 4.874 0 2.771 2.116 4.874 4.942 4.874 2.758 0 4.778-2.048 4.778-4.833v-.724h-4.587zm14.465-4.027v3.686h-3.781V59.58h-2.116V69h2.116v-3.74h3.781V69h2.117v-9.42h-2.117zm13.445 0h-7.359v1.993h2.621V69h2.116v-7.427h2.622V59.58zm4.66 5.242c.792 0 1.379-.587 1.379-1.351 0-.778-.587-1.365-1.379-1.365-.778 0-1.365.587-1.365 1.365 0 .764.587 1.351 1.365 1.351zm0 4.314c.792 0 1.379-.587 1.379-1.365 0-.764-.587-1.351-1.379-1.351-.778 0-1.365.587-1.365 1.351 0 .778.587 1.365 1.365 1.365zm14.583.028c2.103 0 3.728-1.174 3.728-2.908 0-2.198-2.635-2.854-3.468-3.031-.86-.178-1.72-.464-1.72-1.079 0-.491.6-.846 1.447-.846.887 0 1.816.369 2.362.887l.983-1.61c-.697-.67-1.884-1.161-3.332-1.161-2.17 0-3.631 1.12-3.631 2.812 0 1.666 1.406 2.553 3.29 3.004.997.246 1.898.464 1.898 1.12 0 .56-.724.928-1.57.928-.997 0-2.13-.492-2.895-1.202l-1.092 1.611c.983.888 2.54 1.475 4 1.475zm14.198-9.584h-7.359v1.993h2.621V69h2.116v-7.427h2.622V59.58zm9.149 9.42h2.321l-3.55-9.42h-2.498L310.058 69h2.266l.587-1.652h3.823l.587 1.652zm-3.727-3.604 1.228-3.482 1.229 3.482h-2.457zM328.458 69h2.54l-2.199-3.454c1.161-.45 1.939-1.488 1.939-2.813 0-1.802-1.406-3.153-3.277-3.153h-4.082V69h2.117v-3.222h1.023L328.458 69zm-2.962-7.427h1.925c.655 0 1.146.505 1.146 1.188 0 .669-.491 1.174-1.146 1.174h-1.925v-2.362zm15.866-1.993h-7.359v1.993h2.621V69h2.116v-7.427h2.622V59.58zm7.739 9.584c2.225 0 3.932-1.639 3.932-3.823V59.58h-2.116v5.734c0 1.037-.778 1.816-1.816 1.816-1.051 0-1.816-.779-1.816-1.816V59.58h-2.116v5.761c0 2.184 1.693 3.823 3.932 3.823zm12.473-9.584h-4.191V69h2.116v-3.004h2.075c1.884 0 3.304-1.378 3.304-3.208 0-1.83-1.42-3.208-3.304-3.208zm-.041 4.423h-2.034v-2.43h2.034c.669 0 1.174.519 1.174 1.215 0 .683-.505 1.215-1.174 1.215zm-205.447 15.57V77.58h-6.185V87h2.116v-3.645h3.536v-1.993h-3.536v-1.789h4.069zm7.767 7.59c2.225 0 3.932-1.638 3.932-3.822V77.58h-2.117v5.734c0 1.037-.778 1.816-1.815 1.816-1.052 0-1.816-.779-1.816-1.816V77.58h-2.116v5.761c0 2.184 1.693 3.823 3.932 3.823zm14.33-9.583v5.761l-3.919-5.761h-2.13V87h2.117v-5.761L178.155 87h2.144v-9.42h-2.116zm10.342 0h-3.714V87h3.714c2.744 0 4.805-2.02 4.805-4.71s-2.061-4.71-4.805-4.71zm-.055 7.427h-1.543v-5.434h1.543c1.543 0 2.69 1.174 2.69 2.717 0 1.543-1.147 2.717-2.69 2.717zM197.394 87h2.117v-9.42h-2.117V87zm12.699-9.42v5.761l-3.918-5.761h-2.13V87h2.116v-5.761L210.065 87h2.144v-9.42h-2.116zm11.298 4.027v1.884h2.32c-.3.983-1.256 1.652-2.443 1.652-1.611 0-2.84-1.228-2.84-2.853 0-1.625 1.229-2.854 2.853-2.854.942 0 1.761.41 2.28 1.052l1.598-1.27c-.847-1.106-2.28-1.802-3.919-1.802-2.839 0-4.983 2.102-4.983 4.874 0 2.771 2.116 4.874 4.942 4.874 2.758 0 4.779-2.048 4.779-4.833v-.724h-4.587zm20.482-2.034V77.58h-6.185V87h2.116v-3.645h3.536v-1.993h-3.536v-1.789h4.069zm8.384 7.59c2.826 0 4.984-2.102 4.984-4.873 0-2.772-2.158-4.874-4.984-4.874-2.839 0-4.983 2.102-4.983 4.874 0 2.771 2.144 4.874 4.983 4.874zm0-2.033c-1.597 0-2.812-1.215-2.812-2.84 0-1.625 1.215-2.84 2.812-2.84 1.598 0 2.813 1.215 2.813 2.84 0 1.624-1.215 2.84-2.813 2.84zM264.374 87h2.539l-2.198-3.454c1.16-.45 1.939-1.488 1.939-2.813 0-1.802-1.407-3.153-3.277-3.153h-4.082V87h2.116v-3.222h1.024L264.374 87zm-2.963-7.427h1.925c.655 0 1.147.505 1.147 1.188 0 .669-.492 1.174-1.147 1.174h-1.925v-2.362zm21.222 0V77.58h-6.184V87h2.116v-3.645h3.536v-1.993h-3.536v-1.789h4.068zm8.385 7.59c2.826 0 4.983-2.102 4.983-4.873 0-2.772-2.157-4.874-4.983-4.874-2.84 0-4.983 2.102-4.983 4.874 0 2.771 2.143 4.874 4.983 4.874zm0-2.033c-1.598 0-2.813-1.215-2.813-2.84 0-1.625 1.215-2.84 2.813-2.84 1.597 0 2.812 1.215 2.812 2.84 0 1.624-1.215 2.84-2.812 2.84zm12.805 2.034c2.226 0 3.932-1.639 3.932-3.823V77.58h-2.116v5.734c0 1.037-.778 1.816-1.816 1.816-1.051 0-1.815-.779-1.815-1.816V77.58h-2.116v5.761c0 2.184 1.692 3.823 3.931 3.823zm14.33-9.584v5.761l-3.918-5.761h-2.13V87h2.116v-5.761L318.126 87h2.144v-9.42h-2.117zm10.342 0h-3.713V87h3.713c2.745 0 4.806-2.02 4.806-4.71s-2.061-4.71-4.806-4.71zm-.054 7.427h-1.543v-5.434h1.543c1.543 0 2.689 1.174 2.689 2.717 0 1.543-1.146 2.717-2.689 2.717zm11.04 0v-1.748h3.823v-1.993h-3.823v-1.693h4.274V77.58h-6.39V87h6.458v-1.993h-4.342zM353.067 87h2.54l-2.198-3.454c1.16-.45 1.938-1.488 1.938-2.813 0-1.802-1.406-3.153-3.276-3.153h-4.082V87h2.116v-3.222h1.024L353.067 87zm-2.962-7.427h1.925c.655 0 1.147.505 1.147 1.188 0 .669-.492 1.174-1.147 1.174h-1.925v-2.362zm12.652 7.59c2.103 0 3.727-1.173 3.727-2.907 0-2.198-2.635-2.854-3.467-3.031-.86-.177-1.721-.464-1.721-1.079 0-.491.601-.846 1.448-.846.887 0 1.815.369 2.361.887l.983-1.61c-.696-.67-1.884-1.161-3.331-1.161-2.171 0-3.631 1.12-3.631 2.812 0 1.666 1.406 2.553 3.29 3.004.997.246 1.898.464 1.898 1.12 0 .56-.724.928-1.57.928-.997 0-2.13-.492-2.895-1.202l-1.092 1.611c.983.888 2.539 1.475 4 1.475z" fill="#FC6951"/>
    <path d="m165.675 147.608-2.702 9.55-2.72-9.55h-2.302l-2.721 9.55-2.701-9.55h-2.778l4.11 13.127h2.606l2.606-9.113 2.588 9.113h2.625l4.091-13.127h-2.702zm9.718 3.196c-1.256 0-2.321.475-3.082 1.37v-5.137h-2.474v13.698h2.474v-5.327c0-1.332.913-2.207 2.283-2.207 1.274 0 2.111.856 2.111 2.169v5.365h2.474v-6.164c0-2.283-1.503-3.767-3.786-3.767zm13.344.228v1.161a4.188 4.188 0 0 0-3.158-1.389c-2.701 0-4.737 2.188-4.737 5.08 0 2.891 2.036 5.079 4.737 5.079a4.188 4.188 0 0 0 3.158-1.389v1.161h2.473v-9.703h-2.473zm-2.682 7.534c-1.522 0-2.664-1.16-2.664-2.682s1.142-2.683 2.664-2.683c1.541 0 2.682 1.161 2.682 2.683 0 1.522-1.141 2.682-2.682 2.682zm13.482-5.27v-2.264h-2.607v-2.454h-2.473v2.454h-1.541v2.264h1.541v4.433c0 1.94 1.046 3.234 3.272 3.234.723 0 1.275-.133 1.808-.418v-2.302c-.362.171-.78.323-1.275.323-.875 0-1.332-.419-1.332-1.237v-4.033h2.607zm7.395-3.691c.875 0 1.56-.666 1.56-1.541 0-.875-.685-1.541-1.56-1.541-.876 0-1.561.666-1.561 1.541 0 .875.685 1.541 1.561 1.541zm-1.237 11.13h2.473v-9.703h-2.473v9.703zm8.179.228c2.321 0 4.147-1.122 4.147-3.177 0-2.207-1.997-2.683-3.538-3.025-1.085-.228-1.903-.438-1.903-1.084 0-.571.685-.837 1.522-.837.989 0 1.807.361 2.511.894l1.199-1.655c-.875-.685-2.112-1.275-3.767-1.275-2.15 0-3.957 1.008-3.957 3.063 0 2.207 1.997 2.682 3.538 3.025 1.066.247 1.903.475 1.903 1.122 0 .59-.723.913-1.712.913-1.161 0-2.093-.437-2.835-1.084l-1.199 1.636c.933.799 2.283 1.484 4.091 1.484zm14.858 0c2.873 0 5.118-1.617 5.118-3.976 0-3.006-3.596-3.9-4.814-4.147-1.217-.267-2.587-.704-2.587-1.713 0-.818.932-1.408 2.245-1.408 1.313 0 2.625.552 3.367 1.275l1.218-1.978c-.97-.952-2.587-1.637-4.547-1.637-2.949 0-4.985 1.522-4.985 3.862 0 2.302 2.055 3.501 4.566 4.091 1.351.323 2.835.666 2.835 1.769 0 .913-1.103 1.522-2.416 1.522-1.484 0-3.044-.704-4.109-1.712l-1.351 1.997c1.332 1.237 3.443 2.055 5.46 2.055zm12.496-7.667v-2.264h-2.607v-2.454h-2.473v2.454h-1.541v2.264h1.541v4.433c0 1.94 1.047 3.234 3.273 3.234.722 0 1.274-.133 1.807-.418v-2.302c-.362.171-.78.323-1.275.323-.875 0-1.332-.419-1.332-1.237v-4.033h2.607zm8.894-2.264v1.161a4.188 4.188 0 0 0-3.158-1.389c-2.702 0-4.737 2.188-4.737 5.08 0 2.891 2.035 5.079 4.737 5.079a4.188 4.188 0 0 0 3.158-1.389v1.161h2.473v-9.703h-2.473zm-2.682 7.534c-1.522 0-2.664-1.16-2.664-2.682s1.142-2.683 2.664-2.683c1.541 0 2.682 1.161 2.682 2.683 0 1.522-1.141 2.682-2.682 2.682zm12.778-7.686c-1.142 0-2.093.514-2.797 1.408v-1.256h-2.473v9.703h2.473v-4.604c0-1.655 1.027-2.702 2.797-2.702h.418v-2.549h-.418zm8.005 2.416v-2.264h-2.606v-2.454h-2.474v2.454h-1.541v2.264h1.541v4.433c0 1.94 1.047 3.234 3.273 3.234.723 0 1.274-.133 1.807-.418v-2.302c-.361.171-.78.323-1.275.323-.875 0-1.331-.419-1.331-1.237v-4.033h2.606zm6.205 7.667c2.721 0 4.528-1.617 4.528-4.09v-5.841h-2.473v5.498c0 1.237-.818 2.036-2.055 2.036-1.236 0-2.054-.799-2.054-2.036v-5.498H269.9v5.841c0 2.473 1.789 4.09 4.528 4.09zm12.366-10.159c-1.294 0-2.378.514-3.158 1.389v-1.161h-2.473v13.318h2.473v-4.776c.78.875 1.864 1.389 3.158 1.389 2.702 0 4.718-2.188 4.718-5.079 0-2.892-2.016-5.08-4.718-5.08zm-.495 7.762c-1.522 0-2.663-1.16-2.663-2.682s1.141-2.683 2.663-2.683c1.541 0 2.664 1.161 2.664 2.683 0 1.522-1.123 2.682-2.664 2.682zm18.725 2.169h3.158l-3.273-4.89c1.751-.551 2.949-2.054 2.949-3.938 0-2.454-1.921-4.299-4.452-4.299h-5.593v13.127h2.626v-4.68h1.56l3.025 4.68zm-4.585-10.654h2.91c1.028 0 1.808.799 1.808 1.845 0 1.047-.78 1.846-1.808 1.846h-2.91v-3.691zm16.363.951v1.161a4.188 4.188 0 0 0-3.158-1.389c-2.702 0-4.737 2.188-4.737 5.08 0 2.891 2.035 5.079 4.737 5.079a4.188 4.188 0 0 0 3.158-1.389v1.161h2.473v-9.703h-2.473zm-2.682 7.534c-1.522 0-2.664-1.16-2.664-2.682s1.142-2.683 2.664-2.683c1.541 0 2.682 1.161 2.682 2.683 0 1.522-1.141 2.682-2.682 2.682zm8.744-8.961c.876 0 1.56-.666 1.56-1.541 0-.875-.684-1.541-1.56-1.541-.875 0-1.56.666-1.56 1.541 0 .875.685 1.541 1.56 1.541zm-1.236 11.13h2.473v-9.703h-2.473v9.703zm8.179.228c2.321 0 4.147-1.122 4.147-3.177 0-2.207-1.998-2.683-3.539-3.025-1.084-.228-1.902-.438-1.902-1.084 0-.571.685-.837 1.522-.837.989 0 1.807.361 2.511.894l1.199-1.655c-.875-.685-2.112-1.275-3.767-1.275-2.15 0-3.957 1.008-3.957 3.063 0 2.207 1.997 2.682 3.538 3.025 1.066.247 1.903.475 1.903 1.122 0 .59-.723.913-1.712.913-1.161 0-2.093-.437-2.835-1.084l-1.199 1.636c.933.799 2.283 1.484 4.091 1.484zm7.047-11.358c.876 0 1.56-.666 1.56-1.541 0-.875-.684-1.541-1.56-1.541-.875 0-1.56.666-1.56 1.541 0 .875.685 1.541 1.56 1.541zm-1.236 11.13h2.473v-9.703h-2.473v9.703zm10.386-9.931c-1.256 0-2.321.456-3.082 1.313v-1.085h-2.474v9.703h2.474v-5.327c0-1.332.913-2.207 2.263-2.207 1.294 0 2.131.856 2.131 2.169v5.365h2.473v-6.164c0-2.283-1.502-3.767-3.785-3.767zm12.164 9.931h-3.158c-.608 0-1.027-.343-1.027-.818 0-.324.19-.647.495-.837a5.408 5.408 0 0 0 1.598.247c2.587 0 4.566-1.826 4.566-4.262 0-.951-.305-1.826-.837-2.511.095-.437.494-.704.989-.704h.685v-2.283h-.799c-1.275 0-2.207.647-2.492 1.693a5.063 5.063 0 0 0-2.112-.456c-2.607 0-4.547 1.826-4.547 4.261 0 1.218.475 2.264 1.293 3.025-.799.495-1.312 1.446-1.312 2.436 0 1.541 1.198 2.587 3.006 2.587h3.177c.875 0 1.465.457 1.541 1.16l2.549-.684c-.323-1.789-1.693-2.854-3.615-2.854zm-2.092-7.591c1.141 0 2.016.818 2.016 1.921 0 1.104-.875 1.922-2.016 1.922-1.161 0-2.017-.818-2.017-1.922 0-1.103.856-1.921 2.017-1.921zm9.242 3.367h2.606v-.456c0-1.427 3.006-2.397 3.006-5.023 0-2.035-1.788-3.653-4.205-3.653-1.807 0-3.462.876-4.604 2.321l1.713 1.732c.761-.971 1.75-1.522 2.758-1.522 1.009 0 1.655.551 1.655 1.331 0 1.541-2.929 2.569-2.929 4.814v.456zm1.312 4.395c.951 0 1.674-.704 1.674-1.655 0-.951-.723-1.655-1.674-1.655-.97 0-1.674.704-1.674 1.655 0 .951.704 1.655 1.674 1.655z" fill="#131313"/>
    <path d="M154.615 177.655c.837-.355 1.37-1.09 1.37-1.978 0-1.332-1.205-2.309-2.904-2.309-1.079 0-2.144.419-2.803 1.142l.634.824c.469-.532 1.243-.85 2.029-.85 1.091 0 1.852.584 1.852 1.358 0 .761-.723 1.331-1.7 1.331h-1.319v1.002h1.319c1.116 0 1.941.672 1.941 1.573 0 .901-.85 1.56-2.042 1.56-.901 0-1.776-.355-2.359-.989l-.685.862c.761.787 1.928 1.243 3.12 1.243 1.852 0 3.158-1.053 3.158-2.524 0-1.027-.634-1.864-1.611-2.245zm7.474 3.526v-7.66h-1.167v8.751h5.416v-1.091h-4.249zm11.551-2.143c0-1.941-1.445-3.387-3.373-3.387-1.941 0-3.399 1.446-3.399 3.361 0 1.941 1.509 3.412 3.538 3.412 1.256 0 2.321-.545 2.968-1.408l-.748-.647c-.419.597-1.23 1.053-2.182 1.053-1.255 0-2.181-.773-2.397-1.902h5.568c.013-.152.025-.33.025-.482zm-3.386-2.385c1.142 0 2.029.761 2.232 1.877h-4.451c.202-1.103 1.09-1.877 2.219-1.877zm6.904 5.771c1.458 0 2.613-.723 2.613-2.004 0-1.344-1.243-1.661-2.309-1.915-.862-.203-1.598-.38-1.598-1.015 0-.558.622-.849 1.37-.849.71 0 1.319.279 1.75.697l.609-.799c-.545-.495-1.344-.888-2.372-.888-1.331 0-2.473.647-2.473 1.903 0 1.357 1.256 1.687 2.321 1.953.85.203 1.573.393 1.573 1.015 0 .583-.647.913-1.497.913-.837 0-1.522-.317-2.004-.812l-.609.787c.597.57 1.484 1.014 2.626 1.014zm6.094 0c1.458 0 2.613-.723 2.613-2.004 0-1.344-1.243-1.661-2.309-1.915-.862-.203-1.598-.38-1.598-1.015 0-.558.622-.849 1.37-.849.71 0 1.319.279 1.75.697l.609-.799c-.545-.495-1.344-.888-2.372-.888-1.331 0-2.473.647-2.473 1.903 0 1.357 1.256 1.687 2.321 1.953.85.203 1.573.393 1.573 1.015 0 .583-.647.913-1.497.913-.837 0-1.522-.317-2.004-.812l-.609.787c.597.57 1.484 1.014 2.626 1.014zm7.019 0c1.954 0 3.437-1.458 3.437-3.386 0-1.928-1.483-3.387-3.437-3.387-1.966 0-3.45 1.459-3.45 3.387s1.484 3.386 3.45 3.386zm0-1.053c-1.331 0-2.321-1.002-2.321-2.333 0-1.332.99-2.334 2.321-2.334 1.319 0 2.309 1.002 2.309 2.334 0 1.331-.99 2.333-2.309 2.333zm8.296-5.72c-1.015 0-1.827.406-2.334 1.142v-.989h-1.091v6.468h1.091v-3.627c0-1.167.786-1.941 1.979-1.941 1.154 0 1.889.761 1.889 1.915v3.653h1.091v-3.995c0-1.586-1.053-2.626-2.625-2.626zm6.497 6.773c1.458 0 2.612-.723 2.612-2.004 0-1.344-1.243-1.661-2.308-1.915-.863-.203-1.598-.38-1.598-1.015 0-.558.621-.849 1.37-.849.71 0 1.319.279 1.75.697l.609-.799c-.546-.495-1.345-.888-2.372-.888-1.332 0-2.473.647-2.473 1.903 0 1.357 1.255 1.687 2.321 1.953.85.203 1.572.393 1.572 1.015 0 .583-.646.913-1.496.913-.837 0-1.522-.317-2.004-.812l-.609.787c.596.57 1.484 1.014 2.626 1.014z" fill="#9CA5AF"/>
    <path d="M159.711 228.873h-10.216v2.473h3.805V242h2.625v-10.654h3.786v-2.473zm7.097 3.196c-1.256 0-2.321.476-3.082 1.37v-5.137h-2.473V242h2.473v-5.327c0-1.332.913-2.207 2.283-2.207 1.275 0 2.112.856 2.112 2.169V242h2.473v-6.164c0-2.283-1.503-3.767-3.786-3.767zm15.665 5.099c0-2.93-2.187-5.099-5.098-5.099-2.93 0-5.156 2.169-5.156 5.042 0 2.91 2.302 5.117 5.384 5.117 1.826 0 3.386-.742 4.395-1.94l-1.655-1.446c-.514.647-1.484 1.198-2.664 1.198-1.408 0-2.435-.78-2.778-1.997h7.515c.038-.267.057-.609.057-.875zm-5.117-2.93c1.198 0 2.169.78 2.473 1.997h-4.947c.305-1.198 1.256-1.997 2.474-1.997zM188.679 242h2.625v-13.127h-2.625V242zm10.698-9.931c-1.256 0-2.321.457-3.082 1.313v-1.085h-2.473V242h2.473v-5.327c0-1.332.913-2.207 2.264-2.207 1.293 0 2.131.856 2.131 2.169V242h2.473v-6.164c0-2.283-1.503-3.767-3.786-3.767zm12.328.228-2.512 6.602-2.53-6.602h-2.816l4.034 9.703h2.549l4.033-9.703h-2.758zm13.147 4.871c0-2.93-2.188-5.099-5.099-5.099-2.929 0-5.155 2.169-5.155 5.042 0 2.91 2.302 5.117 5.384 5.117 1.826 0 3.386-.742 4.394-1.94l-1.655-1.446c-.513.647-1.484 1.198-2.663 1.198-1.408 0-2.435-.78-2.778-1.997h7.515c.038-.267.057-.609.057-.875zm-5.118-2.93c1.199 0 2.169.78 2.474 1.997h-4.947c.305-1.198 1.256-1.997 2.473-1.997zm10.191 7.99c2.321 0 4.147-1.122 4.147-3.177 0-2.207-1.997-2.682-3.538-3.025-1.085-.228-1.903-.437-1.903-1.084 0-.571.685-.837 1.522-.837.989 0 1.807.361 2.511.894l1.199-1.655c-.875-.685-2.112-1.275-3.767-1.275-2.15 0-3.957 1.008-3.957 3.063 0 2.207 1.997 2.683 3.538 3.025 1.066.247 1.903.476 1.903 1.122 0 .59-.723.914-1.712.914-1.161 0-2.093-.438-2.835-1.085l-1.199 1.636c.933.799 2.283 1.484 4.091 1.484zm11.599-7.667v-2.264h-2.607v-2.454h-2.473v2.454h-1.541v2.264h1.541v4.433c0 1.941 1.047 3.234 3.272 3.234.723 0 1.275-.133 1.808-.418v-2.302c-.362.171-.78.323-1.275.323-.875 0-1.332-.418-1.332-1.236v-4.034h2.607zm13.529-2.492c-1.407 0-2.53.552-3.31 1.579-.609-.989-1.674-1.579-3.044-1.579-1.179 0-2.15.419-2.873 1.237v-1.009h-2.473V242h2.473v-5.536c0-1.199.837-1.998 2.036-1.998 1.161 0 1.922.78 1.922 1.96V242h2.473v-5.536c0-1.199.818-1.998 2.035-1.998 1.161 0 1.903.78 1.903 1.96V242h2.473v-6.316c0-2.188-1.427-3.615-3.615-3.615zm15.485 5.099c0-2.93-2.188-5.099-5.099-5.099-2.93 0-5.156 2.169-5.156 5.042 0 2.91 2.302 5.117 5.384 5.117 1.827 0 3.387-.742 4.395-1.94l-1.655-1.446c-.514.647-1.484 1.198-2.663 1.198-1.408 0-2.436-.78-2.778-1.997h7.515c.038-.267.057-.609.057-.875zm-5.118-2.93c1.199 0 2.169.78 2.473 1.997h-4.946c.304-1.198 1.255-1.997 2.473-1.997zm12.397-2.169c-1.255 0-2.321.457-3.082 1.313v-1.085h-2.473V242h2.473v-5.327c0-1.332.913-2.207 2.264-2.207 1.294 0 2.131.856 2.131 2.169V242h2.473v-6.164c0-2.283-1.503-3.767-3.786-3.767zm11.548 2.492v-2.264h-2.607v-2.454h-2.473v2.454h-1.541v2.264h1.541v4.433c0 1.941 1.046 3.234 3.272 3.234.723 0 1.275-.133 1.808-.418v-2.302c-.362.171-.78.323-1.275.323-.875 0-1.332-.418-1.332-1.236v-4.034h2.607zm8.936 4.966v-10.654h-2.626V242h8.352v-2.473h-5.726zm14.394-7.23v1.161a4.19 4.19 0 0 0-3.158-1.389c-2.702 0-4.737 2.188-4.737 5.08 0 2.891 2.035 5.079 4.737 5.079a4.187 4.187 0 0 0 3.158-1.389V242h2.473v-9.703h-2.473zm-2.683 7.534c-1.522 0-2.663-1.16-2.663-2.682s1.141-2.683 2.663-2.683c1.541 0 2.683 1.161 2.683 2.683 0 1.522-1.142 2.682-2.683 2.682zm13.064-7.762c-1.256 0-2.321.457-3.082 1.313v-1.085h-2.474V242h2.474v-5.327c0-1.332.913-2.207 2.264-2.207 1.293 0 2.13.856 2.13 2.169V242h2.474v-6.164c0-2.283-1.503-3.767-3.786-3.767zm13.344-3.767v5.156a4.188 4.188 0 0 0-3.158-1.389c-2.701 0-4.737 2.188-4.737 5.08 0 2.891 2.036 5.079 4.737 5.079a4.185 4.185 0 0 0 3.158-1.389V242h2.473v-13.698h-2.473zm-2.682 11.529c-1.522 0-2.664-1.16-2.664-2.682s1.142-2.683 2.664-2.683c1.541 0 2.682 1.161 2.682 2.683 0 1.522-1.141 2.682-2.682 2.682zm10.856 2.397c2.321 0 4.148-1.122 4.148-3.177 0-2.207-1.998-2.682-3.539-3.025-1.084-.228-1.902-.437-1.902-1.084 0-.571.684-.837 1.522-.837.989 0 1.807.361 2.511.894l1.198-1.655c-.875-.685-2.111-1.275-3.767-1.275-2.149 0-3.957 1.008-3.957 3.063 0 2.207 1.998 2.683 3.539 3.025 1.065.247 1.902.476 1.902 1.122 0 .59-.723.914-1.712.914-1.16 0-2.093-.438-2.835-1.085l-1.198 1.636c.932.799 2.283 1.484 4.09 1.484zm10.434 0c1.96 0 3.596-.951 4.471-2.416l-2.15-1.294c-.437.78-1.293 1.313-2.321 1.313-1.522 0-2.663-1.16-2.663-2.682s1.141-2.683 2.663-2.683c1.028 0 1.884.533 2.321 1.313l2.15-1.294c-.875-1.465-2.511-2.416-4.471-2.416-2.968 0-5.213 2.188-5.213 5.08 0 2.891 2.245 5.079 5.213 5.079zm13.199-9.931v1.161a4.188 4.188 0 0 0-3.158-1.389c-2.701 0-4.737 2.188-4.737 5.08 0 2.891 2.036 5.079 4.737 5.079a4.185 4.185 0 0 0 3.158-1.389V242h2.474v-9.703h-2.474zm-2.682 7.534c-1.522 0-2.664-1.16-2.664-2.682s1.142-2.683 2.664-2.683c1.541 0 2.682 1.161 2.682 2.683 0 1.522-1.141 2.682-2.682 2.682zm13.139-7.762c-1.293 0-2.378.514-3.158 1.389v-1.161h-2.473v13.318h2.473v-4.776c.78.876 1.865 1.389 3.158 1.389 2.702 0 4.719-2.188 4.719-5.079 0-2.892-2.017-5.08-4.719-5.08zm-.494 7.762c-1.522 0-2.664-1.16-2.664-2.682s1.142-2.683 2.664-2.683c1.541 0 2.663 1.161 2.663 2.683 0 1.522-1.122 2.682-2.663 2.682zm16.697-2.663c0-2.93-2.188-5.099-5.099-5.099-2.93 0-5.155 2.169-5.155 5.042 0 2.91 2.302 5.117 5.384 5.117 1.826 0 3.386-.742 4.394-1.94l-1.655-1.446c-.514.647-1.484 1.198-2.663 1.198-1.408 0-2.436-.78-2.778-1.997h7.515c.038-.267.057-.609.057-.875zm-5.118-2.93c1.199 0 2.169.78 2.473 1.997h-4.946c.304-1.198 1.256-1.997 2.473-1.997z" fill="#131313"/>
    <path d="m151.66 262.037 2.714-2.904c.634-.685 1.142-1.421 1.142-2.41 0-1.459-1.129-2.499-2.727-2.499a3.35 3.35 0 0 0-2.879 1.611l.811.736c.482-.723 1.18-1.193 2.004-1.193.914 0 1.599.571 1.599 1.408 0 .647-.444 1.231-.964 1.801l-3.323 3.615v.926h5.682v-1.091h-4.059zm9.958 0v-7.661h-1.167v8.752h5.416v-1.091h-4.249zm11.552-2.143c0-1.941-1.446-3.387-3.374-3.387-1.94 0-3.399 1.446-3.399 3.361 0 1.941 1.509 3.412 3.539 3.412 1.255 0 2.321-.545 2.967-1.408l-.748-.647c-.418.597-1.23 1.053-2.181 1.053-1.256 0-2.182-.774-2.397-1.902h5.567a6.01 6.01 0 0 0 .026-.482zm-3.387-2.385c1.142 0 2.03.761 2.233 1.877h-4.452c.203-1.103 1.091-1.877 2.219-1.877zm6.904 5.771c1.459 0 2.613-.723 2.613-2.004 0-1.344-1.243-1.661-2.308-1.915-.863-.203-1.598-.38-1.598-1.015 0-.558.621-.849 1.369-.849.711 0 1.319.279 1.751.697l.608-.799c-.545-.495-1.344-.888-2.371-.888-1.332 0-2.474.647-2.474 1.903 0 1.357 1.256 1.687 2.321 1.953.85.203 1.573.393 1.573 1.015 0 .583-.647.913-1.496.913-.838 0-1.522-.317-2.004-.812l-.609.786c.596.571 1.484 1.015 2.625 1.015zm6.094 0c1.459 0 2.613-.723 2.613-2.004 0-1.344-1.243-1.661-2.308-1.915-.863-.203-1.599-.38-1.599-1.015 0-.558.622-.849 1.37-.849.711 0 1.319.279 1.751.697l.608-.799c-.545-.495-1.344-.888-2.371-.888-1.332 0-2.474.647-2.474 1.903 0 1.357 1.256 1.687 2.321 1.953.85.203 1.573.393 1.573 1.015 0 .583-.647.913-1.497.913-.837 0-1.522-.317-2.003-.812l-.609.786c.596.571 1.484 1.015 2.625 1.015zm7.02 0c1.953 0 3.437-1.458 3.437-3.386 0-1.928-1.484-3.387-3.437-3.387-1.966 0-3.45 1.459-3.45 3.387s1.484 3.386 3.45 3.386zm0-1.053c-1.332 0-2.321-1.002-2.321-2.333 0-1.332.989-2.334 2.321-2.334 1.319 0 2.308 1.002 2.308 2.334 0 1.331-.989 2.333-2.308 2.333zm8.295-5.72c-1.015 0-1.826.406-2.334 1.142v-.99h-1.09v6.469h1.09v-3.627c0-1.167.787-1.941 1.979-1.941 1.154 0 1.89.761 1.89 1.915v3.653h1.091v-3.995c0-1.586-1.053-2.626-2.626-2.626zm6.497 6.773c1.458 0 2.613-.723 2.613-2.004 0-1.344-1.243-1.661-2.309-1.915-.862-.203-1.598-.38-1.598-1.015 0-.558.622-.849 1.37-.849.71 0 1.319.279 1.75.697l.609-.799c-.545-.495-1.344-.888-2.372-.888-1.331 0-2.473.647-2.473 1.903 0 1.357 1.256 1.687 2.321 1.953.85.203 1.573.393 1.573 1.015 0 .583-.647.913-1.497.913-.837 0-1.522-.317-2.004-.812l-.609.786c.597.571 1.484 1.015 2.626 1.015z" fill="#9CA5AF"/>
    <path d="M160.177 309.319H149.96v2.473h3.805v10.654h2.626v-10.654h3.786v-2.473zm7.097 3.196c-1.256 0-2.321.476-3.082 1.37v-5.137h-2.474v13.698h2.474v-5.327c0-1.331.913-2.207 2.283-2.207 1.274 0 2.111.857 2.111 2.169v5.365h2.474v-6.164c0-2.283-1.503-3.767-3.786-3.767zm15.665 5.099c0-2.93-2.188-5.099-5.098-5.099-2.93 0-5.156 2.169-5.156 5.042 0 2.911 2.302 5.118 5.384 5.118 1.826 0 3.386-.742 4.395-1.941l-1.656-1.446c-.513.647-1.484 1.199-2.663 1.199-1.408 0-2.435-.78-2.778-1.998h7.515c.038-.266.057-.609.057-.875zm-5.117-2.93c1.198 0 2.168.78 2.473 1.998h-4.947c.305-1.199 1.256-1.998 2.474-1.998zm18.533 7.762h3.158l-3.272-4.889c1.75-.552 2.949-2.055 2.949-3.938 0-2.454-1.922-4.3-4.452-4.3h-5.593v13.127h2.625v-4.68h1.56l3.025 4.68zm-4.585-10.654h2.911c1.027 0 1.807.799 1.807 1.846 0 1.046-.78 1.845-1.807 1.845h-2.911v-3.691zm16.364.952v1.16a4.19 4.19 0 0 0-3.158-1.389c-2.702 0-4.738 2.188-4.738 5.08s2.036 5.08 4.738 5.08a4.19 4.19 0 0 0 3.158-1.389v1.16h2.473v-9.702h-2.473zm-2.683 7.533c-1.522 0-2.663-1.16-2.663-2.682s1.141-2.683 2.663-2.683c1.541 0 2.683 1.161 2.683 2.683 0 1.522-1.142 2.682-2.683 2.682zm8.745-8.96c.875 0 1.56-.666 1.56-1.541 0-.875-.685-1.541-1.56-1.541s-1.56.666-1.56 1.541c0 .875.685 1.541 1.56 1.541zm-1.237 11.129h2.474v-9.702h-2.474v9.702zm8.179.229c2.321 0 4.148-1.123 4.148-3.178 0-2.206-1.998-2.682-3.539-3.025-1.084-.228-1.902-.437-1.902-1.084 0-.571.684-.837 1.521-.837.99 0 1.808.361 2.512.894l1.198-1.655c-.875-.685-2.111-1.275-3.767-1.275-2.149 0-3.957 1.009-3.957 3.063 0 2.207 1.998 2.683 3.539 3.025 1.065.248 1.902.476 1.902 1.123 0 .59-.723.913-1.712.913-1.16 0-2.093-.438-2.835-1.084l-1.198 1.636c.932.799 2.283 1.484 4.09 1.484zm7.048-11.358c.875 0 1.56-.666 1.56-1.541 0-.875-.685-1.541-1.56-1.541s-1.56.666-1.56 1.541c0 .875.685 1.541 1.56 1.541zm-1.237 11.129h2.473v-9.702h-2.473v9.702zm10.386-9.931c-1.256 0-2.321.457-3.082 1.313v-1.084h-2.473v9.702h2.473v-5.327c0-1.331.913-2.207 2.264-2.207 1.294 0 2.131.857 2.131 2.169v5.365h2.473v-6.164c0-2.283-1.503-3.767-3.786-3.767zm12.165 9.931h-3.158c-.609 0-1.027-.342-1.027-.818 0-.323.19-.647.494-.837a5.418 5.418 0 0 0 1.598.247c2.588 0 4.566-1.826 4.566-4.261 0-.951-.304-1.827-.837-2.511.095-.438.495-.704.989-.704h.685v-2.283h-.799c-1.274 0-2.207.647-2.492 1.693a5.063 5.063 0 0 0-2.112-.457c-2.606 0-4.547 1.827-4.547 4.262 0 1.217.476 2.264 1.294 3.025-.799.494-1.313 1.446-1.313 2.435 0 1.541 1.199 2.587 3.006 2.587h3.177c.876 0 1.465.457 1.541 1.161l2.55-.685c-.324-1.788-1.694-2.854-3.615-2.854zm-2.093-7.591c1.142 0 2.017.818 2.017 1.922 0 1.103-.875 1.921-2.017 1.921-1.16 0-2.016-.818-2.016-1.921 0-1.104.856-1.922 2.016-1.922zm16.875-5.536h-5.726v13.127h2.625v-4.375h3.101c2.55 0 4.509-1.884 4.509-4.376 0-2.492-1.959-4.376-4.509-4.376zm-.057 6.278h-3.044v-3.805h3.044c1.065 0 1.865.818 1.865 1.903 0 1.084-.8 1.902-1.865 1.902zm11.413-3.006c-1.141 0-2.092.514-2.796 1.408v-1.255h-2.474v9.702h2.474v-4.604c0-1.655 1.027-2.701 2.796-2.701h.419v-2.55h-.419zm6.265 10.084c2.968 0 5.213-2.188 5.213-5.08s-2.245-5.08-5.213-5.08-5.213 2.188-5.213 5.08 2.245 5.08 5.213 5.08zm0-2.398c-1.522 0-2.664-1.16-2.664-2.682s1.142-2.683 2.664-2.683c1.541 0 2.663 1.161 2.663 2.683 0 1.522-1.122 2.682-2.663 2.682zm11.612 2.398c1.959 0 3.595-.952 4.47-2.417l-2.149-1.293c-.438.78-1.294 1.312-2.321 1.312-1.522 0-2.664-1.16-2.664-2.682s1.142-2.683 2.664-2.683c1.027 0 1.883.533 2.321 1.313l2.149-1.294c-.875-1.464-2.511-2.416-4.47-2.416-2.968 0-5.213 2.188-5.213 5.08s2.245 5.08 5.213 5.08zm15.52-5.061c0-2.93-2.188-5.099-5.099-5.099-2.93 0-5.156 2.169-5.156 5.042 0 2.911 2.302 5.118 5.384 5.118 1.827 0 3.387-.742 4.395-1.941l-1.655-1.446c-.514.647-1.484 1.199-2.663 1.199-1.408 0-2.436-.78-2.778-1.998h7.515c.038-.266.057-.609.057-.875zm-5.118-2.93c1.199 0 2.169.78 2.473 1.998h-4.946c.304-1.199 1.255-1.998 2.473-1.998zm10.19 7.991c2.321 0 4.148-1.123 4.148-3.178 0-2.206-1.998-2.682-3.539-3.025-1.084-.228-1.902-.437-1.902-1.084 0-.571.685-.837 1.522-.837.989 0 1.807.361 2.511.894l1.199-1.655c-.876-.685-2.112-1.275-3.767-1.275-2.15 0-3.958 1.009-3.958 3.063 0 2.207 1.998 2.683 3.539 3.025 1.066.248 1.903.476 1.903 1.123 0 .59-.723.913-1.713.913-1.16 0-2.092-.438-2.834-1.084l-1.199 1.636c.932.799 2.283 1.484 4.09 1.484zm9.141 0c2.321 0 4.148-1.123 4.148-3.178 0-2.206-1.998-2.682-3.539-3.025-1.084-.228-1.902-.437-1.902-1.084 0-.571.685-.837 1.522-.837.989 0 1.807.361 2.511.894l1.198-1.655c-.875-.685-2.111-1.275-3.766-1.275-2.15 0-3.958 1.009-3.958 3.063 0 2.207 1.998 2.683 3.539 3.025 1.065.248 1.902.476 1.902 1.123 0 .59-.722.913-1.712.913-1.16 0-2.093-.438-2.834-1.084l-1.199 1.636c.932.799 2.283 1.484 4.09 1.484z" fill="#131313"/>
    <path d="M152.941 335.08c-1.864 0-3.222 1.243-3.222 2.904 0 1.548 1.205 2.752 2.816 2.752.825 0 1.674-.279 2.22-.862-.495 1.484-1.877 2.828-4.072 3.184l.216 1.078c3.247-.419 5.314-2.93 5.314-5.644 0-2.131-1.306-3.412-3.272-3.412zm-.063 4.591c-1.142 0-1.966-.736-1.966-1.699 0-1.028.862-1.776 2.029-1.776 1.256 0 2.08.774 2.08 1.839 0 1.129-1.141 1.636-2.143 1.636zm8.988 3.222v-7.661h-1.167v8.751h5.416v-1.09h-4.249zm11.552-2.144c0-1.94-1.446-3.386-3.374-3.386-1.941 0-3.399 1.446-3.399 3.361 0 1.94 1.509 3.412 3.538 3.412 1.256 0 2.321-.546 2.968-1.408l-.748-.647c-.419.596-1.23 1.053-2.182 1.053-1.255 0-2.181-.774-2.397-1.903h5.568c.013-.152.026-.33.026-.482zm-3.387-2.384c1.142 0 2.029.761 2.232 1.877h-4.451c.202-1.104 1.09-1.877 2.219-1.877zm6.904 5.771c1.459 0 2.613-.723 2.613-2.004 0-1.345-1.243-1.662-2.309-1.916-.862-.202-1.598-.38-1.598-1.014 0-.558.622-.85 1.37-.85.71 0 1.319.279 1.75.698l.609-.799c-.545-.495-1.344-.888-2.372-.888-1.331 0-2.473.647-2.473 1.902 0 1.357 1.256 1.687 2.321 1.953.85.203 1.573.394 1.573 1.015 0 .584-.647.913-1.497.913-.837 0-1.522-.317-2.004-.811l-.608.786c.596.571 1.483 1.015 2.625 1.015zm6.094 0c1.458 0 2.613-.723 2.613-2.004 0-1.345-1.243-1.662-2.309-1.916-.862-.202-1.598-.38-1.598-1.014 0-.558.622-.85 1.37-.85.71 0 1.319.279 1.75.698l.609-.799c-.545-.495-1.344-.888-2.372-.888-1.331 0-2.473.647-2.473 1.902 0 1.357 1.256 1.687 2.321 1.953.85.203 1.573.394 1.573 1.015 0 .584-.647.913-1.497.913-.837 0-1.522-.317-2.004-.811l-.609.786c.597.571 1.484 1.015 2.626 1.015zm7.019 0c1.954 0 3.438-1.459 3.438-3.387s-1.484-3.386-3.438-3.386c-1.966 0-3.449 1.458-3.449 3.386 0 1.928 1.483 3.387 3.449 3.387zm0-1.053c-1.331 0-2.321-1.002-2.321-2.334s.99-2.334 2.321-2.334c1.319 0 2.309 1.002 2.309 2.334s-.99 2.334-2.309 2.334zm8.296-5.72c-1.015 0-1.827.406-2.334 1.141v-.989h-1.091v6.468h1.091v-3.627c0-1.167.786-1.941 1.979-1.941 1.154 0 1.889.761 1.889 1.916v3.652h1.091v-3.995c0-1.585-1.052-2.625-2.625-2.625zm6.497 6.773c1.458 0 2.612-.723 2.612-2.004 0-1.345-1.243-1.662-2.308-1.916-.862-.202-1.598-.38-1.598-1.014 0-.558.621-.85 1.37-.85.71 0 1.319.279 1.75.698l.609-.799c-.546-.495-1.345-.888-2.372-.888-1.332 0-2.473.647-2.473 1.902 0 1.357 1.255 1.687 2.321 1.953.85.203 1.573.394 1.573 1.015 0 .584-.647.913-1.497.913-.837 0-1.522-.317-2.004-.811l-.609.786c.596.571 1.484 1.015 2.626 1.015z" fill="#9CA5AF"/>
    <path d="M156.058 394.873h-5.726V408h2.625v-4.376h3.101c2.55 0 4.509-1.883 4.509-4.375 0-2.493-1.959-4.376-4.509-4.376zm-.057 6.278h-3.044v-3.805h3.044c1.066 0 1.865.818 1.865 1.903 0 1.084-.799 1.902-1.865 1.902zm7.38-4.281c.875 0 1.56-.665 1.56-1.541 0-.875-.685-1.541-1.56-1.541s-1.56.666-1.56 1.541c0 .876.685 1.541 1.56 1.541zM162.144 408h2.474v-9.703h-2.474V408zm10.805-7.439v-2.264h-2.607v-2.454h-2.473v2.454h-1.541v2.264h1.541v4.433c0 1.941 1.046 3.234 3.272 3.234.723 0 1.275-.133 1.808-.418v-2.302c-.362.171-.78.323-1.275.323-.875 0-1.332-.418-1.332-1.236v-4.034h2.607zm6.173 7.667c1.96 0 3.596-.951 4.471-2.416l-2.149-1.294c-.438.78-1.294 1.313-2.322 1.313-1.522 0-2.663-1.16-2.663-2.682s1.141-2.683 2.663-2.683c1.028 0 1.884.533 2.322 1.313l2.149-1.294c-.875-1.465-2.511-2.416-4.471-2.416-2.967 0-5.212 2.188-5.212 5.08 0 2.891 2.245 5.079 5.212 5.079zm11.56-10.159c-1.256 0-2.321.476-3.082 1.37v-5.137h-2.473V408h2.473v-5.327c0-1.332.913-2.207 2.283-2.207 1.275 0 2.112.856 2.112 2.169V408h2.473v-6.164c0-2.283-1.503-3.767-3.786-3.767zm16.208-3.196h-5.726V408h2.625v-4.376h3.101c2.55 0 4.509-1.883 4.509-4.375 0-2.493-1.959-4.376-4.509-4.376zm-.057 6.278h-3.044v-3.805h3.044c1.066 0 1.865.818 1.865 1.903 0 1.084-.799 1.902-1.865 1.902zm15.437 2.017c0-2.93-2.188-5.099-5.099-5.099-2.93 0-5.156 2.169-5.156 5.042 0 2.91 2.302 5.117 5.384 5.117 1.827 0 3.387-.742 4.395-1.94l-1.655-1.446c-.514.647-1.484 1.198-2.664 1.198-1.408 0-2.435-.78-2.777-1.997h7.515c.038-.267.057-.609.057-.875zm-5.118-2.93c1.198 0 2.169.78 2.473 1.997h-4.946c.304-1.198 1.255-1.997 2.473-1.997zm12.112-2.093c-1.142 0-2.093.514-2.797 1.408v-1.256h-2.473V408h2.473v-4.604c0-1.655 1.027-2.702 2.797-2.702h.418v-2.549h-.418zm6.823-1.807c.495 0 .895.114 1.275.323v-2.169c-.552-.285-1.103-.418-1.826-.418-2.226 0-3.273 1.332-3.273 3.348v.875h-1.522v2.264h1.522V408h2.474v-7.439h2.435v-2.264h-2.435v-.723c0-.818.475-1.236 1.35-1.236zm11.952 6.83c0-2.93-2.188-5.099-5.099-5.099-2.93 0-5.156 2.169-5.156 5.042 0 2.91 2.302 5.117 5.384 5.117 1.827 0 3.387-.742 4.395-1.94l-1.655-1.446c-.514.647-1.484 1.198-2.664 1.198-1.407 0-2.435-.78-2.777-1.997h7.515c.038-.267.057-.609.057-.875zm-5.118-2.93c1.198 0 2.169.78 2.473 1.997h-4.946c.304-1.198 1.255-1.997 2.473-1.997zm11.465 7.99c1.96 0 3.596-.951 4.471-2.416l-2.15-1.294c-.438.78-1.294 1.313-2.321 1.313-1.522 0-2.664-1.16-2.664-2.682s1.142-2.683 2.664-2.683c1.027 0 1.883.533 2.321 1.313l2.15-1.294c-.875-1.465-2.511-2.416-4.471-2.416-2.968 0-5.213 2.188-5.213 5.08 0 2.891 2.245 5.079 5.213 5.079zm11.922-7.667v-2.264h-2.606v-2.454h-2.473v2.454h-1.541v2.264h1.541v4.433c0 1.941 1.046 3.234 3.272 3.234.723 0 1.274-.133 1.807-.418v-2.302c-.361.171-.78.323-1.275.323-.875 0-1.331-.418-1.331-1.236v-4.034h2.606zm3.066-3.691c.875 0 1.56-.665 1.56-1.541 0-.875-.685-1.541-1.56-1.541s-1.56.666-1.56 1.541c0 .876.685 1.541 1.56 1.541zM268.138 408h2.473v-9.703h-2.473V408zm9.453.228c2.968 0 5.213-2.188 5.213-5.079 0-2.892-2.245-5.08-5.213-5.08s-5.213 2.188-5.213 5.08c0 2.891 2.245 5.079 5.213 5.079zm0-2.397c-1.522 0-2.663-1.16-2.663-2.682s1.141-2.683 2.663-2.683c1.541 0 2.664 1.161 2.664 2.683 0 1.522-1.123 2.682-2.664 2.682zm12.544-7.762c-1.255 0-2.321.457-3.082 1.313v-1.085h-2.473V408h2.473v-5.327c0-1.332.913-2.207 2.264-2.207 1.294 0 2.131.856 2.131 2.169V408h2.473v-6.164c0-2.283-1.503-3.767-3.786-3.767z" fill="#131313"/>
    <path d="M156.53 426.539h-1.141v-5.695h-1.256l-4.287 5.847.279.938h4.11v1.966h1.154v-1.966h1.141v-1.09zm-5.403 0 3.108-4.224v4.224h-3.108zm11.086 1.965v-7.66h-1.167v8.751h5.416v-1.091h-4.249zm11.551-2.143c0-1.941-1.446-3.386-3.373-3.386-1.941 0-3.399 1.445-3.399 3.361 0 1.94 1.509 3.411 3.538 3.411 1.256 0 2.321-.545 2.968-1.407l-.748-.647c-.419.596-1.231 1.052-2.182 1.052-1.255 0-2.181-.773-2.397-1.902h5.568c.013-.152.025-.33.025-.482zm-3.386-2.384c1.141 0 2.029.761 2.232 1.877h-4.452c.203-1.104 1.091-1.877 2.22-1.877zm6.904 5.77c1.458 0 2.613-.723 2.613-2.004 0-1.344-1.243-1.661-2.309-1.915-.862-.203-1.598-.38-1.598-1.014 0-.558.622-.85 1.37-.85.71 0 1.319.279 1.75.697l.609-.799c-.545-.494-1.344-.887-2.372-.887-1.332 0-2.473.646-2.473 1.902 0 1.357 1.256 1.687 2.321 1.953.85.203 1.573.393 1.573 1.015 0 .583-.647.913-1.497.913-.837 0-1.522-.317-2.004-.812l-.609.787c.596.57 1.484 1.014 2.626 1.014zm6.094 0c1.458 0 2.612-.723 2.612-2.004 0-1.344-1.243-1.661-2.308-1.915-.862-.203-1.598-.38-1.598-1.014 0-.558.621-.85 1.37-.85.71 0 1.319.279 1.75.697l.609-.799c-.546-.494-1.345-.887-2.372-.887-1.332 0-2.473.646-2.473 1.902 0 1.357 1.256 1.687 2.321 1.953.85.203 1.573.393 1.573 1.015 0 .583-.647.913-1.497.913-.837 0-1.522-.317-2.004-.812l-.609.787c.596.57 1.484 1.014 2.626 1.014zm7.019 0c1.953 0 3.437-1.458 3.437-3.386 0-1.928-1.484-3.386-3.437-3.386-1.966 0-3.45 1.458-3.45 3.386 0 1.928 1.484 3.386 3.45 3.386zm0-1.052c-1.332 0-2.321-1.002-2.321-2.334s.989-2.334 2.321-2.334c1.319 0 2.309 1.002 2.309 2.334s-.99 2.334-2.309 2.334zm8.296-5.72c-1.015 0-1.827.405-2.334 1.141v-.989h-1.091v6.468h1.091v-3.627c0-1.167.786-1.941 1.978-1.941 1.155 0 1.89.761 1.89 1.915v3.653h1.091V425.6c0-1.585-1.053-2.625-2.625-2.625zm6.496 6.772c1.459 0 2.613-.723 2.613-2.004 0-1.344-1.243-1.661-2.308-1.915-.863-.203-1.598-.38-1.598-1.014 0-.558.621-.85 1.37-.85.71 0 1.319.279 1.75.697l.609-.799c-.546-.494-1.345-.887-2.372-.887-1.332 0-2.473.646-2.473 1.902 0 1.357 1.255 1.687 2.321 1.953.849.203 1.572.393 1.572 1.015 0 .583-.646.913-1.496.913-.837 0-1.522-.317-2.004-.812l-.609.787c.596.57 1.484 1.014 2.625 1.014z" fill="#9CA5AF"/>
    <path stroke="#E8E8E8" stroke-width="1.585" d="M102.696 89.416v329.765"/>
    <path d="M101.903 93.501c12.764 0 23.111-10.347 23.111-23.11s-10.347-23.11-23.111-23.11c-12.763 0-23.11 10.347-23.11 23.11s10.347 23.11 23.11 23.11z" fill="#fff" stroke="#FC6951" stroke-width="5"/>
    <path fill="#fff" d="M93.977 156.003h17.439v17.439H93.977z"/>
    <circle cx="102.696" cy="164.723" r="3.964" fill="#FC6951"/>
    <path fill="#fff" d="M93.977 238.445h17.439v17.439H93.977z"/>
    <circle cx="102.696" cy="247.164" r="3.964" fill="#FC6951"/>
    <path fill="#fff" d="M93.977 320.886h17.439v17.439H93.977z"/>
    <circle cx="102.696" cy="329.606" r="3.964" fill="#E8E8E8"/>
    <path fill="#fff" d="M93.977 403.327h17.439v17.439H93.977z"/>
    <circle cx="102.696" cy="412.047" r="3.964" fill="#E8E8E8"/>
    <defs>
        <filter id="a" x=".739" y=".935" width="465.507" height="524.167" filterUnits="userSpaceOnUse" color-interpolation-filters="sRGB">
            <feFlood flood-opacity="0" result="BackgroundImageFix"/>
            <feBlend in="SourceGraphic" in2="BackgroundImageFix" result="shape"/>
            <feGaussianBlur stdDeviation="29.972" result="effect1_foregroundBlur"/>
        </filter>
    </defs>
</svg>
