<svg width="149" height="41" fill="none" xmlns="http://www.w3.org/2000/svg">
    <path d="M26.756 9.407a3.937 3.937 0 0 1-3.42 3.897h-6.04a3.938 3.938 0 0 1-3.944-3.931V3.931a3.937 3.937 0 0 1 4.16-3.926c.015 0 .03 0 .044.005.084.005.172.014.256.024h.005c4.626.519 8.306 4.151 8.885 8.742.025.152.04.308.05.465 0 .059.004.112.004.166zM9.44 13.353a3.941 3.941 0 0 1 3.91 3.408v6.019a3.938 3.938 0 0 1-3.944 3.93H3.945A3.94 3.94 0 0 1 .01 23.059v-.004A4.927 4.927 0 0 1 0 22.78c0-.074 0-.142.005-.215 0-.015 0-.03.005-.044.005-.084.015-.172.024-.255v-.004c.52-4.611 4.166-8.278 8.773-8.855.152-.025.31-.04.466-.05.06 0 .113-.004.167-.004zM17.32 40.118a3.941 3.941 0 0 1-3.91-3.408v-6.02a3.938 3.938 0 0 1 3.945-3.93h5.461a3.94 3.94 0 0 1 3.935 3.652v.005c.01.093.01.186.01.279 0 .073 0 .141-.005.215 0 .014 0 .03-.005.044a4.458 4.458 0 0 1-.024.254v.005c-.52 4.61-4.166 8.278-8.773 8.855-.152.024-.31.039-.466.049h-.167zM146.192 11.838v.474h-.559v1.765h-.505v-1.765h-.56v-.474h1.624zM148.356 11.837h.642v2.24h-.505v-1.38l-.579 1.38h-.343l-.579-1.374v1.374h-.506v-2.24h.653l.608 1.453.609-1.453zM37.39 12.747c0-.127.005-.245.01-.347a.492.492 0 0 1 .094-.27.547.547 0 0 1 .265-.175c.117-.04.29-.064.505-.064h2.684c.142 0 .26.025.353.073a.704.704 0 0 1 .226.186.67.67 0 0 1 .113.24c.02.088.03.166.03.24l.004 8.277 4.038-4.479a.91.91 0 0 1 .697-.322h3.444c.412 0 .618.161.618.479a.455.455 0 0 1-.039.2 1.125 1.125 0 0 1-.162.225l-4.612 4.86 5.81 7.427h-.025a.86.86 0 0 1 .27.572c0 .172-.044.289-.142.352-.094.064-.236.093-.422.093h-3.793a.537.537 0 0 1-.358-.146 2.596 2.596 0 0 1-.373-.435l-3.675-5.178-1.247 1.286v3.613c0 .058-.01.137-.029.235a.817.817 0 0 1-.343.523.656.656 0 0 1-.383.102h-2.816a.568.568 0 0 1-.349-.107.89.89 0 0 1-.23-.24 1.165 1.165 0 0 1-.162-.39v-16.83zM53.548 16.306a.715.715 0 0 1 .31-.157c.107-.024.21-.034.309-.034h1.697c.133 0 .25.025.349.074a.69.69 0 0 1 .245.195.988.988 0 0 1 .162.279c.039.103.078.21.117.323l.236.982c.113-.23.294-.469.545-.713.25-.245.559-.47.932-.67.373-.2.8-.367 1.285-.499a6.22 6.22 0 0 1 1.63-.196c.853 0 1.614.162 2.286.49a5.032 5.032 0 0 1 1.707 1.339 6.027 6.027 0 0 1 1.07 1.98 7.81 7.81 0 0 1 .368 2.42l.005 7.33c0 .283-.064.498-.187.645-.122.147-.319.22-.588.22H63.43c-.324 0-.545-.054-.662-.161-.118-.108-.182-.318-.182-.631l-.005-7.285c0-.323-.073-.626-.22-.91a2.666 2.666 0 0 0-.58-.762 2.78 2.78 0 0 0-.814-.519 2.384 2.384 0 0 0-.927-.19c-.27 0-.545.058-.825.18-.28.118-.54.284-.775.5-.235.21-.432.464-.594.747-.161.289-.25.597-.274.934l.005 7.27c0 .128-.025.255-.074.382a.617.617 0 0 1-.22.294 1.015 1.015 0 0 1-.276.122 1.12 1.12 0 0 1-.299.034h-2.537c-.323 0-.554-.078-.696-.235-.143-.156-.216-.366-.216-.625l-.005-12.512c0-.142.03-.274.093-.392a.725.725 0 0 1 .265-.278l-.064.029zM83.202 20.31a7.372 7.372 0 0 0-1.575-2.327 7.33 7.33 0 0 0-5.206-2.117c-.687 0-1.349.088-1.982.26a7.624 7.624 0 0 0-1.766.728 7.223 7.223 0 0 0-2.63 2.611 7.384 7.384 0 0 0-1.006 3.74c0 .69.088 1.345.265 1.975a7.59 7.59 0 0 0 .74 1.76 7.054 7.054 0 0 0 1.15 1.482 7.14 7.14 0 0 0 1.486 1.14c.55.317 1.138.561 1.766.733a7.572 7.572 0 0 0 1.982.254c.682 0 1.335-.083 1.958-.26a7.245 7.245 0 0 0 3.243-1.877c.447-.44.83-.939 1.144-1.481a7.391 7.391 0 0 0 1.005-3.736 7.097 7.097 0 0 0-.574-2.885zm-6.785 6.479a3.579 3.579 0 0 1-3.587-3.574 3.584 3.584 0 0 1 2.522-3.418c.054-.015.108-.034.162-.049.059-.015.113-.03.172-.039.166-.04.338-.059.52-.068.068-.005.132-.005.2-.005a3.585 3.585 0 0 1 3.592 3.574c.005 1.975-1.6 3.574-3.582 3.579zM84.445 17.196c-.152-.308-.177-.568-.084-.783.094-.215.314-.322.668-.322h2.875a.82.82 0 0 1 .82.601c.127.396.27.836.421 1.325.152.489.314.988.486 1.491.167.509.334 1.012.5 1.511.167.499.32.958.457 1.384.137.42.26.787.373 1.1.108.313.191.538.24.67l2.375-7.486c.098-.24.206-.4.329-.48.122-.082.299-.121.52-.121h2.659c.216 0 .383.024.496.078a.434.434 0 0 1 .225.21.53.53 0 0 1 .025.308 1.904 1.904 0 0 1-.113.362l-1.236 3.007c.053.127.152.342.304.645s.319.646.51 1.027c.191.386.388.787.584 1.208.196.42.363.816.5 1.178l2.748-7.432c.098-.24.196-.4.299-.479.103-.083.251-.122.457-.122h2.482c.359 0 .609.068.741.2.133.132.143.387.025.763l-5.26 12.766a.93.93 0 0 1-.31.343c-.137.093-.338.141-.598.141h-1.177c-.29 0-.506-.044-.638-.141a1.047 1.047 0 0 1-.324-.362l-2.09-5.08-2.051 5.104c-.084.132-.182.25-.29.343-.112.092-.28.141-.505.141h-1.335c-.299 0-.51-.044-.632-.127a.76.76 0 0 1-.275-.352l-5.201-12.62zM121.243 20.292a7.293 7.293 0 0 0-1.448-2.328 6.653 6.653 0 0 0-2.212-1.554c-.859-.377-1.796-.563-2.812-.563-.412 0-.785.04-1.123.113-.339.073-.648.18-.928.308-.279.132-.54.293-.78.474-.24.186-.461.391-.672.616l-.005-4.655c0-.24-.083-.44-.245-.606-.167-.161-.393-.245-.673-.245h-2.546a.843.843 0 0 0-.299.064 1.008 1.008 0 0 0-.27.171.904.904 0 0 0-.192.27.817.817 0 0 0-.073.346l.01 16.712c0 .577.299.86.898.86h2.222a.822.822 0 0 0 .339-.053.477.477 0 0 0 .206-.161c.054-.069.108-.162.152-.27.044-.107.103-.23.167-.376l.201-.538c.201.2.432.401.692.597.26.2.539.376.849.533.304.156.633.283.981.381.348.098.711.147 1.094.147 1.021 0 1.958-.19 2.811-.572a6.785 6.785 0 0 0 2.213-1.56 7.176 7.176 0 0 0 1.448-2.332c.348-.895.52-1.858.52-2.885-.005-1.036-.177-2.005-.525-2.894zm-6.702 6.439a3.593 3.593 0 0 1-1.713-.43 3.432 3.432 0 0 1-.8-.572 3.543 3.543 0 0 1-.76-1.066 3.428 3.428 0 0 1-.319-1.32v-.186c0-.05 0-.098.005-.147.005-.059.005-.117.01-.176a3.576 3.576 0 0 1 3.567-3.251 3.578 3.578 0 0 1 3.586 3.574 3.563 3.563 0 0 1-3.576 3.574zM124.016 16.937c0-.24.068-.445.201-.616.132-.171.343-.26.628-.26h2.571a.78.78 0 0 1 .294.064c.103.04.201.103.295.181.088.078.166.171.23.274a.718.718 0 0 1 .098.357l.005 12.473c0 .283-.078.498-.235.645-.157.147-.383.22-.672.22h-2.571c-.555 0-.83-.288-.83-.86l-.014-12.478zM142.975 28.564a7.475 7.475 0 0 1-2.223 1.418 6.822 6.822 0 0 1-2.615.508 7.643 7.643 0 0 1-5.314-2.107 7.424 7.424 0 0 1-1.638-2.332 7.028 7.028 0 0 1-.609-2.92 7.597 7.597 0 0 1 .923-3.638 7.217 7.217 0 0 1 1.074-1.48c.422-.45.898-.836 1.418-1.16a7.045 7.045 0 0 1 1.708-.752 6.832 6.832 0 0 1 1.943-.269 6.73 6.73 0 0 1 1.805.244 7.082 7.082 0 0 1 3.052 1.77c.427.416.795.876 1.099 1.37.309.493.545 1.026.712 1.588.166.563.255 1.145.255 1.741 0 .386-.005.704-.015.949-.01.244-.069.44-.172.586-.103.147-.279.245-.52.304-.245.053-.598.083-1.069.083l-8.082.005c.074.479.226.875.457 1.197.23.323.49.577.79.768.299.19.618.328.956.406.339.083.653.122.957.122.27 0 .545-.03.829-.083.285-.054.56-.132.825-.225.265-.093.51-.2.731-.323.221-.122.397-.254.535-.386.117-.098.22-.17.309-.22a.549.549 0 0 1 .275-.073c.098 0 .196.034.299.102.103.069.216.167.343.289l1.193 1.34a.787.787 0 0 1 .157.264.803.803 0 0 1 .034.24.603.603 0 0 1-.123.386 1.501 1.501 0 0 1-.299.288zm-5.407-9.314c-.29 0-.574.058-.849.176-.275.117-.53.269-.77.464a3.902 3.902 0 0 0-.643.66 3.867 3.867 0 0 0-.466.748l5.741-.004a7.237 7.237 0 0 0-.511-.807 3.409 3.409 0 0 0-.628-.65 2.676 2.676 0 0 0-.809-.436 3.334 3.334 0 0 0-1.065-.151zM125.016 9.569a3.337 3.337 0 0 1 3.346 3.33 1.03 1.03 0 0 1-1.035 1.03h-2.311c-.574 0-1.036-.459-1.036-1.03v-2.304c0-.562.462-1.026 1.036-1.026z" fill="#D9D9D9"/>
</svg>
