<svg width="230" height="197" fill="none" xmlns="http://www.w3.org/2000/svg">
    <g opacity=".2" filter="url(#a)">
        <rect x="182.699" y="149.66" width="135.196" height="101.648" rx="11.18" transform="rotate(-180 182.699 149.66)" fill="#0F0941" fill-opacity=".5"/>
    </g>
    <g filter="url(#b)">
        <path d="M116.633 165.177c-.187.799-1.325.799-1.512 0l-3.126-13.367h7.764l-3.126 13.367z" fill="#090A42" fill-opacity=".4"/>
    </g>
    <path d="M116.136 169.601a.776.776 0 0 1-1.293 0l-7.506-11.296h16.305l-7.506 11.296z" fill="#fff"/>
    <rect x="184.201" y="158.672" width="138.201" height="118.672" rx="10.87" transform="rotate(-180 184.201 158.672)" fill="#fff"/>
    <mask id="c" style="mask-type:alpha" maskUnits="userSpaceOnUse" x="46" y="40" width="139" height="119">
        <rect x="184.201" y="158.672" width="138.201" height="118.672" rx="10.87" transform="rotate(-180 184.201 158.672)" fill="#fff"/>
    </mask>
    <g mask="url(#c)">
        <path d="M187.077 107.125H41.45V44.863A4.863 4.863 0 0 1 46.313 40h135.901a4.863 4.863 0 0 1 4.863 4.863v62.262z" fill="#FC6951"/>
    </g>
    <mask id="d" style="mask-type:alpha" maskUnits="userSpaceOnUse" x="46" y="40" width="138" height="67">
        <path d="M184 107H46V44.863A4.863 4.863 0 0 1 50.863 40h128.274A4.863 4.863 0 0 1 184 44.863V107z" fill="#FC6951"/>
    </mask>
    <g mask="url(#d)">
        <path d="M113.781 4.146c-6.543 1.032-12.547 4.292-18.176 9.85-5.51 5.418-9.498 12.336-10.624 18.387l-.304 1.572-.915-.751c-1.267-1.008-5.746-3.917-7.646-4.948-3.963-2.158-9.756-4.363-14-5.371-8.162-1.9-16.652-1.736-22.07.422-3.658 1.454-6.473 3.963-7.974 7.106-.774 1.642-.844 1.947-.914 4.386-.094 2.204-.024 2.908.422 4.339 2.11 7.059 9.522 13.508 20.286 17.66 4.644 1.782 9.968 3.212 13.275 3.54.89.094 1.688.259 1.758.352.07.118.024.212-.117.212-.516 0-5.91 2.439-8.349 3.775-6.684 3.682-13.532 9.123-20.17 15.948-12.312 12.735-19.817 24.743-21.833 35.038-.61 3.096-.563 8.49.093 11.164 1.337 5.464 3.8 9.615 8.232 13.86 3.659 3.518 8.068 6.168 13.016 7.81 4.245 1.407 5.817 1.642 11.164 1.642 4.432-.024 5.042-.071 7.622-.68 8.138-1.9 15.033-5.887 21.576-12.454 9.803-9.873 17.613-25.024 20.756-40.291.68-3.377.985-5.864 1.149-9.663l.141-3.518 1.43 4.339c3.026 9.193 7.177 18.27 10.859 23.851 3.307 4.996 7.294 8.678 10.741 9.921 1.196.422 1.806.492 3.635.422 3.026-.094 4.738-.938 7.341-3.565 3.87-3.893 6.051-9.967 6.707-18.527.329-4.456-.14-10.53-1.102-14.306l-.164-.68 1.501.14c6.004.61 10.366.75 23.312.75 16.557 0 23.781-.422 32.951-1.9 11.679-1.852 17.12-4.971 17.12-9.779 0-7.06-15.197-14.189-35.648-16.745-2.673-.328-5.136-.422-11.374-.422-8.349 0-11.047.21-16.3 1.29-1.219.258-2.251.422-2.298.375-.047-.047.234-.704.61-1.454 2.415-4.831 3.682-12.055 3.119-17.965-.469-4.948-1.454-8.56-3.518-12.969-2.064-4.339-4.362-7.693-7.763-11.234-5.253-5.488-11.21-8.982-17.824-10.483-2.322-.516-7.646-.774-9.733-.446z" fill="#FF9382"/>
    </g>
    <path d="M66.972 117.982h-6.98v1.69h2.6v7.28h1.793v-7.28h2.587v-1.69zm6.63 5.668c0-2.002-1.496-3.484-3.485-3.484-2.002 0-3.523 1.482-3.523 3.445 0 1.989 1.573 3.497 3.68 3.497 1.247 0 2.313-.507 3.002-1.326l-1.13-.988c-.352.442-1.015.819-1.82.819-.963 0-1.665-.533-1.899-1.365h5.135c.026-.182.04-.416.04-.598zm-3.498-2.002c.82 0 1.482.533 1.69 1.365h-3.38c.208-.819.858-1.365 1.69-1.365zm9.694-1.326v.793a2.862 2.862 0 0 0-2.158-.949c-1.846 0-3.237 1.495-3.237 3.471s1.39 3.471 3.237 3.471c.884 0 1.625-.364 2.158-.949v.793h1.69v-6.63h-1.69zm-1.833 5.148c-1.04 0-1.82-.793-1.82-1.833s.78-1.833 1.82-1.833c1.053 0 1.833.793 1.833 1.833s-.78 1.833-1.833 1.833zm13.125-5.304c-.962 0-1.729.377-2.262 1.079-.416-.676-1.144-1.079-2.08-1.079-.806 0-1.469.286-1.963.845v-.689h-1.69v6.63h1.69v-3.783c0-.819.572-1.365 1.391-1.365.793 0 1.313.533 1.313 1.339v3.809h1.69v-3.783c0-.819.56-1.365 1.391-1.365.793 0 1.3.533 1.3 1.339v3.809h1.69v-4.316c0-1.495-.975-2.47-2.47-2.47zm10.159 6.942c1.963 0 3.497-1.105 3.497-2.717 0-2.054-2.457-2.665-3.289-2.834-.832-.182-1.768-.481-1.768-1.17 0-.559.637-.962 1.534-.962s1.794.377 2.301.871l.832-1.352c-.663-.65-1.768-1.118-3.107-1.118-2.015 0-3.406 1.04-3.406 2.639 0 1.573 1.404 2.392 3.12 2.795.923.221 1.937.455 1.937 1.209 0 .624-.754 1.04-1.651 1.04-1.014 0-2.08-.481-2.808-1.17l-.923 1.365c.91.845 2.353 1.404 3.731 1.404zm11.251-3.458c0-2.002-1.495-3.484-3.484-3.484-2.002 0-3.523 1.482-3.523 3.445 0 1.989 1.573 3.497 3.679 3.497 1.248 0 2.314-.507 3.003-1.326l-1.131-.988c-.351.442-1.014.819-1.82.819-.962 0-1.664-.533-1.898-1.365h5.135c.026-.182.039-.416.039-.598zm-3.497-2.002c.819 0 1.482.533 1.69 1.365h-3.38c.208-.819.858-1.365 1.69-1.365zm6.963 5.46c1.586 0 2.834-.767 2.834-2.171 0-1.508-1.365-1.833-2.418-2.067-.741-.156-1.3-.299-1.3-.741 0-.39.468-.572 1.04-.572.676 0 1.235.247 1.716.611l.819-1.131a4.087 4.087 0 0 0-2.574-.871c-1.469 0-2.704.689-2.704 2.093 0 1.508 1.365 1.833 2.418 2.067.728.169 1.3.325 1.3.767 0 .403-.494.624-1.17.624-.793 0-1.43-.299-1.937-.741l-.819 1.118c.637.546 1.56 1.014 2.795 1.014zm6.246 0c1.586 0 2.834-.767 2.834-2.171 0-1.508-1.365-1.833-2.418-2.067-.741-.156-1.3-.299-1.3-.741 0-.39.468-.572 1.04-.572.676 0 1.235.247 1.716.611l.819-1.131a4.087 4.087 0 0 0-2.574-.871c-1.469 0-2.704.689-2.704 2.093 0 1.508 1.365 1.833 2.418 2.067.728.169 1.3.325 1.3.767 0 .403-.494.624-1.17.624-.793 0-1.43-.299-1.937-.741l-.819 1.118c.637.546 1.56 1.014 2.795 1.014zm4.816-7.761c.598 0 1.066-.455 1.066-1.053 0-.598-.468-1.053-1.066-1.053-.598 0-1.066.455-1.066 1.053 0 .598.468 1.053 1.066 1.053zm-.845 7.605h1.69v-6.63h-1.69v6.63zm6.46.156c2.028 0 3.562-1.495 3.562-3.471s-1.534-3.471-3.562-3.471c-2.028 0-3.562 1.495-3.562 3.471s1.534 3.471 3.562 3.471zm0-1.638c-1.04 0-1.82-.793-1.82-1.833s.78-1.833 1.82-1.833c1.053 0 1.82.793 1.82 1.833s-.767 1.833-1.82 1.833zm8.571-5.304c-.858 0-1.586.312-2.106.897v-.741h-1.69v6.63h1.69v-3.64c0-.91.624-1.508 1.547-1.508.884 0 1.456.585 1.456 1.482v3.666h1.69v-4.212c0-1.56-1.027-2.574-2.587-2.574z" fill="#131313"/>
    <path d="M64.504 135.48h-4.296v1.04h1.6V141h1.104v-4.48h1.592v-1.04zm2.984 1.344c-.528 0-.976.2-1.296.576v-2.16h-1.04V141h1.04v-2.24c0-.56.384-.928.96-.928.536 0 .888.36.888.912V141h1.04v-2.592c0-.96-.632-1.584-1.592-1.584zm4.364 4.272c1.144 0 1.904-.68 1.904-1.72v-2.456h-1.04v2.312c0 .52-.344.856-.864.856s-.864-.336-.864-.856v-2.312h-1.04v2.456c0 1.04.752 1.72 1.904 1.72zm5.047-4.24c-.48 0-.88.216-1.175.592v-.528h-1.04V141h1.04v-1.936c0-.696.431-1.136 1.175-1.136h.177v-1.072H76.9zm2.192 4.24c.977 0 1.745-.472 1.745-1.336 0-.928-.84-1.128-1.489-1.272-.456-.096-.8-.184-.8-.456 0-.24.288-.352.64-.352.416 0 .76.152 1.056.376l.505-.696a2.515 2.515 0 0 0-1.585-.536c-.903 0-1.663.424-1.663 1.288 0 .928.84 1.128 1.487 1.272.449.104.8.2.8.472 0 .248-.303.384-.72.384a1.77 1.77 0 0 1-1.191-.456l-.505.688c.392.336.96.624 1.72.624zm5.532-5.856v2.168a1.761 1.761 0 0 0-1.328-.584c-1.136 0-1.992.92-1.992 2.136 0 1.216.856 2.136 1.992 2.136.544 0 1-.224 1.328-.584V141h1.04v-5.76h-1.04zm-1.128 4.848c-.64 0-1.12-.488-1.12-1.128 0-.64.48-1.128 1.12-1.128.648 0 1.128.488 1.128 1.128 0 .64-.48 1.128-1.128 1.128zm6.245-3.168v.488a1.761 1.761 0 0 0-1.328-.584c-1.136 0-1.992.92-1.992 2.136 0 1.216.856 2.136 1.992 2.136.544 0 1-.224 1.328-.584V141h1.04v-4.08h-1.04zm-1.128 3.168c-.64 0-1.12-.488-1.12-1.128 0-.64.48-1.128 1.12-1.128.648 0 1.128.488 1.128 1.128 0 .64-.48 1.128-1.128 1.128zm6.005-3.168-1.056 2.776-1.064-2.776h-1.184l1.664 4.016-.168.352c-.104.232-.272.32-.464.32a.705.705 0 0 1-.496-.216l-.4.816c.272.248.704.408 1.072.408.536 0 1.016-.344 1.24-.904l2.016-4.792h-1.16zm.634 5.24h.896l.88-2.256H95.81l-.56 2.256zm8.931-6.68-1.576 2.872-1.568-2.872h-1.376V141h1.104v-3.792l1.52 2.8h.624l1.528-2.8V141h1.104v-5.52h-1.36zm5.504 1.44v.488a1.761 1.761 0 0 0-1.328-.584c-1.136 0-1.992.92-1.992 2.136 0 1.216.856 2.136 1.992 2.136.544 0 1-.224 1.328-.584V141h1.04v-4.08h-1.04zm-1.128 3.168c-.64 0-1.12-.488-1.12-1.128 0-.64.48-1.128 1.12-1.128.648 0 1.128.488 1.128 1.128 0 .64-.48 1.128-1.128 1.128zm6.005-3.168-1.056 2.776-1.064-2.776h-1.184l1.664 4.016-.168.352c-.104.232-.272.32-.464.32a.705.705 0 0 1-.496-.216l-.4.816c.272.248.704.408 1.072.408.536 0 1.016-.344 1.24-.904l2.016-4.792h-1.16zm4.799-1.44-1.696.936.472.888.904-.512V141h1.104v-5.52h-.784zm4.02 1.984c-.352 0-.728.104-1.032.32.336-.648 1.112-1.192 2.232-1.368l-.216-1.032c-2.112.272-3.44 1.744-3.44 3.464 0 1.368.832 2.248 2.104 2.248 1.192 0 2.08-.792 2.08-1.872 0-.976-.744-1.76-1.728-1.76zm-.352 2.568c-.576 0-.976-.344-.976-.808 0-.496.504-.744.992-.744.536 0 .928.328.928.768 0 .448-.408.784-.944.784zm4.321-4.552v1.04h2.368l-2.04 4.48h1.248l2.104-4.656v-.864h-3.68zm4.955 2.984c.408 0 .72-.312.72-.72a.707.707 0 0 0-.72-.72.709.709 0 0 0-.728.72c0 .408.312.72.728.72zm0 2.608c.408 0 .72-.312.72-.72a.707.707 0 0 0-.72-.72.709.709 0 0 0-.728.72c0 .408.312.72.728.72zm3.589.024c1.28 0 2.168-1.168 2.168-2.856s-.888-2.856-2.168-2.856c-1.272 0-2.168 1.168-2.168 2.856s.896 2.856 2.168 2.856zm0-1.064c-.6 0-1.032-.736-1.032-1.792s.432-1.792 1.032-1.792c.608 0 1.032.736 1.032 1.792s-.424 1.792-1.032 1.792zm5.071 1.064c1.28 0 2.168-1.168 2.168-2.856s-.888-2.856-2.168-2.856c-1.272 0-2.168 1.168-2.168 2.856s.896 2.856 2.168 2.856zm0-1.064c-.6 0-1.032-.736-1.032-1.792s.432-1.792 1.032-1.792c.608 0 1.032.736 1.032 1.792s-.424 1.792-1.032 1.792zm5.398-3.208c-.544 0-1 .216-1.328.584v-.488h-1.04v5.6h1.04v-2.008c.328.368.784.584 1.328.584 1.136 0 1.984-.92 1.984-2.136 0-1.216-.848-2.136-1.984-2.136zm-.208 3.264c-.64 0-1.12-.488-1.12-1.128 0-.64.48-1.128 1.12-1.128.648 0 1.12.488 1.12 1.128 0 .64-.472 1.128-1.12 1.128zm7.877-3.264c-.592 0-1.064.232-1.392.664-.256-.416-.704-.664-1.28-.664-.496 0-.904.176-1.208.52v-.424h-1.04V141h1.04v-2.328c0-.504.352-.84.856-.84.488 0 .808.328.808.824V141h1.04v-2.328c0-.504.344-.84.856-.84.488 0 .8.328.8.824V141h1.04v-2.656c0-.92-.6-1.52-1.52-1.52z" fill="#4E5460"/>
    <defs>
        <filter id="a" x=".228" y=".737" width="229.746" height="196.198" filterUnits="userSpaceOnUse" color-interpolation-filters="sRGB">
            <feFlood flood-opacity="0" result="BackgroundImageFix"/>
            <feBlend in="SourceGraphic" in2="BackgroundImageFix" result="shape"/>
            <feGaussianBlur stdDeviation="23.637" result="effect1_foregroundBlur"/>
        </filter>
        <filter id="b" x="96.467" y="136.282" width="38.82" height="45.022" filterUnits="userSpaceOnUse" color-interpolation-filters="sRGB">
            <feFlood flood-opacity="0" result="BackgroundImageFix"/>
            <feBlend in="SourceGraphic" in2="BackgroundImageFix" result="shape"/>
            <feGaussianBlur stdDeviation="7.764" result="effect1_foregroundBlur"/>
        </filter>
    </defs>
</svg>
