<svg width="87" height="26" fill="none" xmlns="http://www.w3.org/2000/svg">
    <path d="M.645 12.897C.645 6.13 6.13.645 12.897.645h60.617c6.767 0 12.252 5.485 12.252 12.252S80.281 25.15 73.514 25.15H12.897C6.13 25.15.645 19.665.645 12.897z" fill="#61C7D1" stroke="#61C7D1" stroke-width="1.29"/>
    <path d="M20.158 8.905h-3.882v8.899h1.78v-2.967h2.102c1.728 0 3.056-1.277 3.056-2.966 0-1.69-1.328-2.966-3.056-2.966zm-.039 4.256h-2.063v-2.58h2.063c.722 0 1.264.555 1.264 1.29s-.542 1.29-1.264 1.29zm7.737-2.038c-.774 0-1.418.348-1.896.954v-.85h-1.676v6.577h1.676v-3.121c0-1.123.697-1.832 1.896-1.832h.284v-1.728h-.284zm7.665 3.405c0-1.986-1.483-3.457-3.457-3.457-1.986 0-3.495 1.47-3.495 3.418 0 1.973 1.56 3.47 3.65 3.47 1.238 0 2.296-.503 2.98-1.316l-1.123-.98c-.348.438-1.006.812-1.805.812-.955 0-1.651-.529-1.883-1.354h5.094c.026-.18.039-.413.039-.593zm-3.47-1.986c.813 0 1.47.528 1.677 1.354h-3.353c.206-.813.851-1.354 1.676-1.354zm4.587 2.54h3.766v-1.625h-3.766v1.625zm8.187 2.877c1.948 0 3.47-1.097 3.47-2.696 0-2.038-2.438-2.644-3.263-2.812-.826-.18-1.754-.477-1.754-1.16 0-.555.632-.955 1.522-.955s1.78.374 2.282.864l.826-1.341c-.658-.645-1.754-1.11-3.083-1.11-1.999 0-3.379 1.033-3.379 2.619 0 1.56 1.393 2.373 3.096 2.773.915.22 1.921.451 1.921 1.2 0 .618-.748 1.031-1.638 1.031-1.006 0-2.063-.477-2.785-1.16l-.916 1.354c.903.838 2.334 1.393 3.701 1.393zm11.162-3.431c0-1.986-1.483-3.457-3.456-3.457-1.986 0-3.495 1.47-3.495 3.418 0 1.973 1.56 3.47 3.65 3.47 1.238 0 2.296-.503 2.98-1.316l-1.123-.98c-.348.438-1.006.812-1.806.812-.954 0-1.65-.529-1.883-1.354h5.095a4.6 4.6 0 0 0 .038-.593zm-3.469-1.986c.813 0 1.47.528 1.677 1.354h-3.353c.206-.813.85-1.354 1.676-1.354zm11.19 1.986c0-1.986-1.483-3.457-3.456-3.457-1.986 0-3.495 1.47-3.495 3.418 0 1.973 1.56 3.47 3.65 3.47 1.238 0 2.295-.503 2.979-1.316l-1.122-.98c-.349.438-1.006.812-1.806.812-.954 0-1.65-.529-1.883-1.354h5.094c.026-.18.04-.413.04-.593zm-3.47-1.986c.813 0 1.471.528 1.678 1.354h-3.354c.207-.813.852-1.354 1.677-1.354zm9.618-4.024v3.495a2.84 2.84 0 0 0-2.141-.942c-1.832 0-3.212 1.484-3.212 3.444s1.38 3.444 3.212 3.444a2.84 2.84 0 0 0 2.14-.942v.787h1.677V8.518h-1.676zm-1.819 7.815c-1.032 0-1.806-.786-1.806-1.818s.774-1.819 1.806-1.819c1.045 0 1.819.787 1.819 1.819s-.774 1.818-1.819 1.818z" fill="#fff"/>
</svg>
