<svg width="143" height="30" fill="none" xmlns="http://www.w3.org/2000/svg">
    <g clip-path="url(#a)">
        <path fill-rule="evenodd" clip-rule="evenodd" d="M44.821 21.43h4.165c-.032-2.81-.032-4.733 0-5.768.098-3.12.098-4.727 2.17-4.727s2.134 1.54 2.236 4.727c.033 1.024.033 2.946 0 5.768h4.13v-5.768c0-3.075.27-4.727 2.228-4.727 1.958 0 2.14 1.619 2.14 4.727v5.768h4.163v-7.44c0-1.036.23-4.856-3.358-6.648-2.391-1.194-4.81-.844-7.258 1.049-2.391-1.895-4.79-2.244-7.197-1.049-3.61 1.794-3.419 5.512-3.419 6.649v7.439zM68.531 21.43h4.165c-.032-2.81-.032-4.733 0-5.768.098-3.12.098-4.727 2.17-4.727s2.134 1.54 2.236 4.727c.033 1.024.033 2.946 0 5.768h4.13v-5.768c0-3.075.27-4.727 2.228-4.727 1.958 0 2.14 1.619 2.14 4.727v5.768h4.163v-7.44c0-.2.23-4.856-3.358-6.648-2.391-1.194-4.81-.844-7.258 1.049-2.391-1.895-4.79-2.244-7.197-1.049-3.61 1.794-3.419 5.512-3.419 6.649v7.439z" fill="#D9D9D9"/>
        <path d="M140.834 21.43A2.17 2.17 0 0 0 143 19.255c0-1.2-.97-2.174-2.166-2.174a2.17 2.17 0 0 0-2.167 2.174c0 1.2.97 2.173 2.167 2.173z" fill="#D9D9D9"/>
        <path fill-rule="evenodd" clip-rule="evenodd" d="M109.015.81h4.333v20.62a4.333 4.333 0 0 1-4.333-4.334V.81z" fill="#D9D9D9"/>
        <path fill-rule="evenodd" clip-rule="evenodd" d="M112.419 7.89V3.543h7.057a4.347 4.347 0 0 1-4.347 4.348h-2.71z" fill="#D9D9D9"/>
        <path d="M119.477 16.461h-4.334v4.969a4.334 4.334 0 0 0 4.334-4.334v-.635z" fill="#D9D9D9"/>
        <path fill-rule="evenodd" clip-rule="evenodd" d="M0 13.977h4.21V25.79A4.21 4.21 0 0 1 0 30" fill="#D9D9D9"/>
        <path d="M35.286 19.262c2.906 0 5.261-2.366 5.261-5.285 0-2.92-2.355-5.286-5.261-5.286s-5.262 2.367-5.262 5.286c0 2.919 2.356 5.285 5.262 5.285zM7.428 19.262c2.906 0 5.262-2.366 5.262-5.285 0-2.92-2.356-5.286-5.262-5.286-2.905 0-5.261 2.367-5.261 5.286 0 2.919 2.356 5.285 5.261 5.285zM99.46 19.262c2.906 0 5.262-2.366 5.262-5.285 0-2.92-2.356-5.286-5.261-5.286-2.906 0-5.262 2.367-5.262 5.286 0 2.919 2.356 5.285 5.262 5.285zM129.175 19.262c2.905 0 5.261-2.366 5.261-5.285 0-2.92-2.356-5.286-5.261-5.286-2.906 0-5.262 2.367-5.262 5.286 0 2.919 2.356 5.285 5.262 5.285z" stroke="#D9D9D9" stroke-width="4.334"/>
        <path fill-rule="evenodd" clip-rule="evenodd" d="M17.127 21.544h4.36V6.743a4.36 4.36 0 0 0-4.36 4.36v10.441z" fill="#D9D9D9"/>
        <path fill-rule="evenodd" clip-rule="evenodd" d="m20.233 9.265.967 8.338-.003-3.133c-.001-1.283.26-2.112.848-2.474.976-.602 2.086-.793 3.33-.575l1.39-3.965c-.665-.356-1.603-.535-2.814-.536-1.816-.002-2.443.547-3.44 1.116-.666.38-.758.79-.278 1.23z" fill="#D9D9D9"/>
    </g>
    <defs>
        <clipPath id="a">
            <path fill="#fff" transform="translate(0 .81)" d="M0 0h143v29.19H0z"/>
        </clipPath>
    </defs>
</svg>
