<svg width="87" height="26" viewBox="0 0 87 26" fill="none" xmlns="http://www.w3.org/2000/svg">
<path d="M0.64486 12.8972C0.64486 6.13042 6.13042 0.64486 12.8972 0.64486H73.514C80.2808 0.64486 85.7663 6.13042 85.7663 12.8972C85.7663 19.664 80.2808 25.1495 73.514 25.1495H12.8972C6.13043 25.1495 0.64486 19.664 0.64486 12.8972Z" fill="#367BE7" stroke="#367BE7" stroke-width="1.28972"/>
<path d="M31.4537 17.9585C33.4012 17.9585 34.9231 16.8622 34.9231 15.263C34.9231 13.2252 32.4855 12.619 31.6601 12.4514C30.8347 12.2708 29.9061 11.9742 29.9061 11.2906C29.9061 10.736 30.538 10.3362 31.4279 10.3362C32.3178 10.3362 33.2078 10.7103 33.7107 11.2003L34.5362 9.85904C33.8784 9.21418 32.7821 8.74988 31.4537 8.74988C29.4547 8.74988 28.0747 9.78165 28.0747 11.368C28.0747 12.9286 29.4676 13.7411 31.17 14.1409C32.0857 14.3602 33.0917 14.5923 33.0917 15.3403C33.0917 15.9594 32.3436 16.3721 31.4537 16.3721C30.4478 16.3721 29.3902 15.8949 28.6679 15.2114L27.7522 16.5656C28.655 17.4039 30.0866 17.9585 31.4537 17.9585ZM42.6159 14.5278C42.6159 12.5417 41.1327 11.0714 39.1594 11.0714C37.1732 11.0714 35.6643 12.5417 35.6643 14.4891C35.6643 16.4624 37.2248 17.9585 39.3142 17.9585C40.5523 17.9585 41.6099 17.4555 42.2934 16.643L41.1714 15.6628C40.8231 16.1013 40.1654 16.4753 39.3658 16.4753C38.4114 16.4753 37.7149 15.9465 37.4828 15.1211H42.5772C42.603 14.9405 42.6159 14.7084 42.6159 14.5278ZM39.1465 12.5417C39.959 12.5417 40.6168 13.0704 40.8231 13.8959H37.4699C37.6762 13.0833 38.3211 12.5417 39.1465 12.5417ZM50.3365 14.5278C50.3365 12.5417 48.8534 11.0714 46.8801 11.0714C44.8939 11.0714 43.385 12.5417 43.385 14.4891C43.385 16.4624 44.9455 17.9585 47.0349 17.9585C48.273 17.9585 49.3306 17.4555 50.0141 16.643L48.8921 15.6628C48.5438 16.1013 47.8861 16.4753 47.0864 16.4753C46.1321 16.4753 45.4356 15.9465 45.2035 15.1211H50.2979C50.3236 14.9405 50.3365 14.7084 50.3365 14.5278ZM46.8672 12.5417C47.6797 12.5417 48.3375 13.0704 48.5438 13.8959H45.1906C45.3969 13.0833 46.0418 12.5417 46.8672 12.5417ZM56.4838 8.51773V12.0129C55.955 11.4325 55.2198 11.0714 54.3428 11.0714C52.5114 11.0714 51.1314 12.5546 51.1314 14.5149C51.1314 16.4753 52.5114 17.9585 54.3428 17.9585C55.2198 17.9585 55.955 17.5974 56.4838 17.017V17.8037H58.1604V8.51773H56.4838ZM54.6653 16.3334C53.6335 16.3334 52.8597 15.5467 52.8597 14.5149C52.8597 13.4832 53.6335 12.6964 54.6653 12.6964C55.7099 12.6964 56.4838 13.4832 56.4838 14.5149C56.4838 15.5467 55.7099 16.3334 54.6653 16.3334Z" fill="white"/>
</svg>
