<svg width="87" height="26" viewBox="0 0 87 26" fill="none" xmlns="http://www.w3.org/2000/svg">
<path d="M0.64486 12.8972C0.64486 6.13042 6.13042 0.64486 12.8972 0.64486H73.514C80.2808 0.64486 85.7663 6.13042 85.7663 12.8972C85.7663 19.664 80.2808 25.1495 73.514 25.1495H12.8972C6.13043 25.1495 0.64486 19.664 0.64486 12.8972Z" fill="#F573A0" stroke="#F573A0" stroke-width="1.28972"/>
<path d="M22.9795 17.9585C24.927 17.9585 26.4489 16.8622 26.4489 15.263C26.4489 13.2252 24.0113 12.619 23.1859 12.4514C22.3605 12.2708 21.4319 11.9742 21.4319 11.2906C21.4319 10.736 22.0638 10.3362 22.9537 10.3362C23.8437 10.3362 24.7336 10.7103 25.2365 11.2003L26.062 9.85904C25.4042 9.21418 24.308 8.74988 22.9795 8.74988C20.9805 8.74988 19.6005 9.78165 19.6005 11.368C19.6005 12.9286 20.9934 13.7411 22.6958 14.1409C23.6115 14.3602 24.6175 14.5923 24.6175 15.3403C24.6175 15.9594 23.8694 16.3721 22.9795 16.3721C21.9736 16.3721 20.916 15.8949 20.1937 15.2114L19.278 16.5656C20.1808 17.4039 21.6124 17.9585 22.9795 17.9585ZM34.1417 14.5278C34.1417 12.5417 32.6585 11.0714 30.6852 11.0714C28.699 11.0714 27.1901 12.5417 27.1901 14.4891C27.1901 16.4624 28.7506 17.9585 30.84 17.9585C32.0781 17.9585 33.1357 17.4555 33.8192 16.643L32.6972 15.6628C32.349 16.1013 31.6912 16.4753 30.8916 16.4753C29.9372 16.4753 29.2407 15.9465 29.0086 15.1211H34.103C34.1288 14.9405 34.1417 14.7084 34.1417 14.5278ZM30.6723 12.5417C31.4848 12.5417 32.1426 13.0704 32.349 13.8959H28.9957C29.202 13.0833 29.8469 12.5417 30.6723 12.5417ZM38.8831 11.123C38.1093 11.123 37.4644 11.4712 36.9872 12.0774V11.2261H35.3106V17.8037H36.9872V14.6826C36.9872 13.5605 37.6837 12.8512 38.8831 12.8512H39.1668V11.123H38.8831ZM40.9853 10.2589C41.5786 10.2589 42.0429 9.80745 42.0429 9.21418C42.0429 8.62091 41.5786 8.16951 40.9853 8.16951C40.3921 8.16951 39.9278 8.62091 39.9278 9.21418C39.9278 9.80745 40.3921 10.2589 40.9853 10.2589ZM40.147 17.8037H41.8237V11.2261H40.147V17.8037ZM49.9735 14.5278C49.9735 12.5417 48.4903 11.0714 46.517 11.0714C44.5309 11.0714 43.0219 12.5417 43.0219 14.4891C43.0219 16.4624 44.5824 17.9585 46.6718 17.9585C47.9099 17.9585 48.9675 17.4555 49.651 16.643L48.529 15.6628C48.1808 16.1013 47.523 16.4753 46.7234 16.4753C45.769 16.4753 45.0725 15.9465 44.8404 15.1211H49.9348C49.9606 14.9405 49.9735 14.7084 49.9735 14.5278ZM46.5041 12.5417C47.3166 12.5417 47.9744 13.0704 48.1808 13.8959H44.8275C45.0338 13.0833 45.6787 12.5417 46.5041 12.5417ZM53.4123 17.9585C54.9857 17.9585 56.2239 17.1975 56.2239 15.8046C56.2239 14.3086 54.8697 13.9861 53.825 13.754C53.0899 13.5992 52.5353 13.4574 52.5353 13.0189C52.5353 12.6319 52.9996 12.4514 53.5671 12.4514C54.2377 12.4514 54.7923 12.6964 55.2695 13.0575L56.082 11.9355C55.4887 11.4712 54.6504 11.0714 53.5284 11.0714C52.071 11.0714 50.8457 11.7549 50.8457 13.1478C50.8457 14.6439 52.2 14.9663 53.2446 15.1985C53.9669 15.3661 54.5343 15.5209 54.5343 15.9594C54.5343 16.3592 54.0442 16.5785 53.3736 16.5785C52.5869 16.5785 51.9549 16.2818 51.4519 15.8433L50.6394 16.9525C51.2714 17.4942 52.1871 17.9585 53.4123 17.9585ZM66.6317 17.8037H68.5792L65.1614 8.90465H63.0592L59.6285 17.8037H61.5502L62.1822 16.0755H65.9997L66.6317 17.8037ZM62.7754 14.4375L64.091 10.865L65.3936 14.4375H62.7754Z" fill="white"/>
</svg>
