<svg width="84" height="28" fill="none" xmlns="http://www.w3.org/2000/svg">
    <path d="M0 14.485C0 7.029 6.044.985 13.5.985h57c7.456 0 13.5 6.044 13.5 13.5s-6.044 13.5-13.5 13.5h-57c-7.456 0-13.5-6.044-13.5-13.5z" fill="#FCC55C"/>
    <path d="M19.539 19.129c1.812 0 3.228-1.02 3.228-2.508 0-1.896-2.268-2.46-3.036-2.616-.768-.168-1.632-.444-1.632-1.08 0-.516.588-.888 1.416-.888s1.656.348 2.124.804l.768-1.248c-.612-.6-1.632-1.032-2.868-1.032-1.86 0-3.144.96-3.144 2.436 0 1.452 1.296 2.208 2.88 2.58.852.204 1.788.42 1.788 1.116 0 .576-.696.96-1.524.96-.936 0-1.92-.444-2.592-1.08l-.852 1.26c.84.78 2.172 1.296 3.444 1.296zm9.321-4.836v-1.428h-1.643v-1.548h-1.56v1.548h-.973v1.428h.973v2.796c0 1.224.66 2.04 2.064 2.04.456 0 .803-.084 1.14-.264v-1.452a1.849 1.849 0 0 1-.805.204c-.552 0-.84-.264-.84-.78v-2.544h1.644zm7.05-1.428v.732a2.642 2.642 0 0 0-1.991-.876c-1.704 0-2.988 1.38-2.988 3.204 0 1.824 1.284 3.204 2.988 3.204.816 0 1.5-.336 1.992-.876v.732h1.56v-6.12h-1.56zm-1.691 4.752c-.96 0-1.68-.732-1.68-1.692s.72-1.692 1.68-1.692c.972 0 1.692.732 1.692 1.692s-.72 1.692-1.692 1.692zm9.5-4.848c-.72 0-1.32.324-1.765.888v-.792h-1.56v6.12h1.56V16.08c0-1.044.648-1.704 1.764-1.704h.264v-1.608h-.264zm6.489 1.524v-1.428h-1.644v-1.548h-1.56v1.548h-.972v1.428h.972v2.796c0 1.224.66 2.04 2.064 2.04.456 0 .804-.084 1.14-.264v-1.452a1.849 1.849 0 0 1-.804.204c-.552 0-.84-.264-.84-.78v-2.544h1.644zm5.354 4.836c1.716 0 2.856-1.02 2.856-2.58v-3.684h-1.56v3.468c0 .78-.516 1.284-1.296 1.284s-1.296-.504-1.296-1.284v-3.468h-1.56v3.684c0 1.56 1.128 2.58 2.856 2.58zm9.24-6.408c-.817 0-1.5.324-1.993.876v-.732h-1.56v8.4h1.56v-3.012c.492.552 1.177.876 1.993.876 1.703 0 2.975-1.38 2.975-3.204 0-1.824-1.272-3.204-2.975-3.204zm-.313 4.896c-.96 0-1.68-.732-1.68-1.692s.72-1.692 1.68-1.692c.972 0 1.68.732 1.68 1.692s-.707 1.692-1.68 1.692z" fill="#fff"/>
</svg>
