<svg width="109" height="28" fill="none" xmlns="http://www.w3.org/2000/svg">
    <path d="M0 14.485C0 7.029 6.044.985 13.5.985h82c7.456 0 13.5 6.044 13.5 13.5s-6.044 13.5-13.5 13.5h-82c-7.456 0-13.5-6.044-13.5-13.5z" fill="#F573A0"/>
    <path d="m24.437 10.705-1.704 6.024-1.716-6.024h-1.452l-1.716 6.024-1.704-6.024h-1.752l2.592 8.28h1.644l1.644-5.748 1.632 5.748h1.656l2.58-8.28h-1.704zm6.02 8.424c1.873 0 3.289-1.38 3.289-3.204 0-1.824-1.416-3.204-3.288-3.204-1.872 0-3.288 1.38-3.288 3.204 0 1.824 1.416 3.204 3.288 3.204zm0-1.512c-.96 0-1.68-.732-1.68-1.692s.72-1.692 1.68-1.692c.973 0 1.68.732 1.68 1.692s-.707 1.692-1.68 1.692zm9.173-4.848c-.72 0-1.32.324-1.764.888v-.792h-1.56v6.12h1.56V16.08c0-1.044.648-1.704 1.764-1.704h.264v-1.608h-.264zm6.492 6.216h2.04l-2.712-3.288 2.628-2.832h-2.016l-2.256 2.508v-5.028h-1.56v8.64h1.56V17.46l.54-.588 1.776 2.112zm11.285.144c1.812 0 3.228-1.02 3.228-2.508 0-1.896-2.268-2.46-3.036-2.616-.768-.168-1.632-.444-1.632-1.08 0-.516.588-.888 1.416-.888s1.656.348 2.124.804l.768-1.248c-.612-.6-1.632-1.032-2.868-1.032-1.86 0-3.144.96-3.144 2.436 0 1.452 1.296 2.208 2.88 2.58.852.204 1.788.42 1.788 1.116 0 .576-.696.96-1.524.96-.936 0-1.92-.444-2.592-1.08l-.852 1.26c.84.78 2.172 1.296 3.444 1.296zm9.211-6.408c-.816 0-1.5.324-1.992.876v-.732h-1.56v8.4h1.56v-3.012c.492.552 1.176.876 1.992.876 1.704 0 2.976-1.38 2.976-3.204 0-1.824-1.272-3.204-2.976-3.204zm-.312 4.896c-.96 0-1.68-.732-1.68-1.692s.72-1.692 1.68-1.692c.972 0 1.68.732 1.68 1.692s-.708 1.692-1.68 1.692zm10.508-4.752v.732a2.642 2.642 0 0 0-1.992-.876c-1.704 0-2.988 1.38-2.988 3.204 0 1.824 1.284 3.204 2.988 3.204.816 0 1.5-.336 1.992-.876v.732h1.56v-6.12h-1.56zm-1.692 4.752c-.96 0-1.68-.732-1.68-1.692s.72-1.692 1.68-1.692c.972 0 1.692.732 1.692 1.692s-.72 1.692-1.692 1.692zm9.092 1.512c1.236 0 2.268-.6 2.82-1.524l-1.356-.816c-.276.492-.816.828-1.464.828-.96 0-1.68-.732-1.68-1.692s.72-1.692 1.68-1.692c.648 0 1.188.336 1.464.828l1.356-.816c-.552-.924-1.584-1.524-2.82-1.524-1.872 0-3.288 1.38-3.288 3.204 0 1.824 1.416 3.204 3.288 3.204zm11.229-3.192c0-1.848-1.38-3.216-3.216-3.216-1.848 0-3.252 1.368-3.252 3.18 0 1.836 1.452 3.228 3.396 3.228 1.152 0 2.136-.468 2.772-1.224l-1.044-.912c-.324.408-.936.756-1.68.756-.888 0-1.536-.492-1.752-1.26h4.74c.024-.168.036-.384.036-.552zm-3.228-1.848c.756 0 1.368.492 1.56 1.26h-3.12c.192-.756.792-1.26 1.56-1.26z" fill="#fff"/>
</svg>
